<?xml version="1.0" encoding="utf-8"?>
<!-- Generator: Adobe Illustrator 22.0.1, SVG Export Plug-In . SVG Version: 6.00 Build 0)  -->
<svg version="1.1" id="Layer_2" xmlns="http://www.w3.org/2000/svg" xmlns:xlink="http://www.w3.org/1999/xlink" x="0px" y="0px"
	 viewBox="0 0 256 256" style="enable-background:new 0 0 256 256;" xml:space="preserve">
<style type="text/css">
	.st0{fill:#3A312A;}
	.st1{fill:#D7E057;}
	.st2{fill:#FCE8CB;}
	.st3{fill:#8AC6DD;}
	.st4{fill-rule:evenodd;clip-rule:evenodd;fill:#FCE8CB;}
	.st5{fill:#F5978A;}
	.st6{fill:#87796F;}
	.st7{fill:#F16C7A;}
	.st8{fill:#68A8BC;}
	.st9{fill:#B9BC39;}
	.st10{fill:#CE4E61;}
	.st11{fill:#6B5B51;}
	.st12{fill:#CCAE8B;}
	.st13{fill-rule:evenodd;clip-rule:evenodd;fill:#F16C7A;}
</style>
<g>
	<g>
		<g>
			<path class="st1" d="M85.925,26.529c-0.974,11.564-13.024,13.389-13.024,13.389c10.347,0.487,12.925,14.059,12.925,14.059
				c0.221-9.677,13.321-14.202,13.321-14.202C89.333,39.188,85.925,26.529,85.925,26.529z"/>
		</g>
	</g>
	<g>
		<g>
			<path class="st0" d="M99.237,38.278c-8.605-0.516-11.833-12.025-11.864-12.142c-0.191-0.703-0.864-1.169-1.583-1.102
				c-0.725,0.066-1.298,0.642-1.359,1.367c-0.86,10.216-11.313,11.964-11.754,12.032c-0.763,0.116-1.313,0.791-1.273,1.561
				c0.04,0.771,0.657,1.385,1.427,1.421c9.028,0.426,11.499,12.719,11.523,12.844c0.137,0.711,0.759,1.217,1.472,1.217
				c0.042,0,0.084-0.002,0.126-0.005c0.764-0.064,1.357-0.693,1.375-1.46c0.195-8.509,12.192-12.777,12.313-12.819
				c0.675-0.234,1.092-0.914,0.994-1.622C100.534,38.862,99.951,38.321,99.237,38.278z M85.67,48.624
				c-1.356-3.131-3.709-6.908-7.587-8.877c2.931-1.405,6.409-3.913,8.202-8.273c1.551,3.071,4.2,6.881,8.334,8.723
				C91.612,41.837,87.697,44.602,85.67,48.624z"/>
		</g>
	</g>
	<g>
		<g>
			<path class="st1" d="M64.226,43.509c-0.689,8.179-9.212,9.47-9.212,9.47c7.318,0.344,9.142,9.944,9.142,9.944
				c0.156-6.844,9.422-10.045,9.422-10.045C66.637,52.463,64.226,43.509,64.226,43.509z"/>
		</g>
	</g>
	<g>
		<g>
			<path class="st0" d="M73.668,51.382c-5.766-0.346-7.972-8.187-7.994-8.266c-0.19-0.702-0.853-1.164-1.582-1.102
				c-0.726,0.065-1.299,0.643-1.36,1.368c-0.579,6.871-7.646,8.066-7.942,8.113c-0.763,0.116-1.313,0.791-1.273,1.561
				c0.04,0.771,0.657,1.385,1.427,1.421c6.035,0.284,7.724,8.645,7.739,8.727c0.135,0.713,0.759,1.22,1.472,1.22
				c0.042,0,0.083-0.002,0.125-0.005c0.765-0.063,1.358-0.693,1.376-1.461c0.13-5.709,8.331-8.633,8.412-8.661
				c0.676-0.233,1.094-0.913,0.996-1.622C74.967,51.966,74.382,51.425,73.668,51.382z M64.083,58.176
				c-0.924-1.885-2.34-3.947-4.447-5.279c1.856-1.041,3.697-2.63,4.871-4.917c1.057,1.874,2.654,3.955,4.941,5.225
				C67.598,54.305,65.459,55.943,64.083,58.176z"/>
		</g>
	</g>
	<g>
		<g>
			<path class="st1" d="M64.226,16.852c-0.689,8.179-9.212,9.471-9.212,9.471c7.318,0.344,9.142,9.944,9.142,9.944
				c0.156-6.845,9.422-10.045,9.422-10.045C66.637,25.806,64.226,16.852,64.226,16.852z"/>
		</g>
	</g>
	<g>
		<g>
			<path class="st0" d="M73.667,24.724c-5.766-0.345-7.972-8.186-7.993-8.265c-0.19-0.702-0.853-1.165-1.582-1.102
				c-0.726,0.065-1.299,0.643-1.36,1.368c-0.579,6.87-7.647,8.066-7.942,8.113c-0.763,0.116-1.313,0.791-1.273,1.561
				c0.04,0.771,0.657,1.385,1.427,1.421c6.035,0.284,7.724,8.645,7.739,8.727c0.135,0.713,0.759,1.22,1.473,1.22
				c0.041,0,0.083-0.002,0.125-0.005c0.765-0.063,1.358-0.693,1.376-1.461c0.13-5.709,8.331-8.634,8.412-8.662
				c0.677-0.234,1.094-0.913,0.996-1.622C74.967,25.308,74.382,24.766,73.667,24.724z M64.083,31.519
				c-0.924-1.885-2.341-3.947-4.447-5.279c1.856-1.042,3.697-2.63,4.871-4.917c1.057,1.874,2.654,3.954,4.941,5.224
				C67.598,27.646,65.459,29.286,64.083,31.519z"/>
		</g>
	</g>
	<g>
		<g>
			<path class="st6" d="M116.56,25.308v16.32c0.84-0.24,1.74-0.37,2.66-0.37h40.2c0.92,0,1.82,0.13,2.66,0.37v-16.32H116.56z"/>
		</g>
	</g>
	<g>
		<g>
			<path class="st0" d="M162.081,23.809h-45.52c-0.829,0-1.5,0.672-1.5,1.5v16.319c0,0.471,0.221,0.914,0.597,1.197
				c0.376,0.284,0.863,0.376,1.316,0.245c0.724-0.207,1.481-0.313,2.248-0.313h40.2c0.767,0,1.523,0.105,2.248,0.313
				c0.136,0.039,0.274,0.058,0.413,0.058c0.322,0,0.64-0.104,0.903-0.303c0.375-0.283,0.597-0.727,0.597-1.197V25.309
				C163.581,24.48,162.909,23.809,162.081,23.809z M160.581,39.817c-0.384-0.04-0.771-0.06-1.16-0.06h-40.2
				c-0.389,0-0.776,0.02-1.16,0.06V26.809h42.52V39.817z"/>
		</g>
	</g>
	<g>
		<g>
			<path class="st6" d="M164.116,16.925h-49.591c-2.315,0-4.193,1.877-4.193,4.192s1.877,4.192,4.193,4.192h49.591
				c2.315,0,4.192-1.877,4.192-4.192S166.431,16.925,164.116,16.925z"/>
		</g>
	</g>
	<g>
		<g>
			<path class="st0" d="M164.116,15.425h-49.591c-3.139,0-5.692,2.554-5.692,5.692s2.554,5.692,5.692,5.692h49.591
				c3.139,0,5.692-2.554,5.692-5.692S167.255,15.425,164.116,15.425z M164.116,23.81h-49.591c-1.484,0-2.692-1.208-2.692-2.692
				s1.208-2.692,2.692-2.692h49.591c1.484,0,2.692,1.208,2.692,2.692S165.601,23.81,164.116,23.81z"/>
		</g>
	</g>
	<g>
		<g>
			<path class="st7" d="M159.424,41.258h-40.207c-5.304,0-9.603,4.3-9.603,9.603v27.459c0.014,0,0.026-0.002,0.04-0.002v14.545
				c-0.014,0-0.026-0.002-0.04-0.002v36.66h59.413V50.862C169.027,45.558,164.728,41.258,159.424,41.258z"/>
		</g>
	</g>
	<g>
		<g>
			<path class="st0" d="M159.424,39.758h-40.206c-6.123,0-11.104,4.981-11.104,11.104v27.46c0,0.828,0.711,1.498,1.54,1.498
				s1.48-0.671,1.48-1.499c0-0.082-0.007-0.163-0.02-0.242V50.861c0-4.469,3.635-8.104,8.104-8.104h40.206
				c4.468,0,8.104,3.635,8.104,8.104v77.161h-56.414V93.352c0.055-0.152,0.085-0.315,0.085-0.485c0-0.829-0.626-1.499-1.455-1.499
				c-0.868-0.068-1.631,0.63-1.631,1.495v36.66c0,0.828,0.671,1.5,1.5,1.5h59.414c0.829,0,1.5-0.672,1.5-1.5V50.861
				C170.527,44.739,165.546,39.758,159.424,39.758z"/>
		</g>
	</g>
	<g>
		<g>
			<path class="st1" d="M172.317,129.523h-65.994c-2.363,0-4.279,1.916-4.279,4.279v4.585h74.551v-4.585
				C176.596,131.438,174.68,129.523,172.317,129.523z"/>
		</g>
	</g>
	<g>
		<g>
			<path class="st0" d="M172.317,128.022h-65.994c-3.186,0-5.779,2.592-5.779,5.778v4.586c0,0.828,0.671,1.5,1.5,1.5h74.551
				c0.829,0,1.5-0.672,1.5-1.5v-4.586C178.096,130.614,175.503,128.022,172.317,128.022z M175.096,136.887h-71.551v-3.086
				c0-1.532,1.247-2.778,2.779-2.778h65.994c1.532,0,2.778,1.246,2.778,2.778V136.887z"/>
		</g>
	</g>
	<g>
		<g>
			<path class="st1" d="M181.902,138.394H96.739c-2.363,0-4.279,1.916-4.279,4.279v0.307c0,2.363,1.916,4.279,4.279,4.279h85.162
				c2.363,0,4.279-1.916,4.279-4.279v-0.307C186.18,140.31,184.265,138.394,181.902,138.394z"/>
		</g>
	</g>
	<g>
		<g>
			<path class="st0" d="M181.902,136.895H96.739c-3.186,0-5.778,2.592-5.778,5.778v0.307c0,3.187,2.592,5.778,5.778,5.778h85.163
				c3.186,0,5.778-2.592,5.778-5.778v-0.307C187.68,139.486,185.088,136.895,181.902,136.895z M184.68,142.979
				c0,1.532-1.247,2.778-2.778,2.778H96.739c-1.532,0-2.778-1.246-2.778-2.778v-0.307c0-1.532,1.247-2.778,2.778-2.778h85.163
				c1.532,0,2.778,1.246,2.778,2.778V142.979z"/>
		</g>
	</g>
	<g>
		<g>
			<path class="st3" d="M171.571,157.641h-24.57h-14.027h-25.681c-2.688,0-4.867,2.179-4.867,4.867v43.56
				c0,12.389,10.043,22.432,22.432,22.432h29.15c12.389,0,22.432-10.043,22.432-22.432v-43.56
				C176.438,159.82,174.259,157.641,171.571,157.641z"/>
		</g>
	</g>
	<g>
		<g>
			<path class="st0" d="M171.571,156.141h-24.57c-0.829,0-1.5,0.672-1.5,1.5s0.671,1.5,1.5,1.5h24.57
				c1.857,0,3.368,1.511,3.368,3.367v43.561c0,11.542-9.39,20.932-20.932,20.932h-29.149c-11.542,0-20.932-9.39-20.932-20.932
				v-43.561c0-1.856,1.511-3.367,3.367-3.367h25.681c0.829,0,1.5-0.672,1.5-1.5s-0.671-1.5-1.5-1.5h-25.681
				c-3.511,0-6.367,2.856-6.367,6.367v43.561c0,13.196,10.736,23.932,23.932,23.932h29.149c13.196,0,23.932-10.735,23.932-23.932
				v-43.561C177.938,158.997,175.082,156.141,171.571,156.141z"/>
		</g>
	</g>
	<g>
		<g>
			<path class="st6" d="M91.655,228.5c0,5.881,4.768,10.648,10.648,10.648h48.979h7.818h17.459c5.881,0,10.649-4.768,10.649-10.648
				H91.655z"/>
		</g>
	</g>
	<g>
		<g>
			<path class="st0" d="M187.208,227H91.655c-0.829,0-1.5,0.672-1.5,1.5c0,6.698,5.45,12.148,12.148,12.148h74.256
				c6.699,0,12.149-5.45,12.149-12.148C188.708,227.672,188.037,227,187.208,227z M176.56,237.648h-74.256
				c-4.534,0-8.308-3.315-9.025-7.648h92.307C184.868,234.333,181.093,237.648,176.56,237.648z"/>
		</g>
	</g>
	<g>
		<g>
			<path class="st3" d="M177.135,167.714c-0.236,0-0.466,0.006-0.696,0.011v7.68c0.23-0.011,0.461-0.017,0.696-0.017
				c8.919,0,16.177,7.258,16.177,16.177c0,8.913-7.258,16.171-16.177,16.171c-0.252,0-0.504-0.006-0.756-0.022
				c-0.192,2.669-0.855,5.213-1.908,7.542c0.872,0.104,1.765,0.154,2.664,0.154c13.151,0,23.851-10.7,23.851-23.845
				C200.986,178.414,190.286,167.714,177.135,167.714z"/>
		</g>
	</g>
	<g>
		<g>
			<path class="st0" d="M177.135,166.214c-0.213,0-0.423,0.005-0.728,0.011c-0.816,0.018-1.468,0.684-1.468,1.5v7.681
				c0,0.41,0.168,0.802,0.464,1.085c0.296,0.282,0.687,0.424,1.106,0.413c0.208-0.01,0.415-0.015,0.626-0.015
				c8.093,0,14.677,6.584,14.677,14.677c0,8.09-6.584,14.671-14.677,14.671c-0.219,0-0.438-0.005-0.658-0.02
				c-0.829-0.049-1.536,0.567-1.595,1.39c-0.176,2.444-0.774,4.811-1.778,7.032c-0.197,0.436-0.174,0.938,0.06,1.355
				c0.235,0.416,0.654,0.695,1.128,0.752c0.908,0.108,1.864,0.164,2.843,0.164c13.979,0,25.351-11.369,25.351-25.345
				C202.486,177.587,191.113,166.214,177.135,166.214z M177.135,213.91c-0.171,0-0.342-0.002-0.511-0.006
				c0.527-1.516,0.898-3.08,1.108-4.678c9.472-0.316,17.08-8.117,17.08-17.661c0-9.478-7.497-17.237-16.873-17.659v-4.678
				c11.953,0.425,21.547,10.281,21.547,22.337C199.486,203.887,189.459,213.91,177.135,213.91z"/>
		</g>
	</g>
	<g>
		<g>
			<path class="st11" d="M153.091,26.808v12.95h6.33c0.39,0,0.77,0.02,1.15,0.06h0.01v-13.01H153.091z"/>
		</g>
	</g>
	<g>
		<g>
			<path class="st11" d="M164.12,18.428h-7.49c1.48,0,2.69,1.21,2.69,2.69s-1.21,2.69-2.69,2.69h7.49c1.48,0,2.69-1.21,2.69-2.69
				S165.6,18.428,164.12,18.428z"/>
		</g>
	</g>
	<g>
		<g>
			<path class="st10" d="M159.42,42.758h-7.49c4.47,0,8.11,3.63,8.11,8.1v77.16h7.49v-77.16
				C167.531,46.388,163.891,42.758,159.42,42.758z"/>
		</g>
	</g>
	<g>
		<g>
			<path class="st9" d="M172.32,131.018h-7.49c1.53,0,2.78,1.25,2.78,2.78v3.09h7.49v-3.09
				C175.1,132.268,173.85,131.018,172.32,131.018z"/>
		</g>
	</g>
	<g>
		<g>
			<path class="st9" d="M181.901,139.898h-7.49c1.53,0,2.78,1.24,2.78,2.77v0.31c0,1.53-1.25,2.78-2.78,2.78h7.49
				c1.53,0,2.78-1.25,2.78-2.78v-0.31C184.68,141.138,183.43,139.898,181.901,139.898z"/>
		</g>
	</g>
	<g>
		<g>
			<path class="st8" d="M171.57,159.138h-7.49c1.86,0,3.37,1.51,3.37,3.37v43.56c0,0.63-0.04,1.26-0.1,1.88
				c-0.02,0.24-0.05,0.47-0.08,0.71c-0.05,0.44-0.12,0.87-0.2,1.3c-0.04,0.22-0.09,0.44-0.13,0.66c-0.1,0.44-0.21,0.87-0.34,1.29
				c-0.06,0.21-0.12,0.42-0.18,0.62c-0.14,0.42-0.3,0.84-0.46,1.25c-0.08,0.2-0.16,0.4-0.24,0.6c-3.22,7.42-10.61,12.62-19.2,12.62
				h7.49c8.58,0,15.97-5.2,19.2-12.62c0.08-0.2,0.16-0.4,0.24-0.6c0.16-0.41,0.32-0.83,0.46-1.25c0.06-0.2,0.12-0.41,0.18-0.62
				c0.13-0.42,0.24-0.85,0.33-1.29c0.05-0.22,0.1-0.44,0.14-0.66c0.08-0.43,0.15-0.86,0.2-1.3c0.03-0.24,0.06-0.47,0.08-0.71
				c0.06-0.62,0.1-1.25,0.1-1.88v-43.56C174.94,160.648,173.43,159.138,171.57,159.138z"/>
		</g>
	</g>
	<g>
		<g>
			<path class="st11" d="M178.1,229.998c-0.72,4.34-4.5,7.65-9.03,7.65h7.49c4.53,0,8.31-3.31,9.02-7.65H178.1z"/>
		</g>
	</g>
</g>
</svg>
