<svg fill="#000000" xmlns="http://www.w3.org/2000/svg"  viewBox="0 0 48 48" width="24px" height="24px"><path d="M 12.429688 4 C 10.55318 4 9 5.5531809 9 7.4296875 L 9 12.570312 C 9 13.584444 9.4626312 14.493864 10.175781 15.125 C 9.442808 16.059769 9 17.230031 9 18.5 L 9 38.5 C 9 41.519774 11.480226 44 14.5 44 L 33.5 44 C 36.519774 44 39 41.519774 39 38.5 L 39 18.5 C 39 17.230031 38.557192 16.059769 37.824219 15.125 C 38.537369 14.493864 39 13.584444 39 12.570312 L 39 7.4296875 C 39 5.5531809 37.446819 4 35.570312 4 L 12.429688 4 z M 12.429688 7 L 15.5 7 L 15.5 10 L 18.5 10 L 18.5 7 L 22.5 7 L 22.5 10 L 25.5 10 L 25.5 7 L 29.5 7 L 29.5 10 L 32.5 10 L 32.5 7 L 35.570312 7 C 35.825806 7 36 7.1741941 36 7.4296875 L 36 12.570312 C 36 12.825807 35.825806 13 35.570312 13 L 12.429688 13 C 12.174193 13 12 12.825806 12 12.570312 L 12 7.4296875 C 12 7.1741941 12.174194 7 12.429688 7 z M 14.5 16 L 33.5 16 C 34.898226 16 36 17.101774 36 18.5 L 36 38.5 C 36 39.898226 34.898226 41 33.5 41 L 14.5 41 C 13.101774 41 12 39.898226 12 38.5 L 12 18.5 C 12 17.101774 13.101774 16 14.5 16 z M 24 22 C 23.46875 22 23.267402 22.161397 23.101562 22.261719 C 22.935724 22.362041 22.823526 22.455173 22.714844 22.550781 C 22.497479 22.741997 22.306721 22.949428 22.099609 23.193359 C 21.685386 23.681223 21.230463 24.30725 20.787109 25.023438 C 19.900402 26.45581 19 28.15 19 30 C 19 32.743657 21.256343 35 24 35 C 26.743657 35 29 32.743657 29 30 C 29 28.15 28.099598 26.455811 27.212891 25.023438 C 26.769537 24.30725 26.314614 23.681223 25.900391 23.193359 C 25.693279 22.949428 25.502521 22.741997 25.285156 22.550781 C 25.176474 22.455171 25.064275 22.362041 24.898438 22.261719 C 24.732598 22.161397 24.53125 22 24 22 z M 24 25.673828 C 24.219214 25.966863 24.428631 26.224407 24.662109 26.601562 C 25.400402 27.794189 26 29.35 26 30 C 26 31.122343 25.122343 32 24 32 C 22.877657 32 22 31.122343 22 30 C 22 29.35 22.599598 27.794189 23.337891 26.601562 C 23.571369 26.224406 23.780786 25.966863 24 25.673828 z"/></svg>