<svg fill="#000000" xmlns="http://www.w3.org/2000/svg"  viewBox="0 0 48 48" width="24px" height="24px"><path d="M 27.5 3 C 23.652437 3 21.298828 6.6035156 21.298828 6.6035156 A 1.50015 1.50015 0 0 0 21.275391 6.6367188 C 19.894817 5.6539583 18.157184 5 16 5 A 1.50015 1.50015 0 1 0 16 8 C 19.022643 8 20.351443 9.2183331 21.289062 11.060547 C 21.924605 12.309246 22.188796 13.855225 22.335938 15.376953 C 22.019499 15.245361 21.891123 15.258682 21.423828 15.072266 C 20.104178 14.545823 18.207402 14 15.25 14 C 9.6149486 14 5.1695593 18.812676 5 23.966797 A 1.50015 1.50015 0 0 0 5 24.017578 C 5 24.097258 5.0024063 24.294018 5.0039062 24.527344 C 5.0054063 24.76067 5.0058594 25.057423 5.0058594 25 A 1.50015 1.50015 0 0 0 5.0058594 25.019531 C 5.0766407 30.311276 6.6226569 35.209757 9.2050781 38.871094 C 11.787499 42.53243 15.511283 45 19.757812 45 L 20.021484 45 C 21.875999 45 23.13158 44.227102 24 43.529297 C 24.868241 44.227102 26.12239 45 27.976562 45 L 28.242188 45 C 32.488716 45 36.212501 42.53243 38.794922 38.871094 C 41.099786 35.603275 42.56881 31.347825 42.910156 26.708984 A 1.50015 1.50015 0 0 0 42.935547 26.173828 C 42.956463 25.789801 42.98699 25.408134 42.992188 25.019531 C 42.997388 24.803739 42.994494 24.746766 42.996094 24.517578 C 42.997028 24.381005 42.997447 24.316893 42.998047 24.220703 A 1.50015 1.50015 0 0 0 43 24.189453 L 43 24.140625 L 43 24 A 1.50015 1.50015 0 0 0 42.966797 23.703125 A 1.50015 1.50015 0 0 0 42.925781 23.558594 A 1.50015 1.50015 0 0 0 42.796875 23.265625 C 42.182081 18.446164 38.091465 14 32.75 14 C 29.792598 14 27.895822 14.545823 26.576172 15.072266 C 25.948911 15.322496 25.731598 15.332804 25.351562 15.480469 C 25.250407 14.056188 24.938023 12.608624 24.40625 11.119141 C 25.293822 11.607233 26.2907 12 27.5 12 C 31.347563 12 33.701172 8.3964844 33.701172 8.3964844 A 1.50015 1.50015 0 0 0 33.701172 6.6035156 C 33.701172 6.6035156 31.347563 3 27.5 3 z M 27.5 6 C 28.547857 6 29.57856 6.7974066 30.347656 7.5 C 29.57856 8.2025934 28.547857 9 27.5 9 C 26.452143 9 25.42144 8.2025934 24.652344 7.5 C 25.42144 6.7974066 26.452143 6 27.5 6 z M 15.25 17 C 17.860598 17 19.2119 17.420317 20.3125 17.859375 C 21.191581 18.210063 22.096765 18.604429 23.189453 18.78125 A 1.50015 1.50015 0 0 0 24.808594 18.78125 C 25.902226 18.604675 26.807903 18.210269 27.6875 17.859375 C 28.7881 17.420317 30.139402 17 32.75 17 C 36.552206 17 39.863423 20.796291 39.996094 24.207031 C 39.621908 24.136508 39.240373 24.087891 38.847656 24.087891 C 36.936044 24.087891 35.379517 25.107061 34.246094 26.472656 C 33.780759 26.329926 33.366794 26.087891 32.847656 26.087891 C 29.990202 26.087891 27.640625 28.435514 27.640625 31.292969 C 27.640625 34.150423 29.989713 36.5 32.847656 36.5 C 33.928691 36.5 34.86847 36.079824 35.701172 35.511719 C 36.108065 35.759689 36.538799 35.969856 36.988281 36.138672 C 36.780507 36.483409 36.568508 36.823918 36.34375 37.142578 C 34.168421 40.226742 31.332657 42 28.242188 42 L 27.976562 42 C 26.805647 42 25.078125 40.515625 25.078125 40.515625 A 1.50015 1.50015 0 0 0 22.921875 40.515625 C 22.921875 40.515625 21.193841 42 20.021484 42 L 19.757812 42 C 18.058156 42 16.440977 41.446954 14.962891 40.451172 C 15.412534 40.140842 15.830731 39.759492 16.189453 39.287109 C 16.818017 38.459386 17.257315 37.334392 17.15625 36.085938 C 17.07911 35.132981 16.592087 34.179462 15.896484 33.259766 C 16.784411 31.536821 17.430761 29.37335 16.904297 27.082031 C 16.591218 25.719426 15.804373 24.359641 14.460938 23.427734 C 13.117499 22.495828 11.304977 22.002754 9.0019531 22 C 8.8079258 21.999759 8.6181432 22.015776 8.4277344 22.03125 C 9.4464747 19.342427 12.164777 17 15.25 17 z M 8.9980469 25 C 10.876023 25.0022 12.039967 25.400047 12.75 25.892578 C 13.460033 26.385109 13.803172 26.982262 13.980469 27.753906 C 14.335062 29.297195 13.661212 31.562183 12.949219 32.638672 A 1.50015 1.50015 0 0 0 13.140625 34.529297 C 13.924497 35.310748 14.131268 35.898893 14.166016 36.328125 C 14.200766 36.757357 14.066966 37.122129 13.800781 37.472656 C 13.534595 37.823183 13.119333 38.111155 12.832031 38.220703 C 12.700193 38.270974 12.654076 38.256489 12.65625 38.257812 A 1.5003093 1.5003093 0 0 0 12.447266 38.164062 C 12.175797 37.840319 11.910343 37.50283 11.65625 37.142578 C 9.5048446 34.092332 8.1054615 29.800791 8.0136719 25.134766 C 8.329122 25.05406 8.6552234 24.999583 8.9980469 25 z M 38.847656 27.087891 C 39.199062 27.087891 39.531338 27.147981 39.84375 27.25 C 39.60779 29.473543 39.08379 31.572826 38.324219 33.449219 C 37.690194 33.343139 37.122795 33.054822 36.664062 32.625 A 1.50015 1.50015 0 0 0 34.507812 32.734375 C 34.095883 33.207489 33.517924 33.5 32.847656 33.5 C 31.611599 33.5 30.640625 32.529514 30.640625 31.292969 C 30.640625 30.056423 31.611111 29.087891 32.847656 29.087891 C 33.239376 29.087891 33.601341 29.195297 33.949219 29.398438 A 1.50015 1.50015 0 0 0 36.03125 28.806641 C 36.574998 27.780402 37.612392 27.087891 38.847656 27.087891 z"/></svg>