<?xml version="1.0" encoding="utf-8"?>
<!-- Generator: Adobe Illustrator 22.0.1, SVG Export Plug-In . SVG Version: 6.00 Build 0)  -->
<svg version="1.1" id="Layer_2" xmlns="http://www.w3.org/2000/svg" xmlns:xlink="http://www.w3.org/1999/xlink" x="0px" y="0px"
	 viewBox="0 0 256 256" style="enable-background:new 0 0 256 256;" xml:space="preserve">
<style type="text/css">
	.st0{fill:#3A312A;}
	.st1{fill:#D7E057;}
	.st2{fill:#FCE8CB;}
	.st3{fill:#8AC6DD;}
	.st4{fill-rule:evenodd;clip-rule:evenodd;fill:#FCE8CB;}
	.st5{fill:#F5978A;}
	.st6{fill:#87796F;}
	.st7{fill:#F16C7A;}
	.st8{fill:#68A8BC;}
	.st9{fill:#B9BC39;}
	.st10{fill:#CE4E61;}
	.st11{fill:#6B5B51;}
	.st12{fill:#CCAE8B;}
	.st13{fill-rule:evenodd;clip-rule:evenodd;fill:#F16C7A;}
</style>
<g>
	<g>
		<g>
			<path class="st1" d="M84.504,101.076c-0.974,11.564-13.024,13.39-13.024,13.39c10.347,0.487,12.925,14.059,12.925,14.059
				c0.221-9.677,13.321-14.202,13.321-14.202C87.913,113.735,84.504,101.076,84.504,101.076z"/>
		</g>
	</g>
	<g>
		<g>
			<path class="st0" d="M97.816,112.825c-8.605-0.515-11.832-12.024-11.864-12.141c-0.191-0.703-0.859-1.164-1.583-1.102
				c-0.725,0.066-1.298,0.642-1.359,1.367c-0.86,10.215-11.313,11.964-11.754,12.032c-0.763,0.116-1.313,0.791-1.273,1.561
				c0.04,0.771,0.657,1.385,1.427,1.421c9.028,0.426,11.499,12.718,11.523,12.843c0.137,0.711,0.759,1.217,1.472,1.217
				c0.042,0,0.084-0.002,0.126-0.005c0.764-0.064,1.357-0.693,1.375-1.46c0.195-8.509,12.192-12.777,12.313-12.819
				c0.675-0.234,1.092-0.914,0.994-1.622C99.114,113.408,98.53,112.867,97.816,112.825z M84.25,123.171
				c-1.356-3.13-3.709-6.907-7.587-8.876c2.931-1.405,6.409-3.913,8.202-8.273c1.551,3.071,4.2,6.88,8.334,8.723
				C90.192,116.384,86.276,119.149,84.25,123.171z"/>
		</g>
	</g>
	<g>
		<g>
			<path class="st1" d="M62.806,118.057c-0.689,8.179-9.212,9.471-9.212,9.471c7.318,0.344,9.142,9.944,9.142,9.944
				c0.156-6.845,9.422-10.045,9.422-10.045C65.217,127.011,62.806,118.057,62.806,118.057z"/>
		</g>
	</g>
	<g>
		<g>
			<path class="st0" d="M72.247,125.929c-5.766-0.345-7.972-8.186-7.994-8.265c-0.191-0.701-0.85-1.171-1.582-1.102
				c-0.726,0.065-1.299,0.643-1.36,1.368c-0.579,6.871-7.646,8.066-7.942,8.113c-0.763,0.116-1.313,0.791-1.273,1.561
				c0.04,0.771,0.657,1.385,1.427,1.421c6.036,0.284,7.724,8.645,7.739,8.727c0.135,0.713,0.759,1.22,1.473,1.22
				c0.041,0,0.083-0.002,0.125-0.005c0.765-0.063,1.358-0.693,1.376-1.461c0.131-5.709,8.332-8.634,8.413-8.662
				c0.677-0.234,1.094-0.913,0.996-1.622C73.546,126.513,72.962,125.971,72.247,125.929z M62.663,132.724
				c-0.924-1.885-2.34-3.947-4.447-5.279c1.856-1.041,3.697-2.63,4.871-4.917c1.057,1.874,2.654,3.955,4.941,5.224
				C66.178,128.852,64.039,130.491,62.663,132.724z"/>
		</g>
	</g>
	<g>
		<g>
			<path class="st1" d="M62.806,91.399c-0.689,8.179-9.212,9.47-9.212,9.47c7.318,0.345,9.142,9.944,9.142,9.944
				c0.156-6.844,9.422-10.045,9.422-10.045C65.217,100.353,62.806,91.399,62.806,91.399z"/>
		</g>
	</g>
	<g>
		<g>
			<path class="st0" d="M72.247,99.271c-5.766-0.345-7.972-8.186-7.994-8.265c-0.191-0.702-0.85-1.164-1.582-1.102
				c-0.726,0.065-1.299,0.643-1.36,1.368c-0.579,6.87-7.646,8.066-7.942,8.113c-0.763,0.116-1.314,0.791-1.273,1.561
				c0.04,0.771,0.657,1.385,1.428,1.421c6.035,0.284,7.723,8.645,7.739,8.727c0.135,0.712,0.759,1.22,1.472,1.22
				c0.042,0,0.083-0.002,0.125-0.005c0.765-0.063,1.358-0.693,1.376-1.461c0.131-5.709,8.332-8.634,8.413-8.662
				c0.677-0.234,1.094-0.913,0.996-1.622C73.546,99.855,72.962,99.313,72.247,99.271z M62.663,106.066
				c-0.924-1.886-2.34-3.947-4.447-5.28c1.856-1.041,3.697-2.629,4.871-4.916c1.057,1.874,2.654,3.955,4.941,5.224
				C66.178,102.194,64.039,103.834,62.663,106.066z"/>
		</g>
	</g>
	<g>
		<g>
			<path class="st2" d="M176.674,145.414h-17.001v-11.049c-4.702,3.26-9.568,5.184-14.289,5.184c-4.529,0-9.308-1.943-13.991-5.241
				h-0.288v11.107h-17.011c-14.212,0-25.732,11.52-25.732,25.732v68.197h39.077h12.855h62.115v-68.197
				C202.407,156.934,190.887,145.414,176.674,145.414z"/>
		</g>
	</g>
	<g>
		<g>
			<path class="st0" d="M176.674,143.913h-15.501v-9.549c0-0.559-0.31-1.07-0.804-1.329c-0.494-0.258-1.091-0.222-1.551,0.097
				c-4.704,3.262-9.224,4.916-13.434,4.916c-4.032,0-8.449-1.671-13.128-4.968c-0.253-0.178-0.555-0.273-0.864-0.273h-0.288
				c-0.829,0-1.5,0.672-1.5,1.5v9.606h-15.511c-15.016,0-27.232,12.217-27.232,27.232v68.198c0,0.828,0.671,1.5,1.5,1.5h114.046
				c0.829,0,1.5-0.672,1.5-1.5v-68.198C203.907,156.13,191.69,143.913,176.674,143.913z M200.907,237.844H89.861v-66.698
				c0-13.361,10.871-24.232,24.232-24.232h17.011c0.829,0,1.5-0.672,1.5-1.5v-8.508c4.452,2.751,8.742,4.143,12.78,4.143
				c4.102,0,8.395-1.322,12.789-3.935v8.3c0,0.828,0.671,1.5,1.5,1.5h17.001c13.362,0,24.232,10.871,24.232,24.232V237.844z"/>
		</g>
	</g>
	<g>
		<g>
			<path class="st3" d="M176.674,145.414h-17.001l-0.01,0.018c-6.365,10.968-22.207,10.958-28.558-0.018h-17.011
				c-14.212,0-25.732,11.521-25.732,25.732v68.197h39.077h12.855h62.115v-68.197C202.407,156.934,190.886,145.414,176.674,145.414z"
				/>
		</g>
	</g>
	<g>
		<g>
			<path class="st0" d="M176.674,143.913h-17.001c-0.535,0-1.039,0.303-1.308,0.766c-2.716,4.68-7.566,7.473-12.976,7.473h-0.011
				c-5.414-0.004-10.265-2.804-12.976-7.489c-0.268-0.464-0.763-0.749-1.298-0.749h-17.011c-15.016,0-27.232,12.217-27.232,27.232
				v68.198c0,0.828,0.671,1.5,1.5,1.5h114.046c0.829,0,1.5-0.672,1.5-1.5v-68.198C203.907,156.13,191.69,143.913,176.674,143.913z
				 M200.907,237.844H89.861v-66.698c0-13.361,10.871-24.232,24.232-24.232h16.17c3.324,5.171,8.911,8.234,15.114,8.238h0.013
				c6.189,0,11.77-3.047,15.122-8.238h16.163c13.362,0,24.232,10.871,24.232,24.232V237.844z"/>
		</g>
	</g>
	<g>
		<g>
			<path class="st4" d="M101.198,71.499c-5.592,0-10.125,4.533-10.125,10.125c0,5.592,4.533,10.125,10.125,10.125
				s10.125-4.533,10.125-10.125C111.323,76.032,106.79,71.499,101.198,71.499z"/>
		</g>
	</g>
	<g>
		<g>
			<path class="st0" d="M101.198,69.999c-6.41,0-11.625,5.215-11.625,11.625s5.215,11.625,11.625,11.625
				c6.41,0,11.625-5.215,11.625-11.625S107.608,69.999,101.198,69.999z M101.198,90.249c-4.756,0-8.625-3.869-8.625-8.625
				s3.869-8.625,8.625-8.625c4.756,0,8.625,3.869,8.625,8.625S105.954,90.249,101.198,90.249z"/>
		</g>
	</g>
	<g>
		<g>
			<path class="st4" d="M189.573,71.499c-5.592,0-10.125,4.533-10.125,10.125c0,5.592,4.533,10.125,10.125,10.125
				c5.592,0,10.125-4.533,10.125-10.125C199.698,76.032,195.165,71.499,189.573,71.499z"/>
		</g>
	</g>
	<g>
		<g>
			<path class="st0" d="M189.573,69.999c-6.41,0-11.625,5.215-11.625,11.625s5.215,11.625,11.625,11.625s11.625-5.215,11.625-11.625
				S195.983,69.999,189.573,69.999z M189.573,90.249c-4.756,0-8.625-3.869-8.625-8.625s3.869-8.625,8.625-8.625
				c4.756,0,8.625,3.869,8.625,8.625S194.329,90.249,189.573,90.249z"/>
		</g>
	</g>
	<g>
		<g>
			<path class="st2" d="M145.385,31.823c-24.789,0-44.886,20.096-44.886,44.886c0,24.79,24.83,62.84,44.886,62.84
				c21.011,0,44.886-38.05,44.886-62.84C190.271,51.919,170.175,31.823,145.385,31.823z"/>
		</g>
	</g>
	<g>
		<g>
			<path class="st0" d="M145.385,30.323C119.808,30.323,99,51.132,99,76.709c0,12.083,5.82,28.012,15.188,41.569
				c9.852,14.259,21.515,22.771,31.198,22.771c21.952,0,46.386-38.352,46.386-64.341C191.771,51.132,170.962,30.323,145.385,30.323z
				 M145.385,138.05c-8.697,0-19.438-8.028-28.73-21.477C107.615,103.49,102,88.215,102,76.709
				c0-23.923,19.463-43.386,43.386-43.386s43.386,19.463,43.386,43.386C188.771,100.929,165.5,138.05,145.385,138.05z"/>
		</g>
	</g>
	<g>
		<g>
			<path class="st0" d="M129.538,71.821c-2.419,0-4.381,1.962-4.381,4.381c0,2.42,1.961,4.381,4.381,4.381
				c2.42,0,4.381-1.961,4.381-4.381C133.919,73.783,131.958,71.821,129.538,71.821z"/>
		</g>
	</g>
	<g>
		<g>
			<path class="st0" d="M161.232,71.821c-2.42,0-4.381,1.962-4.381,4.381c0,2.42,1.961,4.381,4.381,4.381
				c2.42,0,4.381-1.961,4.381-4.381C165.613,73.783,163.652,71.821,161.232,71.821z"/>
		</g>
	</g>
	<g>
		<g>
			<path class="st5" d="M120.782,83.586c-4.168,0-7.547,2.525-7.547,5.642c0,3.116,3.379,5.642,7.547,5.642
				c4.168,0,7.547-2.526,7.547-5.642C128.329,86.111,124.95,83.586,120.782,83.586z"/>
		</g>
	</g>
	<g>
		<g>
			<path class="st5" d="M169.988,83.586c-4.168,0-7.547,2.525-7.547,5.642c0,3.116,3.379,5.642,7.547,5.642
				c4.168,0,7.547-2.526,7.547-5.642C177.535,86.111,174.156,83.586,169.988,83.586z"/>
		</g>
	</g>
	<g>
		<g>
			<path class="st6" d="M192.362,66.334c0-24.531-10.994-49.876-46.459-49.876c-34.58,0-46.458,25.346-46.458,49.877
				c0,2.596,0.47,4.53,1.343,6.947c0.411,1.14,7.064-2.499,7.63-2.898c2.833-1.995,5.147-4.697,6.878-7.686
				c0.715-1.243,1.312-2.507,1.792-3.771c1.531-4.035,5.692-15.263,9.917-14.382c5.665,1.181,12.087,1.849,18.899,1.849
				c6.812,0,13.233-0.667,18.899-1.849c4.225-0.881,8.386,10.347,9.917,14.382c0.48,1.265,1.077,2.529,1.792,3.771
				c2.858,4.944,7.685,9.65,13.558,10.506c0.015-0.284,0.373-0.38,0.64-0.477C192.631,72.029,192.362,67.875,192.362,66.334z"/>
		</g>
	</g>
	<g>
		<g>
			<path class="st0" d="M193.867,66.832l-0.005-0.498c0-15.447-4.673-51.377-47.959-51.377c-16.407,0-28.983,5.491-37.382,16.32
				C99.78,42.549,97.945,56.563,97.945,66.335c0.001,2.912,0.548,5.012,1.432,7.456c0.191,0.529,0.619,0.934,1.175,1.108
				c0.178,0.057,0.383,0.082,0.612,0.082c2.594,0,8.064-3.333,8.118-3.371c2.858-2.012,5.386-4.834,7.314-8.163
				c0.742-1.288,1.379-2.63,1.895-3.988l0.096-0.254c4.718-12.448,7.241-13.387,8.112-13.191c5.987,1.247,12.448,1.88,19.205,1.88
				c6.757,0,13.218-0.633,19.205-1.88c0.869-0.195,3.395,0.745,8.113,13.191l0.096,0.254c0.514,1.355,1.151,2.697,1.896,3.99
				c3.6,6.227,9.073,10.428,14.64,11.24c0.416,0.063,0.842-0.057,1.168-0.325c0.087-0.071,0.165-0.151,0.233-0.238
				C193.959,73.11,193.899,69.028,193.867,66.832z M190.135,71.34c-0.209,0.073-0.398,0.157-0.566,0.253
				c-4.424-0.931-8.776-4.484-11.758-9.644c-0.664-1.151-1.231-2.348-1.689-3.555l-0.096-0.253
				c-3.187-8.409-6.793-16.055-11.53-15.065c-5.786,1.206-12.041,1.817-18.593,1.817c-6.551,0-12.807-0.611-18.592-1.817
				c-4.744-0.972-8.343,6.656-11.53,15.065l-0.096,0.253c-0.459,1.209-1.027,2.405-1.688,3.552c-1.71,2.954-3.938,5.447-6.437,7.207
				c-0.739,0.496-4.095,2.223-5.676,2.717c-0.587-1.773-0.939-3.416-0.94-5.535c0-11.349,3.242-48.378,44.958-48.378
				c40.578,0,44.959,33.831,44.959,48.377l0.005,0.541C190.924,70.751,190.369,71.255,190.135,71.34z"/>
		</g>
	</g>
	<g>
		<g>
			<path class="st0" d="M158.313,103.994c-0.773-0.293-1.64,0.102-1.931,0.878c-0.874,2.333-4.298,6.746-10.998,6.746
				c-5.235,0-8.849-2.245-11.048-6.864c-0.356-0.748-1.25-1.063-2-0.71c-0.747,0.356-1.065,1.251-0.709,1.999
				c2.709,5.69,7.338,8.575,13.757,8.575c7.248,0,12.239-4.507,13.808-8.693C159.482,105.149,159.089,104.284,158.313,103.994z"/>
		</g>
	</g>
	<g>
		<g>
			<rect x="104.555" y="180.044" class="st1" width="81.625" height="59.304"/>
		</g>
	</g>
	<g>
		<g>
			<path class="st0" d="M186.18,205.95c0.829,0,1.5-0.672,1.5-1.5v-24.406c0-0.828-0.671-1.5-1.5-1.5h-81.625
				c-0.829,0-1.5,0.672-1.5,1.5v59.304c0,0.828,0.671,1.5,1.5,1.5h81.625c0.829,0,1.5-0.672,1.5-1.5v-20.003
				c0-0.828-0.671-1.5-1.5-1.5s-1.5,0.672-1.5,1.5v18.503h-78.625v-56.304h78.625v22.906
				C184.68,205.278,185.352,205.95,186.18,205.95z"/>
		</g>
	</g>
	<g>
		<g>
			<path class="st1" d="M115.355,139.55c-3.308,0-5.99,2.682-5.99,5.989v9.569h0.002v14.913h-0.002v15.319
				c0,3.309,2.682,5.99,5.99,5.99c3.308,0,5.99-2.681,5.99-5.99v-39.801C121.345,142.231,118.663,139.55,115.355,139.55z"/>
		</g>
	</g>
	<g>
		<g>
			<path class="st0" d="M115.355,138.05c-4.13,0-7.49,3.359-7.49,7.489v9.569c0,0.828,0.674,1.5,1.503,1.5s1.499-0.672,1.499-1.5
				c0-0.021,0-0.041-0.001-0.061v-9.509c0-2.476,2.014-4.489,4.49-4.489s4.49,2.014,4.49,4.489v39.801c0,2.476-2.014,4.49-4.49,4.49
				s-4.49-2.015-4.49-4.49v-15.258c0.001-0.021,0.001-0.041,0.001-0.062c0-0.828-0.672-1.5-1.501-1.5s-1.5,0.672-1.5,1.5v15.319
				c0,4.13,3.36,7.49,7.49,7.49s7.49-3.36,7.49-7.49v-39.801C122.845,141.409,119.485,138.05,115.355,138.05z"/>
		</g>
	</g>
	<g>
		<g>
			<path class="st1" d="M175.435,139.549c-3.308,0-5.99,2.682-5.99,5.99v39.801c0,3.308,2.682,5.99,5.99,5.99
				c3.308,0,5.99-2.682,5.99-5.99v-39.801C181.424,142.231,178.743,139.549,175.435,139.549z"/>
		</g>
	</g>
	<g>
		<g>
			<path class="st0" d="M175.435,138.05c-4.13,0-7.49,3.359-7.49,7.489v39.801c0,4.13,3.36,7.49,7.49,7.49s7.49-3.36,7.49-7.49
				v-39.801C182.924,141.409,179.564,138.05,175.435,138.05z M179.924,185.34c0,2.476-2.014,4.49-4.49,4.49s-4.49-2.015-4.49-4.49
				v-39.801c0-2.476,2.014-4.489,4.49-4.489s4.49,2.014,4.49,4.489V185.34z"/>
		</g>
	</g>
	<g>
		<g>
			<path class="st0" d="M115.355,181.587c-1.27,0-2.3,1.03-2.3,2.3c0,1.271,1.03,2.301,2.3,2.301c1.271,0,2.3-1.03,2.3-2.301
				C117.655,182.617,116.626,181.587,115.355,181.587z"/>
		</g>
	</g>
	<g>
		<g>
			<path class="st0" d="M175.57,181.587c-1.27,0-2.3,1.03-2.3,2.3c0,1.271,1.03,2.301,2.3,2.301c1.271,0,2.3-1.03,2.3-2.301
				C177.87,182.617,176.841,181.587,175.57,181.587z"/>
		</g>
	</g>
	<g>
		<g>
			<path class="st3" d="M123.66,221.645H95.716l8.804-41.573L88.93,165.662l-13.083,63.157c-0.549,2.651,0.124,5.408,1.833,7.508
				c1.709,2.099,4.272,3.318,6.98,3.318h39c4.971,0,9-4.029,9-9S128.631,221.645,123.66,221.645z"/>
		</g>
	</g>
	<g>
		<g>
			<path class="st0" d="M123.66,220.145H97.567l8.42-39.763c0.172-0.811-0.346-1.606-1.157-1.778
				c-0.807-0.164-1.607,0.347-1.778,1.157l-8.804,41.573c-0.094,0.442,0.017,0.903,0.302,1.255c0.285,0.352,0.713,0.556,1.165,0.556
				h27.944c4.136,0,7.5,3.364,7.5,7.5s-3.364,7.5-7.5,7.5h-39c-2.266,0-4.386-1.008-5.816-2.765
				c-1.43-1.757-1.987-4.037-1.528-6.256l13.083-63.157c0.168-0.812-0.353-1.605-1.164-1.773c-0.814-0.17-1.605,0.354-1.773,1.164
				l-13.083,63.158c-0.643,3.106,0.136,6.299,2.139,8.759c2.003,2.46,4.971,3.87,8.143,3.87h39c5.79,0,10.5-4.71,10.5-10.5
				S129.45,220.145,123.66,220.145z"/>
		</g>
	</g>
	<g>
		<g>
			<path class="st2" d="M123.66,221.645h-14.626v18h14.626c4.971,0,9-4.029,9-9S128.631,221.645,123.66,221.645z"/>
		</g>
	</g>
	<g>
		<g>
			<path class="st0" d="M123.66,220.145h-14.626c-0.829,0-1.5,0.672-1.5,1.5v18c0,0.828,0.671,1.5,1.5,1.5h14.626
				c5.79,0,10.5-4.71,10.5-10.5S129.45,220.145,123.66,220.145z M123.66,238.145h-13.126v-15h13.126c4.136,0,7.5,3.364,7.5,7.5
				S127.796,238.145,123.66,238.145z"/>
		</g>
	</g>
	<g>
		<g>
			<path class="st7" d="M156.659,180.043h-32.807c-1.372,0-2.484,1.112-2.484,2.484v22.232c0,6.323,5.126,11.449,11.449,11.449
				h14.878c6.323,0,11.449-5.125,11.449-11.449v-22.232C159.143,181.156,158.031,180.043,156.659,180.043z"/>
		</g>
	</g>
	<g>
		<g>
			<path class="st0" d="M156.659,178.544h-32.807c-2.197,0-3.984,1.787-3.984,3.983v22.233c0,7.14,5.809,12.948,12.949,12.948
				h14.877c7.14,0,12.949-5.809,12.949-12.948v-22.233C160.643,180.331,158.855,178.544,156.659,178.544z M157.643,204.761
				c0,5.485-4.463,9.948-9.949,9.948h-14.877c-5.486,0-9.949-4.463-9.949-9.948v-22.233c0-0.542,0.441-0.983,0.984-0.983h32.807
				c0.543,0,0.984,0.441,0.984,0.983V204.761z"/>
		</g>
	</g>
	<g>
		<g>
			<path class="st6" d="M115.871,216.209c0,3.002,2.433,5.435,5.435,5.435h37.899c3.002,0,5.435-2.433,5.435-5.435H115.871z"/>
		</g>
	</g>
	<g>
		<g>
			<path class="st0" d="M164.64,214.709h-48.769c-0.829,0-1.5,0.672-1.5,1.5c0,3.824,3.111,6.935,6.935,6.935h37.899
				c3.824,0,6.935-3.11,6.935-6.935C166.14,215.381,165.468,214.709,164.64,214.709z M159.205,220.144h-37.899
				c-1.639,0-3.047-1.007-3.638-2.435h45.175C162.251,219.137,160.844,220.144,159.205,220.144z"/>
		</g>
	</g>
	<g>
		<g>
			<path class="st7" d="M159.499,185.185c-0.12,0-0.238,0.003-0.355,0.006v3.92c0.117-0.006,0.235-0.009,0.355-0.009
				c4.552,0,8.256,3.705,8.256,8.256c0,4.549-3.704,8.253-8.256,8.253c-0.129,0-0.257-0.002-0.386-0.011
				c-0.098,1.362-0.436,2.66-0.974,3.85c0.445,0.053,0.901,0.078,1.36,0.078c6.712,0,12.173-5.461,12.173-12.17
				C171.672,190.646,166.211,185.185,159.499,185.185z"/>
		</g>
	</g>
	<g>
		<g>
			<path class="st0" d="M159.498,183.685l-0.392,0.006c-0.814,0.021-1.463,0.687-1.463,1.5v3.92c0,0.411,0.168,0.804,0.466,1.087
				c0.298,0.283,0.704,0.438,1.109,0.411c0.093-0.005,0.186-0.007,0.281-0.007c3.726,0,6.756,3.031,6.756,6.757
				c0,3.724-3.031,6.753-6.756,6.753c-0.099,0-0.197-0.002-0.295-0.008c-0.82-0.05-1.528,0.569-1.587,1.39
				c-0.083,1.159-0.367,2.282-0.845,3.34c-0.197,0.436-0.174,0.938,0.061,1.355c0.235,0.416,0.655,0.695,1.129,0.751
				c0.496,0.059,1.013,0.089,1.537,0.089c7.54,0,13.673-6.132,13.673-13.67C173.172,189.818,167.038,183.685,159.498,183.685z
				 M160.233,208.003c0.08-0.309,0.148-0.621,0.205-0.937c4.94-0.474,8.816-4.646,8.816-9.708c0-4.993-3.769-9.122-8.612-9.69
				v-0.923c5.349,0.573,9.529,5.114,9.529,10.613C170.172,202.995,165.777,207.625,160.233,208.003z"/>
		</g>
	</g>
	<g>
		<g>
			<path class="st8" d="M182.928,147.737v4.61c5.48,4.44,8.98,11.22,8.98,18.8v66.7h9v-66.7
				C200.908,159.947,193.268,150.498,182.928,147.737z"/>
		</g>
	</g>
</g>
</svg>
