<?xml version="1.0" encoding="utf-8"?>
<!-- Generator: Adobe Illustrator 22.0.1, SVG Export Plug-In . SVG Version: 6.00 Build 0)  -->
<svg version="1.1" id="Layer_2" xmlns="http://www.w3.org/2000/svg" xmlns:xlink="http://www.w3.org/1999/xlink" x="0px" y="0px"
	 viewBox="0 0 256 256" style="enable-background:new 0 0 256 256;" xml:space="preserve">
<style type="text/css">
	.st0{fill:#3A312A;}
	.st1{fill:#D7E057;}
	.st2{fill:#FCE8CB;}
	.st3{fill:#8AC6DD;}
	.st4{fill-rule:evenodd;clip-rule:evenodd;fill:#FCE8CB;}
	.st5{fill:#F5978A;}
	.st6{fill:#87796F;}
	.st7{fill:#F16C7A;}
	.st8{fill:#68A8BC;}
	.st9{fill:#B9BC39;}
	.st10{fill:#CE4E61;}
	.st11{fill:#6B5B51;}
	.st12{fill:#CCAE8B;}
	.st13{fill-rule:evenodd;clip-rule:evenodd;fill:#F16C7A;}
</style>
<g>
	<g>
		<g>
			<path class="st1" d="M63.247,41.764c-0.974,11.563-13.025,13.39-13.025,13.39c10.347,0.487,12.925,14.059,12.925,14.059
				c0.221-9.677,13.321-14.203,13.321-14.203C66.655,54.423,63.247,41.764,63.247,41.764z"/>
		</g>
	</g>
	<g>
		<g>
			<path class="st0" d="M76.558,53.513c-8.604-0.515-11.832-12.024-11.863-12.141c-0.191-0.702-0.86-1.162-1.583-1.102
				c-0.725,0.066-1.298,0.642-1.359,1.367c-0.86,10.215-11.313,11.964-11.754,12.032c-0.763,0.116-1.313,0.791-1.273,1.561
				c0.04,0.771,0.657,1.385,1.428,1.421c9.028,0.425,11.498,12.718,11.522,12.842c0.137,0.712,0.759,1.218,1.472,1.218
				c0.042,0,0.084-0.002,0.126-0.005c0.764-0.064,1.357-0.693,1.375-1.46c0.195-8.509,12.192-12.777,12.313-12.819
				c0.675-0.234,1.092-0.914,0.994-1.622C77.856,54.096,77.272,53.555,76.558,53.513z M62.992,63.858
				c-1.357-3.131-3.708-6.907-7.586-8.877c2.931-1.404,6.409-3.913,8.202-8.272c1.551,3.071,4.199,6.88,8.334,8.723
				C68.934,57.071,65.019,59.837,62.992,63.858z"/>
		</g>
	</g>
	<g>
		<g>
			<path class="st1" d="M41.548,58.744c-0.689,8.179-9.212,9.471-9.212,9.471c7.318,0.344,9.142,9.944,9.142,9.944
				c0.156-6.844,9.422-10.045,9.422-10.045C43.959,67.698,41.548,58.744,41.548,58.744z"/>
		</g>
	</g>
	<g>
		<g>
			<path class="st0" d="M50.989,66.616c-5.766-0.345-7.972-8.186-7.993-8.265c-0.19-0.702-0.855-1.165-1.582-1.102
				c-0.726,0.065-1.299,0.643-1.36,1.368c-0.579,6.87-7.647,8.066-7.942,8.113c-0.763,0.116-1.313,0.791-1.273,1.561
				c0.04,0.771,0.657,1.385,1.427,1.421c6.035,0.284,7.724,8.645,7.739,8.727c0.135,0.713,0.759,1.22,1.473,1.22
				c0.041,0,0.082-0.002,0.124-0.005c0.765-0.063,1.358-0.693,1.376-1.461c0.13-5.709,8.332-8.634,8.412-8.662
				c0.677-0.234,1.094-0.913,0.996-1.622C52.289,67.2,51.704,66.658,50.989,66.616z M41.405,73.411
				c-0.924-1.886-2.341-3.947-4.447-5.279c1.855-1.042,3.697-2.63,4.871-4.917c1.057,1.874,2.654,3.954,4.941,5.224
				C44.92,69.539,42.781,71.179,41.405,73.411z"/>
		</g>
	</g>
	<g>
		<g>
			<path class="st1" d="M41.548,32.086c-0.689,8.179-9.212,9.471-9.212,9.471c7.318,0.345,9.142,9.944,9.142,9.944
				c0.156-6.844,9.422-10.045,9.422-10.045C43.959,41.041,41.548,32.086,41.548,32.086z"/>
		</g>
	</g>
	<g>
		<g>
			<path class="st0" d="M50.989,39.959c-5.766-0.345-7.972-8.186-7.993-8.265c-0.19-0.702-0.857-1.158-1.582-1.102
				c-0.726,0.065-1.299,0.643-1.36,1.368c-0.579,6.87-7.647,8.066-7.942,8.113c-0.763,0.116-1.313,0.791-1.273,1.561
				c0.04,0.771,0.657,1.385,1.428,1.421c6.035,0.284,7.723,8.645,7.739,8.727c0.135,0.713,0.759,1.22,1.472,1.22
				c0.042,0,0.083-0.002,0.125-0.005c0.765-0.063,1.358-0.693,1.376-1.461c0.13-5.709,8.332-8.634,8.412-8.662
				c0.677-0.234,1.094-0.913,0.996-1.622C52.289,40.543,51.704,40.001,50.989,39.959z M41.405,46.754
				c-0.924-1.886-2.34-3.947-4.447-5.28c1.855-1.041,3.697-2.629,4.871-4.916c1.057,1.874,2.654,3.954,4.941,5.224
				C44.92,42.882,42.781,44.521,41.405,46.754z"/>
		</g>
	</g>
	<g>
		<g>
			<path class="st2" d="M93.44,86.985c-20.581,0-39.242,8.172-52.956,21.429l-9.405,10.993
				c-8.721,12.395-13.859,27.492-13.859,43.799c0,42.095,34.125,76.22,76.22,76.22s76.22-34.125,76.22-76.22
				C169.66,121.11,135.535,86.985,93.44,86.985z"/>
		</g>
	</g>
	<g>
		<g>
			<path class="st0" d="M93.44,85.485c-20.246,0-39.422,7.76-53.999,21.851c-0.596,0.575-0.612,1.525-0.036,2.121
				c0.577,0.595,1.526,0.612,2.121,0.035C55.54,95.946,73.976,88.485,93.44,88.485c41.201,0,74.72,33.52,74.72,74.721
				c0,41.2-33.52,74.72-74.72,74.72c-41.201,0-74.72-33.52-74.72-74.72c0-15.458,4.698-30.305,13.585-42.936
				c0.477-0.678,0.314-1.613-0.363-2.09c-0.679-0.477-1.613-0.314-2.09,0.363c-9.245,13.139-14.132,28.583-14.132,44.662
				c0,42.854,34.865,77.72,77.72,77.72c42.855,0,77.72-34.865,77.72-77.72C171.16,120.351,136.294,85.485,93.44,85.485z"/>
		</g>
	</g>
	<g>
		<g>
			
				<ellipse transform="matrix(0.9975 -0.0709 0.0709 0.9975 -8.1531 6.1934)" class="st6" cx="83.18" cy="117.964" rx="12.088" ry="12.088"/>
		</g>
	</g>
	<g>
		<g>
			<path class="st0" d="M83.181,104.377c-7.492,0-13.588,6.096-13.588,13.588s6.096,13.587,13.588,13.587
				c7.492,0,13.587-6.095,13.587-13.587S90.673,104.377,83.181,104.377z M83.181,128.552c-5.838,0-10.588-4.749-10.588-10.587
				s4.75-10.588,10.588-10.588c5.838,0,10.587,4.75,10.587,10.588S89.019,128.552,83.181,128.552z"/>
		</g>
	</g>
	<g>
		<g>
			
				<ellipse transform="matrix(0.9871 -0.1602 0.1602 0.9871 -25.5787 17.1266)" class="st6" cx="93.44" cy="167.217" rx="12.088" ry="12.088"/>
		</g>
	</g>
	<g>
		<g>
			<path class="st0" d="M93.44,153.63c-7.492,0-13.588,6.096-13.588,13.588s6.096,13.587,13.588,13.587
				c7.492,0,13.588-6.095,13.588-13.587S100.932,153.63,93.44,153.63z M93.44,177.805c-5.838,0-10.588-4.749-10.588-10.587
				s4.75-10.588,10.588-10.588c5.838,0,10.588,4.75,10.588,10.588S99.278,177.805,93.44,177.805z"/>
		</g>
	</g>
	<g>
		<g>
			<path class="st6" d="M63.873,190.403c-6.676,0-12.088,5.412-12.088,12.088c0,6.676,5.412,12.087,12.088,12.087
				c6.676,0,12.088-5.412,12.088-12.087C75.961,195.815,70.549,190.403,63.873,190.403z"/>
		</g>
	</g>
	<g>
		<g>
			<path class="st0" d="M63.873,188.903c-7.492,0-13.588,6.096-13.588,13.588s6.096,13.588,13.588,13.588
				s13.588-6.096,13.588-13.588S71.366,188.903,63.873,188.903z M63.873,213.079c-5.838,0-10.588-4.75-10.588-10.588
				s4.75-10.588,10.588-10.588c5.838,0,10.588,4.75,10.588,10.588S69.712,213.079,63.873,213.079z"/>
		</g>
	</g>
	<g>
		<g>
			
				<ellipse transform="matrix(0.9871 -0.1602 0.1602 0.9871 -23.6096 9.4613)" class="st6" cx="46.879" cy="151.171" rx="12.088" ry="12.088"/>
		</g>
	</g>
	<g>
		<g>
			<path class="st0" d="M46.879,137.583c-7.492,0-13.588,6.096-13.588,13.588s6.096,13.588,13.588,13.588
				s13.588-6.096,13.588-13.588S54.372,137.583,46.879,137.583z M46.879,161.759c-5.838,0-10.588-4.75-10.588-10.588
				s4.75-10.588,10.588-10.588s10.588,4.75,10.588,10.588S52.718,161.759,46.879,161.759z"/>
		</g>
	</g>
	<g>
		<g>
			<path class="st6" d="M129.544,190.403c-6.676,0-12.088,5.412-12.088,12.088c0,6.676,5.412,12.087,12.088,12.087
				s12.088-5.412,12.088-12.087C141.632,195.815,136.22,190.403,129.544,190.403z"/>
		</g>
	</g>
	<g>
		<g>
			<path class="st0" d="M129.544,188.903c-7.492,0-13.588,6.096-13.588,13.588s6.096,13.588,13.588,13.588
				c7.492,0,13.588-6.096,13.588-13.588S137.036,188.903,129.544,188.903z M129.544,213.079c-5.838,0-10.588-4.75-10.588-10.588
				s4.75-10.588,10.588-10.588c5.838,0,10.588,4.75,10.588,10.588S135.382,213.079,129.544,213.079z"/>
		</g>
	</g>
	<g>
		<g>
			<path class="st2" d="M235.16,106.996c-14.582,0-25.379-11.918-26.01-26.011c-0.201-4.498,1.003-8.779,3.174-12.526
				c-10.269-0.697-17.751-9.323-18.206-19.474c-0.164-3.658,0.907-7.127,2.801-10.101c-1.55,0.418-3.149,0.643-4.759,0.643
				c-10.955,0-19.068-8.954-19.542-19.542c-0.044-0.975,0.002-1.936,0.125-2.878c-2.919-0.34-5.882-0.533-8.892-0.533
				c-16.802,0-32.325,5.448-44.924,14.658l-10.835,9.62C95.406,54.466,87.631,72.717,87.631,92.794
				c0,42.095,34.125,76.22,76.22,76.22c37.339,0,68.385-26.856,74.929-62.301C237.584,106.896,236.375,106.996,235.16,106.996z"/>
		</g>
	</g>
	<g>
		<g>
			<path class="st0" d="M239.857,105.668c-0.338-0.348-0.821-0.512-1.304-0.438c-1.15,0.176-2.292,0.266-3.393,0.266
				c-13.128,0-23.895-10.796-24.512-24.578c-0.179-3.992,0.85-8.041,2.974-11.707c0.26-0.448,0.269-0.999,0.026-1.456
				c-0.243-0.458-0.706-0.758-1.223-0.792c-9.149-0.622-16.376-8.379-16.809-18.045c-0.143-3.175,0.745-6.366,2.567-9.228
				c0.332-0.522,0.31-1.195-0.056-1.693c-0.366-0.5-1.001-0.722-1.6-0.561c-1.454,0.392-2.923,0.591-4.368,0.591
				c-9.663,0-17.588-7.954-18.043-18.109c-0.039-0.863,0-1.743,0.114-2.615c0.052-0.398-0.058-0.801-0.304-1.117
				c-0.247-0.317-0.611-0.521-1.01-0.568c-3.096-0.36-6.146-0.543-9.065-0.543c-16.592,0-32.432,5.169-45.809,14.947
				c-0.669,0.489-0.814,1.428-0.326,2.096c0.489,0.669,1.427,0.815,2.096,0.326c12.859-9.4,28.088-14.369,44.039-14.369
				c2.348,0,4.787,0.123,7.269,0.367c-0.024,0.54-0.025,1.078-0.001,1.611c0.527,11.762,9.769,20.975,21.04,20.975
				c0.658,0,1.32-0.035,1.983-0.104c-1.125,2.604-1.647,5.366-1.523,8.129c0.466,10.399,7.776,18.895,17.372,20.627
				c-1.708,3.625-2.513,7.516-2.341,11.373c0.689,15.389,12.773,27.443,27.509,27.443c0.576,0,1.161-0.021,1.75-0.063
				c-7.306,34.355-37.71,59.081-73.059,59.081c-41.201,0-74.72-33.52-74.72-74.72c0-18.956,7.124-37.039,20.058-50.919
				c0.565-0.605,0.532-1.555-0.075-2.12c-0.607-0.565-1.555-0.532-2.12,0.075C93.541,54.267,86.131,73.076,86.131,92.794
				c0,42.854,34.865,77.72,77.72,77.72c37.475,0,69.607-26.718,76.404-63.528C240.344,106.508,240.195,106.017,239.857,105.668z"/>
		</g>
	</g>
	<g>
		<g>
			
				<ellipse transform="matrix(0.9871 -0.1602 0.1602 0.9871 -5.6338 25.2168)" class="st6" cx="153.592" cy="47.553" rx="12.088" ry="12.088"/>
		</g>
	</g>
	<g>
		<g>
			<path class="st0" d="M153.592,33.965c-7.492,0-13.588,6.096-13.588,13.588s6.096,13.588,13.588,13.588
				s13.588-6.096,13.588-13.588S161.084,33.965,153.592,33.965z M153.592,58.141c-5.838,0-10.588-4.75-10.588-10.588
				s4.75-10.588,10.588-10.588s10.588,4.75,10.588,10.588S159.431,58.141,153.592,58.141z"/>
		</g>
	</g>
	<g>
		<g>
			
				<ellipse transform="matrix(0.3827 -0.9239 0.9239 0.3827 11.7114 211.1386)" class="st6" cx="163.851" cy="96.806" rx="12.088" ry="12.088"/>
		</g>
	</g>
	<g>
		<g>
			<path class="st0" d="M163.851,83.218c-7.492,0-13.588,6.096-13.588,13.588s6.096,13.588,13.588,13.588
				s13.588-6.096,13.588-13.588S171.343,83.218,163.851,83.218z M163.851,107.394c-5.838,0-10.588-4.75-10.588-10.588
				s4.75-10.588,10.588-10.588s10.588,4.75,10.588,10.588S169.689,107.394,163.851,107.394z"/>
		</g>
	</g>
	<g>
		<g>
			
				<ellipse transform="matrix(0.9975 -0.0709 0.0709 0.9975 -9.0252 9.8517)" class="st6" cx="134.285" cy="132.079" rx="12.088" ry="12.088"/>
		</g>
	</g>
	<g>
		<g>
			<path class="st0" d="M134.285,118.491c-7.492,0-13.588,6.096-13.588,13.588s6.096,13.588,13.588,13.588
				s13.588-6.096,13.588-13.588S141.777,118.491,134.285,118.491z M134.285,142.667c-5.838,0-10.588-4.75-10.588-10.588
				s4.75-10.588,10.588-10.588c5.838,0,10.588,4.75,10.588,10.588S140.123,142.667,134.285,142.667z"/>
		</g>
	</g>
	<g>
		<g>
			
				<ellipse transform="matrix(0.3827 -0.9239 0.9239 0.3827 -2.2061 158.2169)" class="st6" cx="117.291" cy="80.759" rx="12.088" ry="12.088"/>
		</g>
	</g>
	<g>
		<g>
			<path class="st0" d="M117.291,67.172c-7.492,0-13.588,6.096-13.588,13.588s6.096,13.587,13.588,13.587
				c7.492,0,13.588-6.095,13.588-13.587S124.783,67.172,117.291,67.172z M117.291,91.347c-5.838,0-10.588-4.749-10.588-10.587
				s4.75-10.588,10.588-10.588c5.838,0,10.588,4.75,10.588,10.588S123.129,91.347,117.291,91.347z"/>
		</g>
	</g>
	<g>
		<g>
			
				<ellipse transform="matrix(0.0985 -0.9951 0.9951 0.0985 48.8162 318.0468)" class="st6" cx="199.956" cy="132.079" rx="12.088" ry="12.088"/>
		</g>
	</g>
	<g>
		<g>
			<path class="st0" d="M199.956,118.491c-7.492,0-13.588,6.096-13.588,13.588s6.096,13.588,13.588,13.588
				s13.588-6.096,13.588-13.588S207.448,118.491,199.956,118.491z M199.956,142.667c-5.838,0-10.588-4.75-10.588-10.588
				s4.75-10.588,10.588-10.588c5.838,0,10.588,4.75,10.588,10.588S205.794,142.667,199.956,142.667z"/>
		</g>
	</g>
	<g>
		<g>
			<path class="st12" d="M163.85,170.516c-3.84,0-7.61-0.28-11.3-0.82c-1.33,10.44-4.82,20.21-10.01,28.851
				c0.39,1.25,0.59,2.569,0.59,3.939c0,7.5-6.09,13.59-13.59,13.59c-0.49,0-0.98-0.029-1.46-0.08
				c-13.2,11.771-30.61,18.93-49.64,18.93c-2.41,0-4.79-0.11-7.14-0.35c7,2.181,14.43,3.35,22.14,3.35
				c38.77,0,70.73-29.69,74.37-67.52C166.49,170.476,165.18,170.516,163.85,170.516z"/>
		</g>
	</g>
	<g>
		<g>
			<path class="st12" d="M235.16,108.495c-14.74,0-26.82-12.05-27.51-27.44c-0.17-3.86,0.63-7.75,2.34-11.38
				c-9.6-1.73-16.9-10.22-17.37-20.62c-0.12-2.77,0.4-5.53,1.52-8.13c-0.66,0.07-1.32,0.1-1.98,0.1c-11.27,0-20.51-9.21-21.04-20.97
				c-0.02-0.54-0.02-1.08,0-1.61c-2.5-0.25-4.89-0.37-7.27-0.37c-2.61,0-5.19,0.13-7.73,0.4c-0.02,0.52-0.02,1.05,0,1.58
				c0.53,11.76,9.77,20.97,21.04,20.97c0.66,0,1.32-0.03,1.98-0.1c-1.12,2.6-1.64,5.36-1.52,8.13c0.47,10.4,7.77,18.89,17.37,20.62
				c-1.71,3.63-2.51,7.52-2.34,11.38c0.69,15.39,12.77,27.44,27.51,27.44c0.58,0,1.16-0.02,1.75-0.06
				c-1.68,7.89-4.58,15.28-8.48,21.97c0.08,0.55,0.11,1.101,0.11,1.67c0,6.87-5.12,12.561-11.74,13.46
				c-11.96,11.99-27.91,19.851-45.47,21.601c2.47,0.25,4.98,0.38,7.52,0.38c35.35,0,65.75-24.73,73.06-59.08
				C236.32,108.476,235.74,108.495,235.16,108.495z"/>
		</g>
	</g>
</g>
</svg>
