<?xml version="1.0" encoding="utf-8"?>
<!-- Generator: Adobe Illustrator 22.0.1, SVG Export Plug-In . SVG Version: 6.00 Build 0)  -->
<svg version="1.1" id="Layer_2" xmlns="http://www.w3.org/2000/svg" xmlns:xlink="http://www.w3.org/1999/xlink" x="0px" y="0px"
	 viewBox="0 0 256 256" style="enable-background:new 0 0 256 256;" xml:space="preserve">
<style type="text/css">
	.st0{fill:#3A312A;}
	.st1{fill:#D7E057;}
	.st2{fill:#FCE8CB;}
	.st3{fill:#8AC6DD;}
	.st4{fill-rule:evenodd;clip-rule:evenodd;fill:#FCE8CB;}
	.st5{fill:#F5978A;}
	.st6{fill:#87796F;}
	.st7{fill:#F16C7A;}
	.st8{fill:#68A8BC;}
	.st9{fill:#B9BC39;}
	.st10{fill:#CE4E61;}
	.st11{fill:#6B5B51;}
	.st12{fill:#CCAE8B;}
	.st13{fill-rule:evenodd;clip-rule:evenodd;fill:#F16C7A;}
</style>
<g>
	<g>
		<g>
			<path class="st1" d="M141.308,25.246c-0.974,11.564-13.024,13.39-13.024,13.39c10.347,0.487,12.925,14.059,12.925,14.059
				c0.221-9.677,13.321-14.202,13.321-14.202C144.716,37.905,141.308,25.246,141.308,25.246z"/>
		</g>
	</g>
	<g>
		<g>
			<path class="st0" d="M154.62,36.995c-8.605-0.515-11.832-12.024-11.864-12.141c-0.191-0.703-0.859-1.167-1.583-1.102
				c-0.725,0.066-1.298,0.642-1.359,1.367c-0.86,10.215-11.313,11.964-11.754,12.033c-0.763,0.115-1.313,0.79-1.273,1.561
				c0.04,0.77,0.657,1.384,1.428,1.421c9.028,0.425,11.499,12.718,11.522,12.842c0.137,0.711,0.759,1.217,1.472,1.217
				c0.042,0,0.084-0.001,0.126-0.005c0.764-0.064,1.357-0.693,1.375-1.459c0.194-8.509,12.191-12.777,12.313-12.819
				c0.675-0.235,1.092-0.914,0.994-1.623C155.917,37.579,155.333,37.038,154.62,36.995z M141.054,47.341
				c-1.357-3.13-3.709-6.907-7.587-8.876c2.931-1.405,6.409-3.913,8.202-8.273c1.551,3.071,4.2,6.88,8.334,8.723
				C146.995,40.554,143.08,43.319,141.054,47.341z"/>
		</g>
	</g>
	<g>
		<g>
			<path class="st1" d="M119.609,42.227c-0.689,8.179-9.212,9.471-9.212,9.471c7.318,0.344,9.142,9.944,9.142,9.944
				c0.156-6.844,9.422-10.045,9.422-10.045C122.02,51.181,119.609,42.227,119.609,42.227z"/>
		</g>
	</g>
	<g>
		<g>
			<path class="st0" d="M129.051,50.099c-5.766-0.345-7.972-8.186-7.994-8.265c-0.19-0.702-0.852-1.167-1.582-1.102
				c-0.726,0.065-1.299,0.642-1.36,1.368c-0.579,6.871-7.646,8.067-7.942,8.114c-0.763,0.115-1.313,0.79-1.273,1.561
				c0.04,0.77,0.657,1.384,1.428,1.421c6.035,0.284,7.723,8.644,7.739,8.726c0.135,0.713,0.759,1.22,1.473,1.22
				c0.041,0,0.083-0.001,0.125-0.005c0.765-0.063,1.358-0.694,1.376-1.461c0.13-5.709,8.331-8.634,8.412-8.662
				c0.676-0.234,1.094-0.913,0.996-1.622C130.35,50.683,129.765,50.142,129.051,50.099z M119.466,56.894
				c-0.924-1.885-2.34-3.947-4.447-5.28c1.856-1.041,3.697-2.63,4.871-4.916c1.057,1.874,2.654,3.954,4.941,5.224
				C122.981,53.022,120.842,54.661,119.466,56.894z"/>
		</g>
	</g>
	<g>
		<g>
			<path class="st1" d="M119.609,15.569c-0.689,8.179-9.212,9.471-9.212,9.471c7.318,0.344,9.142,9.944,9.142,9.944
				c0.156-6.845,9.422-10.045,9.422-10.045C122.02,24.523,119.609,15.569,119.609,15.569z"/>
		</g>
	</g>
	<g>
		<g>
			<path class="st0" d="M129.05,23.441c-5.766-0.345-7.972-8.185-7.993-8.264c-0.19-0.702-0.852-1.168-1.582-1.102
				c-0.726,0.065-1.299,0.642-1.36,1.368c-0.579,6.871-7.646,8.067-7.942,8.114c-0.763,0.115-1.313,0.79-1.273,1.561
				c0.04,0.77,0.657,1.384,1.428,1.421c6.035,0.284,7.723,8.644,7.739,8.726c0.135,0.712,0.759,1.22,1.473,1.22
				c0.041,0,0.083-0.001,0.125-0.005c0.765-0.063,1.358-0.694,1.376-1.461c0.13-5.709,8.331-8.634,8.412-8.662
				c0.677-0.234,1.094-0.913,0.996-1.622C130.35,24.025,129.765,23.484,129.05,23.441z M119.466,30.236
				c-0.924-1.886-2.34-3.947-4.447-5.28c1.856-1.041,3.697-2.63,4.871-4.916c1.057,1.874,2.654,3.954,4.941,5.223
				C122.981,26.364,120.842,28.004,119.466,30.236z"/>
		</g>
	</g>
	<g>
		<g>
			<path class="st6" d="M208.136,15.56h-34.291c-4.972,0-9.003,4.031-9.003,9.003s4.031,9.003,9.003,9.003h34.291
				c4.972,0,9.003-4.031,9.003-9.003S213.108,15.56,208.136,15.56z"/>
		</g>
	</g>
	<g>
		<g>
			<path class="st0" d="M208.136,14.06h-34.291c-5.791,0-10.503,4.711-10.503,10.503s4.711,10.503,10.503,10.503h34.291
				c5.792,0,10.503-4.711,10.503-10.503S213.928,14.06,208.136,14.06z M208.136,32.066h-34.291c-4.137,0-7.503-3.366-7.503-7.503
				s3.366-7.503,7.503-7.503h34.291c4.137,0,7.503,3.366,7.503,7.503S212.273,32.066,208.136,32.066z"/>
		</g>
	</g>
	<g>
		<g>
			<path class="st3" d="M229.482,76.01l-18.602-24.951h0.002v-17.49h-39.78v17.49h0.002L152.5,76.01
				c-6.533,8.763-10.063,19.401-10.063,30.332v116.096c0,9.942,8.06,18.001,18.002,18.001c6.885,0,12.867-3.865,15.895-9.545
				c2.762-5.181,8.113-8.457,13.985-8.457h1.344c5.872,0,11.222,3.276,13.985,8.457c3.028,5.679,9.01,9.545,15.895,9.545
				c9.942,0,18.001-8.06,18.002-18.001V106.342C239.544,95.412,236.015,84.773,229.482,76.01z"/>
		</g>
	</g>
	<g>
		<g>
			<path class="st0" d="M230.684,75.114l-18.303-24.55V33.569c0-0.829-0.671-1.5-1.5-1.5h-39.78c-0.398,0-0.779,0.158-1.061,0.439
				c-0.281,0.281-0.439,0.663-0.439,1.061l0.001,16.992l-18.305,24.552c-6.681,8.961-10.36,20.051-10.36,31.229v116.096
				c0,10.753,8.748,19.501,19.502,19.501c7.221,0,13.819-3.961,17.219-10.339c2.519-4.727,7.371-7.663,12.661-7.663h1.344
				c5.289,0,10.141,2.936,12.661,7.663c3.4,6.377,9.998,10.339,17.219,10.339c10.752,0,19.501-8.749,19.501-19.501V106.342
				C241.044,95.165,237.365,84.075,230.684,75.114z M238.044,222.438c0,9.099-7.403,16.501-16.501,16.501
				c-6.111,0-11.694-3.353-14.572-8.75c-3.042-5.707-8.909-9.251-15.309-9.251h-1.344c-6.4,0-12.266,3.545-15.308,9.251
				c-2.877,5.397-8.461,8.75-14.572,8.75c-9.099,0-16.502-7.402-16.502-16.501V106.342c0-10.535,3.468-20.989,9.765-29.436
				l18.601-24.951c0.193-0.259,0.297-0.573,0.297-0.896v-15.99h36.78l-0.001,15.99c0,0.323,0.104,0.638,0.297,0.896l18.602,24.951
				c6.297,8.446,9.766,18.9,9.766,29.436V222.438z"/>
		</g>
	</g>
	<g>
		<g>
			<rect x="142.374" y="124.813" class="st1" width="97.233" height="53.647"/>
		</g>
	</g>
	<g>
		<g>
			<path class="st0" d="M239.607,123.313h-69.096c-0.829,0-1.5,0.671-1.5,1.5s0.671,1.5,1.5,1.5h67.596v50.647h-94.233v-50.647
				h12.627c0.829,0,1.5-0.671,1.5-1.5s-0.671-1.5-1.5-1.5h-14.127c-0.829,0-1.5,0.671-1.5,1.5v53.647c0,0.829,0.671,1.5,1.5,1.5
				h97.233c0.829,0,1.5-0.671,1.5-1.5v-53.647C241.107,123.984,240.436,123.313,239.607,123.313z"/>
		</g>
	</g>
	<g>
		<g>
			
				<ellipse transform="matrix(0.1602 -0.9871 0.9871 0.1602 10.7199 315.8708)" class="st2" cx="190.991" cy="151.636" rx="20.66" ry="20.66"/>
		</g>
	</g>
	<g>
		<g>
			<path class="st0" d="M190.991,129.476c-12.219,0-22.16,9.941-22.16,22.16s9.941,22.16,22.16,22.16
				c12.219,0,22.16-9.941,22.16-22.16S203.209,129.476,190.991,129.476z M190.991,170.795c-10.564,0-19.16-8.595-19.16-19.16
				s8.595-19.16,19.16-19.16c10.565,0,19.16,8.595,19.16,19.16S201.555,170.795,190.991,170.795z"/>
		</g>
	</g>
	<g>
		<g>
			<path class="st7" d="M90.019,52.948c-4.595-1.855-7.596-6.323-7.596-11.277v-8.101H44.054v8.101
				c0,4.954-3.001,9.422-7.596,11.277c-7.829,3.167-13.356,10.84-13.356,19.796v154.572c0,6.314,5.119,11.433,11.433,11.433h57.407
				c6.314,0,11.433-5.119,11.433-11.433V72.744C103.375,63.788,97.848,56.114,90.019,52.948z"/>
		</g>
	</g>
	<g>
		<g>
			<path class="st0" d="M90.58,51.557c-4.044-1.634-6.657-5.514-6.657-9.887v-8.101c0-0.829-0.671-1.5-1.5-1.5H44.054
				c-0.829,0-1.5,0.671-1.5,1.5v8.101c0,4.373-2.613,8.253-6.659,9.887c-8.683,3.512-14.294,11.829-14.294,21.187v154.572
				c0,7.131,5.802,12.933,12.933,12.933h57.407c7.131,0,12.933-5.802,12.933-12.933V72.744
				C104.875,63.386,99.264,55.069,90.58,51.557z M101.875,227.316c0,5.477-4.456,9.933-9.933,9.933H34.535
				c-5.477,0-9.933-4.456-9.933-9.933V72.744c0-8.13,4.875-15.354,12.418-18.406c5.185-2.093,8.535-7.066,8.535-12.668v-6.601
				h35.369v6.601c0,5.602,3.35,10.575,8.533,12.668C97,57.39,101.875,64.614,101.875,72.744V227.316z"/>
		</g>
	</g>
	<g>
		<g>
			<path class="st1" d="M102.203,197.981H24.274c-4.353,0-7.881,3.529-7.881,7.881v10.892c0,4.353,3.529,7.881,7.881,7.881h77.929
				c4.353,0,7.881-3.529,7.881-7.881v-10.892C110.084,201.51,106.556,197.981,102.203,197.981z"/>
		</g>
	</g>
	<g>
		<g>
			<path class="st0" d="M102.203,196.481H24.274c-5.173,0-9.381,4.208-9.381,9.381v10.892c0,5.173,4.208,9.381,9.381,9.381h77.929
				c5.173,0,9.381-4.208,9.381-9.381v-10.892C111.584,200.689,107.376,196.481,102.203,196.481z M108.584,216.754
				c0,3.519-2.862,6.381-6.381,6.381H24.274c-3.518,0-6.381-2.862-6.381-6.381v-10.892c0-3.519,2.863-6.381,6.381-6.381h77.929
				c3.519,0,6.381,2.863,6.381,6.381V216.754z"/>
		</g>
	</g>
	<g>
		<g>
			<path class="st1" d="M102.203,155.88H24.274c-4.353,0-7.881,3.529-7.881,7.881v10.892c0,4.353,3.529,7.881,7.881,7.881h77.929
				c4.353,0,7.881-3.529,7.881-7.881v-10.892C110.084,159.408,106.556,155.88,102.203,155.88z"/>
		</g>
	</g>
	<g>
		<g>
			<path class="st0" d="M102.203,154.379H24.274c-5.173,0-9.381,4.208-9.381,9.381v10.892c0,5.173,4.208,9.381,9.381,9.381h77.929
				c5.173,0,9.381-4.208,9.381-9.381v-10.892C111.584,158.588,107.376,154.379,102.203,154.379z M108.584,174.653
				c0,3.519-2.862,6.381-6.381,6.381H24.274c-3.518,0-6.381-2.862-6.381-6.381v-10.892c0-3.519,2.863-6.381,6.381-6.381h77.929
				c3.519,0,6.381,2.863,6.381,6.381V174.653z"/>
		</g>
	</g>
	<g>
		<g>
			<path class="st1" d="M102.203,113.778H24.274c-4.353,0-7.881,3.529-7.881,7.881v10.892c0,4.353,3.529,7.881,7.881,7.881h77.929
				c4.353,0,7.881-3.529,7.881-7.881v-10.892C110.084,117.307,106.556,113.778,102.203,113.778z"/>
		</g>
	</g>
	<g>
		<g>
			<path class="st0" d="M102.203,112.278H24.274c-5.173,0-9.381,4.208-9.381,9.381v10.892c0,5.173,4.208,9.381,9.381,9.381h77.929
				c5.173,0,9.381-4.208,9.381-9.381v-10.892C111.584,116.486,107.376,112.278,102.203,112.278z M108.584,132.551
				c0,3.519-2.862,6.381-6.381,6.381H24.274c-3.518,0-6.381-2.863-6.381-6.381v-10.892c0-3.519,2.863-6.381,6.381-6.381h77.929
				c3.519,0,6.381,2.862,6.381,6.381V132.551z"/>
		</g>
	</g>
	<g>
		<g>
			<path class="st1" d="M102.203,71.677H24.274c-4.353,0-7.881,3.529-7.881,7.881V90.45c0,4.353,3.529,7.881,7.881,7.881h77.929
				c4.353,0,7.881-3.528,7.881-7.881V79.558C110.084,75.205,106.556,71.677,102.203,71.677z"/>
		</g>
	</g>
	<g>
		<g>
			<path class="st0" d="M102.203,70.177H55.776c-0.829,0-1.5,0.671-1.5,1.5s0.671,1.5,1.5,1.5h46.427
				c3.519,0,6.381,2.862,6.381,6.381V90.45c0,3.519-2.862,6.381-6.381,6.381H24.274c-3.518,0-6.381-2.863-6.381-6.381V79.558
				c0-3.519,2.863-6.381,6.381-6.381h17.463c0.829,0,1.5-0.671,1.5-1.5s-0.671-1.5-1.5-1.5H24.274c-5.173,0-9.381,4.208-9.381,9.381
				V90.45c0,5.173,4.208,9.381,9.381,9.381h77.929c5.173,0,9.381-4.208,9.381-9.381V79.558
				C111.584,74.385,107.376,70.177,102.203,70.177z"/>
		</g>
	</g>
	<g>
		<g>
			<path class="st6" d="M83.562,15.56H42.915c-4.972,0-9.003,4.031-9.003,9.003s4.031,9.003,9.003,9.003h40.647
				c4.972,0,9.003-4.031,9.003-9.003S88.534,15.56,83.562,15.56z"/>
		</g>
	</g>
	<g>
		<g>
			<path class="st0" d="M83.562,14.06H42.915c-5.792,0-10.503,4.711-10.503,10.503s4.711,10.503,10.503,10.503h40.647
				c5.791,0,10.503-4.711,10.503-10.503S89.353,14.06,83.562,14.06z M83.562,32.066H42.915c-4.137,0-7.503-3.366-7.503-7.503
				s3.366-7.503,7.503-7.503h40.647c4.137,0,7.503,3.366,7.503,7.503S87.699,32.066,83.562,32.066z"/>
		</g>
	</g>
	<g>
		<g>
			<path class="st11" d="M208.136,17.059h-12.58c4.14,0,7.5,3.37,7.5,7.5c0,4.14-3.36,7.51-7.5,7.51h12.58c4.14,0,7.5-3.37,7.5-7.51
				C215.636,20.429,212.276,17.059,208.136,17.059z"/>
		</g>
	</g>
	<g>
		<g>
			<path class="st8" d="M228.276,76.909l-18.6-24.95c-0.19-0.26-0.3-0.58-0.3-0.9v-15.99h-12.57l-0.01,15.99
				c0,0.32,0.11,0.64,0.3,0.9l18.6,24.95c6.3,8.44,9.77,18.9,9.77,29.43v16.97h12.58v-16.97
				C238.046,95.809,234.576,85.349,228.276,76.909z"/>
		</g>
	</g>
	<g>
		<g>
			<path class="st8" d="M225.466,179.959v42.48c0,6.87-4.22,12.77-10.21,15.25c1.96,0.81,4.1,1.25,6.29,1.25
				c9.1,0,16.5-7.4,16.5-16.5v-42.48H225.466z"/>
		</g>
	</g>
	<g>
		<g>
			<rect x="225.526" y="126.309" class="st9" width="12.58" height="50.65"/>
		</g>
	</g>
	<g>
		<g>
			<rect x="90.506" y="99.829" class="st10" width="11.37" height="12.45"/>
		</g>
	</g>
	<g>
		<g>
			<rect x="90.506" y="184.029" class="st10" width="11.37" height="12.45"/>
		</g>
	</g>
	<g>
		<g>
			<path class="st10" d="M89.456,54.339c-5.18-2.09-8.53-7.07-8.53-12.67v-6.6h-11.37v6.6c0,5.6,3.35,10.58,8.53,12.67
				c6.74,2.72,11.34,8.78,12.25,15.84h11.36C100.796,63.119,96.196,57.059,89.456,54.339z"/>
		</g>
	</g>
	<g>
		<g>
			<rect x="90.506" y="141.929" class="st10" width="11.37" height="12.45"/>
		</g>
	</g>
	<g>
		<g>
			<path class="st10" d="M90.506,226.139v1.18c0,5.47-4.45,9.93-9.93,9.93h11.37c5.47,0,9.93-4.46,9.93-9.93v-1.18H90.506z"/>
		</g>
	</g>
	<g>
		<g>
			<path class="st9" d="M102.206,199.479h-11.37c3.52,0,6.38,2.86,6.38,6.38v10.9c0,3.51-2.86,6.38-6.38,6.38h11.37
				c3.52,0,6.38-2.87,6.38-6.38v-10.9C108.586,202.339,105.726,199.479,102.206,199.479z"/>
		</g>
	</g>
	<g>
		<g>
			<path class="st9" d="M102.206,157.379h-11.37c3.52,0,6.38,2.86,6.38,6.38v10.89c0,3.52-2.86,6.38-6.38,6.38h11.37
				c3.52,0,6.38-2.86,6.38-6.38v-10.89C108.586,160.239,105.726,157.379,102.206,157.379z"/>
		</g>
	</g>
	<g>
		<g>
			<path class="st9" d="M102.206,115.279h-11.37c3.52,0,6.38,2.86,6.38,6.38v10.89c0,3.52-2.86,6.38-6.38,6.38h11.37
				c3.52,0,6.38-2.86,6.38-6.38v-10.89C108.586,118.139,105.726,115.279,102.206,115.279z"/>
		</g>
	</g>
	<g>
		<g>
			<path class="st9" d="M102.206,73.179h-11.37c3.52,0,6.38,2.86,6.38,6.38v10.89c0,3.52-2.86,6.38-6.38,6.38h11.37
				c3.52,0,6.38-2.86,6.38-6.38v-10.89C108.586,76.039,105.726,73.179,102.206,73.179z"/>
		</g>
	</g>
	<g>
		<g>
			<path class="st11" d="M83.566,17.059h-11.37c4.14,0,7.5,3.37,7.5,7.5c0,4.14-3.36,7.51-7.5,7.51h11.37c4.13,0,7.5-3.37,7.5-7.51
				C91.066,20.429,87.696,17.059,83.566,17.059z"/>
		</g>
	</g>
</g>
</svg>
