<svg fill="#000000" xmlns="http://www.w3.org/2000/svg"  viewBox="0 0 48 48" width="24px" height="24px"><path d="M 16.167969 6.03125 C 13.943407 6.03125 12.047251 6.9606721 10.736328 8.3554688 C 9.4254049 9.7502652 8.6477165 11.556343 8.2832031 13.433594 C 7.7842676 16.003121 7.9859435 18.792071 9.078125 21.03125 L 7.2949219 21.03125 C 5.399678 21.03125 3.9375 22.667669 3.9375 24.523438 L 3.9375 38.474609 C 3.9375 40.330378 5.399678 41.96875 7.2949219 41.96875 L 40.705078 41.96875 C 42.600322 41.96875 44.0625 40.330378 44.0625 38.474609 L 44.0625 24.523438 C 44.0625 22.667983 42.601298 21.03125 40.705078 21.03125 L 28.544922 21.03125 C 26.888187 20.018327 26.052293 18.56784 25.826172 16.980469 L 39.707031 17.03125 A 1.50015 1.50015 0 0 0 41.212891 15.539062 C 41.238563 10.687325 37.216899 6.03125 32.03125 6.03125 L 31.292969 6.03125 L 30.222656 6.03125 L 16.167969 6.03125 z M 16.167969 9.03125 L 25.486328 9.03125 C 24.353946 10.303219 23.489198 11.825388 23.080078 13.466797 C 22.457801 15.963403 22.791795 18.776593 24.302734 21.03125 L 12.728516 21.03125 C 11.425981 19.636701 10.711303 16.659457 11.226562 14.005859 C 11.505299 12.57036 12.103236 11.281172 12.921875 10.410156 C 13.740514 9.5391405 14.72803 9.03125 16.167969 9.03125 z M 31.386719 9.03125 L 32.03125 9.03125 C 34.785436 9.03125 37.167169 11.428581 37.890625 14.025391 L 26.058594 13.982422 C 26.779381 11.404309 28.787387 9.2669277 31.386719 9.03125 z M 7.2949219 24.03125 L 12.074219 24.03125 A 1.5005804 1.5005804 0 0 0 12.175781 24.03125 L 28.095703 24.03125 A 1.5006992 1.5006992 0 0 0 28.169922 24.03125 L 40.705078 24.03125 C 40.858859 24.03125 41.0625 24.178892 41.0625 24.523438 L 41.0625 38.474609 C 41.0625 38.820841 40.859834 38.96875 40.705078 38.96875 L 7.2949219 38.96875 C 7.1401658 38.96875 6.9375 38.820841 6.9375 38.474609 L 6.9375 24.523438 C 6.9375 24.177205 7.1401658 24.03125 7.2949219 24.03125 z"/></svg>