<svg fill="#000000" xmlns="http://www.w3.org/2000/svg"  viewBox="0 0 48 48" width="24px" height="24px"><path d="M 23.976562 2.4785156 A 1.50015 1.50015 0 0 0 22.5 3.9980469 L 22.5 11 L 21.207031 11 L 17.533203 11 C 15.796465 11 14.304536 12.300474 14.066406 14.019531 L 10.330078 40.076172 A 1.50015 1.50015 0 0 0 10.328125 40.083984 C 10.041278 42.161036 11.698163 44.0625 13.794922 44.0625 L 19.720703 44.0625 L 28.251953 44.0625 L 34.205078 44.0625 C 36.301837 44.0625 37.958722 42.161036 37.671875 40.083984 A 1.50015 1.50015 0 0 0 37.669922 40.076172 L 33.933594 14.013672 L 33.933594 14.021484 C 33.697019 12.300424 32.203535 11 30.466797 11 L 26.826172 11 L 25.5 11 L 25.5 3.9980469 A 1.50015 1.50015 0 0 0 23.976562 2.4785156 z M 17.533203 14 L 19.632812 14 L 19.439453 17.998047 L 16.527344 17.998047 L 17.037109 14.439453 A 1.50015 1.50015 0 0 0 17.037109 14.431641 C 17.072979 14.172651 17.271941 14 17.533203 14 z M 22.636719 14 L 23.753906 14 A 1.50015 1.50015 0 0 0 24.240234 14 L 25.363281 14 L 25.556641 17.998047 L 22.443359 17.998047 L 22.636719 14 z M 28.367188 14 L 30.466797 14 C 30.728059 14 30.92756 14.172759 30.962891 14.429688 A 1.50015 1.50015 0 0 0 30.962891 14.439453 L 31.472656 17.998047 L 28.560547 17.998047 L 28.367188 14 z M 16.095703 20.998047 L 19.292969 20.998047 L 18.710938 32.998047 L 14.375 32.998047 L 16.095703 20.998047 z M 22.296875 20.998047 L 25.703125 20.998047 L 26.285156 32.998047 L 21.714844 32.998047 L 22.296875 20.998047 z M 28.707031 20.998047 L 31.904297 20.998047 L 33.625 32.998047 L 29.289062 32.998047 L 28.707031 20.998047 z M 13.945312 35.998047 L 18.564453 35.998047 L 18.318359 41.0625 L 13.794922 41.0625 C 13.465681 41.0625 13.255629 40.821089 13.300781 40.494141 L 13.945312 35.998047 z M 21.568359 35.998047 L 26.431641 35.998047 L 26.677734 41.0625 L 21.322266 41.0625 L 21.568359 35.998047 z M 29.435547 35.998047 L 34.054688 35.998047 L 34.699219 40.494141 C 34.744369 40.821089 34.534319 41.0625 34.205078 41.0625 L 29.681641 41.0625 L 29.435547 35.998047 z"/></svg>