<?xml version="1.0" encoding="utf-8"?>
<!-- Generator: Adobe Illustrator 22.0.1, SVG Export Plug-In . SVG Version: 6.00 Build 0)  -->
<svg version="1.1" id="Layer_2" xmlns="http://www.w3.org/2000/svg" xmlns:xlink="http://www.w3.org/1999/xlink" x="0px" y="0px"
	 viewBox="0 0 256 256" style="enable-background:new 0 0 256 256;" xml:space="preserve">
<style type="text/css">
	.st0{fill:#3A312A;}
	.st1{fill:#D7E057;}
	.st2{fill:#FCE8CB;}
	.st3{fill:#8AC6DD;}
	.st4{fill-rule:evenodd;clip-rule:evenodd;fill:#FCE8CB;}
	.st5{fill:#F5978A;}
	.st6{fill:#87796F;}
	.st7{fill:#F16C7A;}
	.st8{fill:#68A8BC;}
	.st9{fill:#B9BC39;}
	.st10{fill:#CE4E61;}
	.st11{fill:#6B5B51;}
	.st12{fill:#CCAE8B;}
	.st13{fill-rule:evenodd;clip-rule:evenodd;fill:#F16C7A;}
</style>
<g>
	<g>
		<g>
			<path class="st1" d="M64.176,64.703c-0.974,11.564-13.024,13.389-13.024,13.389c10.347,0.487,12.925,14.059,12.925,14.059
				c0.221-9.677,13.321-14.202,13.321-14.202C67.584,77.362,64.176,64.703,64.176,64.703z"/>
		</g>
	</g>
	<g>
		<g>
			<path class="st0" d="M77.487,76.452c-8.604-0.515-11.831-12.024-11.863-12.141c-0.191-0.703-0.859-1.17-1.584-1.102
				c-0.725,0.066-1.298,0.642-1.359,1.367c-0.86,10.215-11.314,11.964-11.755,12.032c-0.763,0.116-1.314,0.791-1.273,1.561
				c0.04,0.771,0.657,1.385,1.428,1.421c9.028,0.425,11.498,12.718,11.522,12.843c0.137,0.711,0.759,1.217,1.472,1.217
				c0.042,0,0.084-0.002,0.126-0.005c0.764-0.064,1.357-0.693,1.374-1.46c0.195-8.509,12.192-12.777,12.313-12.819
				c0.675-0.234,1.092-0.914,0.994-1.622C78.785,77.035,78.201,76.494,77.487,76.452z M63.921,86.798
				c-1.357-3.131-3.708-6.907-7.587-8.877c2.931-1.404,6.409-3.913,8.202-8.272c1.551,3.071,4.199,6.88,8.334,8.723
				C69.863,80.011,65.948,82.776,63.921,86.798z"/>
		</g>
	</g>
	<g>
		<g>
			<path class="st1" d="M42.477,81.684c-0.689,8.179-9.212,9.47-9.212,9.47c7.318,0.344,9.142,9.944,9.142,9.944
				c0.156-6.844,9.422-10.045,9.422-10.045C44.888,90.638,42.477,81.684,42.477,81.684z"/>
		</g>
	</g>
	<g>
		<g>
			<path class="st0" d="M51.919,89.556c-5.766-0.345-7.972-8.186-7.993-8.265c-0.19-0.702-0.854-1.166-1.582-1.102
				c-0.726,0.065-1.299,0.643-1.36,1.368c-0.579,6.87-7.647,8.066-7.942,8.113c-0.763,0.116-1.313,0.791-1.273,1.561
				c0.04,0.771,0.657,1.385,1.428,1.421c6.035,0.284,7.723,8.645,7.739,8.727c0.135,0.713,0.759,1.22,1.472,1.22
				c0.041,0,0.083-0.002,0.125-0.005c0.765-0.063,1.358-0.693,1.376-1.461c0.13-5.709,8.332-8.634,8.412-8.662
				c0.677-0.234,1.094-0.913,0.996-1.622C53.218,90.14,52.633,89.598,51.919,89.556z M42.334,96.351
				c-0.924-1.886-2.34-3.947-4.447-5.28c1.855-1.041,3.697-2.629,4.871-4.916c1.057,1.874,2.654,3.954,4.941,5.224
				C45.849,92.479,43.71,94.118,42.334,96.351z"/>
		</g>
	</g>
	<g>
		<g>
			<path class="st1" d="M42.477,55.026c-0.689,8.179-9.212,9.471-9.212,9.471c7.318,0.344,9.142,9.944,9.142,9.944
				c0.156-6.845,9.422-10.045,9.422-10.045C44.888,63.98,42.477,55.026,42.477,55.026z"/>
		</g>
	</g>
	<g>
		<g>
			<path class="st0" d="M51.919,62.898c-5.766-0.346-7.972-8.186-7.994-8.265c-0.191-0.702-0.854-1.159-1.582-1.102
				c-0.726,0.065-1.299,0.643-1.36,1.368c-0.579,6.87-7.647,8.065-7.942,8.112c-0.763,0.116-1.313,0.791-1.273,1.561
				c0.04,0.771,0.657,1.385,1.427,1.421c6.035,0.284,7.724,8.645,7.739,8.727c0.135,0.713,0.759,1.22,1.472,1.22
				c0.041,0,0.083-0.002,0.125-0.005c0.765-0.063,1.358-0.693,1.376-1.461c0.13-5.708,8.332-8.633,8.412-8.661
				c0.676-0.234,1.094-0.913,0.996-1.622C53.218,63.482,52.633,62.941,51.919,62.898z M42.334,69.693
				c-0.924-1.886-2.34-3.947-4.447-5.28c1.856-1.041,3.697-2.63,4.871-4.916c1.057,1.874,2.654,3.954,4.941,5.224
				C45.85,65.821,43.71,67.461,42.334,69.693z"/>
		</g>
	</g>
	<g>
		<g>
			<path class="st2" d="M110.325,228.966v5.061c0,2.976,2.412,5.388,5.388,5.388h58.315c2.976,0,5.388-2.412,5.388-5.388v-5.062
				H110.325z"/>
		</g>
	</g>
	<g>
		<g>
			<path class="st0" d="M179.417,227.466h-69.092c-0.829,0-1.5,0.672-1.5,1.5v5.062c0,3.799,3.09,6.889,6.888,6.889h58.316
				c3.798,0,6.888-3.09,6.888-6.889v-5.062C180.917,228.138,180.245,227.466,179.417,227.466z M177.917,234.027
				c0,2.145-1.744,3.889-3.888,3.889h-58.316c-2.144,0-3.888-1.744-3.888-3.889v-3.562h66.092V234.027z"/>
		</g>
	</g>
	<g>
		<g>
			<path class="st12" d="M166.502,230.467v3.56c0,2.14-1.768,3.89-3.953,3.89h11.391c2.174,0,3.953-1.75,3.953-3.89v-3.56H166.502z"
				/>
		</g>
	</g>
	<g>
		<g>
			<path class="st3" d="M220.865,182.115L184.076,78.092h-78.5l-21.594,61.17l-4.857,13.758L68.85,182.128
				c-6.399,18.127,4.272,37.813,22.953,42.345l14.751,3.579c2.505,0.608,5.074,0.915,7.652,0.915h61.33
				c2.578,0,5.146-0.307,7.652-0.915l14.73-3.573C216.607,219.944,227.277,200.246,220.865,182.115z"/>
		</g>
	</g>
	<g>
		<g>
			<path class="st0" d="M222.279,181.615L185.49,77.593c-0.212-0.6-0.778-1-1.414-1h-78.5c-0.636,0-1.203,0.401-1.415,1.001
				l-21.593,61.169c-0.276,0.781,0.134,1.638,0.915,1.913c0.783,0.278,1.638-0.134,1.914-0.915l21.24-60.168h76.378l36.436,103.022
				c2.915,8.242,2.198,17.379-1.966,25.066c-4.164,7.687-11.425,13.277-19.92,15.338l-14.73,3.574
				c-2.386,0.579-4.841,0.872-7.298,0.872h-61.33c-2.457,0-4.912-0.293-7.298-0.872l-14.751-3.579
				c-8.492-2.06-15.752-7.647-19.916-15.33c-4.165-7.684-4.885-16.816-1.976-25.058l10.275-29.108
				c0.276-0.781-0.134-1.638-0.915-1.913c-0.785-0.278-1.638,0.134-1.914,0.915l-10.275,29.108
				c-3.191,9.039-2.401,19.058,2.168,27.485c4.568,8.428,12.531,14.557,21.847,16.816l14.751,3.579
				c2.617,0.635,5.31,0.956,8.005,0.956h61.33c2.695,0,5.388-0.321,8.005-0.956l14.73-3.574c9.319-2.261,17.284-8.394,21.852-16.825
				C224.69,200.678,225.477,190.656,222.279,181.615z"/>
		</g>
	</g>
	<g>
		<g>
			<path class="st6" d="M220.865,182.115l-0.857-2.424H69.71l-0.86,2.437c-6.399,18.127,4.272,37.813,22.953,42.345l14.751,3.579
				c2.505,0.608,5.074,0.915,7.652,0.915h61.33c2.578,0,5.147-0.307,7.652-0.915l14.73-3.573
				C216.607,219.944,227.277,200.246,220.865,182.115z"/>
		</g>
	</g>
	<g>
		<g>
			<path class="st0" d="M222.279,181.615l-0.857-2.424c-0.212-0.6-0.778-1-1.414-1H69.71c-0.636,0-1.203,0.401-1.414,1.001
				l-0.86,2.437c-3.191,9.039-2.401,19.058,2.168,27.485s12.531,14.557,21.847,16.816l14.751,3.579
				c2.617,0.635,5.31,0.956,8.005,0.956h61.33c2.695,0,5.388-0.321,8.005-0.956l14.729-3.574
				c9.319-2.261,17.284-8.394,21.852-16.825C224.69,200.679,225.477,190.656,222.279,181.615z M217.485,207.682
				c-4.164,7.687-11.425,13.277-19.921,15.338l-14.73,3.574c-2.386,0.579-4.841,0.872-7.298,0.872h-61.33
				c-2.457,0-4.912-0.293-7.298-0.872l-14.751-3.579c-8.493-2.06-15.752-7.647-19.916-15.33c-4.165-7.684-4.885-16.816-1.976-25.058
				l0.507-1.436h148.175l0.504,1.424C222.366,190.858,221.649,199.994,217.485,207.682z"/>
		</g>
	</g>
	<g>
		<g>
			<path class="st7" d="M201.313,16.584H88.428c-2.927,0-4.951,2.928-3.916,5.666l21.108,55.842h78.5l21.108-55.842
				C206.264,19.512,204.241,16.584,201.313,16.584z"/>
		</g>
	</g>
	<g>
		<g>
			<path class="st0" d="M205.991,17.537c-1.061-1.536-2.81-2.453-4.678-2.453h-80.122c-0.829,0-1.5,0.672-1.5,1.5s0.671,1.5,1.5,1.5
				h80.122c0.896,0,1.701,0.423,2.21,1.159c0.509,0.736,0.62,1.64,0.303,2.478l-20.742,54.872h-76.427L85.916,21.721
				c-0.317-0.838-0.207-1.741,0.303-2.478c0.509-0.736,1.314-1.159,2.21-1.159h18.79c0.829,0,1.5-0.672,1.5-1.5s-0.671-1.5-1.5-1.5
				h-18.79c-1.868,0-3.616,0.917-4.678,2.453c-1.062,1.536-1.302,3.497-0.642,5.244l21.108,55.842
				c0.221,0.584,0.779,0.97,1.403,0.97h78.5c0.624,0,1.183-0.386,1.403-0.97l21.108-55.842
				C207.292,21.034,207.053,19.073,205.991,17.537z"/>
		</g>
	</g>
	<g>
		<g>
			<path class="st1" d="M197.085,45.024H92.657c-2.956,0-4.981,2.98-3.892,5.728l10.831,27.34h90.55l10.831-27.34
				C202.065,48.005,200.04,45.024,197.085,45.024z"/>
		</g>
	</g>
	<g>
		<g>
			<path class="st0" d="M201.788,46.015c-1.06-1.56-2.818-2.49-4.703-2.49H92.657c-1.885,0-3.643,0.931-4.703,2.49
				c-1.06,1.561-1.278,3.538-0.583,5.291l10.831,27.34c0.227,0.571,0.779,0.947,1.395,0.947h90.55c0.615,0,1.168-0.376,1.394-0.947
				l10.831-27.34C203.065,49.552,202.847,47.574,201.788,46.015z M199.582,50.2l-10.455,26.393h-88.512L90.16,50.2
				c-0.333-0.841-0.233-1.751,0.275-2.499c0.508-0.748,1.318-1.177,2.222-1.177h104.428c0.904,0,1.714,0.429,2.222,1.177
				C199.815,48.448,199.915,49.359,199.582,50.2z"/>
		</g>
	</g>
	<g>
		<g>
			<path class="st1" d="M200.977,105.432l-10.831-27.34h-90.55l-10.831,27.34c-1.089,2.748,0.936,5.728,3.892,5.728h104.428
				C200.04,111.16,202.065,108.18,200.977,105.432z"/>
		</g>
	</g>
	<g>
		<g>
			<path class="st0" d="M202.371,104.88L191.54,77.54c-0.226-0.571-0.779-0.947-1.394-0.947h-90.55
				c-0.615,0-1.168,0.376-1.395,0.947l-10.831,27.34c-0.694,1.753-0.477,3.729,0.582,5.289c1.06,1.56,2.818,2.491,4.704,2.491
				h104.428c1.886,0,3.644-0.931,4.704-2.49C202.848,108.61,203.065,106.633,202.371,104.88z M199.307,108.483
				c-0.508,0.748-1.318,1.177-2.222,1.177H92.657c-0.904,0-1.714-0.429-2.222-1.177c-0.508-0.748-0.608-1.658-0.275-2.498
				l10.455-26.393h88.512l10.455,26.393C199.915,106.825,199.815,107.736,199.307,108.483z"/>
		</g>
	</g>
	<g>
		<g>
			<path class="st0" d="M145.9,70.293c-0.769-2.818-2.566-5.745-5.062-8.24c-2.495-2.496-5.422-4.293-8.241-5.063
				c-3.111-0.848-5.773-0.369-7.492,1.351c-3.37,3.37-1.739,10.28,3.712,15.732c2.496,2.496,5.422,4.293,8.241,5.063
				c1.005,0.273,1.963,0.409,2.858,0.409c1.875,0,3.471-0.596,4.634-1.76C146.27,76.066,146.75,73.405,145.9,70.293z M142.43,75.664
				c-0.912,0.912-2.581,1.123-4.582,0.577c-2.323-0.634-4.776-2.157-6.909-4.289c-4.479-4.479-5.551-9.651-3.712-11.49
				c0.579-0.578,1.462-0.875,2.542-0.875c0.622,0,1.31,0.099,2.041,0.298c2.323,0.634,4.776,2.157,6.909,4.289
				c2.132,2.133,3.655,4.586,4.289,6.909C143.552,73.082,143.341,74.752,142.43,75.664z"/>
		</g>
	</g>
	<g>
		<g>
			<path class="st0" d="M161.227,92.341l-16.676-16.677c-0.586-0.586-1.535-0.586-2.121,0s-0.586,1.535,0,2.121l16.676,16.677
				c0.293,0.293,0.677,0.439,1.061,0.439c0.384,0,0.768-0.146,1.061-0.439C161.813,93.876,161.813,92.927,161.227,92.341z"/>
		</g>
	</g>
	<g>
		<g>
			<path class="st0" d="M164.469,58.341c-1.719-1.72-4.378-2.197-7.492-1.351c-2.819,0.77-5.745,2.566-8.241,5.063
				c-5.452,5.452-7.082,12.362-3.712,15.732c1.164,1.164,2.759,1.76,4.634,1.76c0.894,0,1.853-0.136,2.858-0.409
				c2.818-0.77,5.745-2.566,8.24-5.063c2.496-2.495,4.294-5.422,5.062-8.24C166.668,62.721,166.188,60.06,164.469,58.341z
				 M162.925,65.043c-0.634,2.323-2.157,4.776-4.289,6.909c-2.132,2.132-4.585,3.655-6.909,4.289
				c-2.001,0.545-3.67,0.334-4.582-0.577c-1.839-1.839-0.767-7.011,3.712-11.49c2.132-2.132,4.586-3.655,6.909-4.289
				c0.731-0.199,1.419-0.298,2.04-0.298c1.079,0,1.962,0.297,2.541,0.875c0,0,0,0,0,0C163.26,61.374,163.47,63.044,162.925,65.043z"
				/>
		</g>
	</g>
	<g>
		<g>
			<path class="st0" d="M147.145,75.664c-0.586-0.586-1.535-0.586-2.121,0l-16.676,16.677c-0.586,0.586-0.586,1.535,0,2.121
				c0.293,0.293,0.677,0.439,1.061,0.439s0.768-0.146,1.06-0.439l16.676-16.677C147.731,77.199,147.731,76.25,147.145,75.664z"/>
		</g>
	</g>
	<g>
		<g>
			<polygon class="st8" points="194.711,112.665 182.541,112.665 205.721,178.194 217.891,178.194 			"/>
		</g>
	</g>
	<g>
		<g>
			<path class="st11" d="M219.451,182.614l-0.5-1.42h-12.17l0.5,1.42c2.92,8.24,2.2,17.38-1.96,25.07
				c-3.13,5.76-7.99,10.35-13.81,13.15c-1.94,0.93-3.99,1.67-6.12,2.19l-14.73,3.57c-2.38,0.58-4.84,0.87-7.29,0.87h12.17
				c2.45,0,4.91-0.29,7.29-0.87l14.73-3.57c2.13-0.52,4.17-1.26,6.11-2.19c5.83-2.8,10.69-7.39,13.81-13.15
				C221.651,199.995,222.371,190.854,219.451,182.614z"/>
		</g>
	</g>
	<g>
		<g>
			<path class="st10" d="M203.521,19.245c-0.51-0.74-1.31-1.16-2.21-1.16h-12.17c0.9,0,1.7,0.42,2.21,1.16
				c0.51,0.74,0.62,1.64,0.31,2.48l-8.25,21.8h12.17l8.24-21.8C204.141,20.884,204.031,19.984,203.521,19.245z"/>
		</g>
	</g>
	<g>
		<g>
			<path class="st9" d="M199.311,47.704c-0.51-0.75-1.32-1.18-2.23-1.18h-12.17c0.91,0,1.72,0.43,2.23,1.18
				c0.5,0.74,0.61,1.65,0.27,2.49l-10.45,26.4h12.17l10.45-26.4C199.911,49.354,199.811,48.444,199.311,47.704z"/>
		</g>
	</g>
	<g>
		<g>
			<path class="st9" d="M199.581,105.984l-10.45-26.39h-12.17l10.45,26.39c0.34,0.84,0.23,1.75-0.27,2.5
				c-0.51,0.75-1.32,1.18-2.23,1.18h12.17c0.91,0,1.72-0.43,2.23-1.18C199.811,107.734,199.911,106.824,199.581,105.984z"/>
		</g>
	</g>
</g>
</svg>
