<?xml version="1.0" encoding="utf-8"?>
<!-- Generator: Adobe Illustrator 22.0.1, SVG Export Plug-In . SVG Version: 6.00 Build 0)  -->
<svg version="1.1" id="Layer_2" xmlns="http://www.w3.org/2000/svg" xmlns:xlink="http://www.w3.org/1999/xlink" x="0px" y="0px"
	 viewBox="0 0 256 256" style="enable-background:new 0 0 256 256;" xml:space="preserve">
<style type="text/css">
	.st0{fill:#3A312A;}
	.st1{fill:#D7E057;}
	.st2{fill:#FCE8CB;}
	.st3{fill:#8AC6DD;}
	.st4{fill-rule:evenodd;clip-rule:evenodd;fill:#FCE8CB;}
	.st5{fill:#F5978A;}
	.st6{fill:#87796F;}
	.st7{fill:#F16C7A;}
	.st8{fill:#68A8BC;}
	.st9{fill:#B9BC39;}
	.st10{fill:#CE4E61;}
	.st11{fill:#6B5B51;}
	.st12{fill:#CCAE8B;}
	.st13{fill-rule:evenodd;clip-rule:evenodd;fill:#F16C7A;}
</style>
<g>
	<g>
		<g>
			<path class="st1" d="M207.272,26.087c-0.974,11.564-13.025,13.39-13.025,13.39c10.347,0.487,12.925,14.059,12.925,14.059
				c0.221-9.677,13.321-14.202,13.321-14.202C210.68,38.746,207.272,26.087,207.272,26.087z"/>
		</g>
	</g>
	<g>
		<g>
			<path class="st0" d="M220.583,37.836c-8.605-0.515-11.832-12.024-11.864-12.141c-0.19-0.702-0.85-1.164-1.583-1.102
				c-0.725,0.066-1.298,0.642-1.359,1.367c-0.86,10.215-11.313,11.964-11.754,12.033c-0.763,0.115-1.313,0.79-1.273,1.561
				c0.04,0.77,0.657,1.384,1.428,1.421c9.028,0.425,11.499,12.718,11.523,12.842c0.137,0.711,0.759,1.217,1.472,1.217
				c0.042,0,0.084-0.001,0.126-0.005c0.764-0.064,1.357-0.693,1.374-1.459c0.194-8.509,12.191-12.777,12.313-12.819
				c0.675-0.235,1.092-0.914,0.994-1.623C221.881,38.42,221.297,37.879,220.583,37.836z M207.018,48.182
				c-1.357-3.13-3.709-6.907-7.587-8.876c2.931-1.405,6.409-3.913,8.202-8.272c1.551,3.071,4.199,6.88,8.333,8.722
				C212.959,41.395,209.044,44.16,207.018,48.182z"/>
		</g>
	</g>
	<g>
		<g>
			<path class="st1" d="M185.573,43.067c-0.689,8.179-9.213,9.471-9.213,9.471c7.318,0.344,9.142,9.944,9.142,9.944
				c0.156-6.844,9.422-10.045,9.422-10.045C187.984,52.022,185.573,43.067,185.573,43.067z"/>
		</g>
	</g>
	<g>
		<g>
			<path class="st0" d="M195.015,50.939c-5.767-0.345-7.973-8.186-7.994-8.265c-0.19-0.702-0.856-1.17-1.582-1.102
				c-0.726,0.065-1.299,0.642-1.36,1.368c-0.579,6.871-7.647,8.067-7.942,8.114c-0.763,0.115-1.313,0.79-1.273,1.561
				c0.04,0.77,0.657,1.384,1.428,1.421c6.035,0.284,7.723,8.644,7.739,8.725c0.135,0.713,0.759,1.22,1.472,1.22
				c0.042,0,0.083-0.001,0.125-0.005c0.765-0.063,1.358-0.694,1.376-1.461c0.13-5.709,8.332-8.633,8.413-8.661
				c0.676-0.234,1.094-0.913,0.996-1.622C196.314,51.524,195.729,50.982,195.015,50.939z M185.43,57.734
				c-0.924-1.886-2.34-3.947-4.447-5.28c1.855-1.041,3.697-2.63,4.87-4.917c1.057,1.874,2.655,3.955,4.941,5.224
				C188.945,53.863,186.806,55.502,185.43,57.734z"/>
		</g>
	</g>
	<g>
		<g>
			<path class="st1" d="M185.573,16.41c-0.689,8.179-9.213,9.471-9.213,9.471c7.318,0.344,9.142,9.944,9.142,9.944
				c0.156-6.845,9.422-10.045,9.422-10.045C187.984,25.364,185.573,16.41,185.573,16.41z"/>
		</g>
	</g>
	<g>
		<g>
			<path class="st0" d="M195.015,24.282c-5.767-0.345-7.973-8.186-7.994-8.265c-0.19-0.702-0.856-1.171-1.582-1.102
				c-0.726,0.065-1.299,0.642-1.36,1.368c-0.579,6.871-7.647,8.067-7.942,8.114c-0.763,0.115-1.313,0.79-1.273,1.561
				c0.04,0.77,0.657,1.384,1.427,1.421c6.036,0.284,7.724,8.644,7.739,8.726c0.135,0.713,0.759,1.22,1.472,1.22
				c0.042,0,0.083-0.001,0.125-0.005c0.765-0.063,1.358-0.694,1.376-1.461c0.13-5.709,8.332-8.634,8.413-8.662
				c0.676-0.234,1.094-0.913,0.996-1.622C196.314,24.866,195.729,24.325,195.015,24.282z M185.43,31.077
				c-0.924-1.885-2.34-3.947-4.447-5.28c1.855-1.041,3.697-2.63,4.871-4.916c1.057,1.874,2.655,3.954,4.941,5.224
				C188.945,27.205,186.806,28.844,185.43,31.077z"/>
		</g>
	</g>
	<g>
		<g>
			<path class="st6" d="M39.456,20.41c-2.42-2.43-5.78-3.93-9.48-3.93c-7.4,0-13.4,6-13.4,13.41v25.626
				c0.016,0,0.031-0.002,0.047-0.002v15.605c-0.016,0-0.031-0.002-0.047-0.002V219.69c0.61-7.67,7.05-13.7,14.88-13.7
				c6.39,0,11.61,5.03,11.93,11.33V29.89C43.386,26.19,41.886,22.83,39.456,20.41z"/>
		</g>
	</g>
	<g>
		<g>
			<path class="st0" d="M40.519,19.352c-2.808-2.819-6.552-4.372-10.543-4.372c-8.216,0-14.9,6.688-14.9,14.91v25.626
				c0,0.829,0.718,1.498,1.547,1.498c0.829,0,1.477-0.67,1.477-1.499c0-0.089-0.008-0.177-0.023-0.262V29.89
				c0-6.567,5.338-11.91,11.9-11.91c3.188,0,6.177,1.239,8.422,3.493c2.249,2.24,3.488,5.229,3.488,8.417v179.551
				c-2.47-3.029-6.232-4.951-10.43-4.951c-5.461,0-10.379,2.728-13.38,6.917V71.445c0.02-0.09,0.031-0.183,0.034-0.279
				c0.026-0.809-0.608-1.494-1.416-1.545c-0.854-0.051-1.618,0.636-1.619,1.496V219.69c0,0.805,0.636,1.467,1.44,1.499
				c0.021,0,0.04,0.001,0.061,0.001c0.778,0,1.432-0.599,1.494-1.381c0.55-6.908,6.429-12.319,13.385-12.319
				c5.567,0,10.149,4.351,10.432,9.906c0.041,0.812,0.688,1.438,1.536,1.423c0.814-0.021,1.462-0.686,1.462-1.5V29.89
				C44.886,25.899,43.333,22.155,40.519,19.352z"/>
		</g>
	</g>
	<g>
		<g>
			<path class="st6" d="M66.276,20.41c-2.42-2.43-5.78-3.93-9.48-3.93c-7.4,0-13.41,6-13.41,13.41v187.43
				c0.33-6.3,5.55-11.33,11.94-11.33c7.83,0,14.27,6.03,14.88,13.7V29.89C70.206,26.19,68.706,22.83,66.276,20.41z"/>
		</g>
	</g>
	<g>
		<g>
			<path class="st0" d="M67.339,19.352c-2.807-2.819-6.552-4.372-10.543-4.372c-8.222,0-14.91,6.688-14.91,14.91v187.43
				c0,0.813,0.648,1.478,1.461,1.5c0.793,0.005,1.494-0.609,1.537-1.421c0.291-5.556,4.878-9.909,10.442-9.909
				c6.956,0,12.835,5.411,13.385,12.319c0.062,0.782,0.716,1.381,1.494,1.381c0.02,0,0.041,0,0.06-0.001
				c0.805-0.032,1.441-0.694,1.441-1.499V29.89C71.706,25.898,70.153,22.154,67.339,19.352z M68.706,211.407
				c-3.002-4.189-7.92-6.917-13.38-6.917c-4.2,0-7.967,1.927-10.44,4.963V29.89c0-6.567,5.343-11.91,11.91-11.91
				c3.188,0,6.177,1.239,8.421,3.493c2.25,2.24,3.489,5.229,3.489,8.417V211.407z"/>
		</g>
	</g>
	<g>
		<g>
			<path class="st6" d="M55.323,205.99c-6.391,0-11.61,5.028-11.934,11.331c-0.324-6.302-5.542-11.331-11.934-11.331
				c-7.833,0-14.269,6.034-14.884,13.699v2.593c0.693,9.677,8.76,17.308,18.616,17.308h16.403c9.855,0,17.923-7.632,18.616-17.308
				v-2.593C69.592,212.024,63.156,205.99,55.323,205.99z"/>
		</g>
	</g>
	<g>
		<g>
			<path class="st0" d="M71.702,219.569c-0.678-8.456-7.873-15.08-16.379-15.08c-5.172,0-9.686,2.92-11.934,7.235
				c-2.249-4.315-6.762-7.235-11.934-7.235c-8.506,0-15.701,6.624-16.379,15.08c-0.003,0.04-0.005,0.08-0.005,0.12v2.592
				c0,0.036,0.002,0.071,0.004,0.107c0.751,10.487,9.585,18.702,20.112,18.702h16.404c10.527,0,19.361-8.215,20.112-18.702
				c0.003-0.036,0.004-0.071,0.004-0.107v-2.592C71.706,219.649,71.705,219.609,71.702,219.569z M68.706,222.227
				c-0.664,8.9-8.172,15.863-17.116,15.863H35.187c-8.943,0-16.451-6.963-17.116-15.863v-2.476
				c0.582-6.88,6.45-12.261,13.384-12.261c5.566,0,10.15,4.352,10.436,9.908c0.041,0.797,0.7,1.423,1.498,1.423
				c0.798,0,1.457-0.625,1.498-1.423c0.285-5.556,4.869-9.908,10.436-9.908c6.934,0,12.802,5.381,13.384,12.261V222.227z"/>
		</g>
	</g>
	<g>
		<g>
			<path class="st0" d="M44.887,217.243c-0.368-7.151-6.268-12.753-13.432-12.753c-8.506,0-15.701,6.624-16.379,15.076
				c-0.036,0.443-0.061,0.897-0.061,1.353c0,0.607,0.02,1.073,0.06,1.47c0.751,10.487,9.585,18.702,20.112,18.702
				c0.829,0,1.5-0.671,1.5-1.5s-0.671-1.5-1.5-1.5c-8.961,0-16.481-6.991-17.123-15.957c-0.033-0.336-0.048-0.71-0.048-1.215
				c0-0.372,0.02-0.744,0.051-1.109c0.554-6.908,6.435-12.32,13.389-12.32c5.566,0,10.15,4.352,10.436,9.911
				c0.01,0.175,0.009,0.36,0.009,0.535c0,0.135,0.001,0.261-0.009,0.416c-0.218,4.283-3.752,7.638-8.045,7.638
				c-3.393,0-6.154-2.756-6.154-6.143c0-2.543,2.074-4.612,4.623-4.612c0.829,0,1.5-0.671,1.5-1.5s-0.671-1.5-1.5-1.5
				c-4.203,0-7.623,3.415-7.623,7.612c0,5.042,4.106,9.143,9.154,9.143c5.892,0,10.742-4.606,11.04-10.466
				c0.013-0.201,0.014-0.387,0.014-0.587C44.9,217.708,44.899,217.468,44.887,217.243z"/>
		</g>
	</g>
	<g>
		<g>
			<path class="st0" d="M71.702,219.569c-0.678-8.456-7.873-15.08-16.379-15.08c-7.165,0-13.065,5.602-13.431,12.747
				c-0.013,0.229-0.014,0.47-0.014,0.698c0,0.202,0.001,0.39,0.013,0.568c0.299,5.88,5.148,10.486,11.04,10.486
				c5.047,0,9.154-4.102,9.154-9.143c0-4.197-3.42-7.612-7.623-7.612c-0.829,0-1.5,0.671-1.5,1.5s0.671,1.5,1.5,1.5
				c2.549,0,4.623,2.069,4.623,4.612c0,3.387-2.761,6.143-6.154,6.143c-4.293,0-7.827-3.355-8.046-7.662
				c-0.009-0.134-0.008-0.258-0.008-0.392c0-0.174-0.001-0.357,0.009-0.538c0.285-5.556,4.869-9.908,10.436-9.908
				c6.954,0,12.834,5.412,13.389,12.323c0.03,0.362,0.051,0.733,0.051,1.105c0,0.504-0.015,0.879-0.052,1.256
				c-0.639,8.924-8.159,15.916-17.12,15.916c-0.829,0-1.5,0.671-1.5,1.5s0.671,1.5,1.5,1.5c10.527,0,19.361-8.215,20.108-18.66
				c0.043-0.438,0.063-0.904,0.063-1.512C71.762,220.463,71.738,220.009,71.702,219.569z"/>
		</g>
	</g>
	<g>
		<g>
			<path class="st6" d="M113.883,20.41c-2.42-2.43-5.78-3.93-9.48-3.93c-7.4,0-13.4,6-13.4,13.41v189.8
				c0.61-7.67,7.05-13.7,14.88-13.7c6.39,0,11.61,5.03,11.93,11.33V29.89C117.813,26.19,116.313,22.83,113.883,20.41z"/>
		</g>
	</g>
	<g>
		<g>
			<path class="st0" d="M114.946,19.352c-2.808-2.819-6.552-4.372-10.543-4.372c-8.216,0-14.9,6.688-14.9,14.91v128.353
				c0,0.829,0.671,1.5,1.5,1.5c0.829,0,1.5-0.671,1.5-1.5V29.89c0-6.567,5.338-11.91,11.9-11.91c3.188,0,6.177,1.239,8.421,3.493
				c2.25,2.24,3.488,5.229,3.488,8.417v179.551c-2.47-3.029-6.232-4.951-10.43-4.951c-5.46,0-10.378,2.728-13.38,6.917v-37.599
				c0-0.829-0.671-1.5-1.5-1.5c-0.829,0-1.5,0.671-1.5,1.5v45.883c0,0.805,0.636,1.467,1.44,1.499c0.021,0,0.041,0.001,0.061,0.001
				c0.778,0,1.432-0.599,1.494-1.381c0.549-6.908,6.429-12.319,13.385-12.319c5.567,0,10.149,4.351,10.432,9.906
				c0.041,0.812,0.697,1.438,1.536,1.423c0.814-0.021,1.462-0.686,1.462-1.5V29.89C119.313,25.899,117.761,22.155,114.946,19.352z"
				/>
		</g>
	</g>
	<g>
		<g>
			<path class="st6" d="M140.703,20.41c-2.42-2.43-5.78-3.93-9.48-3.93c-7.4,0-13.41,6-13.41,13.41v187.43
				c0.33-6.3,5.55-11.33,11.94-11.33c7.83,0,14.27,6.03,14.88,13.7V29.89C144.633,26.19,143.133,22.83,140.703,20.41z"/>
		</g>
	</g>
	<g>
		<g>
			<path class="st0" d="M141.766,19.352c-2.807-2.819-6.552-4.372-10.543-4.372c-8.222,0-14.91,6.688-14.91,14.91v187.43
				c0,0.813,0.648,1.478,1.461,1.5c0.786,0.005,1.494-0.609,1.537-1.421c0.291-5.556,4.878-9.909,10.442-9.909
				c6.956,0,12.835,5.411,13.385,12.319c0.062,0.782,0.716,1.381,1.494,1.381c0.02,0,0.04,0,0.061-0.001
				c0.805-0.032,1.44-0.694,1.44-1.499V29.89C146.133,25.898,144.581,22.154,141.766,19.352z M143.133,211.406
				c-3.002-4.189-7.919-6.917-13.38-6.917c-4.2,0-7.968,1.927-10.44,4.963V29.89c0-6.567,5.343-11.91,11.91-11.91
				c3.188,0,6.177,1.239,8.421,3.493c2.25,2.24,3.489,5.229,3.489,8.417V211.406z"/>
		</g>
	</g>
	<g>
		<g>
			<path class="st6" d="M129.75,205.99c-6.391,0-11.61,5.028-11.934,11.331c-0.324-6.302-5.542-11.331-11.934-11.331
				c-7.833,0-14.269,6.034-14.884,13.699v2.593c0.693,9.677,8.76,17.308,18.616,17.308h16.404c9.855,0,17.923-7.632,18.616-17.308
				v-2.593C144.019,212.024,137.583,205.99,129.75,205.99z"/>
		</g>
	</g>
	<g>
		<g>
			<path class="st0" d="M146.129,219.57c-0.678-8.456-7.872-15.08-16.379-15.08c-5.172,0-9.685,2.92-11.934,7.235
				c-2.248-4.315-6.761-7.235-11.934-7.235c-8.507,0-15.701,6.624-16.379,15.08c-0.003,0.04-0.005,0.08-0.005,0.12v2.592
				c0,0.036,0.001,0.071,0.004,0.107c0.751,10.487,9.585,18.702,20.112,18.702h16.403c10.527,0,19.361-8.215,20.112-18.702
				c0.002-0.036,0.004-0.071,0.004-0.107v-2.592C146.134,219.649,146.132,219.609,146.129,219.57z M143.134,222.227
				c-0.665,8.9-8.172,15.863-17.116,15.863h-16.403c-8.943,0-16.451-6.963-17.116-15.863v-2.476
				c0.582-6.88,6.449-12.261,13.384-12.261c5.566,0,10.15,4.352,10.436,9.908c0.041,0.797,0.7,1.423,1.498,1.423
				c0.798,0,1.457-0.625,1.498-1.423c0.286-5.556,4.87-9.908,10.435-9.908c6.935,0,12.802,5.381,13.384,12.261V222.227z"/>
		</g>
	</g>
	<g>
		<g>
			<path class="st0" d="M119.315,217.243c-0.368-7.151-6.268-12.753-13.432-12.753c-8.507,0-15.701,6.624-16.378,15.075
				c-0.037,0.443-0.062,0.898-0.062,1.354c0,0.608,0.02,1.075,0.06,1.47c0.751,10.487,9.585,18.702,20.112,18.702
				c0.829,0,1.5-0.671,1.5-1.5s-0.671-1.5-1.5-1.5c-8.961,0-16.48-6.991-17.123-15.958c-0.034-0.334-0.049-0.709-0.049-1.213
				c0-0.372,0.021-0.743,0.051-1.109c0.554-6.908,6.435-12.319,13.389-12.319c5.566,0,10.15,4.352,10.436,9.914
				c0.01,0.174,0.009,0.357,0.009,0.531c0,0.133,0.001,0.258-0.009,0.416c-0.218,4.283-3.752,7.638-8.045,7.638
				c-3.393,0-6.154-2.756-6.154-6.143c0-2.543,2.074-4.612,4.624-4.612c0.829,0,1.5-0.671,1.5-1.5s-0.671-1.5-1.5-1.5
				c-4.204,0-7.624,3.415-7.624,7.612c0,5.042,4.107,9.143,9.154,9.143c5.892,0,10.741-4.606,11.039-10.462
				c0.014-0.202,0.015-0.39,0.015-0.592C119.328,217.707,119.327,217.465,119.315,217.243z"/>
		</g>
	</g>
	<g>
		<g>
			<path class="st0" d="M146.129,219.57c-0.678-8.456-7.872-15.08-16.379-15.08c-7.164,0-13.064,5.602-13.431,12.747
				c-0.013,0.229-0.014,0.47-0.014,0.698c0,0.202,0.001,0.39,0.013,0.568c0.299,5.88,5.148,10.486,11.04,10.486
				c5.048,0,9.154-4.102,9.154-9.143c0-4.197-3.42-7.612-7.624-7.612c-0.829,0-1.5,0.671-1.5,1.5s0.671,1.5,1.5,1.5
				c2.549,0,4.624,2.069,4.624,4.612c0,3.387-2.761,6.143-6.154,6.143c-4.293,0-7.827-3.355-8.046-7.662
				c-0.009-0.134-0.008-0.258-0.008-0.392c0-0.174-0.001-0.357,0.009-0.538c0.286-5.556,4.87-9.908,10.435-9.908
				c6.954,0,12.835,5.412,13.389,12.325c0.03,0.361,0.051,0.732,0.051,1.104c0,0.504-0.015,0.879-0.052,1.256
				c-0.639,8.924-8.159,15.916-17.12,15.916c-0.829,0-1.5,0.671-1.5,1.5s0.671,1.5,1.5,1.5c10.527,0,19.361-8.215,20.108-18.659
				c0.044-0.438,0.063-0.905,0.063-1.513C146.19,220.463,146.165,220.008,146.129,219.57z"/>
		</g>
	</g>
	<g>
		<g>
			<ellipse class="st6" cx="198.427" cy="180.009" rx="6.111" ry="22.533"/>
		</g>
	</g>
	<g>
		<g>
			<path class="st0" d="M198.427,155.977c-5.229,0-7.611,12.458-7.611,24.033c0,11.575,2.382,24.033,7.611,24.033
				c5.229,0,7.611-12.458,7.611-24.033C206.038,168.435,203.656,155.977,198.427,155.977z M198.427,201.042
				c-1.379,0-4.611-7.156-4.611-21.033s3.232-21.033,4.611-21.033c1.379,0,4.611,7.156,4.611,21.033
				S199.806,201.042,198.427,201.042z"/>
		</g>
	</g>
	<g>
		<g>
			<ellipse class="st6" cx="198.427" cy="217.057" rx="6.111" ry="22.533"/>
		</g>
	</g>
	<g>
		<g>
			<path class="st0" d="M198.427,193.024c-5.229,0-7.611,12.458-7.611,24.033s2.382,24.033,7.611,24.033
				c5.229,0,7.611-12.458,7.611-24.033S203.656,193.024,198.427,193.024z M198.427,238.09c-1.379,0-4.611-7.156-4.611-21.033
				s3.232-21.033,4.611-21.033c1.379,0,4.611,7.156,4.611,21.033S199.806,238.09,198.427,238.09z"/>
		</g>
	</g>
	<g>
		<g>
			<path class="st6" d="M216.951,192.422c-12.445,0-22.533,2.736-22.533,6.111s10.088,6.111,22.533,6.111
				c12.445,0,22.533-2.736,22.533-6.111S229.396,192.422,216.951,192.422z"/>
		</g>
	</g>
	<g>
		<g>
			<path class="st0" d="M216.951,190.922c-11.575,0-24.033,2.382-24.033,7.611s12.458,7.611,24.033,7.611s24.033-2.382,24.033-7.611
				S228.526,190.922,216.951,190.922z M216.951,203.144c-13.877,0-21.033-3.232-21.033-4.611s7.156-4.611,21.033-4.611
				c13.877,0,21.033,3.232,21.033,4.611S230.828,203.144,216.951,203.144z"/>
		</g>
	</g>
	<g>
		<g>
			<path class="st6" d="M179.904,192.422c-12.445,0-22.533,2.736-22.533,6.111s10.088,6.111,22.533,6.111
				c12.445,0,22.533-2.736,22.533-6.111S192.348,192.422,179.904,192.422z"/>
		</g>
	</g>
	<g>
		<g>
			<path class="st0" d="M179.903,190.922c-11.575,0-24.033,2.382-24.033,7.611s12.458,7.611,24.033,7.611
				c11.575,0,24.033-2.382,24.033-7.611S191.479,190.922,179.903,190.922z M179.903,203.144c-13.877,0-21.033-3.232-21.033-4.611
				s7.156-4.611,21.033-4.611s21.033,3.232,21.033,4.611S193.78,203.144,179.903,203.144z"/>
		</g>
	</g>
	<g>
		<g>
			<path class="st6" d="M227.459,169.502c-2.386-2.386-11.454,2.813-20.254,11.612c-8.8,8.8-13.999,17.868-11.612,20.254
				c2.386,2.386,11.454-2.813,20.254-11.612C224.646,180.956,229.845,171.888,227.459,169.502z"/>
		</g>
	</g>
	<g>
		<g>
			<path class="st0" d="M228.519,168.441c-3.696-3.699-14.191,3.428-22.375,11.612c-8.185,8.185-15.31,18.678-11.612,22.375
				c0.69,0.69,1.616,1.003,2.719,1.003c4.813,0,12.999-5.957,19.656-12.615C225.092,182.632,232.217,172.139,228.519,168.441z
				 M214.786,188.695c-9.811,9.81-17.161,12.588-18.133,11.612c-0.975-0.975,1.8-8.321,11.612-18.133
				c8.603-8.603,15.31-11.796,17.489-11.796c0.307,0,0.523,0.063,0.644,0.184C227.373,171.537,224.599,178.883,214.786,188.695z"/>
		</g>
	</g>
	<g>
		<g>
			<path class="st6" d="M201.262,195.698c-2.386-2.386-11.455,2.813-20.254,11.612c-8.8,8.8-13.999,17.868-11.612,20.254
				c2.386,2.387,11.455-2.813,20.254-11.612C198.45,207.153,203.649,198.085,201.262,195.698z"/>
		</g>
	</g>
	<g>
		<g>
			<path class="st0" d="M202.323,194.638c-3.695-3.698-14.191,3.427-22.376,11.612c-8.185,8.185-15.31,18.678-11.612,22.375
				c0.69,0.69,1.616,1.003,2.719,1.003c4.813,0,12.998-5.957,19.656-12.615C198.896,208.829,206.021,198.335,202.323,194.638z
				 M198.35,202.674c-2.129,3.714-5.595,8.053-9.76,12.218c-9.811,9.811-17.156,12.587-18.133,11.612
				c-0.975-0.975,1.8-8.32,11.612-18.133c8.603-8.603,15.309-11.796,17.489-11.796c0.307,0,0.524,0.063,0.645,0.184
				C200.408,196.966,200.7,198.575,198.35,202.674z"/>
		</g>
	</g>
	<g>
		<g>
			<path class="st6" d="M215.847,207.311c-8.8-8.8-17.868-13.999-20.254-11.612c-2.386,2.386,2.813,11.455,11.612,20.254
				c8.8,8.8,17.868,13.999,20.254,11.612C229.845,225.178,224.646,216.11,215.847,207.311z"/>
		</g>
	</g>
	<g>
		<g>
			<path class="st0" d="M216.907,206.25c-8.184-8.185-18.679-15.31-22.375-11.612c-3.697,3.698,3.428,14.191,11.612,22.375
				c6.659,6.659,14.844,12.615,19.656,12.615c1.103,0,2.03-0.313,2.719-1.003C232.217,224.928,225.092,214.435,216.907,206.25z
				 M226.398,226.504c-0.976,0.974-8.319-1.798-18.133-11.612c-9.813-9.813-12.587-17.158-11.612-18.133
				c0.12-0.12,0.337-0.183,0.644-0.183c2.181,0,8.887,3.193,17.489,11.795C224.599,218.184,227.373,225.529,226.398,226.504z"/>
		</g>
	</g>
	<g>
		<g>
			<path class="st6" d="M189.65,181.114c-8.8-8.8-17.868-13.999-20.254-11.612c-2.386,2.386,2.813,11.454,11.612,20.254
				c8.8,8.8,17.868,13.999,20.254,11.612C203.649,198.982,198.45,189.914,189.65,181.114z"/>
		</g>
	</g>
	<g>
		<g>
			<path class="st0" d="M200.952,192.9c-2.257-3.937-5.894-8.5-10.242-12.847c-8.185-8.185-18.679-15.31-22.375-11.612
				c-3.697,3.698,3.428,14.191,11.612,22.375c6.659,6.659,14.844,12.615,19.656,12.615c1.103,0,2.03-0.313,2.719-1.003
				C204.049,200.703,203.588,197.497,200.952,192.9z M200.202,200.308c-0.977,0.972-8.319-1.799-18.133-11.612
				c-9.812-9.813-12.587-17.158-11.612-18.133c0.972-0.974,8.321,1.801,18.133,11.612c4.165,4.165,7.631,8.504,9.76,12.218
				C200.7,198.491,200.408,200.101,200.202,200.308z"/>
		</g>
	</g>
	<g>
		<g>
			<path class="st6" d="M198.427,191.666c-3.793,0-6.868,3.075-6.868,6.868c0,3.793,3.075,6.868,6.868,6.868
				s6.868-3.075,6.868-6.868C205.295,194.74,202.22,191.666,198.427,191.666z"/>
		</g>
	</g>
	<g>
		<g>
			<path class="st0" d="M198.427,190.166c-4.614,0-8.368,3.754-8.368,8.368s3.754,8.368,8.368,8.368
				c4.614,0,8.368-3.754,8.368-8.368S203.041,190.166,198.427,190.166z M198.427,203.901c-2.96,0-5.368-2.408-5.368-5.368
				s2.408-5.368,5.368-5.368c2.96,0,5.368,2.408,5.368,5.368S201.387,203.901,198.427,203.901z"/>
		</g>
	</g>
	<g>
		<g>
			<ellipse class="st6" cx="198.427" cy="88.994" rx="6.111" ry="22.533"/>
		</g>
	</g>
	<g>
		<g>
			<path class="st0" d="M198.427,64.961c-5.229,0-7.611,12.458-7.611,24.033c0,11.575,2.382,24.033,7.611,24.033
				c5.229,0,7.611-12.458,7.611-24.033C206.038,77.419,203.656,64.961,198.427,64.961z M198.427,110.027
				c-1.379,0-4.611-7.156-4.611-21.033s3.232-21.033,4.611-21.033c1.379,0,4.611,7.156,4.611,21.033
				S199.806,110.027,198.427,110.027z"/>
		</g>
	</g>
	<g>
		<g>
			<ellipse class="st6" cx="198.427" cy="126.041" rx="6.111" ry="22.533"/>
		</g>
	</g>
	<g>
		<g>
			<path class="st0" d="M198.427,102.008c-5.229,0-7.611,12.458-7.611,24.033s2.382,24.033,7.611,24.033
				c5.229,0,7.611-12.458,7.611-24.033S203.656,102.008,198.427,102.008z M198.427,147.075c-1.379,0-4.611-7.156-4.611-21.033
				s3.232-21.033,4.611-21.033c1.379,0,4.611,7.156,4.611,21.033S199.806,147.075,198.427,147.075z"/>
		</g>
	</g>
	<g>
		<g>
			<path class="st6" d="M216.951,101.407c-12.445,0-22.533,2.736-22.533,6.111c0,3.375,10.088,6.111,22.533,6.111
				c12.445,0,22.533-2.736,22.533-6.111C239.484,104.143,229.396,101.407,216.951,101.407z"/>
		</g>
	</g>
	<g>
		<g>
			<path class="st0" d="M216.951,99.907c-11.575,0-24.033,2.382-24.033,7.611s12.458,7.611,24.033,7.611s24.033-2.382,24.033-7.611
				S228.526,99.907,216.951,99.907z M216.951,112.128c-13.877,0-21.033-3.232-21.033-4.611s7.156-4.611,21.033-4.611
				c13.877,0,21.033,3.232,21.033,4.611S230.828,112.128,216.951,112.128z"/>
		</g>
	</g>
	<g>
		<g>
			<path class="st6" d="M179.904,101.407c-12.445,0-22.533,2.736-22.533,6.111c0,3.375,10.088,6.111,22.533,6.111
				c12.445,0,22.533-2.736,22.533-6.111C202.436,104.143,192.348,101.407,179.904,101.407z"/>
		</g>
	</g>
	<g>
		<g>
			<path class="st0" d="M179.903,99.907c-11.575,0-24.033,2.382-24.033,7.611s12.458,7.611,24.033,7.611
				c11.575,0,24.033-2.382,24.033-7.611S191.479,99.907,179.903,99.907z M179.903,112.128c-13.877,0-21.033-3.232-21.033-4.611
				s7.156-4.611,21.033-4.611s21.033,3.232,21.033,4.611S193.78,112.128,179.903,112.128z"/>
		</g>
	</g>
	<g>
		<g>
			<path class="st6" d="M227.459,78.486c-2.386-2.386-11.454,2.813-20.254,11.612c-8.8,8.8-13.999,17.868-11.612,20.254
				c2.386,2.386,11.454-2.813,20.254-11.612C224.646,89.941,229.845,80.872,227.459,78.486z"/>
		</g>
	</g>
	<g>
		<g>
			<path class="st0" d="M228.519,77.425c-3.696-3.699-14.191,3.427-22.375,11.612c-8.185,8.185-15.31,18.678-11.612,22.375
				c0.69,0.69,1.616,1.003,2.719,1.003c4.813,0,12.999-5.957,19.656-12.615C225.092,91.616,232.217,81.123,228.519,77.425z
				 M214.786,97.68c-9.811,9.811-17.161,12.585-18.133,11.612c-0.975-0.975,1.8-8.321,11.612-18.133
				c8.603-8.603,15.309-11.796,17.489-11.796c0.307,0,0.524,0.063,0.644,0.184C227.373,80.521,224.599,87.867,214.786,97.68z"/>
		</g>
	</g>
	<g>
		<g>
			<path class="st6" d="M201.262,104.683c-2.386-2.386-11.455,2.813-20.254,11.612c-8.8,8.8-13.999,17.868-11.612,20.254
				c2.386,2.386,11.455-2.813,20.254-11.612C198.45,116.137,203.649,107.069,201.262,104.683z"/>
		</g>
	</g>
	<g>
		<g>
			<path class="st0" d="M202.323,103.622c-3.695-3.697-14.191,3.428-22.376,11.612c-8.185,8.185-15.31,18.678-11.612,22.375
				c0.689,0.69,1.615,1.003,2.719,1.003c4.813,0,12.998-5.958,19.657-12.615c4.347-4.347,7.984-8.91,10.242-12.847
				C203.588,108.554,204.049,105.348,202.323,103.622z M198.35,111.659c-2.129,3.714-5.595,8.053-9.76,12.218
				c-9.814,9.813-17.154,12.584-18.133,11.612c-0.975-0.975,1.8-8.32,11.612-18.133c8.602-8.602,15.309-11.795,17.489-11.795
				c0.307,0,0.524,0.063,0.645,0.183C200.408,105.95,200.7,107.56,198.35,111.659z"/>
		</g>
	</g>
	<g>
		<g>
			<path class="st6" d="M215.847,116.295c-8.8-8.8-17.868-13.999-20.254-11.612c-2.386,2.386,2.813,11.455,11.612,20.254
				c8.8,8.8,17.868,13.999,20.254,11.612C229.845,134.163,224.646,125.095,215.847,116.295z"/>
		</g>
	</g>
	<g>
		<g>
			<path class="st0" d="M216.907,115.234c-8.184-8.185-18.679-15.311-22.375-11.612c-3.698,3.697,3.427,14.191,11.612,22.375
				c6.659,6.659,14.844,12.615,19.657,12.615c1.103,0,2.03-0.313,2.719-1.003C232.217,133.912,225.092,123.419,216.907,115.234z
				 M226.398,135.489c-0.978,0.972-8.321-1.801-18.133-11.612c-9.813-9.813-12.587-17.158-11.612-18.133
				c0.972-0.976,8.321,1.801,18.133,11.612C224.599,127.168,227.373,134.514,226.398,135.489z"/>
		</g>
	</g>
	<g>
		<g>
			<path class="st6" d="M189.65,90.098c-8.8-8.8-17.868-13.999-20.254-11.612c-2.386,2.386,2.813,11.455,11.612,20.254
				c8.8,8.8,17.868,13.999,20.254,11.612C203.649,107.966,198.45,98.898,189.65,90.098z"/>
		</g>
	</g>
	<g>
		<g>
			<path class="st0" d="M200.952,101.884c-2.257-3.937-5.894-8.5-10.242-12.847c-8.184-8.185-18.679-15.311-22.375-11.612
				c-3.697,3.698,3.428,14.191,11.612,22.375c6.659,6.659,14.844,12.615,19.656,12.615c1.103,0,2.03-0.313,2.719-1.003
				C204.049,109.688,203.588,106.481,200.952,101.884z M200.202,109.292c-0.977,0.97-8.319-1.798-18.133-11.612
				c-9.812-9.813-12.587-17.158-11.612-18.133c0.972-0.975,8.321,1.8,18.133,11.612c4.165,4.165,7.631,8.504,9.76,12.218
				C200.7,107.476,200.408,109.085,200.202,109.292z"/>
		</g>
	</g>
	<g>
		<g>
			
				<ellipse transform="matrix(0.9871 -0.1602 0.1602 0.9871 -14.6602 33.1729)" class="st6" cx="198.427" cy="107.518" rx="6.868" ry="6.868"/>
		</g>
	</g>
	<g>
		<g>
			<path class="st0" d="M198.427,99.15c-4.614,0-8.368,3.754-8.368,8.368s3.754,8.368,8.368,8.368c4.614,0,8.368-3.754,8.368-8.368
				S203.041,99.15,198.427,99.15z M198.427,112.885c-2.96,0-5.368-2.408-5.368-5.368s2.408-5.368,5.368-5.368
				c2.96,0,5.368,2.408,5.368,5.368S201.387,112.885,198.427,112.885z"/>
		</g>
	</g>
	<g>
		<g>
			<path class="st11" d="M65.216,21.47c-2.24-2.25-5.23-3.49-8.42-3.49c-1.56,0-3.05,0.3-4.41,0.85c1.48,0.59,2.83,1.48,3.99,2.64
				c2.25,2.24,3.49,5.23,3.49,8.42v175.26c0.05,0.01,0.1,0.02,0.15,0.04c0.45,0.13,0.88,0.28,1.31,0.45
				c0.05,0.02,0.1,0.04,0.14,0.06c0.41,0.17,0.82,0.35,1.21,0.55c0.04,0.02,0.08,0.04,0.11,0.05c0.42,0.22,0.82,0.45,1.22,0.7
				c0.05,0.03,0.1,0.06,0.14,0.09c0.8,0.51,1.54,1.08,2.24,1.71c0.04,0.04,0.08,0.09,0.13,0.13c0.68,0.63,1.31,1.33,1.88,2.07
				c0.04,0.05,0.08,0.1,0.11,0.15c0.07,0.09,0.14,0.17,0.2,0.26V29.89C68.706,26.7,67.466,23.71,65.216,21.47z"/>
		</g>
	</g>
	<g>
		<g>
			<path class="st11" d="M139.646,21.47c-2.25-2.25-5.24-3.49-8.42-3.49c-1.56,0-3.05,0.3-4.42,0.85c1.48,0.59,2.84,1.48,4,2.64
				c2.25,2.24,3.49,5.23,3.49,8.42v175.26c0.05,0.01,0.1,0.02,0.15,0.04c0.44,0.13,0.88,0.28,1.31,0.45
				c0.05,0.02,0.09,0.04,0.14,0.06c0.41,0.17,0.81,0.35,1.21,0.55c0.04,0.02,0.07,0.04,0.11,0.05c0.42,0.22,0.82,0.45,1.22,0.7
				c0.04,0.03,0.09,0.06,0.14,0.09c0.79,0.51,1.54,1.08,2.23,1.71c0.05,0.04,0.09,0.09,0.14,0.13c0.68,0.63,1.31,1.33,1.88,2.07
				c0.04,0.05,0.08,0.1,0.11,0.15c0.07,0.09,0.13,0.17,0.2,0.26V29.89C143.136,26.7,141.896,23.71,139.646,21.47z"/>
		</g>
	</g>
</g>
</svg>
