<?xml version="1.0" encoding="utf-8"?>
<!-- Generator: Adobe Illustrator 22.0.1, SVG Export Plug-In . SVG Version: 6.00 Build 0)  -->
<svg version="1.1" id="Layer_2" xmlns="http://www.w3.org/2000/svg" xmlns:xlink="http://www.w3.org/1999/xlink" x="0px" y="0px"
	 viewBox="0 0 256 256" style="enable-background:new 0 0 256 256;" xml:space="preserve">
<style type="text/css">
	.st0{fill:#3A312A;}
	.st1{fill:#D7E057;}
	.st2{fill:#FCE8CB;}
	.st3{fill:#8AC6DD;}
	.st4{fill-rule:evenodd;clip-rule:evenodd;fill:#FCE8CB;}
	.st5{fill:#F5978A;}
	.st6{fill:#87796F;}
	.st7{fill:#F16C7A;}
	.st8{fill:#68A8BC;}
	.st9{fill:#B9BC39;}
	.st10{fill:#CE4E61;}
	.st11{fill:#6B5B51;}
	.st12{fill:#CCAE8B;}
	.st13{fill-rule:evenodd;clip-rule:evenodd;fill:#F16C7A;}
</style>
<g>
	<g>
		<g>
			
				<ellipse transform="matrix(0.7071 -0.7071 0.7071 0.7071 -59.1659 133.0673)" class="st3" cx="131.043" cy="137.953" rx="101.833" ry="101.833"/>
		</g>
	</g>
	<g>
		<g>
			<path class="st0" d="M204.111,64.886c-40.288-40.289-105.846-40.291-146.136,0C38.458,84.402,27.71,110.352,27.71,137.953
				c0,27.602,10.748,53.551,30.266,73.068c20.145,20.145,46.606,30.217,73.068,30.217c26.461,0,52.923-10.072,73.067-30.217
				C244.4,170.731,244.4,105.175,204.111,64.886z M201.99,208.9c-39.12,39.118-102.771,39.12-141.894,0
				c-18.95-18.951-29.387-44.147-29.387-70.947c0-26.8,10.437-51.996,29.387-70.946c19.561-19.56,45.254-29.34,70.946-29.34
				c25.693,0,51.387,9.78,70.947,29.34C241.109,106.127,241.109,169.78,201.99,208.9z"/>
		</g>
	</g>
	<g>
		<g>
			<path class="st2" d="M212.051,198.166L197.6,183.715c-2.744,3.998-5.897,7.797-9.448,11.347
				c-3.551,3.551-7.35,6.704-11.347,9.448l14.451,14.451c2.874,2.874,6.63,4.308,10.398,4.302c3.762,0,7.53-1.434,10.398-4.302
				C217.793,213.219,217.793,203.908,212.051,198.166z"/>
		</g>
	</g>
	<g>
		<g>
			<path class="st0" d="M213.112,197.105l-14.451-14.451c-0.315-0.316-0.758-0.479-1.198-0.433
				c-0.444,0.041-0.847,0.277-1.099,0.644c-2.707,3.943-5.827,7.69-9.272,11.136c-3.446,3.446-7.193,6.566-11.136,9.272
				c-0.368,0.253-0.604,0.655-0.646,1.099c-0.04,0.444,0.118,0.883,0.434,1.198l14.451,14.451c3.058,3.058,7.117,4.741,11.431,4.741
				h0.028c4.331,0,8.4-1.684,11.458-4.741C219.43,213.704,219.43,203.423,213.112,197.105z M210.991,217.9
				c-2.491,2.491-5.807,3.862-9.34,3.862h-0.022c-3.515,0-6.821-1.371-9.313-3.862l-13.189-13.19
				c3.555-2.56,6.941-5.444,10.086-8.588c3.145-3.144,6.027-6.53,8.588-10.086l13.19,13.19
				C216.139,204.375,216.139,212.752,210.991,217.9z"/>
		</g>
	</g>
	<g>
		<g>
			<circle class="st2" cx="131.043" cy="137.953" r="80.764"/>
		</g>
	</g>
	<g>
		<g>
			<path class="st0" d="M189.213,79.784c-15.537-15.538-36.195-24.095-58.169-24.095c-21.975,0-42.633,8.557-58.17,24.095
				c-15.538,15.538-24.095,36.196-24.095,58.169c0,21.974,8.557,42.632,24.095,58.169c15.537,15.538,36.195,24.095,58.17,24.095
				c21.974,0,42.632-8.557,58.169-24.095C221.288,164.047,221.288,111.858,189.213,79.784z M187.092,194.001
				c-14.971,14.971-34.876,23.216-56.048,23.216c-21.173,0-41.078-8.245-56.049-23.216c-14.972-14.971-23.216-34.876-23.216-56.048
				c0-21.172,8.244-41.077,23.216-56.048c14.971-14.971,34.876-23.216,56.049-23.216c21.172,0,41.077,8.245,56.048,23.216
				C217.997,112.81,217.997,163.096,187.092,194.001z"/>
		</g>
	</g>
	<g>
		<g>
			<path class="st6" d="M179.151,89.845c-22.003-22.003-55.319-25.765-81.213-11.326l-12.56,9.003
				c-0.828,0.751-1.644,1.523-2.443,2.323c-26.569,26.569-26.569,69.647,0,96.216c26.57,26.569,69.647,26.569,96.216,0
				C205.721,159.492,205.721,116.414,179.151,89.845z"/>
		</g>
	</g>
	<g>
		<g>
			<path class="st0" d="M180.212,88.785c-21.873-21.873-56.006-26.631-83.004-11.575c-0.724,0.403-0.983,1.317-0.58,2.041
				c0.405,0.724,1.32,0.983,2.041,0.58c25.835-14.405,58.493-9.852,79.422,11.076c25.941,25.942,25.941,68.153,0,94.095
				c-12.973,12.973-30.007,19.458-47.048,19.456c-17.035-0.002-34.077-6.487-47.047-19.456c-25.941-25.942-25.941-68.153,0-94.095
				c0.751-0.751,1.532-1.494,2.391-2.272c0.613-0.557,0.66-1.505,0.104-2.119c-0.556-0.613-1.506-0.659-2.119-0.104
				c-0.895,0.812-1.711,1.588-2.496,2.374c-27.111,27.111-27.111,71.226,0,98.337c13.556,13.556,31.362,20.334,49.168,20.334
				c17.807,0,35.613-6.778,49.169-20.334C207.323,160.01,207.323,115.896,180.212,88.785z"/>
		</g>
	</g>
	<g>
		<g>
			<path class="st13" d="M163.117,100.171c-10.092-3.477-25.393-0.126-31.941,9.134c-6.547-9.26-21.849-12.612-31.941-9.134
				c-12.84,4.424-19.683,17.964-18.419,31.06c1.137,11.78,8.198,23.523,16.873,33.555l10.9,11.102
				c3.144,2.843,6.275,5.415,9.228,7.645c3.457,2.611,8.606,7.031,13.267,7.129c0.004,0,0.006,0.002,0.01,0.003v0.001
				c0.005,0.002,0.01,0.005,0.017,0.005c0.001,0,0.003,0,0.004,0c0,0,0.001,0,0.001,0c0.02,0,0.041-0.003,0.061-0.003
				c0.02,0,0.041,0.003,0.061,0.003c0,0,0,0,0.001,0c0.001,0,0.003,0,0.004,0c0.006,0,0.011-0.003,0.017-0.005v-0.001
				c0.003-0.001,0.006-0.003,0.01-0.003c4.661-0.099,9.809-4.518,13.267-7.129c15.151-11.44,35.024-31.821,37-52.301
				C182.801,118.135,175.958,104.595,163.117,100.171z"/>
		</g>
	</g>
	<g>
		<g>
			<path class="st0" d="M163.605,98.753c-9.646-3.325-24.789-0.715-32.429,8.123c-7.64-8.838-22.781-11.449-32.429-8.123
				c-12.863,4.432-20.851,17.846-19.424,32.622c1.028,10.651,6.986,22.543,17.23,34.392c0.542,0.626,1.487,0.695,2.116,0.154
				c0.626-0.542,0.695-1.489,0.153-2.116c-9.836-11.375-15.546-22.689-16.514-32.718c-1.272-13.177,6.051-25.582,17.414-29.497
				c9.19-3.165,23.861-0.42,30.228,8.582c0.563,0.796,1.887,0.796,2.449,0c6.365-9.002,21.038-11.746,30.228-8.582
				c11.363,3.916,18.687,16.321,17.414,29.497c-1.823,18.891-20.004,38.859-36.411,51.248c-0.396,0.299-0.813,0.621-1.249,0.958
				c-3.168,2.444-7.506,5.792-11.113,5.869c-0.031,0-0.062,0.001-0.093,0.003c-0.021-0.001-0.041-0.002-0.061-0.003
				c-3.64-0.077-7.978-3.425-11.146-5.87c-0.437-0.336-0.854-0.659-1.249-0.958c-3.077-2.323-6.147-4.867-9.126-7.56
				c-0.614-0.555-1.563-0.509-2.118,0.106c-0.556,0.614-0.508,1.563,0.106,2.119c3.043,2.752,6.183,5.353,9.329,7.729
				c0.388,0.293,0.797,0.608,1.225,0.938c3.453,2.665,8.166,6.301,12.767,6.489c0.07,0.01,0.142,0.034,0.209,0.015
				c0,0,0.011,0,0.018,0c0.036,0,0.074,0.001,0.112,0c0.066,0,0.133-0.005,0.199-0.014c4.582-0.169,9.311-3.818,12.773-6.49
				c0.428-0.33,0.837-0.646,1.225-0.938c8.208-6.198,35.177-28.363,37.589-53.354C184.456,116.599,176.469,103.185,163.605,98.753z"
				/>
		</g>
	</g>
	<g>
		<g>
			<path class="st1" d="M52.263,25.891c-0.974,11.564-13.024,13.39-13.024,13.39c10.347,0.487,12.925,14.059,12.925,14.059
				c0.221-9.677,13.321-14.202,13.321-14.202C55.671,38.55,52.263,25.891,52.263,25.891z"/>
		</g>
	</g>
	<g>
		<g>
			<path class="st0" d="M65.575,37.64c-8.605-0.515-11.833-12.024-11.864-12.141c-0.19-0.702-0.847-1.159-1.584-1.102
				c-0.725,0.066-1.298,0.642-1.359,1.367C49.908,35.98,39.455,37.728,39.014,37.797c-0.763,0.115-1.313,0.79-1.273,1.561
				c0.04,0.77,0.657,1.384,1.428,1.421c9.028,0.425,11.499,12.718,11.522,12.842c0.138,0.711,0.76,1.217,1.473,1.217
				c0.042,0,0.084-0.001,0.126-0.005c0.765-0.064,1.357-0.693,1.375-1.46c0.193-8.509,12.191-12.777,12.313-12.819
				c0.676-0.235,1.092-0.914,0.994-1.623S66.289,37.683,65.575,37.64z M52.009,47.985c-1.356-3.13-3.709-6.907-7.587-8.877
				c2.931-1.405,6.408-3.913,8.201-8.273c1.551,3.071,4.2,6.88,8.335,8.722C57.95,41.199,54.035,43.964,52.009,47.985z"/>
		</g>
	</g>
	<g>
		<g>
			<path class="st1" d="M30.564,42.871c-0.689,8.179-9.213,9.471-9.213,9.471c7.318,0.344,9.142,9.944,9.142,9.944
				c0.156-6.844,9.422-10.045,9.422-10.045C32.975,51.825,30.564,42.871,30.564,42.871z"/>
		</g>
	</g>
	<g>
		<g>
			<path class="st0" d="M40.006,50.743c-5.766-0.345-7.972-8.186-7.994-8.265c-0.189-0.702-0.863-1.162-1.581-1.101
				c-0.726,0.065-1.3,0.642-1.361,1.368c-0.578,6.871-7.646,8.067-7.942,8.114c-0.763,0.115-1.313,0.79-1.273,1.56
				c0.04,0.77,0.657,1.384,1.428,1.421c6.035,0.284,7.724,8.644,7.739,8.726c0.136,0.712,0.759,1.22,1.473,1.22
				c0.041,0,0.083-0.001,0.125-0.005c0.765-0.063,1.358-0.694,1.376-1.461c0.13-5.709,8.331-8.633,8.412-8.661
				c0.676-0.234,1.093-0.913,0.996-1.622C41.305,51.328,40.72,50.786,40.006,50.743z M30.421,57.538
				c-0.924-1.886-2.34-3.947-4.447-5.28c1.856-1.041,3.698-2.63,4.871-4.916c1.058,1.873,2.654,3.954,4.941,5.223
				C33.937,53.667,31.797,55.306,30.421,57.538z"/>
		</g>
	</g>
	<g>
		<g>
			<path class="st1" d="M30.564,16.214c-0.689,8.179-9.213,9.471-9.213,9.471c7.318,0.344,9.142,9.944,9.142,9.944
				c0.156-6.845,9.422-10.045,9.422-10.045C32.975,25.168,30.564,16.214,30.564,16.214z"/>
		</g>
	</g>
	<g>
		<g>
			<path class="st0" d="M40.006,24.085c-5.766-0.345-7.972-8.185-7.994-8.265c-0.189-0.702-0.863-1.16-1.581-1.102
				c-0.726,0.065-1.3,0.643-1.361,1.368c-0.578,6.871-7.646,8.067-7.942,8.114c-0.763,0.115-1.313,0.79-1.273,1.56
				c0.04,0.77,0.657,1.384,1.428,1.421c6.035,0.284,7.724,8.644,7.739,8.726c0.136,0.712,0.759,1.22,1.473,1.22
				c0.041,0,0.083-0.001,0.125-0.005c0.765-0.063,1.358-0.694,1.376-1.461c0.13-5.71,8.331-8.634,8.412-8.662
				c0.676-0.234,1.093-0.913,0.996-1.622C41.305,24.67,40.72,24.128,40.006,24.085z M30.421,30.881
				c-0.924-1.886-2.34-3.947-4.447-5.28c1.856-1.042,3.698-2.63,4.871-4.917c1.058,1.874,2.654,3.954,4.941,5.223
				C33.937,27.009,31.797,28.648,30.421,30.881z"/>
		</g>
	</g>
	<g>
		<g>
			<path class="st11" d="M178.095,90.904c-14.09-14.09-33.5-20.76-52.56-19.2c15.38,1.24,30.29,7.78,41.71,19.2
				c12.56,12.57,19.48,29.28,19.48,47.05c0,17.77-6.92,34.48-19.48,47.05c-11.28,11.27-25.9,18-41.62,19.26
				c1.8,0.15,3.6,0.22,5.42,0.22c17.77,0,34.48-6.92,47.05-19.48c12.56-12.57,19.48-29.28,19.48-47.05
				C197.575,120.184,190.655,103.474,178.095,90.904z"/>
		</g>
	</g>
</g>
</svg>
