<?xml version="1.0" encoding="utf-8"?>
<!-- Generator: Adobe Illustrator 22.0.1, SVG Export Plug-In . SVG Version: 6.00 Build 0)  -->
<svg version="1.1" id="Layer_2" xmlns="http://www.w3.org/2000/svg" xmlns:xlink="http://www.w3.org/1999/xlink" x="0px" y="0px"
	 viewBox="0 0 256 256" style="enable-background:new 0 0 256 256;" xml:space="preserve">
<style type="text/css">
	.st0{fill:#3A312A;}
	.st1{fill:#D7E057;}
	.st2{fill:#FCE8CB;}
	.st3{fill:#8AC6DD;}
	.st4{fill-rule:evenodd;clip-rule:evenodd;fill:#FCE8CB;}
	.st5{fill:#F5978A;}
	.st6{fill:#87796F;}
	.st7{fill:#F16C7A;}
	.st8{fill:#68A8BC;}
	.st9{fill:#B9BC39;}
	.st10{fill:#CE4E61;}
	.st11{fill:#6B5B51;}
	.st12{fill:#CCAE8B;}
	.st13{fill-rule:evenodd;clip-rule:evenodd;fill:#F16C7A;}
</style>
<g>
	<g>
		<g>
			<path class="st1" d="M55.605,78.27C54.631,89.834,42.58,91.66,42.58,91.66c10.347,0.487,12.925,14.059,12.925,14.059
				c0.221-9.677,13.321-14.202,13.321-14.202C59.013,90.93,55.605,78.27,55.605,78.27z"/>
		</g>
	</g>
	<g>
		<g>
			<path class="st0" d="M68.916,90.019c-8.604-0.514-11.832-12.024-11.863-12.14c-0.19-0.702-0.855-1.163-1.584-1.102
				c-0.725,0.067-1.298,0.642-1.359,1.367C53.25,88.359,42.797,90.108,42.355,90.177c-0.763,0.115-1.313,0.79-1.273,1.561
				c0.04,0.77,0.657,1.384,1.428,1.421c9.028,0.425,11.499,12.719,11.522,12.843c0.138,0.711,0.76,1.217,1.473,1.217
				c0.042,0,0.084-0.001,0.126-0.005c0.765-0.064,1.357-0.693,1.375-1.46c0.193-8.509,12.19-12.777,12.312-12.819
				c0.676-0.235,1.092-0.915,0.994-1.623C70.213,90.603,69.63,90.062,68.916,90.019z M55.351,100.365
				c-1.356-3.13-3.709-6.908-7.587-8.877c2.931-1.404,6.408-3.913,8.201-8.273c1.551,3.071,4.2,6.88,8.334,8.722
				C61.292,93.578,57.377,96.344,55.351,100.365z"/>
		</g>
	</g>
	<g>
		<g>
			<path class="st1" d="M33.906,95.251c-0.689,8.179-9.213,9.471-9.213,9.471c7.318,0.344,9.142,9.944,9.142,9.944
				c0.156-6.844,9.422-10.045,9.422-10.045C36.317,104.205,33.906,95.251,33.906,95.251z"/>
		</g>
	</g>
	<g>
		<g>
			<path class="st0" d="M43.348,103.123c-5.767-0.345-7.972-8.185-7.993-8.264c-0.19-0.702-0.865-1.165-1.582-1.102
				c-0.726,0.065-1.3,0.642-1.361,1.368c-0.579,6.87-7.646,8.066-7.942,8.113c-0.763,0.115-1.313,0.79-1.273,1.56
				c0.04,0.77,0.657,1.384,1.428,1.421c6.035,0.284,7.724,8.644,7.739,8.726c0.136,0.712,0.759,1.22,1.473,1.22
				c0.041,0,0.083-0.001,0.125-0.005c0.765-0.063,1.358-0.694,1.376-1.461c0.13-5.709,8.331-8.634,8.412-8.662
				c0.676-0.234,1.093-0.913,0.996-1.622C44.646,103.707,44.062,103.165,43.348,103.123z M33.763,109.918
				c-0.924-1.886-2.34-3.947-4.447-5.28c1.855-1.041,3.697-2.629,4.871-4.916c1.057,1.874,2.654,3.955,4.941,5.224
				C37.277,106.046,35.139,107.685,33.763,109.918z"/>
		</g>
	</g>
	<g>
		<g>
			<path class="st1" d="M33.906,68.593c-0.689,8.179-9.213,9.471-9.213,9.471c7.318,0.344,9.142,9.944,9.142,9.944
				c0.156-6.845,9.422-10.045,9.422-10.045C36.317,77.547,33.906,68.593,33.906,68.593z"/>
		</g>
	</g>
	<g>
		<g>
			<path class="st0" d="M43.348,76.465c-5.767-0.345-7.972-8.185-7.993-8.265c-0.19-0.702-0.865-1.164-1.582-1.102
				c-0.726,0.066-1.3,0.642-1.361,1.368c-0.579,6.871-7.646,8.067-7.942,8.114c-0.763,0.115-1.313,0.79-1.273,1.561
				c0.04,0.77,0.657,1.384,1.428,1.421c6.035,0.284,7.724,8.644,7.739,8.726c0.136,0.713,0.759,1.22,1.473,1.22
				c0.041,0,0.083-0.002,0.125-0.005c0.765-0.063,1.358-0.694,1.376-1.461c0.13-5.709,8.331-8.634,8.412-8.662
				c0.676-0.234,1.093-0.913,0.996-1.622C44.646,77.05,44.062,76.508,43.348,76.465z M33.763,83.26
				c-0.924-1.885-2.34-3.947-4.447-5.28c1.855-1.041,3.697-2.63,4.871-4.917c1.057,1.874,2.654,3.955,4.941,5.224
				C37.278,79.389,35.139,81.028,33.763,83.26z"/>
		</g>
	</g>
	<g>
		<g>
			<path class="st6" d="M176.716,24.054H79.284c-2.633,0-4.767,2.134-4.767,4.767c0,2.633,2.134,4.767,4.767,4.767h97.431
				c2.633,0,4.767-2.134,4.767-4.767C181.482,26.188,179.349,24.054,176.716,24.054z"/>
		</g>
	</g>
	<g>
		<g>
			<path class="st0" d="M176.716,22.554h-60.541c-0.828,0-1.5,0.671-1.5,1.5s0.672,1.5,1.5,1.5h60.541
				c1.801,0,3.267,1.465,3.267,3.267c0,1.801-1.466,3.267-3.267,3.267H79.284c-1.801,0-3.267-1.466-3.267-3.267
				c0-1.801,1.466-3.267,3.267-3.267h21.874c0.828,0,1.5-0.671,1.5-1.5s-0.672-1.5-1.5-1.5H79.284c-3.455,0-6.267,2.811-6.267,6.267
				c0,3.456,2.812,6.267,6.267,6.267h97.432c3.455,0,6.267-2.812,6.267-6.267C182.982,25.365,180.171,22.554,176.716,22.554z"/>
		</g>
	</g>
	<g>
		<g>
			<path class="st7" d="M81.277,33.588l5.548,64.222c1.172,13.55,12.512,23.95,26.111,23.95h30.731
				c13.696,0,25.08-10.541,26.129-24.195l4.926-63.978H81.277z"/>
		</g>
	</g>
	<g>
		<g>
			<path class="st0" d="M175.823,32.569c-0.284-0.307-0.683-0.481-1.101-0.481H81.277c-0.42,0-0.821,0.176-1.105,0.486
				c-0.284,0.31-0.425,0.725-0.389,1.143l5.548,64.222c1.248,14.435,13.116,25.321,27.605,25.321h30.731
				c14.388,0,26.522-11.236,27.625-25.579l4.925-63.978C176.25,33.287,176.107,32.875,175.823,32.569z M168.303,97.451
				c-0.983,12.79-11.805,22.809-24.635,22.809h-30.731c-12.921,0-23.504-9.707-24.617-22.579l-5.407-62.593h90.19L168.303,97.451z"
				/>
		</g>
	</g>
	<g>
		<g>
			<path class="st6" d="M119.198,134.24H21.767c-2.633,0-4.767,2.134-4.767,4.767c0,2.633,2.134,4.767,4.767,4.767h97.431
				c2.633,0,4.767-2.134,4.767-4.767C123.965,136.374,121.831,134.24,119.198,134.24z"/>
		</g>
	</g>
	<g>
		<g>
			<path class="st0" d="M119.198,132.74H21.767c-3.455,0-6.267,2.811-6.267,6.267c0,3.456,2.812,6.267,6.267,6.267h97.432
				c3.455,0,6.267-2.811,6.267-6.267C125.465,135.551,122.653,132.74,119.198,132.74z M119.198,142.274H21.767
				c-1.801,0-3.267-1.466-3.267-3.267c0-1.801,1.466-3.267,3.267-3.267h97.432c1.801,0,3.267,1.465,3.267,3.267
				C122.465,140.808,120.999,142.274,119.198,142.274z"/>
		</g>
	</g>
	<g>
		<g>
			<path class="st3" d="M23.76,143.774l1.596,18.478l1.342,15.533l2.61,30.211c1.172,13.55,12.512,23.95,26.111,23.95h30.732
				c13.696,0,25.08-10.541,26.129-24.195l4.925-63.978H23.76z"/>
		</g>
	</g>
	<g>
		<g>
			<path class="st0" d="M118.306,142.755c-0.284-0.307-0.683-0.481-1.101-0.481H23.76c-0.42,0-0.821,0.176-1.105,0.486
				c-0.284,0.31-0.425,0.725-0.389,1.143l1.597,18.478c0.071,0.827,0.813,1.425,1.623,1.366c0.825-0.071,1.437-0.798,1.365-1.624
				l-1.456-16.849h90.19l-4.8,62.363c-0.983,12.79-11.805,22.809-24.635,22.809H55.419c-12.921,0-23.504-9.707-24.617-22.579
				l-2.609-30.211c-0.072-0.826-0.806-1.431-1.623-1.366c-0.825,0.071-1.437,0.798-1.365,1.624l2.609,30.211
				c1.248,14.435,13.116,25.321,27.605,25.321H86.15c14.388,0,26.522-11.236,27.625-25.579l4.925-63.978
				C118.732,143.473,118.59,143.061,118.306,142.755z"/>
		</g>
	</g>
	<g>
		<g>
			<path class="st6" d="M234.233,134.24h-97.431c-2.633,0-4.767,2.134-4.767,4.767c0,2.633,2.134,4.767,4.767,4.767h97.431
				c2.632,0,4.767-2.134,4.767-4.767C239,136.374,236.866,134.24,234.233,134.24z"/>
		</g>
	</g>
	<g>
		<g>
			<path class="st0" d="M234.233,132.74h-23.387c-0.828,0-1.5,0.671-1.5,1.5s0.672,1.5,1.5,1.5h23.387
				c1.801,0,3.267,1.465,3.267,3.267c0,1.801-1.466,3.267-3.267,3.267h-97.432c-1.801,0-3.267-1.466-3.267-3.267
				c0-1.801,1.466-3.267,3.267-3.267h59.018c0.828,0,1.5-0.671,1.5-1.5s-0.672-1.5-1.5-1.5h-59.018
				c-3.455,0-6.267,2.811-6.267,6.267c0,3.456,2.812,6.267,6.267,6.267h97.432c3.455,0,6.267-2.811,6.267-6.267
				C240.5,135.551,237.688,132.74,234.233,132.74z"/>
		</g>
	</g>
	<g>
		<g>
			<path class="st1" d="M138.795,143.774l5.548,64.222c1.172,13.55,12.512,23.95,26.111,23.95h30.732
				c13.696,0,25.08-10.541,26.129-24.195l4.926-63.978H138.795z"/>
		</g>
	</g>
	<g>
		<g>
			<path class="st0" d="M233.341,142.755c-0.284-0.307-0.683-0.481-1.101-0.481h-93.445c-0.42,0-0.821,0.176-1.105,0.486
				c-0.284,0.31-0.425,0.725-0.389,1.143l5.548,64.222c1.248,14.435,13.116,25.321,27.605,25.321h30.731
				c14.388,0,26.521-11.236,27.624-25.579l4.926-63.978C233.768,143.473,233.625,143.061,233.341,142.755z M225.819,207.637
				c-0.983,12.79-11.804,22.809-24.634,22.809h-30.731c-12.921,0-23.504-9.707-24.617-22.579l-5.407-62.593h90.19L225.819,207.637z"
				/>
		</g>
	</g>
	<g>
		<g>
			<path class="st11" d="M176.72,25.55H166.3c1.8,0,3.27,1.47,3.27,3.27c0,1.8-1.47,3.27-3.27,3.27h10.42c1.8,0,3.26-1.47,3.26-3.27
				C179.98,27.02,178.52,25.55,176.72,25.55z"/>
		</g>
	</g>
	<g>
		<g>
			<path class="st10" d="M162.69,35.09l-4.8,62.36c-0.99,12.79-11.81,22.81-24.64,22.81h10.42c12.83,0,23.65-10.02,24.63-22.81
				l4.8-62.36H162.69z"/>
		</g>
	</g>
	<g>
		<g>
			<path class="st11" d="M119.2,135.74h-10.42c1.8,0,3.27,1.47,3.27,3.27c0,1.8-1.47,3.26-3.27,3.26h10.42
				c1.8,0,3.26-1.46,3.26-3.26C122.46,137.21,121,135.74,119.2,135.74z"/>
		</g>
	</g>
	<g>
		<g>
			<path class="st8" d="M105.17,145.27l-4.8,62.37c-0.98,12.79-11.8,22.81-24.63,22.81h10.41c12.83,0,23.65-10.02,24.64-22.81
				l4.79-62.37H105.17z"/>
		</g>
	</g>
	<g>
		<g>
			<path class="st11" d="M234.23,135.74h-10.41c1.8,0,3.26,1.47,3.26,3.27c0,1.8-1.46,3.26-3.26,3.26h10.41
				c1.8,0,3.27-1.46,3.27-3.26C237.5,137.21,236.03,135.74,234.23,135.74z"/>
		</g>
	</g>
	<g>
		<g>
			<path class="st9" d="M220.21,145.27l-4.81,62.37c-0.98,12.79-11.8,22.81-24.63,22.81h10.42c12.83,0,23.65-10.02,24.63-22.81
				l4.8-62.37H220.21z"/>
		</g>
	</g>
</g>
</svg>
