<?xml version="1.0" encoding="utf-8"?>
<!-- Generator: Adobe Illustrator 22.0.1, SVG Export Plug-In . SVG Version: 6.00 Build 0)  -->
<svg version="1.1" id="Layer_2" xmlns="http://www.w3.org/2000/svg" xmlns:xlink="http://www.w3.org/1999/xlink" x="0px" y="0px"
	 viewBox="0 0 256 256" style="enable-background:new 0 0 256 256;" xml:space="preserve">
<style type="text/css">
	.st0{fill:#3A312A;}
	.st1{fill:#D7E057;}
	.st2{fill:#FCE8CB;}
	.st3{fill:#8AC6DD;}
	.st4{fill-rule:evenodd;clip-rule:evenodd;fill:#FCE8CB;}
	.st5{fill:#F5978A;}
	.st6{fill:#87796F;}
	.st7{fill:#F16C7A;}
	.st8{fill:#68A8BC;}
	.st9{fill:#B9BC39;}
	.st10{fill:#CE4E61;}
	.st11{fill:#6B5B51;}
	.st12{fill:#CCAE8B;}
	.st13{fill-rule:evenodd;clip-rule:evenodd;fill:#F16C7A;}
</style>
<g>
	<g>
		<g>
			<path class="st1" d="M225.965,26.087c-0.974,11.564-13.024,13.389-13.024,13.389c10.347,0.487,12.925,14.059,12.925,14.059
				c0.221-9.677,13.321-14.202,13.321-14.202C229.373,38.746,225.965,26.087,225.965,26.087z"/>
		</g>
	</g>
	<g>
		<g>
			<path class="st0" d="M239.276,37.836c-8.604-0.515-11.832-12.024-11.863-12.141c-0.19-0.702-0.849-1.163-1.584-1.102
				c-0.725,0.066-1.298,0.642-1.359,1.367c-0.859,10.215-11.313,11.964-11.754,12.033c-0.763,0.115-1.313,0.79-1.273,1.561
				c0.04,0.77,0.657,1.384,1.428,1.421c9.028,0.425,11.499,12.718,11.522,12.842c0.138,0.711,0.76,1.217,1.473,1.217
				c0.042,0,0.084-0.001,0.126-0.005c0.765-0.064,1.357-0.693,1.375-1.459c0.193-8.509,12.19-12.777,12.312-12.819
				c0.676-0.235,1.092-0.914,0.994-1.623S239.99,37.879,239.276,37.836z M225.711,48.182c-1.357-3.13-3.709-6.907-7.587-8.876
				c2.931-1.405,6.408-3.913,8.201-8.272c1.551,3.071,4.2,6.88,8.334,8.722C231.652,41.395,227.737,44.161,225.711,48.182z"/>
		</g>
	</g>
	<g>
		<g>
			<path class="st1" d="M204.266,43.067c-0.689,8.179-9.213,9.47-9.213,9.47c7.318,0.344,9.142,9.944,9.142,9.944
				c0.156-6.844,9.422-10.045,9.422-10.045C206.677,52.021,204.266,43.067,204.266,43.067z"/>
		</g>
	</g>
	<g>
		<g>
			<path class="st0" d="M213.708,50.939c-5.767-0.345-7.972-8.186-7.993-8.265c-0.19-0.702-0.866-1.157-1.582-1.102
				c-0.726,0.065-1.3,0.642-1.361,1.368c-0.579,6.871-7.646,8.067-7.942,8.114c-0.763,0.115-1.313,0.79-1.273,1.561
				c0.04,0.77,0.657,1.384,1.428,1.421c6.035,0.284,7.724,8.644,7.739,8.726c0.136,0.712,0.759,1.22,1.473,1.22
				c0.041,0,0.083-0.001,0.125-0.005c0.765-0.063,1.358-0.694,1.376-1.461c0.13-5.709,8.331-8.633,8.412-8.661
				c0.676-0.234,1.093-0.913,0.996-1.622C215.007,51.524,214.422,50.982,213.708,50.939z M204.123,57.734
				c-0.924-1.886-2.34-3.947-4.447-5.28c1.855-1.041,3.697-2.63,4.871-4.917c1.057,1.874,2.654,3.955,4.941,5.224
				C207.639,53.863,205.499,55.502,204.123,57.734z"/>
		</g>
	</g>
	<g>
		<g>
			<path class="st1" d="M204.266,16.41c-0.689,8.179-9.213,9.471-9.213,9.471c7.318,0.344,9.142,9.944,9.142,9.944
				c0.156-6.844,9.422-10.045,9.422-10.045C206.677,25.364,204.266,16.41,204.266,16.41z"/>
		</g>
	</g>
	<g>
		<g>
			<path class="st0" d="M213.708,24.282c-5.767-0.345-7.972-8.186-7.993-8.265c-0.19-0.702-0.866-1.164-1.582-1.102
				c-0.726,0.065-1.3,0.642-1.361,1.368c-0.579,6.871-7.646,8.067-7.942,8.114c-0.763,0.115-1.313,0.79-1.273,1.561
				c0.04,0.77,0.657,1.384,1.428,1.421c6.035,0.284,7.724,8.644,7.739,8.726c0.136,0.712,0.759,1.22,1.473,1.22
				c0.041,0,0.083-0.001,0.125-0.005c0.765-0.063,1.358-0.694,1.376-1.461c0.13-5.709,8.331-8.634,8.412-8.662
				c0.676-0.234,1.093-0.913,0.996-1.622C215.007,24.866,214.422,24.325,213.708,24.282z M204.123,31.077
				c-0.924-1.886-2.34-3.947-4.447-5.28c1.855-1.042,3.697-2.63,4.871-4.917c1.057,1.874,2.653,3.955,4.941,5.224
				C207.639,27.205,205.499,28.845,204.123,31.077z"/>
		</g>
	</g>
	<g>
		<g>
			<path class="st3" d="M222.67,184.86c-14.56-14.56-31.58-22.69-43.85-22.11c-2.6,2.69-5.3,5.4-8.06,8.16s-5.47,5.46-8.16,8.06
				c-0.54,11.32,6.36,26.69,18.87,40.44l10.54,9.96c16.99,13.49,31.4,12.57,40.59,3.38C243.08,222.27,242.81,205,222.67,184.86z
				 M223.6,223.75c-4.8,4.8-12.6,4.8-17.4,0c-4.8-4.8-4.8-12.6,0-17.4c4.8-4.8,12.6-4.8,17.4,0
				C228.4,211.15,228.4,218.95,223.6,223.75z"/>
		</g>
	</g>
	<g>
		<g>
			<path class="st0" d="M224.657,224.811c2.605-2.605,4.04-6.071,4.04-9.761s-1.435-7.156-4.04-9.76
				c-2.604-2.605-6.071-4.04-9.76-4.04c-3.689,0-7.156,1.435-9.761,4.04c-5.382,5.382-5.382,14.139,0,19.521
				c2.69,2.691,6.226,4.037,9.76,4.037C218.432,228.847,221.967,227.501,224.657,224.811z M207.258,207.411
				c2.038-2.038,4.751-3.161,7.64-3.161c2.888,0,5.601,1.123,7.639,3.161s3.161,4.751,3.161,7.639s-1.123,5.601-3.161,7.64
				c-2.038,2.038-4.751,3.16-7.639,3.16c-2.889,0-5.602-1.122-7.64-3.16C203.046,218.477,203.046,211.623,207.258,207.411z
				 M240.597,212.195c-1.42-9.068-7.095-18.623-16.869-28.396c-14.532-14.533-31.743-23.169-44.981-22.548
				c-0.381,0.018-0.741,0.181-1.007,0.456c-2.691,2.784-5.563,5.662-8.043,8.142c-2.616,2.616-5.399,5.392-8.142,8.042
				c-0.275,0.266-0.438,0.626-0.456,1.008c-0.564,11.933,6.816,27.842,19.262,41.518c0.558,0.613,1.506,0.657,2.119,0.1
				c0.612-0.558,0.657-1.506,0.1-2.119c-11.722-12.881-18.764-27.666-18.505-38.771c2.617-2.538,5.256-5.169,7.743-7.657
				c2.36-2.359,5.074-5.08,7.657-7.743c12.184-0.287,28.608,8.169,42.132,21.693c9.315,9.315,14.707,18.312,16.026,26.739
				c1.146,7.316-0.963,13.896-6.097,19.03c-9.617,9.618-23.683,8.345-38.589-3.49c-0.646-0.513-1.592-0.408-2.107,0.242
				c-0.515,0.649-0.406,1.592,0.242,2.107c8.881,7.051,17.545,10.601,25.344,10.601c6.461,0,12.33-2.438,17.231-7.34
				C239.496,227.972,241.896,220.498,240.597,212.195z"/>
		</g>
	</g>
	<g>
		<g>
			<path class="st3" d="M172.769,67.124C122.056,16.412,51.241,5.005,28.047,28.199c-12.491,12.491-14.94,38.796-6.626,68.333
				l4.62,13.866c8.189,21.273,21.744,43.336,40.931,62.523c50.713,50.713,74.57,27.203,103.785-2.012
				C199.972,141.694,223.481,117.837,172.769,67.124z"/>
		</g>
	</g>
	<g>
		<g>
			<path class="st0" d="M173.829,66.064c-23.644-23.644-53.262-40.54-83.4-47.578c-27.813-6.494-51.531-3.26-63.443,8.653
				C14.154,39.97,11.469,66.716,19.977,96.938c0.225,0.798,1.056,1.262,1.85,1.038c0.798-0.225,1.262-1.053,1.038-1.85
				c-8.214-29.18-5.822-54.801,6.242-66.866c11.173-11.174,33.843-14.111,60.64-7.853c29.601,6.912,58.708,23.524,81.961,46.777
				c49.826,49.826,26.95,72.702-2.012,101.664c-28.961,28.962-51.836,51.838-101.665,2.012
				c-17.789-17.79-31.826-39.229-40.591-62.001c-0.298-0.773-1.167-1.159-1.939-0.861c-0.773,0.298-1.158,1.166-0.861,1.939
				c8.915,23.16,23.186,44.96,41.27,63.044c21.925,21.925,39.045,30.14,53.693,30.14c20.059,0,35.48-15.417,52.213-32.151
				C200.771,143.016,225.776,118.011,173.829,66.064z"/>
		</g>
	</g>
	<g>
		<g>
			
				<ellipse transform="matrix(0.95 -0.3123 0.3123 0.95 -15.7472 22.7087)" class="st6" cx="63.029" cy="60.521" rx="20.692" ry="32.832"/>
		</g>
	</g>
	<g>
		<g>
			<path class="st0" d="M84.112,53.592c-2.826-8.597-7.611-16.001-13.476-20.85c-6.061-5.011-12.569-6.727-18.327-4.835
				s-9.979,7.136-11.884,14.766c-1.844,7.382-1.303,16.183,1.523,24.779c2.826,8.597,7.611,16.001,13.476,20.85
				c4.453,3.682,9.148,5.585,13.609,5.585c1.61,0,3.19-0.249,4.717-0.75c5.758-1.892,9.979-7.136,11.885-14.766
				C87.478,70.988,86.938,62.188,84.112,53.592z M82.724,77.644c-1.647,6.594-5.167,11.083-9.911,12.643
				c-4.745,1.558-10.241,0.033-15.479-4.297C51.9,81.497,47.448,74.58,44.796,66.515c-2.651-8.066-3.17-16.275-1.461-23.115
				c1.647-6.594,5.166-11.083,9.91-12.643c1.213-0.398,2.475-0.596,3.77-0.596c3.769,0,7.811,1.67,11.709,4.893
				c5.434,4.493,9.887,11.409,12.538,19.475C83.913,62.594,84.432,70.803,82.724,77.644z"/>
		</g>
	</g>
	<g>
		<g>
			<path class="st0" d="M77.592,73.268c-2.003-6.247-6.731-11.19-13.311-13.918l-1.027-0.425c-5.728-2.374-9.841-6.636-11.583-12
				c-1.745-5.375-0.916-11.254,2.334-16.557l0.094-0.153c0.433-0.706,0.211-1.629-0.495-2.063c-0.706-0.434-1.629-0.212-2.063,0.495
				L51.447,28.8c-3.716,6.063-4.65,12.829-2.629,19.051c2.017,6.212,6.736,11.129,13.288,13.845l1.027,0.425
				c5.753,2.385,9.873,6.668,11.603,12.063c1.736,5.414,0.867,11.324-2.446,16.643c-0.438,0.703-0.223,1.628,0.48,2.066
				c0.247,0.154,0.521,0.227,0.792,0.227c0.501,0,0.99-0.25,1.274-0.707C78.623,86.334,79.602,79.535,77.592,73.268z"/>
		</g>
	</g>
	<g>
		<g>
			<path class="st6" d="M138.775,59.967c-17.094-6.048-34.042-2.217-37.854,8.556c-3.812,10.774,6.956,24.41,24.05,30.458
				c17.094,6.048,34.042,2.217,37.854-8.556C166.637,79.651,155.869,66.015,138.775,59.967z"/>
		</g>
	</g>
	<g>
		<g>
			<path class="st0" d="M139.275,58.553c-17.846-6.313-35.686-2.066-39.768,9.47c-4.081,11.536,7.117,26.059,24.963,32.373
				c5.607,1.984,11.214,2.925,16.394,2.925c11.305,0,20.575-4.484,23.375-12.395C168.32,79.389,157.122,64.867,139.275,58.553z
				 M161.411,89.924c-3.53,9.977-19.655,13.406-35.939,7.643C109.185,91.805,98.806,79,102.335,69.023
				c2.369-6.694,10.405-10.439,20.358-10.439c4.881,0,10.223,0.901,15.582,2.797C154.562,67.143,164.94,79.948,161.411,89.924z"/>
		</g>
	</g>
	<g>
		<g>
			<path class="st0" d="M164.33,89.624c-2.496-6.713-7.279-11.644-13.468-13.884c-6.171-2.233-12.97-1.513-19.152,2.028
				l-0.963,0.552c-5.381,3.083-11.267,3.732-16.578,1.833c-5.32-1.904-9.467-6.154-11.677-11.97l-0.064-0.167
				c-0.295-0.773-1.164-1.163-1.937-0.866c-0.774,0.296-1.162,1.163-0.866,1.937l0.063,0.166c2.527,6.647,7.31,11.521,13.47,13.726
				c6.15,2.2,12.926,1.472,19.08-2.054l0.963-0.552c5.405-3.096,11.314-3.739,16.64-1.81c5.347,1.935,9.493,6.235,11.677,12.108
				c0.225,0.604,0.798,0.978,1.406,0.978c0.174,0,0.351-0.03,0.522-0.095C164.223,91.264,164.618,90.4,164.33,89.624z"/>
		</g>
	</g>
	<g>
		<g>
			
				<ellipse transform="matrix(0.1531 -0.9882 0.9882 0.1531 -35.6516 249.0404)" class="st6" cx="127.476" cy="145.321" rx="32.832" ry="20.692"/>
		</g>
	</g>
	<g>
		<g>
			<path class="st0" d="M132.733,111.394c-12.085-1.872-24.289,11.821-27.188,30.529c-2.898,18.707,4.581,35.451,16.674,37.325
				c0.743,0.115,1.486,0.171,2.228,0.171c11.328,0,22.238-13.143,24.96-30.7c0,0,0,0,0,0
				C152.306,130.012,144.826,113.268,132.733,111.394z M146.442,148.26L146.442,148.26c-2.646,17.072-13.313,29.642-23.764,28.023
				c-10.457-1.621-16.813-16.829-14.168-33.901c2.492-16.078,12.091-28.164,21.936-28.164c0.608,0,1.219,0.046,1.828,0.141
				C142.732,115.979,149.088,131.188,146.442,148.26z"/>
		</g>
	</g>
	<g>
		<g>
			<path class="st0" d="M129.123,144.845L128.401,144c-4.025-4.716-5.755-10.381-4.871-15.951
				c0.885-5.581,4.293-10.443,9.599-13.692l0.153-0.094c0.706-0.434,0.927-1.357,0.493-2.063c-0.434-0.706-1.361-0.925-2.064-0.492
				l-0.151,0.093c-6.064,3.714-9.968,9.318-10.993,15.779c-1.024,6.451,0.948,12.975,5.552,18.369l0.722,0.845
				c4.043,4.736,5.769,10.424,4.861,16.016c-0.911,5.612-4.369,10.483-9.736,13.718c-0.709,0.428-0.938,1.349-0.51,2.059
				c0.282,0.467,0.777,0.726,1.286,0.726c0.264,0,0.531-0.069,0.773-0.215c6.134-3.696,10.093-9.31,11.148-15.807
				C135.715,156.813,133.747,150.264,129.123,144.845z"/>
		</g>
	</g>
	<g>
		<g>
			
				<ellipse transform="matrix(0.5073 -0.8618 0.8618 0.5073 -66.6387 130.7543)" class="st6" cx="81.033" cy="123.656" rx="32.832" ry="20.692"/>
		</g>
	</g>
	<g>
		<g>
			<path class="st0" d="M106.918,111.027c-0.238-7.86-3.246-13.882-8.469-16.957c-10.541-6.206-26.937,2.013-36.541,18.327
				c-9.604,16.313-8.838,34.636,1.707,40.844c2.387,1.405,5.073,2.071,7.913,2.071c9.705,0,21.199-7.778,28.628-20.398
				C104.748,127.117,107.149,118.633,106.918,111.027z M97.572,133.393c-8.765,14.887-23.316,22.632-32.434,17.264
				c-9.12-5.369-9.409-21.85-0.645-36.737c6.879-11.684,17.319-18.967,25.903-18.967c2.353,0,4.569,0.548,6.532,1.703
				c4.303,2.534,6.786,7.67,6.992,14.463C104.134,118.166,101.879,126.076,97.572,133.393z"/>
		</g>
	</g>
	<g>
		<g>
			<path class="st0" d="M99.12,95.204c-0.142-0.816-0.919-1.363-1.735-1.221l-0.175,0.031c-7.007,1.212-12.705,4.978-16.044,10.604
				c-3.334,5.617-3.911,12.407-1.625,19.12l0.358,1.052c2.007,5.895,1.51,11.818-1.399,16.679
				c-2.919,4.878-7.932,8.128-14.113,9.151c-0.817,0.135-1.371,0.908-1.235,1.725c0.122,0.735,0.757,1.255,1.478,1.255
				c0.081,0,0.164-0.006,0.247-0.02c7.066-1.169,12.818-4.923,16.198-10.57c3.37-5.629,3.961-12.443,1.665-19.187l-0.358-1.052
				c-1.999-5.869-1.514-11.772,1.365-16.622c2.884-4.859,7.848-8.119,13.978-9.179l0.177-0.031
				C98.715,96.797,99.262,96.02,99.12,95.204z"/>
		</g>
	</g>
	<g>
		<g>
			<path class="st8" d="M171.707,68.18c-23.25-23.25-52.36-39.86-81.96-46.77c-9.29-2.17-18.08-3.24-26.07-3.24
				c-2.21,0-4.36,0.08-6.44,0.25c6.09,0.42,12.55,1.42,19.27,2.99c29.6,6.91,58.71,23.52,81.96,46.77
				c49.83,49.83,26.95,72.71-2.01,101.67c-14.66,14.66-27.76,27.76-43.58,30.66c22.23,3.93,38.28-12.12,56.82-30.66
				C198.657,140.89,221.537,118.01,171.707,68.18z"/>
		</g>
	</g>
	<g>
		<g>
			<path class="st8" d="M237.637,212.66c-1.32-8.43-6.72-17.42-16.03-26.74c-13.52-13.52-29.95-21.98-42.13-21.69
				c-0.31,0.32-0.63,0.65-0.95,0.97c10.76,2.57,23.2,10.08,33.84,20.72c8.65,8.65,13.91,17.01,15.67,24.9
				c0.44,1.35,0.66,2.78,0.66,4.23c0,0.2,0,0.4-0.02,0.6c0.01,0.03,0.01,0.06,0,0.09c0.2,6.09-1.97,11.55-6.38,15.95
				c-3.1,3.1-6.72,5.09-10.73,5.93c0.31,0.07,0.63,0.12,0.94,0.17c7.32,1.14,13.9-0.97,19.03-6.1
				C236.667,226.56,238.777,219.98,237.637,212.66z"/>
		</g>
	</g>
</g>
</svg>
