<?xml version="1.0" encoding="utf-8"?>
<!-- Generator: Adobe Illustrator 22.0.1, SVG Export Plug-In . SVG Version: 6.00 Build 0)  -->
<svg version="1.1" id="Layer_2" xmlns="http://www.w3.org/2000/svg" xmlns:xlink="http://www.w3.org/1999/xlink" x="0px" y="0px"
	 viewBox="0 0 256 256" style="enable-background:new 0 0 256 256;" xml:space="preserve">
<style type="text/css">
	.st0{fill:#3A312A;}
	.st1{fill:#D7E057;}
	.st2{fill:#FCE8CB;}
	.st3{fill:#8AC6DD;}
	.st4{fill-rule:evenodd;clip-rule:evenodd;fill:#FCE8CB;}
	.st5{fill:#F5978A;}
	.st6{fill:#87796F;}
	.st7{fill:#F16C7A;}
	.st8{fill:#68A8BC;}
	.st9{fill:#B9BC39;}
	.st10{fill:#CE4E61;}
	.st11{fill:#6B5B51;}
	.st12{fill:#CCAE8B;}
	.st13{fill-rule:evenodd;clip-rule:evenodd;fill:#F16C7A;}
</style>
<g>
	<g>
		<g>
			<path class="st6" d="M123.542,81.938v5.77c0,3.061,2.481,5.542,5.542,5.542h52.875c3.061,0,5.542-2.481,5.542-5.542v-5.77
				H123.542z"/>
		</g>
	</g>
	<g>
		<g>
			<path class="st0" d="M187.5,80.438h-63.958c-0.829,0-1.5,0.671-1.5,1.5v5.771c0,3.883,3.159,7.042,7.042,7.042h52.875
				c3.883,0,7.042-3.159,7.042-7.042v-5.771C189,81.109,188.329,80.438,187.5,80.438z M186,87.708c0,2.229-1.813,4.042-4.042,4.042
				h-52.875c-2.229,0-4.042-1.813-4.042-4.042v-4.271H186V87.708z"/>
		</g>
	</g>
	<g>
		<g>
			<path class="st3" d="M116.717,82h89.307c7.134,0,12.917-5.783,12.917-12.917V40.917c0-7.134-5.783-12.917-12.917-12.917H49.977
				c-7.134,0-12.917,5.783-12.917,12.917V180.7V196.3v30.284c0,7.134,5.783,12.917,12.917,12.917h156.047
				c7.134,0,12.917-5.783,12.917-12.917c0-7.134-5.783-12.917-12.917-12.917h-89.307c-7.134,0-12.917-5.783-12.917-12.917V94.917
				C103.8,87.783,109.583,82,116.717,82z"/>
		</g>
	</g>
	<g>
		<g>
			<path class="st0" d="M116.717,83.5h89.307c7.949,0,14.417-6.467,14.417-14.417V40.917c0-7.949-6.467-14.417-14.417-14.417H49.977
				c-7.949,0-14.417,6.467-14.417,14.417V180.7c0,0.829,0.671,1.5,1.5,1.5c0.829,0,1.5-0.671,1.5-1.5V40.917
				c0-6.295,5.122-11.417,11.417-11.417h156.047c6.295,0,11.417,5.122,11.417,11.417v28.167c0,6.295-5.122,11.417-11.417,11.417
				h-89.307c-7.949,0-14.417,6.467-14.417,14.417V200.75c0,7.949,6.467,14.417,14.417,14.417h89.307
				c6.295,0,11.417,5.122,11.417,11.417c0,6.295-5.122,11.417-11.417,11.417H49.977c-6.295,0-11.417-5.122-11.417-11.417V196.3
				c0-0.829-0.671-1.5-1.5-1.5c-0.829,0-1.5,0.671-1.5,1.5v30.284c0,7.949,6.467,14.417,14.417,14.417h156.047
				c7.949,0,14.417-6.467,14.417-14.417c0-7.95-6.467-14.417-14.417-14.417h-89.307c-6.295,0-11.417-5.122-11.417-11.417V94.917
				C105.3,88.622,110.422,83.5,116.717,83.5z"/>
		</g>
	</g>
	<g>
		<g>
			<path class="st7" d="M195.14,16.5h-33.166h-14.95H60.86c-6.351,0-11.5,5.149-11.5,11.5h157.28
				C206.64,21.649,201.491,16.5,195.14,16.5z"/>
		</g>
	</g>
	<g>
		<g>
			<path class="st0" d="M195.14,15h-33.165c-0.829,0-1.5,0.671-1.5,1.5s0.671,1.5,1.5,1.5h33.165c5.004,0,9.162,3.695,9.888,8.5
				H50.972c0.726-4.805,4.883-8.5,9.888-8.5h86.164c0.829,0,1.5-0.671,1.5-1.5s-0.671-1.5-1.5-1.5H60.86c-7.168,0-13,5.831-13,13
				c0,0.829,0.671,1.5,1.5,1.5h157.28c0.829,0,1.5-0.671,1.5-1.5C208.14,20.831,202.309,15,195.14,15z"/>
		</g>
	</g>
	<g>
		<g>
			<path class="st6" d="M190.917,133.179h-7.322v7.63h7.322c8.215,0,14.903,6.687,14.903,14.913v19.785
				c0,8.215-6.688,14.903-14.903,14.903h-7.322v7.63h7.322c12.422,0,22.533-10.111,22.533-22.533v-19.785
				C213.45,143.29,203.339,133.179,190.917,133.179z"/>
		</g>
	</g>
	<g>
		<g>
			<path class="st0" d="M190.917,131.679h-7.322c-0.829,0-1.5,0.671-1.5,1.5v7.63c0,0.829,0.671,1.5,1.5,1.5h7.322
				c7.39,0,13.403,6.017,13.403,13.413v19.785c0,7.39-6.013,13.403-13.403,13.403h-7.322c-0.829,0-1.5,0.671-1.5,1.5v7.63
				c0,0.829,0.671,1.5,1.5,1.5h7.322c13.252,0,24.033-10.781,24.033-24.033v-19.785C214.95,142.465,204.169,131.679,190.917,131.679
				z M211.95,175.506c0,11.598-9.436,21.033-21.033,21.033h-5.822v-4.63h5.822c9.044,0,16.403-7.358,16.403-16.403v-19.785
				c0-9.05-7.358-16.413-16.403-16.413h-5.822v-4.63h5.822c11.598,0,21.033,9.44,21.033,21.042V175.506z"/>
		</g>
	</g>
	<g>
		<g>
			<path class="st2" d="M128.135,121.845v84.95c0,3.795,3.077,6.872,6.872,6.872h41.718c3.795,0,6.872-3.077,6.872-6.872v-84.95
				H128.135z"/>
		</g>
	</g>
	<g>
		<g>
			<path class="st0" d="M183.597,120.345h-55.462c-0.829,0-1.5,0.671-1.5,1.5v84.95c0,4.616,3.756,8.372,8.372,8.372h41.718
				c4.616,0,8.372-3.755,8.372-8.372v-84.95C185.097,121.016,184.426,120.345,183.597,120.345z M182.097,206.795
				c0,2.962-2.41,5.372-5.372,5.372h-41.718c-2.962,0-5.372-2.41-5.372-5.372v-83.45h52.462V206.795z"/>
		</g>
	</g>
	<g>
		<g>
			<path class="st6" d="M128.135,151.783v55.012c0,3.795,3.077,6.872,6.872,6.872h41.718c3.795,0,6.872-3.077,6.872-6.872v-55.012
				H128.135z"/>
		</g>
	</g>
	<g>
		<g>
			<path class="st0" d="M183.597,150.283h-55.462c-0.829,0-1.5,0.671-1.5,1.5v55.012c0,4.616,3.756,8.372,8.372,8.372h41.718
				c4.616,0,8.372-3.755,8.372-8.372v-55.012C185.097,150.954,184.426,150.283,183.597,150.283z M182.097,206.795
				c0,2.962-2.41,5.372-5.372,5.372h-41.718c-2.962,0-5.372-2.41-5.372-5.372v-53.512h52.462V206.795z"/>
		</g>
	</g>
	<g>
		<g>
			<polygon class="st6" points="115.535,121.845 128.135,133.184 128.135,121.845 			"/>
		</g>
	</g>
	<g>
		<g>
			<path class="st0" d="M128.135,120.345h-12.601c-0.621,0-1.178,0.383-1.4,0.963c-0.223,0.58-0.065,1.237,0.397,1.652l12.6,11.339
				c0.281,0.253,0.64,0.385,1.004,0.385c0.206,0,0.414-0.042,0.61-0.13c0.541-0.241,0.89-0.778,0.89-1.37v-11.339
				C129.635,121.016,128.964,120.345,128.135,120.345z M126.635,129.816l-7.191-6.471h7.191V129.816z"/>
		</g>
	</g>
	<g>
		<g>
			<path class="st7" d="M172.918,111.122h-34.104c-5.899,0-10.681,4.782-10.681,10.681h55.466
				C183.599,115.904,178.817,111.122,172.918,111.122z"/>
		</g>
	</g>
	<g>
		<g>
			<path class="st0" d="M172.918,109.623h-34.104c-6.716,0-12.181,5.464-12.181,12.181c0,0.829,0.671,1.5,1.5,1.5h55.466
				c0.829,0,1.5-0.671,1.5-1.5C185.099,115.087,179.635,109.623,172.918,109.623z M129.756,120.303
				c0.718-4.351,4.507-7.681,9.058-7.681h34.104c4.551,0,8.34,3.33,9.058,7.681H129.756z"/>
		</g>
	</g>
	<g>
		<g>
			<circle class="st6" cx="155.866" cy="104.83" r="6.33"/>
		</g>
	</g>
	<g>
		<g>
			<path class="st0" d="M155.866,97c-4.317,0-7.83,3.512-7.83,7.83s3.512,7.83,7.83,7.83c4.317,0,7.83-3.512,7.83-7.83
				S160.184,97,155.866,97z M155.866,109.659c-2.663,0-4.83-2.167-4.83-4.83s2.167-4.83,4.83-4.83c2.663,0,4.83,2.167,4.83,4.83
				S158.529,109.659,155.866,109.659z"/>
		</g>
	</g>
	<g>
		<g>
			<rect x="152.864" y="133.183" class="st7" width="5.996" height="18.597"/>
		</g>
	</g>
	<g>
		<g>
			<path class="st0" d="M158.86,131.683h-5.996c-0.829,0-1.5,0.671-1.5,1.5v18.597c0,0.829,0.671,1.5,1.5,1.5h5.996
				c0.829,0,1.5-0.671,1.5-1.5v-18.597C160.36,132.354,159.688,131.683,158.86,131.683z M157.36,150.279h-2.996v-15.597h2.996
				V150.279z"/>
		</g>
	</g>
	<g>
		<g>
			<rect x="128.135" y="121.845" class="st6" width="55.462" height="11.339"/>
		</g>
	</g>
	<g>
		<g>
			<path class="st0" d="M183.597,120.345h-55.462c-0.829,0-1.5,0.671-1.5,1.5v11.339c0,0.829,0.671,1.5,1.5,1.5h55.462
				c0.829,0,1.5-0.671,1.5-1.5v-11.339C185.097,121.016,184.426,120.345,183.597,120.345z M182.097,131.684h-52.462v-8.339h52.462
				V131.684z"/>
		</g>
	</g>
	<g>
		<g>
			<path class="st1" d="M63.667,44.5c-4.695,0-8.5,3.806-8.5,8.5v65c0,4.694,3.805,8.5,8.5,8.5c4.694,0,8.5-3.806,8.5-8.5V53
				C72.167,48.306,68.361,44.5,63.667,44.5z"/>
		</g>
	</g>
	<g>
		<g>
			<path class="st0" d="M63.667,43c-5.514,0-10,4.486-10,10v65c0,5.514,4.486,10,10,10c5.514,0,10-4.486,10-10V53
				C73.667,47.486,69.181,43,63.667,43z M70.667,118c0,3.86-3.14,7-7,7c-3.86,0-7-3.14-7-7V53c0-3.86,3.14-7,7-7c3.86,0,7,3.14,7,7
				V118z"/>
		</g>
	</g>
	<g>
		<g>
			<path class="st0" d="M91.667,47.75H79.5c-0.829,0-1.5,0.671-1.5,1.5s0.671,1.5,1.5,1.5h12.167c0.829,0,1.5-0.671,1.5-1.5
				S92.495,47.75,91.667,47.75z"/>
		</g>
	</g>
	<g>
		<g>
			<path class="st0" d="M87.611,58.083H79.5c-0.829,0-1.5,0.671-1.5,1.5s0.671,1.5,1.5,1.5h8.111c0.829,0,1.5-0.671,1.5-1.5
				S88.44,58.083,87.611,58.083z"/>
		</g>
	</g>
	<g>
		<g>
			<path class="st0" d="M91.667,68.417H79.5c-0.829,0-1.5,0.671-1.5,1.5c0,0.829,0.671,1.5,1.5,1.5h12.167
				c0.829,0,1.5-0.671,1.5-1.5C93.167,69.088,92.495,68.417,91.667,68.417z"/>
		</g>
	</g>
	<g>
		<g>
			<path class="st0" d="M87.611,78.75H79.5c-0.829,0-1.5,0.671-1.5,1.5s0.671,1.5,1.5,1.5h8.111c0.829,0,1.5-0.671,1.5-1.5
				S88.44,78.75,87.611,78.75z"/>
		</g>
	</g>
	<g>
		<g>
			<path class="st0" d="M91.667,89.083H79.5c-0.829,0-1.5,0.671-1.5,1.5s0.671,1.5,1.5,1.5h12.167c0.829,0,1.5-0.671,1.5-1.5
				S92.495,89.083,91.667,89.083z"/>
		</g>
	</g>
	<g>
		<g>
			<path class="st0" d="M87.611,99.417H79.5c-0.829,0-1.5,0.671-1.5,1.5c0,0.829,0.671,1.5,1.5,1.5h8.111c0.829,0,1.5-0.671,1.5-1.5
				C89.111,100.088,88.44,99.417,87.611,99.417z"/>
		</g>
	</g>
	<g>
		<g>
			<path class="st0" d="M91.667,109.75H79.5c-0.829,0-1.5,0.671-1.5,1.5s0.671,1.5,1.5,1.5h12.167c0.829,0,1.5-0.671,1.5-1.5
				S92.495,109.75,91.667,109.75z"/>
		</g>
	</g>
	<g>
		<g>
			<path class="st0" d="M87.611,120.083H79.5c-0.829,0-1.5,0.671-1.5,1.5s0.671,1.5,1.5,1.5h8.111c0.829,0,1.5-0.671,1.5-1.5
				S88.44,120.083,87.611,120.083z"/>
		</g>
	</g>
	<g>
		<g>
			<path class="st8" d="M206.02,215.17H192.5c6.3,0,11.42,5.12,11.42,11.41c0,6.3-5.12,11.42-11.42,11.42h13.52
				c6.3,0,11.42-5.12,11.42-11.42C217.44,220.29,212.32,215.17,206.02,215.17z"/>
		</g>
	</g>
	<g>
		<g>
			<path class="st8" d="M206.02,29.5H192.5c6.3,0,11.42,5.12,11.42,11.42v28.16c0,6.3-5.12,11.42-11.42,11.42h13.52
				c6.3,0,11.42-5.12,11.42-11.42V40.92C217.44,34.62,212.32,29.5,206.02,29.5z"/>
		</g>
	</g>
	<g>
		<g>
			<path class="st10" d="M195.14,18h-13.52c5,0,9.16,3.69,9.88,8.5h13.53C204.3,21.69,200.14,18,195.14,18z"/>
		</g>
	</g>
</g>
</svg>
