<?xml version="1.0" encoding="utf-8"?>
<!-- Generator: Adobe Illustrator 22.0.1, SVG Export Plug-In . SVG Version: 6.00 Build 0)  -->
<svg version="1.1" id="Layer_2" xmlns="http://www.w3.org/2000/svg" xmlns:xlink="http://www.w3.org/1999/xlink" x="0px" y="0px"
	 viewBox="0 0 256 256" style="enable-background:new 0 0 256 256;" xml:space="preserve">
<style type="text/css">
	.st0{fill:#3A312A;}
	.st1{fill:#D7E057;}
	.st2{fill:#FCE8CB;}
	.st3{fill:#8AC6DD;}
	.st4{fill-rule:evenodd;clip-rule:evenodd;fill:#FCE8CB;}
	.st5{fill:#F5978A;}
	.st6{fill:#87796F;}
	.st7{fill:#F16C7A;}
	.st8{fill:#68A8BC;}
	.st9{fill:#B9BC39;}
	.st10{fill:#CE4E61;}
	.st11{fill:#6B5B51;}
	.st12{fill:#CCAE8B;}
	.st13{fill-rule:evenodd;clip-rule:evenodd;fill:#F16C7A;}
</style>
<g>
	<g>
		<g>
			<path class="st1" d="M236.98,181.59c-20.444-5.45-88.304-22.578-117.892-18.117c-13.963,2.101-26.473,6.714-36.264,12.825
				c-12.908,8.025-21.113,18.631-21.75,29.488c-0.095,1.595-0.027,3.195,0.211,4.791c3.121,20.737,34.072,33.258,69.115,27.975
				c14.613-2.198,36.582-12.178,57.238-23.069l8.575-4.611c17.825-9.754,33.674-19.466,41.509-24.379
				C240.336,184.855,239.968,182.383,236.98,181.59z"/>
		</g>
	</g>
	<g>
		<g>
			<path class="st0" d="M240.935,183.499c-0.241-1.596-1.542-2.821-3.568-3.358c-20.246-5.397-88.627-22.655-118.502-18.151
				c-13.748,2.069-26.485,6.577-36.833,13.034c-13.624,8.47-21.809,19.65-22.456,30.673c-0.101,1.706-0.026,3.422,0.225,5.103
				c1.592,10.574,9.94,19.421,23.508,24.912c9.076,3.673,19.782,5.555,31.137,5.555c5.284,0,10.711-0.408,16.177-1.232
				c12.687-1.908,32.105-9.722,57.725-23.231l8.585-4.616c18.006-9.854,33.783-19.532,41.585-24.424
				C240.295,186.651,241.176,185.096,240.935,183.499z M236.925,185.222L236.925,185.222c-7.774,4.875-23.495,14.518-41.423,24.329
				l-8.565,4.605c-25.31,13.345-44.408,21.054-56.762,22.912c-16.687,2.517-32.932,1.048-45.742-4.137
				c-12.544-5.077-20.239-13.095-21.666-22.576c-0.219-1.474-0.286-2.981-0.196-4.482c0.588-10.038,8.259-20.354,21.046-28.303
				c10.005-6.244,22.348-10.606,35.694-12.614c3.29-0.496,7.059-0.72,11.198-0.72c32.737,0,88.237,14.045,106.085,18.803
				c0.885,0.235,1.332,0.635,1.373,0.908C238.009,184.221,237.701,184.736,236.925,185.222z"/>
		</g>
	</g>
	<g>
		<g>
			<path class="st0" d="M240.563,183.561c-0.124-0.819-0.886-1.38-1.707-1.26c-19.19,2.89-138.2,20.82-195.962,29.529l-0.107,0.019
				c-0.775,0.058-1.387,0.706-1.387,1.496c0,0.829,0.671,1.5,1.5,1.5c0.141,0,0.283-0.018,0.434-0.047
				c57.769-8.71,176.78-26.64,195.969-29.53C240.122,185.145,240.685,184.381,240.563,183.561z"/>
		</g>
	</g>
	<g>
		<g>
			<path class="st0" d="M204.73,200.088l-22.391-9.061c-0.766-0.31-1.642,0.061-1.953,0.828c-0.311,0.768,0.06,1.642,0.828,1.953
				l22.391,9.061c0.184,0.074,0.375,0.11,0.562,0.11c0.593,0,1.155-0.354,1.391-0.938
				C205.869,201.274,205.498,200.399,204.73,200.088z"/>
		</g>
	</g>
	<g>
		<g>
			<path class="st0" d="M176.006,213.804l-39.292-15.9c-0.765-0.31-1.642,0.06-1.953,0.828c-0.31,0.768,0.06,1.642,0.828,1.953
				l39.292,15.9c0.184,0.074,0.375,0.11,0.562,0.11c0.593,0,1.155-0.354,1.391-0.938
				C177.145,214.99,176.774,214.115,176.006,213.804z"/>
		</g>
	</g>
	<g>
		<g>
			<path class="st0" d="M141.948,229.929l-59.083-23.909c-0.767-0.309-1.642,0.061-1.953,0.828c-0.31,0.768,0.06,1.642,0.828,1.953
				l59.083,23.909c0.184,0.074,0.374,0.11,0.562,0.11c0.593,0,1.155-0.354,1.391-0.938
				C143.086,231.114,142.716,230.24,141.948,229.929z"/>
		</g>
	</g>
	<g>
		<g>
			<path class="st0" d="M201.671,176.251c-0.525-0.642-1.468-0.739-2.111-0.215l-18.725,15.258
				c-0.642,0.523-0.738,1.468-0.215,2.111c0.297,0.364,0.728,0.552,1.164,0.552c0.333,0,0.668-0.11,0.947-0.337l18.725-15.258
				C202.098,177.839,202.194,176.894,201.671,176.251z"/>
		</g>
	</g>
	<g>
		<g>
			<path class="st0" d="M170.181,171.611c-0.524-0.643-1.47-0.739-2.11-0.216l-32.86,26.775c-0.643,0.523-0.739,1.468-0.216,2.11
				c0.297,0.364,0.729,0.553,1.164,0.553c0.333,0,0.669-0.11,0.946-0.337l32.86-26.775
				C170.607,173.198,170.704,172.253,170.181,171.611z"/>
		</g>
	</g>
	<g>
		<g>
			<path class="st0" d="M132.883,166.241c-0.524-0.643-1.468-0.738-2.111-0.215l-49.411,40.261c-0.642,0.523-0.738,1.468-0.215,2.11
				c0.297,0.364,0.729,0.553,1.164,0.553c0.333,0,0.668-0.11,0.947-0.337l49.411-40.261
				C133.31,167.828,133.406,166.883,132.883,166.241z"/>
		</g>
	</g>
	<g>
		<g>
			<path class="st1" d="M74.698,18.731c-0.793-2.987-3.265-3.356-4.903-0.741c-4.913,7.835-14.624,23.684-24.379,41.509l-4.61,8.575
				c-3.56,6.752-7.016,13.64-10.141,20.37l-6.233,14.406c-3.321,8.399-5.742,16.124-6.695,22.463
				c-5.284,35.043,7.238,65.994,27.975,69.115c1.596,0.238,3.196,0.305,4.791,0.211c10.857-0.637,21.463-8.842,29.488-21.75
				c6.11-9.791,10.724-22.302,12.825-36.264C97.276,107.036,80.148,39.175,74.698,18.731z"/>
		</g>
	</g>
	<g>
		<g>
			<path class="st0" d="M76.148,18.347c-0.538-2.027-1.762-3.328-3.358-3.57c-1.597-0.241-3.152,0.64-4.266,2.417
				c-4.894,7.806-14.575,23.588-24.429,41.596l-4.616,8.585c-3.805,7.217-7.228,14.093-10.174,20.438
				c-0.349,0.751-0.023,1.644,0.729,1.992c0.752,0.351,1.643,0.022,1.992-0.729c2.925-6.299,6.326-13.129,10.102-20.291l4.605-8.565
				c9.812-17.93,19.458-33.655,24.334-41.433c0.487-0.776,1.001-1.084,1.275-1.043c0.272,0.042,0.673,0.489,0.908,1.375
				C78.608,39.222,95.75,107.094,91.332,136.4c-2.008,13.346-6.37,25.688-12.616,35.695c-7.948,12.786-18.264,20.456-28.303,21.044
				c-1.498,0.09-3.006,0.023-4.478-0.196c-9.483-1.427-17.501-9.122-22.578-21.666c-5.184-12.81-6.653-29.054-4.137-45.742
				c0.874-5.81,3.097-13.257,6.607-22.134c0.305-0.771-0.073-1.642-0.843-1.947c-0.771-0.303-1.642,0.073-1.947,0.843
				c-3.593,9.089-5.876,16.757-6.784,22.791c-2.595,17.211-1.06,34.014,4.323,47.314c5.491,13.567,14.338,21.916,24.915,23.507
				c1.196,0.179,2.412,0.268,3.629,0.268c0.49,0,0.98-0.015,1.47-0.043c11.024-0.647,22.204-8.832,30.672-22.453
				c6.459-10.35,10.967-23.087,13.036-36.835C98.803,106.969,81.544,38.59,76.148,18.347z"/>
		</g>
	</g>
	<g>
		<g>
			<path class="st0" d="M72.733,15.146c-0.814-0.126-1.583,0.44-1.708,1.259c-2.91,19.25-20.94,138.881-29.613,196.477l-0.03,0.211
				c-0.114,0.821,0.459,1.578,1.279,1.692c0.07,0.01,0.14,0.014,0.208,0.014c0.737,0,1.379-0.543,1.484-1.293l0.027-0.194
				c8.67-57.579,26.7-177.209,29.61-196.459C74.116,16.034,73.553,15.269,72.733,15.146z"/>
		</g>
	</g>
	<g>
		<g>
			<path class="st0" d="M65.261,73.372L56.2,50.981c-0.311-0.769-1.187-1.138-1.953-0.828c-0.768,0.311-1.139,1.186-0.828,1.953
				l9.061,22.391c0.236,0.584,0.798,0.938,1.391,0.938c0.188,0,0.378-0.036,0.562-0.11C65.201,75.014,65.572,74.139,65.261,73.372z"
				/>
		</g>
	</g>
	<g>
		<g>
			<path class="st0" d="M58.385,118.998L42.484,79.706c-0.311-0.769-1.187-1.137-1.953-0.828c-0.768,0.311-1.139,1.186-0.828,1.953
				l15.901,39.292c0.236,0.584,0.798,0.938,1.391,0.938c0.188,0,0.378-0.036,0.562-0.11
				C58.325,120.64,58.695,119.765,58.385,118.998z"/>
		</g>
	</g>
	<g>
		<g>
			<path class="st0" d="M50.269,172.846l-23.909-59.083c-0.311-0.769-1.186-1.137-1.953-0.828c-0.768,0.311-1.139,1.186-0.828,1.953
				l23.909,59.083c0.236,0.584,0.798,0.938,1.391,0.938c0.188,0,0.378-0.036,0.562-0.11
				C50.208,174.488,50.579,173.614,50.269,172.846z"/>
		</g>
	</g>
	<g>
		<g>
			<path class="st0" d="M80.037,54.04c-0.642-0.522-1.586-0.427-2.11,0.216L62.669,72.981c-0.523,0.642-0.427,1.587,0.216,2.11
				c0.278,0.227,0.613,0.337,0.946,0.337c0.436,0,0.867-0.189,1.164-0.553L80.252,56.15C80.775,55.508,80.679,54.563,80.037,54.04z"
				/>
		</g>
	</g>
	<g>
		<g>
			<path class="st0" d="M84.677,85.531c-0.642-0.523-1.586-0.427-2.11,0.216l-26.775,32.86c-0.523,0.642-0.427,1.587,0.216,2.11
				c0.278,0.227,0.613,0.337,0.946,0.337c0.435,0,0.867-0.189,1.164-0.553l26.775-32.86C85.416,86.999,85.32,86.054,84.677,85.531z"
				/>
		</g>
	</g>
	<g>
		<g>
			<path class="st0" d="M90.048,122.829c-0.643-0.523-1.588-0.427-2.11,0.215l-40.261,49.411c-0.523,0.643-0.427,1.587,0.215,2.111
				c0.279,0.227,0.614,0.337,0.947,0.337c0.435,0,0.867-0.188,1.164-0.552l40.262-49.411
				C90.786,124.297,90.69,123.352,90.048,122.829z"/>
		</g>
	</g>
	<g>
		<g>
			<path class="st1" d="M131.192,25.941c-0.974,11.564-13.025,13.389-13.025,13.389c10.347,0.487,12.925,14.059,12.925,14.059
				c0.221-9.677,13.321-14.202,13.321-14.202C134.6,38.601,131.192,25.941,131.192,25.941z"/>
		</g>
	</g>
	<g>
		<g>
			<path class="st0" d="M144.503,37.69c-8.605-0.515-11.832-12.024-11.864-12.141c-0.191-0.703-0.865-1.168-1.583-1.102
				c-0.725,0.066-1.298,0.642-1.359,1.367c-0.86,10.215-11.313,11.964-11.754,12.033c-0.763,0.115-1.313,0.79-1.273,1.561
				c0.04,0.77,0.657,1.384,1.428,1.421c9.028,0.425,11.499,12.718,11.522,12.842c0.137,0.711,0.759,1.217,1.472,1.217
				c0.042,0,0.084-0.001,0.126-0.005c0.764-0.064,1.357-0.693,1.375-1.46c0.194-8.509,12.191-12.777,12.313-12.819
				c0.675-0.235,1.092-0.914,0.994-1.623C145.801,38.274,145.217,37.733,144.503,37.69z M130.938,48.036
				c-1.357-3.13-3.709-6.907-7.587-8.876c2.931-1.405,6.409-3.913,8.202-8.273c1.551,3.071,4.2,6.88,8.334,8.723
				C136.879,41.25,132.964,44.015,130.938,48.036z"/>
		</g>
	</g>
	<g>
		<g>
			<path class="st1" d="M109.493,42.922c-0.689,8.179-9.213,9.471-9.213,9.471c7.318,0.344,9.142,9.944,9.142,9.944
				c0.156-6.844,9.422-10.045,9.422-10.045C111.904,51.876,109.493,42.922,109.493,42.922z"/>
		</g>
	</g>
	<g>
		<g>
			<path class="st0" d="M118.935,50.794c-5.766-0.345-7.972-8.185-7.994-8.265c-0.19-0.702-0.85-1.17-1.582-1.102
				c-0.726,0.065-1.299,0.642-1.36,1.368c-0.579,6.871-7.646,8.067-7.942,8.114c-0.763,0.115-1.313,0.79-1.273,1.561
				c0.04,0.77,0.657,1.384,1.428,1.421c6.035,0.284,7.723,8.644,7.739,8.726c0.135,0.712,0.759,1.22,1.473,1.22
				c0.041,0,0.083-0.001,0.125-0.005c0.765-0.063,1.358-0.694,1.376-1.461c0.13-5.709,8.331-8.633,8.412-8.661
				c0.676-0.234,1.094-0.913,0.996-1.622C120.233,51.378,119.649,50.837,118.935,50.794z M109.35,57.589
				c-0.924-1.886-2.34-3.947-4.447-5.28c1.856-1.041,3.697-2.63,4.871-4.916c1.057,1.874,2.654,3.954,4.941,5.224
				C112.865,53.717,110.726,55.356,109.35,57.589z"/>
		</g>
	</g>
	<g>
		<g>
			<path class="st1" d="M109.493,16.264c-0.689,8.179-9.213,9.471-9.213,9.471c7.318,0.344,9.142,9.944,9.142,9.944
				c0.156-6.845,9.422-10.045,9.422-10.045C111.904,25.218,109.493,16.264,109.493,16.264z"/>
		</g>
	</g>
	<g>
		<g>
			<path class="st0" d="M118.935,24.136c-5.766-0.345-7.972-8.185-7.994-8.265c-0.19-0.702-0.85-1.17-1.582-1.102
				c-0.726,0.065-1.299,0.642-1.36,1.368c-0.579,6.871-7.646,8.067-7.942,8.114c-0.763,0.115-1.313,0.79-1.273,1.56
				c0.04,0.77,0.657,1.384,1.427,1.421c6.035,0.284,7.724,8.644,7.739,8.726c0.135,0.712,0.759,1.22,1.472,1.22
				c0.042,0,0.083-0.002,0.125-0.005c0.765-0.063,1.358-0.694,1.376-1.461c0.13-5.709,8.331-8.634,8.412-8.662
				c0.676-0.234,1.094-0.913,0.996-1.622C120.233,24.721,119.649,24.179,118.935,24.136z M109.35,30.932
				c-0.924-1.886-2.34-3.947-4.447-5.28c1.856-1.041,3.697-2.63,4.871-4.916c1.057,1.873,2.654,3.954,4.941,5.224
				C112.865,27.06,110.726,28.699,109.35,30.932z"/>
		</g>
	</g>
	<g>
		<g>
			<path class="st7" d="M199.537,56.607c-4.216-4.216-13.253-2.016-20.183,4.915c-6.931,6.931-9.131,15.967-4.915,20.183
				c4.216,4.216,13.253,2.016,20.183-4.915C201.553,69.86,203.754,60.823,199.537,56.607z"/>
		</g>
	</g>
	<g>
		<g>
			<path class="st0" d="M200.598,55.546c-4.874-4.875-14.672-2.717-22.304,4.914c-3.544,3.544-6.042,7.74-7.034,11.815
				c-1.057,4.34-0.304,8.065,2.12,10.489c1.707,1.708,4.061,2.586,6.822,2.586c1.157,0,2.385-0.154,3.667-0.466
				c4.075-0.992,8.271-3.49,11.815-7.034c3.544-3.544,6.042-7.74,7.034-11.815C203.774,61.695,203.021,57.97,200.598,55.546z
				 M193.562,75.73c-6.228,6.227-14.5,8.477-18.062,4.914c-3.564-3.563-1.313-11.835,4.915-18.063
				c4.217-4.216,9.37-6.609,13.364-6.609c1.905,0,3.547,0.544,4.698,1.695C202.04,61.231,199.789,69.502,193.562,75.73z"/>
		</g>
	</g>
	<g>
		<g>
			<path class="st7" d="M193.143,75.823c-9.801,0-17.747,4.834-17.747,10.797c0,5.963,7.946,10.797,17.747,10.797
				c9.801,0,17.747-4.834,17.747-10.797C210.891,80.657,202.945,75.823,193.143,75.823z"/>
		</g>
	</g>
	<g>
		<g>
			<path class="st0" d="M193.144,74.323c-10.793,0-19.247,5.401-19.247,12.297s8.454,12.297,19.247,12.297
				c10.793,0,19.247-5.401,19.247-12.297S203.936,74.323,193.144,74.323z M193.144,95.917c-8.807,0-16.247-4.257-16.247-9.297
				c0-5.039,7.44-9.297,16.247-9.297c8.807,0,16.247,4.257,16.247,9.297C209.391,91.659,201.95,95.917,193.144,95.917z"/>
		</g>
	</g>
	<g>
		<g>
			<path class="st7" d="M169.548,45.278c-5.963,0-10.797,7.945-10.797,17.747c0,9.802,4.834,17.747,10.797,17.747
				c5.963,0,10.797-7.945,10.797-17.747C180.345,53.223,175.511,45.278,169.548,45.278z"/>
		</g>
	</g>
	<g>
		<g>
			<path class="st0" d="M169.548,43.778c-6.895,0-12.296,8.454-12.296,19.247c0,10.793,5.401,19.247,12.296,19.247
				c6.896,0,12.297-8.454,12.297-19.247C181.845,52.232,176.444,43.778,169.548,43.778z M169.548,79.271
				c-5.039,0-9.296-7.44-9.296-16.247s4.257-16.247,9.296-16.247c5.04,0,9.297,7.44,9.297,16.247
				C178.845,71.831,174.588,79.271,169.548,79.271z"/>
		</g>
	</g>
	<g>
		<g>
			<path class="st7" d="M175.25,80.894c-4.216-4.216-13.253-2.016-20.183,4.915c-6.931,6.931-9.131,15.967-4.915,20.184
				c4.216,4.216,13.253,2.016,20.183-4.915C177.266,94.147,179.467,85.11,175.25,80.894z"/>
		</g>
	</g>
	<g>
		<g>
			<path class="st0" d="M176.311,79.833c-2.423-2.423-6.148-3.177-10.489-2.12c-4.076,0.993-8.271,3.491-11.815,7.035
				c-7.632,7.631-9.79,17.429-4.915,22.305c1.708,1.708,4.062,2.586,6.822,2.586c1.157,0,2.386-0.154,3.668-0.466
				c4.076-0.993,8.272-3.491,11.815-7.035c3.544-3.544,6.042-7.74,7.034-11.815C179.488,85.982,178.735,82.257,176.311,79.833z
				 M169.275,100.017c-6.227,6.227-14.498,8.478-18.063,4.915c-3.563-3.563-1.312-11.835,4.915-18.063
				c3.16-3.16,6.855-5.376,10.404-6.241c1.044-0.254,2.032-0.38,2.947-0.38c1.959,0,3.583,0.578,4.711,1.706
				C177.753,85.518,175.502,93.789,169.275,100.017z"/>
		</g>
	</g>
	<g>
		<g>
			<ellipse class="st7" cx="168.857" cy="110.906" rx="17.747" ry="10.797"/>
		</g>
	</g>
	<g>
		<g>
			<path class="st0" d="M168.856,98.61c-10.792,0-19.247,5.401-19.247,12.296c0,6.895,8.454,12.297,19.247,12.297
				c10.793,0,19.247-5.401,19.247-12.297C188.104,104.011,179.649,98.61,168.856,98.61z M168.857,120.203
				c-8.807,0-16.247-4.257-16.247-9.297c0-5.039,7.44-9.296,16.247-9.296c8.807,0,16.247,4.257,16.247,9.296
				C185.104,115.946,177.664,120.203,168.857,120.203z"/>
		</g>
	</g>
	<g>
		<g>
			<path class="st7" d="M145.262,69.565c-4.462,0-8.29,4.45-9.936,10.796l-0.071,13.598c1.601,6.505,5.475,11.1,10.006,11.1
				c5.963,0,10.797-7.945,10.797-17.747C156.058,77.51,151.224,69.565,145.262,69.565z"/>
		</g>
	</g>
	<g>
		<g>
			<path class="st0" d="M145.262,68.065c-5.04,0-9.51,4.679-11.388,11.919c-0.208,0.802,0.274,1.621,1.076,1.829
				c0.804,0.208,1.621-0.273,1.829-1.076c1.5-5.785,4.909-9.672,8.483-9.672c5.039,0,9.296,7.44,9.296,16.247
				c0,8.807-4.257,16.247-9.296,16.247c-3.648,0-7.084-4.002-8.55-9.959c-0.198-0.805-1.011-1.297-1.815-1.098
				c-0.805,0.198-1.296,1.011-1.098,1.815c1.83,7.437,6.33,12.242,11.463,12.242c6.895,0,12.296-8.454,12.296-19.247
				C157.558,76.519,152.157,68.065,145.262,68.065z"/>
		</g>
	</g>
	<g>
		<g>
			<path class="st7" d="M150.964,105.181c-4.216-4.216-13.253-2.016-20.183,4.915c-6.931,6.93-9.131,15.967-4.915,20.183
				c4.216,4.216,13.253,2.016,20.183-4.915C152.98,118.433,155.18,109.397,150.964,105.181z"/>
		</g>
	</g>
	<g>
		<g>
			<path class="st0" d="M152.024,104.12c-2.423-2.424-6.149-3.177-10.489-2.12c-4.076,0.992-8.272,3.49-11.816,7.034
				c-3.544,3.543-6.042,7.74-7.034,11.815c-1.057,4.34-0.304,8.065,2.12,10.489c1.708,1.708,4.062,2.586,6.822,2.586
				c1.157,0,2.386-0.154,3.667-0.466c4.076-0.993,8.272-3.491,11.815-7.035c3.544-3.543,6.042-7.739,7.035-11.815
				C155.201,110.269,154.448,106.544,152.024,104.12z M151.229,113.899c-0.864,3.549-3.081,7.244-6.241,10.404
				c-3.16,3.16-6.855,5.377-10.404,6.241c-3.283,0.798-6.003,0.328-7.658-1.326c-3.563-3.563-1.313-11.835,4.915-18.063
				c4.217-4.217,9.37-6.609,13.365-6.609c1.905,0,3.547,0.544,4.698,1.695C151.558,107.896,152.029,110.616,151.229,113.899z"/>
		</g>
	</g>
	<g>
		<g>
			<path class="st7" d="M144.57,124.397c-9.801,0-17.747,4.834-17.747,10.797c0,5.963,7.946,10.797,17.747,10.797
				c9.801,0,17.747-4.834,17.747-10.797C162.317,129.23,154.371,124.397,144.57,124.397z"/>
		</g>
	</g>
	<g>
		<g>
			<path class="st0" d="M144.57,122.896c-10.793,0-19.247,5.401-19.247,12.297c0,6.895,8.454,12.296,19.247,12.296
				c10.793,0,19.247-5.401,19.247-12.296C163.817,128.298,155.363,122.896,144.57,122.896z M144.57,144.49
				c-8.807,0-16.247-4.257-16.247-9.296c0-5.04,7.44-9.297,16.247-9.297c8.807,0,16.247,4.257,16.247,9.297
				C160.817,140.232,153.376,144.49,144.57,144.49z"/>
		</g>
	</g>
	<g>
		<g>
			<path class="st7" d="M120.975,93.852c-5.963,0-10.797,7.945-10.797,17.747c0,9.801,4.834,17.747,10.797,17.747
				c5.963,0,10.797-7.946,10.797-17.747C131.771,101.797,126.938,93.851,120.975,93.852z"/>
		</g>
	</g>
	<g>
		<g>
			<path class="st0" d="M129.891,98.269c-2.322-3.816-5.488-5.918-8.915-5.918c-6.896,0-12.297,8.454-12.297,19.247
				c0,10.793,5.401,19.247,12.297,19.247c6.895,0,12.296-8.454,12.296-19.247C133.271,106.587,132.071,101.853,129.891,98.269z
				 M120.975,127.845c-5.04,0-9.297-7.44-9.297-16.247c0-8.807,4.257-16.247,9.297-16.247c2.34,0,4.596,1.59,6.352,4.477
				c1.898,3.121,2.944,7.3,2.944,11.769C130.271,120.405,126.014,127.845,120.975,127.845z"/>
		</g>
	</g>
	<g>
		<g>
			<path class="st7" d="M126.677,129.468c-4.216-4.216-13.253-2.016-20.183,4.915c-6.931,6.931-9.131,15.967-4.915,20.183
				c4.216,4.216,13.253,2.016,20.183-4.915C128.693,142.72,130.893,133.684,126.677,129.468z"/>
		</g>
	</g>
	<g>
		<g>
			<path class="st0" d="M127.737,128.407c-2.423-2.424-6.15-3.176-10.489-2.12c-4.076,0.993-8.271,3.491-11.815,7.035
				c-3.544,3.543-6.042,7.74-7.035,11.815c-1.057,4.341-0.304,8.066,2.12,10.489c1.707,1.708,4.061,2.586,6.822,2.586
				c1.157,0,2.385-0.154,3.668-0.466c4.075-0.992,8.271-3.49,11.815-7.034c3.544-3.543,6.042-7.74,7.034-11.815
				C130.914,134.556,130.161,130.831,127.737,128.407z M120.702,148.59c-6.228,6.227-14.5,8.477-18.062,4.915
				c-1.655-1.655-2.126-4.375-1.326-7.658c0.864-3.549,3.081-7.243,6.241-10.404c3.16-3.16,6.855-5.376,10.404-6.241
				c1.044-0.254,2.032-0.38,2.946-0.38c1.959,0,3.583,0.578,4.712,1.706C129.179,134.092,126.929,142.363,120.702,148.59z"/>
		</g>
	</g>
	<g>
		<g>
			<ellipse class="st7" cx="120.283" cy="159.48" rx="17.747" ry="10.797"/>
		</g>
	</g>
	<g>
		<g>
			<path class="st0" d="M120.283,147.184c-10.793,0-19.247,5.401-19.247,12.296c0,6.896,8.454,12.297,19.247,12.297
				c10.792,0,19.247-5.401,19.247-12.297C139.53,152.585,131.076,147.184,120.283,147.184z M120.283,168.777
				c-8.807,0-16.247-4.257-16.247-9.297c0-5.039,7.44-9.296,16.247-9.296c8.807,0,16.247,4.257,16.247,9.296
				C136.53,164.519,129.09,168.777,120.283,168.777z"/>
		</g>
	</g>
	<g>
		<g>
			<path class="st7" d="M96.688,118.138c-5.963,0-10.797,7.945-10.797,17.747c0,9.801,4.834,17.747,10.797,17.747
				c5.963,0,10.797-7.946,10.797-17.747S102.651,118.138,96.688,118.138z"/>
		</g>
	</g>
	<g>
		<g>
			<path class="st0" d="M96.688,116.638c-6.895,0-12.297,8.454-12.297,19.247c0,10.793,5.401,19.247,12.297,19.247
				c6.895,0,12.296-8.454,12.296-19.247C108.985,125.092,103.583,116.638,96.688,116.638z M96.688,152.132
				c-5.04,0-9.297-7.44-9.297-16.247c0-8.807,4.257-16.247,9.297-16.247c5.039,0,9.296,7.44,9.296,16.247
				C105.985,144.692,101.727,152.132,96.688,152.132z"/>
		</g>
	</g>
	<g>
		<g>
			
				<ellipse transform="matrix(0.7071 -0.7071 0.7071 0.7071 -91.2803 112.2363)" class="st7" cx="89.841" cy="166.303" rx="17.747" ry="10.797"/>
		</g>
	</g>
	<g>
		<g>
			<path class="st0" d="M103.451,152.694c-2.423-2.424-6.148-3.176-10.489-2.12c-4.076,0.992-8.272,3.49-11.815,7.034
				c-7.631,7.632-9.79,17.429-4.915,22.304c1.708,1.708,4.062,2.586,6.822,2.586c1.157,0,2.385-0.154,3.667-0.466
				c4.076-0.992,8.272-3.49,11.815-7.034c3.544-3.543,6.042-7.739,7.034-11.815C106.627,158.843,105.875,155.118,103.451,152.694z
				 M102.656,162.473c-0.864,3.549-3.081,7.244-6.241,10.404c-6.228,6.227-14.498,8.478-18.063,4.914
				c-3.563-3.563-1.313-11.835,4.915-18.062c4.217-4.217,9.37-6.609,13.365-6.609c1.905,0,3.547,0.545,4.698,1.695
				C102.984,156.47,103.455,159.19,102.656,162.473z"/>
		</g>
	</g>
	<g>
		<g>
			<ellipse class="st7" cx="95.996" cy="183.767" rx="17.747" ry="10.797"/>
		</g>
	</g>
	<g>
		<g>
			<path class="st0" d="M95.997,171.47c-10.793,0-19.247,5.401-19.247,12.297c0,6.895,8.454,12.296,19.247,12.296
				c10.792,0,19.247-5.401,19.247-12.296C115.243,176.872,106.789,171.47,95.997,171.47z M95.997,193.063
				c-8.807,0-16.247-4.257-16.247-9.296c0-5.04,7.44-9.297,16.247-9.297c8.807,0,16.247,4.257,16.247,9.297
				C112.243,188.806,104.803,193.063,95.997,193.063z"/>
		</g>
	</g>
	<g>
		<g>
			<ellipse class="st7" cx="72.401" cy="160.172" rx="10.797" ry="17.747"/>
		</g>
	</g>
	<g>
		<g>
			<path class="st0" d="M72.401,140.925c-6.895,0-12.297,8.454-12.297,19.247c0,10.793,5.401,19.247,12.297,19.247
				c6.896,0,12.297-8.454,12.297-19.247C84.698,149.379,79.297,140.925,72.401,140.925z M72.401,176.419
				c-5.04,0-9.297-7.44-9.297-16.247c0-8.807,4.257-16.247,9.297-16.247s9.297,7.44,9.297,16.247
				C81.698,168.978,77.441,176.419,72.401,176.419z"/>
		</g>
	</g>
	<g>
		<g>
			<path class="st0" d="M78.365,177.804c-0.586-0.586-1.535-0.586-2.121,0l-60.025,60.025c-0.586,0.585-0.586,1.536,0,2.121
				c0.293,0.293,0.677,0.439,1.06,0.439s0.768-0.146,1.06-0.439l60.025-60.025C78.951,179.339,78.951,178.389,78.365,177.804z"/>
		</g>
	</g>
	<g>
		<g>
			<path class="st10" d="M198.477,57.667c-1.15-1.15-2.79-1.69-4.7-1.69c-1.06,0-2.2,0.17-3.38,0.5c3.27,4.4,1.98,11.76-3.02,18.3
				c0.09,0.02,0.17,0.03,0.26,0.05c1.74-0.33,3.59-0.5,5.51-0.5c0.56,0,1.12,0.02,1.67,0.05
				C200.077,68.347,201.787,60.977,198.477,57.667z"/>
		</g>
	</g>
	<g>
		<g>
			<path class="st10" d="M170.677,101.667c3.97,2.24,6.43,5.52,6.43,9.24c0,3.71-2.46,7-6.41,9.23c7.98-0.54,14.41-4.55,14.41-9.23
				C185.107,106.217,178.667,102.207,170.677,101.667z"/>
		</g>
	</g>
	<g>
		<g>
			<path class="st10" d="M146.397,125.957c3.96,2.24,6.42,5.52,6.42,9.24c0,3.71-2.45,6.99-6.41,9.23
				c7.98-0.54,14.41-4.54,14.41-9.23C160.817,130.507,154.377,126.497,146.397,125.957z"/>
		</g>
	</g>
	<g>
		<g>
			<path class="st10" d="M122.107,150.247c3.96,2.24,6.42,5.51,6.42,9.23c0,3.72-2.45,7-6.4,9.23c7.97-0.54,14.4-4.55,14.4-9.23
				C136.527,154.787,130.087,150.787,122.107,150.247z"/>
		</g>
	</g>
	<g>
		<g>
			<path class="st10" d="M97.818,174.527c3.97,2.24,6.43,5.52,6.43,9.24c0,3.71-2.46,7-6.41,9.23c7.98-0.54,14.41-4.55,14.41-9.23
				C112.247,179.077,105.807,175.068,97.818,174.527z"/>
		</g>
	</g>
	<g>
		<g>
			<path class="st10" d="M193.139,77.319c-1.08,0-2.15,0.06-3.18,0.2c7.3,0.89,12.98,4.7,12.98,9.1c0,4.41-5.69,8.22-13,9.11
				c1.04,0.12,2.11,0.19,3.2,0.19c8.81,0,16.25-4.26,16.25-9.3S201.949,77.319,193.139,77.319z"/>
		</g>
	</g>
</g>
</svg>
