<?xml version="1.0" encoding="utf-8"?>
<!-- Generator: Adobe Illustrator 22.0.1, SVG Export Plug-In . SVG Version: 6.00 Build 0)  -->
<svg version="1.1" id="Layer_2" xmlns="http://www.w3.org/2000/svg" xmlns:xlink="http://www.w3.org/1999/xlink" x="0px" y="0px"
	 viewBox="0 0 256 256" style="enable-background:new 0 0 256 256;" xml:space="preserve">
<style type="text/css">
	.st0{fill:#3A312A;}
	.st1{fill:#D7E057;}
	.st2{fill:#FCE8CB;}
	.st3{fill:#8AC6DD;}
	.st4{fill-rule:evenodd;clip-rule:evenodd;fill:#FCE8CB;}
	.st5{fill:#F5978A;}
	.st6{fill:#87796F;}
	.st7{fill:#F16C7A;}
	.st8{fill:#68A8BC;}
	.st9{fill:#B9BC39;}
	.st10{fill:#CE4E61;}
	.st11{fill:#6B5B51;}
	.st12{fill:#CCAE8B;}
	.st13{fill-rule:evenodd;clip-rule:evenodd;fill:#F16C7A;}
</style>
<g>
	<g>
		<g>
			<path class="st1" d="M46.093,26.204c-0.974,11.564-13.024,13.39-13.024,13.39c10.347,0.487,12.925,14.059,12.925,14.059
				c0.221-9.677,13.321-14.202,13.321-14.202C49.502,38.863,46.093,26.204,46.093,26.204z"/>
		</g>
	</g>
	<g>
		<g>
			<path class="st0" d="M59.405,37.953c-8.604-0.515-11.832-12.024-11.863-12.141c-0.19-0.702-0.848-1.164-1.584-1.102
				c-0.725,0.066-1.298,0.642-1.359,1.367c-0.86,10.215-11.313,11.964-11.755,12.033c-0.763,0.115-1.313,0.79-1.273,1.56
				c0.04,0.77,0.657,1.384,1.428,1.421c9.028,0.425,11.499,12.718,11.522,12.842c0.138,0.711,0.76,1.217,1.473,1.217
				c0.042,0,0.084-0.001,0.126-0.005c0.765-0.064,1.357-0.693,1.375-1.46c0.193-8.509,12.191-12.777,12.313-12.819
				c0.676-0.235,1.092-0.914,0.994-1.623C60.703,38.537,60.119,37.996,59.405,37.953z M45.839,48.298
				c-1.356-3.13-3.709-6.907-7.587-8.876c2.931-1.404,6.409-3.913,8.202-8.273c1.551,3.071,4.199,6.88,8.334,8.723
				C51.78,41.511,47.865,44.277,45.839,48.298z"/>
		</g>
	</g>
	<g>
		<g>
			<path class="st1" d="M24.395,43.184c-0.689,8.179-9.213,9.47-9.213,9.47c7.318,0.344,9.142,9.944,9.142,9.944
				c0.156-6.844,9.422-10.045,9.422-10.045C26.805,52.138,24.395,43.184,24.395,43.184z"/>
		</g>
	</g>
	<g>
		<g>
			<path class="st0" d="M33.836,51.056c-5.766-0.345-7.972-8.186-7.994-8.265c-0.189-0.702-0.863-1.158-1.581-1.102
				c-0.726,0.065-1.3,0.643-1.361,1.368c-0.578,6.871-7.646,8.067-7.941,8.114c-0.763,0.115-1.313,0.79-1.273,1.56
				c0.04,0.77,0.657,1.384,1.428,1.421c6.034,0.284,7.723,8.644,7.738,8.726c0.136,0.713,0.759,1.22,1.473,1.22
				c0.041,0,0.083-0.001,0.125-0.005c0.765-0.063,1.358-0.694,1.376-1.461c0.13-5.71,8.331-8.634,8.412-8.662
				c0.676-0.234,1.093-0.913,0.996-1.622C35.135,51.641,34.55,51.099,33.836,51.056z M24.251,57.851
				c-0.924-1.885-2.34-3.947-4.446-5.28c1.855-1.041,3.697-2.629,4.87-4.916c1.058,1.874,2.654,3.954,4.941,5.223
				C27.767,53.979,25.627,55.619,24.251,57.851z"/>
		</g>
	</g>
	<g>
		<g>
			<path class="st1" d="M24.395,16.527c-0.689,8.179-9.213,9.471-9.213,9.471c7.318,0.344,9.142,9.944,9.142,9.944
				c0.156-6.845,9.422-10.045,9.422-10.045C26.805,25.481,24.395,16.527,24.395,16.527z"/>
		</g>
	</g>
	<g>
		<g>
			<path class="st0" d="M33.836,24.398c-5.766-0.345-7.972-8.185-7.994-8.265c-0.189-0.702-0.863-1.165-1.581-1.102
				c-0.726,0.065-1.3,0.643-1.361,1.368c-0.578,6.871-7.646,8.067-7.941,8.114c-0.763,0.115-1.313,0.79-1.273,1.561
				c0.04,0.77,0.657,1.384,1.428,1.421c6.034,0.284,7.723,8.644,7.738,8.726c0.136,0.712,0.759,1.22,1.473,1.22
				c0.041,0,0.083-0.002,0.125-0.005c0.765-0.063,1.358-0.694,1.376-1.461c0.13-5.709,8.331-8.634,8.412-8.662
				c0.676-0.234,1.093-0.913,0.996-1.622C35.135,24.983,34.55,24.441,33.836,24.398z M24.251,31.194
				c-0.924-1.886-2.34-3.947-4.446-5.28c1.855-1.041,3.697-2.63,4.87-4.917c1.058,1.874,2.654,3.954,4.941,5.224
				C27.767,27.322,25.627,28.961,24.251,31.194z"/>
		</g>
	</g>
	<g>
		<g>
			<path class="st6" d="M221.335,16.385H83.201c-9.782,0-17.712,7.93-17.712,17.712v187.438c0,9.782,7.93,17.712,17.712,17.712
				h138.135c9.782,0,17.712-7.93,17.712-17.712V34.097C239.047,24.315,231.117,16.385,221.335,16.385z"/>
		</g>
	</g>
	<g>
		<g>
			<path class="st0" d="M221.335,14.885H83.201c-10.594,0-19.212,8.619-19.212,19.212v187.438c0,10.594,8.618,19.212,19.212,19.212
				h138.134c10.594,0,19.213-8.619,19.213-19.212V34.097C240.548,23.504,231.929,14.885,221.335,14.885z M237.548,221.535
				c0,8.939-7.273,16.212-16.213,16.212H83.201c-8.939,0-16.212-7.273-16.212-16.212V34.097c0-8.939,7.272-16.212,16.212-16.212
				h138.134c8.939,0,16.213,7.272,16.213,16.212V221.535z"/>
		</g>
	</g>
	<g>
		<g>
			<path class="st1" d="M213.844,29.912h-22.299l-14.949,0.039h-0.045c0-0.013,0.002-0.025,0.002-0.039H90.708
				c-1.366,0-2.684,0.223-3.915,0.649c-4.767,1.618-8.198,6.134-8.198,11.453v162.431c0,5.24,4.248,9.488,9.488,9.488h128.375
				c5.24,0,9.488-4.248,9.488-9.488V42.014C225.947,35.33,220.528,29.912,213.844,29.912z"/>
		</g>
	</g>
	<g>
		<g>
			<path class="st0" d="M213.845,28.412h-22.3c-0.828,0-1.5,0.671-1.5,1.5c0,0.829,0.672,1.5,1.5,1.5h22.3
				c5.847,0,10.603,4.756,10.603,10.602v162.431c0,4.405-3.584,7.988-7.988,7.988H88.084c-4.404,0-7.988-3.583-7.988-7.988V42.014
				c0-4.543,2.886-8.575,7.189-10.036c1.084-0.376,2.236-0.566,3.423-0.566h85.503c0.109,0.025,0.223,0.039,0.34,0.039h0.045
				c0.828,0,1.478-0.671,1.478-1.5c0-0.218-0.048-0.426-0.135-0.613c-0.226-0.544-0.761-0.926-1.386-0.926H90.708
				c-1.521,0-3.004,0.246-4.396,0.728c-5.512,1.871-9.216,7.044-9.216,12.874v162.431c0,6.059,4.93,10.988,10.988,10.988h128.375
				c6.059,0,10.988-4.929,10.988-10.988V42.014C227.447,34.514,221.345,28.412,213.845,28.412z"/>
		</g>
	</g>
	<g>
		<g>
			<path class="st2" d="M97.61,92.267H25.43c-5.66,0-10.249,4.589-10.249,10.249v9.138h92.678v-9.138
				C107.859,96.856,103.27,92.267,97.61,92.267z"/>
		</g>
	</g>
	<g>
		<g>
			<path class="st0" d="M97.609,90.767H25.43c-6.479,0-11.749,5.271-11.749,11.749v9.138c0,0.829,0.672,1.5,1.5,1.5h92.678
				c0.828,0,1.5-0.671,1.5-1.5v-9.138C109.358,96.037,104.088,90.767,97.609,90.767z M106.358,110.154H16.681v-7.638
				c0-4.824,3.925-8.749,8.749-8.749h72.18c4.824,0,8.749,3.925,8.749,8.749V110.154z"/>
		</g>
	</g>
	<g>
		<g>
			<path class="st2" d="M15.181,220.234v9.132c0,5.66,4.589,10.249,10.249,10.249h72.18c5.66,0,10.249-4.589,10.249-10.249v-9.132
				H15.181z"/>
		</g>
	</g>
	<g>
		<g>
			<path class="st0" d="M107.858,218.734H15.181c-0.828,0-1.5,0.671-1.5,1.5v9.131c0,6.479,5.271,11.749,11.749,11.749h72.18
				c6.479,0,11.749-5.271,11.749-11.749v-9.131C109.358,219.406,108.687,218.734,107.858,218.734z M106.358,229.366
				c0,4.824-3.925,8.749-8.749,8.749H25.43c-4.824,0-8.749-3.925-8.749-8.749v-7.631h89.678V229.366z"/>
		</g>
	</g>
	<g>
		<g>
			<rect x="15.184" y="111.652" class="st1" width="92.674" height="108.579"/>
		</g>
	</g>
	<g>
		<g>
			<path class="st0" d="M107.858,110.152H15.184c-0.828,0-1.5,0.671-1.5,1.5v17.846c0,0.829,0.672,1.5,1.5,1.5s1.5-0.671,1.5-1.5
				v-16.346h89.675v105.579H16.684v-73.696c0-0.829-0.672-1.5-1.5-1.5s-1.5,0.671-1.5,1.5v75.196c0,0.829,0.672,1.5,1.5,1.5h92.675
				c0.828,0,1.5-0.671,1.5-1.5V111.652C109.358,110.824,108.687,110.152,107.858,110.152z"/>
		</g>
	</g>
	<g>
		<g>
			<path class="st2" d="M61.521,225.433c-2.506,0-4.537,2.031-4.537,4.537c0,2.506,2.031,4.537,4.537,4.537
				c2.506,0,4.537-2.031,4.537-4.537C66.058,227.465,64.027,225.433,61.521,225.433z"/>
		</g>
	</g>
	<g>
		<g>
			<path class="st0" d="M61.521,223.934c-3.329,0-6.037,2.708-6.037,6.037s2.708,6.038,6.037,6.038s6.038-2.708,6.038-6.038
				S64.85,223.934,61.521,223.934z M61.521,233.008c-1.675,0-3.037-1.363-3.037-3.038s1.362-3.037,3.037-3.037
				s3.038,1.362,3.038,3.037S63.195,233.008,61.521,233.008z"/>
		</g>
	</g>
	<g>
		<g>
			<path class="st0" d="M71.191,99.874H51.85c-1.187,0-2.149,0.962-2.149,2.149c0,1.187,0.962,2.149,2.149,2.149h19.341
				c1.187,0,2.149-0.962,2.149-2.149C73.34,100.836,72.378,99.874,71.191,99.874z"/>
		</g>
	</g>
	<g>
		<g>
			<path class="st0" d="M43.006,99.984c-1.126,0-2.039,0.913-2.039,2.039c0,1.126,0.913,2.039,2.039,2.039
				c1.126,0,2.039-0.913,2.039-2.039C45.045,100.897,44.132,99.984,43.006,99.984z"/>
		</g>
	</g>
	<g>
		<g>
			<path class="st6" d="M151.521,220.558c-3.633,0-6.579,2.945-6.579,6.579c0,3.634,2.946,6.579,6.579,6.579
				c3.634,0,6.579-2.945,6.579-6.579C158.1,223.504,155.155,220.558,151.521,220.558z"/>
		</g>
	</g>
	<g>
		<g>
			<path class="st0" d="M151.521,219.059c-4.455,0-8.079,3.624-8.079,8.079c0,4.455,3.624,8.079,8.079,8.079
				s8.079-3.625,8.079-8.079C159.6,222.683,155.976,219.059,151.521,219.059z M151.521,232.216c-2.801,0-5.079-2.278-5.079-5.079
				c0-2.8,2.278-5.079,5.079-5.079s5.079,2.278,5.079,5.079C156.6,229.938,154.321,232.216,151.521,232.216z"/>
		</g>
	</g>
	<g>
		<g>
			<path class="st7" d="M171.132,105.821h-48.777c-2.04,0-3.694,1.654-3.694,3.694v33.055c0,9.401,7.621,17.022,17.022,17.022h22.12
				c9.401,0,17.022-7.621,17.022-17.022v-33.055C174.826,107.474,173.172,105.821,171.132,105.821z"/>
		</g>
	</g>
	<g>
		<g>
			<path class="st0" d="M171.132,104.321h-48.776c-2.864,0-5.194,2.33-5.194,5.193v33.055c0,10.213,8.31,18.523,18.522,18.523h22.12
				c10.213,0,18.522-8.309,18.522-18.523v-33.055C176.326,106.65,173.996,104.321,171.132,104.321z M173.326,142.569
				c0,8.559-6.963,15.523-15.522,15.523h-22.12c-8.56,0-15.522-6.963-15.522-15.523v-33.055c0-1.209,0.984-2.193,2.194-2.193h48.776
				c1.21,0,2.194,0.984,2.194,2.193V142.569z"/>
		</g>
	</g>
	<g>
		<g>
			<path class="st6" d="M110.489,159.591c0,4.463,3.618,8.081,8.081,8.081h37.167h5.932h13.249c4.463,0,8.081-3.618,8.081-8.081
				H110.489z"/>
		</g>
	</g>
	<g>
		<g>
			<path class="st0" d="M182.998,158.091h-72.509c-0.828,0-1.5,0.671-1.5,1.5c0,5.283,4.298,9.581,9.58,9.581h56.349
				c5.282,0,9.58-4.298,9.58-9.581C184.498,158.763,183.826,158.091,182.998,158.091z M174.918,166.172h-56.349
				c-3.112,0-5.728-2.172-6.407-5.081h69.163C180.646,164,178.03,166.172,174.918,166.172z"/>
		</g>
	</g>
	<g>
		<g>
			<path class="st7" d="M175.354,113.464c-0.179,0-0.354,0.004-0.528,0.008v5.828c0.175-0.008,0.349-0.013,0.528-0.013
				c6.768,0,12.275,5.508,12.275,12.276c0,6.764-5.508,12.271-12.275,12.271c-0.191,0-0.383-0.004-0.574-0.017
				c-0.146,2.026-0.649,3.956-1.448,5.724c0.661,0.079,1.339,0.117,2.022,0.117c9.979,0,18.099-8.12,18.099-18.095
				C193.454,121.584,185.334,113.464,175.354,113.464z"/>
		</g>
	</g>
	<g>
		<g>
			<path class="st0" d="M175.354,111.964c-0.173,0-0.342,0.004-0.562,0.009c-0.815,0.018-1.467,0.684-1.467,1.5v5.828
				c0,0.41,0.168,0.802,0.465,1.085c0.296,0.283,0.7,0.433,1.106,0.413c0.151-0.007,0.303-0.011,0.457-0.011
				c5.941,0,10.775,4.834,10.775,10.776c0,5.939-4.834,10.771-10.775,10.771c-0.159,0-0.319-0.003-0.479-0.014
				c-0.87-0.05-1.533,0.569-1.592,1.39c-0.13,1.812-0.573,3.566-1.318,5.213c-0.196,0.436-0.174,0.939,0.061,1.355
				c0.235,0.417,0.654,0.696,1.129,0.753c0.706,0.084,1.445,0.127,2.199,0.127c10.808,0,19.6-8.79,19.6-19.595
				C194.954,120.757,186.162,111.964,175.354,111.964z M175.467,148.158c0.295-0.928,0.514-1.878,0.657-2.844
				c7.239-0.401,13.006-6.415,13.006-13.75c0-7.269-5.66-13.242-12.804-13.742v-2.829c8.702,0.505,15.628,7.745,15.628,16.571
				C191.954,140.677,184.568,148.098,175.467,148.158z"/>
		</g>
	</g>
	<g>
		<g>
			<path class="st0" d="M135.523,98.964c-0.817-0.817-1.266-1.904-1.261-3.06c0.004-1.156,0.46-2.239,1.283-3.05
				c1.39-1.37,2.163-3.198,2.178-5.15c0.015-1.951-0.732-3.791-2.101-5.18l-0.182-0.184c-1.654-1.679-1.645-4.4,0.021-6.066
				l0.029-0.029l-2.15-2.092c-2.827,2.828-2.844,7.445-0.038,10.292l0.182,0.184c0.807,0.819,1.247,1.903,1.238,3.053
				c-0.008,1.15-0.464,2.228-1.283,3.035c-1.397,1.376-2.171,3.214-2.178,5.176c-0.008,1.961,0.752,3.806,2.137,5.19l0.102,0.102
				c0.293,0.294,0.679,0.442,1.063,0.442c0.383,0,0.766-0.146,1.059-0.437c0.587-0.584,0.589-1.534,0.005-2.121L135.523,98.964z"/>
		</g>
	</g>
	<g>
		<g>
			<path class="st0" d="M143.896,98.964c-0.817-0.817-1.266-1.904-1.261-3.06c0.004-1.156,0.46-2.239,1.283-3.05
				c2.869-2.828,2.903-7.462,0.074-10.333l-0.18-0.181c-1.654-1.679-1.644-4.4,0.022-6.066l0.029-0.029
				c0.586-0.586,0.571-1.521-0.015-2.107c-0.586-0.586-1.55-0.573-2.136,0.015c-2.827,2.827-2.845,7.444-0.036,10.295l0.18,0.181
				c1.666,1.69,1.646,4.422-0.045,6.088c-1.397,1.376-2.171,3.214-2.178,5.176c-0.008,1.961,0.752,3.806,2.137,5.19l0.102,0.102
				c0.293,0.294,0.679,0.442,1.063,0.442c0.383,0,0.766-0.146,1.059-0.437c0.587-0.584,0.589-1.534,0.005-2.121L143.896,98.964z"/>
		</g>
	</g>
	<g>
		<g>
			<path class="st0" d="M151.712,98.964c-0.817-0.817-1.266-1.904-1.261-3.06c0.004-1.156,0.46-2.239,1.283-3.05
				c1.39-1.37,2.163-3.198,2.178-5.15c0.015-1.951-0.732-3.791-2.104-5.183l-0.18-0.181c-1.653-1.679-1.644-4.4,0.022-6.066
				l0.029-0.029l-2.15-2.092c-2.827,2.828-2.844,7.445-0.036,10.295l0.18,0.181c0.807,0.819,1.247,1.903,1.238,3.053
				c-0.008,1.15-0.464,2.228-1.283,3.035c-1.397,1.376-2.171,3.214-2.178,5.176c-0.008,1.961,0.752,3.806,2.137,5.19l0.102,0.102
				c0.293,0.294,0.679,0.442,1.063,0.442c0.383,0,0.766-0.146,1.059-0.437c0.587-0.584,0.589-1.534,0.005-2.121L151.712,98.964z"/>
		</g>
	</g>
	<g>
		<g>
			<path class="st0" d="M160.084,98.964c-0.817-0.817-1.265-1.904-1.261-3.06c0.005-1.156,0.461-2.239,1.284-3.05
				c1.39-1.37,2.163-3.199,2.178-5.15c0.014-1.952-0.732-3.792-2.102-5.18l-0.182-0.184c-1.654-1.679-1.644-4.4,0.022-6.066
				l0.029-0.029c0.586-0.586,0.571-1.521-0.015-2.107c-0.586-0.586-1.55-0.573-2.136,0.015c-2.827,2.827-2.845,7.444-0.039,10.292
				l0.182,0.185c0.808,0.819,1.247,1.903,1.239,3.053c-0.009,1.15-0.465,2.228-1.283,3.035c-1.397,1.376-2.171,3.214-2.178,5.176
				c-0.008,1.961,0.752,3.805,2.141,5.195l0.103,0.102c0.293,0.291,0.676,0.437,1.059,0.437c0.385,0,0.771-0.147,1.063-0.442
				c0.584-0.587,0.582-1.537-0.005-2.121L160.084,98.964z"/>
		</g>
	</g>
	<g>
		<g>
			<path class="st12" d="M97.612,93.763h-10.95c4.83,0,8.75,3.93,8.75,8.75v7.64h10.95v-7.64
				C106.362,97.693,102.432,93.763,97.612,93.763z"/>
		</g>
	</g>
	<g>
		<g>
			<path class="st12" d="M95.412,221.733v7.63c0,4.83-3.92,8.75-8.75,8.75h10.95c4.82,0,8.75-3.92,8.75-8.75v-7.63H95.412z"/>
		</g>
	</g>
	<g>
		<g>
			<rect x="95.412" y="113.153" class="st9" width="10.95" height="105.58"/>
		</g>
	</g>
	<g>
		<g>
			<path class="st9" d="M213.842,31.413h-12.2c5.84,0,10.6,4.75,10.6,10.6v162.43c0,4.41-3.58,7.99-7.99,7.99h12.21
				c4.4,0,7.98-3.58,7.98-7.99V42.013C224.442,36.163,219.692,31.413,213.842,31.413z"/>
		</g>
	</g>
</g>
</svg>
