<?xml version="1.0" encoding="utf-8"?>
<!-- Generator: Adobe Illustrator 22.0.1, SVG Export Plug-In . SVG Version: 6.00 Build 0)  -->
<svg version="1.1" id="Layer_2" xmlns="http://www.w3.org/2000/svg" xmlns:xlink="http://www.w3.org/1999/xlink" x="0px" y="0px"
	 viewBox="0 0 256 256" style="enable-background:new 0 0 256 256;" xml:space="preserve">
<style type="text/css">
	.st0{fill:#3A312A;}
	.st1{fill:#D7E057;}
	.st2{fill:#FCE8CB;}
	.st3{fill:#8AC6DD;}
	.st4{fill-rule:evenodd;clip-rule:evenodd;fill:#FCE8CB;}
	.st5{fill:#F5978A;}
	.st6{fill:#87796F;}
	.st7{fill:#F16C7A;}
	.st8{fill:#68A8BC;}
	.st9{fill:#B9BC39;}
	.st10{fill:#CE4E61;}
	.st11{fill:#6B5B51;}
	.st12{fill:#CCAE8B;}
	.st13{fill-rule:evenodd;clip-rule:evenodd;fill:#F16C7A;}
</style>
<g>
	<g>
		<g>
			<path class="st1" d="M51.962,64.77c-0.974,11.564-13.024,13.39-13.024,13.39c10.347,0.487,12.925,14.059,12.925,14.059
				c0.221-9.677,13.321-14.202,13.321-14.202C55.371,77.43,51.962,64.77,51.962,64.77z"/>
		</g>
	</g>
	<g>
		<g>
			<path class="st0" d="M65.274,76.519c-8.605-0.514-11.832-12.024-11.864-12.14c-0.191-0.703-0.866-1.164-1.583-1.102
				c-0.725,0.067-1.298,0.642-1.359,1.367c-0.86,10.215-11.313,11.963-11.754,12.032c-0.763,0.115-1.313,0.79-1.273,1.561
				c0.04,0.77,0.657,1.384,1.428,1.421c9.028,0.425,11.498,12.719,11.522,12.843c0.137,0.711,0.759,1.217,1.472,1.217
				c0.041,0,0.084-0.001,0.126-0.005c0.764-0.064,1.357-0.693,1.375-1.46c0.195-8.509,12.192-12.777,12.313-12.819
				c0.675-0.235,1.092-0.915,0.994-1.623C66.572,77.103,65.988,76.562,65.274,76.519z M51.708,86.865
				c-1.356-3.13-3.709-6.908-7.587-8.877c2.931-1.404,6.409-3.913,8.202-8.273c1.551,3.071,4.2,6.88,8.334,8.722
				C57.65,80.078,53.734,82.844,51.708,86.865z"/>
		</g>
	</g>
	<g>
		<g>
			<path class="st1" d="M30.264,81.751c-0.689,8.179-9.212,9.471-9.212,9.471c7.318,0.344,9.142,9.944,9.142,9.944
				c0.156-6.844,9.422-10.045,9.422-10.045C32.675,90.705,30.264,81.751,30.264,81.751z"/>
		</g>
	</g>
	<g>
		<g>
			<path class="st0" d="M39.705,89.623c-5.766-0.345-7.972-8.185-7.994-8.264c-0.19-0.702-0.852-1.169-1.582-1.102
				c-0.726,0.065-1.299,0.643-1.36,1.368c-0.579,6.87-7.646,8.066-7.942,8.113c-0.763,0.115-1.313,0.79-1.273,1.56
				c0.04,0.77,0.657,1.384,1.427,1.421c6.036,0.284,7.724,8.644,7.74,8.726c0.135,0.712,0.759,1.22,1.473,1.22
				c0.041,0,0.083-0.001,0.125-0.005c0.765-0.063,1.358-0.694,1.376-1.461c0.13-5.709,8.332-8.634,8.412-8.662
				c0.677-0.234,1.094-0.913,0.996-1.622C41.004,90.207,40.42,89.665,39.705,89.623z M30.121,96.418
				c-0.924-1.886-2.34-3.947-4.447-5.28c1.856-1.042,3.697-2.63,4.871-4.917c1.057,1.874,2.654,3.955,4.941,5.224
				C33.636,92.546,31.497,94.186,30.121,96.418z"/>
		</g>
	</g>
	<g>
		<g>
			<path class="st1" d="M30.264,55.093c-0.689,8.179-9.212,9.471-9.212,9.471c7.318,0.344,9.142,9.944,9.142,9.944
				c0.156-6.845,9.422-10.045,9.422-10.045C32.675,64.047,30.264,55.093,30.264,55.093z"/>
		</g>
	</g>
	<g>
		<g>
			<path class="st0" d="M39.706,62.965c-5.766-0.345-7.973-8.185-7.994-8.265c-0.19-0.702-0.852-1.17-1.582-1.102
				c-0.726,0.066-1.299,0.643-1.36,1.368c-0.579,6.871-7.646,8.067-7.942,8.114c-0.763,0.115-1.313,0.79-1.273,1.561
				c0.04,0.77,0.657,1.384,1.428,1.421c6.035,0.284,7.724,8.644,7.739,8.726c0.135,0.713,0.759,1.22,1.472,1.22
				c0.042,0,0.083-0.002,0.125-0.005c0.765-0.063,1.358-0.694,1.376-1.461c0.13-5.709,8.331-8.634,8.412-8.662
				c0.676-0.234,1.094-0.913,0.996-1.622C41.004,63.55,40.42,63.008,39.706,62.965z M30.121,69.76
				c-0.924-1.886-2.34-3.947-4.447-5.28c1.856-1.041,3.697-2.63,4.871-4.916c1.057,1.873,2.654,3.954,4.941,5.224
				C33.636,65.888,31.497,67.528,30.121,69.76z"/>
		</g>
	</g>
	<g>
		<g>
			<path class="st2" d="M69.718,51.19l2.6,25.396l1.553,15.17L74.818,101l8.61,84l4.358,42.554
				C88.452,234.056,93.928,239,100.464,239h92.334c6.55,0,12.034-4.965,12.682-11.483L209.708,185l8.34-84l4.95-49.81H69.718z"/>
		</g>
	</g>
	<g>
		<g>
			<path class="st0" d="M224.11,50.183c-0.285-0.314-0.688-0.493-1.112-0.493H69.718c-0.424,0-0.829,0.18-1.113,0.495
				c-0.285,0.315-0.422,0.736-0.379,1.158l2.6,25.396c0.085,0.824,0.833,1.429,1.645,1.339c0.824-0.085,1.424-0.821,1.339-1.645
				L71.38,52.69h149.962l-17.354,174.678c-0.575,5.776-5.386,10.132-11.19,10.132h-92.334c-5.787,0-10.596-4.342-11.186-10.099
				L75.364,91.603c-0.084-0.824-0.823-1.424-1.645-1.339c-0.824,0.084-1.424,0.821-1.339,1.645l13.914,135.798
				C87.04,235,93.132,240.5,100.464,240.5h92.334c7.354,0,13.447-5.518,14.175-12.835L224.49,51.338
				C224.532,50.917,224.395,50.497,224.11,50.183z"/>
		</g>
	</g>
	<g>
		<g>
			<path class="st1" d="M218.757,35H73.959c-8.942,0-16.192,7.249-16.192,16.192h177.181C234.949,42.249,227.699,35,218.757,35z"/>
		</g>
	</g>
	<g>
		<g>
			<path class="st0" d="M218.757,33.5H73.959c-9.755,0-17.691,7.936-17.691,17.692c0,0.829,0.671,1.5,1.5,1.5h177.181
				c0.828,0,1.5-0.671,1.5-1.5C236.448,41.436,228.512,33.5,218.757,33.5z M59.344,49.692C60.097,42.292,66.364,36.5,73.959,36.5
				h144.798c7.595,0,13.861,5.792,14.615,13.192H59.344z"/>
		</g>
	</g>
	<g>
		<g>
			<path class="st1" d="M198.121,17h-66.597h-15.047H94.595c-8.942,0-16.192,7.249-16.192,16.192V35h135.91v-1.808
				C214.313,24.249,207.064,17,198.121,17z"/>
		</g>
	</g>
	<g>
		<g>
			<path class="st0" d="M198.121,15.5h-66.598c-0.828,0-1.5,0.671-1.5,1.5s0.672,1.5,1.5,1.5h66.598
				c8.102,0,14.692,6.591,14.692,14.692V33.5H79.903v-0.308c0-8.101,6.591-14.692,14.692-14.692h21.882c0.829,0,1.5-0.671,1.5-1.5
				s-0.671-1.5-1.5-1.5H94.595c-9.755,0-17.692,7.936-17.692,17.692V35c0,0.829,0.671,1.5,1.5,1.5h135.911
				c0.828,0,1.5-0.671,1.5-1.5v-1.808C215.813,23.436,207.877,15.5,198.121,15.5z"/>
		</g>
	</g>
	<g>
		<g>
			<path class="st6" d="M217.943,97.333h-143c-3.412,0-6.075,2.95-5.727,6.344l8.181,79.819c0.301,2.937,2.775,5.17,5.727,5.17
				h126.894c2.959,0,5.437-2.244,5.729-5.188l7.925-79.819C224.008,100.271,221.348,97.333,217.943,97.333z"/>
		</g>
	</g>
	<g>
		<g>
			<path class="st0" d="M223.323,98.22c-1.373-1.517-3.334-2.386-5.38-2.386h-34.175c-0.828,0-1.5,0.671-1.5,1.5s0.672,1.5,1.5,1.5
				h34.175c1.218,0,2.339,0.497,3.155,1.4c0.817,0.902,1.201,2.066,1.081,3.277l-7.926,79.82c-0.217,2.187-2.037,3.836-4.235,3.836
				H83.124c-2.191,0-4.011-1.644-4.235-3.823l-8.181-79.82c-0.125-1.213,0.257-2.38,1.075-3.286c0.817-0.906,1.939-1.405,3.16-1.405
				h93.957c0.828,0,1.5-0.671,1.5-1.5s-0.672-1.5-1.5-1.5H74.943c-2.05,0-4.013,0.873-5.387,2.394
				c-1.374,1.522-2.041,3.564-1.832,5.602l8.181,79.819c0.381,3.715,3.485,6.517,7.219,6.517h126.894
				c3.747,0,6.852-2.812,7.221-6.54l7.925-79.819C225.367,101.772,224.695,99.736,223.323,98.22z"/>
		</g>
	</g>
	<g>
		<g>
			<path class="st12" d="M192.46,190.17l-3.7,37.2c-0.57,5.77-5.38,10.13-11.18,10.13h15.22c5.8,0,10.61-4.36,11.19-10.13l3.69-37.2
				H192.46z"/>
		</g>
	</g>
	<g>
		<g>
			<polygon class="st12" points="206.12,52.69 201.83,95.83 217.06,95.83 221.34,52.69 			"/>
		</g>
	</g>
	<g>
		<g>
			<path class="st9" d="M218.76,36.5h-15.23c7.6,0,13.87,5.79,14.62,13.19h15.22C232.62,42.29,226.35,36.5,218.76,36.5z"/>
		</g>
	</g>
	<g>
		<g>
			<path class="st9" d="M198.12,18.5H182.9c8.1,0,14.69,6.59,14.69,14.69v0.31h15.22v-0.31C212.81,25.09,206.22,18.5,198.12,18.5z"
				/>
		</g>
	</g>
	<g>
		<g>
			<path class="st11" d="M221.1,100.23c-0.82-0.9-1.94-1.4-3.16-1.4h-15.22c1.22,0,2.34,0.5,3.16,1.4c0.81,0.91,1.2,2.07,1.08,3.28
				l-7.93,79.82c-0.22,2.19-2.04,3.84-4.23,3.84h15.22c2.2,0,4.02-1.65,4.23-3.84l7.93-79.82
				C222.3,102.3,221.92,101.14,221.1,100.23z"/>
		</g>
	</g>
</g>
</svg>
