<?xml version="1.0" encoding="utf-8"?>
<!-- Generator: Adobe Illustrator 22.0.1, SVG Export Plug-In . SVG Version: 6.00 Build 0)  -->
<svg version="1.1" id="Layer_2" xmlns="http://www.w3.org/2000/svg" xmlns:xlink="http://www.w3.org/1999/xlink" x="0px" y="0px"
	 viewBox="0 0 256 256" style="enable-background:new 0 0 256 256;" xml:space="preserve">
<style type="text/css">
	.st0{fill:#3A312A;}
	.st1{fill:#D7E057;}
	.st2{fill:#FCE8CB;}
	.st3{fill:#8AC6DD;}
	.st4{fill-rule:evenodd;clip-rule:evenodd;fill:#FCE8CB;}
	.st5{fill:#F5978A;}
	.st6{fill:#87796F;}
	.st7{fill:#F16C7A;}
	.st8{fill:#68A8BC;}
	.st9{fill:#B9BC39;}
	.st10{fill:#CE4E61;}
	.st11{fill:#6B5B51;}
	.st12{fill:#CCAE8B;}
	.st13{fill-rule:evenodd;clip-rule:evenodd;fill:#F16C7A;}
</style>
<g>
	<g>
		<g>
			<path class="st7" d="M128,133.476c-3.05,0-6.06-0.14-9.02-0.41v35.4c0.01,0,0.01,0,0.02,0v15.61c-0.01,0-0.01,0-0.02,0v37.39
				c2.42-0.28,4.93-0.43,7.51-0.43c2.59,0,5.11,0.15,7.53,0.43v-88.17C132.03,133.416,130.02,133.476,128,133.476z"/>
		</g>
	</g>
	<g>
		<g>
			<path class="st0" d="M135.049,132.204c-0.302-0.284-0.711-0.429-1.119-0.405c-4.854,0.294-9.902,0.222-14.814-0.227
				c-0.417-0.042-0.836,0.102-1.147,0.386c-0.312,0.284-0.489,0.686-0.489,1.108v35.4c0,0.829,0.671,1.5,1.5,1.5H119
				c0.829,0,1.49-0.671,1.49-1.5c0-0.059-0.003-0.116-0.01-0.173v-33.598c4.005,0.299,8.059,0.356,12.04,0.181v84.928
				c-3.97-0.356-8.059-0.357-12.04,0v-35.553c0.007-0.058,0.01-0.116,0.01-0.175c0-0.829-0.681-1.5-1.51-1.5s-1.5,0.671-1.5,1.5
				v37.39c0,0.428,0.183,0.835,0.502,1.12c0.319,0.285,0.741,0.419,1.17,0.37c4.828-0.559,9.892-0.556,14.695,0
				c0.058,0.006,0.115,0.01,0.173,0.01c0.366,0,0.722-0.134,0.998-0.38c0.319-0.285,0.502-0.692,0.502-1.12v-88.17
				C135.52,132.882,135.35,132.487,135.049,132.204z"/>
		</g>
	</g>
	<g>
		<g>
			<path class="st1" d="M82.771,155.416c-0.974,11.564-13.024,13.39-13.024,13.39c10.347,0.487,12.925,14.059,12.925,14.059
				c0.221-9.677,13.321-14.202,13.321-14.202C86.18,168.076,82.771,155.416,82.771,155.416z"/>
		</g>
	</g>
	<g>
		<g>
			<path class="st0" d="M96.082,167.165c-8.604-0.514-11.832-12.024-11.864-12.14c-0.191-0.703-0.865-1.168-1.583-1.102
				c-0.725,0.066-1.298,0.642-1.359,1.367c-0.86,10.215-11.313,11.963-11.754,12.032c-0.763,0.115-1.313,0.79-1.273,1.56
				c0.04,0.77,0.657,1.384,1.427,1.421c9.028,0.425,11.499,12.719,11.523,12.843c0.137,0.711,0.759,1.217,1.472,1.217
				c0.042,0,0.085-0.001,0.127-0.005c0.764-0.064,1.357-0.693,1.375-1.459c0.195-8.509,12.192-12.777,12.313-12.819
				c0.675-0.235,1.092-0.915,0.994-1.623C97.38,167.749,96.796,167.208,96.082,167.165z M82.517,177.511
				c-1.356-3.13-3.709-6.907-7.587-8.876c2.931-1.405,6.409-3.913,8.202-8.273c1.551,3.071,4.199,6.88,8.334,8.722
				C88.458,170.724,84.543,173.49,82.517,177.511z"/>
		</g>
	</g>
	<g>
		<g>
			<path class="st1" d="M61.073,172.397c-0.689,8.179-9.212,9.47-9.212,9.47c7.318,0.344,9.142,9.944,9.142,9.944
				c0.156-6.844,9.422-10.045,9.422-10.045C63.483,181.351,61.073,172.397,61.073,172.397z"/>
		</g>
	</g>
	<g>
		<g>
			<path class="st0" d="M70.514,180.269c-5.766-0.345-7.972-8.185-7.993-8.264c-0.19-0.702-0.85-1.168-1.582-1.102
				c-0.726,0.065-1.299,0.642-1.36,1.368c-0.579,6.871-7.647,8.066-7.943,8.113c-0.763,0.115-1.313,0.79-1.273,1.56
				c0.04,0.77,0.657,1.384,1.427,1.421c6.036,0.284,7.724,8.644,7.74,8.726c0.135,0.712,0.759,1.22,1.472,1.22
				c0.042,0,0.083-0.001,0.125-0.005c0.765-0.063,1.358-0.694,1.376-1.461c0.13-5.709,8.331-8.634,8.412-8.662
				c0.677-0.234,1.094-0.913,0.996-1.622C71.813,180.853,71.228,180.311,70.514,180.269z M60.93,187.064
				c-0.924-1.886-2.34-3.947-4.447-5.28c1.856-1.041,3.697-2.63,4.871-4.917c1.057,1.874,2.654,3.955,4.941,5.224
				C64.444,183.192,62.306,184.831,60.93,187.064z"/>
		</g>
	</g>
	<g>
		<g>
			<path class="st1" d="M61.073,145.739c-0.689,8.179-9.212,9.471-9.212,9.471c7.318,0.344,9.142,9.944,9.142,9.944
				c0.156-6.845,9.422-10.045,9.422-10.045C63.483,154.693,61.073,145.739,61.073,145.739z"/>
		</g>
	</g>
	<g>
		<g>
			<path class="st0" d="M70.514,153.611c-5.766-0.345-7.972-8.185-7.994-8.265c-0.19-0.702-0.85-1.169-1.582-1.102
				c-0.726,0.065-1.299,0.642-1.36,1.368c-0.579,6.871-7.647,8.067-7.943,8.114c-0.763,0.115-1.313,0.79-1.273,1.56
				c0.04,0.77,0.657,1.384,1.428,1.421c6.035,0.284,7.724,8.644,7.739,8.726c0.135,0.713,0.759,1.22,1.473,1.22
				c0.041,0,0.083-0.002,0.125-0.005c0.765-0.064,1.358-0.694,1.376-1.461c0.13-5.709,8.331-8.634,8.412-8.662
				c0.676-0.234,1.094-0.913,0.996-1.622C71.813,154.196,71.228,153.654,70.514,153.611z M60.93,160.406
				c-0.924-1.885-2.34-3.947-4.447-5.28c1.856-1.041,3.697-2.63,4.871-4.917c1.057,1.874,2.654,3.955,4.941,5.224
				C64.444,156.535,62.306,158.174,60.93,160.406z"/>
		</g>
	</g>
	<g>
		<g>
			<path class="st2" d="M118.25,20.566c8.4,22.96-62.94,15.46-64.64,37.91h143.74C194.7,41.386,112.16,3.906,118.25,20.566z"/>
		</g>
	</g>
	<g>
		<g>
			<path class="st0" d="M198.832,58.246c-2.063-13.307-43.156-34.285-63.957-40.816c-14.169-4.45-16.646-1.86-17.458-1.008
				c-0.752,0.788-1.462,2.235-0.576,4.659c0.84,2.296,0.791,4.248-0.149,5.967c-3.182,5.821-16.209,8.726-28.807,11.536
				c-17.139,3.822-34.862,7.775-35.771,19.778c-0.032,0.417,0.112,0.827,0.396,1.133c0.284,0.306,0.683,0.48,1.1,0.48h143.74
				c0.438,0,0.854-0.191,1.139-0.524C198.773,59.12,198.899,58.679,198.832,58.246z M55.383,56.976
				c2.354-8.594,17.998-12.083,33.155-15.464c13.86-3.091,26.952-6.011,30.787-13.025c1.36-2.487,1.472-5.326,0.334-8.437
				c-0.161-0.44-0.384-1.229-0.071-1.557c0.205-0.215,2.344-1.984,14.389,1.798c23.235,7.296,56.452,26.266,61.334,36.684H55.383z"
				/>
		</g>
	</g>
	<g>
		<g>
			<path class="st1" d="M210.253,58.479H45.747c-2.579,0-4.582,2.209-4.385,4.781c2.993,39.214,40.637,70.219,86.638,70.219
				c46.001,0,83.645-31.005,86.638-70.219C214.834,60.688,212.832,58.479,210.253,58.479z"/>
		</g>
	</g>
	<g>
		<g>
			<path class="st0" d="M214.565,58.863c-1.126-1.215-2.657-1.884-4.313-1.884H45.747c-1.656,0-3.188,0.669-4.313,1.884
				c-1.123,1.212-1.694,2.856-1.568,4.511c3.065,40.152,41.778,71.605,88.134,71.605c46.355,0,85.068-31.453,88.134-71.605
				C216.26,61.719,215.688,60.075,214.565,58.863z M128,131.979c-44.797,0-82.196-30.235-85.143-68.833
				c-0.064-0.837,0.212-1.634,0.777-2.244c0.551-0.595,1.302-0.923,2.112-0.923h164.506c0.811,0,1.561,0.328,2.112,0.923
				c0.564,0.61,0.841,1.407,0.776,2.244C210.196,101.744,172.797,131.979,128,131.979z"/>
		</g>
	</g>
	<g>
		<g>
			<path class="st6" d="M50.107,91.479c14.168,24.879,43.717,42,77.893,42c34.176,0,63.725-17.121,77.893-42H50.107z"/>
		</g>
	</g>
	<g>
		<g>
			<path class="st0" d="M207.19,90.726c-0.269-0.462-0.763-0.746-1.297-0.746h-57.383c-0.828,0-1.5,0.671-1.5,1.5s0.672,1.5,1.5,1.5
				h54.749c-14.903,24.122-43.478,39-75.26,39c-31.782,0-60.356-14.878-75.259-39h80.749c0.828,0,1.5-0.671,1.5-1.5
				s-0.672-1.5-1.5-1.5H50.107c-0.534,0-1.028,0.284-1.297,0.746c-0.269,0.462-0.271,1.032-0.006,1.496
				c15.019,26.374,45.365,42.758,79.196,42.758s64.178-16.384,79.197-42.758C207.462,91.757,207.459,91.188,207.19,90.726z"/>
		</g>
	</g>
	<g>
		<g>
			<path class="st12" d="M148.17,25.656c-13.61-5.86-21.99-7.76-25.98-7.76c-1.35,0-2.2,0.22-2.58,0.57
				c-0.32,0.31-0.15,1.03,0.05,1.58c0.22,0.6,0.39,1.18,0.52,1.75c2.88,1.04,6.11,2.31,9.71,3.86
				c20.93,9.02,43.37,22.83,47.18,31.32h18.27C191.53,48.486,169.1,34.676,148.17,25.656z"/>
		</g>
	</g>
	<g>
		<g>
			<path class="st9" d="M212.37,60.906c-0.56-0.6-1.31-0.93-2.12-0.93h-18.27c0.81,0,1.56,0.33,2.11,0.93
				c0.57,0.61,0.84,1.4,0.78,2.24c-0.73,9.57-3.58,18.62-8.14,26.83H205c4.56-8.21,7.41-17.26,8.14-26.83
				C213.21,62.306,212.93,61.516,212.37,60.906z"/>
		</g>
	</g>
	<g>
		<g>
			<path class="st11" d="M184.99,92.976c-13.47,21.79-38.07,36.03-66.12,38.58c3.01,0.28,6.05,0.42,9.13,0.42
				c31.78,0,60.36-14.87,75.26-39H184.99z"/>
		</g>
	</g>
	<g>
		<g>
			<path class="st1" d="M126.494,221.039c-19.431,0-35.186,8.311-35.186,18.567h70.383
				C161.692,229.35,145.936,221.039,126.494,221.039z"/>
		</g>
	</g>
	<g>
		<g>
			<path class="st0" d="M126.495,219.539c-20.572,0-36.686,8.814-36.686,20.067c0,0.829,0.671,1.5,1.5,1.5h70.383
				c0.828,0,1.5-0.671,1.5-1.5C163.191,228.353,147.072,219.539,126.495,219.539z M92.944,238.106
				c1.556-8.581,16.287-15.567,33.551-15.567c17.269,0,32.004,6.987,33.561,15.567H92.944z"/>
		</g>
	</g>
	<g>
		<g>
			<path class="st9" d="M126.49,222.536c-1.64,0-3.25,0.06-4.83,0.18c15.11,1.16,27.32,7.62,28.73,15.39h9.67
				C158.5,229.526,143.76,222.536,126.49,222.536z"/>
		</g>
	</g>
</g>
</svg>
