<?xml version="1.0" encoding="utf-8"?>
<!-- Generator: Adobe Illustrator 22.0.1, SVG Export Plug-In . SVG Version: 6.00 Build 0)  -->
<svg version="1.1" id="Layer_2" xmlns="http://www.w3.org/2000/svg" xmlns:xlink="http://www.w3.org/1999/xlink" x="0px" y="0px"
	 viewBox="0 0 256 256" style="enable-background:new 0 0 256 256;" xml:space="preserve">
<style type="text/css">
	.st0{fill:#3A312A;}
	.st1{fill:#D7E057;}
	.st2{fill:#FCE8CB;}
	.st3{fill:#8AC6DD;}
	.st4{fill-rule:evenodd;clip-rule:evenodd;fill:#FCE8CB;}
	.st5{fill:#F5978A;}
	.st6{fill:#87796F;}
	.st7{fill:#F16C7A;}
	.st8{fill:#68A8BC;}
	.st9{fill:#B9BC39;}
	.st10{fill:#CE4E61;}
	.st11{fill:#6B5B51;}
	.st12{fill:#CCAE8B;}
	.st13{fill-rule:evenodd;clip-rule:evenodd;fill:#F16C7A;}
</style>
<g>
	<g>
		<g>
			<rect x="36.003" y="85.58" class="st1" width="183.66" height="128.34"/>
		</g>
	</g>
	<g>
		<g>
			<path class="st0" d="M219.663,84.08H36.003c-0.829,0-1.5,0.671-1.5,1.5v40.313c0,0.829,0.671,1.5,1.5,1.5
				c0.829,0,1.5-0.671,1.5-1.5V87.08h180.66v125.34H37.503v-71.646c0-0.829-0.671-1.5-1.5-1.5c-0.829,0-1.5,0.671-1.5,1.5v73.146
				c0,0.829,0.671,1.5,1.5,1.5h183.66c0.829,0,1.5-0.671,1.5-1.5V85.58C221.163,84.751,220.492,84.08,219.663,84.08z"/>
		</g>
	</g>
	<g>
		<g>
			<path class="st7" d="M226.083,16.75H29.917c-7.41,0-13.417,6.007-13.417,13.417v42c0,7.41,6.007,13.417,13.417,13.417h196.167
				c7.41,0,13.417-6.007,13.417-13.417v-42C239.5,22.757,233.493,16.75,226.083,16.75z"/>
		</g>
	</g>
	<g>
		<g>
			<path class="st0" d="M226.083,15.25h-22.087c-0.829,0-1.5,0.671-1.5,1.5s0.671,1.5,1.5,1.5h22.087
				c6.571,0,11.917,5.346,11.917,11.917v42c0,6.571-5.346,11.917-11.917,11.917H29.917C23.346,84.083,18,78.738,18,72.167v-42
				c0-6.571,5.346-11.917,11.917-11.917h159.088c0.829,0,1.5-0.671,1.5-1.5s-0.671-1.5-1.5-1.5H29.917
				C21.691,15.25,15,21.941,15,30.167v42c0,8.225,6.691,14.917,14.917,14.917h196.167c8.225,0,14.917-6.692,14.917-14.917v-42
				C241,21.941,234.308,15.25,226.083,15.25z"/>
		</g>
	</g>
	<g>
		<g>
			<path class="st7" d="M228.917,213.917H27.083c-5.845,0-10.583,4.738-10.583,10.583v4.167c0,5.845,4.738,10.583,10.583,10.583
				h201.833c5.845,0,10.583-4.738,10.583-10.583V224.5C239.5,218.655,234.762,213.917,228.917,213.917z"/>
		</g>
	</g>
	<g>
		<g>
			<path class="st0" d="M228.917,212.417H27.083C20.42,212.417,15,217.837,15,224.5v4.167c0,6.663,5.42,12.083,12.083,12.083
				h201.833c6.663,0,12.083-5.42,12.083-12.083V224.5C241,217.837,235.58,212.417,228.917,212.417z M238,228.667
				c0,5.009-4.075,9.083-9.083,9.083H27.083c-5.008,0-9.083-4.075-9.083-9.083V224.5c0-5.009,4.075-9.083,9.083-9.083h201.833
				c5.009,0,9.083,4.075,9.083,9.083V228.667z"/>
		</g>
	</g>
	<g>
		<g>
			<circle class="st6" cx="127.833" cy="51.75" r="23.833"/>
		</g>
	</g>
	<g>
		<g>
			<path class="st0" d="M127.833,26.417c-13.969,0-25.333,11.365-25.333,25.333c0,13.969,11.364,25.333,25.333,25.333
				c13.969,0,25.333-11.365,25.333-25.333C153.167,37.781,141.802,26.417,127.833,26.417z M127.833,74.083
				c-12.314,0-22.333-10.019-22.333-22.333c0-12.315,10.019-22.333,22.333-22.333c12.315,0,22.333,10.019,22.333,22.333
				C150.167,64.065,140.148,74.083,127.833,74.083z"/>
		</g>
	</g>
	<g>
		<g>
			<circle class="st1" cx="169.833" cy="51.813" r="7.438"/>
		</g>
	</g>
	<g>
		<g>
			<path class="st0" d="M169.833,42.875c-4.928,0-8.938,4.009-8.938,8.938c0,4.928,4.009,8.938,8.938,8.938
				c4.928,0,8.938-4.009,8.938-8.938C178.771,46.884,174.761,42.875,169.833,42.875z M169.833,57.75
				c-3.274,0-5.938-2.664-5.938-5.938c0-3.274,2.664-5.938,5.938-5.938c3.274,0,5.938,2.664,5.938,5.938
				C175.771,55.086,173.107,57.75,169.833,57.75z"/>
		</g>
	</g>
	<g>
		<g>
			<circle class="st2" cx="192.667" cy="51.813" r="7.438"/>
		</g>
	</g>
	<g>
		<g>
			<path class="st0" d="M192.667,42.875c-4.928,0-8.938,4.009-8.938,8.938c0,4.928,4.009,8.938,8.938,8.938
				c4.928,0,8.938-4.009,8.938-8.938C201.604,46.884,197.595,42.875,192.667,42.875z M192.667,57.75
				c-3.274,0-5.938-2.664-5.938-5.938c0-3.274,2.664-5.938,5.938-5.938c3.274,0,5.938,2.664,5.938,5.938
				C198.604,55.086,195.94,57.75,192.667,57.75z"/>
		</g>
	</g>
	<g>
		<g>
			<circle class="st6" cx="215.5" cy="51.813" r="7.438"/>
		</g>
	</g>
	<g>
		<g>
			<path class="st0" d="M215.5,42.875c-4.928,0-8.938,4.009-8.938,8.938c0,4.928,4.009,8.938,8.938,8.938
				c4.928,0,8.938-4.009,8.938-8.938C224.438,46.884,220.428,42.875,215.5,42.875z M215.5,57.75c-3.274,0-5.938-2.664-5.938-5.938
				c0-3.274,2.664-5.938,5.938-5.938c3.274,0,5.938,2.664,5.938,5.938C221.438,55.086,218.774,57.75,215.5,57.75z"/>
		</g>
	</g>
	<g>
		<g>
			<path class="st1" d="M127.833,27.917c-4.043,0-7.32,3.277-7.32,7.32v33.026c0,4.043,3.277,7.32,7.32,7.32s7.32-3.277,7.32-7.32
				V35.237C135.153,31.194,131.876,27.917,127.833,27.917z"/>
		</g>
	</g>
	<g>
		<g>
			<path class="st0" d="M127.833,26.417c-4.863,0-8.82,3.956-8.82,8.82v33.026c0,4.864,3.956,8.82,8.82,8.82
				c4.864,0,8.82-3.956,8.82-8.82V35.237C136.653,30.373,132.697,26.417,127.833,26.417z M133.653,68.263
				c0,3.209-2.611,5.82-5.82,5.82c-3.209,0-5.82-2.611-5.82-5.82V35.237c0-3.209,2.611-5.82,5.82-5.82c3.209,0,5.82,2.611,5.82,5.82
				V68.263z"/>
		</g>
	</g>
	<g>
		<g>
			<path class="st2" d="M83.891,41.367h-45.45c-2.913,0-5.275,2.362-5.275,5.275v10.217c0,2.913,2.362,5.275,5.275,5.275h45.45
				c2.913,0,5.275-2.362,5.275-5.275V46.642C89.167,43.728,86.805,41.367,83.891,41.367z"/>
		</g>
	</g>
	<g>
		<g>
			<path class="st0" d="M83.892,39.867h-45.45c-3.736,0-6.775,3.039-6.775,6.775v10.217c0,3.736,3.039,6.775,6.775,6.775h45.45
				c3.736,0,6.775-3.039,6.775-6.775V46.642C90.667,42.906,87.627,39.867,83.892,39.867z M87.667,56.858
				c0,2.081-1.693,3.775-3.775,3.775h-45.45c-2.081,0-3.775-1.693-3.775-3.775V46.642c0-2.082,1.693-3.775,3.775-3.775h45.45
				c2.081,0,3.775,1.693,3.775,3.775V56.858z"/>
		</g>
	</g>
	<g>
		<g>
			<path class="st3" d="M155.916,141.991H99.281c-2.369,0-4.289,1.92-4.289,4.289v38.38c0,10.916,8.849,19.765,19.764,19.765h25.684
				c10.916,0,19.765-8.849,19.765-19.765v-38.38C160.204,143.911,158.284,141.991,155.916,141.991z"/>
		</g>
	</g>
	<g>
		<g>
			<path class="st0" d="M155.915,140.491H99.28c-3.192,0-5.789,2.597-5.789,5.789v38.38c0,11.726,9.539,21.265,21.265,21.265h25.684
				c11.726,0,21.265-9.539,21.265-21.265v-38.38C161.705,143.088,159.107,140.491,155.915,140.491z M158.705,184.66
				c0,10.071-8.193,18.265-18.265,18.265h-25.684c-10.071,0-18.265-8.193-18.265-18.265v-38.38c0-1.538,1.251-2.789,2.789-2.789
				h56.635c1.538,0,2.789,1.251,2.789,2.789V184.66z"/>
		</g>
	</g>
	<g>
		<g>
			<path class="st6" d="M85.502,204.425c0,5.182,4.201,9.382,9.382,9.382h65.427c5.182,0,9.382-4.201,9.382-9.382H85.502z"/>
		</g>
	</g>
	<g>
		<g>
			<path class="st0" d="M169.694,202.925H85.502c-0.829,0-1.5,0.671-1.5,1.5c0,6,4.882,10.882,10.882,10.882h65.427
				c6.001,0,10.882-4.882,10.882-10.882C171.194,203.596,170.522,202.925,169.694,202.925z M160.311,212.307H94.885
				c-3.833,0-7.037-2.751-7.739-6.382h80.905C167.348,209.556,164.145,212.307,160.311,212.307z"/>
		</g>
	</g>
	<g>
		<g>
			<path class="st3" d="M160.818,150.866c-0.208,0-0.411,0.005-0.613,0.01v6.767c0.203-0.01,0.406-0.015,0.613-0.015
				c7.858,0,14.253,6.395,14.253,14.253c0,7.853-6.395,14.248-14.253,14.248c-0.222,0-0.444-0.005-0.667-0.019
				c-0.169,2.352-0.753,4.593-1.681,6.646c0.768,0.092,1.555,0.135,2.347,0.135c11.587,0,21.015-9.428,21.015-21.01
				C181.833,160.294,172.405,150.866,160.818,150.866z"/>
		</g>
	</g>
	<g>
		<g>
			<path class="st0" d="M160.818,149.366c-0.188,0-0.371,0.004-0.646,0.01c-0.816,0.018-1.468,0.684-1.468,1.5v6.767
				c0,0.41,0.168,0.803,0.465,1.086c0.297,0.284,0.691,0.438,1.107,0.412c0.179-0.008,0.358-0.013,0.542-0.013
				c7.032,0,12.753,5.721,12.753,12.753c0,7.03-5.721,12.749-12.753,12.749c-0.191,0-0.381-0.004-0.571-0.017
				c-0.815-0.048-1.533,0.568-1.591,1.39c-0.153,2.132-0.675,4.196-1.552,6.136c-0.197,0.435-0.174,0.938,0.06,1.355
				c0.235,0.416,0.654,0.695,1.128,0.752c0.81,0.097,1.66,0.146,2.526,0.146c12.414,0,22.515-10.098,22.515-22.51
				C183.333,159.466,173.233,149.366,160.818,149.366z M160.818,191.392c-0.068,0-0.135,0-0.203-0.001
				c0.411-1.227,0.707-2.489,0.885-3.775c8.371-0.358,15.07-7.278,15.07-15.734c0-8.389-6.591-15.267-14.867-15.729v-3.767
				c10.351,0.464,18.628,9.031,18.628,19.495C180.333,182.639,171.579,191.392,160.818,191.392z"/>
		</g>
	</g>
	<g>
		<g>
			<path class="st2" d="M232.583,95.042h-58.83v13.21c0,0.1,0,0.19-0.01,0.29h58.84c1.87,0,3.55-0.76,4.77-1.98
				c1.22-1.22,1.98-2.9,1.98-4.77C239.333,98.062,236.313,95.042,232.583,95.042z"/>
		</g>
	</g>
	<g>
		<g>
			<path class="st0" d="M232.583,93.542h-58.83c-0.829,0-1.5,0.671-1.5,1.5v13.21c0,0.047,0.003,0.09-0.002,0.137
				c-0.043,0.422,0.094,0.843,0.379,1.158c0.284,0.315,0.689,0.495,1.113,0.495h58.84c2.201,0,4.271-0.859,5.831-2.419
				c1.56-1.56,2.419-3.63,2.419-5.831C240.833,97.243,237.132,93.542,232.583,93.542z M236.292,105.501
				c-0.993,0.994-2.31,1.541-3.709,1.541h-57.33v-10.5h57.33c2.895,0,5.25,2.355,5.25,5.25
				C237.833,103.19,237.286,104.508,236.292,105.501z"/>
		</g>
	</g>
	<g>
		<g>
			<path class="st6" d="M81.917,85.563v22.687c0,5.224,4.235,9.458,9.458,9.458h72.917c5.224,0,9.458-4.235,9.458-9.458V85.563
				H81.917z"/>
		</g>
	</g>
	<g>
		<g>
			<path class="st0" d="M173.75,84.063H81.917c-0.829,0-1.5,0.671-1.5,1.5v22.687c0,6.042,4.916,10.958,10.958,10.958h72.917
				c6.042,0,10.958-4.916,10.958-10.958V85.563C175.25,84.734,174.579,84.063,173.75,84.063z M172.25,108.25
				c0,4.388-3.57,7.958-7.958,7.958H91.375c-4.388,0-7.958-3.57-7.958-7.958V87.063h88.833V108.25z"/>
		</g>
	</g>
	<g>
		<g>
			<path class="st6" d="M154.729,117.708h-53.792c-3.463,0-6.271,2.808-6.271,6.271s2.808,6.271,6.271,6.271h53.792
				c3.463,0,6.271-2.807,6.271-6.271S158.192,117.708,154.729,117.708z"/>
		</g>
	</g>
	<g>
		<g>
			<path class="st0" d="M154.729,116.208h-53.792c-4.285,0-7.771,3.486-7.771,7.771c0,4.285,3.486,7.771,7.771,7.771h53.792
				c4.285,0,7.771-3.486,7.771-7.771C162.5,119.694,159.014,116.208,154.729,116.208z M154.729,128.75h-53.792
				c-2.631,0-4.771-2.14-4.771-4.771c0-2.63,2.14-4.771,4.771-4.771h53.792c2.631,0,4.771,2.14,4.771,4.771
				C159.5,126.61,157.36,128.75,154.729,128.75z"/>
		</g>
	</g>
	<g>
		<g>
			<rect x="204.833" y="110.04" class="st9" width="13.33" height="102.38"/>
		</g>
	</g>
	<g>
		<g>
			<rect x="204.833" y="87.08" class="st9" width="13.33" height="6.46"/>
		</g>
	</g>
	<g>
		<g>
			<path class="st10" d="M226.083,18.25h-13.34c6.57,0,11.92,5.35,11.92,11.92v42c0,6.57-5.35,11.91-11.92,11.91h13.34
				c6.57,0,11.92-5.34,11.92-11.91v-42C238.003,23.6,232.653,18.25,226.083,18.25z"/>
		</g>
	</g>
	<g>
		<g>
			<path class="st10" d="M228.913,215.42h-13.33c5,0,9.08,4.07,9.08,9.08v4.17c0,5.01-4.08,9.08-9.08,9.08h13.33
				c5.01,0,9.09-4.07,9.09-9.08v-4.17C238.003,219.49,233.923,215.42,228.913,215.42z"/>
		</g>
	</g>
	<g>
		<g>
			<path class="st12" d="M232.583,96.54h-13.34c2.9,0,5.25,2.36,5.25,5.25c0,1.4-0.54,2.72-1.54,3.71
				c-0.99,0.99-2.31,1.54-3.71,1.54h13.34c1.4,0,2.72-0.55,3.71-1.54c0.99-0.99,1.54-2.31,1.54-3.71
				C237.833,98.9,235.473,96.54,232.583,96.54z"/>
		</g>
	</g>
</g>
</svg>
