<svg fill="#000000" xmlns="http://www.w3.org/2000/svg"  viewBox="0 0 48 48" width="24px" height="24px"><path d="M 16.5 5.5 C 12.826862 5.5 9.6336277 7.8328351 7.4570312 11.246094 C 5.280435 14.659352 4 19.228024 4 24.25 C 4 29.271976 5.280435 33.840648 7.4570312 37.253906 C 9.6336277 40.667165 12.826862 43 16.5 43 C 17.53907 43 18.554356 42.812927 19.513672 42.462891 A 1.50015 1.50015 0 0 0 19.71875 42.371094 C 22.564902 43.805076 26.060602 43.592848 29.394531 42.246094 C 33.164085 40.723367 36.863627 37.753366 39.720703 33.695312 C 42.570041 29.647503 44.169725 25.206666 44.384766 21.177734 C 44.599806 17.148803 43.373307 13.392209 40.363281 11.273438 C 38.245473 9.7826311 35.675867 9.3710339 33.013672 9.7890625 C 30.860797 10.127116 28.648974 11.015247 26.566406 12.306641 C 25.605391 10.453003 24.571862 8.8115478 23.068359 7.5820312 C 21.422423 6.2360368 19.2484 5.5 16.5 5.5 z M 16.5 8.5 C 18.7516 8.5 20.069359 9.0042913 21.169922 9.9042969 C 22.252991 10.789996 23.154648 12.190809 24.111328 14.085938 C 22.363532 15.523 20.716795 17.262906 19.279297 19.304688 C 18.861337 19.898446 18.668415 20.534468 18.304688 21.142578 C 17.782055 18.793171 18.748047 17.332031 18.748047 17.332031 A 1.50015 1.50015 0 1 0 16.251953 15.667969 C 16.251953 15.667969 13.845154 19.543823 16.158203 24.169922 A 1.50015 1.50015 0 0 0 16.472656 24.601562 C 15.451714 27.047051 14.739381 29.496295 14.615234 31.822266 C 14.450825 34.902604 15.132925 37.820961 16.806641 39.972656 C 16.703846 39.978199 16.603791 40 16.5 40 C 14.098138 40 11.790982 38.470617 9.9863281 35.640625 C 8.1816744 32.810633 7 28.755024 7 24.25 C 7 19.744976 8.1816744 15.689367 9.9863281 12.859375 C 11.790982 10.029383 14.098138 8.5 16.5 8.5 z M 35.21875 12.677734 C 35.575811 12.689604 35.923244 12.724041 36.257812 12.78125 C 37.149996 12.933806 37.956123 13.247465 38.636719 13.726562 C 40.594693 15.104791 41.567132 17.67401 41.388672 21.017578 C 41.210212 24.361146 39.82224 28.33956 37.267578 31.96875 C 34.719655 35.587697 31.40618 38.19857 28.271484 39.464844 C 25.136788 40.731117 22.321335 40.651721 20.363281 39.273438 C 18.405307 37.895209 17.432868 35.32599 17.611328 31.982422 C 17.789788 28.638854 19.17776 24.66044 21.732422 21.03125 C 23.261967 18.858729 25.040932 17.058508 26.888672 15.699219 C 29.717747 13.618711 32.719324 12.594647 35.21875 12.677734 z M 35.476562 14.978516 A 1.50015 1.50015 0 0 0 34.029297 16.794922 C 34.029297 16.794922 34.453868 19.082225 34.029297 21.205078 C 33.817012 22.266505 33.40661 23.222296 32.751953 23.876953 C 32.097296 24.53161 31.1875 25 29.5 25 C 26.960159 25 25.007339 25.741311 23.708984 26.974609 C 22.41063 28.207907 21.837434 29.812043 21.621094 31.28125 C 21.188412 34.219664 22.066406 36.9375 22.066406 36.9375 A 1.50015 1.50015 0 1 0 24.933594 36.0625 C 24.933594 36.0625 24.284322 33.780336 24.587891 31.71875 C 24.739675 30.687957 25.099839 29.792093 25.775391 29.150391 C 26.450942 28.508689 27.512341 28 29.5 28 C 31.8125 28 33.652704 27.21839 34.873047 25.998047 C 36.09339 24.777704 36.682988 23.233495 36.970703 21.794922 C 37.546132 18.917775 36.970703 16.205078 36.970703 16.205078 A 1.50015 1.50015 0 0 0 35.476562 14.978516 z"/></svg>