<?xml version="1.0" encoding="utf-8"?>
<!-- Generator: Adobe Illustrator 22.0.1, SVG Export Plug-In . SVG Version: 6.00 Build 0)  -->
<svg version="1.1" id="Layer_2" xmlns="http://www.w3.org/2000/svg" xmlns:xlink="http://www.w3.org/1999/xlink" x="0px" y="0px"
	 viewBox="0 0 256 256" style="enable-background:new 0 0 256 256;" xml:space="preserve">
<style type="text/css">
	.st0{fill:#3A312A;}
	.st1{fill:#D7E057;}
	.st2{fill:#FCE8CB;}
	.st3{fill:#8AC6DD;}
	.st4{fill-rule:evenodd;clip-rule:evenodd;fill:#FCE8CB;}
	.st5{fill:#F5978A;}
	.st6{fill:#87796F;}
	.st7{fill:#F16C7A;}
	.st8{fill:#68A8BC;}
	.st9{fill:#B9BC39;}
	.st10{fill:#CE4E61;}
	.st11{fill:#6B5B51;}
	.st12{fill:#CCAE8B;}
	.st13{fill-rule:evenodd;clip-rule:evenodd;fill:#F16C7A;}
</style>
<g>
	<g>
		<g>
			<path class="st1" d="M69.399,26.661c-0.974,11.564-13.025,13.39-13.025,13.39C66.721,40.538,69.3,54.11,69.3,54.11
				c0.221-9.677,13.321-14.202,13.321-14.202C72.807,39.32,69.399,26.661,69.399,26.661z"/>
		</g>
	</g>
	<g>
		<g>
			<path class="st0" d="M82.711,38.41c-8.604-0.515-11.832-12.024-11.863-12.141c-0.19-0.702-0.851-1.166-1.584-1.102
				c-0.725,0.066-1.298,0.642-1.359,1.367C67.045,36.75,56.592,38.499,56.15,38.567c-0.763,0.116-1.313,0.791-1.273,1.561
				c0.04,0.771,0.657,1.385,1.428,1.421c9.027,0.426,11.498,12.719,11.521,12.843c0.138,0.712,0.76,1.218,1.473,1.218
				c0.042,0,0.084-0.002,0.126-0.005c0.765-0.064,1.357-0.693,1.375-1.46c0.193-8.51,12.191-12.778,12.313-12.82
				c0.676-0.234,1.092-0.914,0.994-1.622C84.008,38.993,83.425,38.452,82.711,38.41z M69.145,48.756
				c-1.356-3.131-3.708-6.907-7.587-8.876c2.931-1.405,6.409-3.913,8.202-8.273c1.551,3.071,4.2,6.88,8.334,8.723
				C75.086,41.969,71.171,44.734,69.145,48.756z"/>
		</g>
	</g>
	<g>
		<g>
			<path class="st1" d="M47.7,43.642c-0.689,8.179-9.212,9.47-9.212,9.47c7.318,0.344,9.142,9.944,9.142,9.944
				c0.156-6.844,9.422-10.045,9.422-10.045C50.111,52.596,47.7,43.642,47.7,43.642z"/>
		</g>
	</g>
	<g>
		<g>
			<path class="st0" d="M57.142,51.514c-5.766-0.345-7.972-8.186-7.994-8.265c-0.189-0.702-0.866-1.168-1.581-1.102
				c-0.726,0.065-1.3,0.643-1.361,1.368c-0.578,6.871-7.646,8.066-7.941,8.113c-0.763,0.116-1.313,0.791-1.273,1.561
				c0.04,0.771,0.657,1.385,1.428,1.421c6.034,0.284,7.723,8.645,7.738,8.727c0.136,0.713,0.759,1.22,1.473,1.22
				c0.041,0,0.083-0.002,0.125-0.005c0.765-0.063,1.358-0.693,1.376-1.461c0.13-5.709,8.331-8.634,8.412-8.662
				c0.676-0.234,1.093-0.913,0.996-1.622C58.44,52.098,57.855,51.556,57.142,51.514z M47.557,58.309
				c-0.924-1.886-2.34-3.946-4.446-5.279c1.855-1.041,3.697-2.63,4.87-4.917c1.058,1.874,2.654,3.954,4.941,5.224
				C51.072,54.437,48.933,56.076,47.557,58.309z"/>
		</g>
	</g>
	<g>
		<g>
			<path class="st1" d="M47.7,16.984c-0.689,8.179-9.212,9.471-9.212,9.471c7.318,0.344,9.142,9.944,9.142,9.944
				c0.156-6.844,9.422-10.045,9.422-10.045C50.111,25.938,47.7,16.984,47.7,16.984z"/>
		</g>
	</g>
	<g>
		<g>
			<path class="st0" d="M57.142,24.856c-5.766-0.345-7.972-8.186-7.994-8.265c-0.189-0.702-0.866-1.167-1.581-1.102
				c-0.726,0.065-1.3,0.643-1.361,1.368c-0.578,6.87-7.646,8.066-7.941,8.113c-0.763,0.116-1.313,0.791-1.273,1.561
				c0.04,0.771,0.657,1.385,1.428,1.421c6.034,0.284,7.723,8.645,7.738,8.727c0.136,0.713,0.759,1.22,1.473,1.22
				c0.041,0,0.083-0.002,0.125-0.005c0.765-0.063,1.358-0.693,1.376-1.461c0.13-5.709,8.331-8.634,8.412-8.662
				c0.676-0.234,1.093-0.913,0.996-1.622C58.44,25.44,57.855,24.898,57.142,24.856z M47.557,31.651
				c-0.924-1.886-2.34-3.947-4.446-5.279c1.855-1.042,3.697-2.63,4.87-4.917c1.058,1.874,2.654,3.954,4.941,5.224
				C51.072,27.779,48.933,29.419,47.557,31.651z"/>
		</g>
	</g>
	<g>
		<g>
			<path class="st1" d="M147.488,185.03c-1.74-0.08-3.45-0.24-5.14-0.49v36.79c2.44-0.29,4.97-0.44,7.57-0.44
				c2.61,0,5.15,0.15,7.59,0.44v-36.79C154.248,185.01,150.908,185.179,147.488,185.03z"/>
		</g>
	</g>
	<g>
		<g>
			<path class="st0" d="M158.49,183.405c-0.33-0.284-0.761-0.415-1.197-0.351c-3.186,0.459-6.462,0.622-9.735,0.477
				c-1.709-0.079-3.388-0.239-4.99-0.476c-0.429-0.068-0.869,0.063-1.2,0.348c-0.33,0.285-0.52,0.699-0.52,1.136v36.791
				c0,0.429,0.184,0.837,0.504,1.122c0.321,0.284,0.743,0.418,1.174,0.367c4.796-0.572,10.037-0.568,14.805,0
				c0.06,0.007,0.119,0.011,0.178,0.011c0.365,0,0.72-0.133,0.996-0.378c0.32-0.285,0.504-0.693,0.504-1.122v-36.791
				C159.008,184.104,158.818,183.69,158.49,183.405z M156.008,219.664c-1.987-0.183-4.029-0.274-6.09-0.274
				c-2.05,0-4.085,0.092-6.07,0.274v-33.418c1.168,0.132,2.364,0.226,3.575,0.282c2.879,0.123,5.759,0.03,8.585-0.285V219.664z"/>
		</g>
	</g>
	<g>
		<g>
			<path class="st2" d="M200.679,116.347c-3.533-11.45-4.64-23.509-2.967-35.374l4.629-32.823H97.517l4.757,33.736
				c1.628,11.543,0.385,23.246-3.071,34.379c-1.801,5.802-2.633,12.031-2.302,18.5c1.388,27.118,23.46,49.049,50.587,50.263
				c30.436,1.363,55.539-22.909,55.539-53.044C203.027,126.54,202.204,121.29,200.679,116.347z"/>
		</g>
	</g>
	<g>
		<g>
			<path class="st0" d="M202.112,115.904c-3.558-11.528-4.539-23.211-2.916-34.723l4.629-32.823c0.061-0.43-0.068-0.865-0.354-1.192
				c-0.284-0.328-0.697-0.517-1.132-0.517H97.517c-0.435,0-0.848,0.188-1.132,0.517c-0.285,0.327-0.414,0.763-0.354,1.192
				l4.757,33.737c1.545,10.951,0.529,22.298-3.018,33.725c-1.903,6.132-2.699,12.531-2.367,19.021
				c1.42,27.74,24.268,50.443,52.017,51.686c0.848,0.038,1.692,0.058,2.534,0.058c14.136,0,27.44-5.321,37.702-15.134
				c10.879-10.402,16.87-24.419,16.87-39.466C204.526,126.506,203.714,121.096,202.112,115.904z M185.583,169.282
				c-10.275,9.826-23.792,14.877-38.028,14.248c-26.223-1.175-47.813-22.629-49.155-48.842c-0.314-6.137,0.438-12.186,2.236-17.979
				c3.679-11.853,4.729-23.639,3.123-35.032l-4.516-32.027h101.37l-4.388,31.114c-1.685,11.951-0.669,24.072,3.02,36.025
				c1.514,4.905,2.281,10.018,2.281,15.195C201.526,146.205,195.864,159.45,185.583,169.282z"/>
		</g>
	</g>
	<g>
		<g>
			<path class="st6" d="M200.679,116.347c-3.533-11.45-4.64-23.509-2.967-35.374l0.674-4.781h-96.915l0.803,5.694
				c1.628,11.544,0.385,23.246-3.071,34.379c-1.801,5.803-2.633,12.031-2.302,18.5c1.388,27.118,23.46,49.049,50.587,50.263
				c30.436,1.363,55.539-22.909,55.539-53.043C203.027,126.54,202.204,121.29,200.679,116.347z"/>
		</g>
	</g>
	<g>
		<g>
			<path class="st0" d="M202.112,115.904c-3.558-11.528-4.539-23.211-2.916-34.723l0.675-4.78c0.061-0.431-0.068-0.866-0.353-1.193
				c-0.285-0.328-0.698-0.517-1.133-0.517h-96.915c-0.435,0-0.848,0.188-1.132,0.517c-0.285,0.327-0.414,0.763-0.354,1.192
				l0.803,5.693c1.545,10.953,0.529,22.3-3.018,33.727c-1.903,6.132-2.699,12.531-2.367,19.021
				c1.42,27.74,24.268,50.443,52.017,51.686c0.848,0.038,1.692,0.058,2.534,0.058c14.136,0,27.44-5.321,37.702-15.134
				c10.879-10.402,16.87-24.419,16.87-39.466C204.526,126.505,203.714,121.095,202.112,115.904z M185.583,169.282
				c-10.275,9.826-23.792,14.877-38.028,14.248c-26.223-1.175-47.813-22.629-49.155-48.843c-0.314-6.136,0.438-12.185,2.236-17.979
				c3.679-11.853,4.729-23.64,3.123-35.033l-0.562-3.984h93.462l-0.434,3.071c0,0,0,0,0,0.001
				c-1.685,11.951-0.669,24.072,3.02,36.025c1.514,4.904,2.281,10.017,2.281,15.195C201.526,146.205,195.864,159.45,185.583,169.282
				z"/>
		</g>
	</g>
	<g>
		<g>
			<circle class="st1" cx="132.727" cy="52.25" r="23.941"/>
		</g>
	</g>
	<g>
		<g>
			<path class="st0" d="M132.728,26.81c-14.028,0-25.441,11.412-25.441,25.44s11.413,25.441,25.441,25.441
				s25.441-11.413,25.441-25.441S146.756,26.81,132.728,26.81z M132.728,74.691c-12.374,0-22.441-10.067-22.441-22.441
				s10.067-22.44,22.441-22.44s22.441,10.066,22.441,22.44S145.102,74.691,132.728,74.691z"/>
		</g>
	</g>
	<g>
		<g>
			
				<ellipse transform="matrix(0.7071 -0.7071 0.7071 0.7071 6.7883 120.8892)" class="st7" cx="149.32" cy="52.25" rx="23.941" ry="23.941"/>
		</g>
	</g>
	<g>
		<g>
			<path class="st0" d="M149.32,26.81c-14.028,0-25.44,11.412-25.44,25.44s11.412,25.441,25.44,25.441s25.441-11.413,25.441-25.441
				S163.349,26.81,149.32,26.81z M149.32,74.691c-12.374,0-22.44-10.067-22.44-22.441s10.066-22.44,22.44-22.44
				s22.441,10.066,22.441,22.44S161.694,74.691,149.32,74.691z"/>
		</g>
	</g>
	<g>
		<g>
			<polygon class="st3" points="200.882,16.559 197.873,23.635 192.149,37.095 175.524,76.191 190.382,76.191 215.741,16.559 			"/>
		</g>
	</g>
	<g>
		<g>
			<path class="st0" d="M216.992,15.732c-0.277-0.42-0.747-0.673-1.251-0.673h-14.858c-0.602,0-1.145,0.359-1.38,0.913l-3.01,7.075
				c-0.325,0.762,0.03,1.643,0.793,1.967c0.766,0.328,1.645-0.03,1.967-0.793l2.622-6.162h11.599l-24.083,56.632h-11.599
				l15.738-37.009c0.323-0.763-0.031-1.644-0.794-1.968c-0.764-0.323-1.643,0.031-1.968,0.794l-16.625,39.096
				c-0.196,0.463-0.148,0.994,0.13,1.414c0.277,0.42,0.747,0.673,1.251,0.673h14.858c0.602,0,1.145-0.359,1.381-0.913l25.357-59.632
				C217.318,16.684,217.271,16.152,216.992,15.732z"/>
		</g>
	</g>
	<g>
		<g>
			<path class="st0" d="M202.112,115.904c-3.558-11.528-4.539-23.211-2.916-34.723l4.629-32.823c0.061-0.43-0.068-0.865-0.354-1.192
				c-0.284-0.328-0.697-0.517-1.132-0.517H97.517c-0.435,0-0.848,0.188-1.132,0.517c-0.285,0.327-0.414,0.763-0.354,1.192
				l4.757,33.737c1.545,10.951,0.529,22.298-3.018,33.725c-1.903,6.132-2.699,12.531-2.367,19.021
				c1.42,27.74,24.268,50.443,52.017,51.686c0.848,0.038,1.692,0.058,2.534,0.058c14.136,0,27.44-5.321,37.702-15.134
				c10.879-10.402,16.87-24.419,16.87-39.466C204.526,126.506,203.714,121.096,202.112,115.904z M185.583,169.282
				c-10.275,9.826-23.792,14.877-38.028,14.248c-26.223-1.175-47.813-22.629-49.155-48.842c-0.314-6.137,0.438-12.186,2.236-17.979
				c3.679-11.853,4.729-23.639,3.123-35.032l-4.516-32.027h101.37l-4.388,31.114c-1.685,11.951-0.669,24.072,3.02,36.025
				c1.514,4.905,2.281,10.018,2.281,15.195C201.526,146.205,195.864,159.45,185.583,169.282z"/>
		</g>
	</g>
	<g>
		<g>
			<path class="st11" d="M199.248,116.79c-3.69-11.95-4.71-24.07-3.02-36.03l0.43-3.07h-7.66l-0.43,3.07
				c-1.69,11.96-0.67,24.08,3.01,36.03c1.52,4.91,2.29,10.02,2.29,15.2c0,14.22-5.67,27.46-15.95,37.29
				c-8.77,8.39-19.89,13.29-31.83,14.16c0.49,0.04,0.98,0.07,1.47,0.09c14.24,0.62,27.75-4.42,38.03-14.25
				c10.28-9.83,15.94-23.07,15.94-37.29C201.528,126.81,200.758,121.699,199.248,116.79z"/>
		</g>
	</g>
	<g>
		<g>
			<polygon class="st12" points="192.651,74.692 197.082,74.692 199.28,59.102 			"/>
		</g>
	</g>
	<g>
		<g>
			<polygon class="st8" points="205.848,18.06 193.688,46.649 201.318,46.649 213.468,18.06 			"/>
		</g>
	</g>
	<g>
		<g>
			<polygon class="st8" points="192.418,49.649 181.768,74.689 189.388,74.689 200.038,49.649 			"/>
		</g>
	</g>
	<g>
		<g>
			<path class="st7" d="M149.923,220.892c-19.431,0-35.186,8.311-35.186,18.567h70.383
				C185.12,229.203,169.365,220.892,149.923,220.892z"/>
		</g>
	</g>
	<g>
		<g>
			<path class="st0" d="M149.923,219.393c-20.572,0-36.687,8.814-36.687,20.066c0,0.828,0.672,1.5,1.5,1.5h17.855
				c0.828,0,1.5-0.672,1.5-1.5s-0.672-1.5-1.5-1.5h-16.22c1.556-8.58,16.287-15.566,33.551-15.566
				c17.27,0,32.005,6.986,33.562,15.566h-36.886c-0.828,0-1.5,0.672-1.5,1.5s0.672,1.5,1.5,1.5h38.521c0.828,0,1.5-0.672,1.5-1.5
				C186.62,228.207,170.501,219.393,149.923,219.393z"/>
		</g>
	</g>
	<g>
		<g>
			<path class="st10" d="M149.918,222.39c-1.64,0-3.25,0.06-4.83,0.18c15.11,1.16,27.32,7.62,28.73,15.39h9.67
				C181.928,229.379,167.188,222.39,149.918,222.39z"/>
		</g>
	</g>
</g>
</svg>
