<?xml version="1.0" encoding="utf-8"?>
<!-- Generator: Adobe Illustrator 22.0.1, SVG Export Plug-In . SVG Version: 6.00 Build 0)  -->
<svg version="1.1" id="Layer_2" xmlns="http://www.w3.org/2000/svg" xmlns:xlink="http://www.w3.org/1999/xlink" x="0px" y="0px"
	 viewBox="0 0 256 256" style="enable-background:new 0 0 256 256;" xml:space="preserve">
<style type="text/css">
	.st0{fill:#3A312A;}
	.st1{fill:#D7E057;}
	.st2{fill:#FCE8CB;}
	.st3{fill:#8AC6DD;}
	.st4{fill-rule:evenodd;clip-rule:evenodd;fill:#FCE8CB;}
	.st5{fill:#F5978A;}
	.st6{fill:#87796F;}
	.st7{fill:#F16C7A;}
	.st8{fill:#68A8BC;}
	.st9{fill:#B9BC39;}
	.st10{fill:#CE4E61;}
	.st11{fill:#6B5B51;}
	.st12{fill:#CCAE8B;}
	.st13{fill-rule:evenodd;clip-rule:evenodd;fill:#F16C7A;}
</style>
<g>
	<g>
		<g>
			<path class="st1" d="M51.305,26.178c-0.974,11.564-13.024,13.39-13.024,13.39c10.347,0.487,12.925,14.059,12.925,14.059
				c0.221-9.677,13.321-14.202,13.321-14.202C54.713,38.838,51.305,26.178,51.305,26.178z"/>
		</g>
	</g>
	<g>
		<g>
			<path class="st0" d="M64.617,37.927c-8.605-0.514-11.832-12.024-11.864-12.14c-0.191-0.703-0.866-1.168-1.583-1.102
				c-0.725,0.067-1.298,0.642-1.359,1.367c-0.86,10.215-11.313,11.963-11.754,12.032c-0.763,0.115-1.313,0.79-1.273,1.561
				c0.04,0.77,0.657,1.384,1.427,1.421c9.028,0.425,11.499,12.719,11.523,12.843c0.137,0.711,0.759,1.217,1.472,1.217
				c0.042,0,0.084-0.001,0.126-0.005c0.764-0.064,1.357-0.693,1.374-1.46c0.194-8.509,12.192-12.777,12.313-12.819
				c0.675-0.235,1.092-0.914,0.994-1.623C65.915,38.511,65.331,37.97,64.617,37.927z M51.051,48.273
				c-1.357-3.13-3.709-6.907-7.587-8.876c2.931-1.405,6.409-3.913,8.202-8.273c1.551,3.071,4.2,6.88,8.334,8.722
				C56.992,41.486,53.077,44.252,51.051,48.273z"/>
		</g>
	</g>
	<g>
		<g>
			<path class="st1" d="M29.607,43.159c-0.689,8.179-9.212,9.471-9.212,9.471c7.318,0.344,9.142,9.944,9.142,9.944
				c0.156-6.844,9.422-10.045,9.422-10.045C32.017,52.113,29.607,43.159,29.607,43.159z"/>
		</g>
	</g>
	<g>
		<g>
			<path class="st0" d="M39.048,51.031c-5.766-0.345-7.972-8.185-7.994-8.264c-0.19-0.702-0.852-1.169-1.582-1.102
				c-0.726,0.065-1.299,0.642-1.36,1.368c-0.579,6.871-7.647,8.066-7.942,8.113c-0.763,0.115-1.313,0.79-1.273,1.56
				c0.04,0.77,0.657,1.384,1.427,1.421c6.036,0.284,7.724,8.644,7.739,8.726c0.135,0.713,0.759,1.22,1.472,1.22
				c0.042,0,0.083-0.001,0.125-0.005c0.765-0.063,1.358-0.694,1.376-1.461c0.13-5.709,8.332-8.634,8.413-8.662
				c0.677-0.234,1.094-0.913,0.996-1.622C40.347,51.615,39.763,51.074,39.048,51.031z M29.463,57.826
				c-0.924-1.886-2.34-3.947-4.447-5.28c1.856-1.042,3.697-2.63,4.871-4.917c1.057,1.873,2.654,3.955,4.941,5.224
				C32.979,53.954,30.839,55.594,29.463,57.826z"/>
		</g>
	</g>
	<g>
		<g>
			<path class="st1" d="M29.607,16.501c-0.689,8.179-9.212,9.471-9.212,9.471c7.318,0.344,9.142,9.944,9.142,9.944
				c0.156-6.844,9.422-10.045,9.422-10.045C32.017,25.456,29.607,16.501,29.607,16.501z"/>
		</g>
	</g>
	<g>
		<g>
			<path class="st0" d="M39.048,24.373c-5.767-0.345-7.973-8.185-7.994-8.265c-0.19-0.702-0.852-1.17-1.582-1.102
				c-0.726,0.066-1.299,0.642-1.36,1.368c-0.579,6.871-7.647,8.067-7.942,8.114c-0.763,0.115-1.313,0.79-1.273,1.561
				c0.04,0.77,0.657,1.384,1.428,1.421c6.035,0.284,7.723,8.644,7.739,8.726c0.135,0.713,0.759,1.22,1.472,1.22
				c0.042,0,0.083-0.002,0.125-0.005c0.765-0.063,1.358-0.694,1.376-1.461c0.13-5.709,8.332-8.634,8.413-8.662
				c0.676-0.234,1.094-0.913,0.996-1.622C40.347,24.958,39.763,24.417,39.048,24.373z M29.463,31.168
				c-0.924-1.885-2.34-3.947-4.447-5.28c1.856-1.041,3.697-2.63,4.871-4.916c1.057,1.874,2.655,3.954,4.941,5.224
				C32.979,27.297,30.839,28.936,29.463,31.168z"/>
		</g>
	</g>
	<g>
		<g>
			<path class="st1" d="M181.945,90.808H64.686c-4.904,0-8.88,3.976-8.88,8.879v79.464c0,22.6,18.321,40.921,40.921,40.921h53.176
				c22.6,0,40.921-18.321,40.921-40.921V99.688C190.825,94.784,186.849,90.808,181.945,90.808z"/>
		</g>
	</g>
	<g>
		<g>
			<path class="st0" d="M181.945,89.309H64.686c-5.723,0-10.379,4.656-10.379,10.379v13.24c0,0.829,0.671,1.5,1.5,1.5
				c0.829,0,1.5-0.671,1.5-1.5v-13.24c0-4.069,3.311-7.379,7.379-7.379h117.259c4.069,0,7.379,3.31,7.379,7.379v79.464
				c0,21.737-17.684,39.421-39.421,39.421H96.728c-21.737,0-39.421-17.685-39.421-39.421v-51.463c0-0.829-0.671-1.5-1.5-1.5
				c-0.829,0-1.5,0.671-1.5,1.5v51.463c0,23.391,19.03,42.421,42.421,42.421h53.176c23.391,0,42.421-19.03,42.421-42.421V99.688
				C192.325,93.965,187.669,89.309,181.945,89.309z"/>
		</g>
	</g>
	<g>
		<g>
			<path class="st6" d="M36.159,220.073c0,10.728,8.697,19.426,19.426,19.426h135.461c10.728,0,19.426-8.697,19.426-19.426H36.159z"
				/>
		</g>
	</g>
	<g>
		<g>
			<path class="st0" d="M210.472,218.573H36.16c-0.829,0-1.5,0.671-1.5,1.5c0,11.538,9.387,20.926,20.925,20.926h89.35
				c0.829,0,1.5-0.671,1.5-1.5s-0.671-1.5-1.5-1.5h-89.35c-9.379,0-17.099-7.24-17.863-16.426H208.91
				c-0.765,9.185-8.484,16.426-17.864,16.426h-31.851c-0.829,0-1.5,0.671-1.5,1.5s0.671,1.5,1.5,1.5h31.851
				c11.539,0,20.926-9.387,20.926-20.926C211.972,219.244,211.301,218.573,210.472,218.573z"/>
		</g>
	</g>
	<g>
		<g>
			<path class="st1" d="M192.096,109.184c-0.43,0-0.85,0.01-1.27,0.02v14.01c0.42-0.02,0.84-0.03,1.27-0.03
				c16.27,0,29.51,13.24,29.51,29.51c0,16.26-13.24,29.5-29.51,29.5c-0.46,0-0.92-0.01-1.38-0.04c-0.35,4.87-1.56,9.51-3.48,13.76
				c1.59,0.19,3.22,0.28,4.86,0.28c23.99,0,43.51-19.52,43.51-43.5C235.606,128.704,216.086,109.184,192.096,109.184z"/>
		</g>
	</g>
	<g>
		<g>
			<path class="st0" d="M192.096,107.684c-0.407,0-0.805,0.009-1.202,0.018l-0.103,0.003c-0.815,0.019-1.465,0.685-1.465,1.5v14.01
				c0,0.41,0.168,0.803,0.465,1.086c0.297,0.283,0.701,0.432,1.107,0.413c0.397-0.019,0.793-0.029,1.199-0.029
				c15.445,0,28.01,12.565,28.01,28.011c0,15.44-12.566,28-28.01,28c-0.428,0-0.856-0.01-1.285-0.037
				c-0.812-0.052-1.533,0.568-1.591,1.39c-0.331,4.603-1.458,9.06-3.351,13.25c-0.196,0.435-0.174,0.939,0.061,1.355
				c0.235,0.416,0.654,0.695,1.128,0.752c1.615,0.193,3.31,0.291,5.038,0.291c24.819,0,45.01-20.187,45.01-45
				C237.106,127.876,216.915,107.684,192.096,107.684z M192.096,194.695c-0.907,0-1.803-0.029-2.681-0.086
				c1.377-3.501,2.271-7.158,2.669-10.914h0.011c17.099,0,31.01-13.907,31.01-31c0-17.022-13.787-30.885-30.78-31.01v-11
				c23.06,0.124,41.78,18.922,41.78,42.01C234.106,175.853,215.26,194.695,192.096,194.695z"/>
		</g>
	</g>
	<g>
		<g>
			<path class="st0" d="M94.854,75.815c-2.365-2.365-3.66-5.509-3.648-8.853c0.012-3.345,1.331-6.479,3.713-8.826
				c2.941-2.898,4.578-6.767,4.608-10.895c0.03-4.128-1.549-8.021-4.447-10.961l-0.435-0.442
				c-4.786-4.856-4.757-12.729,0.064-17.549l0.071-0.071c0.586-0.586,0.586-1.536,0-2.121c-0.586-0.586-1.535-0.586-2.121,0
				l-0.071,0.071c-5.982,5.982-6.018,15.75-0.08,21.775l0.435,0.442c2.335,2.37,3.608,5.507,3.584,8.834
				c-0.024,3.327-1.343,6.445-3.713,8.78c-2.956,2.913-4.592,6.802-4.607,10.952c-0.015,4.15,1.592,8.051,4.526,10.984l0.245,0.246
				c0.293,0.293,0.677,0.44,1.061,0.44c0.383,0,0.767-0.146,1.06-0.439c0.586-0.585,0.587-1.535,0.002-2.121L94.854,75.815z"/>
		</g>
	</g>
	<g>
		<g>
			<path class="st0" d="M114.981,75.815c-2.365-2.365-3.66-5.509-3.648-8.854c0.012-3.344,1.331-6.479,3.713-8.826
				c2.94-2.898,4.577-6.767,4.607-10.895c0.03-4.128-1.549-8.021-4.447-10.962l-0.435-0.44c-4.786-4.856-4.757-12.729,0.064-17.549
				l0.071-0.071c0.586-0.586,0.586-1.536,0-2.121c-0.586-0.586-1.535-0.586-2.121,0l-0.071,0.071
				c-5.982,5.982-6.018,15.75-0.079,21.777l0.435,0.44c2.336,2.37,3.608,5.507,3.583,8.834c-0.025,3.327-1.343,6.445-3.713,8.78
				c-2.956,2.912-4.592,6.802-4.607,10.952c-0.016,4.15,1.592,8.051,4.526,10.985l0.246,0.246c0.293,0.293,0.677,0.439,1.061,0.439
				c0.384,0,0.768-0.147,1.061-0.439c0.586-0.586,0.586-1.536,0-2.121L114.981,75.815z"/>
		</g>
	</g>
	<g>
		<g>
			<path class="st0" d="M133.77,75.815c-2.365-2.365-3.66-5.509-3.648-8.853c0.012-3.345,1.331-6.479,3.713-8.826
				c2.941-2.898,4.577-6.767,4.607-10.895c0.03-4.128-1.549-8.021-4.447-10.961l-0.435-0.441
				c-4.786-4.856-4.757-12.729,0.064-17.549l0.071-0.071c0.586-0.586,0.586-1.536,0-2.121c-0.586-0.586-1.535-0.586-2.121,0
				l-0.071,0.071c-5.982,5.982-6.018,15.75-0.079,21.776l0.435,0.441c2.335,2.37,3.608,5.507,3.583,8.834
				c-0.024,3.327-1.343,6.445-3.713,8.78c-2.956,2.912-4.593,6.802-4.608,10.952c-0.016,4.15,1.592,8.051,4.526,10.984l0.245,0.246
				c0.293,0.293,0.677,0.44,1.062,0.44c0.383,0,0.767-0.146,1.06-0.439c0.586-0.585,0.587-1.535,0.002-2.121L133.77,75.815z"/>
		</g>
	</g>
	<g>
		<g>
			<path class="st0" d="M153.898,75.815c-2.365-2.365-3.66-5.509-3.648-8.854c0.012-3.344,1.331-6.479,3.713-8.826
				c2.94-2.898,4.577-6.767,4.607-10.895c0.03-4.128-1.549-8.021-4.447-10.961l-0.435-0.441c-4.786-4.856-4.757-12.729,0.068-17.553
				l0.07-0.071c0.583-0.587,0.546-1.5-0.04-2.084c-0.587-0.585-1.57-0.548-2.155,0.037c-5.982,5.982-6.018,15.75-0.08,21.776
				l0.435,0.441c2.336,2.37,3.608,5.507,3.583,8.834c-0.025,3.327-1.343,6.445-3.713,8.78c-2.956,2.912-4.592,6.802-4.607,10.952
				c-0.016,4.15,1.592,8.051,4.527,10.986l0.246,0.246c0.293,0.293,0.676,0.439,1.06,0.439c0.384,0,0.769-0.147,1.061-0.44
				c0.586-0.586,0.585-1.536-0.002-2.121L153.898,75.815z"/>
		</g>
	</g>
	<g>
		<g>
			<path class="st9" d="M181.946,92.308h-13.69c4.07,0,7.38,3.31,7.38,7.38v79.46c0,1.22-0.06,2.43-0.17,3.62
				c-0.02,0.21-0.04,0.42-0.06,0.62c-0.06,0.52-0.12,1.03-0.2,1.54c-0.01,0.09-0.02,0.18-0.03,0.28c-0.3,1.93-0.74,3.81-1.31,5.63
				c-0.01,0.03-0.01,0.05-0.02,0.07c-0.18,0.57-0.37,1.13-0.57,1.68c-0.03,0.09-0.07,0.19-0.1,0.28c-0.18,0.48-0.37,0.95-0.56,1.42
				c-0.06,0.14-0.12,0.27-0.18,0.41c-6.05,14.03-20,23.87-36.22,23.87h13.69c16.22,0,30.17-9.84,36.22-23.87
				c0.06-0.14,0.12-0.27,0.17-0.41c0.2-0.47,0.39-0.94,0.56-1.42c0.04-0.09,0.07-0.19,0.11-0.28c0.2-0.55,0.39-1.11,0.57-1.68
				c0-0.02,0.01-0.04,0.02-0.07c0.57-1.82,1-3.7,1.3-5.63c0.02-0.1,0.03-0.19,0.04-0.28c0.08-0.51,0.14-1.02,0.2-1.54
				c0.02-0.2,0.04-0.41,0.06-0.62c0.11-1.19,0.17-2.4,0.17-3.62v-79.46C189.326,95.619,186.016,92.308,181.946,92.308z"/>
		</g>
	</g>
	<g>
		<g>
			<path class="st11" d="M193.21,221.57c0,0.001,0,0.002,0,0.003c-0.761,9.179-8.464,16.41-17.829,16.426
				c-0.01,0-0.02,0.002-0.03,0.002h15.7c9.38,0,17.1-7.24,17.86-16.43H193.21z"/>
		</g>
	</g>
</g>
</svg>
