<?xml version="1.0" encoding="utf-8"?>
<!-- Generator: Adobe Illustrator 22.0.1, SVG Export Plug-In . SVG Version: 6.00 Build 0)  -->
<svg version="1.1" id="Layer_2" xmlns="http://www.w3.org/2000/svg" xmlns:xlink="http://www.w3.org/1999/xlink" x="0px" y="0px"
	 viewBox="0 0 256 256" style="enable-background:new 0 0 256 256;" xml:space="preserve">
<style type="text/css">
	.st0{fill:#3A312A;}
	.st1{fill:#D7E057;}
	.st2{fill:#FCE8CB;}
	.st3{fill:#8AC6DD;}
	.st4{fill-rule:evenodd;clip-rule:evenodd;fill:#FCE8CB;}
	.st5{fill:#F5978A;}
	.st6{fill:#87796F;}
	.st7{fill:#F16C7A;}
	.st8{fill:#68A8BC;}
	.st9{fill:#B9BC39;}
	.st10{fill:#CE4E61;}
	.st11{fill:#6B5B51;}
	.st12{fill:#CCAE8B;}
	.st13{fill-rule:evenodd;clip-rule:evenodd;fill:#F16C7A;}
</style>
<g>
	<g>
		<g>
			<path class="st1" d="M62.926,26.057c-0.974,11.564-13.024,13.39-13.024,13.39c10.347,0.487,12.925,14.059,12.925,14.059
				c0.221-9.677,13.321-14.202,13.321-14.202C66.335,38.716,62.926,26.057,62.926,26.057z"/>
		</g>
	</g>
	<g>
		<g>
			<path class="st0" d="M76.238,37.806c-8.605-0.514-11.832-12.024-11.864-12.14c-0.191-0.703-0.861-1.167-1.584-1.102
				c-0.725,0.066-1.298,0.642-1.359,1.367c-0.86,10.215-11.313,11.964-11.754,12.033c-0.763,0.115-1.313,0.79-1.273,1.561
				c0.04,0.77,0.657,1.384,1.428,1.421c9.028,0.425,11.499,12.718,11.523,12.842c0.137,0.711,0.759,1.217,1.472,1.217
				c0.042,0,0.084-0.002,0.126-0.005c0.764-0.064,1.357-0.693,1.375-1.46c0.195-8.509,12.192-12.777,12.313-12.819
				c0.675-0.235,1.092-0.914,0.994-1.623C77.536,38.39,76.952,37.849,76.238,37.806z M62.672,48.152
				c-1.357-3.13-3.709-6.907-7.587-8.876c2.931-1.405,6.409-3.913,8.202-8.273c1.551,3.071,4.2,6.88,8.335,8.722
				C68.614,41.365,64.698,44.131,62.672,48.152z"/>
		</g>
	</g>
	<g>
		<g>
			<path class="st1" d="M41.228,43.037c-0.689,8.179-9.212,9.471-9.212,9.471c7.318,0.344,9.142,9.944,9.142,9.944
				c0.156-6.844,9.422-10.045,9.422-10.045C43.638,51.992,41.228,43.037,41.228,43.037z"/>
		</g>
	</g>
	<g>
		<g>
			<path class="st0" d="M50.669,50.91c-5.767-0.345-7.973-8.186-7.994-8.265c-0.19-0.702-0.851-1.17-1.582-1.102
				c-0.726,0.065-1.299,0.643-1.36,1.368c-0.579,6.871-7.646,8.067-7.942,8.114c-0.763,0.115-1.313,0.79-1.273,1.56
				c0.04,0.77,0.657,1.384,1.428,1.421c6.035,0.284,7.723,8.644,7.739,8.725c0.135,0.713,0.759,1.22,1.472,1.22
				c0.042,0,0.083-0.001,0.125-0.005c0.765-0.063,1.358-0.694,1.376-1.461c0.13-5.709,8.332-8.633,8.413-8.661
				c0.676-0.234,1.094-0.913,0.996-1.622C51.968,51.494,51.384,50.953,50.669,50.91z M41.084,57.705
				c-0.924-1.886-2.34-3.947-4.447-5.28c1.855-1.041,3.697-2.629,4.87-4.916c1.057,1.873,2.655,3.954,4.941,5.224
				C44.6,53.833,42.46,55.472,41.084,57.705z"/>
		</g>
	</g>
	<g>
		<g>
			<path class="st1" d="M41.228,16.38c-0.689,8.179-9.212,9.471-9.212,9.471c7.318,0.344,9.142,9.944,9.142,9.944
				c0.156-6.845,9.422-10.045,9.422-10.045C43.638,25.334,41.228,16.38,41.228,16.38z"/>
		</g>
	</g>
	<g>
		<g>
			<path class="st0" d="M50.669,24.252c-5.767-0.345-7.973-8.186-7.994-8.265c-0.19-0.702-0.851-1.17-1.582-1.102
				c-0.726,0.065-1.299,0.643-1.36,1.368c-0.579,6.871-7.646,8.067-7.942,8.114c-0.763,0.115-1.313,0.79-1.273,1.56
				c0.04,0.77,0.657,1.384,1.427,1.421c6.036,0.284,7.724,8.644,7.739,8.726c0.135,0.713,0.759,1.22,1.472,1.22
				c0.042,0,0.083-0.001,0.125-0.005c0.765-0.063,1.358-0.694,1.376-1.461c0.13-5.71,8.332-8.634,8.413-8.662
				c0.676-0.234,1.094-0.913,0.996-1.622C51.968,24.836,51.384,24.295,50.669,24.252z M41.084,31.047
				c-0.924-1.885-2.34-3.947-4.447-5.279c1.856-1.042,3.697-2.63,4.871-4.917c1.057,1.874,2.655,3.954,4.941,5.224
				C44.6,27.175,42.46,28.815,41.084,31.047z"/>
		</g>
	</g>
	<g>
		<g>
			<path class="st7" d="M85.662,82.12v143c0,8.01,6.49,14.5,14.5,14.5h109.32c8.01,0,14.5-6.49,14.5-14.5v-143H85.662z"/>
		</g>
	</g>
	<g>
		<g>
			<path class="st0" d="M223.982,80.62H85.663c-0.829,0-1.5,0.671-1.5,1.5v32.571c0,0.829,0.671,1.5,1.5,1.5
				c0.829,0,1.5-0.671,1.5-1.5V83.62h135.32v141.5c0,7.169-5.832,13-13,13h-109.32c-7.169,0-13-5.831-13-13v-94.904
				c0-0.829-0.671-1.5-1.5-1.5c-0.829,0-1.5,0.671-1.5,1.5v94.904c0,8.822,7.178,16,16,16h109.32c8.822,0,16-7.178,16-16v-143
				C225.482,81.292,224.811,80.62,223.982,80.62z"/>
		</g>
	</g>
	<g>
		<g>
			<polygon class="st1" points="213.448,36.901 96.239,36.901 85.66,82.12 223.985,82.12 			"/>
		</g>
	</g>
	<g>
		<g>
			<path class="st0" d="M225.445,81.78l-10.537-45.22c-0.158-0.679-0.764-1.16-1.461-1.16H96.239c-0.697,0-1.302,0.48-1.461,1.158
				L84.2,81.778c-0.104,0.446,0.001,0.915,0.285,1.274c0.285,0.359,0.717,0.568,1.175,0.568h138.324
				c0.458,0,0.891-0.209,1.175-0.567S225.549,82.226,225.445,81.78z M87.552,80.62l9.877-42.22h114.828l9.838,42.22H87.552z"/>
		</g>
	</g>
	<g>
		<g>
			<path class="st1" d="M202.613,16.62h-95.581c-5.96,0-10.791,4.831-10.791,10.791v9.49h117.162v-9.49
				C213.404,21.451,208.573,16.62,202.613,16.62z"/>
		</g>
	</g>
	<g>
		<g>
			<path class="st0" d="M202.613,15.12h-29.296c-0.828,0-1.5,0.671-1.5,1.5c0,0.829,0.672,1.5,1.5,1.5h29.296
				c5.122,0,9.29,4.168,9.29,9.291v7.99H97.741v-7.99c0-5.123,4.168-9.291,9.291-9.291h51.295c0.828,0,1.5-0.671,1.5-1.5
				c0-0.829-0.672-1.5-1.5-1.5h-51.295c-6.777,0-12.291,5.514-12.291,12.291v9.49c0,0.829,0.671,1.5,1.5,1.5h117.162
				c0.828,0,1.5-0.671,1.5-1.5v-9.49C214.903,20.634,209.39,15.12,202.613,15.12z"/>
		</g>
	</g>
	<g>
		<g>
			
				<ellipse transform="matrix(0.9239 -0.3827 0.3827 0.9239 -49.2412 71.7845)" class="st2" cx="155.822" cy="159.668" rx="46.321" ry="46.321"/>
		</g>
	</g>
	<g>
		<g>
			<path class="st0" d="M155.822,111.847c-26.369,0-47.821,21.453-47.821,47.821s21.452,47.821,47.821,47.821
				c26.368,0,47.82-21.452,47.82-47.821S182.19,111.847,155.822,111.847z M155.822,204.489c-24.715,0-44.821-20.106-44.821-44.821
				s20.106-44.821,44.821-44.821c24.714,0,44.82,20.107,44.82,44.821S180.536,204.489,155.822,204.489z"/>
		</g>
	</g>
	<g>
		<g>
			<ellipse class="st6" cx="155.822" cy="159.787" rx="18.5" ry="29.353"/>
		</g>
	</g>
	<g>
		<g>
			<path class="st0" d="M155.822,128.934c-11.028,0-20,13.841-20,30.853c0,17.013,8.972,30.854,20,30.854
				c11.028,0,20-13.841,20-30.854C175.822,142.774,166.851,128.934,155.822,128.934z M155.822,187.64c-9.374,0-17-12.495-17-27.854
				s7.626-27.853,17-27.853c9.374,0,17,12.495,17,27.853S165.196,187.64,155.822,187.64z"/>
		</g>
	</g>
	<g>
		<g>
			<path class="st0" d="M157.315,159.021l-0.753-0.648c-4.167-3.584-6.451-8.31-6.434-13.305c0.019-5.004,2.344-9.725,6.552-13.292
				l0.122-0.104c0.631-0.537,0.706-1.484,0.169-2.114c-0.537-0.629-1.482-0.707-2.114-0.169l-0.119,0.102
				c-4.886,4.143-7.588,9.671-7.609,15.567c-0.02,5.887,2.635,11.424,7.477,15.59l0.753,0.648c4.185,3.6,6.469,8.346,6.432,13.363
				c-0.036,5.035-2.403,9.77-6.666,13.332c-0.636,0.531-0.721,1.477-0.189,2.113c0.297,0.355,0.723,0.538,1.152,0.538
				c0.339,0,0.68-0.114,0.961-0.349c4.95-4.136,7.699-9.68,7.742-15.612C164.833,168.767,162.179,163.206,157.315,159.021z"/>
		</g>
	</g>
	<g>
		<g>
			<path class="st10" d="M210.152,83.62v141.5c0,7.17-5.84,13-13,13h12.33c7.17,0,13-5.83,13-13V83.62H210.152z"/>
		</g>
	</g>
	<g>
		<g>
			<polygon class="st9" points="212.262,38.4 199.922,38.4 209.762,80.62 222.092,80.62 			"/>
		</g>
	</g>
	<g>
		<g>
			<path class="st9" d="M202.612,18.12h-12.33c5.12,0,9.29,4.17,9.29,9.29v7.99h12.33v-7.99
				C211.902,22.29,207.732,18.12,202.612,18.12z"/>
		</g>
	</g>
</g>
</svg>
