<?xml version="1.0" encoding="utf-8"?>
<!-- Generator: Adobe Illustrator 22.0.1, SVG Export Plug-In . SVG Version: 6.00 Build 0)  -->
<svg version="1.1" id="Layer_2" xmlns="http://www.w3.org/2000/svg" xmlns:xlink="http://www.w3.org/1999/xlink" x="0px" y="0px"
	 viewBox="0 0 256 256" style="enable-background:new 0 0 256 256;" xml:space="preserve">
<style type="text/css">
	.st0{fill:#3A312A;}
	.st1{fill:#D7E057;}
	.st2{fill:#FCE8CB;}
	.st3{fill:#8AC6DD;}
	.st4{fill-rule:evenodd;clip-rule:evenodd;fill:#FCE8CB;}
	.st5{fill:#F5978A;}
	.st6{fill:#87796F;}
	.st7{fill:#F16C7A;}
	.st8{fill:#68A8BC;}
	.st9{fill:#B9BC39;}
	.st10{fill:#CE4E61;}
	.st11{fill:#6B5B51;}
	.st12{fill:#CCAE8B;}
	.st13{fill-rule:evenodd;clip-rule:evenodd;fill:#F16C7A;}
</style>
<g>
	<g>
		<g>
			<path class="st6" d="M235.584,164.405L202.831,79.44c-4.34-11.336-16.454-17.516-28.181-14.372l-33.019,8.852
				c-3.859,1.034-6.148,5.001-5.113,8.859c1.034,3.859,5,6.148,8.859,5.113l33.019-8.852c4.545-1.217,9.244,1.177,10.927,5.573
				l32.753,84.966c1.103,2.88,3.846,4.648,6.756,4.648c0.86,0,1.734-0.155,2.585-0.48
				C235.147,172.317,237.013,168.135,235.584,164.405z"/>
		</g>
	</g>
	<g>
		<g>
			<path class="st0" d="M236.984,163.865l-32.752-84.962c-4.616-12.057-17.5-18.63-29.97-15.285l-33.018,8.852
				c-2.254,0.604-4.137,2.049-5.303,4.069c-1.166,2.02-1.476,4.374-0.871,6.626c0.604,2.254,2.049,4.137,4.069,5.303
				c2.02,1.165,4.373,1.475,6.626,0.871l33.019-8.852c3.802-1.015,7.73,0.984,9.139,4.664l32.752,84.963
				c1.285,3.356,4.563,5.611,8.157,5.611c1.068,0,2.119-0.195,3.121-0.58c2.179-0.834,3.902-2.467,4.852-4.597
				C237.755,168.419,237.819,166.046,236.984,163.865z M234.065,169.327c-0.623,1.398-1.755,2.47-3.185,3.018
				c-0.659,0.252-1.348,0.381-2.048,0.381c-2.359,0-4.511-1.48-5.356-3.688l-32.752-84.963c-1.615-4.217-5.615-6.853-9.936-6.853
				c-0.919,0-1.852,0.119-2.78,0.368l-33.02,8.852c-1.479,0.398-3.023,0.194-4.35-0.572c-1.326-0.765-2.274-2.001-2.671-3.481
				c-0.396-1.479-0.193-3.023,0.572-4.35c0.766-1.326,2.002-2.275,3.481-2.671l33.019-8.852c10.98-2.942,22.327,2.842,26.393,13.463
				l32.752,84.962C234.731,166.371,234.689,167.929,234.065,169.327z"/>
		</g>
	</g>
	<g>
		<g>
			<path class="st2" d="M101.321,79.033c-46.858,0-84.843,34.066-84.843,76.088c0,7.428,1.187,14.606,3.4,21.392
				c9.142,28.032,35.857,46.576,65.342,46.576h32.203c29.485,0,56.201-18.544,65.342-46.576c2.213-6.786,3.4-13.965,3.4-21.392
				C186.164,113.098,148.179,79.033,101.321,79.033z"/>
		</g>
	</g>
	<g>
		<g>
			<path class="st0" d="M101.321,77.533c-47.61,0-86.343,34.806-86.343,77.588c0,7.435,1.169,14.789,3.474,21.857
				c9.287,28.478,36.119,47.611,66.768,47.611h32.203c30.649,0,57.481-19.133,66.769-47.611c2.305-7.067,3.473-14.421,3.473-21.857
				C187.664,112.338,148.931,77.533,101.321,77.533z M181.338,176.048c-8.883,27.239-34.569,45.541-63.916,45.541H85.22
				c-29.347,0-55.033-18.302-63.916-45.541c-2.207-6.768-3.326-13.809-3.326-20.927c0-41.128,37.388-74.588,83.343-74.588
				c45.956,0,83.343,33.46,83.343,74.588C184.664,162.24,183.545,169.281,181.338,176.048z"/>
		</g>
	</g>
	<g>
		<g>
			<path class="st6" d="M184.933,142.258H17.709c-0.795,4.183-1.232,8.476-1.232,12.862c0,7.427,1.187,14.606,3.4,21.392
				c9.142,28.033,35.857,46.576,65.342,46.576h32.203c29.485,0,56.201-18.544,65.342-46.576c2.213-6.786,3.4-13.965,3.4-21.392
				C186.164,150.734,185.727,146.442,184.933,142.258z"/>
		</g>
	</g>
	<g>
		<g>
			<path class="st0" d="M186.406,141.979c-0.134-0.708-0.754-1.22-1.474-1.22h-35.488c-0.829,0-1.5,0.671-1.5,1.5s0.671,1.5,1.5,1.5
				h34.235c0.653,3.805,0.984,7.622,0.984,11.362c0,7.12-1.119,14.161-3.326,20.927c-8.883,27.239-34.569,45.541-63.916,45.541
				H85.22c-29.347,0-55.033-18.302-63.916-45.541c-2.207-6.768-3.326-13.809-3.326-20.927c0-3.738,0.331-7.555,0.984-11.362h115.429
				c0.829,0,1.5-0.671,1.5-1.5s-0.671-1.5-1.5-1.5H17.709c-0.721,0-1.339,0.512-1.474,1.22c-0.835,4.395-1.258,8.817-1.258,13.142
				c0,7.435,1.169,14.789,3.474,21.857c9.287,28.478,36.119,47.611,66.768,47.611h32.203c30.649,0,57.481-19.133,66.769-47.611
				c2.305-7.067,3.473-14.421,3.473-21.857C187.664,150.792,187.241,146.371,186.406,141.979z"/>
		</g>
	</g>
	<g>
		<g>
			<path class="st1" d="M146.629,67.223H56.013c-3.283,0-5.944,2.661-5.944,5.944v10.679c0,3.282,2.661,5.944,5.944,5.944h90.616
				c3.282,0,5.943-2.661,5.943-5.944V73.167C152.573,69.884,149.911,67.223,146.629,67.223z"/>
		</g>
	</g>
	<g>
		<g>
			<path class="st0" d="M146.629,65.723H56.013c-4.104,0-7.443,3.339-7.443,7.443v10.68c0,4.104,3.339,7.443,7.443,7.443h90.616
				c4.104,0,7.444-3.339,7.444-7.443v-10.68C154.073,69.062,150.733,65.723,146.629,65.723z M151.073,83.846
				c0,2.45-1.994,4.443-4.444,4.443H56.013c-2.45,0-4.443-1.993-4.443-4.443v-10.68c0-2.45,1.993-4.443,4.443-4.443h90.616
				c2.45,0,4.444,1.993,4.444,4.443V83.846z"/>
		</g>
	</g>
	<g>
		<g>
			<path class="st7" d="M144.324,50.116l-55.163-8.096l-14.777-2.168l-43.614-6.4c-1.949-0.286-3.152,2.062-1.781,3.477
				l29.359,30.294h87.739V52.157C146.087,51.133,145.337,50.264,144.324,50.116z"/>
		</g>
	</g>
	<g>
		<g>
			<path class="st0" d="M144.542,48.632l-55.163-8.096c-0.817-0.126-1.582,0.446-1.702,1.266c-0.121,0.82,0.446,1.582,1.266,1.702
				l55.163,8.096c0.275,0.04,0.481,0.279,0.481,0.557v13.566H58.983L30.067,35.885c-0.244-0.252-0.166-0.515-0.097-0.649
				c0.069-0.133,0.237-0.346,0.582-0.3l43.614,6.4c0.813,0.123,1.581-0.447,1.702-1.266c0.121-0.82-0.446-1.582-1.266-1.702
				l-43.614-6.4c-1.535-0.225-2.982,0.521-3.688,1.9c-0.707,1.38-0.467,2.991,0.612,4.104l29.358,30.294
				c0.283,0.292,0.671,0.456,1.077,0.456h87.739c0.829,0,1.5-0.671,1.5-1.5V52.157C147.587,50.402,146.278,48.887,144.542,48.632z"
				/>
		</g>
	</g>
	<g>
		<g>
			<path class="st1" d="M226.3,25.92c-0.974,11.564-13.024,13.389-13.024,13.389c10.347,0.487,12.925,14.059,12.925,14.059
				c0.221-9.677,13.321-14.202,13.321-14.202C229.708,38.579,226.3,25.92,226.3,25.92z"/>
		</g>
	</g>
	<g>
		<g>
			<path class="st0" d="M239.612,37.669c-8.606-0.515-11.833-12.024-11.864-12.141c-0.191-0.703-0.866-1.165-1.583-1.102
				c-0.725,0.066-1.298,0.642-1.359,1.367c-0.86,10.215-11.313,11.964-11.754,12.033c-0.763,0.115-1.313,0.79-1.273,1.561
				c0.04,0.77,0.657,1.384,1.428,1.421c9.028,0.425,11.499,12.718,11.522,12.842c0.137,0.711,0.759,1.217,1.472,1.217
				c0.042,0,0.084-0.001,0.126-0.005c0.764-0.064,1.357-0.693,1.375-1.459c0.194-8.508,12.192-12.777,12.313-12.819
				c0.675-0.235,1.092-0.914,0.994-1.623C240.91,38.253,240.326,37.712,239.612,37.669z M226.046,48.015
				c-1.356-3.13-3.709-6.907-7.587-8.876c2.931-1.405,6.409-3.913,8.202-8.272c1.551,3.071,4.2,6.88,8.334,8.722
				C231.987,41.228,228.072,43.993,226.046,48.015z"/>
		</g>
	</g>
	<g>
		<g>
			<path class="st1" d="M204.602,42.901c-0.689,8.179-9.212,9.47-9.212,9.47c7.318,0.344,9.142,9.944,9.142,9.944
				c0.156-6.844,9.422-10.045,9.422-10.045C207.012,51.855,204.602,42.901,204.602,42.901z"/>
		</g>
	</g>
	<g>
		<g>
			<path class="st0" d="M214.043,50.772c-5.766-0.345-7.972-8.185-7.994-8.264c-0.19-0.702-0.856-1.171-1.582-1.102
				c-0.726,0.065-1.299,0.642-1.36,1.368c-0.579,6.87-7.646,8.066-7.942,8.113c-0.763,0.115-1.313,0.79-1.273,1.561
				c0.04,0.77,0.657,1.384,1.427,1.421c6.036,0.284,7.724,8.644,7.739,8.726c0.135,0.713,0.759,1.22,1.472,1.22
				c0.042,0,0.083-0.001,0.125-0.005c0.765-0.063,1.358-0.694,1.376-1.461c0.13-5.709,8.332-8.634,8.413-8.662
				c0.676-0.234,1.094-0.913,0.996-1.622C215.342,51.357,214.758,50.815,214.043,50.772z M204.458,57.567
				c-0.924-1.885-2.34-3.947-4.447-5.28c1.856-1.041,3.697-2.629,4.871-4.916c1.057,1.874,2.654,3.955,4.941,5.224
				C207.973,53.696,205.834,55.335,204.458,57.567z"/>
		</g>
	</g>
	<g>
		<g>
			<path class="st1" d="M204.602,16.243c-0.689,8.179-9.212,9.47-9.212,9.47c7.318,0.344,9.142,9.944,9.142,9.944
				c0.156-6.844,9.422-10.045,9.422-10.045C207.012,25.197,204.602,16.243,204.602,16.243z"/>
		</g>
	</g>
	<g>
		<g>
			<path class="st0" d="M214.044,24.115c-5.767-0.345-7.973-8.186-7.994-8.265c-0.19-0.702-0.856-1.164-1.582-1.102
				c-0.726,0.065-1.299,0.642-1.36,1.368c-0.579,6.871-7.646,8.067-7.942,8.114c-0.763,0.115-1.314,0.79-1.273,1.561
				c0.04,0.77,0.657,1.384,1.428,1.421c6.035,0.284,7.723,8.644,7.739,8.726c0.135,0.713,0.759,1.22,1.472,1.22
				c0.042,0,0.083-0.001,0.125-0.005c0.765-0.063,1.358-0.694,1.376-1.461c0.13-5.709,8.332-8.634,8.413-8.662
				c0.676-0.234,1.094-0.913,0.996-1.622C215.342,24.7,214.758,24.158,214.044,24.115z M204.458,30.91
				c-0.924-1.885-2.34-3.947-4.447-5.28c1.856-1.041,3.697-2.63,4.871-4.916c1.057,1.874,2.655,3.954,4.941,5.224
				C207.974,27.039,205.834,28.678,204.458,30.91z"/>
		</g>
	</g>
	<g>
		<g>
			<path class="st7" d="M135.171,222.355h-66.1c-9.611,0-17.402,7.791-17.402,17.402h100.903
				C152.573,230.146,144.781,222.355,135.171,222.355z"/>
		</g>
	</g>
	<g>
		<g>
			<path class="st0" d="M135.171,220.855h-66.1c-10.422,0-18.901,8.479-18.901,18.902c0,0.829,0.671,1.5,1.5,1.5h100.903
				c0.829,0,1.5-0.671,1.5-1.5C154.073,229.334,145.593,220.855,135.171,220.855z M53.24,238.257
				c0.758-8.067,7.569-14.402,15.831-14.402h66.1c8.263,0,15.074,6.334,15.831,14.402H53.24z"/>
		</g>
	</g>
	<g>
		<g>
			<path class="st12" d="M144.398,91.288h-14.08c19.73,10.71,34.12,28.54,38.7,49.47h14.08
				C178.518,119.828,164.128,101.998,144.398,91.288z"/>
		</g>
	</g>
	<g>
		<g>
			<path class="st11" d="M183.678,143.758h-14.07c0.65,3.81,0.98,7.62,0.98,11.36c0,7.12-1.12,14.16-3.33,20.93
				c-7.85,24.08-28.84,41.17-53.88,44.81h14.08c25.04-3.64,46.03-20.73,53.88-44.81c2.21-6.77,3.33-13.81,3.33-20.93
				C184.668,151.378,184.338,147.568,183.678,143.758z"/>
		</g>
	</g>
	<g>
		<g>
			<path class="st9" d="M146.628,68.718h-14.08c2.46,0,4.45,2,4.45,4.45v10.68c0,2.45-1.99,4.44-4.45,4.44h14.08
				c2.45,0,4.44-1.99,4.44-4.44v-10.68C151.068,70.718,149.078,68.718,146.628,68.718z"/>
		</g>
	</g>
	<g>
		<g>
			<path class="st10" d="M144.108,51.598l-13.357-1.96v16.08h13.837v-13.56C144.588,51.878,144.378,51.638,144.108,51.598z"/>
		</g>
	</g>
	<g>
		<g>
			<path class="st10" d="M135.168,223.858h-14.07c8.26,0,15.07,6.33,15.83,14.4h14.07
				C150.248,230.188,143.438,223.858,135.168,223.858z"/>
		</g>
	</g>
</g>
</svg>
