<?xml version="1.0" encoding="utf-8"?>
<!-- Generator: Adobe Illustrator 22.0.1, SVG Export Plug-In . SVG Version: 6.00 Build 0)  -->
<svg version="1.1" id="Layer_2" xmlns="http://www.w3.org/2000/svg" xmlns:xlink="http://www.w3.org/1999/xlink" x="0px" y="0px"
	 viewBox="0 0 256 256" style="enable-background:new 0 0 256 256;" xml:space="preserve">
<style type="text/css">
	.st0{fill:#3A312A;}
	.st1{fill:#D7E057;}
	.st2{fill:#FCE8CB;}
	.st3{fill:#8AC6DD;}
	.st4{fill-rule:evenodd;clip-rule:evenodd;fill:#FCE8CB;}
	.st5{fill:#F5978A;}
	.st6{fill:#87796F;}
	.st7{fill:#F16C7A;}
	.st8{fill:#68A8BC;}
	.st9{fill:#B9BC39;}
	.st10{fill:#CE4E61;}
	.st11{fill:#6B5B51;}
	.st12{fill:#CCAE8B;}
	.st13{fill-rule:evenodd;clip-rule:evenodd;fill:#F16C7A;}
</style>
<g>
	<g>
		<g>
			<path class="st1" d="M49.105,26.687C48.131,38.251,36.08,40.076,36.08,40.076c10.347,0.487,12.925,14.059,12.925,14.059
				c0.221-9.677,13.321-14.202,13.321-14.202C52.513,39.346,49.105,26.687,49.105,26.687z"/>
		</g>
	</g>
	<g>
		<g>
			<path class="st0" d="M62.416,38.436c-8.604-0.515-11.832-12.024-11.863-12.141c-0.19-0.702-0.845-1.162-1.584-1.102
				c-0.725,0.067-1.298,0.642-1.359,1.367C46.75,36.776,36.297,38.525,35.855,38.594c-0.763,0.115-1.313,0.79-1.273,1.56
				c0.04,0.77,0.657,1.384,1.428,1.421C45.038,42,47.509,54.293,47.532,54.417c0.138,0.711,0.76,1.217,1.473,1.217
				c0.042,0,0.084-0.001,0.126-0.005c0.765-0.064,1.357-0.693,1.375-1.46c0.193-8.509,12.19-12.777,12.312-12.819
				c0.676-0.235,1.092-0.914,0.994-1.623C63.714,39.02,63.13,38.479,62.416,38.436z M48.851,48.782
				c-1.357-3.13-3.709-6.907-7.587-8.876c2.931-1.405,6.408-3.913,8.201-8.272c1.551,3.071,4.2,6.88,8.334,8.722
				C54.792,41.995,50.877,44.761,48.851,48.782z"/>
		</g>
	</g>
	<g>
		<g>
			<path class="st1" d="M27.406,43.667c-0.689,8.179-9.213,9.471-9.213,9.471c7.318,0.344,9.142,9.944,9.142,9.944
				c0.156-6.844,9.422-10.045,9.422-10.045C29.817,52.622,27.406,43.667,27.406,43.667z"/>
		</g>
	</g>
	<g>
		<g>
			<path class="st0" d="M36.848,51.54c-5.767-0.345-7.972-8.186-7.993-8.265c-0.19-0.702-0.87-1.164-1.582-1.102
				c-0.726,0.065-1.3,0.642-1.361,1.368c-0.579,6.871-7.646,8.067-7.942,8.114c-0.763,0.115-1.313,0.79-1.273,1.56
				c0.04,0.77,0.657,1.384,1.428,1.421c6.035,0.284,7.724,8.644,7.739,8.726c0.136,0.712,0.759,1.22,1.473,1.22
				c0.041,0,0.083-0.001,0.125-0.005c0.765-0.063,1.358-0.694,1.376-1.461c0.13-5.709,8.331-8.633,8.412-8.661
				c0.676-0.234,1.093-0.913,0.996-1.622C38.146,52.124,37.562,51.582,36.848,51.54z M27.263,58.334
				c-0.924-1.886-2.34-3.947-4.447-5.28c1.855-1.041,3.697-2.63,4.871-4.917c1.057,1.874,2.654,3.955,4.941,5.224
				C30.778,54.463,28.639,56.102,27.263,58.334z"/>
		</g>
	</g>
	<g>
		<g>
			<path class="st1" d="M27.406,17.01c-0.689,8.179-9.213,9.471-9.213,9.471c7.318,0.344,9.142,9.944,9.142,9.944
				c0.156-6.845,9.422-10.045,9.422-10.045C29.817,25.964,27.406,17.01,27.406,17.01z"/>
		</g>
	</g>
	<g>
		<g>
			<path class="st0" d="M36.848,24.882c-5.767-0.345-7.972-8.185-7.993-8.265c-0.19-0.703-0.87-1.163-1.582-1.102
				c-0.726,0.065-1.3,0.642-1.361,1.368c-0.579,6.871-7.646,8.067-7.942,8.114c-0.763,0.115-1.313,0.79-1.273,1.561
				c0.04,0.77,0.657,1.384,1.428,1.421c6.035,0.284,7.724,8.644,7.739,8.726c0.136,0.712,0.759,1.22,1.473,1.22
				c0.041,0,0.083-0.002,0.125-0.005c0.765-0.063,1.358-0.694,1.376-1.461c0.13-5.709,8.331-8.634,8.412-8.662
				c0.676-0.234,1.093-0.913,0.996-1.622C38.146,25.466,37.562,24.925,36.848,24.882z M27.263,31.677
				c-0.924-1.886-2.34-3.947-4.447-5.28c1.855-1.042,3.697-2.63,4.871-4.917c1.057,1.874,2.653,3.955,4.941,5.224
				C30.778,27.805,28.639,29.445,27.263,31.677z"/>
		</g>
	</g>
	<g>
		<g>
			<path class="st2" d="M126.776,76.407c0.031-0.96,0.052-1.925,0.052-2.899c0-26.694-11.939-40-26.667-40
				c-10.625,0-19.796,6.928-24.083,20.809l-2.492,15.397c-0.055,1.236-0.092,2.494-0.092,3.794c0,0.974,0.021,1.939,0.052,2.899
				c-33.083,11.116-56.926,42.356-56.926,79.185c0,46.138,37.402,83.54,83.54,83.54c46.138,0,83.54-37.402,83.54-83.54
				C183.702,118.763,159.859,87.523,126.776,76.407z"/>
		</g>
	</g>
	<g>
		<g>
			<path class="st0" d="M128.307,75.346c0.014-0.61,0.021-1.222,0.021-1.838c0-25.21-11.057-41.5-28.167-41.5
				c-11.925,0-21.225,7.97-25.516,21.867c-0.244,0.792,0.199,1.631,0.991,1.875c0.788,0.243,1.631-0.198,1.876-0.991
				c3.876-12.552,12.131-19.751,22.648-19.751c15.523,0,25.167,14.752,25.167,38.5c0,0.957-0.021,1.906-0.051,2.85
				c-0.021,0.662,0.394,1.26,1.021,1.471c33.438,11.235,55.903,42.486,55.903,77.763c0,45.237-36.804,82.04-82.041,82.04
				s-82.04-36.803-82.04-82.04c0-35.277,22.466-66.528,55.903-77.763c0.628-0.211,1.043-0.809,1.021-1.471
				c-0.03-0.943-0.051-1.892-0.051-2.85c0-1.159,0.029-2.378,0.09-3.727c0.038-0.828-0.603-1.529-1.431-1.566
				c-0.828-0.03-1.528,0.604-1.565,1.431c-0.063,1.394-0.094,2.657-0.094,3.861c0,0.616,0.008,1.228,0.021,1.838
				c-34.08,11.942-56.896,44.049-56.896,80.246c0,46.891,38.148,85.04,85.04,85.04s85.041-38.149,85.041-85.04
				C185.202,119.395,162.387,87.289,128.307,75.346z"/>
		</g>
	</g>
	<g>
		<g>
			<circle class="st6" cx="100.161" cy="155.592" r="58.5"/>
		</g>
	</g>
	<g>
		<g>
			<path class="st0" d="M100.161,95.592c-33.084,0-60,26.916-60,60s26.916,60,60,60s60-26.916,60-60S133.245,95.592,100.161,95.592z
				 M100.161,212.592c-31.43,0-57-25.57-57-57s25.57-57,57-57s57,25.57,57,57S131.591,212.592,100.161,212.592z"/>
		</g>
	</g>
	<g>
		<g>
			<path class="st2" d="M216.353,69.874c0.476-0.834,0.945-1.677,1.4-2.539c12.47-23.602,8.13-40.944-4.891-47.824
				c-13.022-6.88-29.794-0.693-42.264,22.909c-0.455,0.861-0.888,1.724-1.308,2.587C134.844,39.38,99.17,55.863,81.964,88.426
				c-21.554,40.794-5.957,91.337,34.837,112.891c40.794,21.554,91.337,5.957,112.891-34.837
				C246.897,133.917,240.411,95.158,216.353,69.874z"/>
		</g>
	</g>
	<g>
		<g>
			<path class="st0" d="M218.201,69.65c0.297-0.532,0.59-1.07,0.878-1.615c11.777-22.291,9.611-41.858-5.517-49.851
				c-7.063-3.732-15.125-3.731-22.703,0.004c-8.1,3.992-15.564,12.128-21.589,23.53c-0.288,0.544-0.566,1.089-0.839,1.635
				c-35.713-5.358-70.884,12.368-87.793,44.372c-10.612,20.084-12.768,43.098-6.069,64.803
				c6.698,21.705,21.447,39.503,41.531,50.114c12.422,6.563,25.964,9.892,39.624,9.892c8.427,0,16.898-1.267,25.18-3.822
				c21.705-6.698,39.503-21.448,50.114-41.532C247.928,135.177,242.754,96.131,218.201,69.65z M228.366,165.779
				c-10.237,19.375-27.407,33.604-48.347,40.066c-20.939,6.462-43.142,4.382-62.517-5.855
				c-19.376-10.237-33.605-27.407-40.067-48.346c-6.462-20.939-4.382-43.142,5.855-62.517c14.376-27.208,42.432-43.72,72.472-43.72
				c4.396,0,8.84,0.354,13.284,1.081c0.647,0.105,1.301-0.228,1.591-0.824c0.413-0.849,0.838-1.696,1.285-2.542
				c5.728-10.839,12.734-18.53,20.263-22.241c6.788-3.345,13.696-3.36,19.975-0.043c13.726,7.252,15.36,24.8,4.267,45.797
				c-0.447,0.847-0.909,1.676-1.377,2.496c-0.328,0.575-0.24,1.297,0.216,1.777C239.581,96.463,244.846,134.589,228.366,165.779z"/>
		</g>
	</g>
	<g>
		<g>
			<path class="st6" d="M183.157,75.73c-28.566-15.093-63.959-4.171-79.053,24.395c-3.287,6.222-5.339,12.767-6.244,19.357
				l-0.028,15.539c2.386,18.169,13.232,34.945,30.667,44.158c28.566,15.093,63.959,4.171,79.053-24.395
				C222.645,126.216,211.723,90.823,183.157,75.73z"/>
		</g>
	</g>
	<g>
		<g>
			<path class="st0" d="M183.858,74.403c-14.172-7.487-30.408-9.008-45.723-4.282c-15.313,4.726-27.871,15.132-35.357,29.302
				c-3.297,6.237-5.451,12.917-6.404,19.854c-0.112,0.821,0.462,1.577,1.282,1.69c0.813,0.114,1.577-0.461,1.69-1.282
				c0.905-6.588,2.952-12.933,6.084-18.86c7.112-13.461,19.042-23.348,33.59-27.837c14.549-4.489,29.976-3.045,43.436,4.067
				c27.79,14.683,38.452,49.237,23.77,77.026c-7.112,13.461-19.042,23.348-33.59,27.837c-14.548,4.489-29.974,3.045-43.436-4.068
				c-16.304-8.614-27.475-24.699-29.881-43.027c-0.108-0.822-0.865-1.399-1.683-1.292c-0.821,0.108-1.399,0.861-1.292,1.683
				c2.533,19.291,14.291,36.221,31.453,45.289c8.765,4.63,18.318,6.979,27.956,6.979c5.946,0,11.924-0.894,17.767-2.697
				c15.313-4.726,27.871-15.132,35.357-29.303C224.334,126.231,213.11,89.859,183.858,74.403z"/>
		</g>
	</g>
	<g>
		<g>
			<path class="st11" d="M116.1,202.64c-20.08-10.61-34.83-28.41-41.53-50.11c-4.83-15.66-5.03-32.01-0.79-47.44
				c-4.96,2.6-9.49,5.91-13.45,9.79c-1.87,12.46-0.95,25.27,2.87,37.65c6.7,21.7,21.45,39.5,41.53,50.11
				c2.97,1.57,6.01,2.95,9.09,4.15c-5.96,2.92-12.49,4.84-19.39,5.52c1.88,0.18,3.8,0.28,5.73,0.28c8.98,0,17.47-2.09,25.03-5.8
				C122.11,205.59,119.07,204.21,116.1,202.64z"/>
		</g>
	</g>
	<g>
		<g>
			<path class="st11" d="M210.29,110.65c-4.49-14.55-14.37-26.48-27.83-33.59c-10.28-5.43-21.48-7.4-32.26-6.31
				c7.11,0.7,14.19,2.77,20.89,6.31c13.46,7.11,23.35,19.04,27.84,33.59c4.49,14.54,3.04,29.97-4.07,43.43
				c-9.25,17.51-26.39,28.22-44.77,30.07c22.39,2.25,44.99-8.98,56.14-30.07C213.34,140.62,214.78,125.19,210.29,110.65z"/>
		</g>
	</g>
</g>
</svg>
