<?xml version="1.0" encoding="utf-8"?>
<!-- Generator: Adobe Illustrator 22.0.1, SVG Export Plug-In . SVG Version: 6.00 Build 0)  -->
<svg version="1.1" id="Layer_2" xmlns="http://www.w3.org/2000/svg" xmlns:xlink="http://www.w3.org/1999/xlink" x="0px" y="0px"
	 viewBox="0 0 256 256" style="enable-background:new 0 0 256 256;" xml:space="preserve">
<style type="text/css">
	.st0{fill:#3A312A;}
	.st1{fill:#D7E057;}
	.st2{fill:#FCE8CB;}
	.st3{fill:#8AC6DD;}
	.st4{fill-rule:evenodd;clip-rule:evenodd;fill:#FCE8CB;}
	.st5{fill:#F5978A;}
	.st6{fill:#87796F;}
	.st7{fill:#F16C7A;}
	.st8{fill:#68A8BC;}
	.st9{fill:#B9BC39;}
	.st10{fill:#CE4E61;}
	.st11{fill:#6B5B51;}
	.st12{fill:#CCAE8B;}
	.st13{fill-rule:evenodd;clip-rule:evenodd;fill:#F16C7A;}
</style>
<g>
	<g>
		<g>
			<path class="st1" d="M46.917,91.605c-0.974,11.564-13.024,13.389-13.024,13.389c10.347,0.487,12.925,14.059,12.925,14.059
				c0.221-9.677,13.321-14.202,13.321-14.202C50.325,104.264,46.917,91.605,46.917,91.605z"/>
		</g>
	</g>
	<g>
		<g>
			<path class="st0" d="M60.229,103.354c-8.605-0.514-11.833-12.024-11.864-12.141c-0.19-0.702-0.847-1.16-1.584-1.102
				c-0.725,0.066-1.298,0.642-1.359,1.367c-0.859,10.215-11.313,11.964-11.754,12.033c-0.763,0.115-1.313,0.79-1.273,1.561
				c0.04,0.77,0.657,1.384,1.428,1.421c9.028,0.425,11.499,12.718,11.522,12.842c0.138,0.711,0.76,1.217,1.473,1.217
				c0.042,0,0.084-0.001,0.126-0.005c0.765-0.064,1.357-0.693,1.375-1.459c0.193-8.508,12.191-12.777,12.313-12.819
				c0.676-0.235,1.092-0.914,0.994-1.623C61.526,103.938,60.943,103.396,60.229,103.354z M46.663,113.7
				c-1.356-3.13-3.709-6.908-7.588-8.876c2.932-1.405,6.409-3.913,8.202-8.273c1.551,3.071,4.2,6.88,8.335,8.722
				C52.604,106.913,48.689,109.679,46.663,113.7z"/>
		</g>
	</g>
	<g>
		<g>
			<path class="st1" d="M25.219,108.585c-0.689,8.179-9.212,9.471-9.212,9.471C23.324,118.4,25.148,128,25.148,128
				c0.156-6.844,9.422-10.045,9.422-10.045C27.629,117.539,25.219,108.585,25.219,108.585z"/>
		</g>
	</g>
	<g>
		<g>
			<path class="st0" d="M34.66,116.457c-5.767-0.345-7.972-8.185-7.993-8.264c-0.19-0.702-0.864-1.163-1.582-1.102
				c-0.726,0.065-1.3,0.642-1.361,1.368c-0.579,6.871-7.646,8.066-7.942,8.113c-0.763,0.115-1.313,0.79-1.273,1.561
				c0.04,0.77,0.657,1.384,1.428,1.421c6.035,0.284,7.724,8.644,7.739,8.726c0.136,0.712,0.759,1.22,1.473,1.22
				c0.041,0,0.083-0.001,0.125-0.005c0.765-0.063,1.358-0.694,1.376-1.461c0.13-5.709,8.331-8.634,8.412-8.662
				c0.676-0.234,1.093-0.913,0.996-1.622C35.959,117.042,35.374,116.5,34.66,116.457z M25.075,123.252
				c-0.924-1.886-2.34-3.947-4.447-5.28c1.855-1.042,3.697-2.63,4.871-4.917c1.057,1.874,2.654,3.955,4.94,5.224
				C28.591,119.38,26.451,121.02,25.075,123.252z"/>
		</g>
	</g>
	<g>
		<g>
			<path class="st1" d="M25.219,81.928c-0.689,8.179-9.212,9.47-9.212,9.47c7.318,0.345,9.142,9.944,9.142,9.944
				c0.156-6.844,9.422-10.045,9.422-10.045C27.629,90.882,25.219,81.928,25.219,81.928z"/>
		</g>
	</g>
	<g>
		<g>
			<path class="st0" d="M34.66,89.8c-5.767-0.345-7.972-8.186-7.993-8.265c-0.19-0.702-0.864-1.162-1.582-1.102
				c-0.726,0.065-1.3,0.642-1.361,1.368c-0.579,6.871-7.646,8.067-7.942,8.114c-0.763,0.115-1.313,0.79-1.273,1.561
				c0.04,0.77,0.657,1.384,1.428,1.421c6.035,0.284,7.724,8.644,7.739,8.726c0.136,0.713,0.759,1.22,1.473,1.22
				c0.041,0,0.083-0.001,0.125-0.005c0.765-0.063,1.358-0.694,1.376-1.461c0.13-5.709,8.331-8.634,8.412-8.662
				c0.676-0.234,1.093-0.913,0.996-1.622C35.959,90.384,35.374,89.843,34.66,89.8z M25.075,96.595
				c-0.924-1.885-2.34-3.947-4.447-5.28c1.855-1.041,3.697-2.63,4.871-4.917c1.057,1.874,2.654,3.955,4.941,5.224
				C28.591,92.723,26.451,94.362,25.075,96.595z"/>
		</g>
	</g>
	<g>
		<g>
			
				<ellipse transform="matrix(0.1377 -0.9905 0.9905 0.1377 22.0997 202.0877)" class="st6" cx="127.114" cy="88.351" rx="72.26" ry="45.542"/>
		</g>
	</g>
	<g>
		<g>
			<path class="st0" d="M137.272,15.294c-25.713-3.567-51.151,26.296-56.752,66.579c-5.601,40.284,10.745,75.963,36.436,79.536
				c1.399,0.194,2.797,0.29,4.19,0.29c24.214,0,47.266-28.778,52.562-66.869C179.309,54.545,162.963,18.866,137.272,15.294z
				 M170.737,94.417c-5.089,36.593-26.822,64.287-49.538,64.286c-1.273,0-2.553-0.087-3.829-0.265
				c-24.054-3.344-39.251-37.505-33.879-76.151c5.374-38.645,29.303-67.369,53.368-64.02
				C160.912,21.61,176.109,55.771,170.737,94.417z"/>
		</g>
	</g>
	<g>
		<g>
			<path class="st0" d="M137.748,15.99c-0.387-0.732-1.297-1.014-2.026-0.625c-11.01,5.814-19.04,16.65-22.031,29.728
				c-3.1,13.551-0.365,27.863,7.316,38.285c0.294,0.399,0.748,0.61,1.208,0.61c0.31,0,0.621-0.095,0.889-0.292
				c0.667-0.492,0.81-1.431,0.317-2.098c-7.169-9.728-9.714-23.125-6.807-35.836c2.797-12.226,10.271-22.338,20.508-27.745
				C137.854,17.63,138.135,16.723,137.748,15.99z"/>
		</g>
	</g>
	<g>
		<g>
			<path class="st0" d="M134.005,95.146c-0.467-0.685-1.4-0.858-2.084-0.393c-0.685,0.467-0.86,1.401-0.393,2.085
				c6.159,9.018,8.182,20.302,5.695,31.773c-2.683,12.379-10.468,23.515-20.825,29.79c-0.708,0.429-0.935,1.352-0.506,2.06
				c0.282,0.465,0.777,0.723,1.284,0.723c0.266,0,0.533-0.07,0.776-0.217c11.048-6.693,19.349-18.551,22.202-31.72
				C142.818,116.963,140.634,104.853,134.005,95.146z"/>
		</g>
	</g>
	<g>
		<g>
			
				<ellipse transform="matrix(0.8418 -0.5398 0.5398 0.8418 -87.0351 72.6684)" class="st6" cx="80.446" cy="184.806" rx="72.26" ry="45.542"/>
		</g>
	</g>
	<g>
		<g>
			<path class="st0" d="M142.535,144.988c-6.854-10.689-19.781-16.502-36.474-16.373c-16.412,0.129-34.527,6.021-51.01,16.592
				s-29.396,24.576-36.358,39.438c-7.072,15.092-7.191,29.29-0.336,39.979c6.977,10.879,20.215,16.312,35.982,16.312
				c15.879,0,34.322-5.514,51.501-16.531c16.482-10.57,29.396-24.576,36.358-39.438
				C149.271,169.875,149.391,155.677,142.535,144.988z M139.483,183.694c-6.727,14.355-19.25,27.917-35.262,38.185
				c-32.845,21.063-70.231,21.565-83.339,1.125c-6.279-9.791-6.092-22.962,0.526-37.087c6.727-14.355,19.25-27.917,35.262-38.185
				c16.013-10.269,33.562-15.992,49.414-16.117c0.176-0.001,0.351-0.002,0.526-0.002c15.343,0,27.191,5.314,33.398,14.994
				C146.289,156.398,146.102,169.569,139.483,183.694z"/>
		</g>
	</g>
	<g>
		<g>
			<path class="st0" d="M141.373,143.82c-7.993-2.523-16.302-3.178-24.024-1.896c-13.594,2.259-25.309,10.49-32.14,22.583
				c-3.521,6.234-4.944,13.052-6.32,19.645c-1.391,6.663-2.704,12.956-5.996,18.785c-0.408,0.721-0.153,1.636,0.568,2.044
				c0.232,0.131,0.486,0.194,0.736,0.194c0.522,0,1.031-0.274,1.307-0.763c3.522-6.235,4.945-13.054,6.321-19.648
				c1.391-6.662,2.703-12.955,5.995-18.782c6.384-11.3,17.325-18.99,30.021-21.1c7.258-1.206,15.084-0.584,22.63,1.797
				c0.788,0.252,1.633-0.189,1.882-0.979C142.602,144.913,142.163,144.07,141.373,143.82z"/>
		</g>
	</g>
	<g>
		<g>
			<path class="st0" d="M64.328,215.737c-0.515-0.649-1.457-0.757-2.107-0.242c-11.22,8.904-26.909,11.423-41.967,6.741
				c-0.791-0.247-1.632,0.196-1.878,0.987s0.196,1.632,0.987,1.877c5.28,1.642,10.638,2.447,15.879,2.447
				c10.645,0,20.805-3.323,28.844-9.703C64.734,217.33,64.843,216.386,64.328,215.737z"/>
		</g>
	</g>
	<g>
		<g>
			
				<ellipse transform="matrix(0.5398 -0.8418 0.8418 0.5398 -75.5955 231.3274)" class="st6" cx="173.782" cy="184.806" rx="45.542" ry="72.26"/>
		</g>
	</g>
	<g>
		<g>
			<path class="st0" d="M235.535,184.645c-6.963-14.861-19.876-28.867-36.358-39.438c-34.234-21.955-73.48-22.053-87.483-0.219
				c-6.855,10.689-6.736,24.887,0.336,39.979c6.963,14.861,19.876,28.867,36.358,39.438c17.181,11.018,35.62,16.531,51.501,16.531
				c15.765,0,29.007-5.435,35.982-16.312C242.727,213.935,242.607,199.736,235.535,184.645z M233.346,223.004
				c-13.108,20.441-50.495,19.938-83.339-1.125c-16.012-10.269-28.535-23.83-35.262-38.185c-6.618-14.125-6.806-27.296-0.526-37.087
				c6.427-10.021,18.684-15.007,33.384-15.007c15.285,0,33.213,5.396,49.955,16.132c16.012,10.269,28.535,23.83,35.262,38.185
				C239.438,200.042,239.625,213.213,233.346,223.004z"/>
		</g>
	</g>
	<g>
		<g>
			<path class="st0" d="M173.496,175.179c-2.806-11.62-10.618-21.443-21.998-27.662c-12.161-6.646-26.261-7.988-38.683-3.684
				c-0.783,0.271-1.197,1.126-0.926,1.909c0.271,0.783,1.123,1.196,1.908,0.926c11.451-3.969,25.009-2.668,36.262,3.481
				c10.628,5.808,17.916,14.947,20.521,25.733c0.166,0.687,0.78,1.148,1.457,1.148c0.116,0,0.234-0.014,0.354-0.042
				C173.195,176.794,173.69,175.984,173.496,175.179z"/>
		</g>
	</g>
	<g>
		<g>
			<path class="st0" d="M235.845,223.199c-0.259-0.786-1.105-1.213-1.894-0.956c-12.054,3.968-25.418,2.615-36.662-3.715
				c-10.435-5.874-17.867-15.5-20.391-26.41c-0.187-0.807-0.989-1.313-1.799-1.124c-0.808,0.187-1.311,0.992-1.123,1.799
				c2.712,11.729,10.673,22.062,21.841,28.348c7.453,4.196,15.783,6.338,24.11,6.338c5.054,0,10.106-0.79,14.961-2.388
				C235.676,224.834,236.104,223.986,235.845,223.199z"/>
		</g>
	</g>
	<g>
		<g>
			<path class="st11" d="M119.544,133.06c-7.04,2.56-12.79,6.81-16.59,12.74c-0.34,0.53-0.66,1.06-0.96,1.61
				c3.55-2.05,7.33-3.59,11.26-4.61c2.73-3.53,6.19-6.39,10.22-8.59C122.204,133.77,120.894,133.39,119.544,133.06z"/>
		</g>
	</g>
	<g>
		<g>
			<path class="st11" d="M112.034,184.97c-6.71-14.3-7.15-27.79-1.35-38.26c-2.97,1.04-5.83,2.41-8.53,4.11
				c-0.81,0.51-1.6,1.04-2.36,1.61c-5.47,16.47,3.03,38.25,21.25,56.25c1.4-1.34,2.75-2.71,4.05-4.11
				C119.654,198.37,115.214,191.76,112.034,184.97z"/>
		</g>
	</g>
	<g>
		<g>
			<path class="st11" d="M119.544,133.06c-7.04,2.56-12.79,6.81-16.59,12.74c-0.34,0.53-0.66,1.06-0.96,1.61
				c3.55-2.05,7.33-3.59,11.26-4.61c2.73-3.53,6.19-6.39,10.22-8.59C122.204,133.77,120.894,133.39,119.544,133.06z"/>
		</g>
	</g>
	<g>
		<g>
			<path class="st11" d="M112.034,184.97c-6.71-14.3-7.15-27.79-1.35-38.26c-2.97,1.04-5.83,2.41-8.53,4.11
				c-0.81,0.51-1.6,1.04-2.36,1.61c-5.47,16.47,3.03,38.25,21.25,56.25c1.4-1.34,2.75-2.71,4.05-4.11
				C119.654,198.37,115.214,191.76,112.034,184.97z"/>
		</g>
	</g>
	<g>
		<g>
			<path class="st11" d="M136.864,18.27c-0.04-0.01-0.07-0.01-0.1-0.01c-0.97,0.62-1.9,1.26-2.81,1.92
				c19.94,8.32,31.76,39.46,26.93,74.24c-1.79,12.8-5.6,24.5-10.8,34.31c3.05,0.1,6.19,0.4,9.38,0.9
				c5.43-9.99,9.44-22.02,11.27-35.21C176.114,55.77,160.914,21.61,136.864,18.27z"/>
		</g>
	</g>
	<g>
		<g>
			<path class="st11" d="M232.824,185.92c-6.73-14.36-19.25-27.92-35.27-38.19c-16.74-10.73-34.67-16.13-49.95-16.13
				c-0.49,0-0.97,0.01-1.45,0.02c-0.33,0-0.67,0.01-1,0.03c-0.4,0.01-0.8,0.03-1.2,0.06c-0.4,0.02-0.8,0.05-1.19,0.08
				c14.11,1.03,30,6.36,44.94,15.94c16.01,10.27,28.53,23.83,35.26,38.19c6.46,13.79,6.78,26.67,0.94,36.38l-1.08,2.17
				c3.56-0.3,7.17-1.01,10.78-2.12l0.15-0.05C239.594,212.59,239.284,199.71,232.824,185.92z"/>
		</g>
	</g>
	<g>
		<g>
			<path class="st11" d="M219.734,227.64c-5.96,5.98-14.63,9.37-24.76,10.18c15.18,1.11,28.3-2.76,35.99-11.65
				C227.184,227.07,223.424,227.56,219.734,227.64z"/>
		</g>
	</g>
</g>
</svg>
