<?xml version="1.0" encoding="utf-8"?>
<!-- Generator: Adobe Illustrator 22.0.1, SVG Export Plug-In . SVG Version: 6.00 Build 0)  -->
<svg version="1.1" id="Layer_2" xmlns="http://www.w3.org/2000/svg" xmlns:xlink="http://www.w3.org/1999/xlink" x="0px" y="0px"
	 viewBox="0 0 256 256" style="enable-background:new 0 0 256 256;" xml:space="preserve">
<style type="text/css">
	.st0{fill:#3A312A;}
	.st1{fill:#D7E057;}
	.st2{fill:#FCE8CB;}
	.st3{fill:#8AC6DD;}
	.st4{fill-rule:evenodd;clip-rule:evenodd;fill:#FCE8CB;}
	.st5{fill:#F5978A;}
	.st6{fill:#87796F;}
	.st7{fill:#F16C7A;}
	.st8{fill:#68A8BC;}
	.st9{fill:#B9BC39;}
	.st10{fill:#CE4E61;}
	.st11{fill:#6B5B51;}
	.st12{fill:#CCAE8B;}
	.st13{fill-rule:evenodd;clip-rule:evenodd;fill:#F16C7A;}
</style>
<g>
	<g>
		<g>
			<path class="st0" d="M138.424,48.288c-1.168-1.169-1.809-2.723-1.803-4.375c0.006-1.653,0.658-3.202,1.835-4.362
				c1.742-1.716,2.712-4.008,2.729-6.453c0.018-2.446-0.918-4.753-2.634-6.493l-0.239-0.243c-2.365-2.399-2.351-6.29,0.031-8.673
				l0.039-0.039l-1.061-1.061l-1.1-1.021c-3.543,3.544-3.564,9.331-0.048,12.898l0.239,0.243c1.154,1.172,1.783,2.722,1.771,4.366
				s-0.664,3.185-1.835,4.339c-1.751,1.726-2.721,4.029-2.729,6.488c-0.009,2.458,0.943,4.769,2.682,6.507l0.135,0.135
				c0.293,0.293,0.677,0.439,1.061,0.439s0.768-0.146,1.061-0.439c0.586-0.586,0.586-1.535,0-2.121L138.424,48.288z"/>
		</g>
	</g>
	<g>
		<g>
			<path class="st1" d="M56.069,26.208c-0.974,11.563-13.025,13.389-13.025,13.389c10.347,0.487,12.925,14.059,12.925,14.059
				c0.221-9.677,13.321-14.202,13.321-14.202C59.477,38.867,56.069,26.208,56.069,26.208z"/>
		</g>
	</g>
	<g>
		<g>
			<path class="st0" d="M69.381,37.957c-8.605-0.515-11.833-12.024-11.864-12.141c-0.19-0.702-0.853-1.163-1.584-1.102
				c-0.725,0.066-1.298,0.642-1.359,1.367c-0.859,10.215-11.313,11.964-11.754,12.032c-0.763,0.116-1.313,0.791-1.273,1.561
				c0.04,0.771,0.657,1.385,1.428,1.421c9.028,0.425,11.499,12.718,11.522,12.843c0.138,0.711,0.76,1.217,1.473,1.217
				c0.042,0,0.084-0.002,0.126-0.005c0.765-0.064,1.357-0.693,1.375-1.46c0.193-8.509,12.191-12.777,12.313-12.819
				c0.676-0.234,1.092-0.914,0.994-1.622C70.678,38.54,70.095,37.999,69.381,37.957z M55.814,48.303
				c-1.356-3.131-3.709-6.907-7.587-8.877c2.931-1.404,6.408-3.912,8.201-8.272c1.551,3.071,4.2,6.88,8.335,8.723
				C61.756,41.516,57.841,44.281,55.814,48.303z"/>
		</g>
	</g>
	<g>
		<g>
			<path class="st1" d="M34.37,43.188c-0.689,8.179-9.212,9.47-9.212,9.47c7.318,0.345,9.142,9.944,9.142,9.944
				c0.156-6.844,9.422-10.045,9.422-10.045C36.781,52.143,34.37,43.188,34.37,43.188z"/>
		</g>
	</g>
	<g>
		<g>
			<path class="st0" d="M43.812,51.061c-5.766-0.345-7.972-8.186-7.994-8.265c-0.189-0.702-0.861-1.165-1.581-1.102
				c-0.726,0.065-1.3,0.643-1.361,1.368c-0.578,6.87-7.646,8.066-7.941,8.113c-0.763,0.116-1.313,0.791-1.273,1.561
				c0.04,0.771,0.657,1.385,1.428,1.421c6.034,0.284,7.723,8.645,7.738,8.727c0.136,0.713,0.759,1.22,1.473,1.22
				c0.041,0,0.083-0.002,0.125-0.005c0.765-0.063,1.358-0.693,1.376-1.461c0.13-5.709,8.331-8.634,8.412-8.662
				c0.676-0.234,1.093-0.913,0.996-1.622C45.11,51.645,44.525,51.103,43.812,51.061z M34.227,57.855
				c-0.924-1.886-2.34-3.947-4.446-5.279c1.855-1.042,3.697-2.63,4.87-4.917c1.058,1.874,2.654,3.954,4.941,5.224
				C37.742,53.983,35.604,55.623,34.227,57.855z"/>
		</g>
	</g>
	<g>
		<g>
			<path class="st1" d="M34.37,16.531c-0.689,8.179-9.212,9.471-9.212,9.471c7.318,0.344,9.142,9.944,9.142,9.944
				c0.156-6.845,9.422-10.045,9.422-10.045C36.781,25.485,34.37,16.531,34.37,16.531z"/>
		</g>
	</g>
	<g>
		<g>
			<path class="st0" d="M43.812,24.403c-5.766-0.346-7.972-8.186-7.994-8.265c-0.189-0.702-0.861-1.165-1.581-1.102
				c-0.726,0.065-1.3,0.643-1.361,1.368c-0.578,6.87-7.646,8.065-7.941,8.112c-0.763,0.116-1.313,0.791-1.273,1.561
				c0.04,0.771,0.657,1.385,1.428,1.421c6.034,0.284,7.723,8.645,7.738,8.727c0.136,0.713,0.759,1.22,1.473,1.22
				c0.041,0,0.083-0.002,0.125-0.005c0.765-0.063,1.358-0.693,1.376-1.461c0.13-5.708,8.331-8.633,8.412-8.661
				c0.676-0.234,1.093-0.913,0.996-1.622C45.11,24.987,44.525,24.446,43.812,24.403z M34.227,31.198
				c-0.924-1.887-2.339-3.947-4.446-5.28c1.855-1.041,3.697-2.63,4.87-4.916c1.058,1.873,2.655,3.954,4.941,5.224
				C37.742,27.326,35.604,28.966,34.227,31.198z"/>
		</g>
	</g>
	<g>
		<g>
			<path class="st1" d="M153.349,56.589h-41.007H98.339h-9.52c-2.699,0-4.887,2.188-4.887,4.886v43.731
				c0,12.437,10.082,22.52,22.52,22.52h29.264c12.437,0,22.52-10.083,22.52-22.52V61.476
				C158.236,58.777,156.048,56.589,153.349,56.589z"/>
		</g>
	</g>
	<g>
		<g>
			<path class="st0" d="M153.35,55.09h-41.007c-0.828,0-1.5,0.672-1.5,1.5s0.672,1.5,1.5,1.5h41.007
				c1.867,0,3.387,1.519,3.387,3.386v43.731c0,11.59-9.43,21.02-21.021,21.02h-29.264c-11.59,0-21.02-9.43-21.02-21.02V61.476
				c0-1.867,1.52-3.386,3.387-3.386h9.52c0.828,0,1.5-0.672,1.5-1.5s-0.672-1.5-1.5-1.5h-9.52c-3.521,0-6.387,2.864-6.387,6.386
				v43.731c0,13.244,10.775,24.02,24.02,24.02h29.264c13.245,0,24.021-10.775,24.021-24.02V61.476
				C159.736,57.954,156.871,55.09,153.35,55.09z"/>
		</g>
	</g>
	<g>
		<g>
			<path class="st6" d="M73.12,127.726c0,5.904,4.786,10.69,10.69,10.69h74.547c5.904,0,10.69-4.786,10.69-10.69H73.12z"/>
		</g>
	</g>
	<g>
		<g>
			<path class="st0" d="M169.048,126.227H73.12c-0.828,0-1.5,0.672-1.5,1.5c0,6.722,5.469,12.19,12.19,12.19h74.548
				c6.722,0,12.189-5.469,12.189-12.19C170.548,126.898,169.876,126.227,169.048,126.227z M158.358,136.917H83.811
				c-4.557,0-8.35-3.334-9.068-7.69h92.684C166.707,133.583,162.915,136.917,158.358,136.917z"/>
		</g>
	</g>
	<g>
		<g>
			<path class="st1" d="M158.935,66.702c-0.237,0-0.468,0.005-0.699,0.011v7.71c0.231-0.011,0.462-0.017,0.699-0.017
				c8.954,0,16.24,7.287,16.24,16.24c0,8.948-7.286,16.234-16.24,16.234c-0.253,0-0.506-0.005-0.759-0.022
				c-0.193,2.68-0.858,5.233-1.915,7.573c0.875,0.104,1.772,0.154,2.675,0.154c13.202,0,23.944-10.742,23.944-23.939
				C182.88,77.444,172.138,66.702,158.935,66.702z"/>
		</g>
	</g>
	<g>
		<g>
			<path class="st0" d="M158.936,65.202c-0.214,0-0.425,0.005-0.73,0.011c-0.816,0.018-1.469,0.684-1.469,1.5v7.71
				c0,0.41,0.168,0.802,0.464,1.085c0.298,0.283,0.693,0.436,1.105,0.413c0.209-0.01,0.417-0.015,0.63-0.015
				c8.128,0,14.74,6.612,14.74,14.74c0,8.125-6.612,14.734-14.74,14.734c-0.222,0-0.445-0.005-0.667-0.019
				c-0.854-0.06-1.53,0.57-1.589,1.39c-0.176,2.453-0.777,4.829-1.786,7.063c-0.196,0.436-0.174,0.938,0.061,1.354
				c0.235,0.416,0.654,0.695,1.129,0.752c0.916,0.109,1.876,0.165,2.853,0.165c14.03,0,25.444-11.412,25.444-25.439
				C184.38,76.616,172.966,65.202,158.936,65.202z M158.936,113.086c-0.175,0-0.349-0.002-0.521-0.006
				c0.531-1.526,0.904-3.101,1.115-4.709c9.509-0.314,17.146-8.145,17.146-17.725c0-9.514-7.527-17.303-16.939-17.723v-4.708
				c12.006,0.424,21.644,10.323,21.644,22.431C181.38,103.02,171.312,113.086,158.936,113.086z"/>
		</g>
	</g>
	<g>
		<g>
			<path class="st2" d="M141.051,77.19c-4.626-5.979-11.866-9.826-20.01-9.826s-15.385,3.848-20.01,9.826
				c-3.294,4.269-5.264,9.63-5.264,15.448c0,6.028,2.11,11.571,5.635,15.91c4.633,5.712,11.705,9.364,19.639,9.364
				s15.006-3.651,19.639-9.364c3.526-4.339,5.635-9.882,5.635-15.91C146.314,86.82,144.345,81.458,141.051,77.19z"/>
		</g>
	</g>
	<g>
		<g>
			<path class="st0" d="M142.237,76.272c-5.119-6.615-12.845-10.409-21.197-10.409s-16.078,3.794-21.198,10.41
				C96.194,81,94.266,86.659,94.266,92.638c0,6.131,2.121,12.116,5.971,16.854c5.112,6.305,12.694,9.92,20.804,9.92
				s15.691-3.615,20.803-9.918c3.851-4.74,5.972-10.726,5.972-16.856C147.814,86.659,145.886,81,142.237,76.272z M139.514,107.604
				c-4.54,5.598-11.273,8.809-18.474,8.809s-13.934-3.211-18.475-8.811c-3.418-4.206-5.3-9.521-5.3-14.964
				c0-5.31,1.712-10.334,4.95-14.529c4.546-5.875,11.407-9.245,18.824-9.245s14.278,3.37,18.823,9.244
				c3.239,4.196,4.951,9.221,4.951,14.53C144.814,98.081,142.933,103.396,139.514,107.604z"/>
		</g>
	</g>
	<g>
		<g>
			<path class="st6" d="M121.04,76.687c-5.575,0-10.094,7.17-10.094,16.016c0,8.846,4.519,16.016,10.094,16.016
				c5.575,0,10.094-7.17,10.094-16.016C131.134,83.857,126.615,76.687,121.04,76.687z"/>
		</g>
	</g>
	<g>
		<g>
			<path class="st0" d="M121.04,75.187c-6.501,0-11.594,7.693-11.594,17.516s5.093,17.516,11.594,17.516s11.594-7.693,11.594-17.516
				S127.541,75.187,121.04,75.187z M121.04,107.218c-4.658,0-8.594-6.647-8.594-14.516s3.936-14.516,8.594-14.516
				s8.594,6.647,8.594,14.516S125.698,107.218,121.04,107.218z"/>
		</g>
	</g>
	<g>
		<g>
			<path class="st0" d="M122.299,91.767l-0.41-0.353c-2.12-1.824-3.282-4.218-3.273-6.741c0.01-2.527,1.192-4.919,3.327-6.729
				l0.067-0.057l-0.965-1.148l-1.037-1.088c-2.82,2.392-4.38,5.591-4.393,9.011c-0.012,3.415,1.521,6.62,4.317,9.026l0.41,0.353
				c2.129,1.832,3.291,4.236,3.272,6.771c-0.019,2.544-1.224,4.942-3.393,6.755c-0.636,0.531-0.721,1.478-0.189,2.113
				c0.297,0.354,0.723,0.538,1.152,0.538c0.339,0,0.68-0.114,0.961-0.349c2.856-2.387,4.443-5.596,4.469-9.035
				C126.641,97.403,125.107,94.184,122.299,91.767z"/>
		</g>
	</g>
	<g>
		<g>
			<path class="st9" d="M153.351,58.093h-7.69c1.86,0,3.38,1.52,3.38,3.38v43.73c0,0.64-0.04,1.26-0.09,1.88
				c-0.02,0.25-0.06,0.49-0.09,0.74c-0.05,0.43-0.12,0.86-0.19,1.28c-0.05,0.23-0.1,0.46-0.15,0.68c-0.09,0.43-0.2,0.86-0.32,1.28
				c-0.07,0.21-0.13,0.43-0.2,0.64c-0.13,0.42-0.29,0.83-0.45,1.23c-0.08,0.21-0.16,0.42-0.25,0.63
				c-3.24,7.44-10.66,12.66-19.28,12.66h7.7c8.62,0,16.04-5.22,19.27-12.66c0.09-0.21,0.17-0.42,0.25-0.63
				c0.17-0.4,0.32-0.81,0.46-1.23c0.07-0.21,0.13-0.43,0.19-0.64c0.12-0.42,0.23-0.85,0.33-1.28c0.05-0.22,0.1-0.45,0.14-0.68
				c0.08-0.42,0.14-0.85,0.19-1.28c0.04-0.25,0.07-0.49,0.09-0.74c0.06-0.62,0.1-1.24,0.1-1.88v-43.73
				C156.741,59.613,155.221,58.093,153.351,58.093z"/>
		</g>
	</g>
	<g>
		<g>
			<path class="st11" d="M159.731,129.223c-0.72,4.36-4.51,7.69-9.07,7.69h7.7c4.55,0,8.35-3.33,9.07-7.69H159.731z"/>
		</g>
	</g>
	<g>
		<g>
			<path class="st0" d="M105.992,48.288c-1.169-1.168-1.809-2.722-1.803-4.374c0.006-1.653,0.657-3.203,1.835-4.363
				c1.742-1.716,2.711-4.008,2.729-6.454c0.018-2.445-0.918-4.751-2.634-6.492l-0.239-0.243c-2.365-2.399-2.351-6.29,0.031-8.673
				l0.039-0.039l-1.061-1.061l-1.1-1.021c-3.543,3.544-3.564,9.331-0.048,12.898l0.239,0.243c1.154,1.171,1.783,2.722,1.771,4.366
				c-0.013,1.645-0.664,3.185-1.835,4.339c-1.752,1.726-2.721,4.03-2.729,6.489c-0.009,2.458,0.943,4.769,2.678,6.502l0.134,0.135
				c0.293,0.296,0.679,0.443,1.064,0.443c0.382,0,0.765-0.146,1.057-0.436c0.588-0.584,0.592-1.533,0.008-2.121L105.992,48.288z"/>
		</g>
	</g>
	<g>
		<g>
			<path class="st0" d="M117.033,48.288c-1.168-1.169-1.809-2.723-1.803-4.375c0.006-1.653,0.658-3.202,1.835-4.362
				c1.742-1.716,2.712-4.008,2.729-6.453c0.019-2.446-0.917-4.752-2.635-6.495l-0.238-0.241c-2.365-2.399-2.351-6.29,0.046-8.687
				l0.038-0.039c0.575-0.59,0.548-1.516-0.039-2.095c-0.586-0.578-1.55-0.557-2.134,0.026c-3.544,3.544-3.565,9.331-0.047,12.9
				l0.238,0.241c1.154,1.172,1.783,2.722,1.771,4.366c-0.013,1.645-0.664,3.185-1.836,4.339c-1.751,1.726-2.721,4.029-2.729,6.488
				c-0.009,2.458,0.943,4.769,2.682,6.507l0.135,0.135c0.293,0.293,0.677,0.439,1.061,0.439s0.768-0.146,1.061-0.439
				c0.586-0.586,0.586-1.535,0-2.121L117.033,48.288z"/>
		</g>
	</g>
	<g>
		<g>
			<path class="st0" d="M127.341,48.288c-1.169-1.168-1.809-2.722-1.803-4.374c0.006-1.653,0.657-3.203,1.835-4.363
				c1.742-1.716,2.711-4.008,2.729-6.454c0.018-2.445-0.918-4.751-2.634-6.492l-0.239-0.243c-2.365-2.399-2.351-6.29,0.031-8.673
				l0.039-0.039l-1.061-1.061l-1.1-1.021c-3.543,3.544-3.564,9.331-0.048,12.898l0.239,0.243c1.154,1.171,1.783,2.722,1.771,4.366
				c-0.013,1.645-0.664,3.185-1.835,4.339c-1.752,1.726-2.721,4.03-2.729,6.489c-0.009,2.458,0.943,4.769,2.678,6.502l0.134,0.135
				c0.293,0.296,0.679,0.443,1.064,0.443c0.382,0,0.765-0.146,1.057-0.436c0.588-0.584,0.592-1.533,0.008-2.121L127.341,48.288z"/>
		</g>
	</g>
	<g>
		<g>
			<rect x="55.75" y="207.517" class="st6" width="138.25" height="14.696"/>
		</g>
	</g>
	<g>
		<g>
			<path class="st0" d="M194,206.017H55.75c-0.828,0-1.5,0.672-1.5,1.5v14.696c0,0.828,0.672,1.5,1.5,1.5H194
				c0.828,0,1.5-0.672,1.5-1.5v-14.696C195.5,206.688,194.828,206.017,194,206.017z M192.5,220.713H57.25v-11.696H192.5V220.713z"/>
		</g>
	</g>
	<g>
		<g>
			<rect x="47.82" y="180.819" class="st7" width="14.69" height="58.65"/>
		</g>
	</g>
	<g>
		<g>
			<path class="st0" d="M62.51,179.319H47.82c-0.828,0-1.5,0.672-1.5,1.5v58.649c0,0.828,0.672,1.5,1.5,1.5H62.51
				c0.828,0,1.5-0.672,1.5-1.5v-58.649C64.01,179.991,63.338,179.319,62.51,179.319z M61.01,237.969H49.32v-55.649H61.01V237.969z"
				/>
		</g>
	</g>
	<g>
		<g>
			<rect x="193.49" y="180.819" class="st7" width="14.69" height="58.65"/>
		</g>
	</g>
	<g>
		<g>
			<path class="st0" d="M208.18,179.319H193.49c-0.828,0-1.5,0.672-1.5,1.5v58.649c0,0.828,0.672,1.5,1.5,1.5h14.689
				c0.828,0,1.5-0.672,1.5-1.5v-58.649C209.68,179.991,209.008,179.319,208.18,179.319z M206.68,237.969H194.99v-55.649h11.689
				V237.969z"/>
		</g>
	</g>
	<g>
		<g>
			<path class="st7" d="M228.914,138.417H27.086c-5.813,0-10.526,4.713-10.526,10.526v21.348c0,5.813,4.713,10.526,10.526,10.526
				h201.828c5.814,0,10.526-4.713,10.526-10.526v-21.348C239.44,143.129,234.727,138.417,228.914,138.417z"/>
		</g>
	</g>
	<g>
		<g>
			<path class="st0" d="M228.914,136.916H27.086c-6.632,0-12.026,5.396-12.026,12.027v21.347c0,6.632,5.395,12.027,12.026,12.027
				h62.72c0.828,0,1.5-0.672,1.5-1.5s-0.672-1.5-1.5-1.5h-62.72c-4.978,0-9.026-4.05-9.026-9.027v-21.347
				c0-4.978,4.049-9.027,9.026-9.027h201.828c4.978,0,9.026,4.05,9.026,9.027v21.347c0,4.978-4.049,9.027-9.026,9.027h-124.72
				c-0.828,0-1.5,0.672-1.5,1.5s0.672,1.5,1.5,1.5h124.72c6.632,0,12.026-5.396,12.026-12.027v-21.347
				C240.94,142.312,235.546,136.916,228.914,136.916z"/>
		</g>
	</g>
	<g>
		<g>
			<path class="st10" d="M228.91,139.919h-11.75c4.98,0,9.03,4.05,9.03,9.02v21.35c0,4.98-4.05,9.03-9.03,9.03h11.75
				c4.98,0,9.03-4.05,9.03-9.03v-21.35C237.94,143.969,233.89,139.919,228.91,139.919z"/>
		</g>
	</g>
</g>
</svg>
