<?xml version="1.0" encoding="utf-8"?>
<!-- Generator: Adobe Illustrator 22.0.1, SVG Export Plug-In . SVG Version: 6.00 Build 0)  -->
<svg version="1.1" id="Layer_2" xmlns="http://www.w3.org/2000/svg" xmlns:xlink="http://www.w3.org/1999/xlink" x="0px" y="0px"
	 viewBox="0 0 256 256" style="enable-background:new 0 0 256 256;" xml:space="preserve">
<style type="text/css">
	.st0{fill:#3A312A;}
	.st1{fill:#D7E057;}
	.st2{fill:#FCE8CB;}
	.st3{fill:#8AC6DD;}
	.st4{fill-rule:evenodd;clip-rule:evenodd;fill:#FCE8CB;}
	.st5{fill:#F5978A;}
	.st6{fill:#87796F;}
	.st7{fill:#F16C7A;}
	.st8{fill:#68A8BC;}
	.st9{fill:#B9BC39;}
	.st10{fill:#CE4E61;}
	.st11{fill:#6B5B51;}
	.st12{fill:#CCAE8B;}
	.st13{fill-rule:evenodd;clip-rule:evenodd;fill:#F16C7A;}
</style>
<g>
	<g>
		<g>
			<path class="st1" d="M50.123,27.038c-0.974,11.564-13.025,13.39-13.025,13.39c10.347,0.487,12.925,14.059,12.925,14.059
				c0.221-9.677,13.321-14.202,13.321-14.202C53.531,39.697,50.123,27.038,50.123,27.038z"/>
		</g>
	</g>
	<g>
		<g>
			<path class="st0" d="M63.435,38.787C54.83,38.273,51.602,26.763,51.57,26.646c-0.191-0.702-0.846-1.161-1.584-1.102
				c-0.725,0.066-1.298,0.642-1.359,1.367c-0.859,10.215-11.313,11.964-11.754,12.033c-0.763,0.115-1.313,0.79-1.273,1.561
				c0.04,0.77,0.657,1.384,1.428,1.421c9.028,0.425,11.499,12.718,11.522,12.842c0.138,0.711,0.76,1.217,1.473,1.217
				c0.042,0,0.084-0.001,0.126-0.005c0.765-0.064,1.357-0.693,1.375-1.46c0.193-8.509,12.191-12.777,12.313-12.819
				c0.676-0.235,1.092-0.914,0.994-1.622S64.148,38.83,63.435,38.787z M49.868,49.133c-1.356-3.13-3.709-6.907-7.587-8.877
				c2.931-1.405,6.408-3.913,8.201-8.273c1.552,3.071,4.2,6.88,8.335,8.723C55.81,42.346,51.895,45.111,49.868,49.133z"/>
		</g>
	</g>
	<g>
		<g>
			<path class="st1" d="M28.424,44.019c-0.689,8.179-9.212,9.47-9.212,9.47c7.318,0.344,9.142,9.944,9.142,9.944
				c0.156-6.844,9.422-10.045,9.422-10.045C30.835,52.973,28.424,44.019,28.424,44.019z"/>
		</g>
	</g>
	<g>
		<g>
			<path class="st0" d="M37.865,51.891c-5.766-0.345-7.972-8.186-7.994-8.265c-0.189-0.702-0.862-1.163-1.581-1.102
				c-0.726,0.065-1.3,0.643-1.361,1.368c-0.578,6.871-7.646,8.067-7.942,8.114c-0.763,0.115-1.313,0.79-1.273,1.561
				c0.04,0.77,0.657,1.384,1.428,1.421c6.035,0.284,7.724,8.644,7.739,8.726c0.136,0.713,0.759,1.22,1.473,1.22
				c0.041,0,0.083-0.001,0.125-0.005c0.765-0.063,1.358-0.694,1.376-1.461c0.13-5.71,8.331-8.634,8.412-8.662
				c0.676-0.234,1.093-0.913,0.996-1.622C39.164,52.475,38.579,51.934,37.865,51.891z M28.28,58.685
				c-0.924-1.885-2.34-3.947-4.447-5.28c1.856-1.041,3.698-2.63,4.871-4.916c1.058,1.874,2.654,3.954,4.941,5.223
				C31.796,54.814,29.656,56.453,28.28,58.685z"/>
		</g>
	</g>
	<g>
		<g>
			<path class="st1" d="M28.424,17.361c-0.689,8.179-9.212,9.471-9.212,9.471c7.318,0.344,9.142,9.944,9.142,9.944
				c0.156-6.845,9.422-10.045,9.422-10.045C30.835,26.315,28.424,17.361,28.424,17.361z"/>
		</g>
	</g>
	<g>
		<g>
			<path class="st0" d="M37.865,25.233c-5.766-0.345-7.972-8.185-7.994-8.264c-0.189-0.702-0.862-1.162-1.581-1.102
				c-0.726,0.065-1.3,0.643-1.361,1.368c-0.578,6.871-7.646,8.067-7.942,8.114c-0.763,0.115-1.313,0.79-1.273,1.561
				c0.04,0.77,0.657,1.384,1.428,1.421c6.035,0.284,7.724,8.643,7.739,8.726c0.136,0.712,0.759,1.22,1.473,1.22
				c0.041,0,0.083-0.001,0.125-0.005c0.765-0.063,1.358-0.694,1.376-1.461c0.13-5.709,8.331-8.634,8.412-8.662
				c0.676-0.234,1.093-0.913,0.996-1.622C39.164,25.817,38.579,25.276,37.865,25.233z M28.28,32.028
				c-0.924-1.886-2.34-3.947-4.447-5.28c1.856-1.041,3.698-2.63,4.871-4.917c1.058,1.874,2.654,3.955,4.941,5.224
				C31.796,28.156,29.656,29.796,28.28,32.028z"/>
		</g>
	</g>
	<g>
		<g>
			<path class="st6" d="M203.091,29.268h-70.09c0.65,1.54,1.01,3.24,1.01,5.03v1.97h69.08c-0.26-1.13-0.39-2.3-0.39-3.5
				C202.701,31.568,202.831,30.398,203.091,29.268z"/>
		</g>
	</g>
	<g>
		<g>
			<path class="st0" d="M204.201,32.768c0-1.086,0.118-2.15,0.353-3.163c0.103-0.445-0.004-0.914-0.288-1.271
				c-0.284-0.358-0.717-0.566-1.174-0.566h-70.091c-0.503,0-0.973,0.252-1.25,0.671c-0.278,0.419-0.327,0.95-0.132,1.413
				c0.592,1.401,0.892,2.897,0.892,4.446v1.97c0,0.829,0.672,1.5,1.5,1.5h69.081c0.457,0,0.89-0.208,1.174-0.566
				c0.284-0.358,0.391-0.826,0.288-1.271C204.319,34.917,204.201,33.854,204.201,32.768z M201.314,34.768h-65.804v-0.47
				c0-1.205-0.145-2.386-0.432-3.53h66.235c-0.075,0.658-0.113,1.326-0.113,2C201.201,33.442,201.239,34.11,201.314,34.768z"/>
		</g>
	</g>
	<g>
		<g>
			
				<ellipse transform="matrix(0.9571 -0.2898 0.2898 0.9571 -0.1048 64.8283)" class="st7" cx="218.86" cy="32.768" rx="16.157" ry="16.157"/>
		</g>
	</g>
	<g>
		<g>
			<path class="st0" d="M218.86,15.111c-9.736,0-17.657,7.921-17.657,17.657c0,9.736,7.921,17.657,17.657,17.657
				s17.657-7.921,17.657-17.657C236.518,23.032,228.597,15.111,218.86,15.111z M218.86,47.425c-8.082,0-14.657-6.575-14.657-14.657
				c0-8.082,6.575-14.657,14.657-14.657s14.657,6.575,14.657,14.657C233.518,40.85,226.942,47.425,218.86,47.425z"/>
		</g>
	</g>
	<g>
		<g>
			<path class="st1" d="M130.171,25.038c-2.37-2.37-5.64-3.84-9.26-3.84c-7.24,0-13.1,5.87-13.1,13.1v14.56c0,0.17,0,0.33,0.01,0.49
				c4.25-0.52,8.62-0.79,13.09-0.79s8.84,0.27,13.09,0.79c0.01-0.16,0.01-0.32,0.01-0.49v-14.56
				C134.011,30.688,132.541,27.408,130.171,25.038z"/>
		</g>
	</g>
	<g>
		<g>
			<path class="st0" d="M131.232,23.977c-2.76-2.76-6.425-4.28-10.321-4.28c-8.05,0-14.6,6.55-14.6,14.6v14.56
				c0,0.202,0.001,0.392,0.013,0.582c0.025,0.413,0.22,0.797,0.537,1.061c0.319,0.265,0.729,0.387,1.143,0.336
				c8.447-1.033,17.367-1.033,25.814,0c0.062,0.007,0.122,0.011,0.183,0.011c0.349,0,0.688-0.121,0.96-0.347
				c0.317-0.265,0.512-0.648,0.537-1.061c0.012-0.19,0.013-0.38,0.013-0.582v-14.56C135.511,30.402,133.991,26.737,131.232,23.977z
				 M132.511,47.668c-3.814-0.405-7.708-0.61-11.6-0.61s-7.785,0.205-11.6,0.61v-13.37c0-6.396,5.203-11.6,11.6-11.6
				c3.095,0,6.007,1.208,8.2,3.401c2.192,2.193,3.399,5.104,3.399,8.199V47.668z"/>
		</g>
	</g>
	<g>
		<g>
			<path class="st3" d="M206.51,88.033H35.31c-4.763,0-8.624,3.861-8.624,8.624c0,4.763,3.861,8.624,8.624,8.624h171.2
				c4.763,0,8.624-3.861,8.624-8.624C215.134,91.895,211.273,88.033,206.51,88.033z"/>
		</g>
	</g>
	<g>
		<g>
			<path class="st0" d="M206.51,86.533H35.31c-5.582,0-10.124,4.542-10.124,10.125s4.542,10.124,10.124,10.124h171.2
				c5.582,0,10.124-4.541,10.124-10.124S212.092,86.533,206.51,86.533z M206.51,103.782H35.31c-3.928,0-7.124-3.196-7.124-7.124
				c0-3.928,3.196-7.125,7.124-7.125h171.2c3.928,0,7.124,3.196,7.124,7.125C213.634,100.586,210.438,103.782,206.51,103.782z"/>
		</g>
	</g>
	<g>
		<g>
			<path class="st3" d="M206.51,222.14H35.31c-4.763,0-8.624,3.861-8.624,8.624c0,4.763,3.861,8.624,8.624,8.624h171.2
				c4.763,0,8.624-3.861,8.624-8.624C215.134,226.002,211.273,222.14,206.51,222.14z"/>
		</g>
	</g>
	<g>
		<g>
			<path class="st0" d="M206.51,220.641H35.31c-5.582,0-10.124,4.542-10.124,10.124c0,5.583,4.542,10.125,10.124,10.125h171.2
				c5.582,0,10.124-4.542,10.124-10.125C216.634,225.182,212.092,220.641,206.51,220.641z M206.51,237.889H35.31
				c-3.928,0-7.124-3.196-7.124-7.125c0-3.928,3.196-7.124,7.124-7.124h171.2c3.928,0,7.124,3.196,7.124,7.124
				C213.634,234.693,210.438,237.889,206.51,237.889z"/>
		</g>
	</g>
	<g>
		<g>
			<rect x="44.444" y="105.282" class="st3" width="152.933" height="116.786"/>
		</g>
	</g>
	<g>
		<g>
			<path class="st0" d="M197.376,103.782H44.443c-0.828,0-1.5,0.671-1.5,1.5v37.696c0,0.829,0.672,1.5,1.5,1.5s1.5-0.671,1.5-1.5
				v-36.196h149.933v113.786H45.943v-62.01c0-0.829-0.672-1.5-1.5-1.5s-1.5,0.671-1.5,1.5v63.51c0,0.829,0.672,1.5,1.5,1.5h152.933
				c0.828,0,1.5-0.671,1.5-1.5V105.282C198.876,104.453,198.204,103.782,197.376,103.782z"/>
		</g>
	</g>
	<g>
		<g>
			<path class="st1" d="M174.349,144.209H67.471c-5.858,0-10.606,4.749-10.606,10.606v41.239c0,5.858,4.749,10.606,10.606,10.606
				h106.878c5.858,0,10.606-4.749,10.606-10.606v-41.239C184.955,148.958,180.207,144.209,174.349,144.209z"/>
		</g>
	</g>
	<g>
		<g>
			<path class="st0" d="M174.349,142.709h-20.636c-0.828,0-1.5,0.671-1.5,1.5c0,0.829,0.672,1.5,1.5,1.5h20.636
				c5.021,0,9.106,4.085,9.106,9.106v41.239c0,5.021-4.085,9.106-9.106,9.106H67.471c-5.021,0-9.106-4.085-9.106-9.106v-41.239
				c0-5.022,4.085-9.106,9.106-9.106h71.186c0.828,0,1.5-0.671,1.5-1.5c0-0.829-0.672-1.5-1.5-1.5H67.471
				c-6.676,0-12.106,5.431-12.106,12.106v41.239c0,6.675,5.431,12.106,12.106,12.106h106.878c6.676,0,12.106-5.431,12.106-12.106
				v-41.239C186.455,148.14,181.024,142.709,174.349,142.709z"/>
		</g>
	</g>
	<g>
		<g>
			<path class="st7" d="M120.91,48.563c-35.365,0-64.802,17.007-70.985,39.466h141.971C185.712,65.57,156.274,48.563,120.91,48.563z
				"/>
		</g>
	</g>
	<g>
		<g>
			<path class="st0" d="M193.342,87.63c-6.473-23.506-36.935-40.567-72.432-40.567c-35.498,0-65.96,17.061-72.432,40.567
				c-0.124,0.451-0.03,0.934,0.253,1.307c0.284,0.372,0.726,0.591,1.193,0.591h141.971c0.468,0,0.909-0.219,1.193-0.591
				C193.372,88.565,193.466,88.081,193.342,87.63z M51.954,86.528c7.219-21.244,35.763-36.465,68.956-36.465
				c33.192,0,61.736,15.221,68.956,36.465H51.954z"/>
		</g>
	</g>
	<g>
		<g>
			<circle class="st6" cx="120.91" cy="175.435" r="9.898"/>
		</g>
	</g>
	<g>
		<g>
			<path class="st0" d="M120.91,164.037c-6.285,0-11.398,5.113-11.398,11.398c0,6.285,5.113,11.398,11.398,11.398
				c6.284,0,11.397-5.113,11.397-11.398C132.308,169.15,127.194,164.037,120.91,164.037z M120.91,183.833
				c-4.631,0-8.398-3.767-8.398-8.398c0-4.631,3.768-8.398,8.398-8.398s8.397,3.767,8.397,8.398
				C129.308,180.065,125.541,183.833,120.91,183.833z"/>
		</g>
	</g>
	<g>
		<g>
			<path class="st10" d="M218.861,18.108c-1.74,0-3.41,0.3-4.97,0.87c5.64,2.04,9.68,7.46,9.68,13.79c0,6.33-4.04,11.75-9.68,13.79
				c1.56,0.57,3.23,0.87,4.97,0.87c8.08,0,14.66-6.58,14.66-14.66C233.521,24.688,226.941,18.108,218.861,18.108z"/>
		</g>
	</g>
	<g>
		<g>
			<path class="st8" d="M206.511,89.538h-9.94c3.93,0,7.12,3.19,7.12,7.12s-3.19,7.12-7.12,7.12h9.94c3.93,0,7.12-3.19,7.12-7.12
				S210.441,89.538,206.511,89.538z"/>
		</g>
	</g>
	<g>
		<g>
			<path class="st8" d="M206.511,223.638h-9.94c3.93,0,7.12,3.2,7.12,7.13c0,3.92-3.19,7.12-7.12,7.12h9.94
				c3.93,0,7.12-3.2,7.12-7.12C213.631,226.838,210.441,223.638,206.511,223.638z"/>
		</g>
	</g>
	<g>
		<g>
			<path class="st8" d="M185.931,106.778v44.54c0.34,1.11,0.52,2.28,0.52,3.5v41.24c0,1.21-0.18,2.38-0.52,3.49v21.02h9.94v-113.79
				H185.931z"/>
		</g>
	</g>
	<g>
		<g>
			<path class="st10" d="M120.911,50.058c-1.67,0-3.32,0.04-4.97,0.12c31.03,1.43,57.12,16.18,63.98,36.35h9.94
				C182.651,65.288,154.101,50.058,120.911,50.058z"/>
		</g>
	</g>
</g>
</svg>
