<?xml version="1.0" encoding="utf-8"?>
<!-- Generator: Adobe Illustrator 22.0.1, SVG Export Plug-In . SVG Version: 6.00 Build 0)  -->
<svg version="1.1" id="Layer_2" xmlns="http://www.w3.org/2000/svg" xmlns:xlink="http://www.w3.org/1999/xlink" x="0px" y="0px"
	 viewBox="0 0 256 256" style="enable-background:new 0 0 256 256;" xml:space="preserve">
<style type="text/css">
	.st0{fill:#3A312A;}
	.st1{fill:#D7E057;}
	.st2{fill:#FCE8CB;}
	.st3{fill:#8AC6DD;}
	.st4{fill-rule:evenodd;clip-rule:evenodd;fill:#FCE8CB;}
	.st5{fill:#F5978A;}
	.st6{fill:#87796F;}
	.st7{fill:#F16C7A;}
	.st8{fill:#68A8BC;}
	.st9{fill:#B9BC39;}
	.st10{fill:#CE4E61;}
	.st11{fill:#6B5B51;}
	.st12{fill:#CCAE8B;}
	.st13{fill-rule:evenodd;clip-rule:evenodd;fill:#F16C7A;}
</style>
<g>
	<g>
		<g>
			<path class="st2" d="M152.364,20.039c5.854,19.2-43.867,12.928-45.051,31.703h100.181C205.647,37.45,148.12,6.106,152.364,20.039
				z"/>
		</g>
	</g>
	<g>
		<g>
			<path class="st0" d="M208.981,51.549c-1.45-11.219-31.098-29.512-45.979-34.765c-5.967-2.105-9.569-2.297-11.343-0.6
				c-0.72,0.689-1.431,1.993-0.73,4.292c0.639,2.095,0.538,3.854-0.309,5.379c-2.468,4.447-11.167,6.775-19.58,9.026
				c-12.085,3.234-24.583,6.579-25.226,16.765c-0.026,0.414,0.12,0.819,0.403,1.122c0.284,0.302,0.68,0.473,1.094,0.473h100.181
				c0.431,0,0.842-0.186,1.126-0.51C208.905,52.408,209.037,51.977,208.981,51.549z M109.067,50.242
				c1.827-6.862,12.452-9.706,22.75-12.461c9.432-2.524,18.341-4.909,21.427-10.469c1.245-2.242,1.431-4.836,0.555-7.709
				c-0.214-0.702-0.186-1.134-0.064-1.251c0.437-0.419,2.729-0.694,8.269,1.262c14.77,5.214,39.667,21.202,43.531,30.628H109.067z"
				/>
		</g>
	</g>
	<g>
		<g>
			<path class="st1" d="M207.489,51.833c-0.008-0.06-0.058-0.104-0.117-0.104h-99.938c-0.059,0-0.109,0.044-0.117,0.104
				c-1.776,12.982-2.747,26.871-2.747,41.323c0,44.774,9.228,86.988,23.266,110.319c5.364,8.914,14.07,15.344,24.153,16.972
				c13.417,2.166,26.722-3.88,33.956-15.311c14.612-23.09,24.291-66.125,24.291-111.98
				C210.237,78.704,209.265,64.815,207.489,51.833z"/>
		</g>
	</g>
	<g>
		<g>
			<path class="st0" d="M208.975,51.628c-0.11-0.797-0.799-1.398-1.603-1.398h-99.938c-0.804,0-1.493,0.601-1.604,1.401
				c-1.832,13.392-2.761,27.364-2.761,41.526c0,44.453,8.998,87.021,23.481,111.092c5.765,9.581,14.949,16.025,25.199,17.68
				c1.89,0.305,3.775,0.454,5.647,0.454c11.968,0,23.265-6.094,29.815-16.443c15.127-23.903,24.524-67.118,24.524-112.782
				C211.737,78.997,210.808,65.025,208.975,51.628z M184.678,204.334c-6.931,10.953-19.669,16.695-32.449,14.632
				c-9.376-1.514-17.798-7.442-23.107-16.265c-14.218-23.63-23.051-65.605-23.051-109.545c0-13.608,0.865-27.035,2.573-39.927
				h97.521c1.708,12.896,2.573,26.323,2.573,39.927C208.737,137.601,199.293,181.241,184.678,204.334z"/>
		</g>
	</g>
	<g>
		<g>
			<path class="st7" d="M209.74,75.313h-21.969h-14.631h-68.074c-0.327,5.833-0.497,11.79-0.497,17.844
				c0,45.855,9.679,88.891,24.291,111.98c6.258,9.888,17.057,15.746,28.542,15.746c11.485,0,22.284-5.859,28.542-15.746
				c14.612-23.089,24.291-66.125,24.291-111.98C210.237,87.103,210.067,81.146,209.74,75.313z"/>
		</g>
	</g>
	<g>
		<g>
			<path class="st0" d="M211.238,75.229c-0.044-0.794-0.702-1.416-1.498-1.416h-21.969c-0.829,0-1.5,0.671-1.5,1.5
				s0.671,1.5,1.5,1.5h20.547c0.277,5.394,0.418,10.885,0.418,16.344c0,44.444-9.444,88.084-24.059,111.177
				c-5.963,9.423-16.159,15.049-27.274,15.049c-11.115,0-21.31-5.625-27.274-15.049c-14.615-23.093-24.059-66.733-24.059-111.177
				c0-5.459,0.141-10.95,0.418-16.344h66.652c0.829,0,1.5-0.671,1.5-1.5s-0.671-1.5-1.5-1.5h-68.074
				c-0.796,0-1.453,0.622-1.498,1.416c-0.331,5.903-0.499,11.935-0.499,17.928c0,45.665,9.397,88.88,24.523,112.782
				c6.517,10.297,17.661,16.444,29.809,16.444c12.149,0,23.293-6.147,29.81-16.444c15.127-23.902,24.524-67.118,24.524-112.782
				C211.737,87.164,211.569,81.132,211.238,75.229z"/>
		</g>
	</g>
	<g>
		<g>
			<path class="st1" d="M76.675,26.26C75.701,37.824,63.65,39.65,63.65,39.65c10.347,0.487,12.925,14.059,12.925,14.059
				c0.221-9.677,13.321-14.202,13.321-14.202C80.083,38.92,76.675,26.26,76.675,26.26z"/>
		</g>
	</g>
	<g>
		<g>
			<path class="st0" d="M89.986,38.009c-8.604-0.514-11.832-12.024-11.864-12.14c-0.191-0.703-0.862-1.164-1.583-1.102
				c-0.725,0.066-1.298,0.642-1.359,1.367c-0.86,10.215-11.313,11.963-11.754,12.032c-0.763,0.115-1.313,0.79-1.273,1.561
				c0.04,0.77,0.657,1.384,1.428,1.421c9.028,0.425,11.498,12.718,11.523,12.842c0.137,0.711,0.759,1.217,1.472,1.217
				c0.042,0,0.084-0.001,0.126-0.005c0.764-0.064,1.357-0.693,1.375-1.459c0.195-8.508,12.192-12.777,12.313-12.819
				c0.675-0.235,1.092-0.915,0.994-1.623C91.284,38.593,90.7,38.052,89.986,38.009z M76.42,48.355
				c-1.356-3.131-3.709-6.908-7.587-8.877c2.931-1.404,6.409-3.913,8.202-8.272c1.551,3.071,4.199,6.88,8.334,8.722
				C82.362,41.568,78.446,44.334,76.42,48.355z"/>
		</g>
	</g>
	<g>
		<g>
			<path class="st1" d="M54.976,43.241c-0.689,8.179-9.213,9.47-9.213,9.47c7.318,0.344,9.142,9.944,9.142,9.944
				c0.156-6.844,9.422-10.045,9.422-10.045C57.387,52.195,54.976,43.241,54.976,43.241z"/>
		</g>
	</g>
	<g>
		<g>
			<path class="st0" d="M64.417,51.113c-5.766-0.345-7.972-8.185-7.993-8.264c-0.19-0.702-0.855-1.169-1.582-1.102
				c-0.726,0.065-1.299,0.642-1.36,1.368c-0.579,6.87-7.646,8.066-7.942,8.113c-0.763,0.115-1.313,0.79-1.273,1.561
				c0.04,0.77,0.657,1.384,1.427,1.421c6.035,0.284,7.724,8.644,7.739,8.726c0.135,0.712,0.759,1.22,1.473,1.22
				c0.041,0,0.083-0.001,0.125-0.005c0.765-0.063,1.358-0.694,1.376-1.461c0.13-5.709,8.331-8.634,8.412-8.662
				c0.677-0.234,1.094-0.913,0.996-1.622C65.716,51.697,65.132,51.156,64.417,51.113z M54.833,57.908
				c-0.924-1.886-2.34-3.947-4.447-5.28c1.856-1.042,3.697-2.63,4.871-4.917c1.057,1.874,2.654,3.955,4.941,5.224
				C58.348,54.036,56.209,55.676,54.833,57.908z"/>
		</g>
	</g>
	<g>
		<g>
			<path class="st1" d="M54.976,16.583c-0.689,8.179-9.213,9.471-9.213,9.471c7.318,0.344,9.142,9.944,9.142,9.944
				c0.156-6.845,9.422-10.045,9.422-10.045C57.387,25.538,54.976,16.583,54.976,16.583z"/>
		</g>
	</g>
	<g>
		<g>
			<path class="st0" d="M64.417,24.456c-5.766-0.345-7.972-8.186-7.994-8.265c-0.19-0.702-0.855-1.17-1.582-1.102
				c-0.726,0.065-1.299,0.642-1.36,1.368c-0.579,6.871-7.646,8.067-7.942,8.114c-0.763,0.115-1.313,0.79-1.273,1.561
				c0.04,0.77,0.657,1.384,1.428,1.421c6.035,0.284,7.723,8.644,7.739,8.726c0.135,0.713,0.759,1.22,1.472,1.22
				c0.042,0,0.083-0.001,0.125-0.005c0.765-0.063,1.358-0.694,1.376-1.461c0.13-5.709,8.331-8.634,8.412-8.662
				c0.676-0.234,1.094-0.913,0.996-1.622C65.716,25.04,65.132,24.499,64.417,24.456z M54.833,31.25
				c-0.924-1.885-2.34-3.947-4.447-5.28c1.856-1.041,3.697-2.63,4.871-4.916c1.057,1.874,2.654,3.954,4.942,5.224
				C58.348,27.379,56.209,29.018,54.833,31.25z"/>
		</g>
	</g>
	<g>
		<g>
			<path class="st1" d="M157.398,220.883c-19.431,0-35.186,8.311-35.186,18.567h70.383
				C192.595,229.194,176.84,220.883,157.398,220.883z"/>
		</g>
	</g>
	<g>
		<g>
			<path class="st0" d="M157.398,219.383c-20.572,0-36.687,8.814-36.687,20.067c0,0.829,0.671,1.5,1.5,1.5h17.856
				c0.829,0,1.5-0.671,1.5-1.5s-0.671-1.5-1.5-1.5h-16.22c1.556-8.581,16.287-15.567,33.551-15.567
				c17.269,0,32.005,6.986,33.562,15.567h-36.886c-0.829,0-1.5,0.671-1.5,1.5s0.671,1.5,1.5,1.5h38.521c0.829,0,1.5-0.671,1.5-1.5
				C194.095,228.197,177.976,219.383,157.398,219.383z"/>
		</g>
	</g>
	<g>
		<g>
			<path class="st9" d="M157.393,222.38c-1.64,0-3.25,0.06-4.83,0.18c15.11,1.16,27.32,7.62,28.73,15.39h9.67
				C189.403,229.37,174.663,222.38,157.393,222.38z"/>
		</g>
	</g>
	<g>
		<g>
			<path class="st12" d="M162.003,19.61c-5.54-1.95-7.83-1.68-8.27-1.26c-0.12,0.12-0.15,0.55,0.07,1.25
				c0.23,0.75,0.39,1.49,0.46,2.2c14.75,6.6,34.65,20.08,38.08,28.43h13.19C201.653,40.8,176.763,24.82,162.003,19.61z"/>
		</g>
	</g>
	<g>
		<g>
			<path class="st9" d="M206.163,53.23h-13.18c0.89,6.73,1.54,13.61,1.97,20.58h13.19C207.713,66.84,207.053,59.96,206.163,53.23z"
				/>
		</g>
	</g>
	<g>
		<g>
			<path class="st10" d="M208.323,76.81h-13.19c0.28,5.4,0.42,10.9,0.42,16.35c0,13.89-0.92,27.7-2.64,40.82
				c-0.68,5.26-1.5,10.4-2.43,15.39c-0.23,1.25-0.47,2.49-0.72,3.72c-4.2,20.91-10.51,38.98-18.27,51.24
				c-4.76,7.53-12.21,12.63-20.68,14.37c2.14,0.45,4.35,0.68,6.59,0.68c11.11,0,21.31-5.62,27.27-15.05
				c7.77-12.26,14.07-30.33,18.28-51.24c0.25-1.23,0.49-2.47,0.72-3.72c0.93-4.99,1.74-10.13,2.43-15.39
				c1.71-13.12,2.63-26.93,2.63-40.82C208.733,87.71,208.593,82.21,208.323,76.81z"/>
		</g>
	</g>
</g>
</svg>
