<?xml version="1.0" encoding="utf-8"?>
<!-- Generator: Adobe Illustrator 22.0.1, SVG Export Plug-In . SVG Version: 6.00 Build 0)  -->
<svg version="1.1" id="Layer_2" xmlns="http://www.w3.org/2000/svg" xmlns:xlink="http://www.w3.org/1999/xlink" x="0px" y="0px"
	 viewBox="0 0 256 256" style="enable-background:new 0 0 256 256;" xml:space="preserve">
<style type="text/css">
	.st0{fill:#3A312A;}
	.st1{fill:#D7E057;}
	.st2{fill:#FCE8CB;}
	.st3{fill:#8AC6DD;}
	.st4{fill-rule:evenodd;clip-rule:evenodd;fill:#FCE8CB;}
	.st5{fill:#F5978A;}
	.st6{fill:#87796F;}
	.st7{fill:#F16C7A;}
	.st8{fill:#68A8BC;}
	.st9{fill:#B9BC39;}
	.st10{fill:#CE4E61;}
	.st11{fill:#6B5B51;}
	.st12{fill:#CCAE8B;}
	.st13{fill-rule:evenodd;clip-rule:evenodd;fill:#F16C7A;}
</style>
<g>
	<g>
		<g>
			<rect x="28.29" y="60.67" class="st1" width="199.42" height="167.04"/>
		</g>
	</g>
	<g>
		<g>
			<path class="st0" d="M227.71,59.17H28.29c-0.828,0-1.5,0.672-1.5,1.5v63.16c0,0.828,0.672,1.5,1.5,1.5s1.5-0.672,1.5-1.5V62.17
				h196.42v164.04H29.79v-88.707c0-0.828-0.672-1.5-1.5-1.5s-1.5,0.672-1.5,1.5v90.207c0,0.828,0.672,1.5,1.5,1.5h199.42
				c0.828,0,1.5-0.672,1.5-1.5V60.67C229.21,59.842,228.538,59.17,227.71,59.17z"/>
		</g>
	</g>
	<g>
		<g>
			<path class="st7" d="M89.412,117.87H50.768c-4.268,0-7.728,3.46-7.728,7.728V227.71h54.1V125.598
				C97.14,121.33,93.68,117.87,89.412,117.87z"/>
		</g>
	</g>
	<g>
		<g>
			<path class="st0" d="M89.412,116.37H50.769c-5.089,0-9.229,4.14-9.229,9.229V227.71c0,0.828,0.672,1.5,1.5,1.5h54.1
				c0.828,0,1.5-0.672,1.5-1.5V125.599C98.64,120.51,94.5,116.37,89.412,116.37z M95.64,226.21h-51.1V125.599
				c0-3.435,2.794-6.229,6.229-6.229h38.644c3.434,0,6.228,2.794,6.228,6.229V226.21z"/>
		</g>
	</g>
	<g>
		<g>
			<path class="st7" d="M203.858,117.865h-82.785c-4.268,0-7.728,3.46-7.728,7.728v82.785c0,4.268,3.46,7.728,7.728,7.728h82.785
				c4.268,0,7.728-3.46,7.728-7.728v-82.785C211.586,121.325,208.126,117.865,203.858,117.865z"/>
		</g>
	</g>
	<g>
		<g>
			<path class="st0" d="M203.858,116.365h-82.785c-5.088,0-9.228,4.14-9.228,9.229v82.784c0,5.089,4.14,9.229,9.228,9.229h82.785
				c5.088,0,9.228-4.14,9.228-9.229v-82.784C213.086,120.505,208.946,116.365,203.858,116.365z M210.086,208.378
				c0,3.435-2.794,6.229-6.228,6.229h-82.785c-3.434,0-6.228-2.794-6.228-6.229v-82.784c0-3.435,2.794-6.229,6.228-6.229h82.785
				c3.434,0,6.228,2.794,6.228,6.229V208.378z"/>
		</g>
	</g>
	<g>
		<g>
			<path class="st6" d="M233.575,227.71H22.425c-3.239,0-5.865,2.626-5.865,5.865l0,0c0,3.239,2.626,5.865,5.865,5.865h211.15
				c3.239,0,5.865-2.626,5.865-5.865l0,0C239.44,230.336,236.814,227.71,233.575,227.71z"/>
		</g>
	</g>
	<g>
		<g>
			<path class="st0" d="M233.575,226.21H22.425c-4.062,0-7.365,3.304-7.365,7.365s3.304,7.365,7.365,7.365h211.15
				c4.062,0,7.365-3.304,7.365-7.365S237.637,226.21,233.575,226.21z M233.575,237.94H22.425c-2.407,0-4.365-1.958-4.365-4.365
				s1.958-4.365,4.365-4.365h211.15c2.407,0,4.365,1.958,4.365,4.365S235.982,237.94,233.575,237.94z"/>
		</g>
	</g>
	<g>
		<g>
			<polygon class="st6" points="204.249,16.56 51.751,16.56 16.56,60.667 239.44,60.667 			"/>
		</g>
	</g>
	<g>
		<g>
			<path class="st0" d="M240.613,59.731l-35.191-44.107c-0.285-0.356-0.717-0.564-1.173-0.564h-29.97c-0.828,0-1.5,0.672-1.5,1.5
				s0.672,1.5,1.5,1.5h29.248l32.798,41.107H19.676L52.474,18.06h108.58c0.828,0,1.5-0.672,1.5-1.5s-0.672-1.5-1.5-1.5H51.752
				c-0.456,0-0.888,0.208-1.173,0.564L15.387,59.731c-0.359,0.45-0.429,1.067-0.179,1.586c0.25,0.52,0.775,0.85,1.352,0.85H239.44
				c0.576,0,1.102-0.33,1.352-0.85C241.042,60.799,240.973,60.182,240.613,59.731z"/>
		</g>
	</g>
	<g>
		<g>
			<path class="st2" d="M61.125,60.667v24.279c0.003-0.144,0.011-0.287,0.011-0.431c0.001,12.309,9.979,22.287,22.288,22.287
				c11.985,0,21.756-9.46,22.264-21.32V60.667H61.125z"/>
		</g>
	</g>
	<g>
		<g>
			<path class="st0" d="M105.688,59.167H61.125c-0.828,0-1.5,0.672-1.5,1.5v24.279c0,0.084,0.007,0.167,0.021,0.248
				c0.362,12.803,10.89,23.107,23.778,23.107c12.779,0,23.217-9.996,23.764-22.82V60.667
				C107.188,59.839,106.516,59.167,105.688,59.167z M83.424,105.302c-11.462,0-20.787-9.325-20.788-20.787
				c0-0.062-0.004-0.121-0.011-0.181V62.167h41.563l0.001,23.25C103.712,96.567,94.591,105.302,83.424,105.302z"/>
		</g>
	</g>
	<g>
		<g>
			<path class="st6" d="M16.56,60.667v23.847c0,12.309,9.979,22.288,22.288,22.288c12.164,0,22.046-9.747,22.277-21.855V60.667
				H16.56z"/>
		</g>
	</g>
	<g>
		<g>
			<path class="st0" d="M61.125,59.167H16.56c-0.828,0-1.5,0.672-1.5,1.5v23.847c0,13.117,10.671,23.788,23.788,23.788
				c12.865,0,23.531-10.465,23.777-23.355V60.667C62.625,59.839,61.953,59.167,61.125,59.167z M59.625,84.918
				c-0.215,11.239-9.535,20.384-20.777,20.384c-11.463,0-20.788-9.325-20.788-20.788V62.167h41.565V84.918z"/>
		</g>
	</g>
	<g>
		<g>
			<path class="st6" d="M194.813,60.667v25.292c0.031-0.478,0.052-0.958,0.052-1.444c0,12.309,9.979,22.287,22.288,22.287
				c12.309,0,22.288-9.979,22.288-22.288V60.667H194.813z"/>
		</g>
	</g>
	<g>
		<g>
			<path class="st0" d="M239.44,59.167h-44.628c-0.828,0-1.5,0.672-1.5,1.5v25.291c0,0.228,0.051,0.444,0.143,0.638
				c1.059,12.146,11.283,21.706,23.697,21.706c13.117,0,23.788-10.671,23.788-23.788V60.667
				C240.94,59.839,240.269,59.167,239.44,59.167z M237.94,84.514c0,11.463-9.325,20.788-20.788,20.788
				c-11.462,0-20.787-9.325-20.788-20.787c0-0.136-0.018-0.268-0.052-0.392V62.167h41.628V84.514z"/>
		</g>
	</g>
	<g>
		<g>
			<path class="st2" d="M150.25,60.667v25.112c0.024-0.419,0.038-0.841,0.038-1.266c0,12.309,9.979,22.288,22.288,22.288
				c11.823,0,21.491-9.208,22.236-20.843V60.667H150.25z"/>
		</g>
	</g>
	<g>
		<g>
			<path class="st0" d="M194.813,59.167H150.25c-0.828,0-1.5,0.672-1.5,1.5v25.112c0,0.197,0.038,0.386,0.107,0.558
				c0.934,12.269,11.215,21.965,23.719,21.965c12.51,0,22.935-9.772,23.736-22.344V60.667
				C196.313,59.839,195.641,59.167,194.813,59.167z M172.576,105.302c-11.463,0-20.788-9.325-20.788-20.788
				c0-0.116-0.013-0.229-0.038-0.337v-22.01h41.563l0.003,23.695C192.617,96.763,183.508,105.302,172.576,105.302z"/>
		</g>
	</g>
	<g>
		<g>
			<path class="st6" d="M105.688,60.667v24.815c0.014-0.321,0.025-0.644,0.025-0.968c0,12.309,9.979,22.288,22.288,22.288
				c11.884,0,21.594-9.302,22.25-21.022V60.667H105.688z"/>
		</g>
	</g>
	<g>
		<g>
			<path class="st0" d="M150.25,59.167h-44.563c-0.828,0-1.5,0.672-1.5,1.5v24.814c0,0.153,0.022,0.301,0.065,0.439
				c0.73,12.465,11.103,22.381,23.747,22.381c12.612,0,23.043-9.856,23.75-22.522V60.667
				C151.75,59.839,151.078,59.167,150.25,59.167z M128,105.302c-11.463,0-20.788-9.325-20.788-20.788
				c0-0.093-0.009-0.183-0.024-0.271V62.167h41.563l0.002,23.528C148.137,96.689,139.021,105.302,128,105.302z"/>
		</g>
	</g>
	<g>
		<g>
			<path class="st9" d="M224.499,107.133c-0.084,0.027-0.167,0.057-0.251,0.083c-0.556,0.174-1.121,0.325-1.694,0.459
				c-0.105,0.024-0.21,0.048-0.315,0.071c-0.577,0.126-1.161,0.234-1.753,0.317c-0.086,0.012-0.174,0.021-0.26,0.032
				c-0.624,0.081-1.255,0.144-1.894,0.176c-0.392,0.02-0.786,0.03-1.183,0.03c-10.21,0-18.92-6.47-22.29-15.52
				c-3.39,9.11-12.15,15.52-22.28,15.52c-10.21,0-18.93-6.45-22.3-15.49c-3.39,9.1-12.12,15.49-22.28,15.49
				c-10.2,0-18.91-6.45-22.29-15.48c-3.37,9.1-12.08,15.48-22.29,15.48c-10.21,0-18.93-6.47-22.3-15.52
				c-3.39,9.04-12.15,15.52-22.27,15.52c-3.21,0-6.27-0.64-9.06-1.79v7.33c2.79,1.15,5.85,1.8,9.06,1.8
				c10.12,0,18.88-6.49,22.27-15.53c3.37,9.06,12.09,15.53,22.3,15.53c10.21,0,18.92-6.39,22.29-15.49
				c3.38,9.03,12.09,15.49,22.29,15.49c10.16,0,18.89-6.4,22.28-15.5c3.37,9.04,12.09,15.5,22.3,15.5
				c10.13,0,18.89-6.41,22.28-15.53c3.37,9.05,12.08,15.53,22.29,15.53c0.397,0,0.791-0.01,1.183-0.03v110.6h7.877v-119.7
				C225.651,106.74,225.079,106.944,224.499,107.133z"/>
		</g>
	</g>
	<g>
		<g>
			<polygon class="st11" points="203.53,18.06 193.86,18.06 226.66,59.17 236.32,59.17 			"/>
		</g>
	</g>
	<g>
		<g>
			<path class="st11" d="M228.27,62.17v22.34c0,9.81-6.81,18.04-15.95,20.22c1.55,0.37,3.17,0.57,4.83,0.57
				c11.46,0,20.79-9.32,20.79-20.79V62.17H228.27z"/>
		</g>
	</g>
	<g>
		<g>
			<path class="st2" d="M191.016,145.017c-6.6-8.53-16.93-14.02-28.55-14.02s-21.95,5.49-28.55,14.02
				c-4.7,6.09-7.51,13.74-7.51,22.04c0,8.6,3.01,16.51,8.04,22.7c6.61,8.15,16.7,13.36,28.02,13.36s21.41-5.21,28.02-13.36
				c5.03-6.19,8.04-14.1,8.04-22.7C198.526,158.757,195.716,151.107,191.016,145.017z"/>
		</g>
	</g>
	<g>
		<g>
			<path class="st0" d="M192.202,144.099c-7.181-9.279-18.019-14.602-29.736-14.602s-22.556,5.322-29.737,14.604
				c-5.118,6.631-7.823,14.569-7.823,22.956c0,8.601,2.975,16.998,8.375,23.646c7.173,8.843,17.811,13.915,29.186,13.915
				c11.376,0,22.013-5.072,29.184-13.914c5.401-6.647,8.376-15.045,8.376-23.646C200.025,158.669,197.32,150.73,192.202,144.099z
				 M189.32,188.813c-6.6,8.138-16.388,12.805-26.854,12.805s-20.255-4.667-26.856-12.807c-4.968-6.114-7.704-13.841-7.704-21.754
				c0-7.718,2.489-15.022,7.197-21.122c6.607-8.54,16.581-13.438,27.363-13.438s20.756,4.897,27.362,13.436
				c4.709,6.101,7.197,13.405,7.197,21.124C197.025,174.971,194.289,182.697,189.32,188.813z"/>
		</g>
	</g>
	<g>
		<g>
			<ellipse class="st6" cx="162.466" cy="167.149" rx="14.402" ry="22.851"/>
		</g>
	</g>
	<g>
		<g>
			<path class="st0" d="M162.466,142.798c-8.769,0-15.902,10.924-15.902,24.351c0,13.428,7.134,24.352,15.902,24.352
				c8.768,0,15.901-10.924,15.901-24.352C178.367,153.722,171.233,142.798,162.466,142.798z M162.466,188.5
				c-7.114,0-12.902-9.578-12.902-21.352c0-11.772,5.788-21.351,12.902-21.351s12.901,9.578,12.901,21.351
				C175.367,178.922,169.58,188.5,162.466,188.5z"/>
		</g>
	</g>
	<g>
		<g>
			<path class="st0" d="M163.845,166.3l-0.586-0.503c-3.169-2.727-4.906-6.316-4.893-10.105c0.014-3.797,1.783-7.382,4.98-10.093
				l0.096-0.081c0.632-0.535,0.71-1.481,0.175-2.114c-0.534-0.63-1.479-0.712-2.114-0.175l-0.096,0.081
				c-3.879,3.289-6.023,7.682-6.041,12.37c-0.017,4.682,2.091,9.082,5.937,12.392l0.586,0.503c3.182,2.738,4.919,6.343,4.892,10.149
				c-0.028,3.82-1.829,7.417-5.071,10.125c-0.636,0.531-0.721,1.478-0.189,2.113c0.297,0.354,0.723,0.538,1.152,0.538
				c0.339,0,0.68-0.114,0.961-0.349c3.93-3.283,6.112-7.689,6.147-12.406C169.814,174.043,167.707,169.623,163.845,166.3z"/>
		</g>
	</g>
</g>
</svg>
