<?xml version="1.0" encoding="utf-8"?>
<!-- Generator: Adobe Illustrator 22.0.1, SVG Export Plug-In . SVG Version: 6.00 Build 0)  -->
<svg version="1.1" id="Layer_2" xmlns="http://www.w3.org/2000/svg" xmlns:xlink="http://www.w3.org/1999/xlink" x="0px" y="0px"
	 viewBox="0 0 256 256" style="enable-background:new 0 0 256 256;" xml:space="preserve">
<style type="text/css">
	.st0{fill:#3A312A;}
	.st1{fill:#D7E057;}
	.st2{fill:#FCE8CB;}
	.st3{fill:#8AC6DD;}
	.st4{fill-rule:evenodd;clip-rule:evenodd;fill:#FCE8CB;}
	.st5{fill:#F5978A;}
	.st6{fill:#87796F;}
	.st7{fill:#F16C7A;}
	.st8{fill:#68A8BC;}
	.st9{fill:#B9BC39;}
	.st10{fill:#CE4E61;}
	.st11{fill:#6B5B51;}
	.st12{fill:#CCAE8B;}
	.st13{fill-rule:evenodd;clip-rule:evenodd;fill:#F16C7A;}
</style>
<g>
	<g>
		<g>
			<path class="st1" d="M96.341,61.854c-0.974,11.564-13.025,13.39-13.025,13.39c10.347,0.487,12.925,14.059,12.925,14.059
				c0.221-9.677,13.321-14.202,13.321-14.202C99.75,74.513,96.341,61.854,96.341,61.854z"/>
		</g>
	</g>
	<g>
		<g>
			<path class="st0" d="M109.652,73.603c-8.604-0.515-11.831-12.024-11.863-12.141c-0.191-0.703-0.859-1.164-1.584-1.102
				c-0.725,0.066-1.298,0.642-1.359,1.367c-0.86,10.215-11.313,11.964-11.754,12.032c-0.763,0.116-1.313,0.791-1.273,1.561
				c0.04,0.771,0.657,1.385,1.427,1.421c9.028,0.426,11.499,12.719,11.523,12.844c0.137,0.711,0.759,1.217,1.472,1.217
				c0.042,0,0.084-0.002,0.126-0.005c0.764-0.064,1.357-0.693,1.375-1.46c0.194-8.51,12.191-12.778,12.313-12.82
				c0.675-0.234,1.092-0.914,0.994-1.622C110.95,74.186,110.366,73.645,109.652,73.603z M96.087,83.948
				c-1.357-3.131-3.708-6.907-7.587-8.876c2.931-1.405,6.409-3.913,8.202-8.273c1.551,3.071,4.2,6.88,8.334,8.723
				C102.028,77.161,98.113,79.927,96.087,83.948z"/>
		</g>
	</g>
	<g>
		<g>
			<path class="st1" d="M74.643,78.834c-0.689,8.179-9.213,9.471-9.213,9.471c7.318,0.344,9.142,9.944,9.142,9.944
				c0.156-6.844,9.422-10.045,9.422-10.045C77.053,87.788,74.643,78.834,74.643,78.834z"/>
		</g>
	</g>
	<g>
		<g>
			<path class="st0" d="M84.084,86.706c-5.766-0.345-7.972-8.186-7.994-8.265c-0.19-0.702-0.854-1.164-1.582-1.102
				c-0.726,0.065-1.299,0.643-1.36,1.368c-0.579,6.87-7.647,8.066-7.942,8.113c-0.763,0.116-1.313,0.791-1.273,1.561
				c0.04,0.771,0.657,1.385,1.428,1.421c6.035,0.284,7.723,8.645,7.739,8.727c0.135,0.712,0.759,1.22,1.472,1.22
				c0.042,0,0.083-0.002,0.125-0.005c0.765-0.063,1.358-0.693,1.376-1.461c0.13-5.709,8.332-8.634,8.413-8.662
				c0.677-0.234,1.094-0.913,0.996-1.622C85.383,87.29,84.799,86.748,84.084,86.706z M74.5,93.501
				c-0.924-1.886-2.34-3.947-4.447-5.28c1.856-1.041,3.697-2.63,4.871-4.916c1.057,1.874,2.654,3.955,4.941,5.224
				C78.015,89.629,75.875,91.269,74.5,93.501z"/>
		</g>
	</g>
	<g>
		<g>
			<path class="st1" d="M74.643,52.177c-0.689,8.179-9.213,9.47-9.213,9.47c7.318,0.344,9.142,9.944,9.142,9.944
				c0.156-6.845,9.422-10.045,9.422-10.045C77.053,61.131,74.643,52.177,74.643,52.177z"/>
		</g>
	</g>
	<g>
		<g>
			<path class="st0" d="M84.084,60.049c-5.766-0.345-7.972-8.186-7.994-8.265c-0.19-0.701-0.855-1.16-1.582-1.102
				c-0.726,0.065-1.299,0.643-1.36,1.368c-0.579,6.87-7.647,8.066-7.942,8.113c-0.763,0.116-1.313,0.791-1.273,1.561
				c0.04,0.771,0.657,1.385,1.428,1.421c6.035,0.284,7.723,8.645,7.739,8.727c0.135,0.712,0.759,1.22,1.473,1.22
				c0.041,0,0.083-0.002,0.125-0.005c0.765-0.063,1.358-0.693,1.376-1.461c0.13-5.709,8.332-8.634,8.413-8.662
				c0.677-0.234,1.094-0.913,0.996-1.622C85.383,60.633,84.799,60.091,84.084,60.049z M74.5,66.844
				c-0.924-1.886-2.34-3.947-4.447-5.28c1.856-1.041,3.697-2.63,4.871-4.916c1.057,1.874,2.654,3.955,4.941,5.224
				C78.015,62.972,75.875,64.611,74.5,66.844z"/>
		</g>
	</g>
	<g>
		<g>
			<path class="st7" d="M209.024,54.25h-53.16c-16.37,0-29.65,13.28-29.65,29.66V225.6c0,7.65,6.19,13.84,13.83,13.84h84.8
				c7.64,0,13.83-6.19,13.83-13.84V83.91C238.674,67.53,225.394,54.25,209.024,54.25z"/>
		</g>
	</g>
	<g>
		<g>
			<path class="st0" d="M209.024,52.75h-53.16c-17.176,0-31.15,13.979-31.15,31.16v141.69c0,8.458,6.877,15.34,15.33,15.34h84.8
				c8.453,0,15.33-6.882,15.33-15.34V83.91C240.174,66.729,226.201,52.75,209.024,52.75z M237.174,225.601
				c0,6.805-5.531,12.34-12.33,12.34h-84.8c-6.799,0-12.33-5.535-12.33-12.34V83.91c0-15.527,12.628-28.16,28.15-28.16h53.16
				c15.522,0,28.15,12.633,28.15,28.16V225.601z"/>
		</g>
	</g>
	<g>
		<g>
			<rect x="157.694" y="35.407" class="st7" width="49.5" height="18.847"/>
		</g>
	</g>
	<g>
		<g>
			<path class="st0" d="M207.194,33.907h-49.5c-0.829,0-1.5,0.672-1.5,1.5v18.847c0,0.828,0.671,1.5,1.5,1.5h49.5
				c0.829,0,1.5-0.672,1.5-1.5V35.407C208.694,34.579,208.023,33.907,207.194,33.907z M205.694,52.754h-46.5V36.907h46.5V52.754z"/>
		</g>
	</g>
	<g>
		<g>
			<path class="st1" d="M206.729,16.56h-48.57c-5.204,0-9.423,4.219-9.423,9.423s4.219,9.423,9.423,9.423h48.57
				c5.204,0,9.423-4.219,9.423-9.423S211.933,16.56,206.729,16.56z"/>
		</g>
	</g>
	<g>
		<g>
			<path class="st0" d="M206.729,15.06h-48.57c-6.023,0-10.923,4.9-10.923,10.924s4.9,10.924,10.923,10.924h48.57
				c6.023,0,10.923-4.9,10.923-10.924S212.752,15.06,206.729,15.06z M206.729,33.907h-48.57c-4.369,0-7.923-3.555-7.923-7.924
				s3.554-7.924,7.923-7.924h48.57c4.369,0,7.923,3.555,7.923,7.924S211.098,33.907,206.729,33.907z"/>
		</g>
	</g>
	<g>
		<g>
			<polygon class="st6" points="159.991,95.333 145.994,95.333 126.214,95.333 126.214,200 238.674,200 238.674,95.333 			"/>
		</g>
	</g>
	<g>
		<g>
			<path class="st0" d="M238.674,93.834h-78.683c-0.829,0-1.5,0.672-1.5,1.5s0.671,1.5,1.5,1.5h77.183V198.5h-109.46V96.834h18.28
				c0.829,0,1.5-0.672,1.5-1.5s-0.671-1.5-1.5-1.5h-19.78c-0.829,0-1.5,0.672-1.5,1.5V200c0,0.828,0.671,1.5,1.5,1.5h112.46
				c0.829,0,1.5-0.672,1.5-1.5V95.334C240.174,94.506,239.503,93.834,238.674,93.834z"/>
		</g>
	</g>
	<g>
		<g>
			
				<ellipse transform="matrix(0.0553 -0.9985 0.9985 0.0553 24.6911 321.8768)" class="st1" cx="182.444" cy="147.89" rx="37.548" ry="37.548"/>
		</g>
	</g>
	<g>
		<g>
			<path class="st0" d="M182.444,108.842c-21.531,0-39.048,17.518-39.048,39.049s17.517,39.048,39.048,39.048
				c21.531,0,39.048-17.517,39.048-39.048S203.976,108.842,182.444,108.842z M182.444,183.938
				c-19.877,0-36.048-16.171-36.048-36.048s16.171-36.049,36.048-36.049c19.877,0,36.048,16.172,36.048,36.049
				S202.321,183.938,182.444,183.938z"/>
		</g>
	</g>
	<g>
		<g>
			<ellipse class="st6" cx="182.444" cy="147.986" rx="14.996" ry="23.794"/>
		</g>
	</g>
	<g>
		<g>
			<path class="st0" d="M182.444,122.692c-9.096,0-16.496,11.347-16.496,25.294s7.4,25.294,16.496,25.294
				s16.496-11.347,16.496-25.294S191.54,122.692,182.444,122.692z M182.444,170.28c-7.442,0-13.496-10.001-13.496-22.294
				s6.055-22.294,13.496-22.294s13.496,10.001,13.496,22.294S189.886,170.28,182.444,170.28z"/>
		</g>
	</g>
	<g>
		<g>
			<path class="st0" d="M183.84,147.149l-0.61-0.524c-3.313-2.851-5.13-6.604-5.115-10.569c0.014-3.972,1.864-7.722,5.207-10.557
				l0.099-0.084c0.632-0.535,0.71-1.482,0.175-2.114c-0.535-0.633-1.482-0.71-2.114-0.175l-0.1,0.084
				c-4.024,3.413-6.25,7.971-6.267,12.835c-0.018,4.856,2.169,9.422,6.159,12.854l0.61,0.524c3.328,2.863,5.144,6.634,5.115,10.615
				c-0.029,3.997-1.912,7.758-5.302,10.59c-0.636,0.531-0.72,1.478-0.189,2.113c0.296,0.354,0.723,0.538,1.152,0.538
				c0.339,0,0.68-0.114,0.961-0.349c4.078-3.407,6.343-7.978,6.378-12.871C190.034,155.183,187.847,150.598,183.84,147.149z"/>
		</g>
	</g>
	<g>
		<g>
			<path class="st2" d="M105.721,126H23.559c-3.609,0-6.464,3.057-6.218,6.658l6.172,90.329c0.633,9.263,8.331,16.453,17.615,16.453
				h47.025c9.284,0,16.983-7.19,17.615-16.453l6.172-90.329C112.185,129.057,109.33,126,105.721,126z"/>
		</g>
	</g>
	<g>
		<g>
			<path class="st0" d="M111.372,126.954c-1.457-1.56-3.517-2.454-5.651-2.454H82.843c-0.829,0-1.5,0.672-1.5,1.5s0.671,1.5,1.5,1.5
				h22.878c1.326,0,2.554,0.533,3.458,1.502c0.905,0.969,1.354,2.231,1.264,3.554l-6.172,90.329
				c-0.577,8.442-7.657,15.056-16.119,15.056H41.127c-8.461,0-15.542-6.613-16.119-15.056l-6.171-90.329
				c-0.09-1.322,0.358-2.585,1.263-3.554c0.905-0.969,2.133-1.502,3.458-1.502H69.14c0.829,0,1.5-0.672,1.5-1.5s-0.671-1.5-1.5-1.5
				H23.559c-2.134,0-4.194,0.895-5.651,2.454c-1.457,1.561-2.21,3.677-2.064,5.807l6.171,90.329
				c0.685,10.01,9.08,17.851,19.112,17.851h47.025c10.033,0,18.428-7.841,19.112-17.851l6.172-90.33
				C113.581,130.63,112.829,128.514,111.372,126.954z"/>
		</g>
	</g>
	<g>
		<g>
			<path class="st6" d="M18.753,153.333l4.759,69.653c0.633,9.263,8.331,16.453,17.615,16.453h47.025
				c9.284,0,16.983-7.19,17.615-16.453l4.759-69.653H18.753z"/>
		</g>
	</g>
	<g>
		<g>
			<path class="st0" d="M111.623,152.311c-0.284-0.304-0.681-0.477-1.096-0.477H18.753c-0.415,0-0.813,0.173-1.096,0.477
				s-0.429,0.711-0.4,1.126l4.759,69.653c0.685,10.01,9.08,17.851,19.112,17.851h47.025c10.033,0,18.428-7.841,19.112-17.851
				l4.759-69.653C112.052,153.021,111.907,152.614,111.623,152.311z M104.271,222.885c-0.577,8.442-7.657,15.056-16.119,15.056
				H41.127c-8.461,0-15.542-6.613-16.119-15.056l-4.649-68.051h88.562L104.271,222.885z"/>
		</g>
	</g>
	<g>
		<g>
			<path class="st2" d="M65.151,148.199l-16.177-11.765c-2.016-1.466-4.838-1.02-6.303,0.995l-11.765,16.177
				c-1.466,2.016-1.02,4.838,0.995,6.304l16.177,11.765c2.015,1.466,4.838,1.02,6.303-0.996l11.765-16.177
				C67.612,152.487,67.166,149.665,65.151,148.199z"/>
		</g>
	</g>
	<g>
		<g>
			<path class="st0" d="M66.033,146.986L49.856,135.22c-2.681-1.946-6.449-1.354-8.398,1.328l-11.765,16.176
				c-0.945,1.299-1.328,2.889-1.077,4.475c0.251,1.587,1.104,2.98,2.403,3.924l16.177,11.766c1.039,0.756,2.264,1.151,3.524,1.151
				c0.315,0,0.633-0.024,0.95-0.074c1.587-0.251,2.981-1.104,3.925-2.403l11.765-16.177
				C69.309,152.704,68.714,148.936,66.033,146.986z M64.933,153.621l-11.765,16.177c-0.977,1.343-2.865,1.64-4.208,0.664
				l-16.177-11.767c-0.65-0.473-1.078-1.17-1.204-1.965s0.066-1.591,0.54-2.242l11.765-16.177c0.977-1.342,2.863-1.642,4.208-0.665
				l16.177,11.766C65.612,150.39,65.91,152.277,64.933,153.621z"/>
		</g>
	</g>
	<g>
		<g>
			<path class="st2" d="M100.336,165.601l-19.552-4.223c-2.436-0.526-4.837,1.022-5.363,3.458l-4.223,19.552
				c-0.526,2.436,1.022,4.837,3.458,5.363l19.552,4.222c2.436,0.526,4.837-1.022,5.363-3.458l4.223-19.552
				C104.321,168.528,102.772,166.126,100.336,165.601z"/>
		</g>
	</g>
	<g>
		<g>
			<path class="st0" d="M100.653,164.135l-19.552-4.223c-1.569-0.342-3.178-0.047-4.528,0.823c-1.35,0.87-2.28,2.214-2.619,3.784
				l-4.223,19.552c-0.699,3.24,1.368,6.446,4.608,7.146l19.552,4.222c0.427,0.093,0.856,0.138,1.282,0.138
				c1.143,0,2.263-0.327,3.246-0.961c1.35-0.87,2.28-2.214,2.619-3.784l4.222-19.552C105.96,168.04,103.894,164.835,100.653,164.135
				z M102.328,170.647l-4.222,19.552c-0.17,0.786-0.636,1.46-1.312,1.896c-0.676,0.436-1.482,0.582-2.268,0.413c0,0,0,0,0,0
				l-19.552-4.222c-1.623-0.352-2.659-1.958-2.309-3.582l4.223-19.552c0.17-0.786,0.636-1.459,1.312-1.896
				c0.493-0.317,1.054-0.481,1.626-0.481c0.214,0,0.429,0.022,0.642,0.068l19.552,4.223
				C101.643,167.418,102.679,169.023,102.328,170.647z"/>
		</g>
	</g>
	<g>
		<g>
			<path class="st2" d="M74.873,216.869l-6.925-18.766c-0.863-2.338-3.458-3.534-5.796-2.671l-18.766,6.924
				c-2.338,0.863-3.534,3.458-2.671,5.796l6.925,18.766c0.863,2.338,3.458,3.534,5.796,2.671l18.766-6.925
				C74.54,221.802,75.735,219.207,74.873,216.869z"/>
		</g>
	</g>
	<g>
		<g>
			<path class="st0" d="M76.28,216.35l-6.925-18.766c-1.147-3.109-4.612-4.705-7.722-3.56l-18.767,6.925
				c-3.11,1.148-4.707,4.612-3.559,7.723l6.925,18.766c0.896,2.426,3.2,3.932,5.647,3.932c0.689,0,1.391-0.12,2.074-0.372
				l18.766-6.925c0,0,0,0,0,0C75.831,222.924,77.427,219.46,76.28,216.35z M71.682,221.258L71.682,221.258l-18.766,6.925
				c-1.562,0.572-3.294-0.227-3.869-1.784l-6.925-18.766c-0.575-1.558,0.225-3.294,1.783-3.869l18.766-6.925
				c0.343-0.126,0.694-0.187,1.039-0.187c1.227,0,2.381,0.755,2.83,1.971l6.925,18.766C74.04,218.946,73.24,220.683,71.682,221.258z
				"/>
		</g>
	</g>
	<g>
		<g>
			<path class="st0" d="M111.623,152.311c-0.284-0.304-0.681-0.477-1.096-0.477H18.753c-0.415,0-0.813,0.173-1.096,0.477
				s-0.429,0.711-0.4,1.126l4.759,69.653c0.685,10.01,9.08,17.851,19.112,17.851h47.025c10.033,0,18.428-7.841,19.112-17.851
				l4.759-69.653C112.052,153.021,111.907,152.614,111.623,152.311z M104.271,222.885c-0.577,8.442-7.657,15.056-16.119,15.056
				H41.127c-8.461,0-15.542-6.613-16.119-15.056l-4.649-68.051h88.562L104.271,222.885z"/>
		</g>
	</g>
	<g>
		<g>
			<path class="st10" d="M225.846,201.5v24.1c0,6.8-5.54,12.34-12.33,12.34h11.33c6.8,0,12.33-5.54,12.33-12.34v-24.1H225.846z"/>
		</g>
	</g>
	<g>
		<g>
			<path class="st10" d="M209.026,55.75h-11.33c15.52,0,28.15,12.63,28.15,28.16v9.92h11.33v-9.92
				C237.176,68.38,224.546,55.75,209.026,55.75z"/>
		</g>
	</g>
	<g>
		<g>
			<rect x="194.366" y="36.91" class="st10" width="11.33" height="15.84"/>
		</g>
	</g>
	<g>
		<g>
			<path class="st9" d="M206.726,18.06h-11.33c4.37,0,7.92,3.55,7.92,7.92s-3.55,7.93-7.92,7.93h11.33c4.37,0,7.93-3.56,7.93-7.93
				S211.096,18.06,206.726,18.06z"/>
		</g>
	</g>
	<g>
		<g>
			<rect x="225.846" y="96.83" class="st11" width="11.33" height="101.67"/>
		</g>
	</g>
	<g>
		<g>
			<path class="st12" d="M109.176,129c-0.9-0.97-2.13-1.5-3.45-1.5h-9.57c1.33,0,2.56,0.53,3.46,1.5c0.91,0.97,1.35,2.23,1.26,3.55
				l-1.31,19.28h9.56l1.32-19.28C110.536,131.23,110.086,129.97,109.176,129z"/>
		</g>
	</g>
	<g>
		<g>
			<path class="st11" d="M99.356,154.83l-0.61,8.89l1.91,0.41c1.57,0.34,2.91,1.27,3.78,2.62s1.16,2.96,0.83,4.53l-4.23,19.55
				c-0.5,2.33-2.29,4.05-4.45,4.57l-1.88,27.48c-0.57,8.45-7.65,15.06-16.12,15.06h9.57c8.46,0,15.54-6.61,16.12-15.06l4.64-68.05
				H99.356z"/>
		</g>
	</g>
</g>
</svg>
