<?xml version="1.0" encoding="utf-8"?>
<!-- Generator: Adobe Illustrator 22.0.1, SVG Export Plug-In . SVG Version: 6.00 Build 0)  -->
<svg version="1.1" id="Layer_2" xmlns="http://www.w3.org/2000/svg" xmlns:xlink="http://www.w3.org/1999/xlink" x="0px" y="0px"
	 viewBox="0 0 256 256" style="enable-background:new 0 0 256 256;" xml:space="preserve">
<style type="text/css">
	.st0{fill:#3A312A;}
	.st1{fill:#D7E057;}
	.st2{fill:#FCE8CB;}
	.st3{fill:#8AC6DD;}
	.st4{fill-rule:evenodd;clip-rule:evenodd;fill:#FCE8CB;}
	.st5{fill:#F5978A;}
	.st6{fill:#87796F;}
	.st7{fill:#F16C7A;}
	.st8{fill:#68A8BC;}
	.st9{fill:#B9BC39;}
	.st10{fill:#CE4E61;}
	.st11{fill:#6B5B51;}
	.st12{fill:#CCAE8B;}
	.st13{fill-rule:evenodd;clip-rule:evenodd;fill:#F16C7A;}
</style>
<g>
	<g>
		<g>
			<path class="st1" d="M89.219,68.937c-0.974,11.564-13.024,13.389-13.024,13.389C86.541,82.813,89.12,96.386,89.12,96.386
				c0.221-9.677,13.321-14.202,13.321-14.202C92.627,81.596,89.219,68.937,89.219,68.937z"/>
		</g>
	</g>
	<g>
		<g>
			<path class="st0" d="M102.53,80.686c-8.604-0.515-11.832-12.024-11.863-12.141c-0.19-0.702-0.853-1.16-1.584-1.102
				c-0.725,0.067-1.298,0.642-1.359,1.367C86.864,79.026,76.411,80.775,75.97,80.844c-0.763,0.115-1.313,0.79-1.273,1.56
				c0.04,0.77,0.657,1.384,1.428,1.421c9.027,0.425,11.498,12.718,11.521,12.842c0.138,0.711,0.76,1.217,1.473,1.217
				c0.042,0,0.084-0.001,0.126-0.005c0.764-0.064,1.357-0.693,1.375-1.46c0.194-8.509,12.191-12.777,12.313-12.819
				c0.676-0.235,1.092-0.914,0.994-1.623C103.828,81.27,103.244,80.729,102.53,80.686z M88.964,91.032
				c-1.356-3.13-3.708-6.907-7.586-8.876c2.931-1.405,6.408-3.913,8.201-8.272c1.551,3.071,4.2,6.88,8.334,8.722
				C94.906,84.245,90.99,87.011,88.964,91.032z"/>
		</g>
	</g>
	<g>
		<g>
			<path class="st1" d="M67.52,85.917c-0.689,8.179-9.213,9.471-9.213,9.471c7.318,0.344,9.142,9.944,9.142,9.944
				c0.156-6.844,9.422-10.045,9.422-10.045C69.931,94.872,67.52,85.917,67.52,85.917z"/>
		</g>
	</g>
	<g>
		<g>
			<path class="st0" d="M76.962,93.79c-5.767-0.345-7.972-8.186-7.993-8.265c-0.19-0.702-0.862-1.163-1.582-1.102
				c-0.726,0.065-1.3,0.642-1.361,1.368c-0.579,6.871-7.646,8.067-7.942,8.114c-0.763,0.115-1.313,0.79-1.273,1.56
				c0.04,0.77,0.657,1.384,1.428,1.421c6.035,0.284,7.724,8.644,7.739,8.726c0.136,0.712,0.759,1.22,1.473,1.22
				c0.041,0,0.083-0.001,0.125-0.005c0.765-0.063,1.358-0.694,1.376-1.461c0.13-5.709,8.331-8.633,8.412-8.661
				c0.676-0.234,1.093-0.913,0.996-1.622C78.261,94.374,77.676,93.832,76.962,93.79z M67.377,100.584
				c-0.924-1.886-2.34-3.947-4.447-5.28c1.855-1.041,3.697-2.63,4.871-4.917c1.057,1.874,2.654,3.955,4.941,5.224
				C70.893,96.713,68.753,98.352,67.377,100.584z"/>
		</g>
	</g>
	<g>
		<g>
			<path class="st1" d="M67.52,59.26c-0.689,8.179-9.213,9.471-9.213,9.471c7.318,0.344,9.142,9.944,9.142,9.944
				c0.156-6.845,9.422-10.045,9.422-10.045C69.931,68.214,67.52,59.26,67.52,59.26z"/>
		</g>
	</g>
	<g>
		<g>
			<path class="st0" d="M76.962,67.132c-5.767-0.345-7.972-8.185-7.993-8.265c-0.19-0.702-0.862-1.161-1.582-1.102
				c-0.726,0.065-1.3,0.642-1.361,1.368c-0.579,6.871-7.646,8.067-7.942,8.114c-0.763,0.115-1.313,0.79-1.273,1.561
				c0.04,0.77,0.657,1.384,1.428,1.421c6.035,0.284,7.724,8.644,7.739,8.726c0.136,0.712,0.759,1.22,1.473,1.22
				c0.041,0,0.083-0.002,0.125-0.005c0.765-0.063,1.358-0.694,1.376-1.461c0.13-5.709,8.331-8.634,8.412-8.662
				c0.676-0.234,1.093-0.913,0.996-1.622C78.261,67.716,77.676,67.175,76.962,67.132z M67.377,73.927
				c-0.924-1.886-2.34-3.947-4.447-5.28c1.855-1.041,3.697-2.63,4.871-4.917c1.057,1.874,2.654,3.955,4.941,5.224
				C70.893,70.055,68.753,71.694,67.377,73.927z"/>
		</g>
	</g>
	<g>
		<g>
			<path class="st2" d="M213.593,46.81c-7.166-21.455-31.269-32.738-39.175-30.098c-8.357,2.791-20.391,26.143-13.226,47.599
				c7.166,21.455,19.625,19.723,34.095,14.89C209.758,74.368,220.759,68.266,213.593,46.81z"/>
		</g>
	</g>
	<g>
		<g>
			<path class="st0" d="M215.016,46.335c-4.403-13.185-14.365-21.238-19.911-24.865c-8.021-5.245-16.523-7.727-21.161-6.181
				c-4.795,1.602-10.168,8.723-13.372,17.72c-2.199,6.178-5.228,18.521-0.801,31.776c3.459,10.358,8.472,16.335,15.323,18.271
				c1.764,0.499,3.6,0.713,5.482,0.713c4.918,0,10.146-1.463,15.188-3.146c6.971-2.328,13.974-5.208,17.983-10.476
				C218.061,64.482,218.476,56.693,215.016,46.335z M211.36,68.331c-3.519,4.621-10.032,7.272-16.548,9.447
				c-6.514,2.176-13.312,3.971-18.903,2.393c-5.824-1.646-10.172-6.989-13.293-16.335c-4.142-12.401-1.288-24.006,0.782-29.82
				c3.343-9.39,8.302-14.814,11.496-15.88c0.597-0.2,1.344-0.302,2.218-0.302c3.759,0,9.854,1.9,16.35,6.148
				c5.221,3.414,14.593,10.981,18.708,23.305C215.291,56.631,215.026,63.515,211.36,68.331z"/>
		</g>
	</g>
	<g>
		<g>
			<path class="st2" d="M229.801,72.141c-4.26-18.842-10.558-33.474-38.497-27.158c-27.939,6.316-47.135,26.711-42.875,45.553
				c4.26,18.842,30.361,28.997,58.3,22.681C234.668,106.902,234.06,90.984,229.801,72.141z"/>
		</g>
	</g>
	<g>
		<g>
			<path class="st0" d="M231.264,71.81c-4.07-18.003-10.533-35.02-40.291-28.291c-28.699,6.488-48.441,27.728-44.007,47.347
				c3.556,15.727,21.584,25.712,43.383,25.712c5.394,0,11.019-0.611,16.712-1.898c13.35-3.018,21.421-8.498,24.675-16.753
				C234.77,90.228,233.302,80.825,231.264,71.81z M228.944,96.827c-2.862,7.262-10.237,12.145-22.546,14.928
				c-27.086,6.123-52.437-3.544-56.507-21.549c-4.069-18.006,14.656-37.636,41.743-43.76c4.358-0.985,8.159-1.443,11.487-1.443
				c17.371,0,21.826,12.476,25.216,27.469C230.27,81.018,231.681,89.884,228.944,96.827z"/>
		</g>
	</g>
	<g>
		<g>
			<path class="st2" d="M206.665,88.775c-8.112-1.202-16.006-1.264-23.366-0.36l-14.741,3.343
				c-15.514,5.331-26.547,15.685-28.503,28.886c-3.342,22.556,21.062,44.859,54.508,49.815
				c33.446,4.956,39.561-12.825,42.903-35.382C240.807,112.521,240.11,93.73,206.665,88.775z"/>
		</g>
	</g>
	<g>
		<g>
			<path class="st0" d="M237.211,104.672c-4.521-9.342-14.44-15.027-30.326-17.381c-8.04-1.191-16.038-1.314-23.769-0.365
				c-0.822,0.101-1.407,0.849-1.307,1.671c0.102,0.822,0.849,1.412,1.672,1.306c7.463-0.917,15.188-0.796,22.964,0.356
				c14.829,2.197,24.01,7.339,28.064,15.72c3.869,7.996,2.994,18.604,1.472,28.878c-1.522,10.273-3.761,20.681-9.782,27.211
				c-6.312,6.845-16.587,9.105-31.417,6.907c-15.884-2.354-30.181-8.721-40.258-17.931c-9.915-9.061-14.527-19.78-12.986-30.181
				c1.81-12.21,11.835-22.302,27.507-27.688c0.783-0.269,1.2-1.123,0.932-1.906c-0.27-0.783-1.122-1.203-1.906-0.931
				c-16.769,5.763-27.521,16.728-29.499,30.085c-1.692,11.418,3.255,23.079,13.93,32.835c10.514,9.608,25.373,16.244,41.842,18.684
				c3.788,0.561,7.305,0.843,10.563,0.843c10.401,0,18.143-2.873,23.5-8.684c6.571-7.127,8.951-18.056,10.543-28.805
				C240.542,124.548,241.434,113.399,237.211,104.672z"/>
		</g>
	</g>
	<g>
		<g>
			<path class="st2" d="M63.425,162.079c-9.154-3.057-18.648-2.613-26.748-0.457l-13.963,6.168
				c-3.619,2.451-6.091,5.132-6.887,7.515c-2.64,7.905,8.643,32.009,30.098,39.174s27.558-3.835,32.39-18.305
				C83.148,181.704,84.88,169.244,63.425,162.079z"/>
		</g>
	</g>
	<g>
		<g>
			<path class="st0" d="M63.9,160.656c-10.788-3.603-20.969-2.251-27.609-0.484c-0.801,0.213-1.277,1.035-1.063,1.835
				c0.213,0.801,1.036,1.274,1.835,1.064c6.245-1.663,15.805-2.937,25.887,0.43c20.546,6.862,18.471,18.641,13.943,32.197
				c-2.176,6.515-4.827,13.029-9.448,16.547c-4.813,3.667-11.699,3.932-21.044,0.81c-20.829-6.957-31.483-30.292-29.151-37.276
				c0.68-2.035,2.978-4.494,6.306-6.748c0.687-0.465,0.865-1.397,0.401-2.083c-0.466-0.688-1.398-0.865-2.083-0.401
				c-3.92,2.654-6.572,5.595-7.47,8.282c-3.037,9.096,9.417,33.849,31.046,41.072c4.619,1.542,8.726,2.315,12.362,2.315
				c4.52-0.001,8.312-1.193,11.45-3.583c5.268-4.01,8.148-11.014,10.477-17.984C84.405,182.672,87.027,168.38,63.9,160.656z"/>
		</g>
	</g>
	<g>
		<g>
			<path class="st2" d="M89.65,149.315c-18.843-4.26-39.237,14.936-45.553,42.875c-6.316,27.939,8.316,34.237,27.158,38.497
				c18.842,4.259,34.76,4.867,41.076-23.071C118.648,179.676,108.493,153.574,89.65,149.315z"/>
		</g>
	</g>
	<g>
		<g>
			<path class="st0" d="M111.823,169.042c-4.47-11.491-12.228-19.016-21.842-21.189c-9.617-2.175-19.855,1.283-28.833,9.733
				c-8.819,8.301-15.395,20.473-18.514,34.274c-3.019,13.35-1.543,22.993,4.511,29.482c5.645,6.05,14.765,8.77,23.779,10.808
				c5.353,1.21,10.715,2.191,15.788,2.191c11.99,0,22.354-5.485,27.082-26.395C116.915,194.145,116.215,180.328,111.823,169.042z
				 M110.869,207.285c-6.131,27.112-21.417,25.978-39.282,21.939c-8.547-1.932-17.157-4.473-22.248-9.929
				c-5.325-5.708-6.561-14.466-3.778-26.774c2.989-13.224,9.256-24.855,17.644-32.751c6.654-6.263,13.99-9.549,21.108-9.549
				c1.685,0,3.358,0.184,5.007,0.557c8.611,1.947,15.61,8.819,19.708,19.351C113.204,180.865,113.858,194.06,110.869,207.285z"/>
		</g>
	</g>
	<g>
		<g>
			<path class="st2" d="M169.573,195.448c-4.956-33.446-27.258-57.85-49.815-54.508c-22.557,3.342-36.825,33.164-31.869,66.61
				c4.956,33.446,23.746,34.142,46.302,30.8C156.748,235.009,174.529,228.893,169.573,195.448z"/>
		</g>
	</g>
	<g>
		<g>
			<path class="st0" d="M171.057,195.228c-2.439-16.468-9.074-31.328-18.684-41.841c-9.756-10.676-21.421-15.622-32.834-13.93
				c-11.418,1.692-21.144,9.808-27.385,22.853c-6.147,12.848-8.188,28.993-5.748,45.461c2.354,15.886,8.038,25.806,17.38,30.326
				c4.69,2.269,10.08,3.062,15.732,3.062c4.863,0,9.921-0.587,14.893-1.323c10.749-1.592,21.678-3.972,28.805-10.544
				C170.846,222.256,173.41,211.114,171.057,195.228z M161.183,227.085c-6.53,6.021-16.938,8.259-27.211,9.781
				c-10.275,1.522-20.884,2.398-28.878-1.471c-8.381-4.055-13.523-13.235-15.721-28.065c-2.354-15.883-0.404-31.413,5.487-43.727
				c5.797-12.117,14.718-19.638,25.118-21.179c1.314-0.195,2.633-0.291,3.953-0.291c9.129,0,18.311,4.615,26.228,13.278
				c9.209,10.077,15.577,24.374,17.931,40.257C170.286,210.498,168.027,220.774,161.183,227.085z"/>
		</g>
	</g>
	<g>
		<g>
			<path class="st2" d="M210.511,149.612c-25.301-25.301-59.645-31.979-76.708-14.915c-17.063,17.063-10.386,51.407,14.915,76.708
				s41.711,14.045,58.774-3.019C224.557,191.323,235.813,174.914,210.511,149.612z"/>
		</g>
	</g>
	<g>
		<g>
			<path class="st0" d="M211.572,148.552c-25.845-25.845-61.209-32.536-78.829-14.916c-17.621,17.621-10.931,52.984,14.915,78.829
				c10.221,10.221,19.761,15.245,29.017,15.245c1.607,0,3.208-0.152,4.8-0.454c10.057-1.909,18.958-9.688,27.079-17.809
				c8.121-8.121,15.899-17.023,17.809-27.079C228.405,171.608,223.567,160.547,211.572,148.552z M206.433,207.326
				c-7.782,7.782-16.259,15.225-25.518,16.983c-9.716,1.841-19.896-2.724-31.136-13.964c-24.676-24.676-31.366-58.135-14.915-74.587
				c6.1-6.1,14.535-9.018,23.997-9.018c16.057,0,35.063,8.407,50.59,23.933C234.25,175.472,222.756,191.002,206.433,207.326z"/>
		</g>
	</g>
	<g>
		<g>
			<path class="st12" d="M56.974,162.01c-2.2-0.38-4.35-0.58-6.42-0.62c-6.57,7.9-11.47,18.13-14.03,29.47
				c-1.42,6.25-1.84,11.69-1.27,16.37c2.05,1.5,4.26,2.84,6.63,3.98c-1.23-5.31-0.97-11.72,0.75-19.35
				C45.234,180.34,50.264,169.96,56.974,162.01z"/>
		</g>
	</g>
	<g>
		<g>
			<path class="st12" d="M193.464,23.98c-8.01-5.24-15.41-6.9-18.57-5.85c-0.57,0.19-1.17,0.5-1.79,0.94
				c2.98,0.99,6.39,2.61,9.91,4.91c4.46,2.91,11.93,8.85,16.58,18.18c4.14-0.32,7.69-0.07,10.77,0.66
				C205.744,33.11,198.024,26.96,193.464,23.98z"/>
		</g>
	</g>
	<g>
		<g>
			<path class="st12" d="M228.334,72.47c-3.39-14.99-7.84-27.47-25.21-27.47c-1.72,0-3.58,0.12-5.57,0.38
				c13.38,2.17,17.28,13.61,20.33,27.09c1.38,6.1,2.49,12.36,2.02,17.97c3.71,1.34,6.87,3,9.53,4.97
				C231.484,88.7,230.144,80.45,228.334,72.47z"/>
		</g>
	</g>
	<g>
		<g>
			<path class="st12" d="M234.514,105.98c-4.06-8.38-13.24-13.52-28.07-15.72c-6.19-0.92-12.33-1.18-18.24-0.8
				c2.58,0.14,5.18,0.41,7.79,0.8c14.83,2.2,24.01,7.34,28.07,15.72c3.86,7.99,2.99,18.6,1.47,28.88
				c-1.2,8.05-2.83,16.18-6.37,22.46c1.78,2.42,3.24,4.81,4.39,7.17c0.95-0.73,1.83-1.54,2.64-2.42c6.03-6.53,8.26-16.94,9.79-27.21
				C237.504,124.58,238.374,113.97,234.514,105.98z"/>
		</g>
	</g>
	<g>
		<g>
			<path class="st12" d="M92.154,162.31c1.44-3.01,3.07-5.74,4.86-8.21c-2.37-1.58-4.95-2.7-7.69-3.32
				c-1.65-0.37-3.33-0.56-5.01-0.56c-1.76,0-3.53,0.2-5.3,0.6l0.081,0.019c3.907,0.916,5.828,5.391,3.912,8.917
				c-0.45,0.828-0.884,1.679-1.303,2.554c-6.15,12.85-8.19,28.99-5.75,45.46c1.51,10.2,4.37,17.45,8.17,22.53
				c-0.96,0.3-1.94,0.54-2.96,0.71c4.84,0.6,9.37,0.57,13.41-0.71c-3.8-5.08-6.66-12.33-8.17-22.53
				C83.964,191.3,86.004,175.16,92.154,162.31z"/>
		</g>
	</g>
	<g>
		<g>
			<path class="st12" d="M147.654,212.47c-22.12-22.13-30.19-51.21-21.01-70.18c-0.91-0.09-1.82-0.16-2.73-0.16
				c-1.31,0-2.62,0.1-3.94,0.29c-1.47,0.22-2.91,0.56-4.31,1.01c-8.33,18.98-0.14,47.35,21.54,69.04
				c4.479,4.471,8.825,7.944,13.076,10.44c1.514,0.889,1.737,2.982,0.454,4.18c-6.53,6.02-16.94,8.25-27.21,9.78
				c-3.1,0.46-6.13,0.85-9.07,1.09c5.93,0.64,12.55-0.06,19.52-1.09c10.27-1.53,20.68-3.76,27.21-9.78c0.88-0.82,1.68-1.7,2.41-2.64
				C158.434,221.93,153.144,217.95,147.654,212.47z"/>
		</g>
	</g>
	<g>
		<g>
			<path class="st12" d="M209.454,150.67c-15.53-15.52-34.54-23.93-50.59-23.93c-1.74,0-3.45,0.1-5.12,0.3
				c14.81,1.61,31.42,9.8,45.26,23.63c24.8,24.8,13.3,40.33-3.02,56.66c-7.51,7.51-15.67,14.7-24.55,16.77
				c3.22,0.73,6.37,0.8,9.48,0.21c9.26-1.76,17.74-9.2,25.52-16.98C222.754,191,234.254,175.47,209.454,150.67z"/>
		</g>
	</g>
</g>
</svg>
