<?xml version="1.0" encoding="utf-8"?>
<!-- Generator: Adobe Illustrator 22.0.1, SVG Export Plug-In . SVG Version: 6.00 Build 0)  -->
<svg version="1.1" id="Layer_2" xmlns="http://www.w3.org/2000/svg" xmlns:xlink="http://www.w3.org/1999/xlink" x="0px" y="0px"
	 viewBox="0 0 256 256" style="enable-background:new 0 0 256 256;" xml:space="preserve">
<style type="text/css">
	.st0{fill:#3A312A;}
	.st1{fill:#D7E057;}
	.st2{fill:#FCE8CB;}
	.st3{fill:#8AC6DD;}
	.st4{fill-rule:evenodd;clip-rule:evenodd;fill:#FCE8CB;}
	.st5{fill:#F5978A;}
	.st6{fill:#87796F;}
	.st7{fill:#F16C7A;}
	.st8{fill:#68A8BC;}
	.st9{fill:#B9BC39;}
	.st10{fill:#CE4E61;}
	.st11{fill:#6B5B51;}
	.st12{fill:#CCAE8B;}
	.st13{fill-rule:evenodd;clip-rule:evenodd;fill:#F16C7A;}
</style>
<g>
	<g>
		<g>
			<path class="st1" d="M49.105,26.057c-0.974,11.564-13.025,13.39-13.025,13.39c10.347,0.487,12.925,14.059,12.925,14.059
				c0.221-9.677,13.321-14.202,13.321-14.202C52.513,38.716,49.105,26.057,49.105,26.057z"/>
		</g>
	</g>
	<g>
		<g>
			<path class="st0" d="M62.416,37.806c-8.604-0.514-11.832-12.024-11.863-12.14c-0.19-0.702-0.845-1.16-1.584-1.102
				c-0.725,0.066-1.298,0.642-1.359,1.367C46.75,36.146,36.297,37.895,35.855,37.964c-0.763,0.115-1.313,0.79-1.273,1.561
				c0.04,0.77,0.657,1.384,1.428,1.421c9.028,0.425,11.499,12.718,11.522,12.842c0.138,0.711,0.76,1.217,1.473,1.217
				c0.042,0,0.084-0.002,0.126-0.005c0.765-0.064,1.357-0.693,1.375-1.46c0.193-8.509,12.19-12.777,12.312-12.819
				c0.676-0.235,1.092-0.914,0.994-1.623C63.713,38.39,63.13,37.849,62.416,37.806z M48.851,48.152
				c-1.357-3.13-3.709-6.907-7.588-8.876c2.932-1.405,6.409-3.913,8.202-8.273c1.551,3.071,4.2,6.88,8.334,8.722
				C54.792,41.365,50.877,44.131,48.851,48.152z"/>
		</g>
	</g>
	<g>
		<g>
			<path class="st1" d="M27.406,43.037c-0.689,8.179-9.213,9.471-9.213,9.471c7.318,0.344,9.142,9.944,9.142,9.944
				c0.156-6.844,9.422-10.045,9.422-10.045C29.817,51.992,27.406,43.037,27.406,43.037z"/>
		</g>
	</g>
	<g>
		<g>
			<path class="st0" d="M36.848,50.91c-5.767-0.345-7.972-8.186-7.993-8.265c-0.19-0.702-0.87-1.162-1.582-1.102
				c-0.726,0.065-1.3,0.642-1.361,1.368c-0.579,6.871-7.646,8.067-7.942,8.114c-0.763,0.115-1.313,0.79-1.273,1.56
				c0.04,0.77,0.657,1.384,1.428,1.421c6.035,0.284,7.724,8.644,7.739,8.726c0.136,0.712,0.759,1.22,1.473,1.22
				c0.041,0,0.083-0.001,0.125-0.005c0.765-0.063,1.358-0.694,1.376-1.461c0.13-5.709,8.331-8.633,8.412-8.661
				c0.676-0.234,1.093-0.913,0.996-1.622C38.146,51.494,37.562,50.953,36.848,50.91z M27.263,57.705
				c-0.924-1.886-2.34-3.947-4.447-5.28c1.855-1.041,3.697-2.63,4.871-4.917c1.057,1.874,2.654,3.955,4.941,5.224
				C30.778,53.833,28.639,55.472,27.263,57.705z"/>
		</g>
	</g>
	<g>
		<g>
			<path class="st1" d="M27.406,16.38c-0.689,8.179-9.213,9.471-9.213,9.471c7.318,0.344,9.142,9.944,9.142,9.944
				c0.156-6.845,9.422-10.045,9.422-10.045C29.817,25.334,27.406,16.38,27.406,16.38z"/>
		</g>
	</g>
	<g>
		<g>
			<path class="st0" d="M36.848,24.252c-5.767-0.345-7.972-8.186-7.993-8.265c-0.19-0.702-0.87-1.161-1.582-1.102
				c-0.726,0.065-1.3,0.642-1.361,1.368c-0.579,6.871-7.646,8.067-7.942,8.114c-0.763,0.115-1.313,0.79-1.273,1.56
				c0.04,0.77,0.657,1.384,1.428,1.421c6.035,0.284,7.724,8.644,7.739,8.726c0.136,0.712,0.759,1.22,1.473,1.22
				c0.041,0,0.083-0.001,0.125-0.005c0.765-0.063,1.358-0.694,1.376-1.461c0.13-5.71,8.331-8.634,8.412-8.662
				c0.676-0.234,1.093-0.913,0.996-1.622C38.146,24.836,37.562,24.295,36.848,24.252z M27.263,31.047
				c-0.924-1.886-2.34-3.947-4.447-5.28c1.855-1.041,3.697-2.63,4.871-4.917c1.057,1.874,2.654,3.955,4.941,5.224
				C30.778,27.175,28.639,28.815,27.263,31.047z"/>
		</g>
	</g>
	<g>
		<g>
			<path class="st1" d="M212.2,137.23c-3.88,0-7.57-0.82-10.91-2.29c-0.86,10.23-7.41,18.85-16.49,22.63
				c-3.2,1.36-6.72,2.1-10.42,2.1c-8.93,0-16.84-4.33-21.76-11c-0.9,1.99-2.03,3.85-3.37,5.55c-4.94,6.29-12.62,10.34-21.25,10.34
				s-16.3-4.04-21.25-10.34c-1.34-1.71-2.48-3.59-3.39-5.59c-4.92,6.69-12.84,11.04-21.78,11.04c-3.68,0-7.18-0.73-10.38-2.07
				c-9.1-3.78-15.68-12.41-16.54-22.66c-3.34,1.47-7.02,2.29-10.9,2.29c-2.99,0-5.86-0.48-8.54-1.39l9.368,35l4.017,15.009
				l5.905,22.062c5.01,18.7,21.95,31.71,41.31,31.71h64.36c19.36,0,36.3-13.01,41.31-31.71l19.29-72.07
				C218.08,136.74,215.2,137.23,212.2,137.23z"/>
		</g>
	</g>
	<g>
		<g>
			<path class="st0" d="M221.809,134.748c-0.402-0.379-0.98-0.504-1.503-0.331c-2.613,0.871-5.341,1.313-8.105,1.313
				c-3.578,0-7.046-0.728-10.306-2.163c-0.444-0.196-0.954-0.164-1.371,0.083c-0.416,0.247-0.688,0.681-0.729,1.164
				c-0.8,9.517-6.767,17.705-15.582,21.375c-3.091,1.314-6.399,1.98-9.833,1.98c-8.07,0-15.754-3.884-20.553-10.39
				c-0.315-0.428-0.832-0.656-1.364-0.602c-0.53,0.056-0.99,0.388-1.209,0.874c-0.849,1.874-1.919,3.637-3.184,5.242
				c-4.874,6.207-12.189,9.766-20.07,9.766c-7.878,0-15.193-3.56-20.069-9.765c-1.266-1.615-2.344-3.393-3.205-5.286
				c-0.221-0.484-0.681-0.816-1.21-0.871c-0.525-0.053-1.048,0.175-1.363,0.604c-4.803,6.53-12.493,10.429-20.572,10.429
				c-3.407,0-6.705-0.657-9.805-1.955c-8.835-3.67-14.82-11.87-15.62-21.4c-0.041-0.483-0.313-0.917-0.729-1.164
				c-0.418-0.248-0.928-0.279-1.371-0.083c-3.26,1.435-6.725,2.163-10.296,2.163c-2.785,0-5.496-0.441-8.058-1.31
				c-0.523-0.179-1.104-0.054-1.508,0.326c-0.404,0.378-0.566,0.948-0.424,1.482l9.368,35c0.215,0.8,1.033,1.275,1.837,1.062
				c0.801-0.214,1.275-1.037,1.062-1.837l-8.686-32.447c2.078,0.482,4.224,0.725,6.408,0.725c3.317,0,6.552-0.562,9.643-1.673
				c1.511,9.794,7.968,18.085,17.219,21.927c3.465,1.451,7.152,2.186,10.959,2.186c8.231,0,16.101-3.62,21.492-9.786
				c0.736,1.322,1.572,2.581,2.498,3.763c5.45,6.935,13.625,10.913,22.43,10.913c8.808,0,16.983-3.978,22.428-10.912
				c0.924-1.171,1.755-2.418,2.483-3.727c5.388,6.143,13.248,9.748,21.469,9.748c3.839,0,7.542-0.747,10.996-2.215
				c9.224-3.84,15.661-12.12,17.172-21.898c5.119,1.84,10.778,2.17,16.103,0.94l-18.609,69.525
				c-4.826,18.016-21.218,30.598-39.861,30.598H95.82c-18.643,0-35.034-12.582-39.861-30.598l-5.904-22.062
				c-0.215-0.8-1.037-1.276-1.837-1.061c-0.801,0.214-1.275,1.037-1.062,1.837l5.904,22.062
				c5.179,19.325,22.762,32.822,42.76,32.822h64.359c19.999,0,37.582-13.497,42.76-32.822l19.29-72.07
				C222.372,135.695,222.21,135.126,221.809,134.748z"/>
		</g>
	</g>
	<g>
		<g>
			<path class="st0" d="M185.732,156.396c-0.431-0.342-1.016-0.42-1.52-0.206c-3.091,1.314-6.399,1.98-9.833,1.98
				c-8.07,0-15.754-3.884-20.553-10.39c-0.315-0.428-0.832-0.656-1.364-0.602c-0.53,0.056-0.99,0.388-1.209,0.874
				c-0.849,1.874-1.919,3.637-3.184,5.242c-4.874,6.207-12.189,9.766-20.07,9.766c-7.878,0-15.193-3.56-20.069-9.765
				c-1.266-1.615-2.344-3.393-3.205-5.286c-0.221-0.484-0.681-0.816-1.21-0.871c-0.525-0.053-1.048,0.175-1.363,0.604
				c-4.803,6.53-12.493,10.429-20.572,10.429c-3.407,0-6.705-0.657-9.801-1.954c-0.504-0.211-1.086-0.132-1.515,0.211
				c-0.429,0.342-0.637,0.891-0.542,1.431l8.8,50.31c3.394,19.401,15.096,32.952,28.458,32.952h42.04
				c13.363,0,25.064-13.55,28.457-32.952l2.268-12.97c0.143-0.816-0.403-1.593-1.219-1.736c-0.817-0.141-1.594,0.403-1.736,1.219
				l-2.268,12.97c-3.137,17.939-13.623,30.468-25.502,30.468h-42.04c-11.878,0-22.365-12.529-25.503-30.468l-8.354-47.756
				c2.719,0.847,5.553,1.274,8.456,1.274c8.231,0,16.101-3.62,21.492-9.786c0.736,1.322,1.572,2.581,2.498,3.763
				c5.45,6.935,13.625,10.913,22.43,10.913c8.808,0,16.983-3.978,22.428-10.912c0.924-1.171,1.755-2.418,2.483-3.727
				c5.388,6.143,13.248,9.748,21.469,9.748c2.926,0,5.771-0.434,8.494-1.292l-3.402,19.465c-0.143,0.816,0.403,1.593,1.22,1.736
				c0.813,0.14,1.593-0.403,1.735-1.219l3.851-22.031C186.372,157.287,186.163,156.737,185.732,156.396z"/>
		</g>
	</g>
	<g>
		<g>
			<path class="st0" d="M149.786,152.819c-0.611-0.233-1.31-0.042-1.716,0.475c-4.874,6.207-12.189,9.766-20.07,9.766
				c-7.878,0-15.193-3.56-20.07-9.767c-0.406-0.517-1.103-0.707-1.716-0.474c-0.613,0.235-1.003,0.842-0.961,1.498l3.48,53.689
				c1.036,16.008,4.598,33.113,11.486,33.113h15.561c6.89,0,10.451-17.105,11.487-33.113l3.479-53.69
				C150.789,153.661,150.399,153.054,149.786,152.819z M144.273,207.813c-1.338,20.674-5.858,30.307-8.493,30.307H120.22
				c-2.634,0-7.154-9.632-8.492-30.307l-3.205-49.44c5.249,4.929,12.145,7.688,19.478,7.688c7.335,0,14.23-2.758,19.478-7.687
				L144.273,207.813z"/>
		</g>
	</g>
	<g>
		<g>
			<path class="st2" d="M234.21,87.36C219.84,60.72,177.72,41.43,128,41.43c-49.75,0-91.89,19.31-106.24,45.97
				c-3.42,6.34-5.26,13.09-5.26,20.1c0,1.66,0.11,3.2,0.31,4.63c0.98,14.03,12.67,25.1,26.95,25.1c3.88,0,7.56-0.82,10.9-2.29
				c1.16,13.85,12.76,24.73,26.92,24.73c8.94,0,16.86-4.35,21.78-11.04c4.23,9.39,13.67,15.93,24.64,15.93
				c10.96,0,20.38-6.52,24.62-15.89c4.92,6.67,12.83,11,21.76,11c14.15,0,25.75-10.88,26.91-24.73c3.34,1.47,7.03,2.29,10.91,2.29
				c14.09,0,25.65-10.78,26.9-24.54c0.26-1.59,0.4-3.31,0.4-5.19C239.5,100.48,237.65,93.71,234.21,87.36z"/>
		</g>
	</g>
	<g>
		<g>
			<path class="st0" d="M235.53,86.648C220.457,58.705,177.244,39.93,128,39.93c-49.281,0-92.506,18.791-107.561,46.758
				C16.83,93.379,15,100.382,15,107.5c0,1.651,0.106,3.261,0.318,4.787c1.063,14.833,13.545,26.443,28.441,26.443
				c3.318,0,6.554-0.563,9.645-1.674c2.136,13.673,14.143,24.114,28.176,24.114c8.229,0,16.097-3.618,21.488-9.782
				c4.995,8.985,14.537,14.672,24.932,14.672c10.375,0,19.909-5.674,24.911-14.638c5.388,6.143,13.248,9.748,21.469,9.748
				c14.028,0,26.03-10.441,28.166-24.114c3.092,1.111,6.331,1.674,9.654,1.674c14.828,0,27.023-11.11,28.39-25.851
				c0.272-1.687,0.41-3.496,0.41-5.379C241,100.363,239.159,93.346,235.53,86.648z M237.62,112.448
				c-0.006,0.035-0.01,0.07-0.014,0.106c-1.2,13.212-12.122,23.176-25.406,23.176c-3.578,0-7.046-0.728-10.306-2.163
				c-0.444-0.196-0.954-0.164-1.371,0.083c-0.416,0.247-0.688,0.681-0.729,1.164c-1.097,13.096-12.261,23.355-25.415,23.355
				c-8.07,0-15.754-3.884-20.553-10.39c-0.315-0.428-0.832-0.656-1.364-0.602c-0.53,0.056-0.99,0.388-1.209,0.873
				C147.128,157.169,138,163.06,128,163.06c-10.021,0-19.155-5.906-23.271-15.046c-0.22-0.486-0.68-0.819-1.21-0.875
				c-0.053-0.005-0.106-0.008-0.158-0.008c-0.474,0-0.924,0.225-1.208,0.611c-4.803,6.53-12.493,10.429-20.572,10.429
				c-13.16,0-24.328-10.259-25.425-23.355c-0.041-0.483-0.313-0.917-0.729-1.164c-0.418-0.248-0.928-0.279-1.371-0.083
				c-3.26,1.435-6.725,2.163-10.296,2.163c-13.345,0-24.524-10.412-25.453-23.705c-0.002-0.035-0.006-0.069-0.011-0.104
				C18.1,110.519,18,109.031,18,107.5c0-6.616,1.709-13.139,5.08-19.389C37.627,61.087,79.791,42.93,128,42.93
				c48.173,0,90.325,18.141,104.891,45.144C236.281,94.331,238,100.867,238,107.5C238,109.241,237.872,110.906,237.62,112.448z"/>
		</g>
	</g>
	<g>
		<g>
			<circle class="st7" cx="128" cy="47.453" r="31"/>
		</g>
	</g>
	<g>
		<g>
			<path class="st0" d="M128,14.953c-17.921,0-32.5,14.58-32.5,32.5c0,17.92,14.579,32.5,32.5,32.5s32.5-14.58,32.5-32.5
				C160.5,29.533,145.921,14.953,128,14.953z M128,76.953c-16.267,0-29.5-13.234-29.5-29.5c0-16.266,13.233-29.5,29.5-29.5
				s29.5,13.234,29.5,29.5C157.5,63.719,144.267,76.953,128,76.953z"/>
		</g>
	</g>
	<g>
		<g>
			<circle class="st6" cx="42" cy="98.453" r="7"/>
		</g>
	</g>
	<g>
		<g>
			<path class="st0" d="M42,89.953c-4.687,0-8.5,3.813-8.5,8.5c0,4.687,3.813,8.5,8.5,8.5s8.5-3.813,8.5-8.5
				C50.5,93.766,46.687,89.953,42,89.953z M42,103.953c-3.032,0-5.5-2.467-5.5-5.5c0-3.033,2.468-5.5,5.5-5.5s5.5,2.467,5.5,5.5
				C47.5,101.486,45.032,103.953,42,103.953z"/>
		</g>
	</g>
	<g>
		<g>
			<circle class="st6" cx="215.667" cy="103.787" r="7"/>
		</g>
	</g>
	<g>
		<g>
			<path class="st0" d="M215.667,95.287c-4.687,0-8.5,3.813-8.5,8.5c0,4.687,3.813,8.5,8.5,8.5s8.5-3.813,8.5-8.5
				C224.167,99.1,220.354,95.287,215.667,95.287z M215.667,109.287c-3.032,0-5.5-2.467-5.5-5.5c0-3.033,2.468-5.5,5.5-5.5
				s5.5,2.467,5.5,5.5C221.167,106.819,218.699,109.287,215.667,109.287z"/>
		</g>
	</g>
	<g>
		<g>
			<circle class="st6" cx="80" cy="80.453" r="7"/>
		</g>
	</g>
	<g>
		<g>
			<path class="st0" d="M80,71.953c-4.687,0-8.5,3.813-8.5,8.5c0,4.687,3.813,8.5,8.5,8.5s8.5-3.813,8.5-8.5
				C88.5,75.766,84.687,71.953,80,71.953z M80,85.953c-3.032,0-5.5-2.467-5.5-5.5c0-3.033,2.468-5.5,5.5-5.5s5.5,2.467,5.5,5.5
				C85.5,83.486,83.032,85.953,80,85.953z"/>
		</g>
	</g>
	<g>
		<g>
			<circle class="st6" cx="122.333" cy="103.787" r="7"/>
		</g>
	</g>
	<g>
		<g>
			<path class="st0" d="M122.333,95.287c-4.687,0-8.5,3.813-8.5,8.5c0,4.687,3.813,8.5,8.5,8.5s8.5-3.813,8.5-8.5
				C130.833,99.1,127.02,95.287,122.333,95.287z M122.333,109.287c-3.032,0-5.5-2.467-5.5-5.5c0-3.033,2.468-5.5,5.5-5.5
				s5.5,2.467,5.5,5.5C127.833,106.819,125.365,109.287,122.333,109.287z"/>
		</g>
	</g>
	<g>
		<g>
			<circle class="st6" cx="83.333" cy="124.12" r="12"/>
		</g>
	</g>
	<g>
		<g>
			<path class="st0" d="M83.333,110.62c-7.444,0-13.5,6.056-13.5,13.5c0,7.444,6.056,13.5,13.5,13.5s13.5-6.056,13.5-13.5
				C96.833,116.676,90.777,110.62,83.333,110.62z M83.333,134.62c-5.79,0-10.5-4.71-10.5-10.5c0-5.789,4.71-10.5,10.5-10.5
				s10.5,4.711,10.5,10.5C93.833,129.91,89.123,134.62,83.333,134.62z"/>
		</g>
	</g>
	<g>
		<g>
			<circle class="st6" cx="173" cy="124.787" r="12"/>
		</g>
	</g>
	<g>
		<g>
			<path class="st0" d="M173,111.287c-7.444,0-13.5,6.056-13.5,13.5c0,7.444,6.056,13.5,13.5,13.5s13.5-6.056,13.5-13.5
				C186.5,117.343,180.444,111.287,173,111.287z M173,135.287c-5.79,0-10.5-4.71-10.5-10.5c0-5.789,4.71-10.5,10.5-10.5
				s10.5,4.711,10.5,10.5C183.5,130.576,178.79,135.287,173,135.287z"/>
		</g>
	</g>
	<g>
		<g>
			<circle class="st6" cx="187.333" cy="77.787" r="12"/>
		</g>
	</g>
	<g>
		<g>
			<path class="st0" d="M187.333,64.287c-7.444,0-13.5,6.056-13.5,13.5c0,7.444,6.056,13.5,13.5,13.5s13.5-6.056,13.5-13.5
				C200.833,70.343,194.777,64.287,187.333,64.287z M187.333,88.287c-5.79,0-10.5-4.71-10.5-10.5c0-5.789,4.71-10.5,10.5-10.5
				s10.5,4.711,10.5,10.5C197.833,83.576,193.123,88.287,187.333,88.287z"/>
		</g>
	</g>
	<g>
		<g>
			<path class="st12" d="M232.89,88.08c-11.17-20.71-38.55-36.19-72.43-42.29c0.03,0.55,0.04,1.1,0.04,1.66
				c0,0.52-0.01,1.04-0.04,1.55c27.24,7.45,48.7,21.34,58.26,39.08c2,3.69,3.42,7.49,4.25,11.35c0.76,1.28,1.2,2.76,1.2,4.36
				c0,0.85-0.13,1.68-0.36,2.45c0,0,0,0.01,0,0.02c0.01,0.41,0.02,0.82,0.02,1.24c0,1.74-0.12,3.41-0.38,4.95
				c0,0.03-0.01,0.07-0.01,0.1c-0.98,10.76-8.4,19.36-18.29,22.19c2.28,0.66,4.64,0.99,7.05,0.99c13.28,0,24.21-9.96,25.41-23.18
				c0-0.03,0-0.07,0.01-0.1c0.25-1.54,0.38-3.21,0.38-4.95C238,100.87,236.28,94.33,232.89,88.08z"/>
		</g>
	</g>
	<g>
		<g>
			<path class="st9" d="M212.2,138.73c-1.63,0-3.23-0.13-4.81-0.4l-18.52,69.19c-3.53,13.21-13.28,23.49-25.58,28.04
				c-1.16,0.98-2.37,1.83-3.62,2.56h0.51c18.64,0,35.04-12.58,39.86-30.6L218.65,138C216.58,138.48,214.42,138.73,212.2,138.73z"/>
		</g>
	</g>
	<g>
		<g>
			<path class="st10" d="M128,17.95c-1.56,0-3.09,0.12-4.58,0.36c14.1,2.21,24.91,14.44,24.91,29.14
				c0,14.71-10.81,26.93-24.91,29.14c1.49,0.24,3.02,0.36,4.58,0.36c16.27,0,29.5-13.23,29.5-29.5
				C157.5,31.19,144.27,17.95,128,17.95z"/>
		</g>
	</g>
</g>
</svg>
