<?xml version="1.0" encoding="utf-8"?>
<!-- Generator: Adobe Illustrator 22.0.1, SVG Export Plug-In . SVG Version: 6.00 Build 0)  -->
<svg version="1.1" id="Layer_2" xmlns="http://www.w3.org/2000/svg" xmlns:xlink="http://www.w3.org/1999/xlink" x="0px" y="0px"
	 viewBox="0 0 256 256" style="enable-background:new 0 0 256 256;" xml:space="preserve">
<style type="text/css">
	.st0{fill:#3A312A;}
	.st1{fill:#D7E057;}
	.st2{fill:#FCE8CB;}
	.st3{fill:#8AC6DD;}
	.st4{fill-rule:evenodd;clip-rule:evenodd;fill:#FCE8CB;}
	.st5{fill:#F5978A;}
	.st6{fill:#87796F;}
	.st7{fill:#F16C7A;}
	.st8{fill:#68A8BC;}
	.st9{fill:#B9BC39;}
	.st10{fill:#CE4E61;}
	.st11{fill:#6B5B51;}
	.st12{fill:#CCAE8B;}
	.st13{fill-rule:evenodd;clip-rule:evenodd;fill:#F16C7A;}
</style>
<g>
	<g>
		<g>
			<path class="st2" d="M128,16.56C66.45,16.56,16.56,66.45,16.56,128c0,35.41,16.52,66.96,42.27,87.37l11.79,8.18
				c16.76,10.08,36.39,15.89,57.38,15.89c61.55,0,111.44-49.89,111.44-111.44S189.55,16.56,128,16.56z M128,170.67
				c-23.56,0-42.67-19.11-42.67-42.67S104.44,85.33,128,85.33s42.67,19.11,42.67,42.67S151.56,170.67,128,170.67z"/>
		</g>
	</g>
	<g>
		<g>
			<path class="st0" d="M128,15.06C65.725,15.06,15.06,65.725,15.06,128c0,34.692,15.613,66.967,42.836,88.549
				c0.649,0.513,1.593,0.406,2.107-0.244c0.515-0.649,0.406-1.593-0.244-2.107c-26.5-21.009-41.7-52.427-41.7-86.197
				C18.06,67.379,67.378,18.06,128,18.06c60.621,0,109.94,49.319,109.94,109.94S188.621,237.94,128,237.94
				c-19.99,0-39.565-5.422-56.608-15.681c-0.71-0.427-1.631-0.197-2.059,0.512c-0.427,0.71-0.198,1.632,0.512,2.059
				c17.51,10.539,37.62,16.11,58.155,16.11c62.275,0,112.94-50.665,112.94-112.94S190.275,15.06,128,15.06z M172.167,128
				c0-24.354-19.813-44.167-44.167-44.167S83.833,103.646,83.833,128s19.813,44.166,44.167,44.166S172.167,152.354,172.167,128z
				 M86.833,128c0-22.699,18.467-41.167,41.167-41.167s41.167,18.468,41.167,41.167S150.699,169.166,128,169.166
				S86.833,150.699,86.833,128z"/>
		</g>
	</g>
	<g>
		<g>
			<path class="st1" d="M128,16.56C66.45,16.56,16.56,66.45,16.56,128c0,13.08,2.25,25.63,6.39,37.28c0.84,0.24,1.72,0.36,2.64,0.36
				c5.53,0,10.02-4.48,10.02-10.01v14.88c0,6.47,5.24,11.71,11.7,11.71c3.23,0,6.16-1.31,8.28-3.43c2.12-2.12,3.43-5.05,3.43-8.28
				v-15.18c0,5.22,4.23,9.45,9.45,9.45c5.21,0,9.44-4.23,9.44-9.45v28.85c0,5.22,4.23,9.45,9.45,9.45c5.22,0,9.45-4.23,9.45-9.45
				v19.26c0,4.42,3.58,8,8,8c2.21,0,4.21-0.9,5.66-2.34c1.45-1.45,2.34-3.45,2.34-5.66v-19.26c0,5.22,4.23,9.45,9.45,9.45
				c5.22,0,9.45-4.23,9.45-9.45v-5.21c0,5.97,4.83,10.81,10.8,10.81c2.99,0,5.69-1.21,7.64-3.17c1.96-1.95,3.17-4.66,3.17-7.64
				v18.18c0,5.21,4.23,9.44,9.45,9.44c2.61,0,4.97-1.06,6.67-2.77c1.69-1.68,2.74-4.01,2.77-6.59v-29.02c0,5.97,4.84,10.8,10.8,10.8
				c5.97,0,10.81-4.83,10.81-10.8v-10.57c0,5.75,4.66,10.41,10.41,10.41c2.87,0,5.48-1.17,7.36-3.05c1.89-1.88,3.05-4.48,3.05-7.36
				v-15.55c0,7.12,5.77,12.89,12.89,12.89c3.82,0,7.24-1.66,9.6-4.3c1.51-7.32,2.31-14.91,2.31-22.68
				C239.44,66.45,189.55,16.56,128,16.56z M128,170.67c-23.56,0-42.67-19.11-42.67-42.67S104.44,85.33,128,85.33
				s42.67,19.11,42.67,42.67S151.56,170.67,128,170.67z"/>
		</g>
	</g>
	<g>
		<g>
			<path class="st0" d="M128,15.061C65.725,15.061,15.06,65.725,15.06,128c0,12.977,2.179,25.688,6.476,37.782
				c0.163,0.457,0.536,0.808,1.003,0.94c0.971,0.276,1.997,0.417,3.051,0.417c3.373,0,6.411-1.455,8.52-3.771v7.141
				c0,7.284,5.921,13.21,13.2,13.21c3.528,0,6.846-1.374,9.34-3.869c2.496-2.495,3.87-5.813,3.87-9.341v-7.657
				c1.997,2.109,4.823,3.428,7.95,3.428c3.124,0,5.945-1.316,7.941-3.425v21.324c0,6.038,4.912,10.95,10.95,10.95
				c3.127,0,5.953-1.318,7.95-3.428v11.737c0,5.238,4.262,9.5,9.5,9.5c2.529,0,4.914-0.985,6.721-2.778
				c1.792-1.794,2.779-4.181,2.779-6.722v-11.737c1.997,2.109,4.823,3.428,7.95,3.428c5.179,0,9.53-3.614,10.663-8.452
				c2.256,2.808,5.716,4.606,9.587,4.606c3.295,0,6.386-1.283,8.698-3.606c0.213-0.212,0.417-0.43,0.612-0.654v10.126
				c0,6.032,4.912,10.94,10.95,10.94c2.928,0,5.674-1.141,7.728-3.206c2.043-2.031,3.183-4.744,3.208-7.64
				c0.007-0.828-0.659-1.506-1.487-1.513h-0.014c-0.822,0-1.492,0.663-1.499,1.487c-0.018,2.1-0.843,4.066-2.33,5.544
				c-1.492,1.501-3.483,2.327-5.606,2.327c-4.384,0-7.95-3.563-7.95-7.94v-18.176c0-0.828-0.671-1.5-1.5-1.5
				c-0.829,0-1.5,0.672-1.5,1.5c0,2.491-0.969,4.827-2.733,6.583c-1.75,1.759-4.086,2.728-6.577,2.728c-5.128,0-9.3-4.177-9.3-9.311
				c0-0.828-0.671-1.5-1.5-1.5c-0.829,0-1.5,0.672-1.5,1.5v5.206c0,4.384-3.566,7.95-7.95,7.95c-4.383,0-7.95-3.566-7.95-7.95
				c0-0.828-0.671-1.5-1.5-1.5c-0.829,0-1.5,0.672-1.5,1.5v19.26c0,1.74-0.675,3.374-1.897,4.597
				c-1.236,1.228-2.871,1.903-4.603,1.903c-3.584,0-6.5-2.916-6.5-6.5v-19.26c0-0.828-0.671-1.5-1.5-1.5c-0.829,0-1.5,0.672-1.5,1.5
				c0,4.384-3.566,7.95-7.95,7.95c-4.383,0-7.95-3.566-7.95-7.95v-28.85c0-0.828-0.671-1.5-1.5-1.5c-0.829,0-1.5,0.672-1.5,1.5
				c0,4.384-3.562,7.95-7.941,7.95c-4.383,0-7.95-3.566-7.95-7.95c0-0.828-0.671-1.5-1.5-1.5c-0.829,0-1.5,0.672-1.5,1.5v15.18
				c0,2.727-1.062,5.291-2.991,7.22c-1.928,1.929-4.492,2.99-7.219,2.99c-5.625,0-10.2-4.58-10.2-10.21v-14.88
				c0-0.828-0.671-1.5-1.5-1.5c-0.829,0-1.5,0.672-1.5,1.5c0,4.692-3.822,8.51-8.52,8.51c-0.512,0-1.013-0.044-1.497-0.132
				c-4.003-11.54-6.033-23.649-6.033-36.008C18.06,67.379,67.379,18.061,128,18.061S237.94,67.379,237.94,128
				c0,7.38-0.739,14.769-2.196,21.969c-2.142,2.236-5.114,3.512-8.214,3.512c-6.28,0-11.39-5.109-11.39-11.391
				c0-0.828-0.671-1.5-1.5-1.5c-0.829,0-1.5,0.672-1.5,1.5v15.55c0,2.388-0.926,4.624-2.611,6.3c-1.684,1.684-3.92,2.61-6.299,2.61
				c-4.913,0-8.91-3.997-8.91-8.91c0-0.828-0.671-1.5-1.5-1.5c-0.829,0-1.5,0.672-1.5,1.5v10.57c0,5.128-4.176,9.3-9.31,9.3
				c-5.128,0-9.3-4.172-9.3-9.3c0-0.828-0.671-1.5-1.5-1.5c-0.829,0-1.5,0.672-1.5,1.5v14.559c0,0.828,0.671,1.5,1.5,1.5
				c0.829,0,1.5-0.672,1.5-1.5v-6.518c2.257,2.607,5.589,4.259,9.3,4.259c6.788,0,12.31-5.518,12.31-12.3v-2.675
				c2.184,2.461,5.369,4.015,8.91,4.015c3.18,0,6.17-1.239,8.417-3.486c2.252-2.24,3.493-5.231,3.493-8.424v-6.765
				c2.634,3.407,6.76,5.605,11.39,5.605c4.085,0,7.992-1.75,10.719-4.801c0.176-0.197,0.297-0.438,0.351-0.697
				c1.553-7.528,2.341-15.261,2.341-22.982C240.94,65.725,190.275,15.061,128,15.061z M128,83.83
				c-24.356,0-44.17,19.814-44.17,44.17s19.814,44.17,44.17,44.17c24.355,0,44.17-19.814,44.17-44.17S152.355,83.83,128,83.83z
				 M128,169.17c-22.701,0-41.17-18.469-41.17-41.17S105.299,86.83,128,86.83c22.701,0,41.17,18.469,41.17,41.17
				S150.701,169.17,128,169.17z"/>
		</g>
	</g>
	<g>
		<g>
			<path class="st0" d="M181.848,85.883l-7.094-7.095c-0.586-0.586-1.535-0.586-2.121,0c-0.586,0.586-0.586,1.535,0,2.121
				l7.094,7.095c0.293,0.293,0.677,0.439,1.06,0.439s0.768-0.146,1.06-0.439C182.434,87.418,182.434,86.469,181.848,85.883z"/>
		</g>
	</g>
	<g>
		<g>
			<path class="st0" d="M198.12,103.225c-0.169-0.812-0.962-1.331-1.774-1.163l-9.822,2.044c-0.811,0.169-1.331,0.963-1.163,1.774
				c0.148,0.708,0.771,1.194,1.467,1.194c0.101,0,0.204-0.01,0.307-0.031l9.822-2.044
				C197.768,104.83,198.289,104.036,198.12,103.225z"/>
		</g>
	</g>
	<g>
		<g>
			<path class="st0" d="M226.901,123.385l-10.019,0.53c-0.828,0.044-1.462,0.75-1.419,1.577c0.042,0.801,0.705,1.421,1.497,1.421
				c0.027,0,0.054-0.001,0.081-0.002l10.019-0.53c0.828-0.044,1.462-0.75,1.419-1.577
				C228.435,123.976,227.717,123.359,226.901,123.385z"/>
		</g>
	</g>
	<g>
		<g>
			<path class="st0" d="M202.871,70.17c-0.824-0.082-1.565,0.502-1.657,1.325l-1.109,9.971c-0.092,0.823,0.501,1.565,1.325,1.657
				c0.057,0.006,0.112,0.009,0.168,0.009c0.754,0,1.403-0.567,1.489-1.334l1.109-9.971C204.288,71.004,203.694,70.262,202.871,70.17
				z"/>
		</g>
	</g>
	<g>
		<g>
			<path class="st0" d="M173.534,49.06l-6.728-7.442c-0.557-0.614-1.504-0.663-2.119-0.106c-0.615,0.555-0.663,1.504-0.107,2.118
				l6.728,7.442c0.296,0.327,0.704,0.494,1.113,0.494c0.358,0,0.718-0.128,1.005-0.388C174.042,50.623,174.089,49.674,173.534,49.06
				z"/>
		</g>
	</g>
	<g>
		<g>
			<path class="st0" d="M111.465,63.346l-7.094-7.095c-0.586-0.586-1.535-0.586-2.121,0c-0.586,0.586-0.586,1.535,0,2.121
				l7.094,7.095c0.293,0.293,0.677,0.439,1.06,0.439s0.768-0.146,1.06-0.439C112.051,64.881,112.051,63.932,111.465,63.346z"/>
		</g>
	</g>
	<g>
		<g>
			<path class="st0" d="M120.994,43.167c-0.169-0.812-0.964-1.336-1.774-1.163l-9.822,2.045c-0.811,0.169-1.331,0.964-1.162,1.774
				c0.147,0.708,0.771,1.194,1.467,1.194c0.101,0,0.204-0.01,0.307-0.031l9.822-2.045C120.642,44.772,121.163,43.978,120.994,43.167
				z"/>
		</g>
	</g>
	<g>
		<g>
			<path class="st0" d="M47.514,89.032c-0.486-0.67-1.423-0.82-2.095-0.333l-8.12,5.892c-0.67,0.486-0.82,1.424-0.333,2.095
				c0.293,0.404,0.751,0.619,1.215,0.619c0.305,0,0.613-0.093,0.879-0.286l8.12-5.892C47.852,90.641,48.001,89.703,47.514,89.032z"
				/>
		</g>
	</g>
	<g>
		<g>
			<path class="st0" d="M64.051,64.173c-0.718-0.414-1.634-0.168-2.049,0.549l-5.016,8.688c-0.414,0.718-0.168,1.635,0.549,2.049
				c0.236,0.137,0.494,0.201,0.748,0.201c0.518,0,1.023-0.269,1.3-0.75l5.016-8.688C65.015,65.504,64.769,64.587,64.051,64.173z"/>
		</g>
	</g>
	<g>
		<g>
			<path class="st0" d="M91.421,39.923c-0.813-0.137-1.592,0.408-1.732,1.224l-1.702,9.887c-0.141,0.816,0.407,1.593,1.224,1.733
				c0.086,0.015,0.172,0.021,0.256,0.021c0.717,0,1.351-0.516,1.476-1.245l1.702-9.887C92.786,40.84,92.238,40.063,91.421,39.923z"
				/>
		</g>
	</g>
	<g>
		<g>
			<path class="st0" d="M219.237,97.375c-0.718-0.414-1.634-0.169-2.049,0.549l-5.017,8.688c-0.415,0.718-0.168,1.635,0.549,2.049
				c0.236,0.137,0.494,0.201,0.748,0.201c0.519,0,1.023-0.269,1.3-0.75l5.017-8.688C220.201,98.706,219.955,97.789,219.237,97.375z"
				/>
		</g>
	</g>
	<g>
		<g>
			<path class="st0" d="M192.29,123.878c-0.717-0.414-1.634-0.168-2.049,0.549l-5.016,8.688c-0.415,0.718-0.169,1.635,0.549,2.049
				c0.236,0.137,0.494,0.201,0.749,0.201c0.519,0,1.023-0.269,1.3-0.75l5.016-8.688C193.253,125.209,193.007,124.292,192.29,123.878
				z"/>
		</g>
	</g>
	<g>
		<g>
			<path class="st0" d="M163.137,61.588c-0.717-0.414-1.634-0.169-2.049,0.549l-5.016,8.688c-0.415,0.718-0.168,1.635,0.549,2.049
				c0.236,0.137,0.494,0.201,0.748,0.201c0.519,0,1.023-0.269,1.3-0.75l5.016-8.688C164.1,62.919,163.854,62.002,163.137,61.588z"/>
		</g>
	</g>
	<g>
		<g>
			<path class="st0" d="M140.33,58.745c-0.104-0.822-0.85-1.402-1.676-1.301L128.7,58.7c-0.822,0.104-1.404,0.854-1.3,1.676
				c0.096,0.759,0.742,1.313,1.486,1.313c0.063,0,0.126-0.004,0.19-0.012l9.954-1.256C139.852,60.317,140.434,59.566,140.33,58.745z
				"/>
		</g>
	</g>
	<g>
		<g>
			<path class="st0" d="M144.291,32.617c-0.718-0.415-1.634-0.169-2.049,0.549l-5.016,8.688c-0.415,0.718-0.168,1.635,0.549,2.049
				c0.236,0.137,0.494,0.201,0.748,0.201c0.519,0,1.023-0.269,1.3-0.75l5.016-8.688C145.254,33.948,145.008,33.031,144.291,32.617z"
				/>
		</g>
	</g>
	<g>
		<g>
			<path class="st0" d="M191.927,57.874c-0.214-0.8-1.036-1.271-1.837-1.061l-9.69,2.597c-0.8,0.215-1.275,1.037-1.061,1.838
				c0.179,0.67,0.786,1.111,1.448,1.111c0.128,0,0.259-0.017,0.389-0.051l9.69-2.597C191.667,59.497,192.141,58.675,191.927,57.874z
				"/>
		</g>
	</g>
	<g>
		<g>
			<path class="st0" d="M79.167,97.87l-5.377-8.471c-0.444-0.699-1.37-0.906-2.07-0.463c-0.7,0.444-0.907,1.371-0.463,2.07
				l5.377,8.471c0.286,0.45,0.772,0.696,1.268,0.696c0.275,0,0.553-0.075,0.802-0.233C79.404,99.496,79.611,98.569,79.167,97.87z"/>
		</g>
	</g>
	<g>
		<g>
			<path class="st0" d="M84.114,62.054c-0.826-0.09-1.565,0.502-1.657,1.325l-1.109,9.972c-0.092,0.823,0.502,1.565,1.325,1.657
				c0.057,0.006,0.112,0.009,0.168,0.009c0.754,0,1.403-0.567,1.489-1.334l1.109-9.972C85.531,62.888,84.938,62.146,84.114,62.054z"
				/>
		</g>
	</g>
	<g>
		<g>
			<path class="st0" d="M37.814,122.357c-0.718-0.414-1.634-0.168-2.049,0.549l-5.016,8.688c-0.415,0.718-0.168,1.635,0.549,2.049
				c0.236,0.137,0.494,0.201,0.748,0.201c0.518,0,1.022-0.269,1.3-0.75l5.016-8.688C38.777,123.688,38.531,122.771,37.814,122.357z"
				/>
		</g>
	</g>
	<g>
		<g>
			<path class="st0" d="M63.321,131.669H53.289c-0.829,0-1.5,0.672-1.5,1.5s0.671,1.5,1.5,1.5h10.032c0.829,0,1.5-0.672,1.5-1.5
				S64.149,131.669,63.321,131.669z"/>
		</g>
	</g>
	<g>
		<g>
			<path class="st0" d="M63.206,112.245l-7.987-6.07c-0.66-0.501-1.6-0.373-2.102,0.287c-0.501,0.659-0.373,1.601,0.287,2.102
				l7.987,6.07c0.272,0.206,0.59,0.306,0.907,0.306c0.453,0,0.9-0.204,1.195-0.593C63.994,113.688,63.866,112.746,63.206,112.245z"
				/>
		</g>
	</g>
	<g>
		<g>
			<path class="st12" d="M227.53,156.48c-2.29,0-4.47-0.54-6.39-1.49c-10.58,42.59-45.67,75.49-89.44,82.88
				c49.83-1.65,91.37-36.63,102.99-83.31C232.53,155.8,230.06,156.48,227.53,156.48z"/>
		</g>
	</g>
	<g>
		<g>
			<path class="st9" d="M131.72,18.13c51.21,8.66,90.53,52.24,92.62,105.39l2.56-0.14c0.82-0.02,1.53,0.6,1.58,1.42
				c0.04,0.83-0.59,1.54-1.42,1.58l-2.64,0.14c0.02,0.49,0.02,0.99,0.02,1.48c0,8.23-0.89,16.24-2.59,23.96
				c1.67,0.97,3.61,1.52,5.68,1.52c3.1,0,6.07-1.27,8.21-3.51c1.46-7.2,2.2-14.59,2.2-21.97C237.94,68.63,190.63,20.09,131.72,18.13
				z"/>
		</g>
	</g>
</g>
</svg>
