<svg fill="#000000" xmlns="http://www.w3.org/2000/svg"  viewBox="0 0 48 48" width="24px" height="24px"><path d="M 13.867188 2.9902344 C 12.378049 3.0003014 11.072142 4.031626 10.710938 5.4746094 A 1.50015 1.50015 0 0 0 10.673828 5.6894531 L 10.115234 11.283203 C 8.3264527 11.879516 7 13.522337 7 15.5 C 7 15.924265 7.1041368 16.322945 7.2460938 16.701172 C 5.9316356 17.490764 5 18.869178 5 20.5 L 5 25.5 L 5 35.5 L 5 40.5 C 5 42.967501 7.0324991 45 9.5 45 L 18.5 45 C 20.967501 45 23 42.967501 23 40.5 L 23 20.5 C 23 18.869178 22.068364 17.490764 20.753906 16.701172 C 20.895863 16.322945 21 15.924265 21 15.5 C 21 13.509858 19.655782 11.86144 17.849609 11.275391 L 17.087891 5.5878906 A 1.50015 1.50015 0 0 0 17.046875 5.3789062 C 16.648745 3.9643537 15.337414 2.9801008 13.869141 2.9902344 L 13.867188 2.9902344 z M 33.867188 2.9902344 C 32.37805 3.0003014 31.072142 4.031626 30.710938 5.4746094 A 1.50015 1.50015 0 0 0 30.673828 5.6894531 L 30.115234 11.283203 C 28.326452 11.879516 27 13.522337 27 15.5 C 27 15.924265 27.104137 16.322945 27.246094 16.701172 C 25.931636 17.490764 25 18.869178 25 20.5 L 25 25.5 L 25 35.5 L 25 40.5 C 25 42.967501 27.032499 45 29.5 45 L 38.5 45 C 40.967501 45 43 42.967501 43 40.5 L 43 20.5 C 43 18.869178 42.068364 17.490764 40.753906 16.701172 C 40.895863 16.322945 41 15.924265 41 15.5 C 41 13.509858 39.655782 11.86144 37.849609 11.275391 L 37.087891 5.5878906 A 1.50015 1.50015 0 0 0 37.046875 5.3789062 C 36.648745 3.9643537 35.337414 2.9801008 33.869141 2.9902344 L 33.867188 2.9902344 z M 13.888672 5.9902344 A 1.50015 1.50015 0 0 0 13.890625 5.9902344 C 14.013344 5.989314 14.099594 6.0689004 14.140625 6.1816406 L 15.013672 12.699219 A 1.50015 1.50015 0 0 0 16.5 14 C 17.346499 14 18 14.653501 18 15.5 C 18 15.795045 17.795045 16 17.5 16 L 10.5 16 C 10.204955 16 10 15.795045 10 15.5 C 10 14.653501 10.653501 14 11.5 14 A 1.50015 1.50015 0 0 0 12.992188 12.648438 L 13.638672 6.1894531 C 13.677522 6.073797 13.765214 5.9909955 13.888672 5.9902344 z M 33.888672 5.9902344 A 1.50015 1.50015 0 0 0 33.890625 5.9902344 C 34.013344 5.989314 34.099594 6.0689004 34.140625 6.1816406 L 35.013672 12.699219 A 1.50015 1.50015 0 0 0 36.5 14 C 37.346499 14 38 14.653501 38 15.5 C 38 15.795045 37.795045 16 37.5 16 L 30.5 16 C 30.204955 16 30 15.795045 30 15.5 C 30 14.653501 30.653501 14 31.5 14 A 1.50015 1.50015 0 0 0 32.992188 12.648438 L 33.638672 6.1894531 C 33.677522 6.073797 33.765214 5.9909955 33.888672 5.9902344 z M 9.5 19 L 10.5 19 L 17.5 19 L 18.5 19 C 19.346499 19 20 19.653501 20 20.5 L 20 40.5 C 20 41.346499 19.346499 42 18.5 42 L 9.5 42 C 8.6535009 42 8 41.346499 8 40.5 L 8 37 L 11.5 37 C 13.414955 37 15 35.414955 15 33.5 L 15 27.5 C 15 25.585045 13.414955 24 11.5 24 L 8 24 L 8 20.5 C 8 19.653501 8.6535009 19 9.5 19 z M 29.5 19 L 30.5 19 L 37.5 19 L 38.5 19 C 39.346499 19 40 19.653501 40 20.5 L 40 40.5 C 40 41.346499 39.346499 42 38.5 42 L 29.5 42 C 28.653501 42 28 41.346499 28 40.5 L 28 37 L 31.5 37 C 33.414955 37 35 35.414955 35 33.5 L 35 27.5 C 35 25.585045 33.414955 24 31.5 24 L 28 24 L 28 20.5 C 28 19.653501 28.653501 19 29.5 19 z M 8 27 L 11.5 27 C 11.795045 27 12 27.204955 12 27.5 L 12 33.5 C 12 33.795045 11.795045 34 11.5 34 L 8 34 L 8 27 z M 28 27 L 31.5 27 C 31.795045 27 32 27.204955 32 27.5 L 32 33.5 C 32 33.795045 31.795045 34 31.5 34 L 28 34 L 28 27 z"/></svg>