<svg fill="#000000" xmlns="http://www.w3.org/2000/svg"  viewBox="0 0 48 48" width="24px" height="24px"><path d="M 27.121094 9.5019531 C 25.864033 9.5219818 24.587242 9.6602173 23.306641 9.9375 A 1.50015 1.50015 0 0 0 22.125 11.404297 L 22.125 36.162109 A 1.50015 1.50015 0 0 0 23.332031 37.634766 C 25.737032 38.112339 28.263087 38.208022 30.796875 37.84375 A 1.50015 1.50015 0 0 0 32.082031 36.359375 L 32.082031 11.255859 A 1.50015 1.50015 0 0 0 30.822266 9.7753906 C 29.616664 9.5808005 28.378155 9.4819244 27.121094 9.5019531 z M 35.474609 11.546875 A 1.50015 1.50015 0 0 0 34 13.046875 L 34 34.601562 A 1.50015 1.50015 0 0 0 36.210938 35.921875 C 39.694151 34.046131 42.917867 30.892584 45.472656 26.285156 C 46.773257 23.939374 45.772568 21.131873 44.017578 18.552734 C 42.262588 15.973596 39.525386 13.46107 36.195312 11.716797 A 1.50015 1.50015 0 0 0 35.474609 11.546875 z M 18.580078 12.285156 A 1.50015 1.50015 0 0 0 17.755859 12.560547 C 15.734538 13.99716 13.848442 16.149527 12.068359 18.748047 C 11.451674 18.063287 10.744012 17.503671 9.9882812 17.101562 C 8.5607525 16.342005 7.0229895 16.002169 5.6640625 15.839844 C 2.9350775 15.514148 0.91611795 18.526295 2.1171875 20.96875 C 2.80289 22.363012 3.3632813 24.070828 3.3632812 24.523438 C 3.3632812 24.967434 2.8235102 26.631208 2.1523438 28.007812 C 0.93553643 30.498023 3.0850884 33.507954 5.8320312 33.119141 A 1.50015 1.50015 0 0 0 5.8320312 33.117188 C 7.3267473 32.904752 9.0155824 32.485097 10.501953 31.523438 C 11.179817 31.084868 11.78303 30.470374 12.291016 29.765625 C 13.789515 31.994236 15.588095 33.9833 17.839844 35.365234 A 1.50015 1.50015 0 0 0 20.125 34.087891 L 20.125 13.783203 A 1.50015 1.50015 0 0 0 18.580078 12.285156 z M 27.169922 12.501953 C 27.814354 12.491733 28.445945 12.583253 29.082031 12.642578 L 29.082031 34.947266 C 27.745419 35.045466 26.425485 35.005716 25.125 34.830078 L 25.125 12.734375 C 25.808053 12.638865 26.491988 12.512709 27.169922 12.501953 z M 37 15.896484 C 38.851195 17.227551 40.502037 18.719089 41.537109 20.240234 C 42.97737 22.356846 43.207055 24.181861 42.847656 24.830078 C 41.130708 27.926504 39.104616 29.978899 37 31.59375 L 37 15.896484 z M 17.125 17.173828 L 17.125 30.898438 C 15.593343 29.500415 14.234435 27.910535 13.367188 25.976562 A 1.50015 1.50015 0 0 0 10.507812 26.423828 C 10.363107 27.711303 9.795926 28.40877 8.8730469 29.005859 C 7.9501677 29.602949 6.6454404 29.972872 5.4101562 30.148438 C 4.8930992 30.221628 4.6044166 29.826009 4.8496094 29.324219 C 5.5884428 27.808824 6.3632813 26.205439 6.3632812 24.523438 C 6.3632812 22.812047 5.5628913 21.17827 4.8085938 19.644531 C 4.5796633 19.178986 4.8535787 18.766008 5.3085938 18.820312 C 6.4276668 18.953988 7.6286538 19.244807 8.578125 19.75 C 9.5275962 20.255193 10.212298 20.909023 10.589844 21.939453 A 1.50015 1.50015 0 0 0 13.294922 22.179688 C 14.520238 20.077606 15.813846 18.512362 17.125 17.173828 z M 39.5 21 A 1.5 1.5 0 0 0 39.5 24 A 1.5 1.5 0 0 0 39.5 21 z"/></svg>