<?xml version="1.0" encoding="utf-8"?>
<!-- Generator: Adobe Illustrator 22.0.1, SVG Export Plug-In . SVG Version: 6.00 Build 0)  -->
<svg version="1.1" id="Layer_2" xmlns="http://www.w3.org/2000/svg" xmlns:xlink="http://www.w3.org/1999/xlink" x="0px" y="0px"
	 viewBox="0 0 256 256" style="enable-background:new 0 0 256 256;" xml:space="preserve">
<style type="text/css">
	.st0{fill:#3A312A;}
	.st1{fill:#D7E057;}
	.st2{fill:#FCE8CB;}
	.st3{fill:#8AC6DD;}
	.st4{fill-rule:evenodd;clip-rule:evenodd;fill:#FCE8CB;}
	.st5{fill:#F5978A;}
	.st6{fill:#87796F;}
	.st7{fill:#F16C7A;}
	.st8{fill:#68A8BC;}
	.st9{fill:#B9BC39;}
	.st10{fill:#CE4E61;}
	.st11{fill:#6B5B51;}
	.st12{fill:#CCAE8B;}
	.st13{fill-rule:evenodd;clip-rule:evenodd;fill:#F16C7A;}
</style>
<g>
	<g>
		<g>
			<path class="st1" d="M64.035,194.667c-9.18,0-16.66-7.48-16.66-16.66v-77.43c0-16.91-13.75-30.66-30.66-30.66
				c-0.04,0-0.09,0-0.13,0.01v13.98c0.04,0.01,0.09,0.01,0.13,0.01c9.19,0,16.66,7.47,16.66,16.66v77.43
				c0,16.9,13.76,30.66,30.66,30.66h7.15l1-14H64.035z"/>
		</g>
	</g>
	<g>
		<g>
			<path class="st0" d="M73.283,193.645c-0.284-0.305-0.681-0.478-1.098-0.478h-8.15c-8.359,0-15.16-6.801-15.16-15.16v-77.431
				c0-17.732-14.427-32.159-32.16-32.159c-0.088,0-0.27,0-0.486,0.053c-0.672,0.164-1.144,0.766-1.144,1.457v13.979
				c0,0.679,0.455,1.272,1.111,1.449c0.204,0.054,0.377,0.062,0.519,0.062c8.359,0,15.16,6.801,15.16,15.159v36.635
				c0,0.828,0.671,1.5,1.5,1.5s1.5-0.672,1.5-1.5v-36.635c0-9.549-7.41-17.4-16.79-18.107v-11.02
				c15.445,0.718,27.79,13.508,27.79,29.127v77.431c0,10.014,8.146,18.16,18.16,18.16h6.539l-0.786,11h-5.753
				c-16.079,0-29.16-13.081-29.16-29.16v-26.385c0-0.828-0.671-1.5-1.5-1.5s-1.5,0.672-1.5,1.5v26.385
				c0,17.733,14.427,32.16,32.16,32.16h7.15c0.787,0,1.44-0.608,1.496-1.394l1-14C73.711,194.358,73.566,193.949,73.283,193.645z"/>
		</g>
	</g>
	<g>
		<g>
			<path class="st6" d="M239.145,171.587l-22.43-79.04c-2.29-8.07-7.65-14.65-15.09-18.52c-7.44-3.87-15.9-4.48-23.82-1.72
				l-2.58,0.9l1.03,14.46l6.15-2.14c4.24-1.48,8.77-1.15,12.76,0.92c3.98,2.08,6.85,5.6,8.08,9.92l22.44,79.04
				c0.87,3.08,3.67,5.09,6.73,5.09c0.63,0,1.27-0.09,1.91-0.27C238.045,179.177,240.205,175.307,239.145,171.587z"/>
		</g>
	</g>
	<g>
		<g>
			<path class="st0" d="M240.588,171.178l-22.43-79.04c-2.404-8.475-8.03-15.379-15.841-19.442
				c-7.809-4.063-16.69-4.705-25.006-1.805l-2.58,0.9c-0.64,0.223-1.05,0.847-1.002,1.522l1.03,14.46
				c0.033,0.466,0.281,0.89,0.671,1.146c0.391,0.257,0.878,0.317,1.318,0.164l6.151-2.142c3.841-1.342,7.952-1.043,11.571,0.833
				c3.613,1.889,6.217,5.086,7.332,9.002l22.44,79.037c1.028,3.64,4.389,6.183,8.173,6.183c0.765,0,1.544-0.109,2.315-0.326
				c0.001,0,0.001-0.001,0.002-0.001c2.186-0.616,3.998-2.048,5.105-4.03C240.944,175.656,241.21,173.361,240.588,171.178z
				 M237.217,176.178c-0.715,1.28-1.886,2.206-3.297,2.604c-3.039,0.851-5.993-0.957-6.792-3.786l-22.44-79.04
				c-1.343-4.716-4.478-8.565-8.833-10.842c-2.564-1.329-5.332-2.001-8.117-2.001c-1.954,0-3.918,0.331-5.826,0.996l-4.3,1.497
				l-0.809-11.361l1.496-0.522c7.528-2.622,15.566-2.042,22.634,1.635c7.07,3.678,12.163,9.928,14.34,17.599l22.43,79.042
				C238.105,173.411,237.933,174.896,237.217,176.178z"/>
		</g>
	</g>
	<g>
		<g>
			<path class="st1" d="M185.843,222.481L174.05,56.817c-0.577-8.114-7.328-14.401-15.462-14.401H97.462
				c-8.134,0-14.885,6.287-15.462,14.401l-1.338,18.789L79.561,91.08l-9.354,131.401c-0.639,8.972,6.468,16.602,15.462,16.602
				h84.712C179.376,239.083,186.482,231.453,185.843,222.481z"/>
		</g>
	</g>
	<g>
		<g>
			<path class="st0" d="M187.339,222.375L175.546,56.711c-0.63-8.856-8.08-15.794-16.958-15.794H97.462
				c-8.879,0-16.328,6.938-16.958,15.794L79.167,75.5c-0.059,0.826,0.563,1.544,1.39,1.603c0.82,0.059,1.543-0.563,1.602-1.39
				l1.337-18.789c0.519-7.294,6.654-13.007,13.966-13.007h61.125c7.312,0,13.447,5.713,13.966,13.007l11.793,165.664
				c0.279,3.919-1.042,7.661-3.72,10.536c-2.678,2.875-6.317,4.459-10.246,4.459H85.669c-3.929,0-7.568-1.584-10.246-4.459
				c-2.678-2.875-3.999-6.617-3.72-10.536l9.354-131.401c0.059-0.826-0.563-1.544-1.39-1.603c-0.828-0.06-1.544,0.563-1.603,1.39
				l-9.354,131.401c-0.334,4.689,1.313,9.353,4.517,12.794c3.205,3.44,7.739,5.414,12.441,5.414h84.712
				c4.702,0,9.237-1.974,12.441-5.414C186.027,231.728,187.673,227.064,187.339,222.375z"/>
		</g>
	</g>
	<g>
		<g>
			<path class="st7" d="M158.588,42.417H97.462c-7.829,0-14.359,5.83-15.354,13.5h91.835
				C172.947,48.246,166.417,42.417,158.588,42.417z"/>
		</g>
	</g>
	<g>
		<g>
			<path class="st0" d="M175.43,55.724c-1.095-8.441-8.336-14.807-16.842-14.807H97.462c-8.506,0-15.747,6.365-16.842,14.807
				c-0.056,0.428,0.076,0.859,0.36,1.184c0.285,0.324,0.695,0.51,1.127,0.51h91.834c0.432,0,0.842-0.186,1.127-0.51
				C175.354,56.583,175.485,56.151,175.43,55.724z M83.922,54.417c1.572-6.092,7.118-10.5,13.54-10.5h61.125
				c6.422,0,11.968,4.408,13.54,10.5H83.922z"/>
		</g>
	</g>
	<g>
		<g>
			<polygon class="st6" points="118.375,28.707 122.275,42.417 134.025,42.417 137.795,28.707 			"/>
		</g>
	</g>
	<g>
		<g>
			<path class="st0" d="M138.988,27.798c-0.284-0.372-0.725-0.591-1.193-0.591h-19.42c-0.47,0-0.914,0.221-1.197,0.596
				c-0.284,0.376-0.375,0.862-0.246,1.314l3.9,13.71c0.184,0.646,0.773,1.09,1.443,1.09h11.75c0.675,0,1.267-0.451,1.446-1.103
				l3.77-13.71C139.365,28.653,139.271,28.17,138.988,27.798z M132.882,40.917h-9.474l-3.046-10.71h15.465L132.882,40.917z"/>
		</g>
	</g>
	<g>
		<g>
			<path class="st1" d="M62.183,26.687c-0.974,11.564-13.025,13.389-13.025,13.389c10.347,0.487,12.925,14.059,12.925,14.059
				c0.221-9.677,13.321-14.202,13.321-14.202C65.591,39.346,62.183,26.687,62.183,26.687z"/>
		</g>
	</g>
	<g>
		<g>
			<path class="st0" d="M75.494,38.437c-8.604-0.515-11.831-12.025-11.863-12.142c-0.191-0.702-0.847-1.155-1.583-1.102
				c-0.725,0.066-1.298,0.642-1.359,1.367c-0.86,10.216-11.313,11.964-11.755,12.032c-0.763,0.116-1.313,0.791-1.273,1.561
				c0.04,0.771,0.657,1.385,1.427,1.421C58.116,42,60.586,54.293,60.61,54.418c0.137,0.711,0.759,1.217,1.472,1.217
				c0.042,0,0.085-0.002,0.127-0.005c0.764-0.064,1.357-0.693,1.375-1.46c0.195-8.509,12.192-12.777,12.313-12.819
				c0.675-0.234,1.092-0.914,0.994-1.622C76.792,39.02,76.208,38.479,75.494,38.437z M61.928,48.782
				c-1.356-3.131-3.709-6.908-7.587-8.877c2.931-1.404,6.409-3.913,8.202-8.273c1.551,3.071,4.199,6.881,8.334,8.724
				C67.87,41.995,63.955,44.761,61.928,48.782z"/>
		</g>
	</g>
	<g>
		<g>
			<path class="st1" d="M40.484,43.667c-0.689,8.179-9.213,9.47-9.213,9.47c7.318,0.344,9.142,9.944,9.142,9.944
				c0.156-6.844,9.422-10.045,9.422-10.045C42.895,52.622,40.484,43.667,40.484,43.667z"/>
		</g>
	</g>
	<g>
		<g>
			<path class="st0" d="M49.925,51.54c-5.766-0.345-7.972-8.186-7.993-8.265c-0.19-0.701-0.851-1.17-1.582-1.102
				c-0.726,0.065-1.299,0.643-1.36,1.368c-0.579,6.87-7.646,8.065-7.942,8.112c-0.763,0.116-1.313,0.791-1.274,1.561
				c0.04,0.771,0.657,1.385,1.427,1.421c6.035,0.284,7.724,8.645,7.739,8.727c0.135,0.713,0.759,1.22,1.472,1.22
				c0.042,0,0.083-0.002,0.125-0.005c0.765-0.063,1.358-0.693,1.376-1.461c0.13-5.708,8.332-8.633,8.412-8.661
				c0.677-0.234,1.094-0.913,0.996-1.622C51.225,52.124,50.64,51.582,49.925,51.54z M40.341,58.335
				c-0.924-1.886-2.34-3.947-4.447-5.28c1.856-1.041,3.697-2.63,4.871-4.916c1.057,1.874,2.654,3.954,4.941,5.224
				C43.856,54.463,41.717,56.103,40.341,58.335z"/>
		</g>
	</g>
	<g>
		<g>
			<path class="st1" d="M40.484,17.01c-0.689,8.179-9.213,9.471-9.213,9.471c7.318,0.344,9.142,9.944,9.142,9.944
				c0.156-6.845,9.422-10.045,9.422-10.045C42.895,25.964,40.484,17.01,40.484,17.01z"/>
		</g>
	</g>
	<g>
		<g>
			<path class="st0" d="M49.926,24.883c-5.766-0.346-7.972-8.187-7.994-8.266c-0.19-0.702-0.851-1.162-1.582-1.102
				c-0.726,0.065-1.299,0.643-1.36,1.368c-0.579,6.871-7.646,8.066-7.942,8.113c-0.763,0.116-1.313,0.791-1.274,1.561
				c0.04,0.771,0.657,1.385,1.427,1.421c6.035,0.284,7.724,8.645,7.739,8.727c0.135,0.713,0.759,1.22,1.473,1.22
				c0.041,0,0.083-0.002,0.125-0.005c0.765-0.063,1.358-0.693,1.376-1.461c0.13-5.709,8.331-8.633,8.412-8.661
				c0.676-0.233,1.094-0.913,0.996-1.622C51.225,25.467,50.64,24.926,49.926,24.883z M40.341,31.677
				c-0.924-1.885-2.34-3.947-4.447-5.279c1.856-1.041,3.697-2.63,4.871-4.917c1.057,1.874,2.654,3.955,4.942,5.225
				C43.856,27.806,41.717,29.444,40.341,31.677z"/>
		</g>
	</g>
	<g>
		<g>
			<path class="st10" d="M158.585,43.917h-15.67c6.42,0,11.97,4.41,13.54,10.5h15.67C170.555,48.327,165.005,43.917,158.585,43.917z
				"/>
		</g>
	</g>
	<g>
		<g>
			<path class="st1" d="M142.928,16.917h-29.806c-3.256,0-5.895,2.639-5.895,5.895s2.639,5.895,5.895,5.895h29.806
				c3.256,0,5.895-2.639,5.895-5.895S146.184,16.917,142.928,16.917z"/>
		</g>
	</g>
	<g>
		<g>
			<path class="st0" d="M142.928,15.417h-29.806c-4.078,0-7.395,3.317-7.395,7.395c0,4.078,3.317,7.396,7.395,7.396h29.806
				c4.078,0,7.396-3.317,7.396-7.396C150.323,18.734,147.006,15.417,142.928,15.417z M142.928,27.207h-29.806
				c-2.423,0-4.395-1.972-4.395-4.396c0-2.423,1.972-4.395,4.395-4.395h29.806c2.424,0,4.396,1.972,4.396,4.395
				C147.323,25.235,145.352,27.207,142.928,27.207z"/>
		</g>
	</g>
	<g>
		<g>
			<path class="st9" d="M184.345,222.587l-11.76-165.17h-15.3l11.76,165.17c0.28,3.92-1.04,7.66-3.72,10.54
				c-2.68,2.87-6.32,4.46-10.25,4.46h15.31c3.93,0,7.56-1.59,10.24-4.46C183.305,230.247,184.625,226.506,184.345,222.587z"/>
		</g>
	</g>
</g>
</svg>
