<?xml version="1.0" encoding="utf-8"?>
<!-- Generator: Adobe Illustrator 22.0.1, SVG Export Plug-In . SVG Version: 6.00 Build 0)  -->
<svg version="1.1" id="Layer_2" xmlns="http://www.w3.org/2000/svg" xmlns:xlink="http://www.w3.org/1999/xlink" x="0px" y="0px"
	 viewBox="0 0 256 256" style="enable-background:new 0 0 256 256;" xml:space="preserve">
<style type="text/css">
	.st0{fill:#3A312A;}
	.st1{fill:#D7E057;}
	.st2{fill:#FCE8CB;}
	.st3{fill:#8AC6DD;}
	.st4{fill-rule:evenodd;clip-rule:evenodd;fill:#FCE8CB;}
	.st5{fill:#F5978A;}
	.st6{fill:#87796F;}
	.st7{fill:#F16C7A;}
	.st8{fill:#68A8BC;}
	.st9{fill:#B9BC39;}
	.st10{fill:#CE4E61;}
	.st11{fill:#6B5B51;}
	.st12{fill:#CCAE8B;}
	.st13{fill-rule:evenodd;clip-rule:evenodd;fill:#F16C7A;}
</style>
<g>
	<g>
		<g>
			<path class="st6" d="M237.343,18.701c-1.35-1.38-3.19-2.24-5.25-2.24h-38.79c4.23,0,7.66,3.42,7.66,7.65
				c0,2.12-0.86,4.03-2.24,5.42c-1.3,1.29-3.06,2.13-5.03,2.23h38.4c4.09,0,7.43-3.42,7.43-7.65
				C239.523,21.991,238.693,20.091,237.343,18.701z"/>
		</g>
	</g>
	<g>
		<g>
			<path class="st0" d="M238.415,17.652c-1.697-1.735-3.942-2.69-6.322-2.69h-38.79c-0.828,0-1.5,0.672-1.5,1.5s0.672,1.5,1.5,1.5
				c3.396,0,6.16,2.759,6.16,6.149c0,1.643-0.641,3.191-1.797,4.355c-1.089,1.081-2.527,1.719-4.049,1.797
				c-0.813,0.041-1.444,0.723-1.423,1.536c0.021,0.813,0.686,1.462,1.499,1.462h38.399c4.924,0,8.93-4.104,8.93-9.15
				C241.022,21.678,240.098,19.385,238.415,17.652z M232.093,30.262h-31.996c1.529-1.693,2.366-3.86,2.366-6.15
				c0-2.365-0.903-4.523-2.383-6.149h32.013c1.566,0,3.05,0.635,4.174,1.784c1.133,1.166,1.756,2.716,1.756,4.365
				C238.022,27.503,235.362,30.262,232.093,30.262z"/>
		</g>
	</g>
	<g>
		<g>
			<path class="st1" d="M47.388,61.83c-0.974,11.564-13.025,13.389-13.025,13.389c10.347,0.487,12.925,14.059,12.925,14.059
				C47.51,79.602,60.61,75.076,60.61,75.076C50.796,74.489,47.388,61.83,47.388,61.83z"/>
		</g>
	</g>
	<g>
		<g>
			<path class="st0" d="M60.699,73.579c-8.604-0.515-11.831-12.024-11.863-12.141c-0.191-0.703-0.859-1.17-1.583-1.102
				c-0.725,0.066-1.298,0.642-1.359,1.367c-0.86,10.215-11.313,11.964-11.754,12.032c-0.763,0.116-1.313,0.791-1.273,1.561
				c0.04,0.771,0.657,1.385,1.428,1.421c9.028,0.425,11.499,12.718,11.522,12.843c0.137,0.711,0.759,1.217,1.472,1.217
				c0.042,0,0.084-0.002,0.126-0.005c0.764-0.064,1.357-0.693,1.375-1.46c0.195-8.509,12.191-12.777,12.313-12.819
				c0.675-0.234,1.092-0.914,0.994-1.622C61.997,74.162,61.413,73.621,60.699,73.579z M47.134,83.925
				c-1.357-3.131-3.708-6.907-7.587-8.877c2.931-1.404,6.409-3.912,8.202-8.272c1.551,3.071,4.2,6.88,8.334,8.723
				C53.075,77.138,49.16,79.903,47.134,83.925z"/>
		</g>
	</g>
	<g>
		<g>
			<path class="st1" d="M25.689,78.811c-0.689,8.179-9.212,9.47-9.212,9.47c7.318,0.344,9.142,9.944,9.142,9.944
				c0.156-6.844,9.422-10.045,9.422-10.045C28.1,87.765,25.689,78.811,25.689,78.811z"/>
		</g>
	</g>
	<g>
		<g>
			<path class="st0" d="M35.131,86.683c-5.766-0.345-7.972-8.186-7.994-8.265c-0.19-0.702-0.856-1.164-1.582-1.102
				c-0.726,0.065-1.299,0.643-1.36,1.368c-0.579,6.87-7.647,8.066-7.942,8.113c-0.763,0.116-1.313,0.791-1.273,1.561
				c0.04,0.771,0.657,1.385,1.427,1.421c6.036,0.284,7.724,8.645,7.739,8.727c0.135,0.712,0.759,1.22,1.472,1.22
				c0.042,0,0.083-0.002,0.125-0.005c0.765-0.063,1.358-0.693,1.376-1.461c0.13-5.709,8.332-8.634,8.413-8.662
				c0.677-0.234,1.094-0.913,0.996-1.622C36.43,87.267,35.846,86.725,35.131,86.683z M25.546,93.478
				c-0.924-1.886-2.34-3.947-4.447-5.279c1.856-1.042,3.697-2.631,4.871-4.917c1.057,1.874,2.654,3.955,4.941,5.224
				C29.061,89.605,26.922,91.245,25.546,93.478z"/>
		</g>
	</g>
	<g>
		<g>
			<path class="st1" d="M25.689,52.153c-0.689,8.179-9.212,9.47-9.212,9.47c7.318,0.344,9.142,9.944,9.142,9.944
				c0.156-6.844,9.422-10.045,9.422-10.045C28.1,61.107,25.689,52.153,25.689,52.153z"/>
		</g>
	</g>
	<g>
		<g>
			<path class="st0" d="M35.131,60.025c-5.766-0.345-7.972-8.186-7.994-8.265c-0.19-0.702-0.856-1.159-1.582-1.102
				c-0.726,0.065-1.299,0.643-1.36,1.368c-0.579,6.87-7.647,8.066-7.942,8.113c-0.763,0.116-1.313,0.791-1.273,1.561
				c0.04,0.771,0.657,1.385,1.428,1.421c6.035,0.284,7.723,8.645,7.739,8.727c0.135,0.712,0.759,1.22,1.473,1.22
				c0.041,0,0.083-0.002,0.125-0.005c0.765-0.063,1.358-0.693,1.376-1.461c0.13-5.709,8.332-8.634,8.413-8.662
				c0.677-0.234,1.094-0.913,0.996-1.622C36.43,60.609,35.846,60.067,35.131,60.025z M25.546,66.82
				c-0.924-1.886-2.34-3.947-4.447-5.28c1.856-1.041,3.697-2.63,4.871-4.916c1.057,1.874,2.654,3.955,4.941,5.224
				C29.061,62.948,26.922,64.588,25.546,66.82z"/>
		</g>
	</g>
	<g>
		<g>
			<path class="st7" d="M192.433,109.031c-6.44,0-12.56,1.41-18.07,3.94l2.5,14.53c4.52-2.84,9.86-4.47,15.57-4.47
				c16.26,0,29.49,13.23,29.49,29.49c0,16.26-13.23,29.49-29.49,29.49c-2.16,0-4.27-0.23-6.3-0.68l1.23,7.15
				c0.42,2.43,0.56,4.87,0.43,7.28c1.52,0.17,3.07,0.25,4.64,0.25c23.98,0,43.49-19.51,43.49-43.49S216.413,109.031,192.433,109.031
				z"/>
		</g>
	</g>
	<g>
		<g>
			<path class="st0" d="M192.433,107.531c-6.514,0-12.804,1.372-18.695,4.077c-0.618,0.284-0.968,0.947-0.853,1.617l2.5,14.53
				c0.085,0.494,0.41,0.912,0.867,1.116c0.456,0.203,0.985,0.167,1.409-0.101c4.414-2.773,9.521-4.24,14.771-4.24
				c15.434,0,27.99,12.557,27.99,27.99s-12.557,27.99-27.99,27.99c-2.034,0-4.045-0.217-5.975-0.646
				c-0.49-0.105-0.998,0.034-1.36,0.379c-0.361,0.345-0.528,0.848-0.443,1.34l1.23,7.152c0.397,2.295,0.535,4.631,0.41,6.943
				c-0.043,0.794,0.541,1.483,1.331,1.572c1.54,0.172,3.157,0.259,4.807,0.259c24.808,0,44.99-20.183,44.99-44.99
				S217.24,107.531,192.433,107.531z M192.433,194.512c-1.052,0-2.088-0.038-3.095-0.113c0.022-2.063-0.144-4.132-0.496-6.171
				l-0.866-5.035c1.463,0.212,2.954,0.319,4.457,0.319c17.088,0,30.99-13.902,30.99-30.99s-13.902-30.99-30.99-30.99
				c-5.072,0-10.026,1.236-14.456,3.594l-1.937-11.256c5.19-2.216,10.699-3.338,16.393-3.338c23.153,0,41.99,18.837,41.99,41.99
				S215.586,194.512,192.433,194.512z"/>
		</g>
	</g>
	<g>
		<g>
			<polygon class="st1" points="63.923,31.771 82.623,64.151 95.753,86.901 160.413,86.901 173.543,64.151 192.243,31.771 			"/>
		</g>
	</g>
	<g>
		<g>
			<path class="st0" d="M193.542,31.021c-0.268-0.464-0.763-0.75-1.299-0.75H63.923c-0.536,0-1.031,0.286-1.299,0.75
				c-0.267,0.464-0.267,1.036,0.001,1.5l31.83,55.13c0.268,0.464,0.763,0.75,1.299,0.75h64.66c0.536,0,1.031-0.286,1.299-0.75
				l31.83-55.13C193.811,32.058,193.811,31.485,193.542,31.021z M159.547,85.401H96.619l-30.098-52.13h123.123L159.547,85.401z"/>
		</g>
	</g>
	<g>
		<g>
			<polygon class="st6" points="82.623,64.151 95.753,86.901 160.413,86.901 173.543,64.151 			"/>
		</g>
	</g>
	<g>
		<g>
			<path class="st0" d="M174.842,63.401c-0.268-0.464-0.763-0.75-1.299-0.75h-90.92c-0.536,0-1.031,0.286-1.299,0.75
				c-0.268,0.464-0.268,1.036,0,1.5l13.13,22.75c0.268,0.464,0.763,0.75,1.299,0.75h64.66c0.536,0,1.031-0.286,1.299-0.75
				l13.13-22.75C175.11,64.438,175.11,63.865,174.842,63.401z M159.547,85.401H96.619l-11.398-19.75h85.725L159.547,85.401z"/>
		</g>
	</g>
	<g>
		<g>
			<path class="st1" d="M193.302,16.457H62.863c-4.228,0-7.655,3.427-7.655,7.656s3.427,7.655,7.655,7.655h130.439
				c4.228,0,7.656-3.427,7.656-7.655S197.531,16.457,193.302,16.457z"/>
		</g>
	</g>
	<g>
		<g>
			<path class="st0" d="M193.303,14.957h-88.541c-0.829,0-1.5,0.672-1.5,1.5s0.671,1.5,1.5,1.5h88.541
				c3.394,0,6.155,2.762,6.155,6.155c0,3.395-2.762,6.156-6.155,6.156H62.863c-3.394,0-6.155-2.762-6.155-6.156
				c0-3.394,2.761-6.155,6.155-6.155h27.873c0.829,0,1.5-0.672,1.5-1.5s-0.671-1.5-1.5-1.5H62.863c-5.048,0-9.155,4.107-9.155,9.155
				c0,5.049,4.107,9.156,9.155,9.156h130.439c5.048,0,9.155-4.107,9.155-9.156C202.458,19.064,198.351,14.957,193.303,14.957z"/>
		</g>
	</g>
	<g>
		<g>
			<path class="st2" d="M93.537,229.093v5.061c0,2.976,2.412,5.388,5.388,5.388h58.316c2.976,0,5.388-2.412,5.388-5.388v-5.062
				H93.537z"/>
		</g>
	</g>
	<g>
		<g>
			<path class="st0" d="M162.629,227.593H93.537c-0.829,0-1.5,0.672-1.5,1.5v5.062c0,3.799,3.09,6.889,6.888,6.889h58.316
				c3.798,0,6.888-3.09,6.888-6.889v-5.062C164.129,228.265,163.457,227.593,162.629,227.593z M161.129,234.154
				c0,2.145-1.744,3.889-3.888,3.889H98.925c-2.144,0-3.888-1.744-3.888-3.889v-3.562h66.092V234.154z"/>
		</g>
	</g>
	<g>
		<g>
			<path class="st12" d="M149.715,230.594v3.56c0,2.14-1.768,3.89-3.953,3.89h11.391c2.174,0,3.953-1.75,3.953-3.89v-3.56H149.715z"
				/>
		</g>
	</g>
	<g>
		<g>
			<path class="st3" d="M187.367,188.481l-15.446-89.664H84.245l-6.575,38.165L75.2,151.326l-6.189,35.928
				c-2.102,12.202,2.844,24.548,12.789,31.924l13.335,9.889h69.116l11.772-9.798C185.032,211.771,189.357,200.035,187.367,188.481z"
				/>
		</g>
	</g>
	<g>
		<g>
			<path class="st0" d="M188.846,188.227l-15.446-89.663c-0.124-0.72-0.748-1.245-1.479-1.245H84.245
				c-0.73,0-1.354,0.525-1.478,1.245l-6.574,38.164c-0.141,0.816,0.407,1.593,1.223,1.733c0.814,0.139,1.592-0.406,1.733-1.224
				l6.36-36.919h85.148l15.231,88.418c1.893,10.99-2.256,22.248-10.827,29.381l-11.355,9.451H95.629l-12.937-9.595
				c-9.545-7.079-14.222-18.753-12.204-30.464l6.189-35.929c0.141-0.816-0.407-1.593-1.224-1.733
				c-0.811-0.137-1.592,0.407-1.732,1.224L67.533,187c-2.211,12.834,2.913,25.626,13.373,33.384l13.334,9.89
				c0.258,0.191,0.572,0.295,0.894,0.295h69.116c0.351,0,0.69-0.123,0.96-0.347l11.771-9.798
				C186.373,212.607,190.919,200.271,188.846,188.227z"/>
		</g>
	</g>
	<g>
		<g>
			<path class="st7" d="M73.708,210.485c2.115,3.31,4.827,6.273,8.091,8.694l13.335,9.889h69.116l11.772-9.798
				c3.013-2.507,5.488-5.496,7.392-8.786H73.708z"/>
		</g>
	</g>
	<g>
		<g>
			<path class="st0" d="M184.714,209.735c-0.269-0.465-0.764-0.751-1.3-0.751H73.708c-0.548,0-1.052,0.299-1.315,0.779
				s-0.244,1.066,0.051,1.528c2.268,3.55,5.115,6.609,8.461,9.092l13.334,9.89c0.258,0.191,0.572,0.295,0.894,0.295h69.116
				c0.351,0,0.69-0.123,0.96-0.347l11.771-9.798c3.09-2.573,5.691-5.664,7.73-9.188C184.98,210.771,184.981,210.199,184.714,209.735
				z M175.062,218.117l-11.355,9.451H95.629l-12.937-9.595c-2.302-1.707-4.345-3.715-6.099-5.989h104.091
				C179.086,214.28,177.202,216.336,175.062,218.117z"/>
		</g>
	</g>
	<g>
		<g>
			<path class="st3" d="M176.125,86.901H80.041c-3.291,0-5.958,2.668-5.958,5.958c0,3.291,2.667,5.958,5.958,5.958h96.084
				c3.291,0,5.958-2.668,5.958-5.958C182.083,89.569,179.415,86.901,176.125,86.901z"/>
		</g>
	</g>
	<g>
		<g>
			<path class="st0" d="M176.125,85.401H80.041c-4.112,0-7.458,3.346-7.458,7.458c0,4.113,3.346,7.459,7.458,7.459h96.084
				c4.112,0,7.458-3.346,7.458-7.459C183.583,88.747,180.237,85.401,176.125,85.401z M176.125,97.318H80.041
				c-2.458,0-4.458-2-4.458-4.459c0-2.458,2-4.458,4.458-4.458h96.084c2.458,0,4.458,2,4.458,4.458
				C180.583,95.318,178.583,97.318,176.125,97.318z"/>
		</g>
	</g>
	<g>
		<g>
			<polygon class="st9" points="177.613,33.271 160.653,62.651 172.683,62.651 189.643,33.271 			"/>
		</g>
	</g>
	<g>
		<g>
			<polygon class="st11" points="158.923,65.651 147.513,85.401 159.543,85.401 170.943,65.651 			"/>
		</g>
	</g>
	<g>
		<g>
			<path class="st9" d="M193.303,17.962h-12.03c3.39,0,6.16,2.76,6.16,6.15c0,3.4-2.77,6.16-6.16,6.16h12.03
				c3.39,0,6.16-2.76,6.16-6.16C199.463,20.722,196.693,17.962,193.303,17.962z"/>
		</g>
	</g>
	<g>
		<g>
			<path class="st8" d="M185.893,188.731l-15.24-88.41h-12.02l15.23,88.41c1.21,7.03-0.06,14.16-3.36,20.25h12.02
				C185.833,202.892,187.103,195.761,185.893,188.731z"/>
		</g>
	</g>
	<g>
		<g>
			<path class="st10" d="M168.653,211.981c-1.59,2.3-3.48,4.35-5.62,6.14l-11.35,9.45h12.02l11.36-9.45
				c2.14-1.79,4.02-3.84,5.62-6.14H168.653z"/>
		</g>
	</g>
	<g>
		<g>
			<path class="st8" d="M176.123,88.401h-12.03c2.46,0,4.46,2,4.46,4.46c0,2.46-2,4.46-4.46,4.46h12.03c2.46,0,4.46-2,4.46-4.46
				C180.583,90.401,178.583,88.401,176.123,88.401z"/>
		</g>
	</g>
</g>
</svg>
