<svg fill="#000000" xmlns="http://www.w3.org/2000/svg"  viewBox="0 0 48 48" width="24px" height="24px"><path d="M 24 4 C 15.181311 4 8 11.181311 8 20 L 8 26 L 6.5 26 A 1.50015 1.50015 0 1 0 6.5 29 L 8 29 L 8 34.5 C 8 39.728774 12.271226 44 17.5 44 L 30.5 44 C 35.728774 44 40 39.728774 40 34.5 L 40 29 L 41.5 29 A 1.50015 1.50015 0 1 0 41.5 26 L 40 26 L 40 20 C 40 11.181311 32.818689 4 24 4 z M 24 7 C 31.197311 7 37 12.802689 37 20 L 37 26 L 34.855469 26 C 35.165945 24.894918 35.175784 23.726421 34.503906 22.634766 C 33.803096 21.495183 32.665459 21.06891 31.470703 20.847656 A 1.50015 1.50015 0 0 0 31.476562 20.787109 C 31.543582 19.724509 31.476297 18.657542 31.177734 17.65625 C 30.879299 16.655382 30.315457 15.659111 29.310547 15.056641 L 29.308594 15.056641 C 28.415878 14.521651 27.460053 14.395529 26.515625 14.515625 C 25.570611 14.635795 24.635782 15.00154 23.785156 15.449219 C 22.300356 16.230659 21.021538 17.391106 20.095703 18.720703 C 20.017103 18.676893 19.954458 18.60822 19.875 18.566406 C 18.263168 17.718206 16.321086 17.168112 14.599609 18.201172 C 12.945368 19.192535 12.538023 21.065152 12.501953 22.777344 C 12.478923 23.870572 12.636228 24.971293 12.921875 26 L 11 26 L 11 20 C 11 12.802689 16.802689 7 24 7 z M 27.396484 17.53125 C 27.558936 17.545649 27.685471 17.580821 27.765625 17.628906 A 1.50015 1.50015 0 0 0 27.767578 17.628906 C 27.928867 17.725516 28.143297 17.977011 28.302734 18.511719 C 28.462172 19.046427 28.532401 19.805256 28.482422 20.597656 A 1.50015 1.50015 0 0 0 28.480469 20.783203 C 27.210799 20.957018 25.966449 21.283579 24.933594 21.949219 C 24.550219 22.196295 24.327786 22.529733 24.015625 22.818359 C 23.918855 22.609285 23.917505 22.400967 23.798828 22.193359 C 23.45007 21.583295 22.952934 21.048927 22.443359 20.53125 C 23.01234 19.68181 24.06937 18.689924 25.183594 18.103516 C 25.790093 17.784319 26.354452 17.61761 26.808594 17.554688 C 27.035665 17.523228 27.234033 17.516851 27.396484 17.53125 z M 16.457031 20.695312 C 16.886295 20.660931 17.634186 20.777416 18.476562 21.220703 C 19.599732 21.811753 20.727723 22.867127 21.193359 23.681641 C 21.712654 24.590101 21.850718 25.354038 21.789062 26 L 16.085938 26 C 15.735618 25.130231 15.479673 23.897485 15.501953 22.839844 C 15.527123 21.64503 15.927067 20.901298 16.140625 20.773438 A 1.50015 1.50015 0 0 0 16.142578 20.773438 C 16.206709 20.734952 16.313943 20.706773 16.457031 20.695312 z M 29.867188 23.603516 C 31.051921 23.597116 31.825846 24.006416 31.949219 24.207031 C 32.043677 24.360507 32.027097 25.090604 31.626953 26 L 25.142578 26 C 25.379836 25.485754 25.801863 24.96161 26.560547 24.472656 C 27.287031 24.004462 28.682453 23.609903 29.867188 23.603516 z M 11 29 L 37 29 L 37 34.5 C 37 38.107226 34.107226 41 30.5 41 L 17.5 41 C 13.892774 41 11 38.107226 11 34.5 L 11 29 z"/></svg>