<svg fill="#000000" xmlns="http://www.w3.org/2000/svg"  viewBox="0 0 48 48" width="24px" height="24px"><path d="M 8.5 9 C 5.467 9 3 11.468 3 14.5 L 3 21.240234 C 3.812 19.982234 4.813 18.897359 6 18.193359 L 6 14.5 C 6 13.121 7.122 12 8.5 12 L 39.5 12 C 40.878 12 42 13.121 42 14.5 L 42 18.146484 C 43.196 18.818484 44.194 19.863938 45 21.085938 L 45 14.5 C 45 11.468 42.533 9 39.5 9 L 8.5 9 z M 8.9863281 19.341797 C 7.789424 19.34353 6.7818206 19.938328 6.0097656 20.671875 C 5.2377107 21.405422 4.6305189 22.317307 4.125 23.291016 C 3.1416055 25.185187 2.5360882 27.263011 2.5058594 29 L 2 29 A 1.50015 1.50015 0 0 0 1.6289062 31.957031 L 1.5761719 31.974609 L 3.1210938 36.605469 C 3.595508 38.030456 4.9404527 39 6.4414062 39 L 11.558594 39 C 13.059547 39 14.40484 38.02941 14.878906 36.605469 L 16.416016 32 L 16.583984 32 L 18.121094 36.605469 C 18.595508 38.030456 19.940453 39 21.441406 39 L 26.558594 39 C 28.059547 39 29.40484 38.02941 29.878906 36.605469 L 31.416016 32 L 31.583984 32 L 33.121094 36.605469 C 33.595508 38.030456 34.940453 39 36.441406 39 L 41.558594 39 C 43.059547 39 44.40484 38.02941 44.878906 36.605469 L 46.423828 31.974609 L 46.371094 31.957031 A 1.50015 1.50015 0 0 0 46 29 L 45.490234 29 C 45.463698 27.315915 44.952723 25.218737 43.996094 23.300781 C 43.50611 22.318407 42.898015 21.392644 42.091797 20.650391 C 41.285579 19.908138 40.212103 19.339817 38.986328 19.341797 C 37.789424 19.343497 36.781821 19.938328 36.009766 20.671875 C 35.237711 21.405422 34.630519 22.317307 34.125 23.291016 C 33.141561 25.185272 32.536037 27.262954 32.505859 29 L 30.490234 29 C 30.463883 27.315726 29.95253 25.220026 28.996094 23.302734 C 28.506028 22.320339 27.898087 21.394568 27.091797 20.652344 C 26.285507 19.910119 25.212103 19.339817 23.986328 19.341797 C 22.789424 19.343497 21.781821 19.940281 21.009766 20.673828 C 20.237711 21.407375 19.630519 22.317307 19.125 23.291016 C 18.141561 25.185272 17.536037 27.262954 17.505859 29 L 15.490234 29 C 15.463883 27.315636 14.95253 25.218073 13.996094 23.300781 C 13.506028 22.318386 12.898087 21.392615 12.091797 20.650391 C 11.285507 19.908166 10.212103 19.339817 8.9863281 19.341797 z M 8.9902344 22.341797 C 9.3119593 22.341277 9.6373992 22.467896 10.060547 22.857422 C 10.483694 23.246947 10.934862 23.88752 11.310547 24.640625 C 12.034563 26.092003 12.456789 27.970263 12.488281 29 L 5.515625 29 C 5.5531325 28.019249 6.0262867 26.137339 6.7871094 24.671875 C 7.1838404 23.907709 7.6534143 23.249328 8.0761719 22.847656 C 8.4989294 22.445985 8.8061385 22.342063 8.9902344 22.341797 z M 23.990234 22.341797 C 24.311959 22.341277 24.637399 22.469849 25.060547 22.859375 C 25.483694 23.248901 25.934862 23.88752 26.310547 24.640625 C 27.034164 26.091203 27.456365 27.969739 27.488281 29 L 20.513672 29 C 20.551044 28.019582 21.026165 26.139528 21.787109 24.673828 C 22.18384 23.909662 22.653414 23.251281 23.076172 22.849609 C 23.498929 22.447938 23.806139 22.342063 23.990234 22.341797 z M 38.990234 22.341797 C 39.311959 22.341277 39.637484 22.467925 40.060547 22.857422 C 40.48361 23.246919 40.934906 23.887499 41.310547 24.640625 C 42.03408 26.091243 42.456053 27.969273 42.488281 29 L 35.513672 29 C 35.551043 28.019438 36.026165 26.137574 36.787109 24.671875 C 37.18384 23.907709 37.653414 23.249328 38.076172 22.847656 C 38.498929 22.445985 38.806139 22.342063 38.990234 22.341797 z M 4.7480469 32 L 13.251953 32 L 12.033203 35.658203 C 11.963269 35.868262 11.77964 36 11.558594 36 L 6.4414062 36 C 6.2203598 36 6.0363826 35.867216 5.9667969 35.658203 L 4.7480469 32 z M 19.748047 32 L 28.251953 32 L 27.033203 35.658203 C 26.963269 35.868262 26.77964 36 26.558594 36 L 21.441406 36 C 21.22036 36 21.036383 35.867216 20.966797 35.658203 L 19.748047 32 z M 34.748047 32 L 43.251953 32 L 42.033203 35.658203 C 41.963269 35.868262 41.77964 36 41.558594 36 L 36.441406 36 C 36.22036 36 36.036383 35.867216 35.966797 35.658203 L 34.748047 32 z"/></svg>