<svg fill="#000000" xmlns="http://www.w3.org/2000/svg"  viewBox="0 0 48 48" width="24px" height="24px"><path d="M 24 3 C 20.542455 3 17.124593 5.2805092 14.490234 8.7636719 C 12.105517 11.916758 10.434788 16.182303 10.125 21 L 8.5 21 A 1.50015 1.50015 0 1 0 8.5 24 L 9 24 L 9 24.5 C 9 31.937774 15.062226 38 22.5 38 L 22.5 42 L 17.5 42 A 1.50015 1.50015 0 1 0 17.5 45 L 23.753906 45 A 1.50015 1.50015 0 0 0 24.240234 45 L 30.5 45 A 1.50015 1.50015 0 1 0 30.5 42 L 25.5 42 L 25.5 38 C 32.937774 38 39 31.937774 39 24.5 L 39 24 L 39.5 24 A 1.50015 1.50015 0 1 0 39.5 21 L 37.875 21 C 37.565212 16.182303 35.894483 11.916758 33.509766 8.7636719 C 30.875407 5.2805092 27.457545 3 24 3 z M 24 6 C 26.042455 6 28.874593 7.6116312 31.115234 10.574219 C 33.112814 13.215428 34.566183 16.867917 34.873047 21 L 13.126953 21 C 13.433817 16.867917 14.887186 13.215428 16.884766 10.574219 C 19.125407 7.6116312 21.957545 6 24 6 z M 12 24 L 36 24 L 36 24.5 C 36 30.316226 31.316226 35 25.5 35 L 22.5 35 C 16.683774 35 12 30.316226 12 24.5 L 12 24 z"/></svg>