<svg fill="#000000" xmlns="http://www.w3.org/2000/svg"  viewBox="0 0 48 48" width="24px" height="24px"><path d="M 17.25 3 C 15.121162 3 13.225108 4.066834 11.644531 5.5644531 C 10.063954 7.0620723 8.7290463 9.0305589 7.6113281 11.175781 C 5.3758918 15.466226 4 20.410313 4 24 C 4 28.638218 6.4886293 32.723731 10.212891 35.017578 A 1.5003823 1.5003823 0 0 0 10.445312 35.132812 C 11.918231 40.800069 16.984896 45.014411 23.019531 45.005859 C 26.547524 45.000859 31.506948 43.832329 35.814453 41.683594 C 37.968206 40.609226 39.950837 39.286499 41.457031 37.650391 C 42.963226 36.014282 44.003433 33.995053 44 31.724609 C 43.996719 29.595853 42.927591 27.701364 41.427734 26.123047 C 39.927878 24.54473 37.957293 23.212161 35.810547 22.097656 C 33.957057 21.135399 31.984057 20.346207 30.048828 19.746094 A 1.50015 1.50015 0 0 0 30.042969 19.716797 C 29.368988 16.206633 27.994534 12.201986 25.929688 8.9414062 C 23.86484 5.6808264 20.968638 3 17.25 3 z M 17.25 6 C 19.488362 6 21.609377 7.7279549 23.394531 10.546875 C 24.930008 12.971533 26.108394 16.080864 26.796875 18.921875 C 25.432396 18.657836 24.132096 18.504228 22.980469 18.505859 C 16.030024 18.515708 10.3798 24.120449 10.033203 31.083984 C 8.1623088 29.272389 7 26.776899 7 24 C 7 21.238687 8.2541711 16.432352 10.271484 12.560547 C 11.280141 10.624644 12.478093 8.9084746 13.708984 7.7421875 C 14.939876 6.5759004 16.134338 6 17.25 6 z M 22.984375 21.505859 C 25.746362 21.501959 30.553226 22.750228 34.427734 24.761719 C 36.364989 25.767464 38.083934 26.960333 39.251953 28.189453 C 40.419972 29.418574 40.998281 30.612772 41 31.728516 C 41.0021 33.095072 40.403493 34.366156 39.25 35.619141 C 38.096507 36.872126 36.399107 38.03804 34.474609 38.998047 C 30.625615 40.918061 25.838632 42.001859 23.015625 42.005859 C 17.492893 42.013686 13.007899 37.46688 13 31.771484 C 12.9921 26.075718 17.460728 21.513686 22.984375 21.505859 z"/></svg>