<?xml version="1.0" encoding="utf-8"?>
<!-- Generator: Adobe Illustrator 22.0.1, SVG Export Plug-In . SVG Version: 6.00 Build 0)  -->
<svg version="1.1" id="Layer_2" xmlns="http://www.w3.org/2000/svg" xmlns:xlink="http://www.w3.org/1999/xlink" x="0px" y="0px"
	 viewBox="0 0 256 256" style="enable-background:new 0 0 256 256;" xml:space="preserve">
<style type="text/css">
	.st0{fill:#3A312A;}
	.st1{fill:#D7E057;}
	.st2{fill:#FCE8CB;}
	.st3{fill:#8AC6DD;}
	.st4{fill-rule:evenodd;clip-rule:evenodd;fill:#FCE8CB;}
	.st5{fill:#F5978A;}
	.st6{fill:#87796F;}
	.st7{fill:#F16C7A;}
	.st8{fill:#68A8BC;}
	.st9{fill:#B9BC39;}
	.st10{fill:#CE4E61;}
	.st11{fill:#6B5B51;}
	.st12{fill:#CCAE8B;}
	.st13{fill-rule:evenodd;clip-rule:evenodd;fill:#F16C7A;}
</style>
<g>
	<g>
		<g>
			<path class="st6" d="M202.23,49.971h-33.69c3.33,4.96,6.48,10.32,9.42,16h24.27c11.64,0,21.11,9.47,21.11,21.1v70.6
				c0,9.86-6.71,18.31-16.31,20.55l-4.49,1.05c-0.66,6.56-1.84,12.27-3.48,17.24l11.61-2.71c16.88-3.94,28.67-18.8,28.67-36.13
				v-70.6C239.34,66.621,222.69,49.971,202.23,49.971z"/>
		</g>
	</g>
	<g>
		<g>
			<path class="st0" d="M202.23,48.471h-33.69c-0.554,0-1.063,0.306-1.323,0.794c-0.261,0.489-0.23,1.082,0.078,1.542
				c3.268,4.867,6.407,10.201,9.333,15.854c0.258,0.498,0.771,0.811,1.332,0.811h24.271c10.813,0,19.609,8.792,19.609,19.6v70.6
				c0,9.158-6.23,17.008-15.151,19.089l-4.49,1.05c-0.624,0.146-1.087,0.672-1.15,1.31c-0.633,6.282-1.78,11.975-3.412,16.92
				c-0.17,0.515-0.048,1.082,0.317,1.482c0.288,0.314,0.691,0.488,1.107,0.488c0.113,0,0.228-0.013,0.341-0.039l11.609-2.71
				c17.563-4.1,29.829-19.558,29.829-37.591v-70.6C240.84,65.787,223.52,48.471,202.23,48.471z M237.84,157.671
				c0,16.632-11.313,30.888-27.511,34.669l-9.069,2.117c1.208-4.232,2.1-8.916,2.66-13.968l3.451-0.807
				c10.285-2.4,17.469-11.451,17.469-22.011v-70.6c0-12.462-10.143-22.6-22.609-22.6h-23.36c-2.394-4.568-4.924-8.927-7.549-13
				h30.909c19.635,0,35.609,15.97,35.609,35.6V157.671z"/>
		</g>
	</g>
	<g>
		<g>
			<path class="st1" d="M16.66,53.641l7.297,25.748l4.165,14.696l12.349,43.576c4.46-29.55,15.24-60.7,29.94-84.02H16.66z"/>
		</g>
	</g>
	<g>
		<g>
			<path class="st0" d="M71.724,52.916c-0.264-0.479-0.768-0.775-1.313-0.775H16.66c-0.47,0-0.913,0.22-1.196,0.595
				c-0.284,0.375-0.375,0.861-0.247,1.314l7.297,25.748c0.226,0.797,1.057,1.258,1.853,1.034c0.797-0.226,1.26-1.055,1.034-1.853
				l-6.756-23.839h49.074c-12.793,21.08-22.678,48.192-27.633,75.663L29.564,93.675c-0.227-0.797-1.058-1.26-1.853-1.034
				c-0.797,0.226-1.26,1.055-1.034,1.853l12.349,43.576c0.184,0.648,0.776,1.091,1.442,1.091c0.032,0,0.063-0.001,0.096-0.003
				c0.705-0.044,1.283-0.575,1.389-1.273c4.576-30.32,15.411-60.734,29.726-83.444C71.971,53.979,71.987,53.395,71.724,52.916z"/>
		</g>
	</g>
	<g>
		<g>
			<path class="st7" d="M120.014,16.537c-0.005,0.005-0.008,0.009-0.014,0.014v6.379c0,4.027-3.265,7.292-7.292,7.292h-23.13
				C59.442,57.219,38.19,118.84,38.19,166.271c0,29.52,8.23,45.31,21.72,53.77h121.51c13.49-8.46,21.72-24.25,21.72-53.77
				C203.14,103.445,165.86,15.706,120.014,16.537z"/>
		</g>
	</g>
	<g>
		<g>
			<path class="st0" d="M155.524,31.696c-11.479-11.273-23.42-16.863-35.538-16.659c-0.388,0.007-0.772,0.178-1.047,0.453
				c-0.281,0.281-0.439,0.663-0.439,1.061v6.379c0,3.193-2.599,5.792-5.792,5.792H89.579c-0.369,0-0.726,0.136-1.001,0.383
				C59.482,55.168,36.69,115.419,36.69,166.271c0,27.958,7.125,45.447,22.423,55.041c0.238,0.149,0.515,0.229,0.797,0.229h121.51
				c0.282,0,0.559-0.08,0.797-0.229c15.298-9.594,22.423-27.083,22.423-55.041C204.64,117.855,183.065,58.743,155.524,31.696z
				 M180.984,218.541H60.346c-14.09-9.045-20.655-25.67-20.655-52.27c0-49.853,22.132-108.783,50.466-134.55h22.552
				c4.848,0,8.792-3.944,8.792-8.792v-4.888c10.777,0.26,21.508,5.568,31.922,15.795c27.038,26.553,48.218,84.725,48.218,132.435
				C201.64,192.871,195.074,209.496,180.984,218.541z"/>
		</g>
	</g>
	<g>
		<g>
			<path class="st3" d="M42.276,196.471c3.7,11.19,9.767,18.636,17.634,23.57h121.51c7.868-4.934,13.935-12.38,17.635-23.57H42.276z
				"/>
		</g>
	</g>
	<g>
		<g>
			<path class="st0" d="M200.271,195.592c-0.282-0.391-0.734-0.622-1.216-0.622h-43.857c-0.828,0-1.5,0.671-1.5,1.5
				s0.672,1.5,1.5,1.5h41.742c-3.387,9.117-8.622,15.862-15.955,20.57H60.346c-7.333-4.708-12.568-11.454-15.955-20.57h95.746
				c0.828,0,1.5-0.671,1.5-1.5s-0.672-1.5-1.5-1.5H42.275c-0.481,0-0.934,0.231-1.216,0.622c-0.282,0.39-0.359,0.892-0.208,1.349
				c3.626,10.967,9.6,18.938,18.262,24.371c0.239,0.149,0.515,0.229,0.797,0.229h121.51c0.282,0,0.558-0.08,0.797-0.229
				c8.662-5.432,14.636-13.404,18.262-24.371C200.63,196.484,200.553,195.982,200.271,195.592z"/>
		</g>
	</g>
	<g>
		<g>
			<path class="st1" d="M120.008,16.537c-0.003,0.003-0.005,0.005-0.008,0.008v6.384c0,4.027-3.265,7.292-7.292,7.292H89.577
				c-4.777,4.28-9.331,9.425-13.612,15.25h89.4C152.314,27.713,136.732,16.229,120.008,16.537z"/>
		</g>
	</g>
	<g>
		<g>
			<path class="st0" d="M166.573,44.583c-14.422-19.623-30.491-29.858-46.592-29.545c-0.354,0.006-0.694,0.138-0.96,0.371
				c-0.025,0.022-0.059,0.053-0.082,0.077c-0.281,0.281-0.439,0.663-0.439,1.061v6.384c0,3.193-2.599,5.792-5.792,5.792H89.577
				c-0.369,0-0.726,0.136-1.001,0.383c-4.75,4.257-9.399,9.464-13.82,15.479c-0.335,0.456-0.385,1.061-0.129,1.565
				c0.255,0.505,0.772,0.823,1.338,0.823h89.399c0.565,0,1.083-0.318,1.338-0.823C166.958,45.644,166.908,45.038,166.573,44.583z
				 M78.975,43.971c3.616-4.671,7.367-8.782,11.18-12.25h22.554c4.848,0,8.792-3.944,8.792-8.792v-4.888
				c13.916,0.348,27.97,9.269,40.855,25.93H78.975z"/>
		</g>
	</g>
	<g>
		<g>
			<path class="st6" d="M188.395,220.044H52.934c-10.728,0-19.426,8.697-19.426,19.426h174.312
				C207.821,228.741,199.124,220.044,188.395,220.044z"/>
		</g>
	</g>
	<g>
		<g>
			<path class="st0" d="M188.396,218.544H52.935c-11.538,0-20.926,9.387-20.926,20.925c0,0.829,0.672,1.5,1.5,1.5h174.313
				c0.828,0,1.5-0.671,1.5-1.5C209.321,227.931,199.934,218.544,188.396,218.544z M35.071,237.969
				c0.764-9.185,8.484-16.425,17.863-16.425h135.461c9.379,0,17.1,7.24,17.863,16.425H35.071z"/>
		</g>
	</g>
	<g>
		<g>
			<path class="st1" d="M120.833,201.757c-3.589,0-6.499,2.91-6.499,6.499c0,3.589,2.91,6.499,6.499,6.499s6.499-2.91,6.499-6.499
				C127.332,204.667,124.422,201.757,120.833,201.757z"/>
		</g>
	</g>
	<g>
		<g>
			<path class="st0" d="M120.832,200.257c-4.411,0-7.999,3.588-7.999,7.999s3.588,7.999,7.999,7.999s7.999-3.588,7.999-7.999
				S125.243,200.257,120.832,200.257z M120.832,213.255c-2.757,0-4.999-2.243-4.999-4.999s2.242-4.999,4.999-4.999
				s4.999,2.243,4.999,4.999S123.589,213.255,120.832,213.255z"/>
		</g>
	</g>
	<g>
		<g>
			<path class="st10" d="M164.54,46.971h-15.95c21.5,29.76,37.09,78.37,37.09,119.3c0,11.31-1.19,20.81-3.64,28.7H198
				c2.45-7.89,3.64-17.39,3.64-28.7C201.64,125.341,186.05,76.731,164.54,46.971z"/>
		</g>
	</g>
	<g>
		<g>
			<path class="st8" d="M180.98,197.971c-3.38,9.12-8.62,15.86-15.95,20.57h15.95c7.34-4.71,12.57-11.45,15.96-20.57H180.98z"/>
		</g>
	</g>
	<g>
		<g>
			<path class="st9" d="M121.5,18.041v4.12c8.54,4.19,16.94,11.52,24.9,21.81h15.96C149.47,27.311,135.42,18.391,121.5,18.041z"/>
		</g>
	</g>
	<g>
		<g>
			<path class="st11" d="M188.4,221.541h-15.96c9.38,0,17.1,7.24,17.86,16.43h15.96C205.49,228.781,197.77,221.541,188.4,221.541z"
				/>
		</g>
	</g>
</g>
</svg>
