<?xml version="1.0" encoding="utf-8"?>
<!-- Generator: Adobe Illustrator 22.0.1, SVG Export Plug-In . SVG Version: 6.00 Build 0)  -->
<svg version="1.1" id="Layer_2" xmlns="http://www.w3.org/2000/svg" xmlns:xlink="http://www.w3.org/1999/xlink" x="0px" y="0px"
	 viewBox="0 0 256 256" style="enable-background:new 0 0 256 256;" xml:space="preserve">
<style type="text/css">
	.st0{fill:#3A312A;}
	.st1{fill:#D7E057;}
	.st2{fill:#FCE8CB;}
	.st3{fill:#8AC6DD;}
	.st4{fill-rule:evenodd;clip-rule:evenodd;fill:#FCE8CB;}
	.st5{fill:#F5978A;}
	.st6{fill:#87796F;}
	.st7{fill:#F16C7A;}
	.st8{fill:#68A8BC;}
	.st9{fill:#B9BC39;}
	.st10{fill:#CE4E61;}
	.st11{fill:#6B5B51;}
	.st12{fill:#CCAE8B;}
	.st13{fill-rule:evenodd;clip-rule:evenodd;fill:#F16C7A;}
</style>
<g>
	<g>
		<g>
			<path class="st7" d="M192.233,108.88c-0.6,0-1.19,0.01-1.78,0.04c-0.24,4.78-0.58,9.48-1.01,14.09c0.92-0.09,1.85-0.13,2.79-0.13
				c16.26,0,29.49,13.23,29.49,29.49s-13.23,29.49-29.49,29.49c-5.14,0-9.97-1.32-14.18-3.65c-1.64,4.58-3.44,8.92-5.42,12.97
				c5.89,2.99,12.55,4.68,19.6,4.68c23.98,0,43.49-19.51,43.49-43.49S216.213,108.88,192.233,108.88z"/>
		</g>
	</g>
	<g>
		<g>
			<path class="st0" d="M192.233,107.38c-0.626,0-1.241,0.011-1.856,0.042c-0.769,0.039-1.384,0.654-1.422,1.423
				c-0.235,4.672-0.573,9.391-1.006,14.026c-0.042,0.445,0.118,0.886,0.435,1.202c0.317,0.316,0.761,0.474,1.205,0.43
				c0.834-0.081,1.724-0.123,2.644-0.123c15.434,0,27.99,12.556,27.99,27.99c0,15.434-12.556,27.99-27.99,27.99
				c-4.709,0-9.361-1.197-13.454-3.462c-0.384-0.213-0.844-0.246-1.255-0.091c-0.412,0.155-0.735,0.483-0.883,0.898
				c-1.653,4.616-3.455,8.929-5.355,12.816c-0.36,0.736-0.062,1.625,0.668,1.996c6.33,3.213,13.153,4.843,20.279,4.843
				c24.808,0,44.99-20.182,44.99-44.99S217.04,107.38,192.233,107.38z M192.233,194.36c-6.158,0-12.072-1.303-17.602-3.876
				c1.49-3.158,2.914-6.563,4.248-10.16c4.144,1.991,8.725,3.036,13.354,3.036c17.088,0,30.99-13.902,30.99-30.99
				s-13.902-30.99-30.99-30.99c-0.384,0-0.764,0.006-1.138,0.02c0.321-3.652,0.584-7.346,0.784-11.018
				c0.118-0.001,0.236-0.001,0.355-0.001c23.153,0,41.99,18.837,41.99,41.99S215.386,194.36,192.233,194.36z"/>
		</g>
	</g>
	<g>
		<g>
			<path class="st7" d="M182.143,90.81H98.066H83.034H64.463c-4.85,0-8.77,3.98-8.66,8.82c1.25,55.61,13.34,102.18,40.09,120.44
				h53.81c26.21-18.26,39.69-64.82,41.1-120.42C190.923,94.8,186.993,90.81,182.143,90.81z"/>
		</g>
	</g>
	<g>
		<g>
			<path class="st0" d="M189.428,92.382c-1.933-1.981-4.519-3.072-7.285-3.072H98.066c-0.829,0-1.5,0.671-1.5,1.5s0.671,1.5,1.5,1.5
				h84.077c1.95,0,3.775,0.77,5.138,2.167c1.352,1.386,2.07,3.209,2.022,5.135c-1.485,58.589-16.083,101.897-40.075,118.958H96.36
				c-23.84-16.616-37.706-58.833-39.058-118.975c-0.043-1.923,0.676-3.744,2.027-5.125c1.362-1.393,3.185-2.16,5.134-2.16h18.571
				c0.829,0,1.5-0.671,1.5-1.5s-0.671-1.5-1.5-1.5H64.463c-2.763,0-5.348,1.088-7.279,3.063c-1.919,1.964-2.942,4.553-2.88,7.291
				c1.381,61.452,15.851,104.653,40.744,121.646c0.249,0.17,0.544,0.261,0.846,0.261h53.81c0.307,0,0.606-0.094,0.857-0.269
				c25.01-17.424,40.224-61.75,41.742-121.614C192.37,96.946,191.35,94.352,189.428,92.382z"/>
		</g>
	</g>
	<g>
		<g>
			<path class="st1" d="M51.188,26.178c-0.974,11.564-13.025,13.39-13.025,13.39c10.347,0.487,12.925,14.059,12.925,14.059
				C51.31,43.95,64.41,39.425,64.41,39.425C54.596,38.838,51.188,26.178,51.188,26.178z"/>
		</g>
	</g>
	<g>
		<g>
			<path class="st0" d="M64.5,37.927c-8.604-0.514-11.831-12.024-11.863-12.14c-0.191-0.703-0.863-1.162-1.583-1.102
				c-0.725,0.066-1.298,0.642-1.359,1.367c-0.86,10.215-11.314,11.963-11.755,12.032c-0.763,0.115-1.313,0.79-1.274,1.561
				c0.04,0.77,0.657,1.384,1.427,1.421c9.028,0.425,11.499,12.718,11.523,12.842c0.137,0.711,0.759,1.217,1.472,1.217
				c0.042,0,0.084-0.001,0.126-0.005c0.764-0.064,1.357-0.693,1.375-1.459c0.195-8.508,12.192-12.777,12.313-12.819
				c0.675-0.235,1.092-0.915,0.994-1.623C65.797,38.511,65.213,37.97,64.5,37.927z M50.934,48.273
				c-1.357-3.13-3.709-6.907-7.587-8.876c2.931-1.405,6.409-3.913,8.202-8.273c1.551,3.071,4.199,6.88,8.334,8.722
				C56.875,41.486,52.96,44.252,50.934,48.273z"/>
		</g>
	</g>
	<g>
		<g>
			<path class="st1" d="M29.49,43.159c-0.689,8.179-9.212,9.471-9.212,9.471c7.318,0.344,9.142,9.944,9.142,9.944
				c0.156-6.844,9.422-10.045,9.422-10.045C31.9,52.113,29.49,43.159,29.49,43.159z"/>
		</g>
	</g>
	<g>
		<g>
			<path class="st0" d="M38.931,51.031c-5.766-0.345-7.972-8.185-7.993-8.264c-0.19-0.702-0.856-1.169-1.582-1.102
				c-0.726,0.065-1.299,0.642-1.36,1.368c-0.579,6.871-7.646,8.066-7.942,8.113c-0.763,0.115-1.313,0.79-1.273,1.561
				c0.04,0.77,0.657,1.384,1.427,1.421c6.035,0.284,7.724,8.644,7.739,8.726c0.135,0.712,0.759,1.22,1.473,1.22
				c0.041,0,0.083-0.001,0.125-0.005c0.765-0.063,1.358-0.694,1.376-1.461c0.13-5.709,8.332-8.634,8.412-8.662
				c0.677-0.234,1.094-0.913,0.996-1.622C40.23,51.615,39.646,51.074,38.931,51.031z M29.347,57.826
				c-0.924-1.886-2.34-3.947-4.447-5.28c1.855-1.041,3.697-2.63,4.871-4.916c1.057,1.874,2.654,3.954,4.941,5.223
				C32.861,53.954,30.723,55.594,29.347,57.826z"/>
		</g>
	</g>
	<g>
		<g>
			<path class="st1" d="M29.49,16.501c-0.689,8.179-9.212,9.471-9.212,9.471c7.318,0.344,9.142,9.944,9.142,9.944
				c0.156-6.844,9.422-10.045,9.422-10.045C31.9,25.456,29.49,16.501,29.49,16.501z"/>
		</g>
	</g>
	<g>
		<g>
			<path class="st0" d="M38.931,24.374c-5.766-0.345-7.972-8.186-7.994-8.265c-0.19-0.702-0.856-1.17-1.582-1.102
				c-0.726,0.065-1.299,0.642-1.36,1.368c-0.579,6.871-7.646,8.067-7.942,8.114c-0.763,0.115-1.313,0.79-1.273,1.561
				c0.04,0.77,0.657,1.384,1.428,1.421c6.035,0.284,7.723,8.644,7.739,8.726c0.135,0.713,0.759,1.22,1.472,1.22
				c0.041,0,0.083-0.001,0.125-0.005c0.765-0.063,1.358-0.694,1.376-1.461c0.13-5.709,8.331-8.634,8.412-8.662
				c0.676-0.234,1.094-0.913,0.996-1.622C40.23,24.958,39.646,24.417,38.931,24.374z M29.347,31.168
				c-0.924-1.885-2.34-3.947-4.447-5.28c1.855-1.041,3.697-2.63,4.871-4.916c1.057,1.874,2.654,3.954,4.941,5.224
				C32.861,27.297,30.723,28.936,29.347,31.168z"/>
		</g>
	</g>
	<g>
		<g>
			<path class="st6" d="M36.043,220.073c0,10.728,8.697,19.426,19.425,19.426H190.93c10.728,0,19.426-8.697,19.426-19.426H36.043z"
				/>
		</g>
	</g>
	<g>
		<g>
			<path class="st0" d="M210.355,218.573H36.042c-0.829,0-1.5,0.671-1.5,1.5c0,11.539,9.387,20.926,20.926,20.926h89.349
				c0.829,0,1.5-0.671,1.5-1.5s-0.671-1.5-1.5-1.5H55.468c-9.379,0-17.099-7.24-17.864-16.426h171.189
				c-0.765,9.186-8.484,16.426-17.863,16.426h-31.851c-0.829,0-1.5,0.671-1.5,1.5s0.671,1.5,1.5,1.5h31.851
				c11.538,0,20.925-9.387,20.925-20.926C211.855,219.244,211.184,218.573,210.355,218.573z"/>
		</g>
	</g>
	<g>
		<g>
			<path class="st0" d="M94.736,75.814c-2.365-2.365-3.66-5.509-3.647-8.853c0.012-3.345,1.331-6.479,3.713-8.826
				c2.941-2.897,4.577-6.767,4.607-10.895c0.03-4.128-1.549-8.021-4.447-10.961l-0.435-0.441
				c-4.786-4.856-4.757-12.729,0.068-17.553l0.07-0.071c0.583-0.587,0.545-1.5-0.041-2.084c-0.586-0.585-1.57-0.549-2.154,0.037
				c-5.982,5.982-6.018,15.75-0.08,21.776l0.435,0.441c2.335,2.37,3.608,5.507,3.583,8.834s-1.343,6.445-3.713,8.78
				c-2.956,2.912-4.592,6.802-4.607,10.952c-0.016,4.15,1.592,8.051,4.526,10.985l0.246,0.246c0.293,0.293,0.677,0.439,1.061,0.439
				s0.768-0.146,1.06-0.439c0.586-0.585,0.586-1.536,0-2.121L94.736,75.814z"/>
		</g>
	</g>
	<g>
		<g>
			<path class="st0" d="M114.864,75.814c-2.365-2.365-3.66-5.508-3.648-8.853c0.012-3.345,1.331-6.479,3.713-8.827
				c2.941-2.897,4.577-6.767,4.607-10.895c0.03-4.128-1.549-8.021-4.447-10.961l-0.435-0.441
				c-4.786-4.856-4.757-12.729,0.064-17.549l0.071-0.071c0.586-0.585,0.586-1.536,0-2.121c-0.586-0.586-1.535-0.586-2.121,0
				l-0.071,0.071c-5.982,5.981-6.018,15.75-0.08,21.776l0.435,0.441c2.335,2.37,3.608,5.507,3.583,8.834
				c-0.024,3.327-1.343,6.445-3.713,8.78c-2.956,2.913-4.592,6.802-4.608,10.952c-0.015,4.15,1.592,8.051,4.527,10.985l0.246,0.246
				c0.293,0.293,0.677,0.439,1.06,0.439c0.384,0,0.768-0.146,1.061-0.439c0.586-0.585,0.586-1.536,0-2.121L114.864,75.814z"/>
		</g>
	</g>
	<g>
		<g>
			<path class="st0" d="M133.653,75.814c-2.365-2.365-3.66-5.509-3.647-8.853c0.012-3.345,1.331-6.479,3.713-8.826
				c2.941-2.897,4.577-6.767,4.607-10.895c0.03-4.128-1.549-8.021-4.447-10.961l-0.435-0.441
				c-4.786-4.856-4.757-12.729,0.064-17.549l0.071-0.071c0.586-0.585,0.586-1.536,0-2.121c-0.586-0.586-1.535-0.586-2.121,0
				l-0.071,0.071c-5.982,5.982-6.018,15.75-0.08,21.776l0.435,0.441c2.335,2.37,3.608,5.507,3.583,8.834s-1.343,6.445-3.713,8.78
				c-2.956,2.912-4.592,6.802-4.607,10.952c-0.016,4.15,1.592,8.051,4.526,10.985l0.246,0.246c0.293,0.293,0.677,0.439,1.061,0.439
				s0.768-0.146,1.06-0.439c0.586-0.585,0.586-1.536,0-2.121L133.653,75.814z"/>
		</g>
	</g>
	<g>
		<g>
			<path class="st0" d="M153.781,75.814c-2.365-2.365-3.66-5.509-3.647-8.853c0.012-3.345,1.331-6.479,3.713-8.826
				c2.941-2.897,4.577-6.767,4.607-10.895c0.03-4.128-1.549-8.021-4.447-10.961l-0.435-0.441
				c-4.786-4.856-4.757-12.729,0.064-17.549l0.071-0.071c0.586-0.585,0.586-1.536,0-2.121c-0.586-0.586-1.535-0.586-2.121,0
				l-0.071,0.071c-5.982,5.981-6.018,15.75-0.08,21.776l0.435,0.441c2.336,2.37,3.608,5.507,3.584,8.834s-1.343,6.445-3.713,8.78
				c-2.956,2.912-4.592,6.802-4.607,10.952c-0.016,4.15,1.592,8.051,4.526,10.985l0.246,0.246c0.293,0.293,0.677,0.439,1.06,0.439
				c0.384,0,0.768-0.146,1.061-0.439c0.586-0.585,0.586-1.536,0-2.121L153.781,75.814z"/>
		</g>
	</g>
	<g>
		<g>
			<path class="st10" d="M187.283,94.48c-1.36-1.4-3.19-2.17-5.14-2.17h-11c1.95,0,3.78,0.77,5.14,2.17
				c1.35,1.38,2.07,3.21,2.02,5.13c-0.94,37-7.13,68.37-17.91,90.71c-6.15,12.73-13.53,22.16-22.08,28.25h11
				c8.55-6.09,15.93-15.52,22.08-28.25c10.78-22.34,16.97-53.71,17.91-90.71C189.353,97.69,188.633,95.86,187.283,94.48z"/>
		</g>
	</g>
	<g>
		<g>
			<path class="st11" d="M193.093,221.57c0,0.001,0,0.002,0,0.003c-0.761,9.179-8.464,16.41-17.829,16.426
				c-0.01,0-0.02,0.001-0.03,0.001h15.7c9.38,0,17.1-7.24,17.86-16.43H193.093z"/>
		</g>
	</g>
</g>
</svg>
