<?xml version="1.0" encoding="utf-8"?>
<!-- Generator: Adobe Illustrator 22.0.1, SVG Export Plug-In . SVG Version: 6.00 Build 0)  -->
<svg version="1.1" id="Layer_2" xmlns="http://www.w3.org/2000/svg" xmlns:xlink="http://www.w3.org/1999/xlink" x="0px" y="0px"
	 viewBox="0 0 256 256" style="enable-background:new 0 0 256 256;" xml:space="preserve">
<style type="text/css">
	.st0{fill:#3A312A;}
	.st1{fill:#D7E057;}
	.st2{fill:#FCE8CB;}
	.st3{fill:#8AC6DD;}
	.st4{fill-rule:evenodd;clip-rule:evenodd;fill:#FCE8CB;}
	.st5{fill:#F5978A;}
	.st6{fill:#87796F;}
	.st7{fill:#F16C7A;}
	.st8{fill:#68A8BC;}
	.st9{fill:#B9BC39;}
	.st10{fill:#CE4E61;}
	.st11{fill:#6B5B51;}
	.st12{fill:#CCAE8B;}
	.st13{fill-rule:evenodd;clip-rule:evenodd;fill:#F16C7A;}
</style>
<g>
	<g>
		<g>
			<path class="st6" d="M202.25,52.21H41.75c-10.632,0-19.25,8.618-19.25,19.25v148.5c0,10.631,8.618,19.25,19.25,19.25h160.5
				c10.631,0,19.25-8.619,19.25-19.25V71.46C221.5,60.828,212.881,52.21,202.25,52.21z"/>
		</g>
	</g>
	<g>
		<g>
			<path class="st0" d="M202.25,50.71H41.75C30.309,50.71,21,60.019,21,71.46v72.618c0,0.828,0.671,1.5,1.5,1.5s1.5-0.672,1.5-1.5
				V71.46c0-9.787,7.962-17.75,17.75-17.75h160.5c9.788,0,17.75,7.963,17.75,17.75v148.5c0,9.787-7.962,17.75-17.75,17.75H41.75
				c-9.788,0-17.75-7.963-17.75-17.75v-61.618c0-0.828-0.671-1.5-1.5-1.5s-1.5,0.672-1.5,1.5v61.618
				c0,11.441,9.309,20.75,20.75,20.75h160.5c11.441,0,20.75-9.309,20.75-20.75V71.46C223,60.019,213.691,50.71,202.25,50.71z"/>
		</g>
	</g>
	<g>
		<g>
			<path class="st2" d="M182.14,85.54H61.86c-0.61,0-1.21-0.05-1.79-0.15v128.49h123.86V85.39
				C183.35,85.49,182.75,85.54,182.14,85.54z"/>
		</g>
	</g>
	<g>
		<g>
			<path class="st0" d="M184.896,84.242c-0.339-0.286-0.786-0.41-1.222-0.33c-0.491,0.085-1.007,0.128-1.534,0.128H61.86
				c-0.527,0-1.042-0.043-1.534-0.128c-0.437-0.08-0.884,0.044-1.222,0.33c-0.339,0.285-0.534,0.705-0.534,1.147v128.49
				c0,0.828,0.671,1.5,1.5,1.5h123.86c0.829,0,1.5-0.672,1.5-1.5V85.39C185.43,84.947,185.235,84.527,184.896,84.242z
				 M182.43,212.38H61.57V87.037c0.097,0.002,0.193,0.003,0.29,0.003h120.28c0.097,0,0.193-0.001,0.29-0.003V212.38z"/>
		</g>
	</g>
	<g>
		<g>
			<path class="st1" d="M182.138,34.57H61.862c-5.953,0-10.778,4.826-10.778,10.779v29.417c0,5.953,4.826,10.778,10.778,10.778
				h120.277c5.953,0,10.778-4.825,10.778-10.778V45.349C192.917,39.396,188.091,34.57,182.138,34.57z"/>
		</g>
	</g>
	<g>
		<g>
			<path class="st0" d="M182.139,33.07H61.861c-6.77,0-12.278,5.508-12.278,12.278v29.416c0,6.771,5.508,12.278,12.278,12.278
				h120.277c6.77,0,12.278-5.508,12.278-12.278V45.349C194.417,38.578,188.909,33.07,182.139,33.07z M191.417,74.765
				c0,5.116-4.162,9.278-9.278,9.278H61.861c-5.116,0-9.278-4.162-9.278-9.278V45.349c0-5.116,4.162-9.278,9.278-9.278h120.277
				c5.116,0,9.278,4.162,9.278,9.278V74.765z"/>
		</g>
	</g>
	<g>
		<g>
			<path class="st1" d="M160.98,16.79h-19.472h-14.016H83.02c-6.57,0-11.89,5.33-11.89,11.9v5.88h101.74v-5.88
				C172.87,22.12,167.55,16.79,160.98,16.79z"/>
		</g>
	</g>
	<g>
		<g>
			<path class="st0" d="M160.98,15.29h-19.472c-0.829,0-1.5,0.672-1.5,1.5s0.671,1.5,1.5,1.5h19.472c5.729,0,10.39,4.666,10.39,10.4
				v4.38H72.63v-4.38c0-5.734,4.661-10.4,10.39-10.4h44.472c0.829,0,1.5-0.672,1.5-1.5s-0.671-1.5-1.5-1.5H83.02
				c-7.383,0-13.39,6.012-13.39,13.4v5.88c0,0.828,0.671,1.5,1.5,1.5h101.74c0.829,0,1.5-0.672,1.5-1.5v-5.88
				C174.37,21.302,168.363,15.29,160.98,15.29z"/>
		</g>
	</g>
	<g>
		<g>
			<path class="st3" d="M22.5,213.876v6.083c0,10.631,8.618,19.25,19.25,19.25h160.5c10.631,0,19.25-8.619,19.25-19.25v-6.083H22.5z
				"/>
		</g>
	</g>
	<g>
		<g>
			<path class="st0" d="M221.5,212.376h-199c-0.829,0-1.5,0.672-1.5,1.5v6.084c0,11.441,9.309,20.75,20.75,20.75h160.5
				c11.441,0,20.75-9.309,20.75-20.75v-6.084C223,213.048,222.329,212.376,221.5,212.376z M220,219.96
				c0,9.787-7.962,17.75-17.75,17.75H41.75c-9.788,0-17.75-7.963-17.75-17.75v-4.584h196V219.96z"/>
		</g>
	</g>
	<g>
		<g>
			<path class="st7" d="M150.082,141.951H93.447c-2.368,0-4.289,1.92-4.289,4.289v38.381c0,10.916,8.849,19.765,19.765,19.765
				h25.683c10.916,0,19.765-8.849,19.765-19.765V146.24C154.371,143.871,152.451,141.951,150.082,141.951z"/>
		</g>
	</g>
	<g>
		<g>
			<path class="st0" d="M150.082,140.451H93.447c-3.192,0-5.789,2.597-5.789,5.788v38.381c0,11.726,9.539,21.265,21.265,21.265
				h25.683c11.726,0,21.265-9.539,21.265-21.265v-38.381C155.871,143.048,153.274,140.451,150.082,140.451z M152.871,184.62
				c0,10.071-8.193,18.265-18.265,18.265h-25.683c-10.071,0-18.265-8.193-18.265-18.265v-38.381c0-1.537,1.251-2.788,2.789-2.788
				h56.635c1.538,0,2.789,1.251,2.789,2.788V184.62z"/>
		</g>
	</g>
	<g>
		<g>
			<path class="st6" d="M79.669,204.385c0,5.182,4.201,9.383,9.382,9.383h65.427c5.182,0,9.382-4.201,9.382-9.383H79.669z"/>
		</g>
	</g>
	<g>
		<g>
			<path class="st0" d="M163.861,202.885H79.669c-0.829,0-1.5,0.672-1.5,1.5c0,6,4.882,10.882,10.882,10.882h65.426
				c6.001,0,10.883-4.882,10.883-10.882C165.361,203.557,164.689,202.885,163.861,202.885z M154.478,212.267H89.052
				c-3.833,0-7.037-2.751-7.739-6.382h80.905C161.515,209.516,158.312,212.267,154.478,212.267z"/>
		</g>
	</g>
	<g>
		<g>
			<path class="st7" d="M154.985,150.826c-0.208,0-0.411,0.005-0.614,0.01v6.767c0.203-0.01,0.406-0.015,0.614-0.015
				c7.858,0,14.253,6.395,14.253,14.253c0,7.853-6.395,14.248-14.253,14.248c-0.222,0-0.444-0.005-0.667-0.019
				c-0.169,2.352-0.753,4.593-1.681,6.646c0.768,0.092,1.555,0.135,2.347,0.135c11.587,0,21.015-9.428,21.015-21.01
				C176,160.254,166.572,150.826,154.985,150.826z"/>
		</g>
	</g>
	<g>
		<g>
			<path class="st0" d="M154.985,149.326c-0.22,0-0.435,0.005-0.649,0.01c-0.814,0.021-1.464,0.686-1.464,1.5v6.767
				c0,0.41,0.168,0.803,0.465,1.086c0.297,0.283,0.692,0.435,1.107,0.412c0.179-0.009,0.358-0.013,0.541-0.013
				c7.032,0,12.753,5.722,12.753,12.754c0,7.029-5.721,12.748-12.753,12.748c-0.189,0-0.378-0.004-0.568-0.017
				c-0.826-0.046-1.536,0.567-1.595,1.39c-0.153,2.131-0.675,4.195-1.552,6.136c-0.196,0.436-0.174,0.938,0.061,1.354
				c0.235,0.416,0.654,0.695,1.128,0.752c0.813,0.098,1.662,0.146,2.525,0.146c12.415,0,22.515-10.098,22.515-22.51
				C177.5,159.427,167.4,149.326,154.985,149.326z M154.985,191.352c-0.067,0-0.135,0-0.203-0.001
				c0.411-1.228,0.707-2.489,0.885-3.775c8.372-0.358,15.071-7.278,15.071-15.733c0-8.39-6.591-15.268-14.867-15.729v-3.767
				c10.351,0.465,18.628,9.032,18.628,19.496C174.5,182.6,165.746,191.352,154.985,191.352z"/>
		</g>
	</g>
	<g>
		<g>
			<path class="st3" d="M226.75,95.002h-58.83v13.21c0,0.1,0,0.19-0.01,0.29h58.84c1.87,0,3.55-0.76,4.77-1.98
				c1.22-1.22,1.98-2.9,1.98-4.77C233.5,98.021,230.48,95.002,226.75,95.002z"/>
		</g>
	</g>
	<g>
		<g>
			<path class="st0" d="M226.75,93.502h-58.83c-0.829,0-1.5,0.672-1.5,1.5v13.21c0,0.05,0.002,0.095-0.003,0.146
				c-0.041,0.421,0.098,0.84,0.382,1.152c0.285,0.313,0.688,0.492,1.111,0.492h58.84c2.201,0,4.271-0.859,5.831-2.42
				c1.56-1.56,2.419-3.63,2.419-5.83C235,97.203,231.299,93.502,226.75,93.502z M230.459,105.461
				c-0.993,0.994-2.31,1.541-3.709,1.541h-57.33v-10.5h57.33c2.895,0,5.25,2.355,5.25,5.25
				C232,103.15,231.453,104.468,230.459,105.461z"/>
		</g>
	</g>
	<g>
		<g>
			<path class="st6" d="M76.083,85.523v22.687c0,5.224,4.235,9.458,9.458,9.458h72.917c5.224,0,9.458-4.235,9.458-9.458V85.523
				H76.083z"/>
		</g>
	</g>
	<g>
		<g>
			<path class="st0" d="M167.917,84.023H76.083c-0.829,0-1.5,0.672-1.5,1.5v22.687c0,6.042,4.916,10.958,10.958,10.958h72.917
				c6.042,0,10.958-4.916,10.958-10.958V85.523C169.417,84.695,168.745,84.023,167.917,84.023z M166.417,108.21
				c0,4.388-3.57,7.958-7.958,7.958H85.542c-4.388,0-7.958-3.57-7.958-7.958V87.023h88.833V108.21z"/>
		</g>
	</g>
	<g>
		<g>
			<path class="st6" d="M148.896,117.668H95.104c-3.463,0-6.271,2.808-6.271,6.271c0,3.463,2.808,6.271,6.271,6.271h53.792
				c3.463,0,6.271-2.808,6.271-6.271C155.167,120.476,152.359,117.668,148.896,117.668z"/>
		</g>
	</g>
	<g>
		<g>
			<path class="st0" d="M148.896,116.168H95.104c-4.285,0-7.771,3.486-7.771,7.771s3.486,7.771,7.771,7.771h53.792
				c4.285,0,7.771-3.485,7.771-7.771S153.181,116.168,148.896,116.168z M148.896,128.71H95.104c-2.63,0-4.771-2.14-4.771-4.771
				s2.14-4.771,4.771-4.771h53.792c2.63,0,4.771,2.141,4.771,4.771S151.526,128.71,148.896,128.71z"/>
		</g>
	</g>
	<g>
		<g>
			<rect x="209.71" y="110" class="st11" width="10.29" height="102.38"/>
		</g>
	</g>
	<g>
		<g>
			<path class="st11" d="M202.25,53.71h-7.83v0.17c8.63,1.2,15.29,8.63,15.29,17.58V93.5H220V71.46
				C220,61.67,212.04,53.71,202.25,53.71z"/>
		</g>
	</g>
	<g>
		<g>
			<path class="st8" d="M209.71,215.38v4.58c0,9.79-7.96,17.75-17.75,17.75h10.29c9.79,0,17.75-7.96,17.75-17.75v-4.58H209.71z"/>
		</g>
	</g>
	<g>
		<g>
			<path class="st8" d="M226.75,96.5h-10.29c2.89,0,5.25,2.36,5.25,5.25c0,1.4-0.55,2.72-1.54,3.71c-1,0.99-2.31,1.54-3.71,1.54
				h10.29c1.4,0,2.72-0.55,3.71-1.54s1.54-2.31,1.54-3.71C232,98.86,229.64,96.5,226.75,96.5z"/>
		</g>
	</g>
</g>
</svg>
