<?xml version="1.0" encoding="utf-8"?>
<!-- Generator: Adobe Illustrator 22.0.1, SVG Export Plug-In . SVG Version: 6.00 Build 0)  -->
<svg version="1.1" id="Layer_2" xmlns="http://www.w3.org/2000/svg" xmlns:xlink="http://www.w3.org/1999/xlink" x="0px" y="0px"
	 viewBox="0 0 256 256" style="enable-background:new 0 0 256 256;" xml:space="preserve">
<style type="text/css">
	.st0{fill:#3A312A;}
	.st1{fill:#D7E057;}
	.st2{fill:#FCE8CB;}
	.st3{fill:#8AC6DD;}
	.st4{fill-rule:evenodd;clip-rule:evenodd;fill:#FCE8CB;}
	.st5{fill:#F5978A;}
	.st6{fill:#87796F;}
	.st7{fill:#F16C7A;}
	.st8{fill:#68A8BC;}
	.st9{fill:#B9BC39;}
	.st10{fill:#CE4E61;}
	.st11{fill:#6B5B51;}
	.st12{fill:#CCAE8B;}
	.st13{fill-rule:evenodd;clip-rule:evenodd;fill:#F16C7A;}
</style>
<g>
	<g>
		<g>
			<path class="st1" d="M66.942,26.303c-0.974,11.564-13.024,13.389-13.024,13.389c10.347,0.487,12.925,14.059,12.925,14.059
				c0.221-9.677,13.321-14.202,13.321-14.202C70.35,38.963,66.942,26.303,66.942,26.303z"/>
		</g>
	</g>
	<g>
		<g>
			<path class="st0" d="M80.254,38.052c-8.605-0.514-11.833-12.024-11.864-12.14c-0.191-0.702-0.849-1.162-1.584-1.102
				c-0.725,0.066-1.298,0.642-1.359,1.367C64.587,36.393,54.134,38.141,53.692,38.21c-0.763,0.115-1.313,0.79-1.273,1.561
				c0.04,0.77,0.657,1.384,1.428,1.421c9.028,0.425,11.499,12.718,11.522,12.842c0.138,0.711,0.76,1.217,1.473,1.217
				c0.042,0,0.084-0.001,0.126-0.005c0.765-0.064,1.357-0.693,1.375-1.459c0.193-8.508,12.191-12.777,12.313-12.819
				c0.676-0.235,1.092-0.914,0.994-1.623C81.551,38.636,80.968,38.095,80.254,38.052z M66.688,48.398
				c-1.356-3.13-3.709-6.907-7.588-8.876c2.932-1.405,6.409-3.913,8.202-8.273c1.551,3.071,4.2,6.88,8.335,8.722
				C72.629,41.611,68.714,44.377,66.688,48.398z"/>
		</g>
	</g>
	<g>
		<g>
			<path class="st1" d="M45.243,43.284c-0.689,8.179-9.212,9.47-9.212,9.47c7.318,0.344,9.142,9.944,9.142,9.944
				c0.156-6.844,9.422-10.045,9.422-10.045C47.654,52.238,45.243,43.284,45.243,43.284z"/>
		</g>
	</g>
	<g>
		<g>
			<path class="st0" d="M54.685,51.156c-5.767-0.345-7.972-8.185-7.993-8.264c-0.19-0.702-0.858-1.164-1.582-1.102
				c-0.726,0.065-1.3,0.642-1.361,1.368c-0.579,6.871-7.646,8.066-7.942,8.113c-0.763,0.115-1.313,0.79-1.273,1.561
				c0.04,0.77,0.657,1.384,1.428,1.421c6.035,0.284,7.724,8.644,7.739,8.726c0.136,0.712,0.759,1.22,1.473,1.22
				c0.041,0,0.083-0.001,0.125-0.005c0.765-0.063,1.358-0.694,1.376-1.461c0.13-5.709,8.331-8.634,8.412-8.662
				c0.676-0.234,1.093-0.913,0.996-1.622C55.983,51.74,55.398,51.199,54.685,51.156z M45.1,57.951
				c-0.924-1.886-2.34-3.947-4.447-5.28c1.855-1.042,3.697-2.63,4.871-4.917c1.057,1.874,2.654,3.955,4.941,5.224
				C48.614,54.08,46.476,55.719,45.1,57.951z"/>
		</g>
	</g>
	<g>
		<g>
			<path class="st1" d="M45.243,16.626c-0.689,8.179-9.212,9.471-9.212,9.471c7.318,0.344,9.142,9.944,9.142,9.944
				c0.156-6.845,9.422-10.045,9.422-10.045C47.654,25.581,45.243,16.626,45.243,16.626z"/>
		</g>
	</g>
	<g>
		<g>
			<path class="st0" d="M54.685,24.499c-5.767-0.345-7.972-8.186-7.993-8.265c-0.19-0.702-0.858-1.163-1.582-1.102
				c-0.726,0.065-1.3,0.642-1.361,1.368c-0.579,6.871-7.646,8.067-7.942,8.114c-0.763,0.115-1.313,0.79-1.273,1.561
				c0.04,0.77,0.657,1.384,1.428,1.421c6.035,0.284,7.724,8.644,7.739,8.726c0.136,0.713,0.759,1.22,1.473,1.22
				c0.041,0,0.083-0.001,0.125-0.005c0.765-0.063,1.358-0.694,1.376-1.461c0.13-5.709,8.331-8.634,8.412-8.662
				c0.676-0.234,1.093-0.913,0.996-1.622C55.983,25.083,55.398,24.542,54.685,24.499z M45.1,31.293
				c-0.924-1.885-2.34-3.947-4.447-5.28c1.855-1.041,3.697-2.63,4.871-4.917c1.057,1.874,2.654,3.955,4.941,5.224
				C48.615,27.422,46.476,29.061,45.1,31.293z"/>
		</g>
	</g>
	<g>
		<g>
			<path class="st3" d="M143.636,129.125c-6.3,0-12.35-1.03-18-2.94v65.73h36v-65.73
				C155.986,128.095,149.936,129.125,143.636,129.125z"/>
		</g>
	</g>
	<g>
		<g>
			<path class="st0" d="M162.511,124.966c-0.393-0.281-0.895-0.357-1.354-0.202c-5.615,1.898-11.51,2.861-17.52,2.861
				c-6.011,0-11.905-0.962-17.52-2.861c-0.459-0.155-0.963-0.079-1.354,0.202c-0.394,0.282-0.626,0.735-0.626,1.219v25.192
				c0,0.829,0.672,1.5,1.5,1.5s1.5-0.671,1.5-1.5v-23.141c10.647,3.172,22.349,3.172,33,0v62.18h-33v-24.542
				c0-0.829-0.672-1.5-1.5-1.5s-1.5,0.671-1.5,1.5v26.042c0,0.829,0.672,1.5,1.5,1.5h36c0.828,0,1.5-0.671,1.5-1.5v-65.73
				C163.137,125.702,162.904,125.248,162.511,124.966z"/>
		</g>
	</g>
	<g>
		<g>
			
				<ellipse transform="matrix(0.9239 -0.3827 0.3827 0.9239 -16.9225 60.5081)" class="st7" cx="143.636" cy="72.792" rx="56.333" ry="56.333"/>
		</g>
	</g>
	<g>
		<g>
			<path class="st0" d="M143.637,14.958c-31.89,0-57.834,25.944-57.834,57.833c0,31.89,25.944,57.833,57.834,57.833
				s57.833-25.944,57.833-57.833C201.47,40.902,175.526,14.958,143.637,14.958z M143.637,127.625
				c-30.235,0-54.834-24.598-54.834-54.833c0-30.235,24.599-54.833,54.834-54.833s54.833,24.598,54.833,54.833
				C198.47,103.027,173.872,127.625,143.637,127.625z"/>
		</g>
	</g>
	<g>
		<g>
			<polygon class="st6" points="161.636,191.913 125.636,191.913 67.386,215.832 219.97,215.832 			"/>
		</g>
	</g>
	<g>
		<g>
			<path class="st0" d="M220.539,214.444l-58.333-23.919c-0.181-0.074-0.374-0.112-0.569-0.112h-36
				c-0.195,0-0.389,0.038-0.569,0.112l-58.25,23.919c-0.663,0.272-1.041,0.975-0.902,1.678c0.139,0.703,0.755,1.209,1.472,1.209
				H219.97c0.717,0,1.333-0.507,1.472-1.21S221.202,214.716,220.539,214.444z M74.988,214.332l50.944-20.919h35.408l51.018,20.919
				H74.988z"/>
		</g>
	</g>
	<g>
		<g>
			<rect x="67.386" y="215.826" class="st6" width="152.583" height="23.716"/>
		</g>
	</g>
	<g>
		<g>
			<path class="st0" d="M219.97,214.326H67.387c-0.828,0-1.5,0.671-1.5,1.5v23.716c0,0.829,0.672,1.5,1.5,1.5h31.728
				c0.828,0,1.5-0.671,1.5-1.5s-0.672-1.5-1.5-1.5H68.887v-20.716H218.47v20.716H113.158c-0.828,0-1.5,0.671-1.5,1.5
				s0.672,1.5,1.5,1.5H219.97c0.828,0,1.5-0.671,1.5-1.5v-23.716C221.47,214.997,220.798,214.326,219.97,214.326z"/>
		</g>
	</g>
	<g>
		<g>
			<path class="st8" d="M155.526,129.395c-0.21,0.04-0.42,0.08-0.63,0.12c-0.62,0.12-1.25,0.24-1.88,0.34
				c-0.29,0.05-0.58,0.1-0.87,0.14c-0.75,0.11-1.51,0.21-2.27,0.29c-0.18,0.02-0.35,0.04-0.53,0.05v60.08h10.79v-62.18
				C158.616,128.685,157.076,129.065,155.526,129.395z"/>
		</g>
	</g>
	<g>
		<g>
			<path class="st10" d="M143.636,17.955c-1.82,0-3.62,0.09-5.39,0.26c27.71,2.72,49.43,26.16,49.43,54.58
				c0,28.41-21.72,51.85-49.43,54.57c1.77,0.17,3.57,0.26,5.39,0.26c30.24,0,54.83-24.6,54.83-54.83
				C198.466,42.555,173.876,17.955,143.636,17.955z"/>
		</g>
	</g>
	<g>
		<g>
			<polygon class="st11" points="161.336,193.415 150.546,193.415 201.556,214.325 212.346,214.325 			"/>
		</g>
	</g>
	<g>
		<g>
			<rect x="207.676" y="217.325" class="st11" width="10.79" height="20.72"/>
		</g>
	</g>
</g>
</svg>
