<?xml version="1.0" encoding="utf-8"?>
<!-- Generator: Adobe Illustrator 22.0.1, SVG Export Plug-In . SVG Version: 6.00 Build 0)  -->
<svg version="1.1" id="Layer_2" xmlns="http://www.w3.org/2000/svg" xmlns:xlink="http://www.w3.org/1999/xlink" x="0px" y="0px"
	 viewBox="0 0 256 256" style="enable-background:new 0 0 256 256;" xml:space="preserve">
<style type="text/css">
	.st0{fill:#3A312A;}
	.st1{fill:#D7E057;}
	.st2{fill:#FCE8CB;}
	.st3{fill:#8AC6DD;}
	.st4{fill-rule:evenodd;clip-rule:evenodd;fill:#FCE8CB;}
	.st5{fill:#F5978A;}
	.st6{fill:#87796F;}
	.st7{fill:#F16C7A;}
	.st8{fill:#68A8BC;}
	.st9{fill:#B9BC39;}
	.st10{fill:#CE4E61;}
	.st11{fill:#6B5B51;}
	.st12{fill:#CCAE8B;}
	.st13{fill-rule:evenodd;clip-rule:evenodd;fill:#F16C7A;}
</style>
<g>
	<g>
		<g>
			<path class="st1" d="M87.231,62.603c-0.974,11.564-13.024,13.389-13.024,13.389c10.347,0.487,12.925,14.059,12.925,14.059
				c0.221-9.677,13.321-14.202,13.321-14.202C90.639,75.262,87.231,62.603,87.231,62.603z"/>
		</g>
	</g>
	<g>
		<g>
			<path class="st0" d="M100.543,74.353c-8.605-0.515-11.833-12.024-11.864-12.141c-0.19-0.702-0.849-1.162-1.584-1.102
				c-0.725,0.066-1.298,0.642-1.359,1.367C84.876,72.692,74.423,74.441,73.981,74.51c-0.763,0.116-1.313,0.791-1.273,1.561
				c0.04,0.771,0.657,1.385,1.428,1.421c9.028,0.425,11.499,12.718,11.522,12.843c0.138,0.711,0.76,1.217,1.473,1.217
				c0.042,0,0.084-0.002,0.126-0.005c0.765-0.064,1.357-0.693,1.375-1.46c0.193-8.509,12.191-12.777,12.313-12.819
				c0.676-0.234,1.092-0.914,0.994-1.622C101.84,74.936,101.257,74.395,100.543,74.353z M86.977,84.698
				c-1.356-3.131-3.709-6.907-7.587-8.877c2.931-1.404,6.408-3.912,8.201-8.272c1.551,3.071,4.2,6.88,8.335,8.723
				C92.918,77.911,89.003,80.677,86.977,84.698z"/>
		</g>
	</g>
	<g>
		<g>
			<path class="st1" d="M65.532,79.584c-0.689,8.179-9.212,9.47-9.212,9.47c7.318,0.344,9.142,9.944,9.142,9.944
				c0.156-6.844,9.422-10.045,9.422-10.045C67.943,88.538,65.532,79.584,65.532,79.584z"/>
		</g>
	</g>
	<g>
		<g>
			<path class="st0" d="M74.974,87.456c-5.767-0.345-7.972-8.186-7.993-8.265c-0.19-0.702-0.866-1.164-1.582-1.102
				c-0.726,0.065-1.3,0.643-1.361,1.368c-0.579,6.87-7.646,8.066-7.942,8.113c-0.763,0.116-1.313,0.791-1.273,1.561
				c0.04,0.771,0.657,1.385,1.428,1.421c6.035,0.284,7.724,8.645,7.739,8.727c0.136,0.713,0.759,1.22,1.473,1.22
				c0.041,0,0.083-0.002,0.125-0.005c0.765-0.063,1.358-0.693,1.376-1.461c0.13-5.709,8.331-8.634,8.412-8.662
				c0.676-0.234,1.093-0.913,0.996-1.622C76.272,88.04,75.688,87.498,74.974,87.456z M65.389,94.251
				c-0.924-1.886-2.34-3.947-4.447-5.28c1.855-1.041,3.697-2.63,4.871-4.916c1.057,1.874,2.654,3.955,4.941,5.224
				C68.904,90.379,66.765,92.019,65.389,94.251z"/>
		</g>
	</g>
	<g>
		<g>
			<path class="st1" d="M65.532,52.926c-0.689,8.179-9.212,9.471-9.212,9.471c7.318,0.344,9.142,9.944,9.142,9.944
				c0.156-6.845,9.422-10.045,9.422-10.045C67.943,61.88,65.532,52.926,65.532,52.926z"/>
		</g>
	</g>
	<g>
		<g>
			<path class="st0" d="M74.974,60.799c-5.767-0.346-7.972-8.186-7.993-8.265c-0.19-0.702-0.866-1.163-1.582-1.102
				c-0.726,0.065-1.3,0.643-1.361,1.368c-0.579,6.87-7.646,8.065-7.942,8.112c-0.763,0.116-1.313,0.791-1.273,1.561
				c0.04,0.771,0.657,1.385,1.428,1.421c6.035,0.284,7.724,8.645,7.739,8.727c0.136,0.713,0.759,1.22,1.473,1.22
				c0.041,0,0.083-0.002,0.125-0.005c0.765-0.063,1.358-0.693,1.376-1.461c0.13-5.708,8.331-8.633,8.412-8.661
				c0.676-0.234,1.093-0.913,0.996-1.622C76.272,61.383,75.688,60.842,74.974,60.799z M65.389,67.594
				c-0.924-1.886-2.34-3.947-4.447-5.28c1.855-1.041,3.697-2.63,4.871-4.916c1.057,1.874,2.654,3.954,4.941,5.224
				C68.904,63.722,66.766,65.361,65.389,67.594z"/>
		</g>
	</g>
	<g>
		<g>
			<polygon class="st3" points="111.339,16.75 114.589,24.58 184.989,24.58 188.239,16.75 			"/>
		</g>
	</g>
	<g>
		<g>
			<path class="st0" d="M189.486,15.917c-0.278-0.417-0.746-0.667-1.247-0.667h-76.9c-0.501,0-0.969,0.25-1.247,0.667
				s-0.33,0.945-0.139,1.408l3.25,7.83c0.232,0.56,0.779,0.925,1.386,0.925h70.4c0.606,0,1.153-0.365,1.386-0.925l3.25-7.83
				C189.816,16.862,189.765,16.334,189.486,15.917z M183.987,23.08h-68.396l-2.005-4.83h72.406L183.987,23.08z"/>
		</g>
	</g>
	<g>
		<g>
			<polygon class="st7" points="105.669,24.58 113.159,45.25 140.939,45.25 143.789,50.19 149.789,60.58 155.789,50.19 
				158.639,45.25 186.419,45.25 193.909,24.58 			"/>
		</g>
	</g>
	<g>
		<g>
			<path class="st0" d="M195.138,23.719c-0.281-0.4-0.739-0.639-1.229-0.639h-88.24c-0.489,0-0.947,0.238-1.229,0.639
				c-0.28,0.4-0.349,0.913-0.182,1.372l7.49,20.67c0.215,0.594,0.778,0.989,1.41,0.989h26.913l8.418,14.58
				c0.268,0.464,0.763,0.75,1.299,0.75s1.031-0.286,1.299-0.75l8.417-14.58h26.914c0.632,0,1.195-0.396,1.41-0.989l7.49-20.67
				C195.486,24.632,195.418,24.119,195.138,23.719z M185.367,43.75h-26.729c-0.536,0-1.031,0.286-1.299,0.75l-7.551,13.08
				l-7.552-13.08c-0.268-0.464-0.763-0.75-1.299-0.75h-26.728l-6.403-17.67h83.963L185.367,43.75z"/>
		</g>
	</g>
	<g>
		<g>
			<path class="st1" d="M191.019,96.69c-0.32-0.55-0.63-1.11-0.93-1.67c-5.3-9.9-6.49-21.49-3.89-32.41l4.14-17.36h-31.7l-2.85,4.94
				l-6,10.39l-6-10.39l-2.85-4.94h-31.7l4.14,17.36c2.6,10.92,1.41,22.51-3.89,32.41c-0.3,0.56-0.61,1.12-0.93,1.67
				c-2.25,3.85-3.98,7.97-5.14,12.24c-1.15,4.27-1.75,8.7-1.75,13.16v35.519v14.532v45.799c0,11.77,9.54,21.31,21.31,21.31h53.62
				c11.77,0,21.31-9.54,21.31-21.31v-95.85C197.909,113.16,195.529,104.39,191.019,96.69z"/>
		</g>
	</g>
	<g>
		<g>
			<path class="st0" d="M192.315,95.937c-0.311-0.535-0.612-1.079-0.904-1.625c-5.008-9.354-6.34-20.488-3.753-31.354l4.14-17.36
				c0.106-0.446,0.003-0.917-0.281-1.277c-0.285-0.36-0.719-0.57-1.178-0.57h-31.7c-0.536,0-1.031,0.286-1.299,0.75l-7.551,13.08
				l-7.552-13.08c-0.268-0.464-0.763-0.75-1.299-0.75h-31.699c-0.459,0-0.893,0.21-1.178,0.57c-0.284,0.36-0.388,0.831-0.281,1.277
				l4.14,17.36c2.587,10.866,1.254,22.001-3.752,31.353c-0.293,0.545-0.594,1.089-0.904,1.622
				c-2.316,3.964-4.097,8.204-5.293,12.606c-1.195,4.438-1.802,8.997-1.802,13.551v35.52c0,0.828,0.672,1.5,1.5,1.5
				s1.5-0.672,1.5-1.5v-35.52c0-4.29,0.571-8.587,1.697-12.767c1.127-4.146,2.805-8.142,4.988-11.879
				c0.329-0.564,0.647-1.14,0.957-1.717c5.354-9.999,6.783-21.884,4.026-33.465l-3.699-15.513h28.934l8.418,14.58
				c0.268,0.464,0.763,0.75,1.299,0.75s1.031-0.286,1.299-0.75l8.417-14.58h28.935l-3.699,15.513
				c-2.758,11.579-1.328,23.464,4.026,33.464c0.308,0.576,0.627,1.151,0.958,1.721c4.373,7.466,6.685,15.987,6.685,24.643v95.85
				c0,10.924-8.887,19.811-19.811,19.811h-53.62c-10.923,0-19.81-8.887-19.81-19.811v-45.799c0-0.828-0.672-1.5-1.5-1.5
				s-1.5,0.672-1.5,1.5v45.799c0,12.578,10.232,22.811,22.81,22.811h53.62c12.578,0,22.811-10.232,22.811-22.811v-95.85
				C199.409,112.901,196.955,103.856,192.315,95.937z"/>
		</g>
	</g>
	<g>
		<g>
			<path class="st6" d="M143.924,65.313v147.875c0,3.314,2.686,6,6,6c3.314,0,6-2.686,6-6v-100.23v-14.54V65.313H143.924z"/>
		</g>
	</g>
	<g>
		<g>
			<path class="st0" d="M155.924,99.918c0.828,0,1.5-0.672,1.5-1.5V65.313c0-0.828-0.672-1.5-1.5-1.5h-12
				c-0.828,0-1.5,0.672-1.5,1.5v147.875c0,4.136,3.364,7.5,7.5,7.5s7.5-3.364,7.5-7.5v-100.23c0-0.828-0.672-1.5-1.5-1.5
				s-1.5,0.672-1.5,1.5v100.23c0,2.481-2.019,4.5-4.5,4.5s-4.5-2.019-4.5-4.5V66.813h9v31.605
				C154.424,99.246,155.096,99.918,155.924,99.918z"/>
		</g>
	</g>
	<g>
		<g>
			<path class="st2" d="M149.789,57.708c-4.206,0-7.615,3.41-7.615,7.615v19.686c0,4.206,3.41,7.615,7.615,7.615
				c4.206,0,7.616-3.409,7.616-7.615V65.324C157.404,61.118,153.995,57.708,149.789,57.708z M149.789,86.841
				c-1.934,0-3.502-1.568-3.502-3.502c0-1.934,1.568-3.502,3.502-3.502c1.934,0,3.502,1.568,3.502,3.502
				C153.291,85.273,151.723,86.841,149.789,86.841z"/>
		</g>
	</g>
	<g>
		<g>
			<path class="st0" d="M149.789,56.208c-5.026,0-9.115,4.09-9.115,9.116V85.01c0,5.026,4.089,9.115,9.115,9.115
				s9.115-4.089,9.115-9.115V65.324C158.904,60.298,154.815,56.208,149.789,56.208z M155.904,85.01c0,3.372-2.743,6.115-6.115,6.115
				s-6.115-2.743-6.115-6.115V65.324c0-3.372,2.743-6.116,6.115-6.116s6.115,2.744,6.115,6.116V85.01z M149.789,78.337
				c-2.759,0-5.003,2.244-5.003,5.002c0,2.759,2.244,5.003,5.003,5.003c2.758,0,5.002-2.244,5.002-5.003
				C154.791,80.581,152.547,78.337,149.789,78.337z M149.789,85.342c-1.104,0-2.003-0.898-2.003-2.003
				c0-1.104,0.898-2.002,2.003-2.002c1.104,0,2.002,0.898,2.002,2.002C151.791,84.443,150.893,85.342,149.789,85.342z"/>
		</g>
	</g>
	<g>
		<g>
			<polygon class="st8" points="175.569,18.25 173.559,23.08 183.979,23.08 185.989,18.25 			"/>
		</g>
	</g>
	<g>
		<g>
			<polygon class="st10" points="181.349,26.08 174.949,43.75 185.369,43.75 191.769,26.08 			"/>
		</g>
	</g>
	<g>
		<g>
			<path class="st9" d="M189.729,97.45c-0.33-0.57-0.65-1.15-0.96-1.72c-5.36-10-6.79-21.89-4.03-33.47l3.7-15.51h-10.42l-3.7,15.51
				c-2.76,11.58-1.33,23.47,4.03,33.47c0.3,0.57,0.62,1.15,0.95,1.72c4.38,7.47,6.69,15.99,6.69,24.64v95.85
				c0,10.92-8.89,19.81-19.81,19.81h10.42c10.92,0,19.81-8.89,19.81-19.81v-95.85C196.409,113.44,194.099,104.92,189.729,97.45z"/>
		</g>
	</g>
</g>
</svg>
