<svg fill="#000000" xmlns="http://www.w3.org/2000/svg"  viewBox="0 0 48 48" width="24px" height="24px"><path d="M 28.921875 7.7929688 C 27.25788 7.7732843 25.58193 7.8810472 23.910156 8.1386719 C 17.223059 9.1691706 10.634702 12.664718 5.6074219 19.746094 A 1.50015 1.50015 0 0 0 5.5957031 19.765625 C 4.4794193 21.38834 3.9347536 22.994903 4.0058594 24.566406 C 4.0765084 26.127811 4.7011791 27.524552 5.5234375 28.927734 C 8.2070241 33.827474 13.731001 37.220295 20.234375 38.943359 C 26.74422 40.668139 34.310365 40.716903 41.320312 38.585938 A 1.50015 1.50015 0 0 0 42.173828 36.382812 C 38.776475 30.668975 38.320968 25.943727 39.070312 22.09375 C 39.819659 18.243773 41.838252 15.230891 43.619141 13.232422 A 1.50015 1.50015 0 0 0 43.078125 10.851562 C 38.792333 9.0636778 33.913859 7.8520218 28.921875 7.7929688 z M 28.888672 10.796875 C 32.770007 10.847175 36.601302 11.713414 40.130859 12.988281 C 38.474707 15.180052 36.829503 17.901895 36.125 21.521484 C 36.06486 21.830457 36.074877 22.181482 36.029297 22.5 L 33.09375 22.5 L 33.09375 16.882812 A 1.50015 1.50015 0 1 0 30.09375 16.882812 L 30.09375 22.5 L 25.886719 22.5 L 25.886719 17.839844 A 1.50015 1.50015 0 1 0 22.886719 17.839844 L 22.886719 22.5 L 18.957031 22.5 L 18.957031 20.314453 A 1.50015 1.50015 0 1 0 15.957031 20.314453 L 15.957031 22.5 L 13.5 22.5 A 1.50015 1.50015 0 1 0 13.5 25.5 L 15.957031 25.5 L 15.957031 27.685547 A 1.50015 1.50015 0 1 0 18.957031 27.685547 L 18.957031 25.5 L 22.886719 25.5 L 22.886719 30.160156 A 1.50015 1.50015 0 1 0 25.886719 30.160156 L 25.886719 25.5 L 30.09375 25.5 L 30.09375 31.117188 A 1.50015 1.50015 0 1 0 33.09375 31.117188 L 33.09375 25.5 L 35.806641 25.5 C 35.847961 28.692501 36.751667 32.270166 38.707031 36.103516 C 32.766122 37.562612 26.436686 37.48238 21.003906 36.042969 C 15.042501 34.463498 10.258891 31.343946 8.1464844 27.476562 A 1.50015 1.50015 0 0 0 8.125 27.435547 C 7.4051637 26.210896 7.0418005 25.269137 7.0039062 24.431641 C 6.9661281 23.596706 7.1973789 22.732591 8.0605469 21.474609 C 12.648263 15.016842 18.381901 12.025864 24.367188 11.103516 C 25.864162 10.872828 27.376792 10.777282 28.888672 10.796875 z"/></svg>