<svg fill="#000000" xmlns="http://www.w3.org/2000/svg"  viewBox="0 0 48 48" width="24px" height="24px"><path d="M 32.005859 4.9375 A 1.50015 1.50015 0 0 0 30.919922 5.3964844 C 30.919922 5.3964844 27.5 8.7244216 27.5 13.181641 C 27.5 14.193224 27.768339 15.172015 28.242188 16 L 21 16 L 18 16 L 10.5 16 C 8.0324991 16 6 18.032499 6 20.5 L 6 40 L 4.5 40 A 1.50015 1.50015 0 1 0 4.5 43 L 18 43 L 21 43 L 42 43 L 43.5 43 A 1.50015 1.50015 0 1 0 43.5 40 L 42 40 L 42 20.5 C 42 18.557141 40.732533 16.901014 38.992188 16.277344 C 41.635988 13.830305 42.416016 10.359375 42.416016 10.359375 A 1.50015 1.50015 0 0 0 41.408203 8.5488281 C 41.408203 8.5488281 39.366244 7.8691335 36.810547 7.953125 C 36.254622 7.9713951 35.672667 8.0467791 35.083984 8.1523438 C 34.141966 6.4589114 33.080078 5.3964844 33.080078 5.3964844 A 1.50015 1.50015 0 0 0 32.005859 4.9375 z M 32 8.9863281 C 32.729804 10.092291 33.5 11.552208 33.5 13.181641 C 33.5 14.516815 32.675709 15.3125 32 15.3125 C 31.324291 15.3125 30.5 14.516815 30.5 13.181641 C 30.5 11.552208 31.270196 10.092291 32 8.9863281 z M 37.001953 10.96875 C 37.671758 10.963996 38.308153 11.026462 38.869141 11.107422 C 38.374428 12.240579 37.615288 13.6709 36.300781 14.607422 C 36.418895 14.146166 36.5 13.671283 36.5 13.181641 C 36.5 12.422549 36.395067 11.700302 36.230469 11.017578 C 36.48936 10.993883 36.749972 10.970538 37.001953 10.96875 z M 10.5 19 L 12.087891 19 A 1.5 1.5 0 0 0 13.5 21 A 1.5 1.5 0 0 0 14.914062 19 L 18 19 L 18 34.085938 A 1.5 1.5 0 0 0 17.5 34 A 1.5 1.5 0 0 0 17.5 37 A 1.5 1.5 0 0 0 18 36.912109 L 18 40 L 9 40 L 9 29.914062 A 1.5 1.5 0 0 0 9.5 30 A 1.5 1.5 0 0 0 9.5 27 A 1.5 1.5 0 0 0 9 27.087891 L 9 20.5 C 9 19.653501 9.6535009 19 10.5 19 z M 21 19 L 31.087891 19 A 1.5 1.5 0 0 0 32.5 21 A 1.5 1.5 0 0 0 33.914062 19 L 37.5 19 C 38.346499 19 39 19.653501 39 20.5 L 39 34.085938 A 1.5 1.5 0 0 0 38.5 34 A 1.5 1.5 0 0 0 38.5 37 A 1.5 1.5 0 0 0 39 36.912109 L 39 40 L 27.912109 40 A 1.5 1.5 0 0 0 26.5 38 A 1.5 1.5 0 0 0 25.085938 40 L 21 40 L 21 25.912109 A 1.5 1.5 0 0 0 21 23.085938 L 21 19 z M 30.5 28 A 1.5 1.5 0 0 0 30.5 31 A 1.5 1.5 0 0 0 30.5 28 z"/></svg>