<svg fill="#000000" xmlns="http://www.w3.org/2000/svg"  viewBox="0 0 48 48" width="24px" height="24px"><path d="M 26.257812 3.8300781 C 25.205765 3.7978268 24.131268 3.9289231 23.068359 4.2421875 L 23.191406 4.2109375 L 19.199219 5.03125 A 1.50015 1.50015 0 0 0 19.025391 5.0761719 C 17.576572 5.559344 16.488914 6.6740062 15.865234 7.9941406 C 15.241555 9.314275 15 10.845833 15 12.5 L 15 14.5 A 1.50015 1.50015 0 0 0 15.3125 15.433594 C 14.360098 16.423694 13.432462 17.537381 12.544922 18.8125 C 11.94626 18.169528 11.257652 17.651768 10.533203 17.271484 C 9.1294901 16.534637 7.620866 16.206289 6.2871094 16.048828 C 3.6028877 15.732633 1.5869261 18.68485 2.7832031 21.085938 A 1.50015 1.50015 0 0 0 2.7832031 21.087891 C 3.454373 22.434937 4 24.091013 4 24.5 C 4 24.902178 3.4755964 26.51503 2.8183594 27.84375 C 1.6083062 30.29117 3.750085 33.24315 6.4511719 32.865234 C 7.9184427 32.659773 9.5760567 32.252121 11.039062 31.318359 C 11.685076 30.906042 12.252526 30.318249 12.746094 29.660156 C 13.927295 31.391684 15.384873 32.905347 17.041016 34.138672 A 1.50015 1.50015 0 0 0 17 34.5 L 17 40.5 C 17 42.967501 19.032499 45 21.5 45 C 25.849533 45 29.458661 41.701263 29.939453 37.466797 C 35.421652 36.660515 40.921711 33.142868 44.806641 26.236328 C 45.483298 25.033316 45.480208 23.632999 45.130859 22.304688 C 44.781511 20.976375 44.083945 19.645718 43.134766 18.341797 C 41.455504 16.034934 38.966272 13.809103 35.970703 12.208984 C 35.963484 12.16336 35.952234 12.082519 35.916016 11.902344 A 1.50015 1.50015 0 0 0 35.916016 11.900391 C 35.035103 7.5415847 31.435988 4.4726463 27.300781 3.9160156 C 26.956181 3.8696298 26.608495 3.8408286 26.257812 3.8300781 z M 26.105469 6.8242188 C 28.700189 6.8783621 31.065594 8.3580145 32.255859 10.669922 C 30.278223 10.075362 28.168332 9.7867922 26.007812 9.9648438 C 24.971832 10.05022 23.926197 10.241872 22.878906 10.554688 C 21.219605 11.050304 19.584355 11.892536 18 13.060547 L 18 12.5 C 18 11.154167 18.220554 10.032256 18.578125 9.2753906 C 18.932647 8.5249784 19.345647 8.1456136 19.962891 7.9355469 L 23.792969 7.1503906 A 1.50015 1.50015 0 0 0 23.916016 7.1191406 C 24.649249 6.9030393 25.386434 6.8092148 26.105469 6.8242188 z M 27.208984 12.910156 C 28.618495 12.898744 30.005045 13.126353 31.34375 13.525391 C 30.472912 14.490881 29.323916 16.011782 28.484375 18.087891 C 26.963342 21.849266 26.498705 27.470072 30.173828 34.402344 C 28.97321 34.626456 27.772862 34.700648 26.59375 34.626953 C 21.158148 34.287228 16.128573 30.858251 13.865234 25.878906 A 1.50015 1.50015 0 0 0 11.009766 26.330078 C 10.869963 27.555729 10.326275 28.216277 9.4257812 28.791016 C 8.5252875 29.365754 7.2458854 29.72304 6.0351562 29.892578 C 5.5349277 29.962566 5.2858719 29.622043 5.5078125 29.173828 C 6.2345755 27.704549 7 26.155822 7 24.5 C 7 22.814987 6.2095801 21.236907 5.46875 19.75 C 5.263027 19.337087 5.495769 18.975539 5.9355469 19.027344 C 7.0327902 19.156883 8.210635 19.440582 9.1386719 19.927734 C 10.066709 20.414887 10.72942 21.040512 11.09375 22.021484 A 1.50015 1.50015 0 0 0 13.791016 22.263672 C 16.898796 17.004352 20.361743 14.437643 23.736328 13.429688 C 24.579974 13.177698 25.425298 13.022541 26.265625 12.953125 C 26.580748 12.927094 26.89555 12.912694 27.208984 12.910156 z M 34.345703 14.75 C 37.013309 16.138938 39.289105 18.156882 40.708984 20.107422 C 41.49068 21.181266 42.008645 22.232355 42.228516 23.068359 C 42.448386 23.904364 42.368705 24.451934 42.193359 24.763672 C 39.573804 29.420663 36.349071 32.195167 32.994141 33.572266 A 1.5005815 1.5005815 0 0 0 32.826172 33 C 29.502205 26.730999 30.036774 22.251728 31.265625 19.212891 C 32.421646 16.354155 34.139459 14.91639 34.345703 14.75 z M 36.5 21 A 1.5 1.5 0 0 0 36.5 24 A 1.5 1.5 0 0 0 36.5 21 z M 20 35.927734 C 21.985176 36.88461 24.148064 37.48191 26.40625 37.623047 C 26.556622 37.632445 26.708464 37.629379 26.859375 37.634766 C 26.336475 40.126623 24.161516 42 21.5 42 C 20.653501 42 20 41.346499 20 40.5 L 20 35.927734 z"/></svg>