<?xml version="1.0" encoding="utf-8"?>
<!-- Generator: Adobe Illustrator 22.0.1, SVG Export Plug-In . SVG Version: 6.00 Build 0)  -->
<svg version="1.1" id="Layer_2" xmlns="http://www.w3.org/2000/svg" xmlns:xlink="http://www.w3.org/1999/xlink" x="0px" y="0px"
	 viewBox="0 0 256 256" style="enable-background:new 0 0 256 256;" xml:space="preserve">
<style type="text/css">
	.st0{fill:#3A312A;}
	.st1{fill:#D7E057;}
	.st2{fill:#FCE8CB;}
	.st3{fill:#8AC6DD;}
	.st4{fill-rule:evenodd;clip-rule:evenodd;fill:#FCE8CB;}
	.st5{fill:#F5978A;}
	.st6{fill:#87796F;}
	.st7{fill:#F16C7A;}
	.st8{fill:#68A8BC;}
	.st9{fill:#B9BC39;}
	.st10{fill:#CE4E61;}
	.st11{fill:#6B5B51;}
	.st12{fill:#CCAE8B;}
	.st13{fill-rule:evenodd;clip-rule:evenodd;fill:#F16C7A;}
</style>
<g>
	<g>
		<g>
			<path class="st1" d="M225.988,26.092c-0.974,11.564-13.025,13.39-13.025,13.39c10.347,0.487,12.925,14.059,12.925,14.059
				c0.221-9.677,13.321-14.202,13.321-14.202C229.396,38.751,225.988,26.092,225.988,26.092z"/>
		</g>
	</g>
	<g>
		<g>
			<path class="st0" d="M239.3,37.84c-8.604-0.514-11.832-12.024-11.863-12.14c-0.19-0.702-0.849-1.163-1.584-1.102
				c-0.725,0.066-1.298,0.642-1.359,1.367c-0.86,10.215-11.313,11.963-11.754,12.032c-0.763,0.115-1.313,0.79-1.273,1.561
				c0.04,0.77,0.657,1.384,1.428,1.421c9.027,0.425,11.498,12.719,11.521,12.843c0.138,0.711,0.76,1.217,1.473,1.217
				c0.042,0,0.084-0.001,0.126-0.005c0.765-0.064,1.357-0.693,1.375-1.459c0.193-8.509,12.191-12.777,12.313-12.819
				c0.676-0.235,1.092-0.914,0.994-1.623C240.597,38.424,240.014,37.883,239.3,37.84z M225.733,48.187
				c-1.356-3.131-3.708-6.908-7.587-8.877c2.931-1.404,6.409-3.913,8.202-8.272c1.551,3.071,4.199,6.88,8.334,8.722
				C231.675,41.399,227.76,44.165,225.733,48.187z"/>
		</g>
	</g>
	<g>
		<g>
			<path class="st1" d="M204.289,43.072c-0.689,8.179-9.213,9.47-9.213,9.47c7.318,0.344,9.142,9.944,9.142,9.944
				c0.156-6.844,9.422-10.045,9.422-10.045C206.7,52.026,204.289,43.072,204.289,43.072z"/>
		</g>
	</g>
	<g>
		<g>
			<path class="st0" d="M213.731,50.944c-5.767-0.345-7.973-8.185-7.995-8.264c-0.189-0.702-0.864-1.165-1.581-1.102
				c-0.726,0.065-1.3,0.643-1.361,1.368c-0.578,6.871-7.646,8.066-7.941,8.113c-0.763,0.115-1.313,0.79-1.273,1.561
				c0.04,0.77,0.657,1.384,1.428,1.421c6.035,0.284,7.723,8.644,7.738,8.726c0.136,0.713,0.759,1.22,1.473,1.22
				c0.041,0,0.083-0.001,0.124-0.005c0.766-0.063,1.359-0.694,1.377-1.461c0.13-5.709,8.332-8.634,8.413-8.662
				c0.676-0.234,1.093-0.913,0.996-1.622C215.03,51.528,214.445,50.987,213.731,50.944z M204.146,57.739
				c-0.924-1.885-2.34-3.947-4.447-5.279c1.855-1.042,3.697-2.63,4.87-4.917c1.058,1.874,2.655,3.955,4.941,5.224
				C207.661,53.867,205.522,55.507,204.146,57.739z"/>
		</g>
	</g>
	<g>
		<g>
			<path class="st1" d="M204.289,16.415c-0.689,8.179-9.213,9.471-9.213,9.471c7.318,0.344,9.142,9.944,9.142,9.944
				c0.156-6.845,9.422-10.045,9.422-10.045C206.7,25.369,204.289,16.415,204.289,16.415z"/>
		</g>
	</g>
	<g>
		<g>
			<path class="st0" d="M213.731,24.287c-5.767-0.345-7.973-8.186-7.995-8.265c-0.189-0.702-0.864-1.164-1.581-1.102
				c-0.726,0.065-1.3,0.643-1.361,1.368c-0.578,6.871-7.646,8.067-7.941,8.114c-0.763,0.115-1.313,0.79-1.273,1.561
				c0.04,0.77,0.657,1.384,1.428,1.421c6.035,0.284,7.723,8.644,7.738,8.726c0.136,0.713,0.759,1.22,1.473,1.22
				c0.041,0,0.083-0.001,0.124-0.005c0.766-0.063,1.359-0.694,1.377-1.461c0.13-5.709,8.332-8.634,8.412-8.662
				c0.677-0.234,1.094-0.913,0.997-1.622C215.03,24.871,214.445,24.33,213.731,24.287z M204.146,31.082
				c-0.924-1.886-2.34-3.947-4.447-5.28c1.855-1.041,3.697-2.63,4.87-4.916c1.058,1.874,2.655,3.954,4.941,5.224
				C207.661,27.209,205.522,28.85,204.146,31.082z"/>
		</g>
	</g>
	<g>
		<g>
			<path class="st3" d="M107.5,144.505c-0.36-0.7-0.73-1.38-1.1-2.05c-1.65-2.95-2.3-6.26-2.04-9.53c0.19-2.4,0.89-4.79,2.07-6.97
				c2.73-5.03,4.25-10.65,4.25-16.58c0-5.91-1.51-11.52-4.23-16.53c-0.79-1.48-1.39-3.05-1.76-4.66c-0.7-2.98-0.62-6.11,0.38-9.06
				c0.28-0.82,0.51-1.66,0.7-2.51c0.3-1.42,0.46-2.88,0.46-4.36c0-9.54-6.44-18-16.35-23.22c-4.12-2.18-6.76-6.38-6.76-11.04v-3.58
				H49.93v3.58c0,4.66-2.64,8.86-6.76,11.04c-9.91,5.22-16.35,13.68-16.35,23.22c0,1.48,0.16,2.94,0.46,4.36
				c0.19,0.85,0.42,1.69,0.7,2.51c1,2.95,1.08,6.08,0.38,9.06c-0.37,1.61-0.96,3.18-1.76,4.66c-2.72,5.01-4.23,10.62-4.23,16.53
				c0,5.93,1.53,11.55,4.25,16.58c1.18,2.18,1.88,4.57,2.07,6.97c0.26,3.27-0.39,6.58-2.03,9.53c-0.38,0.67-0.74,1.35-1.1,2.05
				c-5.68,11.08-9.02,25.13-9.02,41.56c0,17.16,3.63,27.86,9.77,34.52c2.06,2.24,3.39,5,3.91,7.99c0.01,0.04,0.01,0.08,0.02,0.11
				c1.04,5.69,5.8,10.15,11.56,10.67c5.72,0.51,10.75-2.7,12.96-7.49c2.05,4.45,6.55,7.54,11.77,7.54c5.21,0,9.71-3.09,11.76-7.54
				c2.21,4.79,7.24,8,12.96,7.49c5.76-0.52,10.52-4.98,11.56-10.67c0.01-0.03,0.01-0.07,0.02-0.11c0.52-2.99,1.85-5.75,3.91-7.99
				c6.14-6.66,9.77-17.36,9.77-34.52C116.51,169.635,113.17,155.585,107.5,144.505z"/>
		</g>
	</g>
	<g>
		<g>
			<path class="st0" d="M108.834,143.819c-0.367-0.714-0.744-1.407-1.125-2.097c-1.457-2.604-2.098-5.605-1.854-8.679
				c0.175-2.203,0.83-4.407,1.893-6.373c2.94-5.417,4.432-11.237,4.432-17.295c0-6.052-1.484-11.854-4.407-17.236
				c-0.74-1.386-1.286-2.83-1.622-4.297c-0.657-2.794-0.539-5.642,0.339-8.231c0.285-0.833,0.535-1.73,0.749-2.685
				c0.327-1.547,0.492-3.119,0.492-4.67c0-9.714-6.412-18.89-17.148-24.546c-3.677-1.946-5.961-5.668-5.961-9.714v-3.58
				c0-0.829-0.671-1.5-1.5-1.5H49.93c-0.829,0-1.5,0.671-1.5,1.5v3.58c0,4.046-2.284,7.769-5.959,9.713
				C31.731,53.365,25.32,62.541,25.32,72.255c0,1.551,0.166,3.123,0.496,4.687c0.21,0.938,0.46,1.835,0.744,2.664
				c0.879,2.594,0.997,5.441,0.338,8.243c-0.342,1.489-0.887,2.93-1.616,4.28c-2.927,5.392-4.412,11.194-4.412,17.246
				c0,6.039,1.491,11.857,4.431,17.294c1.064,1.967,1.719,4.172,1.894,6.375c0.244,3.07-0.394,6.072-1.84,8.671
				c-0.39,0.688-0.76,1.386-1.13,2.106c-6.009,11.721-9.185,26.329-9.185,42.244c0,16.492,3.326,28.116,10.166,35.535
				c1.838,1.999,3.061,4.5,3.536,7.232c0.002,0.011,0.004,0.021,0.006,0.032c0.004,0.028,0.01,0.059,0.017,0.091
				c1.174,6.423,6.479,11.314,12.902,11.895c0.431,0.039,0.86,0.057,1.287,0.057c4.701,0,9.105-2.294,11.806-6.069
				c2.683,3.753,7.063,6.068,11.771,6.068c4.703,0,9.079-2.314,11.761-6.067c2.946,4.118,7.922,6.472,13.094,6.011
				c6.41-0.579,11.708-5.454,12.895-11.859c0.009-0.041,0.017-0.084,0.023-0.129c0.002-0.01,0.003-0.019,0.005-0.029
				c0.475-2.732,1.698-5.233,3.535-7.23c6.841-7.42,10.167-19.044,10.167-35.537C118.01,170.157,114.837,155.55,108.834,143.819z
				 M105.636,219.569c-2.222,2.416-3.701,5.43-4.278,8.718c-0.006,0.033-0.012,0.065-0.017,0.098
				c-0.002,0.01-0.004,0.02-0.006,0.029c-0.933,5.102-5.135,8.986-10.218,9.445c-4.821,0.435-9.438-2.23-11.465-6.624
				c-0.245-0.531-0.777-0.872-1.362-0.872c-0.585,0-1.117,0.341-1.362,0.872c-1.866,4.051-5.948,6.668-10.398,6.668
				c-4.456,0-8.542-2.617-10.408-6.668c-0.245-0.531-0.777-0.872-1.362-0.872c0,0,0,0,0,0c-0.585,0-1.117,0.34-1.362,0.872
				c-2.027,4.393-6.641,7.057-11.463,6.624c-5.084-0.459-9.287-4.343-10.219-9.445c-0.002-0.013-0.005-0.026-0.007-0.039
				c-0.003-0.019-0.007-0.039-0.011-0.059h0c-0.574-3.3-2.055-6.326-4.285-8.75c-6.307-6.841-9.373-17.8-9.373-33.503
				c0-15.441,3.062-29.576,8.854-40.874c0.351-0.682,0.701-1.344,1.077-2.007c1.74-3.128,2.505-6.717,2.214-10.377
				c-0.207-2.617-0.983-5.233-2.246-7.565c-2.7-4.993-4.069-10.332-4.069-15.867c0-5.546,1.362-10.867,4.05-15.816
				c0.859-1.59,1.499-3.285,1.9-5.03c0.785-3.341,0.64-6.759-0.421-9.889c-0.249-0.729-0.47-1.521-0.652-2.334
				c-0.284-1.344-0.428-2.706-0.428-4.05c0-8.58,5.813-16.764,15.552-21.895c4.662-2.467,7.558-7.205,7.558-12.366v-2.08h30.19v2.08
				c0,5.161,2.896,9.899,7.561,12.367c9.736,5.129,15.549,13.313,15.549,21.893c0,1.344-0.144,2.706-0.424,4.033
				c-0.186,0.831-0.406,1.622-0.657,2.355c-1.06,3.125-1.205,6.543-0.421,9.877c0.395,1.718,1.034,3.411,1.903,5.04
				c2.687,4.947,4.048,10.268,4.048,15.814c0,5.553-1.369,10.891-4.069,15.866c-1.262,2.333-2.039,4.949-2.246,7.565
				c-0.292,3.667,0.479,7.256,2.222,10.374c0.363,0.657,0.726,1.324,1.078,2.008c5.787,11.308,8.845,25.442,8.845,40.876
				C115.01,201.768,111.944,212.727,105.636,219.569z"/>
		</g>
	</g>
	<g>
		<g>
			<path class="st6" d="M83.67,16.405H49.379c-4.972,0-9.003,4.031-9.003,9.003c0,4.972,4.031,9.003,9.003,9.003H83.67
				c4.972,0,9.003-4.031,9.003-9.003C92.673,20.436,88.642,16.405,83.67,16.405z"/>
		</g>
	</g>
	<g>
		<g>
			<path class="st0" d="M83.67,14.905H49.379c-5.792,0-10.503,4.711-10.503,10.503s4.711,10.503,10.503,10.503H83.67
				c5.792,0,10.503-4.711,10.503-10.503S89.462,14.905,83.67,14.905z M83.67,32.911H49.379c-4.137,0-7.503-3.366-7.503-7.503
				s3.366-7.503,7.503-7.503H83.67c4.137,0,7.503,3.366,7.503,7.503S87.808,32.911,83.67,32.911z"/>
		</g>
	</g>
	<g>
		<g>
			<path class="st6" d="M212.042,211.395L179.337,50.908c-0.32-1.57-1.373-2.892-2.832-3.554l-51.66-23.461
				c-2.511-1.141-5.477-0.029-6.62,2.485c-1.142,2.514-0.029,5.478,2.485,6.62l49.338,22.406l32.194,157.988
				c0.482,2.369,2.567,4.002,4.895,4.002c0.331,0,0.666-0.033,1.003-0.101C210.846,216.742,212.593,214.101,212.042,211.395z"/>
		</g>
	</g>
	<g>
		<g>
			<path class="st0" d="M213.512,211.096L180.808,50.608c-0.415-2.035-1.791-3.762-3.682-4.62l-51.66-23.461
				c-1.579-0.718-3.345-0.777-4.971-0.167c-1.626,0.61-2.917,1.817-3.636,3.398c-1.482,3.263-0.033,7.124,3.231,8.606l48.641,22.089
				l32.042,157.238c0.614,3.015,3.291,5.203,6.364,5.203c0.434,0,0.871-0.044,1.303-0.132c1.701-0.347,3.166-1.335,4.124-2.783
				S213.858,212.797,213.512,211.096z M210.062,214.325c-0.516,0.78-1.304,1.312-2.219,1.498c-1.896,0.386-3.752-0.877-4.13-2.73
				L171.519,55.104c-0.096-0.471-0.412-0.868-0.85-1.066l-49.338-22.406c-1.757-0.798-2.538-2.877-1.74-4.634
				c0.387-0.851,1.082-1.501,1.958-1.83c0.401-0.15,0.817-0.226,1.232-0.226c0.492,0,0.982,0.105,1.444,0.315l51.661,23.461
				c1.018,0.462,1.759,1.393,1.982,2.488l32.704,160.488C210.759,212.611,210.578,213.544,210.062,214.325z"/>
		</g>
	</g>
	<g>
		<g>
			<path class="st2" d="M228.909,97.718h-82.216c-6.204,0-11.069,5.327-10.507,11.506l10.98,120.776
				c0.494,5.434,5.051,9.595,10.507,9.595h60.257c5.457,0,10.013-4.161,10.508-9.595l10.98-120.776
				C239.978,103.045,235.113,97.718,228.909,97.718z"/>
		</g>
	</g>
	<g>
		<g>
			<path class="st0" d="M237.807,100.142c-2.277-2.494-5.521-3.924-8.898-3.924h-58.534c-0.828,0-1.5,0.671-1.5,1.5
				s0.672,1.5,1.5,1.5h58.534c2.574,0,4.947,1.047,6.684,2.948c1.735,1.9,2.563,4.359,2.33,6.922l-10.979,120.775
				c-0.427,4.693-4.302,8.231-9.014,8.231h-60.257c-4.712,0-8.586-3.539-9.013-8.231l-10.981-120.775
				c-0.233-2.563,0.595-5.022,2.33-6.922c1.736-1.901,4.109-2.948,6.684-2.948h9.64c0.828,0,1.5-0.671,1.5-1.5s-0.672-1.5-1.5-1.5
				h-9.64c-3.378,0-6.621,1.431-8.898,3.924c-2.278,2.494-3.409,5.854-3.104,9.217l10.981,120.775
				c0.568,6.248,5.727,10.96,12.001,10.96h60.257c6.274,0,11.434-4.712,12.002-10.96l10.979-120.775
				C241.216,105.996,240.085,102.636,237.807,100.142z"/>
		</g>
	</g>
	<g>
		<g>
			<path class="st7" d="M137.663,125.488l9.501,104.511c0.494,5.434,5.051,9.595,10.507,9.595h60.257
				c5.457,0,10.013-4.161,10.507-9.595l9.501-104.511H137.663z"/>
		</g>
	</g>
	<g>
		<g>
			<path class="st0" d="M239.045,124.476c-0.284-0.311-0.686-0.488-1.107-0.488H137.663c-0.422,0-0.823,0.177-1.107,0.488
				c-0.284,0.312-0.425,0.728-0.387,1.147l9.502,104.511c0.568,6.248,5.727,10.96,12.001,10.96h60.257
				c6.274,0,11.434-4.712,12.001-10.96l9.502-104.511C239.47,125.204,239.329,124.788,239.045,124.476z M226.941,229.863
				c-0.426,4.693-4.301,8.231-9.013,8.231h-60.257c-4.712,0-8.586-3.539-9.013-8.231l-9.354-102.875h96.989L226.941,229.863z"/>
		</g>
	</g>
	<g>
		<g>
			<path class="st2" d="M154.437,131.02c-3.253,0-5.89,2.637-5.89,5.889s2.637,5.89,5.89,5.89c3.253,0,5.889-2.637,5.889-5.89
				S157.69,131.02,154.437,131.02z"/>
		</g>
	</g>
	<g>
		<g>
			<path class="st0" d="M154.438,129.52c-4.074,0-7.39,3.315-7.39,7.39s3.315,7.39,7.39,7.39s7.39-3.315,7.39-7.39
				S158.512,129.52,154.438,129.52z M154.438,141.299c-2.421,0-4.39-1.969-4.39-4.39s1.969-4.39,4.39-4.39s4.39,1.969,4.39,4.39
				S156.858,141.299,154.438,141.299z"/>
		</g>
	</g>
	<g>
		<g>
			<path class="st2" d="M174.251,192.828c-3.253,0-5.89,2.637-5.89,5.89s2.637,5.889,5.89,5.889s5.89-2.637,5.89-5.889
				S177.503,192.828,174.251,192.828z"/>
		</g>
	</g>
	<g>
		<g>
			<path class="st0" d="M174.251,191.329c-4.074,0-7.39,3.315-7.39,7.389c0,4.075,3.315,7.39,7.39,7.39
				c4.074,0,7.389-3.315,7.389-7.39C181.64,194.644,178.325,191.329,174.251,191.329z M174.251,203.107
				c-2.421,0-4.39-1.969-4.39-4.39s1.969-4.389,4.39-4.389c2.42,0,4.389,1.969,4.389,4.389S176.671,203.107,174.251,203.107z"/>
		</g>
	</g>
	<g>
		<g>
			
				<ellipse transform="matrix(0.9871 -0.1602 0.1602 0.9871 -33.696 28.5647)" class="st2" cx="160.327" cy="223.284" rx="5.889" ry="5.89"/>
		</g>
	</g>
	<g>
		<g>
			<path class="st0" d="M160.327,215.895c-4.074,0-7.39,3.315-7.39,7.39c0,4.074,3.315,7.389,7.39,7.389
				c4.074,0,7.39-3.315,7.39-7.389C167.717,219.209,164.401,215.895,160.327,215.895z M160.327,227.673
				c-2.421,0-4.39-1.969-4.39-4.389s1.969-4.39,4.39-4.39c2.421,0,4.39,1.969,4.39,4.39S162.748,227.673,160.327,227.673z"/>
		</g>
	</g>
	<g>
		<g>
			<path class="st2" d="M204.975,162.767c-3.253,0-5.89,2.637-5.89,5.89s2.637,5.889,5.89,5.889s5.89-2.637,5.89-5.889
				S208.228,162.767,204.975,162.767z"/>
		</g>
	</g>
	<g>
		<g>
			<path class="st0" d="M204.976,161.267c-4.074,0-7.39,3.315-7.39,7.39s3.315,7.39,7.39,7.39s7.389-3.315,7.389-7.39
				S209.05,161.267,204.976,161.267z M204.976,173.046c-2.421,0-4.39-1.969-4.39-4.39s1.969-4.39,4.39-4.39
				c2.42,0,4.389,1.969,4.389,4.39S207.396,173.046,204.976,173.046z"/>
		</g>
	</g>
	<g>
		<g>
			<path class="st2" d="M218.033,135.6c-3.253,0-5.889,2.637-5.889,5.889s2.637,5.89,5.889,5.89c3.253,0,5.89-2.637,5.89-5.89
				S221.286,135.6,218.033,135.6z"/>
		</g>
	</g>
	<g>
		<g>
			<path class="st0" d="M218.033,134.1c-4.074,0-7.39,3.315-7.39,7.39s3.315,7.39,7.39,7.39s7.39-3.315,7.39-7.39
				S222.107,134.1,218.033,134.1z M218.033,145.879c-2.421,0-4.39-1.969-4.39-4.39s1.969-4.39,4.39-4.39s4.39,1.969,4.39,4.39
				S220.454,145.879,218.033,145.879z"/>
		</g>
	</g>
	<g>
		<g>
			<circle class="st2" cx="190.511" cy="226.534" r="5.89"/>
		</g>
	</g>
	<g>
		<g>
			<path class="st0" d="M190.511,219.145c-4.074,0-7.39,3.315-7.39,7.39c0,4.074,3.315,7.389,7.39,7.389s7.39-3.315,7.39-7.389
				C197.9,222.459,194.585,219.145,190.511,219.145z M190.511,230.923c-2.421,0-4.39-1.969-4.39-4.389s1.969-4.39,4.39-4.39
				s4.39,1.969,4.39,4.39S192.932,230.923,190.511,230.923z"/>
		</g>
	</g>
	<g>
		<g>
			<path class="st2" d="M207.261,125.363l-12.802-12.802c-1.542-1.542-4.041-1.542-5.583,0l-12.802,12.802
				c-1.542,1.542-1.542,4.041,0,5.583l12.802,12.802c1.542,1.542,4.041,1.542,5.583,0l12.802-12.802
				C208.803,129.404,208.803,126.905,207.261,125.363z"/>
		</g>
	</g>
	<g>
		<g>
			<path class="st0" d="M208.321,124.303L195.52,111.5c-2.126-2.124-5.582-2.123-7.704,0l-12.802,12.802
				c-1.029,1.029-1.596,2.397-1.596,3.853c0,1.455,0.566,2.823,1.596,3.852l12.802,12.802c1.062,1.062,2.457,1.593,3.852,1.593
				c1.396,0,2.791-0.531,3.853-1.593l12.802-12.802c1.029-1.029,1.596-2.397,1.596-3.852
				C209.917,126.699,209.351,125.332,208.321,124.303z M206.2,129.885l-12.802,12.802c-0.954,0.954-2.506,0.956-3.462,0
				l-12.802-12.803c-0.463-0.462-0.717-1.077-0.717-1.73c0-0.654,0.254-1.269,0.717-1.731l12.802-12.802
				c0.955-0.954,2.507-0.955,3.462,0l12.802,12.803c0.463,0.462,0.717,1.077,0.717,1.73
				C206.917,128.808,206.663,129.423,206.2,129.885z"/>
		</g>
	</g>
	<g>
		<g>
			<path class="st2" d="M184.104,159.059l-17.232-5.553c-2.075-0.669-4.299,0.472-4.968,2.547l-5.553,17.233
				c-0.669,2.075,0.472,4.299,2.547,4.968l17.233,5.552c2.075,0.669,4.299-0.471,4.968-2.547l5.553-17.233
				C187.319,161.952,186.179,159.728,184.104,159.059z"/>
		</g>
	</g>
	<g>
		<g>
			<path class="st0" d="M187.741,160.331c-0.664-1.295-1.793-2.253-3.178-2.7l-17.232-5.553c-2.859-0.922-5.935,0.655-6.856,3.514
				l-5.553,17.232c-0.446,1.385-0.327,2.861,0.337,4.156c0.664,1.295,1.793,2.253,3.178,2.7l17.232,5.553
				c0.55,0.177,1.114,0.265,1.677,0.265c0.853,0,1.698-0.203,2.479-0.603c1.295-0.664,2.254-1.792,2.699-3.177l5.553-17.232
				C188.524,163.102,188.404,161.626,187.741,160.331z M185.223,163.567L179.67,180.8c-0.2,0.622-0.631,1.129-1.213,1.427
				c-0.581,0.299-1.244,0.353-1.867,0.152l-17.232-5.553c-0.622-0.201-1.129-0.631-1.428-1.213
				c-0.298-0.582-0.352-1.245-0.151-1.867l5.553-17.232c0.414-1.285,1.797-1.994,3.08-1.579l17.232,5.553
				c0.622,0.201,1.13,0.631,1.428,1.213C185.369,162.282,185.423,162.944,185.223,163.567z"/>
		</g>
	</g>
	<g>
		<g>
			<path class="st2" d="M219.376,205.319l-3.214-17.817c-0.387-2.146-2.44-3.571-4.586-3.184l-17.817,3.214
				c-2.146,0.387-3.571,2.44-3.184,4.586l3.214,17.817c0.387,2.146,2.44,3.571,4.586,3.184l17.817-3.214
				C218.337,209.517,219.763,207.464,219.376,205.319z"/>
		</g>
	</g>
	<g>
		<g>
			<path class="st0" d="M220.853,205.053l-3.215-17.817c-0.259-1.432-1.059-2.678-2.254-3.508c-1.196-0.83-2.642-1.146-4.074-0.886
				l-17.817,3.214c-2.956,0.533-4.927,3.372-4.395,6.328l3.215,17.817c0.259,1.432,1.059,2.678,2.254,3.508
				c0.923,0.641,1.995,0.975,3.095,0.975c0.325,0,0.652-0.029,0.979-0.088l17.817-3.214
				C219.414,210.847,221.385,208.008,220.853,205.053z M215.925,208.428l-17.817,3.214c-0.643,0.116-1.293-0.025-1.83-0.398
				c-0.536-0.373-0.896-0.932-1.012-1.576l-3.215-17.817c-0.239-1.328,0.646-2.604,1.975-2.843l17.817-3.214
				c0.146-0.026,0.294-0.04,0.439-0.04c0.494,0,0.976,0.15,1.391,0.438c0.536,0.373,0.896,0.932,1.012,1.576l3.215,17.817
				C218.139,206.913,217.253,208.188,215.925,208.428z"/>
		</g>
	</g>
	<g>
		<g>
			<path class="st1" d="M104.36,132.925c0.19-2.4,0.89-4.79,2.07-6.97c2.73-5.03,4.25-10.65,4.25-16.58
				c0-5.91-1.51-11.52-4.23-16.53c-0.79-1.48-1.39-3.05-1.76-4.66c-0.7-2.98-0.62-6.11,0.38-9.06c0.28-0.82,0.51-1.66,0.7-2.51
				H27.28c0.19,0.85,0.42,1.69,0.7,2.51c1,2.95,1.08,6.08,0.38,9.06c-0.37,1.61-0.96,3.18-1.76,4.66
				c-2.72,5.01-4.23,10.62-4.23,16.53c0,5.93,1.53,11.55,4.25,16.58c1.18,2.18,1.88,4.57,2.07,6.97c0.26,3.27-0.39,6.58-2.03,9.53
				c-0.38,0.67-0.74,1.35-1.1,2.05h81.94c-0.36-0.7-0.73-1.38-1.1-2.05C104.75,139.505,104.1,136.195,104.36,132.925z"/>
		</g>
	</g>
	<g>
		<g>
			<path class="st0" d="M107.709,141.722c-1.457-2.604-2.098-5.605-1.854-8.679c0.175-2.203,0.83-4.407,1.893-6.373
				c2.94-5.417,4.432-11.237,4.432-17.295c0-6.052-1.484-11.854-4.407-17.236c-0.74-1.386-1.286-2.83-1.622-4.297
				c-0.657-2.794-0.539-5.642,0.339-8.231c0.285-0.833,0.535-1.73,0.745-2.668c0.099-0.444-0.009-0.91-0.294-1.265
				c-0.285-0.355-0.715-0.562-1.17-0.562H27.28c-0.455,0-0.886,0.207-1.17,0.562c-0.285,0.355-0.393,0.821-0.294,1.265
				c0.21,0.938,0.46,1.835,0.744,2.664c0.879,2.594,0.997,5.441,0.338,8.243c-0.342,1.489-0.887,2.93-1.616,4.28
				c-2.927,5.392-4.412,11.194-4.412,17.246c0,6.039,1.491,11.857,4.431,17.294c1.064,1.967,1.719,4.172,1.894,6.375
				c0.244,3.07-0.394,6.072-1.84,8.671c-0.39,0.688-0.76,1.386-1.129,2.104c-0.239,0.465-0.219,1.021,0.054,1.467
				c0.272,0.446,0.757,0.718,1.28,0.718h17.449c0.829,0,1.5-0.671,1.5-1.5s-0.671-1.5-1.5-1.5h-14.94
				c1.67-3.086,2.402-6.608,2.116-10.198c-0.207-2.617-0.983-5.233-2.246-7.565c-2.7-4.993-4.069-10.332-4.069-15.867
				c0-5.546,1.362-10.867,4.05-15.816c0.859-1.59,1.499-3.285,1.9-5.03c0.785-3.341,0.64-6.759-0.421-9.889
				c-0.059-0.171-0.116-0.346-0.171-0.524h74.593c-0.056,0.179-0.113,0.355-0.172,0.528c-1.06,3.125-1.205,6.543-0.421,9.877
				c0.395,1.718,1.034,3.411,1.903,5.04c2.687,4.947,4.048,10.268,4.048,15.814c0,5.553-1.369,10.891-4.069,15.866
				c-1.262,2.333-2.039,4.949-2.246,7.565c-0.286,3.598,0.45,7.122,2.125,10.199H57.031c-0.829,0-1.5,0.671-1.5,1.5
				s0.671,1.5,1.5,1.5H107.5c0.523,0,1.008-0.272,1.28-0.718c0.272-0.446,0.293-1.002,0.054-1.467
				C108.467,143.105,108.09,142.412,107.709,141.722z"/>
		</g>
	</g>
	<g>
		<g>
			
				<ellipse transform="matrix(0.3827 -0.9239 0.9239 0.3827 -61.0761 129.7108)" class="st2" cx="66.525" cy="110.559" rx="26.148" ry="26.148"/>
		</g>
	</g>
	<g>
		<g>
			<path class="st0" d="M66.525,82.911c-15.246,0-27.648,12.403-27.648,27.648s12.403,27.648,27.648,27.648
				c15.246,0,27.648-12.403,27.648-27.648S81.77,82.911,66.525,82.911z M66.525,135.208c-13.591,0-24.648-11.057-24.648-24.648
				s11.057-24.648,24.648-24.648c13.591,0,24.648,11.057,24.648,24.648S80.116,135.208,66.525,135.208z"/>
		</g>
	</g>
	<g>
		<g>
			<path class="st12" d="M235.59,102.165c-1.73-1.9-4.11-2.95-6.68-2.95h-9.18c2.57,0,4.94,1.05,6.68,2.95
				c1.74,1.9,2.56,4.36,2.33,6.92l-1.35,14.9h9.18l1.35-14.9C238.16,106.525,237.33,104.065,235.59,102.165z"/>
		</g>
	</g>
	<g>
		<g>
			<path class="st10" d="M227.11,126.985l-6.82,74.99l0.56,3.08c0.26,1.43-0.05,2.88-0.88,4.07c-0.11,0.17-0.24,0.32-0.37,0.47
				l-1.84,20.27c-0.43,4.69-4.3,8.23-9.01,8.23h9.18c4.71,0,8.59-3.54,9.01-8.23l9.35-102.88H227.11z"/>
		</g>
	</g>
	<g>
		<g>
			<path class="st8" d="M89.18,50.365c-4.66-2.47-7.56-7.21-7.56-12.37v-2.08H70.34v2.08c0,5.16,2.9,9.9,7.56,12.37
				c9.74,5.13,15.55,13.31,15.55,21.89c0,0.95-0.1,1.91-0.24,2.86h11.28c0.14-0.95,0.24-1.91,0.24-2.86
				C104.73,63.675,98.92,55.495,89.18,50.365z"/>
		</g>
	</g>
	<g>
		<g>
			<path class="st8" d="M106.56,146.005H95.28c5.53,11.17,8.45,24.99,8.45,40.06c0,15.7-3.07,26.66-9.37,33.5
				c-2.23,2.42-3.71,5.43-4.28,8.72c-0.01,0.04-0.02,0.07-0.02,0.1c0,0.01,0,0.02-0.01,0.03c-0.63,3.44-2.75,6.33-5.62,7.99
				c1.99,1.13,4.31,1.67,6.69,1.46c5.08-0.46,9.28-4.35,10.21-9.45c0.01-0.01,0.01-0.02,0.01-0.03c0.01-0.03,0.01-0.06,0.02-0.1
				c0.58-3.29,2.05-6.3,4.28-8.72c6.3-6.84,9.37-17.8,9.37-33.5C115.01,170.995,112.09,157.175,106.56,146.005z"/>
		</g>
	</g>
	<g>
		<g>
			<path class="st11" d="M83.67,17.905H72.39c4.14,0,7.5,3.37,7.5,7.5c0,4.14-3.36,7.51-7.5,7.51h11.28c4.14,0,7.5-3.37,7.5-7.51
				C91.17,21.275,87.81,17.905,83.67,17.905z"/>
		</g>
	</g>
	<g>
		<g>
			<path class="st9" d="M105.11,125.245c2.7-4.98,4.07-10.32,4.07-15.87c0-5.55-1.36-10.87-4.05-15.81
				c-0.87-1.63-1.51-3.33-1.9-5.04c-0.79-3.34-0.64-6.76,0.42-9.88c0.06-0.17,0.12-0.35,0.17-0.53H92.54
				c-0.05,0.18-0.11,0.36-0.17,0.53c-1.06,3.12-1.21,6.54-0.42,9.88c0.39,1.71,1.03,3.41,1.9,5.04c2.69,4.94,4.05,10.26,4.05,15.81
				c0,5.55-1.37,10.89-4.07,15.87c-1.26,2.33-2.04,4.94-2.25,7.56c-0.28,3.6,0.45,7.12,2.13,10.2h11.28
				c-1.68-3.08-2.41-6.6-2.13-10.2C103.07,130.185,103.85,127.575,105.11,125.245z"/>
		</g>
	</g>
	<g>
		<g>
			<path class="st0" d="M239.045,124.476c-0.284-0.311-0.686-0.488-1.107-0.488H137.663c-0.422,0-0.823,0.177-1.107,0.488
				c-0.284,0.312-0.425,0.728-0.387,1.147l9.502,104.511c0.568,6.248,5.727,10.96,12.001,10.96h60.257
				c6.274,0,11.434-4.712,12.001-10.96l9.502-104.511C239.47,125.204,239.329,124.788,239.045,124.476z M226.941,229.863
				c-0.426,4.693-4.301,8.231-9.013,8.231h-60.257c-4.712,0-8.586-3.539-9.013-8.231l-9.354-102.875h96.989L226.941,229.863z"/>
		</g>
	</g>
</g>
</svg>
