<svg fill="#000000" xmlns="http://www.w3.org/2000/svg"  viewBox="0 0 48 48" width="24px" height="24px"><path d="M 36.09375 5.6660156 C 35.350383 5.7266316 34.745638 5.9419973 34.228516 6.109375 C 30.520991 7.3112892 24.916016 6.6983392 19.330078 12.283203 C 18.924111 12.68917 18.551351 13.111049 18.199219 13.541016 C 17.717936 12.849791 17.268832 12.179372 16.929688 11.521484 C 16.679258 11.036123 16.402208 10.453595 15.914062 9.8847656 C 15.425918 9.3159364 14.565991 8.7421875 13.568359 8.7421875 C 12.570728 8.7421875 11.713028 9.31584 11.224609 9.8847656 C 10.73619 10.453691 10.457337 11.03539 10.207031 11.521484 C 8.4124163 15.002755 3.9550781 18.543648 3.9550781 26.46875 C 3.9550781 29.882576 4.93423 32.999721 6.6132812 35.339844 C 8.2923325 37.679967 10.764873 39.277344 13.570312 39.277344 C 14.447761 39.277344 15.286021 39.104732 16.083984 38.818359 C 18.504239 41.036263 22.118536 42.347656 26.152344 42.347656 C 34.137232 42.347656 37.703817 37.987757 41.230469 36.222656 C 41.720782 35.97725 42.306449 35.706775 42.880859 35.228516 C 43.45527 34.750256 44.046875 33.895606 44.046875 32.892578 C 44.046875 31.890053 43.455297 31.035083 42.880859 30.556641 C 42.306421 30.078198 41.721651 29.806138 41.230469 29.560547 L 41.230469 29.5625 C 39.02646 28.459769 36.826852 26.37186 33.519531 24.935547 C 38.295828 19.617836 37.804304 14.36262 38.949219 10.830078 C 39.116641 10.313318 39.333903 9.7101246 39.394531 8.9667969 C 39.455166 8.2234694 39.259245 7.2104166 38.554688 6.5058594 C 37.85013 5.8013022 36.837117 5.6053993 36.09375 5.6660156 z M 36.419922 8.6425781 C 36.415403 8.6581432 36.409938 8.6534866 36.404297 8.7226562 C 36.386177 8.9448286 36.263281 9.38901 36.095703 9.90625 C 34.581685 14.577632 35.471217 18.794408 30.65625 23.609375 C 28.327352 25.938273 25.496489 27.135831 23.15625 27.25 C 23.167781 26.990345 23.183594 26.732158 23.183594 26.46875 L 23.183594 26.466797 C 23.182327 21.79592 21.629395 18.668085 19.990234 16.158203 C 20.423595 15.553157 20.89521 14.960259 21.451172 14.404297 C 26.266573 9.5898212 30.482634 10.478063 35.152344 8.9648438 C 35.670222 8.7972215 36.115508 8.6743837 36.337891 8.65625 C 36.407442 8.6505785 36.404462 8.6471152 36.419922 8.6425781 z M 13.568359 11.742188 C 13.584729 11.742188 13.489609 11.666471 13.636719 11.837891 C 13.783825 12.009311 14.0131 12.410846 14.263672 12.896484 C 16.525057 17.283214 20.181743 19.643743 20.183594 26.46875 C 20.183594 29.300924 19.345589 31.836967 18.087891 33.589844 C 16.830192 35.342721 15.245872 36.277344 13.570312 36.277344 C 11.894754 36.277344 10.30848 35.342721 9.0507812 33.589844 C 7.7930826 31.836967 6.9550781 29.300924 6.9550781 26.46875 C 6.9550781 19.643852 10.613615 17.283214 12.875 12.896484 C 13.124694 12.411578 13.352919 12.011168 13.5 11.839844 C 13.647081 11.668519 13.551989 11.742188 13.568359 11.742188 z M 31.068359 27.212891 C 34.526877 28.375368 36.730014 30.663769 39.888672 32.244141 C 40.37949 32.48955 40.787376 32.71677 40.960938 32.861328 C 40.996882 32.891266 40.989221 32.879065 41.005859 32.890625 C 40.989201 32.902007 40.997672 32.891289 40.960938 32.921875 C 40.787098 33.066615 40.377406 33.29347 39.886719 33.539062 C 35.46537 35.751962 33.069456 39.347656 26.152344 39.347656 C 23.212173 39.347656 20.615424 38.461962 18.833984 37.185547 C 19.456569 36.645819 20.029248 36.031326 20.525391 35.339844 C 21.551932 33.909134 22.312456 32.185025 22.751953 30.283203 C 25.525274 30.316188 28.470953 29.215801 31.068359 27.212891 z"/></svg>