<svg fill="#000000" xmlns="http://www.w3.org/2000/svg"  viewBox="0 0 48 48" width="24px" height="24px"><path d="M 12.427734 5 C 10.526809 5 9.0429687 6.6311991 9.0429688 8.5 L 9.0429688 12.050781 L 6.5839844 15.800781 A 1.50015 1.50015 0 0 0 6.4960938 15.953125 C 6.1701472 16.605019 6 17.324287 6 18.054688 L 6 37.900391 C 6 39.594345 7.4056546 41 9.0996094 41 L 27.263672 41 C 28.738798 42.147175 30.692484 42.999493 33 43 L 33.001953 43 C 35.741886 42.999398 37.991822 41.803032 39.521484 40.330078 C 41.051485 38.856754 42 37.22125 42 35.5 C 42 34.990304 41.900235 34.510102 41.630859 34.042969 C 41.369951 33.590517 40.819149 33.040263 40.001953 33.005859 L 37.701172 29.671875 C 36.579916 28.047225 34.791486 27.234965 33.001953 27.234375 L 33.001953 18.054688 C 33.001953 17.324286 32.829853 16.605019 32.503906 15.953125 A 1.50015 1.50015 0 0 0 32.417969 15.800781 L 29.958984 12.052734 L 29.958984 8.5 C 29.958984 6.6311991 28.473191 5 26.572266 5 L 12.427734 5 z M 12.427734 8 L 26.572266 8 C 26.75534 8 26.958984 8.1588009 26.958984 8.5 L 26.958984 11 L 12.042969 11 L 12.042969 8.5 C 12.042969 8.1588009 12.24466 8 12.427734 8 z M 11.351562 14 L 27.648438 14 L 29.830078 17.328125 C 29.938246 17.555913 30.001953 17.802605 30.001953 18.054688 L 30.001953 28.072266 C 29.351303 28.467116 28.763821 28.995291 28.296875 29.671875 L 25.996094 33.005859 C 25.17999 33.041073 24.629839 33.590882 24.369141 34.042969 C 24.099765 34.510102 24 34.990304 24 35.5 C 24 36.35784 24.236395 37.194219 24.662109 38 L 9.0996094 38 C 9.0255641 38 9 37.974436 9 37.900391 L 9 18.054688 C 9 17.801168 9.064451 17.553058 9.1738281 17.324219 L 11.351562 14 z M 19.472656 17.626953 C 19.472656 17.626953 17.817547 19.279641 17.810547 20.806641 C 17.859547 22.624641 19.207594 23.382859 19.558594 23.380859 C 19.853594 23.320859 21.264437 22.610422 21.273438 20.732422 C 21.222437 19.264422 19.472656 17.626953 19.472656 17.626953 z M 16.365234 22.595703 C 16.324236 22.588615 16.301406 22.594375 16.300781 22.609375 C 15.611781 23.415375 15.214125 24.939734 15.953125 26.177734 C 16.862125 27.709734 18.425922 27.775437 18.669922 27.648438 C 18.914922 27.518438 19.181406 26.235047 18.566406 24.873047 C 17.833156 23.265672 16.652221 22.645318 16.365234 22.595703 z M 22.578125 22.595703 C 22.291139 22.645496 21.112156 23.266547 20.378906 24.873047 C 19.763906 26.235047 20.140719 27.517484 20.386719 27.646484 C 20.631719 27.775484 22.195516 27.709734 23.103516 26.177734 C 23.843516 24.938734 23.332578 23.415375 22.642578 22.609375 C 22.641953 22.594375 22.619123 22.58859 22.578125 22.595703 z M 15.628906 28.017578 C 15.479359 28.023859 15.396484 28.044922 15.396484 28.044922 C 15.396484 28.044922 14.727078 29.730031 16.205078 31.207031 C 17.681078 32.684031 18.582172 32.429547 18.951172 32.060547 C 19.321172 31.691547 19.318578 30.302953 18.267578 29.251953 C 17.119328 28.104453 16.077547 27.998734 15.628906 28.017578 z M 23.333984 28.017578 C 22.917125 27.9985 21.939266 28.103703 20.791016 29.251953 C 19.740016 30.303953 19.738422 31.691547 20.107422 32.060547 C 20.476422 32.429547 21.373562 32.685031 22.851562 31.207031 C 24.328563 29.730031 23.548828 28.044922 23.548828 28.044922 C 23.548828 28.044922 23.472938 28.023937 23.333984 28.017578 z M 33 30.173828 C 33.840031 30.173828 34.679085 30.575193 35.232422 31.376953 L 36.353516 33 L 29.644531 33 L 30.765625 31.376953 C 31.318962 30.575193 32.159969 30.173828 33 30.173828 z M 27.179688 36 L 38.820312 36 C 38.638458 36.544193 38.253066 37.386472 37.439453 38.169922 C 36.373646 39.196217 34.875112 39.999404 33.001953 40 L 33 40 C 31.125654 39.999404 29.626546 39.196204 28.560547 38.169922 C 27.746834 37.386482 27.361538 36.544168 27.179688 36 z"/></svg>