<svg fill="#000000" xmlns="http://www.w3.org/2000/svg"  viewBox="0 0 48 48" width="24px" height="24px"><path d="M 20.490234 3.3046875 C 19.318234 3.3636875 18.220516 3.9162188 17.478516 4.8242188 L 10.789062 13 L 10.533203 13 C 9.3532031 13 8.2613281 13.587266 7.6113281 14.572266 C 6.9623281 15.557266 6.8514063 16.793906 7.3164062 17.878906 L 8.9335938 21.652344 C 8.3525938 24.383344 6 35.593172 6 37.951172 C 6 39.532172 6.6801875 41.036078 7.8671875 42.080078 C 8.8771875 42.968078 10.172953 43.450219 11.501953 43.449219 C 11.735953 43.449219 11.970078 43.434297 12.205078 43.404297 L 21.912109 42.152344 C 23.043109 42.006344 24.955891 42.006344 26.087891 42.152344 L 35.535156 43.371094 L 35.529297 40.345703 L 26.472656 39.177734 C 25.085656 38.998734 22.914297 38.998734 21.529297 39.177734 L 11.820312 40.429688 C 11.098313 40.525687 10.397609 40.310125 9.8496094 39.828125 C 9.3026094 39.347125 9 38.680172 9 37.951172 C 9 36.384172 10.539844 28.562 11.714844 23 L 28 23 L 28 22.5 C 28 21.521 28.403734 20.636 29.052734 20 L 11.5 20 C 11.496 20 11.493234 20.001953 11.490234 20.001953 L 10.074219 16.697266 C 9.9812188 16.481266 10.059234 16.308609 10.115234 16.224609 C 10.170234 16.141609 10.299203 16 10.533203 16 L 28.121094 16 C 28.041094 15.566 28 15.118109 28 14.662109 L 28 13.267578 C 28 13.175578 28.021344 13.091 28.027344 13 L 14.666016 13 L 19.800781 6.7265625 C 20.010781 6.4695625 20.308625 6.3187344 20.640625 6.3027344 C 20.959625 6.2887344 21.285531 6.405625 21.519531 6.640625 L 23.058594 8.1796875 C 24.681594 9.8006875 27.321359 9.8016875 28.943359 8.1796875 C 29.264359 7.8576875 29.635031 7.8277969 29.832031 7.8417969 C 30.027031 7.8527969 30.396734 7.92525 30.677734 8.28125 L 31.332031 9.1113281 C 31.633031 9.0423281 31.944578 9 32.267578 9 L 34.662109 9 C 34.803109 9 34.943984 9.0163906 35.083984 9.0253906 L 33.03125 6.421875 C 32.29525 5.489875 31.194766 4.9157031 30.009766 4.8457031 C 28.825766 4.7827031 27.662266 5.2186406 26.822266 6.0566406 C 26.369266 6.5096406 25.633688 6.5096406 25.179688 6.0566406 L 23.640625 4.5175781 C 22.810625 3.6875781 21.659234 3.2516875 20.490234 3.3046875 z M 39.417969 8 C 38.589969 8.002 37.919875 8.6759063 37.921875 9.5039062 L 37.927734 12.146484 C 37.022182 11.439001 35.89721 11 34.662109 11 L 32.267578 11 C 31.016578 11 30 12.016578 30 13.267578 L 30 14.662109 C 30 17.604109 32.395891 20 35.337891 20 L 37.732422 20 C 37.805251 20 37.874224 19.985255 37.945312 19.978516 L 37.958984 26 L 35.337891 26 C 34.048891 26 33 24.951109 33 23.662109 L 33 22.5 C 33 21.671 32.329 21 31.5 21 C 30.671 21 30 21.671 30 22.5 L 30 23.662109 C 30 26.604109 32.395891 29 35.337891 29 L 37.964844 29 L 37.978516 35 L 35.337891 35 C 34.048891 35 33 33.951109 33 32.662109 L 33 31.5 C 33 30.671 32.329 30 31.5 30 C 30.671 30 30 30.671 30 31.5 L 30 32.662109 C 30 35.604109 32.395891 38 35.337891 38 L 37.986328 38 L 38 44.503906 C 38.002 45.331906 38.673 46 39.5 46 L 39.501953 46 C 40.330953 45.998 41.000047 45.325094 40.998047 44.496094 L 40.984375 38 L 42.662109 38 C 45.604109 38 48 35.604109 48 32.662109 L 48 31.5 C 48 30.671 47.329 30 46.5 30 C 45.671 30 45 30.671 45 31.5 L 45 32.662109 C 45 33.951109 43.951109 35 42.662109 35 L 40.976562 35 L 40.962891 29 L 42.662109 29 C 45.604109 29 48 26.604109 48 23.662109 L 48 22.5 C 48 21.671 47.329 21 46.5 21 C 45.671 21 45 21.671 45 22.5 L 45 23.662109 C 45 24.951109 43.951109 26 42.662109 26 L 40.957031 26 L 40.943359 20 L 42.662109 20 C 45.604109 20 48 17.604109 48 14.662109 L 48 13.267578 C 48 12.016578 46.983422 11 45.732422 11 L 43.337891 11 C 42.469366 11 41.649462 11.212118 40.923828 11.582031 L 40.919922 9.4960938 C 40.917922 8.6680938 40.246922 8 39.419922 8 L 39.417969 8 z M 33 14 L 34.662109 14 C 35.951109 14 37 15.048891 37 16.337891 L 37 17 L 35.337891 17 C 34.048891 17 33 15.951109 33 14.662109 L 33 14 z M 43.337891 14 L 45 14 L 45 14.662109 C 45 15.951109 43.951109 17 42.662109 17 L 41 17 L 41 16.337891 C 41 15.048891 42.048891 14 43.337891 14 z"/></svg>