<?xml version="1.0" encoding="utf-8"?>
<!-- Generator: Adobe Illustrator 22.0.1, SVG Export Plug-In . SVG Version: 6.00 Build 0)  -->
<svg version="1.1" id="Layer_2" xmlns="http://www.w3.org/2000/svg" xmlns:xlink="http://www.w3.org/1999/xlink" x="0px" y="0px"
	 viewBox="0 0 256 256" style="enable-background:new 0 0 256 256;" xml:space="preserve">
<style type="text/css">
	.st0{fill:#3A312A;}
	.st1{fill:#D7E057;}
	.st2{fill:#FCE8CB;}
	.st3{fill:#8AC6DD;}
	.st4{fill-rule:evenodd;clip-rule:evenodd;fill:#FCE8CB;}
	.st5{fill:#F5978A;}
	.st6{fill:#87796F;}
	.st7{fill:#F16C7A;}
	.st8{fill:#68A8BC;}
	.st9{fill:#B9BC39;}
	.st10{fill:#CE4E61;}
	.st11{fill:#6B5B51;}
	.st12{fill:#CCAE8B;}
	.st13{fill-rule:evenodd;clip-rule:evenodd;fill:#F16C7A;}
</style>
<g>
	<g>
		<g>
			<path class="st1" d="M88.972,26.198c-0.974,11.564-13.024,13.39-13.024,13.39c10.347,0.487,12.925,14.059,12.925,14.059
				c0.221-9.677,13.321-14.202,13.321-14.202C92.38,38.857,88.972,26.198,88.972,26.198z"/>
		</g>
	</g>
	<g>
		<g>
			<path class="st0" d="M102.284,37.947c-8.605-0.515-11.833-12.024-11.864-12.141c-0.19-0.701-0.844-1.159-1.584-1.102
				c-0.725,0.066-1.298,0.642-1.359,1.367c-0.859,10.215-11.313,11.963-11.754,12.031c-0.763,0.116-1.313,0.791-1.273,1.561
				c0.04,0.771,0.657,1.385,1.428,1.421c9.028,0.426,11.499,12.719,11.522,12.844c0.138,0.711,0.76,1.217,1.473,1.217
				c0.042,0,0.084-0.002,0.126-0.005c0.765-0.064,1.357-0.693,1.375-1.46c0.193-8.509,12.191-12.777,12.313-12.819
				c0.676-0.234,1.092-0.914,0.994-1.622C103.581,38.53,102.998,37.989,102.284,37.947z M88.718,48.293
				c-1.356-3.131-3.709-6.908-7.587-8.877c2.931-1.404,6.408-3.913,8.201-8.272c1.551,3.071,4.2,6.88,8.335,8.723
				C94.659,41.506,90.744,44.271,88.718,48.293z"/>
		</g>
	</g>
	<g>
		<g>
			<path class="st1" d="M67.273,43.178c-0.689,8.179-9.212,9.47-9.212,9.47c7.318,0.344,9.142,9.944,9.142,9.944
				c0.156-6.845,9.422-10.045,9.422-10.045C69.684,52.133,67.273,43.178,67.273,43.178z"/>
		</g>
	</g>
	<g>
		<g>
			<path class="st0" d="M76.715,51.051c-5.767-0.345-7.972-8.186-7.993-8.265c-0.19-0.702-0.869-1.161-1.582-1.102
				c-0.726,0.065-1.3,0.643-1.361,1.368c-0.579,6.87-7.646,8.066-7.942,8.113c-0.763,0.116-1.313,0.791-1.273,1.561
				c0.04,0.771,0.657,1.385,1.428,1.421c6.035,0.284,7.724,8.644,7.739,8.726c0.136,0.713,0.759,1.22,1.473,1.22
				c0.041,0,0.083-0.002,0.125-0.005c0.765-0.063,1.358-0.693,1.376-1.461c0.13-5.708,8.331-8.633,8.412-8.661
				c0.676-0.234,1.093-0.913,0.996-1.622C78.014,51.635,77.429,51.093,76.715,51.051z M67.13,57.846
				c-0.924-1.886-2.34-3.947-4.447-5.28c1.855-1.041,3.697-2.63,4.871-4.916c1.057,1.874,2.654,3.955,4.941,5.224
				C70.645,53.974,68.506,55.613,67.13,57.846z"/>
		</g>
	</g>
	<g>
		<g>
			<path class="st1" d="M67.273,16.521c-0.689,8.179-9.212,9.47-9.212,9.47c7.318,0.344,9.142,9.944,9.142,9.944
				c0.156-6.844,9.422-10.045,9.422-10.045C69.684,25.475,67.273,16.521,67.273,16.521z"/>
		</g>
	</g>
	<g>
		<g>
			<path class="st0" d="M76.715,24.394c-5.767-0.346-7.972-8.187-7.993-8.266c-0.19-0.702-0.869-1.159-1.582-1.102
				c-0.726,0.065-1.3,0.643-1.361,1.368c-0.579,6.871-7.646,8.066-7.942,8.113c-0.763,0.116-1.313,0.791-1.273,1.561
				c0.04,0.771,0.657,1.385,1.428,1.421c6.035,0.284,7.724,8.645,7.739,8.727c0.136,0.713,0.759,1.22,1.473,1.22
				c0.041,0,0.083-0.002,0.125-0.005c0.765-0.063,1.358-0.693,1.376-1.461c0.13-5.709,8.331-8.633,8.411-8.661
				c0.677-0.233,1.094-0.913,0.997-1.622C78.014,24.978,77.429,24.437,76.715,24.394z M67.13,31.188
				c-0.924-1.885-2.34-3.947-4.447-5.279c1.855-1.041,3.697-2.63,4.871-4.917c1.057,1.874,2.653,3.955,4.941,5.225
				C70.646,27.316,68.506,28.955,67.13,31.188z"/>
		</g>
	</g>
	<g>
		<g>
			<path class="st2" d="M174.762,32.845c-0.743,0-1.475,0.063-2.196,0.159c-1.963-9.379-10.239-16.425-20.191-16.425
				c-9.952,0-18.228,7.045-20.191,16.425c-0.722-0.095-1.453-0.159-2.196-0.159c-9.698,0-17.56,7.862-17.56,17.57
				c0,1.422,0.17,2.801,0.488,4.127h78.918c0.318-1.326,0.488-2.705,0.488-4.127C192.322,40.707,184.46,32.845,174.762,32.845z"/>
		</g>
	</g>
	<g>
		<g>
			<path class="st0" d="M174.762,31.345c-0.338,0-0.685,0.012-1.046,0.036c-2.613-9.523-11.381-16.302-21.341-16.302
				c-9.961,0-18.729,6.778-21.342,16.302c-0.361-0.024-0.708-0.036-1.046-0.036c-10.51,0-19.06,8.555-19.06,19.07
				c0,1.507,0.179,3.013,0.529,4.478c0.162,0.674,0.766,1.149,1.459,1.149h78.918c0.693,0,1.297-0.476,1.459-1.149
				c0.351-1.465,0.529-2.971,0.529-4.478C193.822,39.899,185.271,31.345,174.762,31.345z M190.607,53.042h-76.465
				c-0.143-0.868-0.215-1.747-0.215-2.627c0-8.861,7.204-16.07,16.06-16.07c0.604,0,1.258,0.048,1.999,0.146
				c0.768,0.106,1.505-0.411,1.665-1.18c1.848-8.826,9.722-15.232,18.724-15.232c9.001,0,16.875,6.406,18.723,15.232
				c0.16,0.769,0.9,1.286,1.665,1.18c0.741-0.099,1.396-0.146,1.999-0.146c8.855,0,16.061,7.209,16.061,16.07
				C190.822,51.295,190.75,52.174,190.607,53.042z"/>
		</g>
	</g>
	<g>
		<g>
			<path class="st7" d="M152.369,220.912c-19.431,0-35.186,8.311-35.186,18.567h70.383
				C187.566,229.223,171.811,220.912,152.369,220.912z"/>
		</g>
	</g>
	<g>
		<g>
			<path class="st0" d="M152.369,219.412c-20.572,0-36.687,8.814-36.687,20.067c0,0.828,0.672,1.5,1.5,1.5h19.176
				c0.828,0,1.5-0.672,1.5-1.5s-0.672-1.5-1.5-1.5h-17.54c1.556-8.581,16.287-15.567,33.551-15.567
				c17.27,0,32.005,6.986,33.562,15.567h-35.539c-0.828,0-1.5,0.672-1.5,1.5s0.672,1.5,1.5,1.5h37.175c0.828,0,1.5-0.672,1.5-1.5
				C189.066,228.227,172.947,219.412,152.369,219.412z"/>
		</g>
	</g>
	<g>
		<g>
			<path class="st1" d="M192.523,54.546h-80.296c-3.197,0-5.698,2.754-5.391,5.937l12.537,129.8
				c1.651,17.092,15.817,30.622,32.988,30.63c17.047,0.007,31.308-12.938,32.947-29.905l12.607-130.525
				C198.221,57.3,195.72,54.546,192.523,54.546z"/>
		</g>
	</g>
	<g>
		<g>
			<path class="st0" d="M197.643,55.313c-1.309-1.44-3.175-2.267-5.12-2.267h-80.296c-1.945,0-3.812,0.826-5.12,2.267
				c-1.308,1.44-1.951,3.377-1.765,5.313v0.001l12.537,129.8c1.731,17.929,16.877,31.979,34.48,31.985h0.015
				c17.905,0,32.704-13.438,34.426-31.261l12.607-130.525C199.594,58.689,198.95,56.753,197.643,55.313z M183.813,190.862
				c-1.572,16.278-15.087,28.55-31.439,28.55h-0.013c-16.077-0.007-29.912-12.865-31.496-29.274l-12.537-129.8
				c-0.107-1.112,0.248-2.181,0.999-3.009c0.752-0.827,1.781-1.283,2.899-1.283h80.296c1.118,0,2.147,0.456,2.899,1.283
				c0.751,0.828,1.106,1.896,0.999,3.009L183.813,190.862z"/>
		</g>
	</g>
	<g>
		<g>
			<path class="st6" d="M108.925,82.122l10.447,108.161c1.651,17.092,15.817,30.623,32.988,30.63
				c17.047,0.007,31.308-12.938,32.947-29.905l10.517-108.886H108.925z"/>
		</g>
	</g>
	<g>
		<g>
			<path class="st0" d="M196.935,81.112c-0.284-0.313-0.688-0.491-1.11-0.491h-35.171c-0.828,0-1.5,0.672-1.5,1.5s0.672,1.5,1.5,1.5
				h33.519l-10.358,107.241c-1.572,16.278-15.087,28.55-31.439,28.55h-0.013c-16.077-0.007-29.912-12.866-31.496-29.274
				L110.577,83.621h36.184c0.828,0,1.5-0.672,1.5-1.5s-0.672-1.5-1.5-1.5h-37.835c-0.423,0-0.826,0.179-1.11,0.491
				c-0.284,0.313-0.424,0.732-0.383,1.153l10.446,108.161c1.731,17.928,16.877,31.978,34.48,31.985h0.015
				c17.904-0.001,32.704-13.438,34.426-31.261l10.518-108.886C197.358,81.845,197.219,81.426,196.935,81.112z"/>
		</g>
	</g>
	<g>
		<g>
			<path class="st10" d="M152.365,222.409c-1.64,0-3.25,0.06-4.83,0.18c15.11,1.16,27.32,7.62,28.73,15.39h9.67
				C184.375,229.399,169.635,222.409,152.365,222.409z"/>
		</g>
	</g>
	<g>
		<g>
			<path class="st12" d="M174.765,34.35c-0.61,0-1.26,0.04-2,0.14c-0.76,0.11-1.51-0.41-1.67-1.18
				c-1.84-8.82-9.72-15.23-18.72-15.23c-1.92,0-3.79,0.29-5.55,0.84c6.53,2.01,11.71,7.45,13.16,14.39c0.16,0.77,0.9,1.29,1.67,1.18
				c0.74-0.1,1.39-0.14,1.99-0.14c8.86,0,16.06,7.2,16.06,16.07c0,0.88-0.07,1.75-0.21,2.62h11.11c0.15-0.87,0.22-1.74,0.22-2.62
				C190.825,41.549,183.615,34.35,174.765,34.35z"/>
		</g>
	</g>
	<g>
		<g>
			<path class="st9" d="M195.425,57.33c-0.75-0.83-1.78-1.28-2.9-1.28h-11.11c1.11,0,2.14,0.45,2.89,1.28c0.76,0.83,1.11,1.9,1,3.01
				l-1.96,20.28h11.12l1.96-20.28C196.525,59.229,196.175,58.159,195.425,57.33z"/>
		</g>
	</g>
	<g>
		<g>
			<path class="st11" d="M183.054,83.62l-10.35,107.24c-0.05,0.51-0.11,1.02-0.19,1.52c-0.14,1-0.33,1.98-0.56,2.95
				c-0.12,0.48-0.25,0.96-0.39,1.43c-3.34,11.48-12.87,20.05-24.66,22.15c1.78,0.33,3.61,0.5,5.46,0.5c0,0,0,0,0.01,0
				c14.31,0,26.44-9.39,30.31-22.65c0.14-0.47,0.26-0.95,0.38-1.43c0.23-0.97,0.42-1.95,0.57-2.95c0.07-0.5,0.13-1.01,0.18-1.52
				l10.36-107.24H183.054z"/>
		</g>
	</g>
</g>
</svg>
