<?xml version="1.0" encoding="utf-8"?>
<!-- Generator: Adobe Illustrator 22.0.1, SVG Export Plug-In . SVG Version: 6.00 Build 0)  -->
<svg version="1.1" id="Layer_2" xmlns="http://www.w3.org/2000/svg" xmlns:xlink="http://www.w3.org/1999/xlink" x="0px" y="0px"
	 viewBox="0 0 256 256" style="enable-background:new 0 0 256 256;" xml:space="preserve">
<style type="text/css">
	.st0{fill:#3A312A;}
	.st1{fill:#D7E057;}
	.st2{fill:#FCE8CB;}
	.st3{fill:#8AC6DD;}
	.st4{fill-rule:evenodd;clip-rule:evenodd;fill:#FCE8CB;}
	.st5{fill:#F5978A;}
	.st6{fill:#87796F;}
	.st7{fill:#F16C7A;}
	.st8{fill:#68A8BC;}
	.st9{fill:#B9BC39;}
	.st10{fill:#CE4E61;}
	.st11{fill:#6B5B51;}
	.st12{fill:#CCAE8B;}
	.st13{fill-rule:evenodd;clip-rule:evenodd;fill:#F16C7A;}
</style>
<g>
	<g>
		<g>
			<path class="st1" d="M50.261,26.835c-0.974,11.564-13.024,13.389-13.024,13.389c10.347,0.487,12.925,14.059,12.925,14.059
				c0.221-9.677,13.321-14.202,13.321-14.202C53.669,39.495,50.261,26.835,50.261,26.835z"/>
		</g>
	</g>
	<g>
		<g>
			<path class="st0" d="M63.572,38.584c-8.604-0.514-11.832-12.024-11.863-12.14c-0.19-0.702-0.847-1.161-1.583-1.102
				c-0.725,0.066-1.298,0.642-1.359,1.367c-0.86,10.215-11.314,11.963-11.754,12.032c-0.763,0.115-1.313,0.79-1.273,1.56
				c0.04,0.77,0.657,1.384,1.427,1.421c9.028,0.425,11.499,12.718,11.523,12.842c0.137,0.711,0.759,1.217,1.472,1.217
				c0.042,0,0.084-0.002,0.126-0.005c0.764-0.064,1.357-0.693,1.375-1.459c0.194-8.508,12.191-12.777,12.313-12.819
				c0.675-0.235,1.092-0.914,0.994-1.622C64.87,39.168,64.286,38.627,63.572,38.584z M50.007,48.93
				c-1.357-3.13-3.709-6.907-7.587-8.876c2.931-1.405,6.409-3.913,8.202-8.273c1.551,3.071,4.2,6.88,8.334,8.722
				C55.948,42.143,52.033,44.909,50.007,48.93z"/>
		</g>
	</g>
	<g>
		<g>
			<path class="st1" d="M28.563,43.816c-0.689,8.179-9.212,9.471-9.212,9.471c7.318,0.344,9.142,9.944,9.142,9.944
				c0.156-6.844,9.422-10.045,9.422-10.045C30.973,52.77,28.563,43.816,28.563,43.816z"/>
		</g>
	</g>
	<g>
		<g>
			<path class="st0" d="M38.004,51.688c-5.766-0.345-7.972-8.185-7.994-8.264c-0.19-0.702-0.851-1.163-1.582-1.102
				c-0.726,0.065-1.299,0.642-1.36,1.368c-0.579,6.871-7.646,8.066-7.942,8.113c-0.763,0.115-1.313,0.79-1.273,1.561
				c0.04,0.77,0.657,1.384,1.427,1.421c6.036,0.284,7.724,8.644,7.739,8.726c0.135,0.713,0.759,1.22,1.472,1.22
				c0.042,0,0.083-0.002,0.125-0.005c0.765-0.063,1.358-0.694,1.376-1.461c0.13-5.709,8.332-8.634,8.413-8.662
				c0.677-0.234,1.094-0.913,0.996-1.622C39.303,52.272,38.719,51.731,38.004,51.688z M28.419,58.483
				c-0.924-1.886-2.34-3.947-4.447-5.28c1.856-1.042,3.697-2.63,4.871-4.917c1.057,1.874,2.654,3.955,4.941,5.224
				C31.935,54.611,29.795,56.251,28.419,58.483z"/>
		</g>
	</g>
	<g>
		<g>
			<path class="st1" d="M28.563,17.158c-0.689,8.179-9.212,9.471-9.212,9.471c7.318,0.344,9.142,9.944,9.142,9.944
				c0.156-6.845,9.422-10.045,9.422-10.045C30.973,26.112,28.563,17.158,28.563,17.158z"/>
		</g>
	</g>
	<g>
		<g>
			<path class="st0" d="M38.004,25.03c-5.767-0.345-7.973-8.186-7.994-8.265c-0.19-0.702-0.851-1.164-1.582-1.102
				c-0.726,0.065-1.299,0.642-1.36,1.368c-0.579,6.871-7.646,8.067-7.942,8.114c-0.763,0.115-1.313,0.79-1.273,1.56
				c0.04,0.77,0.657,1.384,1.428,1.421c6.035,0.284,7.723,8.644,7.739,8.726c0.135,0.713,0.759,1.22,1.472,1.22
				c0.042,0,0.083-0.001,0.125-0.005c0.765-0.064,1.358-0.694,1.376-1.461c0.13-5.71,8.331-8.634,8.413-8.662
				c0.676-0.234,1.094-0.913,0.996-1.622C39.303,25.615,38.719,25.073,38.004,25.03z M28.419,31.825
				c-0.924-1.885-2.34-3.947-4.447-5.28c1.856-1.041,3.697-2.63,4.871-4.916c1.057,1.874,2.655,3.954,4.941,5.224
				C31.935,27.954,29.795,29.593,28.419,31.825z"/>
		</g>
	</g>
	<g>
		<g>
			<path class="st6" d="M195.3,91.565h-13.43v14h13.43c15.08,0,27.35,12.27,27.35,27.35v36.3c0,15.08-12.27,27.35-27.35,27.35
				h-13.43v14h13.43c22.8,0,41.35-18.55,41.35-41.35v-36.3C236.65,110.115,218.1,91.565,195.3,91.565z"/>
		</g>
	</g>
	<g>
		<g>
			<path class="st0" d="M195.3,90.065h-13.43c-0.828,0-1.5,0.671-1.5,1.5v14c0,0.829,0.672,1.5,1.5,1.5h13.43
				c14.254,0,25.851,11.596,25.851,25.85v36.3c0,14.254-11.597,25.85-25.851,25.85h-13.43c-0.828,0-1.5,0.671-1.5,1.5v14
				c0,0.829,0.672,1.5,1.5,1.5h13.43c23.628,0,42.851-19.223,42.851-42.85v-36.3C238.15,109.288,218.928,90.065,195.3,90.065z
				 M235.15,169.215c0,21.974-17.877,39.85-39.851,39.85h-11.93v-11h11.93c15.908,0,28.851-12.942,28.851-28.85v-36.3
				c0-15.908-12.942-28.85-28.851-28.85h-11.93v-11h11.93c21.974,0,39.851,17.877,39.851,39.85V169.215z"/>
		</g>
	</g>
	<g>
		<g>
			<path class="st2" d="M80.109,70.76v155.866c0,6.964,5.645,12.609,12.609,12.609h76.544c6.964,0,12.609-5.645,12.609-12.609V70.76
				H80.109z"/>
		</g>
	</g>
	<g>
		<g>
			<path class="st0" d="M181.871,69.26H80.109c-0.829,0-1.5,0.671-1.5,1.5v62.008c0,0.829,0.671,1.5,1.5,1.5s1.5-0.671,1.5-1.5
				V72.26h98.762v154.366c0,6.126-4.983,11.109-11.109,11.109H92.718c-6.125,0-11.108-4.983-11.108-11.109v-78.264
				c0-0.829-0.671-1.5-1.5-1.5s-1.5,0.671-1.5,1.5v78.264c0,7.78,6.329,14.109,14.108,14.109h76.544
				c7.78,0,14.109-6.329,14.109-14.109V70.76C183.371,69.932,182.699,69.26,181.871,69.26z"/>
		</g>
	</g>
	<g>
		<g>
			<polygon class="st6" points="56.99,70.76 80.109,91.565 80.109,70.76 			"/>
		</g>
	</g>
	<g>
		<g>
			<path class="st0" d="M80.109,69.26H56.99c-0.621,0-1.178,0.383-1.4,0.962c-0.223,0.58-0.064,1.237,0.397,1.653L79.106,92.68
				c0.281,0.252,0.64,0.385,1.004,0.385c0.206,0,0.414-0.042,0.61-0.13c0.541-0.241,0.89-0.778,0.89-1.37V70.76
				C81.609,69.932,80.938,69.26,80.109,69.26z M78.609,88.197L60.899,72.26h17.71V88.197z"/>
		</g>
	</g>
	<g>
		<g>
			<path class="st1" d="M185.569,59.59H76.411c-3.086,0-5.587,2.501-5.587,5.587c0,3.086,2.501,5.587,5.587,5.587h109.159
				c3.086,0,5.587-2.501,5.587-5.587C191.156,62.091,188.655,59.59,185.569,59.59z"/>
		</g>
	</g>
	<g>
		<g>
			<path class="st0" d="M185.569,58.09H76.411c-3.908,0-7.087,3.179-7.087,7.087c0,3.908,3.179,7.087,7.087,7.087h109.159
				c3.908,0,7.087-3.179,7.087-7.087C192.656,61.269,189.478,58.09,185.569,58.09z M185.569,69.264H76.411
				c-2.253,0-4.087-1.833-4.087-4.087c0-2.254,1.833-4.087,4.087-4.087h109.159c2.254,0,4.087,1.833,4.087,4.087
				C189.656,67.43,187.823,69.264,185.569,69.264z"/>
		</g>
	</g>
	<g>
		<g>
			<path class="st7" d="M162.277,39.992H99.703c-10.823,0-19.597,8.774-19.597,19.597h101.768
				C181.874,48.766,173.1,39.992,162.277,39.992z"/>
		</g>
	</g>
	<g>
		<g>
			<path class="st0" d="M162.277,38.493H99.703c-11.633,0-21.097,9.464-21.097,21.097c0,0.829,0.671,1.5,1.5,1.5h101.768
				c0.828,0,1.5-0.671,1.5-1.5C183.374,47.957,173.91,38.493,162.277,38.493z M81.667,58.09c0.765-9.28,8.562-16.597,18.036-16.597
				h62.574c9.474,0,17.271,7.317,18.035,16.597H81.667z"/>
		</g>
	</g>
	<g>
		<g>
			<circle class="st6" cx="130.99" cy="28.379" r="11.614"/>
		</g>
	</g>
	<g>
		<g>
			<path class="st0" d="M130.99,15.265c-7.231,0-13.114,5.883-13.114,13.114s5.883,13.114,13.114,13.114
				c7.231,0,13.113-5.883,13.113-13.114S138.221,15.265,130.99,15.265z M130.99,38.493c-5.577,0-10.114-4.537-10.114-10.114
				s4.537-10.114,10.114-10.114c5.576,0,10.113,4.537,10.113,10.114S136.566,38.493,130.99,38.493z"/>
		</g>
	</g>
	<g>
		<g>
			<rect x="125.49" y="91.565" class="st7" width="11" height="105.25"/>
		</g>
	</g>
	<g>
		<g>
			<path class="st0" d="M136.49,90.065h-11c-0.829,0-1.5,0.671-1.5,1.5v105.25c0,0.829,0.671,1.5,1.5,1.5h11
				c0.828,0,1.5-0.671,1.5-1.5V91.565C137.99,90.736,137.318,90.065,136.49,90.065z M134.99,195.315h-8V93.065h8V195.315z"/>
		</g>
	</g>
	<g>
		<g>
			<rect x="80.109" y="70.76" class="st6" width="101.762" height="20.805"/>
		</g>
	</g>
	<g>
		<g>
			<path class="st0" d="M181.871,69.26H80.109c-0.829,0-1.5,0.671-1.5,1.5v20.805c0,0.829,0.671,1.5,1.5,1.5h101.762
				c0.828,0,1.5-0.671,1.5-1.5V70.76C183.371,69.932,182.699,69.26,181.871,69.26z M180.371,90.065H81.609V72.26h98.762V90.065z"/>
		</g>
	</g>
	<g>
		<g>
			<path class="st1" d="M156.073,196.815h-50.167c-4.602,0-8.333,3.731-8.333,8.333c0,4.602,3.731,8.333,8.333,8.333h50.167
				c4.602,0,8.333-3.731,8.333-8.333C164.407,200.546,160.676,196.815,156.073,196.815z"/>
		</g>
	</g>
	<g>
		<g>
			<path class="st0" d="M156.073,195.315h-50.167c-5.422,0-9.833,4.411-9.833,9.833c0,5.422,4.411,9.833,9.833,9.833h21.578
				c0.829,0,1.5-0.671,1.5-1.5c0-0.829-0.671-1.5-1.5-1.5h-21.578c-3.768,0-6.833-3.065-6.833-6.833
				c0-3.768,3.065-6.833,6.833-6.833h50.167c3.768,0,6.833,3.066,6.833,6.833c0,3.768-3.065,6.833-6.833,6.833h-13.577
				c-0.828,0-1.5,0.671-1.5,1.5c0,0.829,0.672,1.5,1.5,1.5h13.577c5.422,0,9.833-4.411,9.833-9.833
				C165.906,199.726,161.495,195.315,156.073,195.315z"/>
		</g>
	</g>
	<g>
		<g>
			<path class="st12" d="M169.26,93.065v133.56c0,6.13-4.99,11.11-11.11,11.11h11.11c6.13,0,11.11-4.98,11.11-11.11V93.065H169.26z"
				/>
		</g>
	</g>
	<g>
		<g>
			<path class="st9" d="M185.57,61.085h-11.11c2.25,0,4.08,1.84,4.08,4.09c0,2.26-1.83,4.09-4.08,4.09h11.11
				c2.25,0,4.09-1.83,4.09-4.09C189.66,62.925,187.82,61.085,185.57,61.085z"/>
		</g>
	</g>
	<g>
		<g>
			<path class="st10" d="M162.28,41.495h-11.12c9.48,0,17.27,7.32,18.04,16.59h11.11C179.55,48.815,171.75,41.495,162.28,41.495z"/>
		</g>
	</g>
	<g>
		<g>
			<rect x="169.26" y="72.265" class="st11" width="11.11" height="17.8"/>
		</g>
	</g>
</g>
</svg>
