<?xml version="1.0" encoding="utf-8"?>
<!-- Generator: Adobe Illustrator 22.0.1, SVG Export Plug-In . SVG Version: 6.00 Build 0)  -->
<svg version="1.1" id="Layer_2" xmlns="http://www.w3.org/2000/svg" xmlns:xlink="http://www.w3.org/1999/xlink" x="0px" y="0px"
	 viewBox="0 0 256 256" style="enable-background:new 0 0 256 256;" xml:space="preserve">
<style type="text/css">
	.st0{fill:#3A312A;}
	.st1{fill:#D7E057;}
	.st2{fill:#FCE8CB;}
	.st3{fill:#8AC6DD;}
	.st4{fill-rule:evenodd;clip-rule:evenodd;fill:#FCE8CB;}
	.st5{fill:#F5978A;}
	.st6{fill:#87796F;}
	.st7{fill:#F16C7A;}
	.st8{fill:#68A8BC;}
	.st9{fill:#B9BC39;}
	.st10{fill:#CE4E61;}
	.st11{fill:#6B5B51;}
	.st12{fill:#CCAE8B;}
	.st13{fill-rule:evenodd;clip-rule:evenodd;fill:#F16C7A;}
</style>
<g>
	<g>
		<g>
			<path class="st1" d="M81.45,26.087c-0.974,11.564-13.025,13.389-13.025,13.389c10.347,0.487,12.925,14.059,12.925,14.059
				c0.221-9.677,13.321-14.202,13.321-14.202C84.858,38.746,81.45,26.087,81.45,26.087z"/>
		</g>
	</g>
	<g>
		<g>
			<path class="st0" d="M94.762,37.836c-8.604-0.515-11.832-12.024-11.863-12.141c-0.19-0.702-0.849-1.158-1.584-1.102
				c-0.725,0.066-1.298,0.642-1.359,1.367c-0.859,10.215-11.313,11.964-11.754,12.033c-0.763,0.115-1.313,0.79-1.273,1.561
				c0.04,0.77,0.657,1.384,1.428,1.421c9.027,0.425,11.498,12.718,11.521,12.842c0.138,0.711,0.76,1.217,1.473,1.217
				c0.042,0,0.084-0.001,0.126-0.005c0.764-0.064,1.357-0.693,1.375-1.459c0.194-8.508,12.191-12.777,12.313-12.819
				c0.676-0.235,1.092-0.914,0.994-1.623C96.059,38.42,95.476,37.879,94.762,37.836z M81.195,48.182
				c-1.356-3.131-3.708-6.908-7.586-8.877c2.931-1.405,6.408-3.913,8.201-8.272c1.551,3.071,4.2,6.88,8.334,8.722
				C87.138,41.395,83.223,44.161,81.195,48.182z"/>
		</g>
	</g>
	<g>
		<g>
			<path class="st1" d="M59.751,43.068c-0.689,8.179-9.212,9.47-9.212,9.47c7.318,0.344,9.142,9.944,9.142,9.944
				c0.156-6.844,9.422-10.045,9.422-10.045C62.162,52.022,59.751,43.068,59.751,43.068z"/>
		</g>
	</g>
	<g>
		<g>
			<path class="st0" d="M69.193,50.939c-5.767-0.345-7.972-8.186-7.993-8.265c-0.19-0.702-0.866-1.16-1.582-1.102
				c-0.726,0.065-1.3,0.642-1.361,1.368c-0.579,6.871-7.646,8.067-7.942,8.114c-0.763,0.115-1.313,0.79-1.273,1.561
				c0.04,0.77,0.657,1.384,1.428,1.421c6.035,0.284,7.724,8.644,7.739,8.726c0.136,0.713,0.759,1.22,1.473,1.22
				c0.041,0,0.083-0.001,0.125-0.005c0.765-0.063,1.358-0.694,1.376-1.461c0.13-5.709,8.331-8.634,8.412-8.662
				c0.676-0.234,1.093-0.913,0.996-1.622C70.492,51.524,69.907,50.982,69.193,50.939z M59.608,57.734
				c-0.924-1.885-2.34-3.947-4.447-5.28c1.855-1.041,3.697-2.63,4.871-4.917c1.057,1.874,2.654,3.955,4.941,5.224
				C63.124,53.863,60.984,55.502,59.608,57.734z"/>
		</g>
	</g>
	<g>
		<g>
			<path class="st1" d="M59.751,16.41c-0.689,8.179-9.212,9.471-9.212,9.471c7.318,0.344,9.142,9.944,9.142,9.944
				c0.156-6.844,9.422-10.045,9.422-10.045C62.162,25.364,59.751,16.41,59.751,16.41z"/>
		</g>
	</g>
	<g>
		<g>
			<path class="st0" d="M69.193,24.282c-5.767-0.345-7.972-8.186-7.993-8.265c-0.19-0.702-0.866-1.159-1.582-1.102
				c-0.726,0.065-1.3,0.642-1.361,1.368c-0.579,6.871-7.646,8.067-7.942,8.114c-0.763,0.115-1.313,0.79-1.273,1.561
				c0.04,0.77,0.657,1.384,1.428,1.421c6.035,0.284,7.724,8.644,7.739,8.726c0.136,0.713,0.759,1.22,1.473,1.22
				c0.041,0,0.083-0.001,0.125-0.005c0.765-0.063,1.358-0.694,1.376-1.461c0.13-5.709,8.331-8.634,8.412-8.662
				c0.676-0.234,1.093-0.913,0.996-1.622C70.492,24.867,69.907,24.325,69.193,24.282z M59.608,31.077
				c-0.924-1.885-2.34-3.947-4.447-5.28c1.855-1.041,3.697-2.63,4.871-4.917c1.057,1.874,2.654,3.955,4.941,5.224
				C63.124,27.206,60.984,28.845,59.608,31.077z"/>
		</g>
	</g>
	<g>
		<g>
			<path class="st3" d="M128.854,16.71V40.8c2.7-0.42,5.46-0.63,8.27-0.63s5.57,0.21,8.27,0.63V16.71H128.854z"/>
		</g>
	</g>
	<g>
		<g>
			<path class="st0" d="M145.394,15.21h-16.54c-0.828,0-1.5,0.671-1.5,1.5V40.8c0,0.438,0.191,0.854,0.524,1.139
				c0.332,0.285,0.769,0.41,1.206,0.343c5.224-0.813,10.857-0.812,16.079,0c0.077,0.012,0.154,0.018,0.23,0.018
				c0.355,0,0.702-0.126,0.976-0.361c0.333-0.285,0.524-0.701,0.524-1.139V16.71C146.894,15.881,146.222,15.21,145.394,15.21z
				 M143.894,39.078c-2.22-0.271-4.49-0.408-6.771-0.408s-4.55,0.137-6.77,0.408V18.21h13.54V39.078z"/>
		</g>
	</g>
	<g>
		<g>
			<path class="st2" d="M137.124,40.171c-29.499,0-53.476,23.585-54.119,52.923h108.237C190.6,63.756,166.623,40.171,137.124,40.171
				z"/>
		</g>
	</g>
	<g>
		<g>
			<path class="st0" d="M176.054,54.559c-10.459-10.246-24.284-15.888-38.931-15.888c-14.646,0-28.472,5.643-38.93,15.888
				C87.752,64.789,81.825,78.462,81.505,93.062c-0.009,0.403,0.146,0.793,0.428,1.082c0.282,0.289,0.669,0.451,1.072,0.451h108.237
				c0.403,0,0.79-0.163,1.072-0.451c0.282-0.288,0.437-0.678,0.428-1.082C192.422,78.462,186.495,64.789,176.054,54.559z
				 M84.561,91.594c1.42-27.667,24.683-49.923,52.563-49.923s51.144,22.256,52.563,49.923H84.561z"/>
		</g>
	</g>
	<g>
		<g>
			<path class="st7" d="M171.614,72.65c-2.76,0-5.39,0.58-7.77,1.61c-1.38-7.36-7.84-12.94-15.6-12.94c-4.99,0-9.44,2.31-12.35,5.91
				c-1.77-6.84-7.97-11.91-15.37-11.91c-8.77,0-15.88,7.11-15.88,15.89c0,0.52,0.03,1.04,0.08,1.56c-0.69-0.08-1.38-0.12-2.09-0.12
				c-10.84,0-19.63,8.79-19.63,19.63c0,0.27,0,0.54,0.01,0.82h108.22c0.01-0.28,0.01-0.55,0.01-0.82
				C191.244,81.44,182.454,72.65,171.614,72.65z"/>
		</g>
	</g>
	<g>
		<g>
			<path class="st0" d="M171.613,71.15c-2.301,0-4.552,0.369-6.714,1.099c-2.159-7.298-8.902-12.429-16.656-12.429
				c-4.394,0-8.55,1.64-11.735,4.569c-2.696-6.333-8.945-10.569-15.984-10.569c-9.565,0-17.351,7.772-17.38,17.336
				c-0.169-0.004-0.339-0.006-0.51-0.006c-11.651,0-21.13,9.479-21.13,21.13c0,0.287,0,0.574,0.011,0.872
				c0.028,0.808,0.691,1.448,1.499,1.448h108.22c0.808,0,1.471-0.64,1.499-1.448c0.011-0.298,0.011-0.585,0.011-0.872
				C192.743,80.629,183.265,71.15,171.613,71.15z M84.517,91.6c0.358-9.684,8.348-17.45,18.117-17.45
				c0.651,0,1.278,0.036,1.917,0.11c0.448,0.052,0.898-0.102,1.223-0.419c0.323-0.317,0.486-0.763,0.443-1.214
				c-0.049-0.515-0.073-0.978-0.073-1.417c0-7.935,6.451-14.39,14.38-14.39c6.551,0,12.274,4.436,13.918,10.786
				c0.142,0.548,0.581,0.97,1.135,1.09c0.553,0.121,1.127-0.082,1.484-0.523c2.75-3.402,6.825-5.353,11.183-5.353
				c6.912,0,12.854,4.928,14.126,11.717c0.084,0.448,0.368,0.834,0.771,1.048c0.402,0.213,0.881,0.232,1.3,0.052
				c2.279-0.986,4.692-1.487,7.174-1.487c9.77,0,17.759,7.767,18.117,17.45H84.517z"/>
		</g>
	</g>
	<g>
		<g>
			<path class="st7" d="M84.803,109.5l3.94,32.67l5.4,44.74l2.292,19.001l1.742,14.439l1.356,11.24c0.55,4.57,4.43,8,9.02,8h57.14
				c4.59,0,8.47-3.43,9.02-8l5.39-44.68l5.4-44.74l3.94-32.67H84.803z"/>
		</g>
	</g>
	<g>
		<g>
			<path class="st0" d="M190.565,108.505c-0.284-0.321-0.693-0.505-1.122-0.505H84.804c-0.429,0-0.838,0.184-1.122,0.505
				c-0.285,0.321-0.419,0.749-0.367,1.175l11.632,96.411c0.099,0.822,0.835,1.41,1.669,1.31c0.822-0.099,1.409-0.846,1.31-1.669
				L86.495,111h101.257l-14.527,120.41c-0.459,3.808-3.696,6.68-7.531,6.68h-57.14c-3.835,0-7.072-2.872-7.531-6.68l-1.355-11.24
				c-0.1-0.822-0.835-1.409-1.669-1.31c-0.822,0.099-1.409,0.846-1.31,1.669l1.355,11.24c0.641,5.313,5.158,9.32,10.51,9.32h57.14
				c5.352,0,9.869-4.007,10.51-9.32l14.729-122.09C190.984,109.253,190.851,108.826,190.565,108.505z"/>
		</g>
	</g>
	<g>
		<g>
			<path class="st2" d="M195.486,93.096H78.761c-4.531,0-8.203,3.673-8.203,8.203c0,4.531,3.673,8.203,8.203,8.203h116.726
				c4.531,0,8.203-3.673,8.203-8.203C203.69,96.769,200.017,93.096,195.486,93.096z"/>
		</g>
	</g>
	<g>
		<g>
			<path class="st0" d="M195.486,91.597H78.761c-5.351,0-9.703,4.353-9.703,9.703c0,5.351,4.353,9.704,9.703,9.704h116.726
				c5.351,0,9.703-4.353,9.703-9.704C205.189,95.95,200.837,91.597,195.486,91.597z M195.486,108.003H78.761
				c-3.696,0-6.703-3.007-6.703-6.704s3.007-6.703,6.703-6.703h116.726c3.696,0,6.703,3.007,6.703,6.703
				S199.183,108.003,195.486,108.003z"/>
		</g>
	</g>
	<g>
		<g>
			<path class="st1" d="M160.457,142.17c-5.885-6.137-14.159-9.963-23.333-9.963s-17.448,3.827-23.333,9.963H88.744l5.4,44.74
				h19.646c5.885,6.137,14.16,9.964,23.333,9.964s17.448-3.827,23.333-9.964h19.646l5.4-44.74H160.457z"/>
		</g>
	</g>
	<g>
		<g>
			<path class="st0" d="M186.626,141.175c-0.284-0.321-0.693-0.505-1.122-0.505h-24.416c-6.397-6.43-14.882-9.963-23.965-9.963
				c-9.082,0-17.566,3.533-23.965,9.963h-4.022c-0.828,0-1.5,0.671-1.5,1.5s0.672,1.5,1.5,1.5h4.654c0.408,0,0.8-0.167,1.083-0.461
				c5.876-6.127,13.778-9.501,22.25-9.501c8.473,0,16.375,3.374,22.25,9.501c0.283,0.295,0.674,0.462,1.083,0.462h23.355
				l-5.038,41.74h-18.316c-0.409,0-0.8,0.167-1.083,0.462c-5.875,6.127-13.777,9.501-22.251,9.501
				c-8.473,0-16.375-3.375-22.25-9.501c-0.283-0.295-0.674-0.462-1.083-0.462H95.474l-5.038-41.74h4.676c0.828,0,1.5-0.671,1.5-1.5
				s-0.672-1.5-1.5-1.5h-6.368c-0.429,0-0.838,0.184-1.122,0.505c-0.285,0.321-0.419,0.749-0.367,1.175l5.4,44.74
				c0.091,0.753,0.73,1.32,1.489,1.32h19.015c6.397,6.43,14.882,9.963,23.965,9.963s17.568-3.533,23.966-9.963h19.015
				c0.759,0,1.398-0.567,1.489-1.32l5.4-44.74C187.045,141.924,186.911,141.496,186.626,141.175z"/>
		</g>
	</g>
	<g>
		<g>
			<circle class="st2" cx="137.124" cy="164.54" r="21.362"/>
		</g>
	</g>
	<g>
		<g>
			<path class="st0" d="M137.123,141.679c-12.605,0-22.861,10.256-22.861,22.862s10.256,22.862,22.861,22.862
				c12.606,0,22.862-10.256,22.862-22.862S149.729,141.679,137.123,141.679z M137.123,184.402c-10.951,0-19.861-8.91-19.861-19.862
				s8.91-19.862,19.861-19.862c10.952,0,19.862,8.91,19.862,19.862S148.075,184.402,137.123,184.402z"/>
		</g>
	</g>
	<g>
		<g>
			<path class="st10" d="M173.474,74.25c2.16,5.41,3.47,11.25,3.76,17.35h12.5C189.394,82.54,182.384,75.16,173.474,74.25z"/>
		</g>
	</g>
	<g>
		<g>
			<path class="st12" d="M137.124,41.67c-2.03,0-4.03,0.12-6,0.35c18,2.08,33.41,13.44,41.19,29.15c5.85,0.18,11.09,2.78,14.8,6.8
				C180.164,56.97,160.234,41.67,137.124,41.67z"/>
		</g>
	</g>
	<g>
		<g>
			<path class="st10" d="M166.414,188.41l-5.19,43c-0.46,3.81-3.69,6.68-7.53,6.68h12c3.84,0,7.07-2.87,7.53-6.68l5.19-43H166.414z"
				/>
		</g>
	</g>
	<g>
		<g>
			<polygon class="st10" points="175.753,111 172.174,140.67 184.174,140.67 187.753,111 			"/>
		</g>
	</g>
	<g>
		<g>
			<path class="st12" d="M195.484,94.6h-12c3.7,0,6.71,3,6.71,6.7s-3.01,6.7-6.71,6.7h12c3.7,0,6.71-3,6.71-6.7
				S199.184,94.6,195.484,94.6z"/>
		</g>
	</g>
	<g>
		<g>
			<polygon class="st9" points="171.813,143.67 166.773,185.41 178.773,185.41 183.813,143.67 			"/>
		</g>
	</g>
</g>
</svg>
