<svg fill="#000000" xmlns="http://www.w3.org/2000/svg"  viewBox="0 0 48 48" width="24px" height="24px"><path d="M 32.400391 6 C 27.725824 6 23.86527 9.4466442 23.455078 14.058594 C 22.894128 14.267014 22.201724 14.573316 21.5 15.099609 C 20.455958 15.882641 19.440479 17.196269 18.902344 18.992188 C 18.494839 18.431611 18.300781 17.874989 18.300781 17.599609 C 18.300781 17.509176 18.361356 17.275924 18.455078 17.001953 A 1.50015 1.50015 0 0 0 18.619141 16.611328 C 18.662861 16.510636 18.687937 16.418347 18.740234 16.318359 C 19.015214 15.792632 19.381086 15.28033 19.539062 15.09375 L 19.548828 15.082031 C 21.234876 13.140974 21.031506 10.155128 19.095703 8.4609375 A 1.50015 1.50015 0 0 0 19.09375 8.4609375 C 17.153497 6.7656976 14.161286 6.9653561 12.462891 8.9042969 A 1.50015 1.50015 0 0 0 12.460938 8.9082031 C 12.044166 9.3863381 8.9003906 12.931075 8.9003906 17.599609 C 8.9003906 22.459688 11.142229 25.241745 12.373047 26.570312 C 10.737161 28.115617 9.2690597 29.488753 8.5800781 30.177734 C 5.8198269 32.937986 5.8194336 37.459368 8.5800781 40.21875 C 11.340329 42.979001 15.860843 42.979001 18.621094 40.21875 C 18.841576 39.998268 19.620844 39.231788 20.205078 38.65625 C 22.254376 40.42965 25.433287 41.998047 29.601562 41.998047 C 34.328739 41.998047 38.175313 39.791024 40.058594 36.828125 C 41.239911 34.96832 41.467508 32.977936 40.777344 31.40625 C 40.087179 29.834564 38.48032 28.806641 36.722656 28.806641 C 34.753549 28.806641 33.132951 29.765445 31.507812 30.546875 C 29.882675 31.328305 28.294984 31.992188 26.693359 31.992188 C 25.958456 31.992188 25.873415 31.806637 25.748047 31.492188 C 29.295727 30.638745 31.831751 27.525414 32.417969 23.896484 C 37.417931 23.886334 41.541016 19.812682 41.541016 14.800781 C 41.541063 9.7826252 37.337314 6 32.400391 6 z M 32.400391 9 C 35.859467 9 38.541016 11.422934 38.541016 14.800781 C 38.541016 15.582285 38.387633 16.326035 38.119141 17.011719 C 35.785761 16.368276 34.728516 14.683594 34.728516 14.683594 A 1.50015 1.50015 0 0 0 33.482422 13.964844 A 1.50015 1.50015 0 0 0 32.189453 16.28125 C 32.189453 16.28125 33.538305 18.393338 36.265625 19.539062 C 35.209477 20.38955 33.864922 20.900391 32.400391 20.900391 L 31.199219 20.900391 A 1.50015 1.50015 0 0 0 29.699219 22.400391 C 29.699219 23.258684 29.498059 24.123541 29.152344 24.931641 C 27.6028 24.501014 26.681641 23.271484 26.681641 23.271484 A 1.50015 1.50015 0 0 0 25.398438 22.625 A 1.50015 1.50015 0 0 0 24.236328 25.009766 C 24.236328 25.009766 25.328357 26.567874 27.357422 27.464844 C 26.392393 28.340305 25.217868 28.900391 24 28.900391 A 1.50015 1.50015 0 0 0 22.5 30.349609 C 22.5 30.349609 22.44179 31.396963 22.914062 32.525391 C 23.386339 33.653818 24.741341 34.992188 26.693359 34.992188 C 28.578315 34.992187 30.227354 34.418982 31.669922 33.779297 C 31.957354 34.200562 32.313366 34.623352 32.755859 35.019531 A 1.50015 1.50015 0 1 0 34.755859 32.785156 C 34.647957 32.688548 34.554443 32.589322 34.464844 32.490234 C 35.397753 32.085096 36.186586 31.806641 36.722656 31.806641 C 37.395993 31.806641 37.802462 32.094764 38.029297 32.611328 C 38.256132 33.127892 38.303027 33.997555 37.527344 35.21875 C 36.298624 37.151851 33.374386 38.998047 29.601562 38.998047 C 25.505164 38.998047 22.53468 37.04328 21.306641 35.609375 A 1.50015 1.50015 0 0 0 19.113281 35.519531 C 17.580124 37.03471 16.892005 37.705651 16.5 38.097656 C 14.886251 39.711405 12.314921 39.711405 10.701172 38.097656 C 9.3634725 36.760568 9.1524877 34.770252 10.033203 33.207031 C 10.466855 34.084265 11.175523 35.137171 12.322266 36.054688 A 1.50015 1.50015 0 1 0 14.195312 33.710938 C 12.743116 32.549023 12.348934 30.876614 12.333984 30.804688 A 1.50015 1.50015 0 0 0 12.322266 30.757812 C 13.170094 29.95073 13.799502 29.348613 15.433594 27.798828 A 1.50015 1.50015 0 0 0 15.390625 25.582031 C 15.390625 25.582031 11.900391 22.485324 11.900391 17.599609 C 11.900391 14.384144 14.487426 11.148771 14.722656 10.878906 C 15.354597 10.161226 16.400677 10.09104 17.119141 10.71875 C 17.839446 11.349153 17.910196 12.399881 17.28125 13.119141 A 1.50015 1.50015 0 0 0 17.271484 13.130859 C 17.016116 13.429035 16.73046 13.846851 16.445312 14.314453 C 16.413202 14.283269 16.339844 14.224609 16.339844 14.224609 A 1.50015 1.50015 0 0 0 15.150391 13.683594 A 1.50015 1.50015 0 0 0 14.060547 16.175781 C 14.060547 16.175781 14.537266 16.679176 15.341797 17.126953 C 15.324429 17.282756 15.300781 17.434404 15.300781 17.599609 C 15.300781 19.456727 16.50092 22.01528 19.525391 23.023438 A 1.50015 1.50015 0 0 0 21.5 21.599609 C 21.5 19.228181 22.399448 18.176 23.300781 17.5 C 24.202115 16.824 25.046875 16.679687 25.046875 16.679688 A 1.50015 1.50015 0 0 0 26.300781 15.199219 L 26.300781 14.800781 C 26.300781 11.41436 28.941552 9 32.400391 9 z"/></svg>