<svg fill="#000000" xmlns="http://www.w3.org/2000/svg"  viewBox="0 0 48 48" width="24px" height="24px"><path d="M40.478 36.956c-.585 0-1.286-.127-2.121-.46-1.401-.561-2.915-1.61-4.26-2.956-1.346-1.346-2.396-2.858-2.956-4.26-.977-2.441-.183-3.746.378-4.307 1.966-1.966 5.797-.191 8.565 2.578 1.346 1.345 2.396 2.857 2.956 4.26.978 2.441.183 3.746-.378 4.307C42.294 36.486 41.603 36.956 40.478 36.956zM33.676 27.132c-.027.569.589 2.334 2.542 4.287 1.952 1.952 3.715 2.56 4.287 2.541.027-.569-.589-2.334-2.542-4.287S34.217 27.073 33.676 27.132zM21.516 43.511c-1.106 0-2.097-.356-2.838-1.097-1.993-1.994-1.208-5.785 1.826-8.819 3.034-3.035 6.824-3.818 8.817-1.826 1.993 1.993 1.209 5.784-1.825 8.818C25.591 42.492 23.386 43.511 21.516 43.511zM26.493 33.674c-.916 0-2.441.615-3.868 2.042-1.924 1.925-2.373 4.028-1.826 4.576.546.547 2.651.1 4.576-1.826 1.924-1.924 2.373-4.028 1.825-4.576C27.059 33.748 26.813 33.674 26.493 33.674zM12.545 30.409c-4.586 0-8.045-2.052-8.045-4.772s3.459-4.772 8.045-4.772c4.587 0 8.046 2.052 8.046 4.772S17.132 30.409 12.545 30.409zM12.545 23.864c-3.139 0-5.045 1.231-5.045 1.772s1.906 1.772 5.045 1.772c3.14 0 5.046-1.231 5.046-1.772S15.685 23.864 12.545 23.864zM23.45 14.33c-.519-.392-1.037-.841-1.533-1.337-2.776-2.776-3.168-5.11-2.906-5.437.322-.258 2.655.126 5.438 2.906.337.337.643.685.934 1.036.375-.45.769-.886 1.18-1.298.305-.305.615-.589.926-.865-.291-.338-.596-.671-.919-.995-1.543-1.543-3.285-2.736-4.904-3.358-2.717-1.045-4.159-.165-4.775.452-2.224 2.223-.221 6.552 2.906 9.679.813.813 1.67 1.518 2.534 2.098C22.549 16.255 22.936 15.283 23.45 14.33zM27.503 22.237c-.938 0-1.776-.288-2.433-.944-2.224-2.223-.221-6.552 2.906-9.679s7.457-5.13 9.68-2.906c2.224 2.223.221 6.552-2.906 9.679C32.546 20.592 29.743 22.237 27.503 22.237zM35.224 10.758c-.808 0-2.886.737-5.126 2.978-2.776 2.776-3.168 5.11-2.905 5.437.357.293 2.782-.252 5.437-2.906 2.776-2.776 3.168-5.11 2.905-5.437C35.479 10.783 35.373 10.758 35.224 10.758z"/></svg>