<svg fill="#000000" xmlns="http://www.w3.org/2000/svg"  viewBox="0 0 48 48" width="24px" height="24px"><path d="M 15.5 4.5 C 12.204135 4.5 9.5 7.2041348 9.5 10.5 L 9.5 19.789062 C 8.3810867 20.136917 7.5067446 21.086144 7.6503906 22.296875 L 7.6582031 22.363281 L 9.4746094 31.03125 L 7.9121094 40.416016 C 7.5480167 42.531231 9.226936 44.5 11.359375 44.5 L 36.769531 44.5 C 38.833481 44.5 40.465094 42.65627 40.240234 40.615234 L 40.240234 40.603516 L 40.238281 40.591797 L 38.533203 27.173828 L 39.134766 25.533203 L 39.138672 25.523438 A 1.50015 1.50015 0 0 0 39.189453 25.382812 L 40.208984 22.603516 L 40.232422 22.484375 C 40.460058 21.308441 39.77961 20.161672 38.736328 19.708984 C 38.530882 16.290176 35.672809 13.550781 32.205078 13.550781 C 31.74033 13.550781 31.304661 13.649621 30.869141 13.744141 C 30.241645 10.785318 27.723242 8.5 24.585938 8.5 C 23.424445 8.5 22.334977 8.8147248 21.384766 9.3496094 C 20.842504 6.5983919 18.402218 4.5 15.5 4.5 z M 15.5 7.5 C 17.174135 7.5 18.5 8.8258652 18.5 10.5 L 18.5 19.5 L 12.5 19.5 L 12.5 10.5 C 12.5 8.8258652 13.825865 7.5 15.5 7.5 z M 24.585938 11.5 C 26.564252 11.5 28.134766 13.072466 28.134766 15.050781 C 28.134766 15.169295 28.114572 15.33972 28.076172 15.587891 A 1.50015 1.50015 0 0 0 30.347656 17.091797 C 30.903487 16.747196 31.527793 16.550781 32.205078 16.550781 C 33.977639 16.550781 35.413551 17.814712 35.695312 19.5 L 21.5 19.5 L 21.5 13.302734 C 22.108481 12.22959 23.249723 11.5 24.585938 11.5 z M 10.751953 22.5 L 36.835938 22.5 A 1.50015 1.50015 0 0 0 37.041016 22.53125 L 36.351562 24.414062 L 36.345703 24.429688 L 33.308594 32.0625 A 1.50015 1.50015 0 1 0 36.095703 33.171875 L 36.228516 32.835938 L 37.257812 40.945312 C 37.291024 41.26248 37.084407 41.5 36.769531 41.5 L 11.359375 41.5 C 11.031814 41.5 10.813236 41.248609 10.869141 40.923828 L 10.869141 40.919922 L 12.095703 33.552734 L 15.552734 29.875 A 1.50015 1.50015 0 0 0 14.533203 27.333984 A 1.50015 1.50015 0 0 0 13.365234 27.820312 L 12.138672 29.125 L 10.751953 22.5 z"/></svg>