<svg fill="#000000" xmlns="http://www.w3.org/2000/svg"  viewBox="0 0 48 48" width="24px" height="24px"><path d="M 24 4 C 15.181311 4 8 11.181311 8 20 L 8 26 L 6.5 26 A 1.50015 1.50015 0 1 0 6.5 29 L 8 29 L 8 34.5 C 8 39.728774 12.271226 44 17.5 44 L 30.5 44 C 35.728774 44 40 39.728774 40 34.5 L 40 29 L 41.5 29 A 1.50015 1.50015 0 1 0 41.5 26 L 40 26 L 40 20 C 40 11.181311 32.818689 4 24 4 z M 24 7 C 31.197311 7 37 12.802689 37 20 L 37 24.927734 L 30.660156 18.589844 A 1.50015 1.50015 0 0 0 29.578125 18.150391 A 1.50015 1.50015 0 0 0 28.982422 18.283203 L 25.330078 19.931641 C 25.185129 19.842817 25.040752 19.761039 24.900391 19.6875 L 24.900391 13.349609 C 24.900391 12.746276 24.673436 12.097265 24.212891 11.636719 C 23.752345 11.176173 23.103333 10.949219 22.5 10.949219 L 18.699219 10.949219 C 18.095885 10.949219 17.446874 11.176173 16.986328 11.636719 C 16.525782 12.097265 16.300781 12.746276 16.300781 13.349609 L 16.300781 19.675781 C 15.708102 19.978799 15.058165 20.396937 14.445312 21.126953 C 13.545244 22.199095 12.868296 23.797727 12.728516 26 L 11 26 L 11 20 C 11 12.802689 16.802689 7 24 7 z M 19.300781 13.949219 L 21.900391 13.949219 L 21.900391 20.640625 A 1.50015 1.50015 0 0 0 22.925781 22.0625 C 23.335337 22.199019 23.925126 22.447682 24.451172 23.082031 C 24.899277 23.622393 25.342596 24.479717 25.464844 26 L 15.732422 26 C 15.853371 24.438718 16.301482 23.583924 16.744141 23.056641 C 17.261725 22.440106 17.828305 22.210877 18.273438 22.0625 A 1.50015 1.50015 0 0 0 19.300781 20.640625 L 19.300781 13.949219 z M 29.271484 21.443359 L 33.830078 26 L 28.470703 26 C 28.370541 24.469597 28.002157 23.227522 27.480469 22.251953 L 29.271484 21.443359 z M 11 29 L 37 29 L 37 34.5 C 37 38.107226 34.107226 41 30.5 41 L 17.5 41 C 13.892774 41 11 38.107226 11 34.5 L 11 29 z"/></svg>