<?xml version="1.0" encoding="utf-8"?>
<!-- Generator: Adobe Illustrator 22.0.1, SVG Export Plug-In . SVG Version: 6.00 Build 0)  -->
<svg version="1.1" id="Layer_2" xmlns="http://www.w3.org/2000/svg" xmlns:xlink="http://www.w3.org/1999/xlink" x="0px" y="0px"
	 viewBox="0 0 256 256" style="enable-background:new 0 0 256 256;" xml:space="preserve">
<style type="text/css">
	.st0{fill:#3A312A;}
	.st1{fill:#D7E057;}
	.st2{fill:#FCE8CB;}
	.st3{fill:#8AC6DD;}
	.st4{fill-rule:evenodd;clip-rule:evenodd;fill:#FCE8CB;}
	.st5{fill:#F5978A;}
	.st6{fill:#87796F;}
	.st7{fill:#F16C7A;}
	.st8{fill:#68A8BC;}
	.st9{fill:#B9BC39;}
	.st10{fill:#CE4E61;}
	.st11{fill:#6B5B51;}
	.st12{fill:#CCAE8B;}
	.st13{fill-rule:evenodd;clip-rule:evenodd;fill:#F16C7A;}
</style>
<g>
	<g>
		<g>
			<path class="st1" d="M214.093,26.431c-0.974,11.564-13.025,13.39-13.025,13.39c10.347,0.487,12.925,14.059,12.925,14.059
				c0.221-9.677,13.321-14.202,13.321-14.202C217.501,39.09,214.093,26.431,214.093,26.431z"/>
		</g>
	</g>
	<g>
		<g>
			<path class="st0" d="M227.404,38.181c-8.605-0.515-11.832-12.024-11.863-12.141c-0.191-0.703-0.865-1.163-1.583-1.102
				c-0.725,0.066-1.298,0.642-1.359,1.367c-0.86,10.215-11.313,11.963-11.755,12.031c-0.763,0.116-1.313,0.791-1.273,1.561
				c0.04,0.771,0.657,1.385,1.427,1.421c9.028,0.426,11.499,12.719,11.523,12.844c0.137,0.711,0.759,1.217,1.472,1.217
				c0.042,0,0.084-0.002,0.126-0.005c0.764-0.064,1.357-0.693,1.375-1.46c0.195-8.509,12.192-12.777,12.313-12.819
				c0.675-0.234,1.092-0.914,0.994-1.622C228.702,38.764,228.118,38.223,227.404,38.181z M213.838,48.526
				c-1.357-3.131-3.709-6.908-7.587-8.877c2.931-1.404,6.409-3.913,8.202-8.272c1.551,3.071,4.199,6.88,8.334,8.723
				C219.78,41.739,215.864,44.505,213.838,48.526z"/>
		</g>
	</g>
	<g>
		<g>
			<path class="st1" d="M192.394,43.412c-0.689,8.179-9.213,9.471-9.213,9.471c7.318,0.344,9.142,9.944,9.142,9.944
				c0.156-6.844,9.422-10.045,9.422-10.045C194.805,52.366,192.394,43.412,192.394,43.412z"/>
		</g>
	</g>
	<g>
		<g>
			<path class="st0" d="M201.835,51.284c-5.766-0.345-7.972-8.186-7.993-8.265c-0.19-0.702-0.852-1.171-1.582-1.102
				c-0.726,0.065-1.299,0.643-1.36,1.368c-0.579,6.87-7.646,8.065-7.942,8.112c-0.763,0.116-1.313,0.791-1.273,1.561
				c0.04,0.771,0.657,1.385,1.427,1.421c6.035,0.284,7.724,8.645,7.739,8.727c0.135,0.713,0.759,1.22,1.472,1.22
				c0.042,0,0.083-0.002,0.125-0.005c0.765-0.063,1.358-0.693,1.376-1.461c0.13-5.708,8.332-8.633,8.412-8.661
				c0.677-0.234,1.094-0.913,0.996-1.622C203.134,51.868,202.55,51.326,201.835,51.284z M192.251,58.079
				c-0.924-1.886-2.34-3.947-4.447-5.28c1.856-1.041,3.697-2.63,4.871-4.916c1.057,1.874,2.654,3.954,4.941,5.224
				C195.766,54.207,193.627,55.847,192.251,58.079z"/>
		</g>
	</g>
	<g>
		<g>
			<path class="st1" d="M192.394,16.754c-0.689,8.179-9.213,9.471-9.213,9.471c7.318,0.344,9.142,9.944,9.142,9.944
				c0.156-6.844,9.422-10.046,9.422-10.046C194.805,25.708,192.394,16.754,192.394,16.754z"/>
		</g>
	</g>
	<g>
		<g>
			<path class="st0" d="M201.835,24.627c-5.766-0.346-7.972-8.187-7.994-8.266c-0.19-0.702-0.852-1.164-1.582-1.102
				c-0.726,0.065-1.299,0.643-1.36,1.368c-0.579,6.871-7.646,8.066-7.942,8.113c-0.763,0.116-1.313,0.791-1.273,1.561
				c0.04,0.771,0.657,1.385,1.427,1.421c6.035,0.284,7.724,8.645,7.739,8.727c0.135,0.713,0.759,1.22,1.473,1.22
				c0.041,0,0.083-0.002,0.125-0.005c0.765-0.063,1.358-0.693,1.376-1.461c0.13-5.709,8.331-8.633,8.412-8.661
				c0.676-0.233,1.094-0.913,0.996-1.622C203.134,25.211,202.55,24.67,201.835,24.627z M192.251,31.421
				c-0.924-1.885-2.34-3.947-4.447-5.279c1.855-1.041,3.697-2.63,4.871-4.917c1.057,1.874,2.654,3.955,4.941,5.225
				C195.766,27.55,193.627,29.188,192.251,31.421z"/>
		</g>
	</g>
	<g>
		<g>
			<path class="st0" d="M74.537,48.23l-0.471-0.404c-2.481-2.135-3.841-4.939-3.831-7.899c0.011-2.965,1.396-5.767,3.907-7.896
				l0.076-0.065c0.628-0.54,0.7-1.486,0.16-2.115c-0.539-0.63-1.487-0.699-2.115-0.16l-0.069,0.059
				c-3.184,2.7-4.946,6.312-4.96,10.168c-0.014,3.852,1.717,7.468,4.874,10.185l0.471,0.404c2.492,2.145,3.852,4.962,3.83,7.934
				c-0.021,2.983-1.432,5.795-3.971,7.916c-0.636,0.531-0.72,1.478-0.189,2.113c0.296,0.354,0.723,0.538,1.152,0.538
				c0.339,0,0.68-0.114,0.961-0.349c3.226-2.696,5.018-6.317,5.047-10.196C79.439,54.593,77.708,50.96,74.537,48.23z"/>
		</g>
	</g>
	<g>
		<g>
			<path class="st0" d="M96.351,48.23l-0.471-0.404c-2.48-2.135-3.841-4.939-3.83-7.899c0.011-2.965,1.396-5.767,3.903-7.894
				l0.077-0.065c0.63-0.537,0.705-1.484,0.167-2.114s-1.485-0.704-2.115-0.167l-0.073,0.063c-3.184,2.699-4.945,6.311-4.959,10.167
				c-0.014,3.852,1.717,7.468,4.874,10.185l0.471,0.404c2.491,2.145,3.852,4.962,3.83,7.934c-0.022,2.983-1.432,5.795-3.971,7.916
				c-0.636,0.531-0.72,1.478-0.189,2.113c0.296,0.354,0.723,0.538,1.152,0.538c0.339,0,0.68-0.114,0.961-0.349
				c3.226-2.696,5.019-6.317,5.047-10.197C101.252,54.593,99.522,50.96,96.351,48.23z"/>
		</g>
	</g>
	<g>
		<g>
			<path class="st0" d="M116.713,48.23l-0.471-0.404c-2.481-2.135-3.841-4.939-3.83-7.899c0.011-2.965,1.395-5.767,3.903-7.894
				l0.077-0.065c0.63-0.537,0.705-1.484,0.167-2.114c-0.538-0.63-1.485-0.704-2.115-0.167l-0.073,0.063
				c-3.184,2.699-4.945,6.311-4.959,10.167c-0.014,3.852,1.717,7.468,4.873,10.185l0.471,0.404c2.492,2.145,3.852,4.962,3.831,7.934
				c-0.022,2.983-1.432,5.795-3.971,7.916c-0.636,0.531-0.72,1.478-0.189,2.113c0.296,0.354,0.723,0.538,1.152,0.538
				c0.339,0,0.68-0.114,0.961-0.349c3.226-2.696,5.019-6.317,5.046-10.197C121.615,54.593,119.884,50.96,116.713,48.23z"/>
		</g>
	</g>
	<g>
		<g>
			<path class="st0" d="M138.526,48.23l-0.471-0.404c-2.48-2.135-3.841-4.939-3.83-7.899c0.011-2.965,1.396-5.767,3.907-7.896
				l0.076-0.065c0.628-0.54,0.7-1.486,0.16-2.115c-0.539-0.63-1.487-0.699-2.115-0.16l-0.069,0.059
				c-3.184,2.7-4.946,6.312-4.959,10.168c-0.014,3.852,1.717,7.468,4.874,10.185l0.471,0.404c2.492,2.145,3.852,4.962,3.83,7.934
				c-0.021,2.983-1.432,5.795-3.971,7.916c-0.636,0.531-0.72,1.478-0.189,2.113c0.296,0.354,0.723,0.538,1.152,0.538
				c0.339,0,0.68-0.114,0.961-0.349c3.226-2.696,5.019-6.317,5.047-10.196C143.429,54.593,141.698,50.96,138.526,48.23z"/>
		</g>
	</g>
	<g>
		<g>
			<path class="st7" d="M213.029,93.201c-5.43-1.14-11.5-1.86-18.14-2.29v2.27c0,3.63-1.29,6.96-3.43,9.55
				c7.16,0.39,13.64,1.06,19.08,2.21c15.24,3.23,17.3,9.06,17.3,14.34c0,27.82-31.09,50.45-69.29,50.45c-2.7,0-5.37-0.11-7.99-0.34
				c-0.01,4.62-2.11,8.74-5.4,11.49c4.35,0.56,8.83,0.85,13.39,0.85c44.82,0,81.29-28.02,81.29-62.45
				C239.839,105.751,230.819,96.971,213.029,93.201z"/>
		</g>
	</g>
	<g>
		<g>
			<path class="st0" d="M213.34,91.733h-0.002c-5.238-1.101-11.241-1.859-18.352-2.319c-0.41-0.022-0.82,0.12-1.122,0.402
				c-0.302,0.284-0.474,0.68-0.474,1.095v2.27c0,3.133-1.096,6.186-3.086,8.596c-0.36,0.437-0.444,1.039-0.217,1.558
				c0.228,0.519,0.727,0.864,1.292,0.896c7.741,0.421,13.907,1.134,18.851,2.18c14.159,3,16.111,7.96,16.111,12.872
				c0,26.991-30.411,48.95-67.79,48.95c-2.688,0-5.331-0.112-7.858-0.335c-0.42-0.038-0.833,0.104-1.143,0.387
				c-0.31,0.283-0.487,0.684-0.488,1.104c-0.009,3.997-1.781,7.767-4.862,10.342c-0.458,0.383-0.645,1-0.478,1.571
				c0.167,0.572,0.657,0.991,1.248,1.067c4.443,0.573,9.013,0.863,13.582,0.863c45.65,0,82.79-28.688,82.79-63.95
				C241.339,104.938,231.919,95.671,213.34,91.733z M158.549,180.231c-3.408,0-6.815-0.166-10.167-0.495
				c2.021-2.492,3.273-5.52,3.595-8.729c2.137,0.149,4.34,0.225,6.572,0.225c39.034,0,70.79-23.305,70.79-51.95
				c0-5.535-2.102-12.335-18.489-15.808c-4.511-0.953-9.977-1.638-16.648-2.08c1.423-2.484,2.188-5.32,2.188-8.213v-0.663
				c6.271,0.458,11.627,1.163,16.329,2.151c17.001,3.602,25.621,11.883,25.621,24.612
				C238.339,152.89,202.546,180.231,158.549,180.231z"/>
		</g>
	</g>
	<g>
		<g>
			<path class="st6" d="M30.32,209.611c0,8.183,6.634,14.817,14.818,14.817h120.776c8.184,0,14.818-6.634,14.818-14.817H30.32z"/>
		</g>
	</g>
	<g>
		<g>
			<path class="st0" d="M180.731,208.111H66.277c-0.829,0-1.5,0.672-1.5,1.5s0.671,1.5,1.5,1.5h112.87
				c-0.748,6.64-6.397,11.817-13.234,11.817H45.137c-6.836,0-12.486-5.178-13.233-11.817h20.484c0.829,0,1.5-0.672,1.5-1.5
				s-0.671-1.5-1.5-1.5H30.32c-0.829,0-1.5,0.672-1.5,1.5c0,8.997,7.32,16.317,16.317,16.317h120.776
				c8.997,0,16.318-7.32,16.318-16.317C182.231,208.783,181.56,208.111,180.731,208.111z"/>
		</g>
	</g>
	<g>
		<g>
			<path class="st6" d="M67.458,224.428v9.004c0,3.21,2.603,5.813,5.813,5.813h64.508c3.21,0,5.813-2.603,5.813-5.813v-9.004H67.458
				z"/>
		</g>
	</g>
	<g>
		<g>
			<path class="st0" d="M143.592,222.929H67.458c-0.829,0-1.5,0.672-1.5,1.5v9.004c0,4.032,3.281,7.313,7.313,7.313h64.508
				c4.032,0,7.313-3.281,7.313-7.313v-9.004C145.092,223.601,144.421,222.929,143.592,222.929z M142.092,233.433
				c0,2.379-1.935,4.313-4.313,4.313H73.271c-2.378,0-4.313-1.935-4.313-4.313v-7.504h73.134V233.433z"/>
		</g>
	</g>
	<g>
		<g>
			<path class="st1" d="M16.161,82.76v10.422c0,8.268,6.703,14.972,14.971,14.972h148.786c8.268,0,14.971-6.703,14.971-14.972V82.76
				H16.161z"/>
		</g>
	</g>
	<g>
		<g>
			<path class="st0" d="M194.89,81.26H150c-0.829,0-1.5,0.672-1.5,1.5s0.671,1.5,1.5,1.5h43.39v8.922
				c0,7.429-6.043,13.472-13.471,13.472H31.132c-7.428,0-13.472-6.043-13.472-13.472V84.26h118.337c0.829,0,1.5-0.672,1.5-1.5
				s-0.671-1.5-1.5-1.5H16.161c-0.829,0-1.5,0.672-1.5,1.5v10.422c0,9.083,7.389,16.472,16.472,16.472h148.786
				c9.082,0,16.471-7.389,16.471-16.472V82.76C196.39,81.932,195.718,81.26,194.89,81.26z"/>
		</g>
	</g>
	<g>
		<g>
			<path class="st1" d="M31.713,108.153v10.422c0,8.269,6.703,14.971,14.971,14.971h117.915c8.269,0,14.971-6.703,14.971-14.971
				v-10.422H31.713z"/>
		</g>
	</g>
	<g>
		<g>
			<path class="st0" d="M179.57,106.653H31.712c-0.829,0-1.5,0.672-1.5,1.5v10.422c0,9.083,7.389,16.472,16.472,16.472h117.914
				c9.083,0,16.472-7.389,16.472-16.472v-10.422C181.07,107.325,180.399,106.653,179.57,106.653z M178.07,118.575
				c0,7.429-6.043,13.472-13.472,13.472H46.684c-7.428,0-13.472-6.043-13.472-13.472v-8.922H178.07V118.575z"/>
		</g>
	</g>
	<g>
		<g>
			<path class="st1" d="M46.104,133.546v10.422c0,8.269,6.703,14.971,14.971,14.971h89.132c8.268,0,14.971-6.703,14.971-14.971
				v-10.422H46.104z"/>
		</g>
	</g>
	<g>
		<g>
			<path class="st0" d="M165.179,132.047H46.104c-0.829,0-1.5,0.672-1.5,1.5v10.422c0,9.082,7.389,16.472,16.472,16.472h89.132
				c9.082,0,16.471-7.39,16.471-16.472v-10.422C166.679,132.719,166.007,132.047,165.179,132.047z M163.679,143.969
				c0,7.429-6.043,13.472-13.471,13.472H61.075c-7.428,0-13.472-6.043-13.472-13.472v-8.922h116.075V143.969z"/>
		</g>
	</g>
	<g>
		<g>
			<path class="st1" d="M60.727,158.94v10.422c0,8.268,6.703,14.971,14.971,14.971h59.886c8.268,0,14.971-6.703,14.971-14.971
				V158.94H60.727z"/>
		</g>
	</g>
	<g>
		<g>
			<path class="st0" d="M150.556,157.44H60.727c-0.829,0-1.5,0.672-1.5,1.5v10.422c0,9.083,7.389,16.472,16.471,16.472h59.886
				c9.082,0,16.471-7.389,16.471-16.472V158.94C152.056,158.112,151.384,157.44,150.556,157.44z M149.056,169.362
				c0,7.429-6.043,13.472-13.471,13.472H75.698c-7.428,0-13.471-6.043-13.471-13.472v-8.922h86.829V169.362z"/>
		</g>
	</g>
	<g>
		<g>
			<path class="st1" d="M75.35,184.333v10.422c0,8.269,6.703,14.971,14.971,14.971h30.871c8.269,0,14.972-6.703,14.972-14.971
				v-10.422H75.35z"/>
		</g>
	</g>
	<g>
		<g>
			<path class="st0" d="M136.165,182.834H75.35c-0.829,0-1.5,0.672-1.5,1.5v10.422c0,9.082,7.389,16.471,16.472,16.471h30.871
				c9.083,0,16.472-7.389,16.472-16.471v-10.422C137.665,183.506,136.993,182.834,136.165,182.834z M134.665,194.756
				c0,7.428-6.044,13.471-13.472,13.471H90.322c-7.428,0-13.472-6.043-13.472-13.471v-8.922h57.815V194.756z"/>
		</g>
	</g>
	<g>
		<g>
			<path class="st9" d="M177.459,84.261c0.19,0,0.35,0.15,0.35,0.35v8.22c0,7.63-6.19,13.82-13.82,13.82h15.93
				c7.43,0,13.47-6.04,13.47-13.47v-8.92H177.459z"/>
		</g>
	</g>
	<g>
		<g>
			<path class="st9" d="M162.139,109.651c0.19,0,0.35,0.16,0.35,0.35v8.23c0,7.63-6.19,13.82-13.82,13.82h15.93
				c7.43,0,13.47-6.05,13.47-13.48v-8.92H162.139z"/>
		</g>
	</g>
	<g>
		<g>
			<path class="st9" d="M147.749,135.051c0.19,0,0.35,0.15,0.35,0.34v8.23c0,7.63-6.19,13.82-13.82,13.82h15.93
				c7.43,0,13.47-6.04,13.47-13.47v-8.92H147.749z"/>
		</g>
	</g>
	<g>
		<g>
			<path class="st9" d="M133.129,160.441c0.19,0,0.34,0.16,0.34,0.35v8.22c0,7.64-6.18,13.82-13.82,13.82h15.93
				c7.43,0,13.48-6.04,13.48-13.47v-8.92H133.129z"/>
		</g>
	</g>
	<g>
		<g>
			<path class="st9" d="M118.729,185.831c0.2,0,0.35,0.16,0.35,0.35v8.23c0,7.63-6.19,13.82-13.82,13.82h15.93
				c7.43,0,13.47-6.05,13.47-13.48v-8.92H118.729z"/>
		</g>
	</g>
	<g>
		<g>
			<path class="st11" d="M167.829,211.111c-0.75,6.64-6.4,11.82-13.24,11.82h11.32c6.84,0,12.49-5.18,13.24-11.82H167.829z"/>
		</g>
	</g>
	<g>
		<g>
			<path class="st11" d="M130.769,225.931v7.5c0,2.38-1.93,4.31-4.31,4.31h11.32c2.38,0,4.31-1.93,4.31-4.31v-7.5H130.769z"/>
		</g>
	</g>
</g>
</svg>
