<svg fill="#000000" xmlns="http://www.w3.org/2000/svg"  viewBox="0 0 48 48" width="24px" height="24px"><path d="M 8.0039062 5 A 1.50015 1.50015 0 1 0 8.0039062 8 L 8.0820312 8 L 8.0820312 40 L 8.0039062 40 A 1.50015 1.50015 0 1 0 8.0039062 43 L 9.5820312 43 L 38.416016 43 L 39.996094 43 A 1.50015 1.50015 0 1 0 39.996094 40 L 39.916016 40 L 39.916016 8 L 39.996094 8 A 1.50015 1.50015 0 1 0 39.996094 5 L 38.416016 5 L 9.5820312 5 L 8.0039062 5 z M 11.082031 8 L 36.916016 8 L 36.916016 40 L 11.082031 40 L 11.082031 8 z M 19 11 A 1.50015 1.50015 0 1 0 19 14 L 29 14 A 1.50015 1.50015 0 1 0 29 11 L 19 11 z M 23.984375 16.96875 C 21.365557 16.99592 18.781986 17.569581 16.398438 18.654297 A 1.50015 1.50015 0 0 0 15.564453 20.382812 L 16.001953 22.138672 L 14.994141 22.474609 A 1.50015 1.50015 0 0 0 13.998047 24.191406 L 16.324219 35.826172 A 1.50015 1.50015 0 0 0 17.794922 37.03125 L 30.205078 37.03125 A 1.50015 1.50015 0 0 0 31.675781 35.826172 L 34.001953 24.191406 A 1.50015 1.50015 0 0 0 33.005859 22.474609 L 31.998047 22.138672 L 32.435547 20.382812 A 1.50015 1.50015 0 0 0 31.601562 18.654297 C 29.217382 17.569788 26.634447 16.995916 24.015625 16.96875 A 1.50015 1.50015 0 0 0 23.984375 16.96875 z M 24 19.970703 C 25.782878 19.990983 27.521501 20.387146 29.191406 20.994141 L 28.75 22.757812 A 1.50015 1.50015 0 0 0 29.730469 24.544922 L 30.800781 24.902344 L 28.976562 34.03125 L 19.025391 34.03125 L 17.199219 24.902344 L 18.269531 24.544922 A 1.50015 1.50015 0 0 0 19.25 22.757812 L 18.808594 20.994141 C 20.478047 20.387232 22.217114 19.990984 24 19.970703 z"/></svg>