<svg fill="#000000" xmlns="http://www.w3.org/2000/svg"  viewBox="0 0 48 48" width="24px" height="24px"><path d="M 14.476562 5.9785156 A 1.50015 1.50015 0 0 0 14.257812 6 L 12.5 6 A 1.50015 1.50015 0 1 0 12.5 9 L 13 9 L 13 12.878906 L 12.568359 13.310547 A 1.50015 1.50015 0 0 0 12.285156 13.59375 L 11.201172 14.677734 C 9.1513676 16.727539 8 19.508209 8 22.40625 C 8 23.248793 8.097289 24.088848 8.2910156 24.910156 L 10.951172 36.21875 C 11.746762 39.598138 14.780935 42.001953 18.253906 42.001953 L 29.748047 42.001953 C 33.219906 42.001953 36.255186 39.599407 37.050781 36.21875 L 39.710938 24.910156 C 39.904592 24.089155 40.001953 23.249635 40.001953 22.40625 C 40.001953 19.508209 38.850936 16.72673 36.800781 14.677734 L 35.560547 13.439453 A 1.50015 1.50015 0 0 0 35 13.087891 L 35 9 L 35.5 9 A 1.50015 1.50015 0 1 0 35.5 6 L 33.746094 6 A 1.50015 1.50015 0 0 0 33.259766 6 L 14.746094 6 A 1.50015 1.50015 0 0 0 14.476562 5.9785156 z M 16 9 L 32 9 L 32 13 L 16 13 L 16 9 z M 14.121094 16 L 33.878906 16 L 34.679688 16.800781 C 36.167533 18.287786 37.001953 20.302291 37.001953 22.40625 C 37.001953 23.018865 36.931363 23.625705 36.791016 24.220703 A 1.50015 1.50015 0 0 0 36.791016 24.222656 L 34.128906 35.53125 L 34.130859 35.53125 C 33.650455 37.572593 31.844188 39.001953 29.748047 39.001953 L 18.253906 39.001953 C 16.156878 39.001953 14.353457 37.571862 13.873047 35.53125 L 11.210938 24.222656 A 1.50015 1.50015 0 0 0 11.210938 24.220703 C 11.070664 23.626059 11 23.017707 11 22.40625 C 11 20.302291 11.83407 18.287024 13.322266 16.798828 L 14.121094 16 z M 24.767578 19 A 1.50015 1.50015 0 0 0 23.46875 19.75 L 22.169922 22 L 19.767578 22 A 1.50015 1.50015 0 0 0 18.46875 22.75 L 16.736328 25.75 A 1.50015 1.50015 0 0 0 16.736328 27.25 L 18.46875 30.25 A 1.50015 1.50015 0 0 0 19.767578 31 L 22.169922 31 L 23.46875 33.25 A 1.50015 1.50015 0 0 0 24.767578 34 L 28.232422 34 A 1.50015 1.50015 0 0 0 29.53125 33.25 L 31.263672 30.25 A 1.50015 1.50015 0 0 0 31.263672 28.75 L 29.964844 26.5 L 31.263672 24.25 A 1.50015 1.50015 0 0 0 31.263672 22.75 L 29.53125 19.75 A 1.50015 1.50015 0 0 0 28.232422 19 L 24.767578 19 z M 25.634766 22 L 27.367188 22 L 28.232422 23.5 L 27.365234 25 L 25.830078 25 L 24.865234 23.330078 L 25.634766 22 z M 20.634766 25 L 22.169922 25 L 23.035156 26.5 L 22.169922 28 L 20.634766 28 L 19.767578 26.5 L 20.634766 25 z M 25.830078 28 L 27.367188 28 L 28.232422 29.5 L 27.365234 31 L 25.634766 31 L 24.865234 29.669922 L 25.830078 28 z"/></svg>