<svg fill="#000000" xmlns="http://www.w3.org/2000/svg"  viewBox="0 0 48 48" width="24px" height="24px"><path d="M 32.796875 5.6308594 C 31.642011 5.6308594 30.487667 6.0670206 29.615234 6.9394531 C 29.192779 7.3619082 28.898004 7.8573475 28.679688 8.3789062 C 26.961057 7.4609948 24.787082 7.6562773 23.345703 9.0976562 C 21.881499 10.56186 21.707335 12.779879 22.677734 14.509766 C 22.136167 14.727874 21.631131 15.05637 21.195312 15.492188 C 19.450447 17.237052 19.450447 20.110604 21.195312 21.855469 L 23.148438 23.808594 A 1.50015 1.50015 0 0 0 22.701172 23.753906 A 1.50015 1.50015 0 0 0 21.669922 24.208984 L 6.0605469 39.816406 A 1.5012209 1.5012209 0 1 0 8.1835938 41.939453 L 23.791016 26.330078 A 1.50015 1.50015 0 0 0 24.189453 24.849609 L 26.144531 26.804688 C 27.889396 28.549553 30.762948 28.549553 32.507812 26.804688 C 32.94363 26.368869 33.272126 25.863833 33.490234 25.322266 C 35.22016 26.292206 37.43801 26.118631 38.902344 24.654297 C 40.343169 23.213472 40.539699 21.038656 39.623047 19.320312 C 40.144663 19.101813 40.638208 18.807525 41.060547 18.384766 C 42.805412 16.639901 42.805412 13.764396 41.060547 12.019531 L 35.978516 6.9394531 C 35.106083 6.0670206 33.951739 5.6308594 32.796875 5.6308594 z M 32.796875 8.6113281 C 33.177511 8.6113281 33.557854 8.7609794 33.857422 9.0605469 L 38.939453 14.142578 C 39.538588 14.741713 39.538588 15.664537 38.939453 16.263672 C 38.427035 16.7766 37.669071 16.832345 37.089844 16.470703 A 1.50015 1.50015 0 0 0 35.234375 18.804688 L 36.78125 20.351562 C 37.396065 20.966378 37.396065 21.918388 36.78125 22.533203 C 36.166902 23.147551 35.216181 23.145862 34.601562 22.533203 L 34.599609 22.533203 L 32.507812 20.441406 L 30.386719 22.5625 C 30.985854 23.161635 30.985854 24.084459 30.386719 24.683594 C 29.787584 25.282729 28.86476 25.282729 28.265625 24.683594 L 23.316406 19.734375 C 22.717271 19.13524 22.717271 18.212416 23.316406 17.613281 C 23.915541 17.014146 24.838365 17.014146 25.4375 17.613281 A 1.50015 1.50015 0 0 0 27.558594 15.492188 L 25.466797 13.398438 C 24.851982 12.783622 24.851982 11.833565 25.466797 11.21875 C 26.081612 10.603935 27.031669 10.603935 27.646484 11.21875 L 29.195312 12.765625 A 1.50015 1.50015 0 0 0 31.527344 10.912109 C 31.166184 10.332854 31.224108 9.572767 31.736328 9.0605469 C 32.035896 8.7609794 32.416239 8.6113281 32.796875 8.6113281 z M 42 23.146484 C 41.708 24.227484 41.145406 25.240359 40.316406 26.068359 C 39.918406 26.467359 39.473 26.801078 39 27.080078 L 39 30.570312 C 39 31.358313 38.358313 32 37.570312 32 L 37.429688 32 C 36.997687 32 36.681187 31.800766 36.492188 31.634766 C 36.050187 31.244766 35.421813 31.150578 34.882812 31.392578 C 34.345813 31.634578 34 32.169766 34 32.759766 L 34 37.570312 C 34 38.358313 33.358313 39 32.570312 39 L 32.429688 39 C 31.641688 39 31 38.358313 31 37.570312 L 31 29.898438 C 30.46 30.041438 29.899172 30.123047 29.326172 30.123047 C 28.875172 30.123047 28.432 30.075328 28 29.986328 L 28 37.570312 C 28 40.012313 29.987687 42 32.429688 42 L 32.570312 42 C 35.012312 42 37 40.012313 37 37.570312 L 37 34.978516 C 37.142 34.992516 37.286687 35 37.429688 35 L 37.570312 35 C 40.012312 35 42 33.012312 42 30.570312 L 42 23.146484 z"/></svg>