<svg fill="#000000" xmlns="http://www.w3.org/2000/svg"  viewBox="0 0 48 48" width="24px" height="24px"><path d="M 18 4 C 16.476797 4 15.180349 4.9029729 14.505859 6.171875 C 14.321547 6.1448689 14.191736 6 14 6 C 11.808718 6 10 7.8087176 10 10 L 10 13 C 10 15.191282 11.808718 17 14 17 C 14.191736 17 14.321547 16.855131 14.505859 16.828125 C 15.180349 18.097027 16.476797 19 18 19 C 19.523203 19 20.819651 18.097027 21.494141 16.828125 C 21.678186 16.854994 21.808823 17 22 17 C 24.191282 17 26 15.191282 26 13 L 39.966797 13 A 1.50015 1.50015 0 1 0 39.966797 10 L 26 10 C 26 7.8087176 24.191282 6 22 6 C 21.808264 6 21.678453 6.1448689 21.494141 6.171875 C 20.819651 4.9029729 19.523203 4 18 4 z M 18 7 C 18.570718 7 19 7.4292824 19 8 L 19 8.0117188 A 1.50015 1.50015 0 0 0 21.402344 9.2089844 C 21.585518 9.0708383 21.780133 9 22 9 C 22.570718 9 23 9.4292824 23 10 L 23 11.027344 A 1.50015 1.50015 0 0 0 23 11.974609 L 23 13 C 23 13.570718 22.570718 14 22 14 C 21.778363 14 21.585581 13.93012 21.404297 13.792969 A 1.50015 1.50015 0 0 0 19 14.988281 L 19 15 C 19 15.570718 18.570718 16 18 16 C 17.429282 16 17 15.570718 17 15 L 17 14.988281 A 1.50015 1.50015 0 0 0 14.597656 13.791016 C 14.414482 13.929162 14.219867 14 14 14 C 13.429282 14 13 13.570718 13 13 L 13 10 C 13 9.4292824 13.429282 9 14 9 C 14.219867 9 14.414482 9.070839 14.597656 9.2089844 A 1.50015 1.50015 0 0 0 17 8.0117188 L 17 8 C 17 7.4292824 17.429282 7 18 7 z M 9.5 23.945312 C 7.5850452 23.945312 6 25.530359 6 27.445312 C 6 36.513495 13.431818 43.945312 22.5 43.945312 L 26.5 43.945312 C 35.594719 43.945312 43 36.540033 43 27.445312 C 43 25.530358 41.414955 23.945312 39.5 23.945312 L 9.5 23.945312 z M 9.5 26.945312 L 39.5 26.945312 C 39.795045 26.945312 40 27.150267 40 27.445312 C 40 34.918594 33.973281 40.945312 26.5 40.945312 L 22.5 40.945312 C 15.068182 40.945312 9 34.877131 9 27.445312 C 9 27.150267 9.2049548 26.945314 9.5 26.945312 z M 21 29.490234 C 20.931 29.490234 20.862781 29.507469 20.800781 29.542969 L 19.201172 30.466797 C 19.077172 30.538797 19.001953 30.6695 19.001953 30.8125 L 19.001953 32.658203 C 19.001953 32.801203 19.077172 32.934859 19.201172 33.005859 L 20.800781 33.927734 C 20.924781 33.998734 21.075219 33.998734 21.199219 33.927734 L 22.798828 33.005859 C 22.922828 32.934859 22.998047 32.801203 22.998047 32.658203 L 22.998047 30.8125 C 22.998047 30.6695 22.922828 30.537797 22.798828 30.466797 L 21.199219 29.542969 C 21.137219 29.507469 21.069 29.490234 21 29.490234 z M 27 29.490234 C 26.931 29.490234 26.862781 29.507469 26.800781 29.542969 L 25.201172 30.466797 C 25.077172 30.538797 25.001953 30.6695 25.001953 30.8125 L 25.001953 32.658203 C 25.001953 32.801203 25.077172 32.934859 25.201172 33.005859 L 26.800781 33.927734 C 26.924781 33.998734 27.075219 33.998734 27.199219 33.927734 L 28.798828 33.005859 C 28.922828 32.934859 28.998047 32.801203 28.998047 32.658203 L 28.998047 30.8125 C 28.998047 30.6695 28.922828 30.537797 28.798828 30.466797 L 27.199219 29.542969 C 27.137219 29.507469 27.069 29.490234 27 29.490234 z M 24 34.490234 C 23.931 34.490234 23.862781 34.507469 23.800781 34.542969 L 22.201172 35.466797 C 22.077172 35.538797 22.001953 35.6695 22.001953 35.8125 L 22.001953 37.658203 C 22.001953 37.801203 22.077172 37.934859 22.201172 38.005859 L 23.800781 38.927734 C 23.924781 38.998734 24.075219 38.998734 24.199219 38.927734 L 25.798828 38.005859 C 25.922828 37.934859 25.998047 37.801203 25.998047 37.658203 L 25.998047 35.8125 C 25.998047 35.6695 25.922828 35.537797 25.798828 35.466797 L 24.199219 34.542969 C 24.137219 34.507469 24.069 34.490234 24 34.490234 z"/></svg>