<?xml version="1.0" encoding="utf-8"?>
<!-- Generator: Adobe Illustrator 22.0.1, SVG Export Plug-In . SVG Version: 6.00 Build 0)  -->
<svg version="1.1" id="Layer_2" xmlns="http://www.w3.org/2000/svg" xmlns:xlink="http://www.w3.org/1999/xlink" x="0px" y="0px"
	 viewBox="0 0 256 256" style="enable-background:new 0 0 256 256;" xml:space="preserve">
<style type="text/css">
	.st0{fill:#3A312A;}
	.st1{fill:#D7E057;}
	.st2{fill:#FCE8CB;}
	.st3{fill:#8AC6DD;}
	.st4{fill-rule:evenodd;clip-rule:evenodd;fill:#FCE8CB;}
	.st5{fill:#F5978A;}
	.st6{fill:#87796F;}
	.st7{fill:#F16C7A;}
	.st8{fill:#68A8BC;}
	.st9{fill:#B9BC39;}
	.st10{fill:#CE4E61;}
	.st11{fill:#6B5B51;}
	.st12{fill:#CCAE8B;}
	.st13{fill-rule:evenodd;clip-rule:evenodd;fill:#F16C7A;}
</style>
<g>
	<g>
		<g>
			<path class="st3" d="M192.233,108.88c-0.47,0-0.94,0.01-1.4,0.02v14.02c0.47-0.03,0.93-0.04,1.4-0.04
				c16.26,0,29.49,13.23,29.49,29.49c0,16.26-13.23,29.49-29.49,29.49c-3.16,0-6.2-0.5-9.05-1.43l-3.68,13.53
				c4.03,1.23,8.3,1.9,12.73,1.9c23.98,0,43.49-19.51,43.49-43.49S216.213,108.88,192.233,108.88z"/>
		</g>
	</g>
	<g>
		<g>
			<path class="st0" d="M192.233,107.38c-0.481,0-0.963,0.01-1.435,0.021c-0.815,0.02-1.465,0.686-1.465,1.5v14.02
				c0,0.415,0.171,0.811,0.474,1.094c0.302,0.283,0.706,0.43,1.123,0.403c0.437-0.028,0.866-0.037,1.303-0.037
				c15.434,0,27.99,12.557,27.99,27.99s-12.556,27.99-27.99,27.99c-2.94,0-5.828-0.456-8.584-1.356
				c-0.39-0.128-0.816-0.09-1.178,0.105c-0.361,0.195-0.627,0.53-0.735,0.927l-3.68,13.53c-0.213,0.782,0.234,1.592,1.01,1.828
				c4.275,1.305,8.705,1.966,13.168,1.966c24.808,0,44.99-20.183,44.99-44.99S217.04,107.38,192.233,107.38z M192.233,194.36
				c-3.681,0-7.339-0.482-10.894-1.435l2.889-10.62c2.595,0.7,5.281,1.055,8.005,1.055c17.088,0,30.99-13.902,30.99-30.99
				c0-17.055-13.848-30.936-30.89-30.99v-11c23.107,0.056,41.89,18.871,41.89,41.99C234.223,175.523,215.386,194.36,192.233,194.36z
				"/>
		</g>
	</g>
	<g>
		<g>
			<path class="st1" d="M51.188,26.178c-0.974,11.564-13.025,13.389-13.025,13.389c10.347,0.487,12.925,14.059,12.925,14.059
				C51.31,43.95,64.41,39.425,64.41,39.425C54.596,38.838,51.188,26.178,51.188,26.178z"/>
		</g>
	</g>
	<g>
		<g>
			<path class="st0" d="M64.5,37.928c-8.604-0.515-11.831-12.024-11.863-12.141c-0.191-0.702-0.863-1.163-1.583-1.102
				c-0.725,0.066-1.298,0.642-1.359,1.367c-0.86,10.215-11.314,11.964-11.755,12.032c-0.763,0.116-1.314,0.791-1.274,1.561
				c0.04,0.771,0.657,1.385,1.428,1.421c9.028,0.425,11.499,12.718,11.522,12.843c0.137,0.711,0.759,1.217,1.472,1.217
				c0.042,0,0.084-0.002,0.126-0.005c0.764-0.064,1.357-0.693,1.375-1.46c0.195-8.509,12.192-12.777,12.313-12.819
				c0.675-0.234,1.092-0.914,0.994-1.622C65.797,38.511,65.213,37.97,64.5,37.928z M50.934,48.273
				c-1.357-3.131-3.708-6.907-7.587-8.876c2.931-1.405,6.409-3.914,8.202-8.273c1.551,3.071,4.199,6.88,8.334,8.723
				C56.875,41.486,52.96,44.252,50.934,48.273z"/>
		</g>
	</g>
	<g>
		<g>
			<path class="st1" d="M29.49,43.159c-0.689,8.179-9.212,9.47-9.212,9.47c7.318,0.344,9.142,9.944,9.142,9.944
				c0.156-6.844,9.422-10.045,9.422-10.045C31.9,52.113,29.49,43.159,29.49,43.159z"/>
		</g>
	</g>
	<g>
		<g>
			<path class="st0" d="M38.931,51.031c-5.766-0.345-7.972-8.186-7.993-8.265c-0.19-0.702-0.859-1.156-1.582-1.102
				c-0.726,0.065-1.299,0.643-1.36,1.368c-0.579,6.87-7.647,8.066-7.942,8.113c-0.763,0.116-1.313,0.791-1.273,1.561
				c0.04,0.771,0.657,1.385,1.428,1.421c6.035,0.284,7.723,8.645,7.739,8.727c0.135,0.713,0.759,1.22,1.472,1.22
				c0.041,0,0.083-0.002,0.125-0.005c0.765-0.063,1.358-0.693,1.376-1.461c0.13-5.709,8.332-8.634,8.412-8.662
				c0.677-0.234,1.094-0.913,0.996-1.622C40.23,51.615,39.646,51.073,38.931,51.031z M29.347,57.826
				c-0.924-1.886-2.34-3.947-4.447-5.28c1.855-1.041,3.697-2.629,4.871-4.916c1.057,1.874,2.654,3.954,4.941,5.224
				C32.861,53.954,30.723,55.594,29.347,57.826z"/>
		</g>
	</g>
	<g>
		<g>
			<path class="st1" d="M29.49,16.501c-0.689,8.179-9.212,9.471-9.212,9.471c7.318,0.344,9.142,9.944,9.142,9.944
				c0.156-6.845,9.422-10.045,9.422-10.045C31.9,25.456,29.49,16.501,29.49,16.501z"/>
		</g>
	</g>
	<g>
		<g>
			<path class="st0" d="M38.931,24.374c-5.766-0.346-7.972-8.186-7.994-8.265c-0.19-0.702-0.859-1.158-1.582-1.102
				c-0.726,0.065-1.299,0.643-1.36,1.368c-0.579,6.87-7.646,8.065-7.942,8.112c-0.763,0.116-1.313,0.791-1.273,1.561
				c0.04,0.771,0.657,1.385,1.427,1.421c6.035,0.284,7.724,8.645,7.739,8.727c0.135,0.713,0.759,1.22,1.472,1.22
				c0.041,0,0.083-0.002,0.125-0.005c0.765-0.063,1.358-0.693,1.376-1.461c0.13-5.708,8.332-8.633,8.412-8.661
				c0.676-0.234,1.094-0.913,0.996-1.622C40.23,24.958,39.646,24.417,38.931,24.374z M29.347,31.169
				c-0.924-1.886-2.34-3.947-4.447-5.28c1.856-1.041,3.697-2.63,4.871-4.916c1.057,1.874,2.654,3.954,4.941,5.224
				C32.862,27.297,30.723,28.937,29.347,31.169z"/>
		</g>
	</g>
	<g>
		<g>
			<path class="st6" d="M36.043,220.073c0,10.729,8.697,19.426,19.425,19.426H190.93c10.728,0,19.426-8.697,19.426-19.426H36.043z"
				/>
		</g>
	</g>
	<g>
		<g>
			<path class="st0" d="M210.355,218.573H36.042c-0.829,0-1.5,0.672-1.5,1.5c0,11.538,9.387,20.925,20.926,20.925h89.349
				c0.829,0,1.5-0.672,1.5-1.5s-0.671-1.5-1.5-1.5H55.468c-9.379,0-17.099-7.24-17.864-16.425h171.189
				c-0.765,9.185-8.484,16.425-17.863,16.425h-31.851c-0.829,0-1.5,0.672-1.5,1.5s0.671,1.5,1.5,1.5h31.851
				c11.538,0,20.925-9.387,20.925-20.925C211.855,219.245,211.184,218.573,210.355,218.573z"/>
		</g>
	</g>
	<g>
		<g>
			<path class="st0" d="M94.736,75.814c-2.365-2.365-3.66-5.509-3.647-8.854c0.012-3.344,1.331-6.479,3.713-8.825
				c2.941-2.897,4.577-6.768,4.607-10.896c0.03-4.128-1.549-8.021-4.448-10.963l-0.434-0.439
				c-4.785-4.856-4.756-12.729,0.071-17.557l0.07-0.071c0.582-0.59,0.575-1.54-0.015-2.122c-0.589-0.581-1.54-0.574-2.121,0.015
				l-0.063,0.064c-5.981,5.981-6.017,15.751-0.079,21.777l0.434,0.439c4.821,4.893,4.763,12.794-0.129,17.615
				c-2.956,2.912-4.592,6.802-4.607,10.951c-0.016,4.149,1.592,8.051,4.527,10.986l0.246,0.245c0.293,0.292,0.676,0.438,1.06,0.438
				c0.384,0,0.768-0.146,1.062-0.44c0.585-0.586,0.584-1.536-0.002-2.121L94.736,75.814z"/>
		</g>
	</g>
	<g>
		<g>
			<path class="st0" d="M114.864,75.814c-2.365-2.365-3.66-5.509-3.648-8.853c0.013-3.345,1.331-6.479,3.713-8.826
				c2.941-2.897,4.577-6.768,4.607-10.896c0.03-4.128-1.549-8.021-4.448-10.963l-0.434-0.439
				c-4.785-4.856-4.756-12.729,0.068-17.554l0.071-0.071c0.583-0.588,0.581-1.537-0.007-2.121c-0.589-0.583-1.538-0.581-2.122,0.008
				l-0.067,0.067c-5.982,5.981-6.018,15.75-0.079,21.777l0.434,0.439c4.821,4.893,4.763,12.794-0.129,17.615
				c-2.956,2.912-4.592,6.802-4.608,10.951c-0.015,4.149,1.592,8.051,4.528,10.986l0.246,0.245c0.293,0.292,0.676,0.438,1.06,0.438
				c0.384,0,0.769-0.146,1.062-0.44c0.586-0.586,0.585-1.536-0.002-2.121L114.864,75.814z"/>
		</g>
	</g>
	<g>
		<g>
			<path class="st0" d="M133.653,75.814c-2.365-2.365-3.66-5.509-3.647-8.854c0.012-3.344,1.331-6.479,3.713-8.825
				c6.07-5.981,6.143-15.787,0.16-21.858l-0.434-0.439c-4.785-4.856-4.756-12.729,0.068-17.554l0.071-0.071
				c0.584-0.588,0.581-1.537-0.007-2.121c-0.588-0.583-1.537-0.581-2.122,0.008l-0.067,0.067
				c-5.981,5.981-6.017,15.751-0.079,21.777l0.434,0.439c4.821,4.893,4.763,12.794-0.129,17.615
				c-2.956,2.912-4.592,6.802-4.607,10.951c-0.016,4.149,1.592,8.051,4.527,10.986l0.246,0.245c0.293,0.292,0.676,0.438,1.06,0.438
				c0.384,0,0.768-0.146,1.062-0.44c0.585-0.586,0.584-1.536-0.002-2.121L133.653,75.814z"/>
		</g>
	</g>
	<g>
		<g>
			<path class="st0" d="M153.781,75.814c-2.365-2.365-3.66-5.509-3.647-8.854c0.012-3.344,1.331-6.479,3.713-8.825
				c6.07-5.981,6.143-15.787,0.16-21.858l-0.434-0.439c-4.785-4.856-4.756-12.729,0.068-17.554l0.071-0.071
				c0.583-0.588,0.581-1.537-0.007-2.121c-0.588-0.583-1.537-0.581-2.122,0.008l-0.067,0.067c-5.982,5.981-6.018,15.75-0.079,21.777
				l0.434,0.439c4.821,4.893,4.763,12.794-0.129,17.615c-2.956,2.912-4.592,6.802-4.607,10.951
				c-0.016,4.149,1.592,8.051,4.527,10.986l0.246,0.245c0.293,0.292,0.676,0.438,1.059,0.438c0.384,0,0.769-0.146,1.062-0.44
				c0.586-0.586,0.584-1.536-0.002-2.121L153.781,75.814z"/>
		</g>
	</g>
	<g>
		<g>
			<path class="st3" d="M182.664,86.943H63.769c-4.513,0-8.171,3.658-8.171,8.171v48.354c0,5.905,0.8,11.783,2.379,17.473
				l12.432,44.806c2.349,8.465,10.055,14.325,18.841,14.325h68.197c8.818,0,16.545-5.903,18.864-14.411l12.225-44.856
				c1.526-5.601,2.3-11.38,2.3-17.185V95.114C190.835,90.601,187.177,86.943,182.664,86.943z"/>
		</g>
	</g>
	<g>
		<g>
			<path class="st0" d="M182.664,85.443H94.876c-0.829,0-1.5,0.672-1.5,1.5s0.671,1.5,1.5,1.5h87.788
				c3.678,0,6.671,2.992,6.671,6.671v48.507c0,5.67-0.756,11.319-2.247,16.79l-12.225,44.856
				c-2.135,7.834-9.297,13.306-17.417,13.306H89.249c-8.082,0-15.234-5.438-17.395-13.227L59.422,160.54
				c-1.542-5.559-2.324-11.302-2.324-17.071V95.114c0-3.679,2.993-6.671,6.671-6.671h17.122c0.829,0,1.5-0.672,1.5-1.5
				s-0.671-1.5-1.5-1.5H63.769c-5.333,0-9.671,4.338-9.671,9.671v48.354c0,6.04,0.819,12.054,2.434,17.874l12.432,44.807
				c2.52,9.081,10.861,15.424,20.286,15.424h68.197c9.469,0,17.821-6.381,20.312-15.517l12.225-44.856
				c1.561-5.728,2.353-11.643,2.353-17.579V95.114C192.335,89.781,187.997,85.443,182.664,85.443z"/>
		</g>
	</g>
	<g>
		<g>
			<path class="st8" d="M182.663,88.44h-12.91c3.68,0,6.67,3,6.67,6.67v48.51c0,5.67-0.76,11.32-2.25,16.79l-12.22,44.86
				c-2.14,7.83-9.3,13.3-17.42,13.3h12.91c8.12,0,15.29-5.47,17.42-13.3l12.23-44.86c1.49-5.47,2.24-11.12,2.24-16.79V95.11
				C189.333,91.44,186.343,88.44,182.663,88.44z"/>
		</g>
	</g>
	<g>
		<g>
			<path class="st11" d="M193.093,221.57c0,0.001,0,0.002,0,0.003c-0.761,9.179-8.464,16.41-17.829,16.426
				c-0.01,0-0.02,0.001-0.03,0.001h15.7c9.38,0,17.1-7.24,17.86-16.43H193.093z"/>
		</g>
	</g>
</g>
</svg>
