<svg fill="#000000" xmlns="http://www.w3.org/2000/svg"  viewBox="0 0 48 48" width="24px" height="24px"><path d="M 18.371094 4.9511719 C 17.13608 4.890137 15.864332 5.3168241 14.902344 6.2695312 C 13.940356 7.2222385 13.397462 8.7412072 13.636719 10.417969 L 13.636719 10.419922 C 14.385973 15.663731 13.954593 18.130938 13.615234 21.070312 C 13.564674 21.505882 13.740803 21.88171 13.867188 22.271484 L 7.4414062 22.271484 C 5.5548547 22.271484 4.0713978 23.071414 3.390625 24.214844 C 2.7098522 25.358274 2.7648375 26.518029 2.8671875 27.300781 C 3.0510703 28.710549 3.3671875 31.166852 3.3671875 32.662109 C 3.3671875 34.047967 2.8535156 35.841909 2.8535156 39.330078 C 2.8535156 41.307302 4.3991199 43.052734 6.4121094 43.052734 L 6.4453125 43.052734 L 6.4785156 43.050781 C 6.4785156 43.050781 14.736919 42.699026 18.179688 42.927734 L 18.181641 42.927734 C 19.349327 43.005234 20.492506 42.796344 21.267578 41.982422 C 22.04265 41.1685 22.160525 40.151085 22.164062 39.230469 C 22.171063 37.404022 21.712505 35.295329 21.705078 32.714844 C 21.730528 32.522682 22.229408 28.766711 22.316406 27.189453 C 22.355956 26.475912 22.182683 25.837082 21.943359 25.251953 L 25.988281 25.5 C 25.800243 25.949126 25.470165 26.335751 25.400391 26.822266 C 24.368763 34.018041 25.396897 38.947801 25.414062 39.029297 C 25.56043 41.224238 27.326834 43.052734 29.556641 43.052734 L 29.648438 43.052734 L 29.740234 43.041016 C 29.740234 43.041016 33.343133 42.60177 34.619141 42.416016 L 34.621094 42.416016 C 36.242981 42.179381 37.944585 43.052734 40.6875 43.052734 C 43.015381 43.052734 44.857422 41.06531 44.857422 38.742188 L 44.857422 38.806641 C 44.857422 38.806641 45.1875 31.144121 45.1875 28.439453 C 45.1875 26.663469 44.447798 25.214719 43.416016 24.359375 C 42.384177 23.504036 41.180127 23.193359 40.125 23.193359 L 33.839844 22.914062 C 33.933006 22.661598 34.018718 22.405459 34.080078 22.138672 C 34.204366 21.826563 35.323149 18.872419 34.302734 15.402344 C 33.997809 14.364644 34.556194 12.374517 34.732422 10.433594 C 34.95359 8.0085866 33.010598 5.9684027 30.648438 5.8496094 L 18.390625 4.953125 L 18.371094 4.9511719 z M 18.222656 7.9472656 L 18.224609 7.9472656 L 30.482422 8.84375 L 30.498047 8.8457031 C 31.237886 8.8829101 31.806926 9.4931634 31.746094 10.160156 L 31.746094 10.162109 C 31.630322 11.437186 30.708706 13.807746 31.425781 16.248047 C 32.180441 18.814384 31.263672 21.115234 31.263672 21.115234 L 31.166016 21.353516 L 31.154297 21.611328 C 31.119527 22.302219 30.564238 22.751667 29.753906 22.726562 L 18.183594 22.015625 L 18.162109 22.015625 C 17.654925 21.999205 17.074213 21.826035 16.800781 21.650391 C 16.52735 21.474746 16.579113 21.558931 16.595703 21.416016 L 16.595703 21.414062 C 16.924349 18.567439 17.400167 15.542332 16.607422 9.9941406 C 16.480679 9.105902 16.705912 8.7071365 17.013672 8.4023438 C 17.320999 8.0979816 17.818974 7.9278621 18.222656 7.9472656 z M 7.4414062 25.271484 L 17.732422 25.271484 C 17.810592 25.271484 18.400854 25.425993 18.767578 25.742188 C 19.134303 26.05838 19.357224 26.392758 19.322266 27.023438 L 19.320312 27.023438 C 19.255523 28.198034 18.714844 32.470703 18.714844 32.470703 L 18.701172 32.566406 L 18.701172 32.662109 C 18.701172 35.608846 19.168739 38.001983 19.164062 39.21875 C 19.161762 39.827134 19.036976 39.975735 19.095703 39.914062 C 19.154433 39.852393 19.109723 39.982104 18.378906 39.933594 C 14.474428 39.674213 6.5290217 40.047238 6.4121094 40.052734 C 6.4114978 40.052734 6.4107682 40.052737 6.4101562 40.052734 C 6.149588 40.051576 5.8535156 39.803743 5.8535156 39.330078 C 5.8535156 36.150247 6.3671875 34.656251 6.3671875 32.662109 C 6.3671875 30.775367 6.0239141 28.308341 5.8417969 26.912109 C 5.7851921 26.478915 5.8380228 25.96957 5.96875 25.75 C 6.0994772 25.53043 6.2409579 25.271484 7.4414062 25.271484 z M 29.554688 25.726562 L 29.556641 25.726562 L 40.091797 26.193359 L 40.125 26.193359 C 40.544873 26.193359 41.121485 26.352562 41.501953 26.667969 C 41.882421 26.983375 42.1875 27.406438 42.1875 28.439453 C 42.1875 30.888785 41.859375 38.677734 41.859375 38.677734 L 41.857422 38.710938 L 41.857422 38.742188 C 41.857422 39.525064 41.309619 40.052734 40.6875 40.052734 C 38.744415 40.052734 36.883612 39.0539 34.1875 39.447266 C 33.083997 39.607908 29.769442 40.014384 29.537109 40.042969 C 28.924409 40.030279 28.386719 39.514043 28.386719 38.742188 L 28.386719 38.583984 L 28.351562 38.427734 C 28.351562 38.427734 27.397323 34.04028 28.371094 27.248047 C 28.445144 26.731748 28.651297 26.298754 28.869141 26.054688 C 29.08648 25.811186 29.251084 25.726953 29.554688 25.726562 z"/></svg>