<?xml version="1.0" encoding="utf-8"?>
<!-- Generator: Adobe Illustrator 22.0.1, SVG Export Plug-In . SVG Version: 6.00 Build 0)  -->
<svg version="1.1" id="Layer_2" xmlns="http://www.w3.org/2000/svg" xmlns:xlink="http://www.w3.org/1999/xlink" x="0px" y="0px"
	 viewBox="0 0 256 256" style="enable-background:new 0 0 256 256;" xml:space="preserve">
<style type="text/css">
	.st0{fill:#3A312A;}
	.st1{fill:#D7E057;}
	.st2{fill:#FCE8CB;}
	.st3{fill:#8AC6DD;}
	.st4{fill-rule:evenodd;clip-rule:evenodd;fill:#FCE8CB;}
	.st5{fill:#F5978A;}
	.st6{fill:#87796F;}
	.st7{fill:#F16C7A;}
	.st8{fill:#68A8BC;}
	.st9{fill:#B9BC39;}
	.st10{fill:#CE4E61;}
	.st11{fill:#6B5B51;}
	.st12{fill:#CCAE8B;}
	.st13{fill-rule:evenodd;clip-rule:evenodd;fill:#F16C7A;}
</style>
<g>
	<g>
		<g>
			<path class="st7" d="M156.699,194.19c-2.57,0-5.11-0.28-7.58-0.82v27.98c2.44-0.29,4.97-0.44,7.57-0.44
				c2.61,0,5.15,0.15,7.59,0.44v-27.98C161.809,193.91,159.269,194.19,156.699,194.19z"/>
		</g>
	</g>
	<g>
		<g>
			<path class="st0" d="M165.22,192.202c-0.353-0.284-0.819-0.394-1.261-0.297c-4.767,1.042-9.753,1.042-14.52,0
				c-0.442-0.097-0.907,0.013-1.261,0.297c-0.354,0.285-0.56,0.714-0.56,1.168v27.98c0,0.429,0.184,0.837,0.504,1.122
				c0.32,0.285,0.747,0.417,1.173,0.368c4.807-0.572,10.024-0.569,14.806,0c0.059,0.007,0.119,0.01,0.177,0.01
				c0.365,0,0.72-0.133,0.996-0.378c0.32-0.285,0.504-0.693,0.504-1.122v-27.98C165.779,192.916,165.574,192.486,165.22,192.202z
				 M162.779,219.685c-1.991-0.182-4.033-0.274-6.09-0.274c-2.047,0-4.082,0.092-6.07,0.274v-24.498c4.02,0.669,8.141,0.669,12.16,0
				V219.685z"/>
		</g>
	</g>
	<g>
		<g>
			<path class="st1" d="M75.97,26.291C74.997,37.854,62.946,39.68,62.946,39.68c10.347,0.487,12.925,14.059,12.925,14.059
				c0.221-9.677,13.321-14.202,13.321-14.202C79.379,38.95,75.97,26.291,75.97,26.291z"/>
		</g>
	</g>
	<g>
		<g>
			<path class="st0" d="M89.282,38.04c-8.605-0.515-11.832-12.024-11.864-12.141c-0.191-0.702-0.852-1.16-1.584-1.102
				c-0.725,0.066-1.298,0.642-1.359,1.367c-0.86,10.215-11.313,11.964-11.754,12.033c-0.763,0.115-1.313,0.79-1.273,1.56
				c0.04,0.77,0.657,1.384,1.428,1.421c9.028,0.425,11.499,12.718,11.522,12.842c0.137,0.711,0.759,1.217,1.472,1.217
				c0.042,0,0.085-0.001,0.127-0.005c0.764-0.064,1.357-0.693,1.375-1.459c0.195-8.509,12.192-12.777,12.313-12.819
				c0.675-0.235,1.092-0.914,0.994-1.623C90.58,38.624,89.996,38.083,89.282,38.04z M75.716,48.385
				c-1.356-3.13-3.709-6.907-7.587-8.877c2.931-1.405,6.409-3.913,8.202-8.272c1.551,3.071,4.2,6.88,8.334,8.722
				C81.658,41.599,77.742,44.364,75.716,48.385z"/>
		</g>
	</g>
	<g>
		<g>
			<path class="st1" d="M54.272,43.271c-0.689,8.179-9.213,9.471-9.213,9.471c7.318,0.344,9.142,9.944,9.142,9.944
				c0.156-6.844,9.422-10.045,9.422-10.045C56.682,52.225,54.272,43.271,54.272,43.271z"/>
		</g>
	</g>
	<g>
		<g>
			<path class="st0" d="M63.713,51.143c-5.766-0.345-7.972-8.186-7.994-8.265c-0.19-0.702-0.851-1.169-1.582-1.102
				c-0.726,0.065-1.299,0.642-1.36,1.368c-0.579,6.871-7.647,8.067-7.943,8.114c-0.763,0.115-1.313,0.79-1.273,1.561
				c0.04,0.77,0.657,1.384,1.428,1.421c6.035,0.284,7.724,8.644,7.739,8.726c0.135,0.712,0.759,1.22,1.473,1.22
				c0.041,0,0.083-0.001,0.125-0.005c0.765-0.064,1.358-0.694,1.376-1.461c0.13-5.709,8.331-8.633,8.412-8.661
				c0.676-0.234,1.094-0.913,0.996-1.622C65.012,51.727,64.428,51.186,63.713,51.143z M54.128,57.938
				c-0.924-1.886-2.34-3.947-4.447-5.28c1.856-1.041,3.697-2.63,4.871-4.917c1.057,1.874,2.654,3.955,4.941,5.224
				C57.644,54.066,55.505,55.706,54.128,57.938z"/>
		</g>
	</g>
	<g>
		<g>
			<path class="st1" d="M54.272,16.613c-0.689,8.179-9.213,9.471-9.213,9.471c7.318,0.344,9.142,9.944,9.142,9.944
				c0.156-6.845,9.422-10.045,9.422-10.045C56.682,25.568,54.272,16.613,54.272,16.613z"/>
		</g>
	</g>
	<g>
		<g>
			<path class="st0" d="M63.713,24.485c-5.766-0.345-7.972-8.186-7.994-8.265c-0.19-0.702-0.851-1.169-1.582-1.102
				c-0.726,0.066-1.299,0.642-1.36,1.368c-0.579,6.871-7.647,8.067-7.943,8.114c-0.763,0.115-1.313,0.79-1.273,1.56
				c0.04,0.77,0.657,1.384,1.427,1.421c6.036,0.284,7.724,8.644,7.74,8.726c0.135,0.712,0.759,1.22,1.473,1.22
				c0.041,0,0.083-0.001,0.125-0.005c0.765-0.063,1.358-0.694,1.376-1.461c0.13-5.709,8.331-8.634,8.412-8.662
				c0.676-0.234,1.094-0.913,0.996-1.622C65.012,25.07,64.428,24.528,63.713,24.485z M54.128,31.28
				c-0.924-1.885-2.34-3.947-4.447-5.279c1.856-1.041,3.698-2.63,4.871-4.917c1.057,1.874,2.654,3.955,4.941,5.224
				C57.644,27.409,55.505,29.048,54.128,31.28z"/>
		</g>
	</g>
	<g>
		<g>
			<path class="st2" d="M207.461,23.396c-0.626-3.97-4.08-6.876-8.099-6.876h-85.327c-4.019,0-7.473,2.906-8.099,6.876
				c-2.247,14.243-3.48,29.676-3.48,45.802c0,45.855,9.937,86.154,24.939,109.243c6.424,9.888,17.511,15.746,29.303,15.746
				s22.878-5.859,29.303-15.746c15.002-23.089,24.939-63.388,24.939-109.243C210.941,53.072,209.708,37.639,207.461,23.396z"/>
		</g>
	</g>
	<g>
		<g>
			<path class="st0" d="M208.943,23.162c-0.744-4.717-4.773-8.142-9.581-8.142H143.55c-0.829,0-1.5,0.671-1.5,1.5s0.671,1.5,1.5,1.5
				h55.813c3.321,0,6.104,2.359,6.618,5.609c2.296,14.56,3.461,29.892,3.461,45.568c0,44.092-9.232,84.625-24.697,108.426
				c-6.128,9.433-16.613,15.064-28.045,15.064c-11.432,0-21.917-5.631-28.045-15.064c-15.464-23.8-24.697-64.333-24.697-108.426
				c0-15.679,1.165-31.011,3.461-45.568c0.513-3.25,3.296-5.609,6.617-5.609h14.48c0.829,0,1.5-0.671,1.5-1.5s-0.671-1.5-1.5-1.5
				h-14.48c-4.807,0-8.836,3.424-9.58,8.142c-2.321,14.712-3.498,30.2-3.498,46.036c0,44.649,9.414,85.793,25.181,110.06
				c6.684,10.288,18.108,16.429,30.56,16.429c12.452,0,23.877-6.142,30.561-16.429c15.768-24.268,25.181-65.412,25.181-110.06
				C212.441,53.365,211.264,37.877,208.943,23.162z"/>
		</g>
	</g>
	<g>
		<g>
			<path class="st6" d="M210.431,51.354H102.967c-0.336,5.833-0.51,11.79-0.51,17.844c0,45.855,9.937,86.154,24.939,109.243
				c6.424,9.888,17.511,15.746,29.303,15.746c11.791,0,22.878-5.859,29.303-15.746c15.002-23.089,24.939-63.388,24.939-109.243
				C210.941,63.143,210.767,57.186,210.431,51.354z"/>
		</g>
	</g>
	<g>
		<g>
			<path class="st0" d="M211.929,51.267c-0.046-0.793-0.703-1.414-1.498-1.414h-22.555c-0.829,0-1.5,0.671-1.5,1.5
				s0.671,1.5,1.5,1.5h21.135c0.285,5.393,0.429,10.883,0.429,16.344c0,44.092-9.232,84.625-24.697,108.426
				c-6.128,9.433-16.613,15.064-28.045,15.064c-11.432,0-21.917-5.631-28.045-15.064c-15.464-23.8-24.697-64.333-24.697-108.426
				c0-5.461,0.145-10.951,0.429-16.344h68.469c0.829,0,1.5-0.671,1.5-1.5s-0.671-1.5-1.5-1.5h-69.889
				c-0.795,0-1.452,0.62-1.498,1.414c-0.34,5.902-0.512,11.935-0.512,17.93c0,44.649,9.414,85.793,25.181,110.06
				c6.684,10.288,18.108,16.429,30.56,16.429c12.452,0,23.877-6.142,30.561-16.429c15.768-24.268,25.181-65.412,25.181-110.06
				C212.441,63.202,212.269,57.169,211.929,51.267z"/>
		</g>
	</g>
	<g>
		<g>
			<path class="st2" d="M154.191,79.315L138.014,67.55c-2.016-1.466-4.838-1.02-6.303,0.995l-11.765,16.177
				c-1.466,2.016-1.02,4.838,0.995,6.303l16.177,11.765c2.015,1.466,4.838,1.02,6.303-0.995l11.765-16.177
				C156.652,83.603,156.206,80.781,154.191,79.315z"/>
		</g>
	</g>
	<g>
		<g>
			<path class="st0" d="M155.073,78.102l-16.177-11.765c-2.683-1.951-6.45-1.356-8.399,1.326L118.733,83.84
				c-0.945,1.299-1.327,2.888-1.077,4.474c0.25,1.586,1.103,2.98,2.402,3.925l16.177,11.765c1.065,0.775,2.302,1.148,3.528,1.148
				c1.86,0,3.696-0.858,4.871-2.474l11.765-16.177C158.349,83.82,157.754,80.052,155.073,78.102z M153.973,84.736l-11.765,16.177
				c-0.474,0.651-1.172,1.079-1.967,1.204c-0.794,0.125-1.59-0.065-2.242-0.539l-16.177-11.765
				c-0.651-0.474-1.078-1.172-1.204-1.967c-0.125-0.795,0.066-1.591,0.539-2.242l11.765-16.177c0.977-1.343,2.865-1.642,4.208-0.665
				l16.177,11.765c0.651,0.474,1.078,1.172,1.204,1.966C154.638,83.29,154.446,84.085,153.973,84.736z"/>
		</g>
	</g>
	<g>
		<g>
			<path class="st2" d="M189.377,93.383l-19.552-4.222c-2.436-0.526-4.837,1.022-5.363,3.458l-4.222,19.552
				c-0.526,2.436,1.022,4.837,3.458,5.363l19.552,4.222c2.436,0.526,4.837-1.022,5.363-3.458l4.222-19.552
				C193.361,96.311,191.813,93.909,189.377,93.383z"/>
		</g>
	</g>
	<g>
		<g>
			<path class="st0" d="M193.477,94.536c-0.871-1.35-2.214-2.28-3.784-2.619l-19.552-4.223c-1.569-0.338-3.178-0.046-4.527,0.824
				c-1.35,0.87-2.28,2.214-2.619,3.784l-4.223,19.552c-0.339,1.57-0.046,3.178,0.824,4.527c0.87,1.35,2.214,2.28,3.784,2.619
				l19.552,4.223c0,0,0,0,0,0c0.426,0.092,0.851,0.136,1.27,0.136c2.77,0,5.268-1.93,5.876-4.744l4.223-19.553
				C194.64,97.493,194.347,95.885,193.477,94.536z M191.369,98.43l-4.223,19.552c-0.35,1.623-1.955,2.662-3.581,2.308h0
				l-19.552-4.223c-1.624-0.351-2.659-1.957-2.309-3.58l4.223-19.552c0.17-0.786,0.636-1.459,1.312-1.896
				c0.676-0.436,1.482-0.584,2.268-0.413l19.552,4.223C190.684,95.2,191.719,96.806,191.369,98.43z"/>
		</g>
	</g>
	<g>
		<g>
			<path class="st2" d="M163.913,147.985l-6.925-18.766c-0.863-2.338-3.458-3.534-5.795-2.671l-18.766,6.925
				c-2.338,0.863-3.534,3.458-2.671,5.796l6.925,18.766c0.863,2.338,3.457,3.534,5.796,2.671l18.766-6.925
				C163.58,152.918,164.776,150.323,163.913,147.985z"/>
		</g>
	</g>
	<g>
		<g>
			<path class="st0" d="M165.32,147.466l-6.925-18.765c-0.556-1.507-1.666-2.707-3.124-3.379c-1.458-0.672-3.091-0.737-4.598-0.18
				l-18.767,6.925c-3.11,1.147-4.706,4.612-3.559,7.722l6.924,18.766c0.896,2.426,3.2,3.931,5.647,3.931
				c0.69,0,1.392-0.12,2.076-0.372l18.766-6.925c1.506-0.556,2.707-1.665,3.378-3.124
				C165.812,150.606,165.876,148.973,165.32,147.466z M162.415,150.808c-0.337,0.731-0.938,1.287-1.693,1.565l-18.765,6.925
				c-1.558,0.575-3.295-0.225-3.87-1.783l-6.924-18.766c-0.575-1.559,0.225-3.294,1.783-3.869l18.767-6.925
				c0.34-0.126,0.692-0.188,1.044-0.188c0.429,0,0.857,0.093,1.259,0.278c0.731,0.337,1.287,0.938,1.565,1.693l6.925,18.766
				C162.784,149.259,162.752,150.078,162.415,150.808z"/>
		</g>
	</g>
	<g>
		<g>
			<path class="st12" d="M205.979,23.63c-0.51-3.25-3.3-5.61-6.62-5.61h-12.95c3.32,0,6.11,2.36,6.62,5.61
				c1.34,8.5,2.28,17.28,2.85,26.22h12.95C208.269,40.91,207.319,32.13,205.979,23.63z"/>
		</g>
	</g>
	<g>
		<g>
			<path class="st11" d="M209.009,52.85h-12.95c0.29,5.4,0.43,10.89,0.43,16.35c0,44.09-9.23,84.62-24.7,108.42
				c-4.34,6.69-10.88,11.45-18.39,13.67h-0.03c-0.73,0.22-1.47,0.41-2.22,0.58c-0.09,0.02-0.19,0.04-0.28,0.06
				c-0.21,0.05-0.43,0.09-0.64,0.12c0.44,0.1,0.89,0.17,1.33,0.24c0.14,0.02,0.28,0.04,0.42,0.06c0.67,0.09,1.34,0.16,2.02,0.22
				c0.11,0.01,0.22,0.02,0.33,0.03c1.58,0.11,3.16,0.11,4.74,0c0.11-0.01,0.22-0.02,0.33-0.03c0.68-0.06,1.35-0.13,2.02-0.22
				c0.14-0.02,0.28-0.04,0.42-0.06c0.66-0.1,1.32-0.22,1.98-0.36c0.09-0.02,0.19-0.04,0.28-0.06c0.75-0.17,1.49-0.36,2.22-0.58h0.03
				c7.51-2.22,14.05-6.98,18.39-13.67c15.47-23.8,24.7-64.33,24.7-108.42C209.439,63.74,209.299,58.25,209.009,52.85z"/>
		</g>
	</g>
	<g>
		<g>
			<path class="st1" d="M156.694,220.913c-19.431,0-35.186,8.311-35.186,18.567h70.383
				C191.891,229.224,176.136,220.913,156.694,220.913z"/>
		</g>
	</g>
	<g>
		<g>
			<path class="st0" d="M156.693,219.413c-20.572,0-36.686,8.814-36.686,20.067c0,0.829,0.671,1.5,1.5,1.5h70.383
				c0.829,0,1.5-0.671,1.5-1.5C193.391,228.227,177.271,219.413,156.693,219.413z M123.143,237.98
				c1.556-8.581,16.287-15.567,33.55-15.567c17.269,0,32.005,6.986,33.562,15.567H123.143z"/>
		</g>
	</g>
	<g>
		<g>
			<path class="st9" d="M156.689,222.41c-1.64,0-3.25,0.06-4.83,0.18c15.11,1.16,27.32,7.62,28.73,15.39h9.67
				C188.699,229.4,173.959,222.41,156.689,222.41z"/>
		</g>
	</g>
</g>
</svg>
