<?xml version="1.0" encoding="utf-8"?>
<!-- Generator: Adobe Illustrator 22.0.1, SVG Export Plug-In . SVG Version: 6.00 Build 0)  -->
<svg version="1.1" id="Layer_2" xmlns="http://www.w3.org/2000/svg" xmlns:xlink="http://www.w3.org/1999/xlink" x="0px" y="0px"
	 viewBox="0 0 256 256" style="enable-background:new 0 0 256 256;" xml:space="preserve">
<style type="text/css">
	.st0{fill:#3A312A;}
	.st1{fill:#D7E057;}
	.st2{fill:#FCE8CB;}
	.st3{fill:#8AC6DD;}
	.st4{fill-rule:evenodd;clip-rule:evenodd;fill:#FCE8CB;}
	.st5{fill:#F5978A;}
	.st6{fill:#87796F;}
	.st7{fill:#F16C7A;}
	.st8{fill:#68A8BC;}
	.st9{fill:#B9BC39;}
	.st10{fill:#CE4E61;}
	.st11{fill:#6B5B51;}
	.st12{fill:#CCAE8B;}
	.st13{fill-rule:evenodd;clip-rule:evenodd;fill:#F16C7A;}
</style>
<g>
	<g>
		<g>
			<path class="st1" d="M46.502,179.75c-0.974,11.564-13.025,13.389-13.025,13.389c10.347,0.487,12.925,14.059,12.925,14.059
				c0.221-9.677,13.321-14.202,13.321-14.202C49.911,192.409,46.502,179.75,46.502,179.75z"/>
		</g>
	</g>
	<g>
		<g>
			<path class="st0" d="M59.814,191.499c-8.605-0.515-11.833-12.024-11.864-12.141c-0.19-0.702-0.852-1.157-1.584-1.102
				c-0.725,0.066-1.298,0.642-1.359,1.367c-0.859,10.215-11.313,11.964-11.754,12.032c-0.763,0.116-1.313,0.791-1.273,1.561
				c0.04,0.771,0.657,1.385,1.428,1.421c9.028,0.426,11.499,12.719,11.522,12.843c0.138,0.711,0.76,1.217,1.473,1.217
				c0.042,0,0.084-0.002,0.126-0.005c0.765-0.064,1.357-0.693,1.375-1.46c0.193-8.509,12.191-12.777,12.313-12.819
				c0.676-0.234,1.092-0.914,0.994-1.622C61.111,192.082,60.528,191.541,59.814,191.499z M46.248,201.845
				c-1.357-3.131-3.709-6.907-7.588-8.876c2.931-1.405,6.409-3.913,8.202-8.273c1.551,3.071,4.2,6.88,8.335,8.723
				C52.189,195.058,48.274,197.823,46.248,201.845z"/>
		</g>
	</g>
	<g>
		<g>
			<path class="st1" d="M24.804,196.73c-0.689,8.179-9.212,9.471-9.212,9.471c7.318,0.344,9.142,9.944,9.142,9.944
				c0.156-6.844,9.422-10.045,9.422-10.045C27.214,205.685,24.804,196.73,24.804,196.73z"/>
		</g>
	</g>
	<g>
		<g>
			<path class="st0" d="M34.245,204.603c-5.766-0.345-7.972-8.186-7.994-8.265c-0.189-0.701-0.86-1.159-1.581-1.102
				c-0.726,0.065-1.3,0.643-1.361,1.368c-0.578,6.871-7.646,8.066-7.941,8.113c-0.763,0.116-1.313,0.791-1.273,1.561
				c0.04,0.771,0.657,1.385,1.428,1.421c6.034,0.284,7.723,8.645,7.738,8.727c0.136,0.713,0.759,1.22,1.473,1.22
				c0.041,0,0.083-0.002,0.125-0.005c0.765-0.063,1.358-0.693,1.376-1.461c0.13-5.709,8.331-8.634,8.412-8.662
				c0.676-0.234,1.093-0.913,0.996-1.622C35.544,205.187,34.959,204.645,34.245,204.603z M24.66,211.397
				c-0.924-1.886-2.34-3.946-4.446-5.279c1.855-1.041,3.697-2.63,4.87-4.917c1.058,1.874,2.654,3.954,4.941,5.224
				C28.176,207.525,26.036,209.165,24.66,211.397z"/>
		</g>
	</g>
	<g>
		<g>
			<path class="st1" d="M24.804,170.073c-0.689,8.179-9.212,9.47-9.212,9.47c7.318,0.345,9.142,9.944,9.142,9.944
				c0.156-6.844,9.422-10.045,9.422-10.045C27.214,179.027,24.804,170.073,24.804,170.073z"/>
		</g>
	</g>
	<g>
		<g>
			<path class="st0" d="M34.245,177.945c-5.766-0.345-7.972-8.186-7.994-8.265c-0.189-0.701-0.86-1.159-1.581-1.102
				c-0.726,0.065-1.3,0.643-1.361,1.368c-0.578,6.87-7.646,8.066-7.941,8.113c-0.763,0.116-1.313,0.791-1.273,1.561
				c0.04,0.771,0.657,1.385,1.428,1.421c6.034,0.284,7.723,8.645,7.738,8.727c0.136,0.713,0.759,1.22,1.473,1.22
				c0.041,0,0.083-0.002,0.125-0.005c0.765-0.063,1.358-0.693,1.376-1.461c0.13-5.709,8.331-8.634,8.412-8.662
				c0.676-0.234,1.093-0.913,0.996-1.622C35.544,178.529,34.959,177.987,34.245,177.945z M24.66,184.74
				c-0.924-1.886-2.34-3.947-4.446-5.279c1.855-1.042,3.697-2.63,4.87-4.917c1.058,1.874,2.654,3.954,4.941,5.224
				C28.176,180.868,26.037,182.508,24.66,184.74z"/>
		</g>
	</g>
	<g>
		<g>
			<path class="st6" d="M185.067,110.31H69.327c-1.59,0-3.14-0.18-4.63-0.52l2.938,38.476l1.106,14.491l4.406,57.713
				c0.83,10.95,9.96,19.4,20.94,19.4h66.22c10.98,0,20.11-8.45,20.94-19.4l8.45-110.68
				C188.207,110.13,186.657,110.31,185.067,110.31z"/>
		</g>
	</g>
	<g>
		<g>
			<path class="st0" d="M190.677,108.654c-0.361-0.312-0.846-0.429-1.313-0.327c-1.402,0.32-2.848,0.482-4.296,0.482H69.327
				c-1.448,0-2.894-0.162-4.296-0.482c-0.466-0.102-0.952,0.016-1.313,0.327c-0.36,0.311-0.553,0.774-0.517,1.25l2.938,38.477
				c0.063,0.827,0.8,1.443,1.61,1.382c0.826-0.063,1.444-0.784,1.382-1.61l-2.79-36.543c0.987,0.133,1.986,0.2,2.986,0.2h115.74
				c1,0,1.999-0.067,2.986-0.2l-8.303,108.747c-0.766,10.101-9.307,18.014-19.444,18.014h-66.22
				c-10.138,0-18.678-7.913-19.443-18.015l-4.406-57.713c-0.063-0.827-0.792-1.442-1.61-1.382c-0.826,0.063-1.444,0.784-1.382,1.61
				l4.406,57.712c0.884,11.656,10.738,20.787,22.436,20.787h66.22c11.697,0,21.553-9.131,22.437-20.786l8.45-110.68
				C191.229,109.429,191.037,108.965,190.677,108.654z"/>
		</g>
	</g>
	<g>
		<g>
			<path class="st0" d="M150.832,109.264c-0.282-0.29-0.67-0.454-1.075-0.454h-45.12c-0.405,0-0.793,0.164-1.075,0.454
				s-0.436,0.683-0.424,1.087l3.58,129.561c0.022,0.813,0.687,1.459,1.499,1.459h37.96c0.813,0,1.477-0.646,1.499-1.459
				l3.58-129.561C151.268,109.946,151.114,109.554,150.832,109.264z M144.718,238.37h-35.042l-3.497-126.561h42.036L144.718,238.37z
				"/>
		</g>
	</g>
	<g>
		<g>
			<path class="st2" d="M206.484,16.13H47.91c-4.62,0-8.198,4.042-7.637,8.628l8.202,67.093
				c1.288,10.538,10.236,18.458,20.852,18.458h115.741c10.616,0,19.564-7.92,20.852-18.458l8.202-67.093
				C214.682,20.172,211.104,16.13,206.484,16.13z"/>
		</g>
	</g>
	<g>
		<g>
			<path class="st0" d="M213.368,17.729c-1.744-1.97-4.253-3.1-6.884-3.1h-98.272c-0.828,0-1.5,0.672-1.5,1.5s0.672,1.5,1.5,1.5
				h98.272c1.772,0,3.462,0.761,4.638,2.089c1.175,1.327,1.726,3.098,1.51,4.857l-8.201,67.093
				c-1.195,9.771-9.52,17.141-19.363,17.141H69.326c-9.844,0-18.168-7.368-19.362-17.14l-8.202-67.094
				c-0.216-1.76,0.335-3.53,1.51-4.857c1.176-1.327,2.866-2.089,4.639-2.089h46.272c0.828,0,1.5-0.672,1.5-1.5s-0.672-1.5-1.5-1.5
				H47.91c-2.631,0-5.141,1.13-6.885,3.101c-1.744,1.97-2.562,4.598-2.242,7.209l8.202,67.094
				c1.379,11.274,10.982,19.776,22.341,19.776h115.741c11.357,0,20.962-8.502,22.342-19.776l8.201-67.094
				C215.93,22.328,215.112,19.7,213.368,17.729z"/>
		</g>
	</g>
	<g>
		<g>
			<path class="st6" d="M43.802,53.63l4.672,38.221c1.288,10.538,10.236,18.458,20.852,18.458h115.741
				c10.616,0,19.564-7.92,20.852-18.458l4.672-38.221H43.802z"/>
		</g>
	</g>
	<g>
		<g>
			<path class="st0" d="M211.715,52.636c-0.284-0.321-0.693-0.506-1.123-0.506H43.803c-0.43,0-0.839,0.185-1.123,0.506
				c-0.285,0.321-0.418,0.75-0.366,1.176l4.672,38.222c1.379,11.274,10.982,19.776,22.341,19.776h115.741
				c11.358,0,20.963-8.502,22.342-19.776l4.672-38.222C212.133,53.386,212,52.957,211.715,52.636z M204.431,91.67
				c-1.194,9.771-9.519,17.14-19.363,17.14H69.326c-9.844,0-18.168-7.368-19.362-17.14l-4.467-36.54h163.4L204.431,91.67z"/>
		</g>
	</g>
	<g>
		<g>
			<path class="st2" d="M154.835,43.486l-22.281-16.204c-2.776-2.019-6.663-1.405-8.682,1.371l-16.204,22.281
				c-2.019,2.776-1.405,6.663,1.371,8.682L131.32,75.82c2.776,2.019,6.663,1.405,8.682-1.371l16.204-22.281
				C158.225,49.392,157.612,45.505,154.835,43.486z"/>
		</g>
	</g>
	<g>
		<g>
			<path class="st0" d="M158.801,47.309c-0.321-2.035-1.416-3.823-3.083-5.035l-22.281-16.205c-1.666-1.212-3.701-1.705-5.741-1.381
				c-2.035,0.321-3.823,1.416-5.035,3.083l-16.204,22.28c-1.213,1.667-1.703,3.705-1.382,5.741s1.416,3.824,3.083,5.036
				l22.28,16.204c1.333,0.97,2.904,1.478,4.521,1.478c0.404,0,0.813-0.031,1.22-0.096c2.036-0.321,3.824-1.417,5.036-3.084
				l16.204-22.279C158.632,51.384,159.122,49.345,158.801,47.309z M154.993,51.286l-16.204,22.28
				c-0.741,1.019-1.834,1.688-3.078,1.884c-1.247,0.2-2.49-0.103-3.508-0.844c0,0,0,0-0.001,0l-22.281-16.204
				c-1.018-0.741-1.687-1.834-1.884-3.078c-0.196-1.244,0.104-2.49,0.845-3.509l16.204-22.281c0.741-1.019,1.834-1.688,3.078-1.884
				c0.249-0.039,0.497-0.059,0.745-0.059c0.988,0,1.948,0.311,2.764,0.902l22.281,16.205c1.018,0.741,1.687,1.834,1.884,3.078
				C156.034,49.021,155.734,50.267,154.993,51.286z"/>
		</g>
	</g>
	<g>
		<g>
			<path class="st2" d="M191.448,64.338l-26.929-5.816c-3.355-0.725-6.662,1.408-7.387,4.763l-5.816,26.929
				c-0.725,3.355,1.408,6.663,4.763,7.387l26.929,5.816c3.355,0.725,6.663-1.408,7.387-4.763l5.816-26.93
				C196.936,68.37,194.804,65.062,191.448,64.338z"/>
		</g>
	</g>
	<g>
		<g>
			<path class="st0" d="M196.621,66.231c-1.117-1.731-2.842-2.925-4.856-3.359l-26.93-5.816c-4.15-0.899-8.271,1.755-9.169,5.913
				l-5.815,26.93c-0.898,4.157,1.754,8.271,5.912,9.169l26.93,5.815c0.547,0.118,1.098,0.177,1.645,0.177
				c1.466,0,2.903-0.42,4.165-1.233c1.731-1.116,2.925-2.841,3.359-4.855l5.816-26.93C198.113,70.026,197.737,67.964,196.621,66.231
				z M194.746,71.408l-5.816,26.93c-0.267,1.23-0.995,2.285-2.054,2.967c-1.06,0.683-2.316,0.912-3.551,0.646l-26.93-5.815
				c-1.23-0.267-2.284-0.996-2.967-2.054c-0.683-1.059-0.912-2.319-0.646-3.551l5.815-26.93c0.478-2.207,2.437-3.721,4.609-3.721
				c0.328,0,0.661,0.035,0.995,0.106l26.93,5.816c1.231,0.267,2.285,0.995,2.968,2.054S195.012,70.177,194.746,71.408z"/>
		</g>
	</g>
	<g>
		<g>
			<path class="st2" d="M101.326,72.762l-4.995-27.094c-0.622-3.376-3.863-5.608-7.239-4.985l-27.094,4.995
				c-3.375,0.623-5.608,3.863-4.985,7.239l4.995,27.094c0.622,3.376,3.863,5.608,7.239,4.985l27.094-4.995
				C99.717,79.379,101.949,76.138,101.326,72.762z"/>
		</g>
	</g>
	<g>
		<g>
			<path class="st0" d="M102.802,72.491l-4.995-27.096c-0.771-4.183-4.807-6.959-8.985-6.188l-27.094,4.994
				c-2.027,0.374-3.787,1.515-4.956,3.212s-1.606,3.748-1.233,5.774l4.995,27.094c0.374,2.026,1.515,3.786,3.212,4.955
				c1.302,0.897,2.812,1.364,4.359,1.364c0.47,0,0.942-0.043,1.414-0.13l27.094-4.995c2.027-0.374,3.787-1.515,4.956-3.212
				S103.176,74.517,102.802,72.491z M99.098,76.563c-0.714,1.037-1.79,1.734-3.028,1.962l-27.094,4.995
				c-1.245,0.231-2.493-0.039-3.529-0.754c-1.037-0.714-1.734-1.789-1.962-3.027l-4.995-27.094c-0.229-1.239,0.039-2.493,0.753-3.53
				c0.715-1.037,1.79-1.734,3.028-1.962l27.095-4.995c0.288-0.053,0.574-0.078,0.857-0.078c2.229,0,4.216,1.591,4.634,3.859
				l4.995,27.096C100.08,74.273,99.813,75.526,99.098,76.563z"/>
		</g>
	</g>
	<g>
		<g>
			<circle class="st2" cx="180.147" cy="179.954" r="58.491"/>
		</g>
	</g>
	<g>
		<g>
			<path class="st0" d="M180.146,119.963c-33.079,0-59.99,26.912-59.99,59.991s26.911,59.99,59.99,59.99s59.991-26.911,59.991-59.99
				S213.226,119.963,180.146,119.963z M180.146,236.944c-31.425,0-56.99-25.565-56.99-56.99s25.565-56.991,56.99-56.991
				s56.991,25.566,56.991,56.991S211.571,236.944,180.146,236.944z"/>
		</g>
	</g>
	<g>
		<g>
			
				<ellipse transform="matrix(0.9239 -0.3827 0.3827 0.9239 -55.1526 82.6374)" class="st1" cx="180.147" cy="179.954" rx="45.258" ry="45.258"/>
		</g>
	</g>
	<g>
		<g>
			<path class="st0" d="M180.146,133.196c-25.782,0-46.758,20.976-46.758,46.758s20.976,46.758,46.758,46.758
				s46.758-20.976,46.758-46.758S205.929,133.196,180.146,133.196z M180.146,223.712c-24.128,0-43.758-19.63-43.758-43.758
				s19.63-43.758,43.758-43.758s43.758,19.63,43.758,43.758S204.274,223.712,180.146,223.712z"/>
		</g>
	</g>
	<g>
		<g>
			<path class="st0" d="M180.146,133.151c-0.828,0-1.5,0.672-1.5,1.5v90.515c0,0.828,0.672,1.5,1.5,1.5s1.5-0.672,1.5-1.5v-90.515
				C181.646,133.823,180.975,133.151,180.146,133.151z"/>
		</g>
	</g>
	<g>
		<g>
			<path class="st0" d="M213.209,146.847c-0.586-0.586-1.535-0.586-2.121,0l-64.004,64.003c-0.586,0.586-0.586,1.535,0,2.121
				c0.293,0.293,0.677,0.439,1.061,0.439s0.768-0.146,1.061-0.439l64.004-64.003C213.795,148.382,213.795,147.433,213.209,146.847z"
				/>
		</g>
	</g>
	<g>
		<g>
			<path class="st0" d="M225.404,178.409h-90.516c-0.828,0-1.5,0.672-1.5,1.5s0.672,1.5,1.5,1.5h90.516c0.828,0,1.5-0.672,1.5-1.5
				S226.232,178.409,225.404,178.409z"/>
		</g>
	</g>
	<g>
		<g>
			<path class="st0" d="M213.209,210.85l-64.004-64.003c-0.586-0.586-1.535-0.586-2.121,0s-0.586,1.535,0,2.121l64.004,64.003
				c0.293,0.293,0.677,0.439,1.061,0.439s0.768-0.146,1.061-0.439C213.795,212.385,213.795,211.436,213.209,210.85z"/>
		</g>
	</g>
	<g>
		<g>
			<path class="st0" d="M211.715,52.636c-0.284-0.321-0.693-0.506-1.123-0.506H43.803c-0.43,0-0.839,0.185-1.123,0.506
				c-0.285,0.321-0.418,0.75-0.366,1.176l4.672,38.222c1.379,11.274,10.982,19.776,22.341,19.776h115.741
				c11.358,0,20.963-8.502,22.342-19.776l4.672-38.222C212.133,53.386,212,52.957,211.715,52.636z M204.431,91.67
				c-1.194,9.771-9.519,17.14-19.363,17.14H69.326c-9.844,0-18.168-7.368-19.362-17.14l-4.467-36.54h163.4L204.431,91.67z"/>
		</g>
	</g>
	<g>
		<g>
			<path class="st11" d="M187.517,111.66c-0.2,0.03-0.39,0.05-0.59,0.06c-0.62,0.05-1.24,0.09-1.86,0.09h-8.72l-0.64,8.32
				c1.47-0.12,2.95-0.17,4.44-0.17c2.45,0,4.86,0.17,7.23,0.45l0.68-8.8C187.877,111.63,187.697,111.64,187.517,111.66z"/>
		</g>
	</g>
	<g>
		<g>
			<path class="st12" d="M211.127,19.72c-1.18-1.33-2.87-2.09-4.64-2.09h-11.79c0.72,0,1.44,0.08,2.11,0.32
				c2.91,1.05,4.48,3.85,4.14,6.63l-3.37,27.55h11.69l3.37-27.55C212.847,22.82,212.297,21.05,211.127,19.72z"/>
		</g>
	</g>
	<g>
		<g>
			<path class="st11" d="M197.207,55.13l-1.25,10.23c0.25,0.27,0.46,0.56,0.66,0.87c1.12,1.73,1.5,3.8,1.06,5.81l-5.82,26.93
				c-0.43,2.02-1.62,3.74-3.36,4.86c-1.1,0.71-2.34,1.12-3.61,1.21c-3.24,2.38-7.23,3.77-11.51,3.77h11.69
				c4.61,0,8.89-1.62,12.26-4.35c3.37-2.73,5.83-6.56,6.8-10.99c0.13-0.59,0.23-1.19,0.3-1.8l4.47-36.54H197.207z"/>
		</g>
	</g>
</g>
</svg>
