<?xml version="1.0" encoding="utf-8"?>
<!-- Generator: Adobe Illustrator 22.0.1, SVG Export Plug-In . SVG Version: 6.00 Build 0)  -->
<svg version="1.1" id="Layer_2" xmlns="http://www.w3.org/2000/svg" xmlns:xlink="http://www.w3.org/1999/xlink" x="0px" y="0px"
	 viewBox="0 0 256 256" style="enable-background:new 0 0 256 256;" xml:space="preserve">
<style type="text/css">
	.st0{fill:#3A312A;}
	.st1{fill:#D7E057;}
	.st2{fill:#FCE8CB;}
	.st3{fill:#8AC6DD;}
	.st4{fill-rule:evenodd;clip-rule:evenodd;fill:#FCE8CB;}
	.st5{fill:#F5978A;}
	.st6{fill:#87796F;}
	.st7{fill:#F16C7A;}
	.st8{fill:#68A8BC;}
	.st9{fill:#B9BC39;}
	.st10{fill:#CE4E61;}
	.st11{fill:#6B5B51;}
	.st12{fill:#CCAE8B;}
	.st13{fill-rule:evenodd;clip-rule:evenodd;fill:#F16C7A;}
</style>
<g>
	<g>
		<g>
			<path class="st2" d="M146.279,40.8c-2.7-0.42-5.46-0.63-8.27-0.63s-5.57,0.21-8.27,0.63c-25.59,3.92-45.27,25.75-45.85,52.29
				h108.24C191.549,66.55,171.869,44.72,146.279,40.8z"/>
		</g>
	</g>
	<g>
		<g>
			<path class="st0" d="M146.51,39.317c-5.527-0.859-11.478-0.859-16.998,0C102.799,43.409,82.98,66.01,82.39,93.057
				c-0.009,0.404,0.145,0.794,0.427,1.082c0.282,0.289,0.669,0.451,1.072,0.451h64.972c0.829,0,1.5-0.672,1.5-1.5
				s-0.671-1.5-1.5-1.5H85.444c1.257-24.905,19.757-45.514,44.525-49.308c5.222-0.812,10.852-0.813,16.083,0
				c24.765,3.794,43.265,24.402,44.521,49.308h-27.667c-0.829,0-1.5,0.672-1.5,1.5s0.671,1.5,1.5,1.5h29.222
				c0.403,0,0.79-0.162,1.072-0.451c0.282-0.288,0.436-0.678,0.427-1.082C193.038,66.01,173.22,43.409,146.51,39.317z"/>
		</g>
	</g>
	<g>
		<g>
			<path class="st1" d="M82.336,26.087c-0.974,11.564-13.024,13.39-13.024,13.39c10.347,0.487,12.925,14.059,12.925,14.059
				c0.221-9.677,13.321-14.202,13.321-14.202C85.744,38.746,82.336,26.087,82.336,26.087z"/>
		</g>
	</g>
	<g>
		<g>
			<path class="st0" d="M95.648,37.837c-8.605-0.516-11.832-12.025-11.864-12.142c-0.191-0.703-0.864-1.174-1.583-1.102
				c-0.725,0.066-1.298,0.642-1.359,1.367c-0.86,10.216-11.314,11.964-11.755,12.032c-0.763,0.116-1.313,0.791-1.273,1.561
				c0.04,0.771,0.657,1.385,1.427,1.421c9.028,0.426,11.499,12.719,11.523,12.844c0.137,0.711,0.759,1.217,1.472,1.217
				c0.042,0,0.084-0.002,0.126-0.005c0.764-0.064,1.357-0.693,1.375-1.46c0.195-8.509,12.192-12.777,12.313-12.819
				c0.675-0.234,1.092-0.914,0.994-1.622C96.945,38.421,96.361,37.88,95.648,37.837z M82.081,48.183
				c-1.357-3.131-3.709-6.908-7.587-8.877c2.931-1.404,6.409-3.913,8.202-8.273c1.551,3.071,4.2,6.881,8.334,8.723
				C88.023,41.395,84.108,44.16,82.081,48.183z"/>
		</g>
	</g>
	<g>
		<g>
			<path class="st1" d="M60.637,43.067c-0.689,8.179-9.212,9.471-9.212,9.471c7.318,0.344,9.142,9.944,9.142,9.944
				c0.156-6.845,9.422-10.045,9.422-10.045C63.048,52.021,60.637,43.067,60.637,43.067z"/>
		</g>
	</g>
	<g>
		<g>
			<path class="st0" d="M70.078,50.939c-5.766-0.345-7.972-8.186-7.993-8.265c-0.19-0.702-0.851-1.175-1.582-1.102
				c-0.726,0.065-1.299,0.643-1.36,1.368c-0.579,6.871-7.646,8.066-7.942,8.113c-0.763,0.116-1.313,0.791-1.273,1.561
				c0.04,0.771,0.657,1.385,1.427,1.421c6.035,0.284,7.724,8.645,7.739,8.727c0.135,0.713,0.759,1.22,1.472,1.22
				c0.042,0,0.083-0.002,0.125-0.005c0.765-0.063,1.358-0.693,1.376-1.461c0.13-5.709,8.331-8.634,8.412-8.662
				c0.677-0.234,1.094-0.913,0.996-1.622C71.377,51.523,70.793,50.981,70.078,50.939z M60.494,57.734
				c-0.924-1.886-2.34-3.947-4.447-5.279c1.855-1.041,3.697-2.63,4.871-4.917c1.057,1.874,2.654,3.954,4.941,5.224
				C64.009,53.862,61.87,55.502,60.494,57.734z"/>
		</g>
	</g>
	<g>
		<g>
			<path class="st1" d="M60.637,16.41c-0.689,8.179-9.212,9.471-9.212,9.471c7.318,0.344,9.142,9.944,9.142,9.944
				c0.156-6.845,9.422-10.045,9.422-10.045C63.048,25.364,60.637,16.41,60.637,16.41z"/>
		</g>
	</g>
	<g>
		<g>
			<path class="st0" d="M70.078,24.282c-5.766-0.345-7.972-8.186-7.993-8.265c-0.19-0.702-0.851-1.169-1.582-1.102
				c-0.726,0.065-1.299,0.643-1.36,1.368c-0.579,6.87-7.647,8.066-7.942,8.113c-0.763,0.116-1.313,0.791-1.273,1.561
				c0.04,0.771,0.657,1.385,1.427,1.421c6.035,0.284,7.724,8.645,7.739,8.727c0.135,0.713,0.759,1.22,1.473,1.22
				c0.041,0,0.082-0.002,0.124-0.005c0.765-0.063,1.358-0.693,1.376-1.461c0.13-5.709,8.331-8.634,8.412-8.662
				c0.677-0.234,1.094-0.913,0.996-1.622C71.377,24.866,70.793,24.324,70.078,24.282z M60.494,31.077
				c-0.924-1.886-2.341-3.947-4.447-5.279c1.855-1.042,3.697-2.63,4.871-4.917c1.057,1.874,2.654,3.954,4.941,5.224
				C64.009,27.205,61.87,28.845,60.494,31.077z"/>
		</g>
	</g>
	<g>
		<g>
			<path class="st3" d="M129.739,16.71V40.8c2.7-0.42,5.46-0.63,8.27-0.63s5.57,0.21,8.27,0.63V16.71H129.739z"/>
		</g>
	</g>
	<g>
		<g>
			<path class="st0" d="M146.279,15.21h-16.54c-0.829,0-1.5,0.672-1.5,1.5V40.8c0,0.438,0.191,0.854,0.524,1.14
				c0.333,0.284,0.774,0.409,1.206,0.343c5.222-0.812,10.855-0.813,16.079,0c0.077,0.012,0.154,0.018,0.231,0.018
				c0.355,0,0.702-0.126,0.976-0.36c0.333-0.285,0.524-0.701,0.524-1.14V16.71C147.779,15.882,147.108,15.21,146.279,15.21z
				 M144.779,39.078c-2.22-0.271-4.49-0.408-6.77-0.408c-2.281,0-4.551,0.137-6.77,0.408V18.21h13.54V39.078z"/>
		</g>
	</g>
	<g>
		<g>
			<path class="st7" d="M85.689,109.5l1.628,13.497l1.738,14.407l0.575,4.766l5.4,44.74l5.39,44.68c0.55,4.57,4.43,8,9.02,8h57.14
				c4.59,0,8.47-3.43,9.02-8l5.39-44.68l5.4-44.74l3.94-32.67H85.689z"/>
		</g>
	</g>
	<g>
		<g>
			<path class="st0" d="M191.452,108.505c-0.285-0.321-0.693-0.505-1.123-0.505H85.689c-0.429,0-0.838,0.184-1.123,0.505
				c-0.285,0.321-0.418,0.749-0.367,1.175l1.628,13.497c0.099,0.822,0.849,1.397,1.669,1.31c0.822-0.1,1.409-0.847,1.31-1.669
				L87.381,111h101.256L174.11,231.411c-0.458,3.808-3.696,6.679-7.531,6.679h-57.14c-3.835,0-7.072-2.871-7.531-6.68
				l-11.365-94.186c-0.099-0.823-0.845-1.402-1.669-1.31c-0.822,0.1-1.409,0.847-1.31,1.669L98.93,231.77
				c0.64,5.313,5.158,9.32,10.509,9.32h57.14c5.352,0,9.87-4.007,10.509-9.32l14.73-122.09
				C191.87,109.254,191.736,108.826,191.452,108.505z"/>
		</g>
	</g>
	<g>
		<g>
			<path class="st2" d="M196.372,93.096H79.646c-4.531,0-8.203,3.673-8.203,8.204c0,4.53,3.673,8.203,8.203,8.203h116.726
				c4.531,0,8.203-3.673,8.203-8.203C204.575,96.769,200.902,93.096,196.372,93.096z"/>
		</g>
	</g>
	<g>
		<g>
			<path class="st0" d="M196.372,91.597h-33.466c-0.829,0-1.5,0.672-1.5,1.5s0.671,1.5,1.5,1.5h33.466
				c3.696,0,6.703,3.007,6.703,6.703s-3.007,6.703-6.703,6.703H79.646c-3.696,0-6.704-3.007-6.704-6.703s3.007-6.703,6.704-6.703
				h69.215c0.829,0,1.5-0.672,1.5-1.5s-0.671-1.5-1.5-1.5H79.646c-5.351,0-9.704,4.353-9.704,9.703s4.353,9.703,9.704,9.703h116.726
				c5.35,0,9.703-4.353,9.703-9.703S201.722,91.597,196.372,91.597z"/>
		</g>
	</g>
	<g>
		<g>
			<path class="st1" d="M102.009,164.21c0-8.3,2.81-15.95,7.51-22.04h-19.89l5.4,44.74h15.02
				C105.019,180.72,102.009,172.811,102.009,164.21z"/>
		</g>
	</g>
	<g>
		<g>
			<path class="st0" d="M111.213,185.964c-4.968-6.113-7.704-13.84-7.704-21.754c0-7.718,2.489-15.022,7.197-21.124
				c0.35-0.452,0.411-1.064,0.159-1.577c-0.252-0.514-0.774-0.839-1.346-0.839h-19.89c-0.429,0-0.838,0.184-1.123,0.505
				c-0.285,0.321-0.418,0.749-0.367,1.175l5.4,44.74c0.091,0.754,0.731,1.32,1.489,1.32h15.02c0.579,0,1.106-0.333,1.354-0.855
				C111.652,187.032,111.578,186.413,111.213,185.964z M96.359,185.41l-5.038-41.74h15.29c-4.001,6.106-6.102,13.149-6.102,20.54
				c0,7.577,2.309,14.997,6.551,21.2H96.359z"/>
		</g>
	</g>
	<g>
		<g>
			<path class="st1" d="M166.619,142.17c4.7,6.09,7.51,13.74,7.51,22.04c0,8.601-3.01,16.51-8.04,22.7h14.9l5.4-44.74H166.619z"/>
		</g>
	</g>
	<g>
		<g>
			<path class="st0" d="M187.512,141.175c-0.285-0.321-0.693-0.505-1.122-0.505h-19.77c-0.572,0-1.094,0.325-1.346,0.839
				c-0.252,0.513-0.191,1.125,0.159,1.577c4.708,6.101,7.197,13.405,7.197,21.124c0,7.914-2.736,15.641-7.704,21.754
				c-0.365,0.449-0.439,1.068-0.19,1.591c0.249,0.522,0.776,0.855,1.355,0.855h14.9c0.759,0,1.398-0.566,1.489-1.32l5.4-44.74
				C187.93,141.924,187.796,141.496,187.512,141.175z M179.659,185.41h-10.581c4.242-6.203,6.55-13.623,6.55-21.2
				c0-7.392-2.101-14.434-6.102-20.54h15.17L179.659,185.41z"/>
		</g>
	</g>
	<g>
		<g>
			<path class="st2" d="M166.619,142.17c-6.6-8.53-16.93-14.02-28.55-14.02s-21.95,5.49-28.55,14.02
				c-4.7,6.09-7.51,13.74-7.51,22.04c0,8.601,3.01,16.51,8.04,22.7c6.61,8.15,16.7,13.36,28.02,13.36s21.41-5.209,28.02-13.36
				c5.03-6.19,8.04-14.1,8.04-22.7C174.129,155.91,171.319,148.26,166.619,142.17z"/>
		</g>
	</g>
	<g>
		<g>
			<path class="st0" d="M167.806,141.252c-7.181-9.279-18.019-14.602-29.736-14.602c-11.717,0-22.556,5.322-29.738,14.604
				c-5.117,6.631-7.822,14.569-7.822,22.956c0,8.602,2.975,16.999,8.375,23.646c7.172,8.843,17.81,13.915,29.185,13.915
				c11.375,0,22.013-5.072,29.184-13.914c5.401-6.647,8.375-15.045,8.375-23.646C175.629,155.822,172.924,147.884,167.806,141.252z
				 M164.924,185.965c-6.6,8.139-16.389,12.806-26.855,12.806c-10.467,0-20.255-4.667-26.856-12.807
				c-4.968-6.113-7.704-13.84-7.704-21.754c0-7.718,2.489-15.022,7.196-21.122c6.608-8.54,16.582-13.438,27.364-13.438
				c10.782,0,20.755,4.897,27.362,13.436c4.708,6.101,7.197,13.405,7.197,21.124C172.629,172.124,169.893,179.851,164.924,185.965z"
				/>
		</g>
	</g>
	<g>
		<g>
			<ellipse class="st6" cx="138.069" cy="164.302" rx="14.402" ry="22.851"/>
		</g>
	</g>
	<g>
		<g>
			<path class="st0" d="M138.069,139.951c-8.768,0-15.902,10.924-15.902,24.351c0,13.428,7.134,24.352,15.902,24.352
				c8.768,0,15.902-10.924,15.902-24.352C153.971,150.875,146.837,139.951,138.069,139.951z M138.069,185.653
				c-7.114,0-12.902-9.578-12.902-21.352c0-11.772,5.788-21.351,12.902-21.351c7.114,0,12.902,9.578,12.902,21.351
				C150.971,176.075,145.183,185.653,138.069,185.653z"/>
		</g>
	</g>
	<g>
		<g>
			<path class="st0" d="M139.449,163.454l-0.586-0.505c-3.169-2.727-4.906-6.314-4.892-10.104c0.014-3.797,1.782-7.382,4.982-10.095
				l0.095-0.081c0.631-0.537,0.707-1.484,0.17-2.115c-0.537-0.631-1.483-0.706-2.114-0.17l-0.093,0.079
				c-3.878,3.289-6.023,7.683-6.04,12.371c-0.017,4.682,2.091,9.081,5.935,12.389l0.586,0.505c3.182,2.738,4.919,6.343,4.892,10.148
				c-0.027,3.821-1.828,7.417-5.07,10.126c-0.636,0.531-0.72,1.478-0.189,2.113c0.296,0.354,0.723,0.538,1.152,0.538
				c0.339,0,0.68-0.114,0.961-0.349c3.93-3.284,6.112-7.689,6.146-12.407C145.417,171.195,143.31,166.776,139.449,163.454z"/>
		</g>
	</g>
	<g>
		<g>
			<path class="st12" d="M146.049,42.28c-4.43-0.68-9.13-0.79-13.63-0.31c0.83,0.08,1.64,0.18,2.45,0.31
				c24.76,3.8,43.27,24.41,44.52,49.31h11.18C189.319,66.69,170.819,46.08,146.049,42.28z"/>
		</g>
	</g>
	<g>
		<g>
			<path class="st10" d="M168.119,188.41l-5.19,43c-0.46,3.81-3.7,6.68-7.53,6.68h11.18c3.83,0,7.07-2.87,7.53-6.68l5.19-43H168.119
				z"/>
		</g>
	</g>
	<g>
		<g>
			<polygon class="st10" points="177.449,111 173.879,140.67 185.059,140.67 188.639,111 			"/>
		</g>
	</g>
	<g>
		<g>
			<path class="st12" d="M196.369,94.6h-11.18c3.7,0,6.7,3,6.7,6.7c0,3.7-3,6.7-6.7,6.7h11.18c3.7,0,6.71-3,6.71-6.7
				C203.079,97.6,200.069,94.6,196.369,94.6z"/>
		</g>
	</g>
	<g>
		<g>
			<path class="st9" d="M173.519,143.67l-0.74,6.15c0.14,0.33,0.27,0.66,0.4,1c0.04,0.09,0.07,0.18,0.1,0.28
				c0.28,0.75,0.54,1.51,0.77,2.28c0.01,0.04,0.03,0.07,0.04,0.1c0.23,0.78,0.43,1.57,0.61,2.37c0.02,0.12,0.05,0.24,0.08,0.36
				c0.17,0.77,0.3,1.54,0.42,2.32c0.02,0.15,0.04,0.29,0.06,0.43c0.11,0.79,0.2,1.58,0.26,2.37c0.01,0.12,0.01,0.24,0.02,0.35
				c0.06,0.84,0.09,1.681,0.09,2.53c0,0.87-0.04,1.73-0.1,2.601c-0.01,0.119-0.01,0.239-0.02,0.359c-0.07,0.82-0.16,1.63-0.28,2.45
				c-0.02,0.15-0.04,0.3-0.07,0.441c-0.13,0.809-0.28,1.609-0.46,2.399c-0.03,0.13-0.06,0.26-0.09,0.39
				c-0.19,0.82-0.41,1.64-0.66,2.45c-0.01,0.03-0.02,0.07-0.03,0.11c-0.25,0.79-0.53,1.58-0.83,2.35c-0.04,0.11-0.08,0.21-0.12,0.31
				c-0.3,0.76-0.63,1.51-0.98,2.25c-0.06,0.14-0.13,0.27-0.2,0.41c-0.35,0.73-0.73,1.44-1.13,2.14c-0.07,0.13-0.14,0.25-0.22,0.37
				c-0.42,0.72-0.86,1.43-1.33,2.121c-0.01,0.02-0.02,0.03-0.03,0.05h10.58l5.04-41.74H173.519z"/>
		</g>
	</g>
</g>
</svg>
