<svg fill="#000000" xmlns="http://www.w3.org/2000/svg"  viewBox="0 0 48 48" width="24px" height="24px"><path d="M 16 3 C 10.884716 3 5.9452914 7.4606847 5.2617188 13.253906 C 3.9509584 13.762069 3 15.022432 3 16.5 L 3 19.5 C 3 26.3857 8.6143004 32 15.5 32 C 21.872053 32 27.094892 27.174155 27.847656 21 L 43.5 21 A 1.50015 1.50015 0 1 0 43.5 18 L 26.5 18 A 1.50015 1.50015 0 0 0 25 19.5 C 25 24.7643 20.7643 29 15.5 29 C 10.2357 29 6 24.7643 6 19.5 L 6 16.5 C 6 16.21648 6.2038804 16.034749 6.4804688 16.019531 A 1.50015 1.50015 0 0 0 6.7402344 16 L 25.253906 16 A 1.50015 1.50015 0 0 0 25.740234 16 L 43.5 16 A 1.50015 1.50015 0 1 0 43.5 13 L 26.685547 13 C 25.881106 7.3366336 21.037971 3 16 3 z M 16 6 C 19.103775 6 22.804543 9.0966883 23.652344 13 L 14.912109 13 A 1.5 1.5 0 0 0 13.5 11 A 1.5 1.5 0 0 0 12.085938 13 L 8.3476562 13 C 9.1954576 9.0966883 12.896225 6 16 6 z M 17.5 8 A 1.5 1.5 0 0 0 17.5 11 A 1.5 1.5 0 0 0 17.5 8 z M 12.5 34 A 1.5 1.5 0 0 0 12.5 37 A 1.5 1.5 0 0 0 12.5 34 z M 18.5 34 A 1.5 1.5 0 0 0 18.5 37 A 1.5 1.5 0 0 0 18.5 34 z M 9.5 38 A 1.5 1.5 0 0 0 9.5 41 A 1.5 1.5 0 0 0 9.5 38 z M 15.5 38 A 1.5 1.5 0 0 0 15.5 41 A 1.5 1.5 0 0 0 15.5 38 z M 21.5 38 A 1.5 1.5 0 0 0 21.5 41 A 1.5 1.5 0 0 0 21.5 38 z M 6.5 42 A 1.5 1.5 0 0 0 6.5 45 A 1.5 1.5 0 0 0 6.5 42 z M 12.5 42 A 1.5 1.5 0 0 0 12.5 45 A 1.5 1.5 0 0 0 12.5 42 z M 18.5 42 A 1.5 1.5 0 0 0 18.5 45 A 1.5 1.5 0 0 0 18.5 42 z M 24.5 42 A 1.5 1.5 0 0 0 24.5 45 A 1.5 1.5 0 0 0 24.5 42 z"/></svg>