<svg fill="#000000" xmlns="http://www.w3.org/2000/svg"  viewBox="0 0 48 48" width="24px" height="24px"><path d="M 12.5 5 C 10.032499 5 8 7.0324991 8 9.5 L 8 38.5 C 8 40.967501 10.032499 43 12.5 43 L 25.5 43 A 1.50015 1.50015 0 0 0 26.515625 42.599609 L 26.517578 42.601562 L 39.517578 30.601562 L 39.515625 30.599609 A 1.50015 1.50015 0 0 0 40 29.5 L 40 9.5 C 40 7.0324991 37.967501 5 35.5 5 L 12.5 5 z M 12.5 8 L 35.5 8 C 36.346499 8 37 8.6535009 37 9.5 L 37 28 L 28.5 28 C 26.032499 28 24 30.032499 24 32.5 L 24 40 L 12.5 40 C 11.653501 40 11 39.346499 11 38.5 L 11 9.5 C 11 8.6535009 11.653501 8 12.5 8 z M 17.5 13 A 1.5 1.5 0 0 0 17.5 16 A 1.5 1.5 0 0 0 17.5 13 z M 22.5 13 A 1.50015 1.50015 0 1 0 22.5 16 L 29.5 16 A 1.50015 1.50015 0 1 0 29.5 13 L 22.5 13 z M 17.5 20 A 1.5 1.5 0 0 0 17.5 23 A 1.5 1.5 0 0 0 17.5 20 z M 22.5 20 A 1.50015 1.50015 0 1 0 22.5 23 L 29.5 23 A 1.50015 1.50015 0 1 0 29.5 20 L 22.5 20 z M 28.5 31 L 34.664062 31 L 27 38.074219 L 27 32.5 C 27 31.653501 27.653501 31 28.5 31 z"/></svg>