<svg fill="#000000" xmlns="http://www.w3.org/2000/svg"  viewBox="0 0 48 48" width="24px" height="24px"><path d="M 22.546875 3 C 21.717875 3 21.046875 3.672 21.046875 4.5 L 21.046875 6.1464844 L 16.626953 14.984375 C 16.244336 15.748907 16.046875 16.591117 16.046875 17.443359 L 16.046875 19 L 7.546875 19 A 1.50015 1.50015 0 0 0 6.046875 20.5 L 6.046875 32.445312 C 5.3552154 33.602206 4.9509948 34.951697 4.953125 36.392578 C 4.958065 40.568415 8.3186172 44.012111 12.457031 44.005859 C 13.849374 44.003779 15.539772 43.694794 17.230469 43.117188 C 17.850722 43.665052 18.665008 44 19.546875 44 L 39.546875 44 C 41.46183 44 43.046875 42.414955 43.046875 40.5 L 43.046875 17.443359 C 43.046875 16.588865 42.846539 15.748554 42.466797 14.986328 A 1.50015 1.50015 0 0 0 42.466797 14.984375 L 38.046875 6.1464844 L 38.046875 4.5 C 38.046875 3.672 37.375875 3 36.546875 3 L 22.546875 3 z M 23.472656 8 L 34.119141 8 L 30.626953 14.984375 C 30.624453 14.98937 30.623578 14.994998 30.621094 15 L 19.972656 15 L 23.472656 8 z M 36.546875 9.8535156 L 39.783203 16.326172 C 39.956896 16.675477 40.046875 17.056494 40.046875 17.443359 L 40.046875 40.5 C 40.046875 40.795045 39.84192 41 39.546875 41 L 33.046875 41 L 33.046875 17.443359 C 33.046875 17.054243 33.137735 16.671182 33.310547 16.326172 L 36.546875 9.8535156 z M 19.046875 18 L 30.046875 18 L 30.046875 41 L 21.398438 41 C 21.826764 40.678255 22.233834 40.332288 22.59375 39.941406 C 23.463291 38.997053 24.111221 37.764915 24.109375 36.365234 C 24.106975 35.013368 23.43142 33.857372 22.570312 32.951172 C 21.709205 32.044972 20.624017 31.317891 19.455078 30.710938 C 19.32072 30.641174 19.182889 30.578315 19.046875 30.511719 L 19.046875 18 z M 9.046875 22 L 16.046875 22 L 16.046875 29.339844 C 14.77203 28.966241 13.528188 28.756163 12.435547 28.757812 C 11.213945 28.759672 10.064945 29.067324 9.046875 29.599609 L 9.046875 22 z M 12.439453 31.757812 C 13.680827 31.755913 16.153394 32.376703 18.072266 33.373047 C 19.031701 33.871219 19.867123 34.460497 20.396484 35.017578 C 20.925845 35.574659 21.108773 36.030007 21.109375 36.369141 C 21.110029 36.86496 20.903584 37.346869 20.386719 37.908203 C 19.869853 38.469538 19.053673 39.040713 18.105469 39.513672 C 16.20906 40.45959 13.755762 41.003892 12.453125 41.005859 C 9.9715392 41.009559 7.9561861 38.976835 7.953125 36.388672 C 7.949295 33.800004 9.9565852 31.761562 12.439453 31.757812 z"/></svg>