<?xml version="1.0" encoding="utf-8"?>
<!-- Generator: Adobe Illustrator 22.0.1, SVG Export Plug-In . SVG Version: 6.00 Build 0)  -->
<svg version="1.1" id="Layer_2" xmlns="http://www.w3.org/2000/svg" xmlns:xlink="http://www.w3.org/1999/xlink" x="0px" y="0px"
	 viewBox="0 0 256 256" style="enable-background:new 0 0 256 256;" xml:space="preserve">
<style type="text/css">
	.st0{fill:#3A312A;}
	.st1{fill:#D7E057;}
	.st2{fill:#FCE8CB;}
	.st3{fill:#8AC6DD;}
	.st4{fill-rule:evenodd;clip-rule:evenodd;fill:#FCE8CB;}
	.st5{fill:#F5978A;}
	.st6{fill:#87796F;}
	.st7{fill:#F16C7A;}
	.st8{fill:#68A8BC;}
	.st9{fill:#B9BC39;}
	.st10{fill:#CE4E61;}
	.st11{fill:#6B5B51;}
	.st12{fill:#CCAE8B;}
	.st13{fill-rule:evenodd;clip-rule:evenodd;fill:#F16C7A;}
</style>
<g>
	<g>
		<g>
			<path class="st1" d="M59.884,25.724C58.91,37.287,46.859,39.113,46.859,39.113C57.206,39.6,59.784,53.172,59.784,53.172
				c0.221-9.677,13.321-14.202,13.321-14.202C63.292,38.383,59.884,25.724,59.884,25.724z"/>
		</g>
	</g>
	<g>
		<g>
			<path class="st0" d="M73.195,37.473c-8.605-0.515-11.832-12.024-11.864-12.141c-0.191-0.703-0.863-1.165-1.583-1.102
				c-0.725,0.066-1.298,0.642-1.359,1.367c-0.86,10.215-11.313,11.964-11.754,12.033c-0.763,0.115-1.313,0.79-1.273,1.56
				c0.04,0.77,0.657,1.384,1.428,1.421c9.028,0.425,11.499,12.718,11.522,12.842c0.137,0.711,0.759,1.217,1.472,1.217
				c0.042,0,0.084-0.002,0.126-0.005c0.764-0.064,1.357-0.693,1.375-1.459c0.194-8.509,12.191-12.777,12.313-12.819
				c0.675-0.235,1.092-0.914,0.994-1.623C74.493,38.057,73.909,37.516,73.195,37.473z M59.629,47.818
				c-1.357-3.13-3.709-6.907-7.587-8.876c2.931-1.405,6.409-3.913,8.202-8.273c1.551,3.071,4.2,6.88,8.334,8.723
				C65.571,41.032,61.656,43.797,59.629,47.818z"/>
		</g>
	</g>
	<g>
		<g>
			<path class="st1" d="M38.185,42.704c-0.689,8.179-9.212,9.471-9.212,9.471c7.318,0.344,9.142,9.944,9.142,9.944
				c0.156-6.844,9.422-10.045,9.422-10.045C40.596,51.658,38.185,42.704,38.185,42.704z"/>
		</g>
	</g>
	<g>
		<g>
			<path class="st0" d="M47.626,50.576c-5.766-0.345-7.972-8.186-7.994-8.265c-0.19-0.702-0.851-1.164-1.582-1.102
				c-0.726,0.065-1.299,0.642-1.36,1.368c-0.579,6.871-7.646,8.067-7.942,8.114c-0.763,0.115-1.313,0.79-1.273,1.56
				c0.04,0.77,0.657,1.384,1.428,1.421c6.035,0.284,7.723,8.644,7.739,8.726c0.135,0.713,0.759,1.22,1.472,1.22
				c0.042,0,0.083-0.001,0.125-0.005c0.765-0.063,1.358-0.694,1.376-1.461c0.13-5.709,8.331-8.634,8.412-8.662
				c0.676-0.234,1.094-0.913,0.996-1.622C48.925,51.161,48.341,50.619,47.626,50.576z M38.042,57.371
				c-0.924-1.885-2.34-3.947-4.447-5.28c1.856-1.041,3.697-2.63,4.871-4.916c1.057,1.873,2.654,3.954,4.941,5.224
				C41.557,53.5,39.418,55.139,38.042,57.371z"/>
		</g>
	</g>
	<g>
		<g>
			<path class="st1" d="M38.185,16.047c-0.689,8.179-9.212,9.471-9.212,9.471c7.318,0.344,9.142,9.944,9.142,9.944
				c0.156-6.845,9.422-10.045,9.422-10.045C40.596,25.001,38.185,16.047,38.185,16.047z"/>
		</g>
	</g>
	<g>
		<g>
			<path class="st0" d="M47.626,23.918c-5.766-0.345-7.972-8.186-7.994-8.265c-0.19-0.702-0.851-1.165-1.582-1.102
				c-0.726,0.065-1.299,0.642-1.36,1.368c-0.579,6.871-7.646,8.067-7.942,8.114c-0.763,0.115-1.313,0.79-1.273,1.56
				c0.04,0.77,0.657,1.384,1.427,1.421c6.035,0.284,7.724,8.644,7.739,8.726c0.135,0.712,0.759,1.22,1.473,1.22
				c0.041,0,0.083-0.001,0.125-0.005c0.765-0.063,1.358-0.694,1.376-1.461c0.13-5.709,8.332-8.634,8.412-8.662
				c0.677-0.234,1.094-0.913,0.996-1.622C48.925,24.503,48.341,23.961,47.626,23.918z M38.042,30.714
				c-0.924-1.886-2.34-3.947-4.447-5.28c1.856-1.042,3.697-2.63,4.871-4.917c1.057,1.874,2.655,3.954,4.941,5.224
				C41.557,26.842,39.418,28.481,38.042,30.714z"/>
		</g>
	</g>
	<g>
		<g>
			<path class="st3" d="M216.337,89.248c-4.884-11.713-11.296-22.165-18.869-30.89c-6.333-7.305-9.926-16.576-9.926-26.234v-0.198
				H93.861c0,4.844-0.903,9.588-2.611,14.035c-1.697,4.447-4.199,8.596-7.385,12.259c-7.623,8.765-14.075,19.256-18.978,31.028
				c-6.819,16.279-10.69,34.989-10.69,54.89c0,19.921,3.881,38.651,10.7,54.95c5.985,14.283,14.224,26.701,24.08,36.398
				c2.938,2.888,6.918,4.467,11.038,4.467h81.194c4.119,0,8.099-1.578,11.038-4.467c9.856-9.698,18.095-22.115,24.08-36.398
				c6.819-16.298,10.7-35.029,10.7-54.95C227.028,124.237,223.156,105.527,216.337,89.248z"/>
		</g>
	</g>
	<g>
		<g>
			<path class="st0" d="M217.722,88.671c-4.934-11.834-11.367-22.363-19.12-31.295c-6.164-7.111-9.559-16.079-9.559-25.251v-0.199
				c0-0.829-0.671-1.5-1.5-1.5H93.861c-0.829,0-1.5,0.671-1.5,1.5c0,4.617-0.845,9.158-2.512,13.5
				c-1.639,4.293-4.033,8.266-7.116,11.81c-7.815,8.985-14.285,19.561-19.229,31.433c-7.07,16.877-10.807,36.058-10.807,55.47
				c0,19.416,3.74,38.617,10.817,55.53c6.003,14.325,14.444,27.081,24.412,36.889c3.213,3.158,7.506,4.897,12.089,4.897h81.194
				c4.584,0,8.877-1.739,12.09-4.897c9.967-9.807,18.409-22.563,24.412-36.889c7.076-16.913,10.816-36.114,10.816-55.529
				C228.527,124.727,224.79,105.546,217.722,88.671z M214.944,198.509c-5.85,13.961-14.063,26.378-23.749,35.908
				c-2.647,2.603-6.194,4.037-9.986,4.037h-81.194c-3.792,0-7.338-1.434-9.985-4.036c-9.687-9.53-17.898-21.948-23.748-35.908
				c-6.924-16.548-10.584-35.35-10.584-54.371c0-19.017,3.656-37.797,10.575-54.313c4.822-11.577,11.122-21.879,18.725-30.621
				c3.314-3.81,5.89-8.085,7.654-12.706c1.618-4.214,2.518-8.604,2.683-13.073h90.729c0.306,9.438,3.925,18.595,10.272,25.916
				c7.543,8.69,13.807,18.946,18.619,30.486c6.917,16.514,10.573,35.294,10.573,54.311
				C225.527,163.159,221.868,181.96,214.944,198.509z"/>
		</g>
	</g>
	<g>
		<g>
			<path class="st7" d="M189.473,16.62h-43.866h-14.991H91.412c-2.687,0-4.865,2.178-4.865,4.865v5.571
				c0,2.687,2.178,4.865,4.865,4.865h98.062c2.687,0,4.865-2.178,4.865-4.865v-5.571C194.339,18.798,192.16,16.62,189.473,16.62z"/>
		</g>
	</g>
	<g>
		<g>
			<path class="st0" d="M189.473,15.12h-43.866c-0.829,0-1.5,0.671-1.5,1.5c0,0.829,0.671,1.5,1.5,1.5h43.866
				c1.855,0,3.365,1.51,3.365,3.365v5.571c0,1.856-1.51,3.365-3.365,3.365H91.412c-1.855,0-3.365-1.51-3.365-3.365v-5.571
				c0-1.856,1.51-3.365,3.365-3.365h39.205c0.829,0,1.5-0.671,1.5-1.5c0-0.829-0.671-1.5-1.5-1.5H91.412
				c-3.51,0-6.365,2.856-6.365,6.365v5.571c0,3.51,2.855,6.365,6.365,6.365h98.062c3.51,0,6.365-2.855,6.365-6.365v-5.571
				C195.838,17.976,192.983,15.12,189.473,15.12z"/>
		</g>
	</g>
	<g>
		<g>
			<path class="st7" d="M216.337,89.248H64.888c-6.819,16.279-10.69,34.989-10.69,54.89c0,19.921,3.881,38.651,10.7,54.95h151.43
				c6.819-16.298,10.7-35.029,10.7-54.95C227.028,124.237,223.156,105.527,216.337,89.248z"/>
		</g>
	</g>
	<g>
		<g>
			<path class="st0" d="M217.721,88.668c-0.233-0.558-0.779-0.92-1.383-0.92h-114.19c-0.829,0-1.5,0.671-1.5,1.5
				c0,0.829,0.671,1.5,1.5,1.5h113.187c6.67,16.289,10.192,34.727,10.192,53.39c0,18.669-3.525,37.126-10.203,53.45H65.9
				c-6.678-16.324-10.203-34.781-10.203-53.45c0-18.664,3.522-37.102,10.193-53.39h21.187c0.829,0,1.5-0.671,1.5-1.5
				c0-0.829-0.671-1.5-1.5-1.5H64.888c-0.604,0-1.15,0.363-1.383,0.92c-7.07,16.877-10.807,36.058-10.807,55.47
				c0,19.416,3.74,38.617,10.816,55.529c0.233,0.558,0.779,0.921,1.384,0.921h151.43c0.605,0,1.15-0.363,1.384-0.921
				c7.076-16.913,10.816-36.114,10.816-55.529C228.527,124.727,224.79,105.546,217.721,88.668z"/>
		</g>
	</g>
	<g>
		<g>
			<circle class="st2" cx="140.612" cy="144.168" r="46.321"/>
		</g>
	</g>
	<g>
		<g>
			<path class="st0" d="M140.612,96.347c-26.369,0-47.821,21.453-47.821,47.821s21.452,47.821,47.821,47.821
				c26.369,0,47.821-21.452,47.821-47.821S166.981,96.347,140.612,96.347z M140.612,188.989c-24.714,0-44.821-20.106-44.821-44.821
				s20.106-44.821,44.821-44.821c24.714,0,44.821,20.107,44.821,44.821S165.327,188.989,140.612,188.989z"/>
		</g>
	</g>
	<g>
		<g>
			<ellipse class="st6" cx="140.612" cy="144.287" rx="18.5" ry="29.353"/>
		</g>
	</g>
	<g>
		<g>
			<path class="st0" d="M140.612,113.434c-11.028,0-20,13.841-20,30.853c0,17.013,8.972,30.854,20,30.854
				c11.028,0,20-13.841,20-30.854C160.612,127.274,151.64,113.434,140.612,113.434z M140.612,172.14c-9.374,0-17-12.495-17-27.854
				s7.626-27.853,17-27.853c9.374,0,17,12.495,17,27.853S149.986,172.14,140.612,172.14z"/>
		</g>
	</g>
	<g>
		<g>
			<path class="st0" d="M142.106,143.521l-0.753-0.649c-4.166-3.584-6.451-8.309-6.433-13.304c0.018-5.004,2.343-9.724,6.549-13.291
				l0.123-0.104c0.631-0.536,0.709-1.482,0.173-2.114c-0.535-0.631-1.481-0.708-2.114-0.173l-0.122,0.104
				c-4.885,4.143-7.587,9.671-7.608,15.567c-0.022,5.887,2.634,11.423,7.476,15.589l0.753,0.649c4.184,3.6,6.468,8.346,6.432,13.363
				c-0.037,5.035-2.404,9.77-6.667,13.332c-0.636,0.531-0.72,1.477-0.189,2.113c0.296,0.355,0.723,0.538,1.152,0.538
				c0.339,0,0.68-0.114,0.961-0.349c4.95-4.136,7.7-9.68,7.743-15.612C149.625,153.267,146.97,147.706,142.106,143.521z"/>
		</g>
	</g>
	<g>
		<g>
			<path class="st8" d="M196.332,59.347c-6.34-7.33-9.96-16.48-10.27-25.92h-16.17c0.31,9.44,3.93,18.59,10.27,25.92
				c7.09,8.16,13.03,17.71,17.71,28.4h16.17C209.362,77.057,203.422,67.507,196.332,59.347z"/>
		</g>
	</g>
	<g>
		<g>
			<path class="st8" d="M197.872,200.587c-5.78,13.12-13.65,24.78-22.85,33.83c-2.64,2.6-6.19,4.04-9.98,4.04h16.17
				c3.79,0,7.34-1.44,9.98-4.04c9.2-9.05,17.07-20.71,22.85-33.83H197.872z"/>
		</g>
	</g>
	<g>
		<g>
			<path class="st10" d="M189.472,18.117h-16.17c1.86,0,3.37,1.51,3.37,3.37v5.57c0,1.86-1.51,3.36-3.37,3.36h16.17
				c1.86,0,3.37-1.5,3.37-3.36v-5.57C192.842,19.627,191.332,18.117,189.472,18.117z"/>
		</g>
	</g>
	<g>
		<g>
			<path class="st10" d="M215.332,90.747h-16.17c6.67,16.29,10.2,34.73,10.2,53.39c0,18.67-3.53,37.13-10.21,53.45h16.17
				c6.68-16.32,10.21-34.78,10.21-53.45C225.532,125.477,222.003,107.037,215.332,90.747z"/>
		</g>
	</g>
</g>
</svg>
