<svg fill="#000000" xmlns="http://www.w3.org/2000/svg"  viewBox="0 0 48 48" width="24px" height="24px"><path d="M 18.5 4 A 1.50015 1.50015 0 0 0 17 5.5 L 17 10.5 A 1.50015 1.50015 0 0 0 18.035156 11.923828 L 18.035156 15.46875 C 18.035156 17.976664 15.341537 22.036663 13.974609 23.904297 L 14.048828 23.810547 C 13.282521 24.698086 12.917969 25.810245 12.917969 26.908203 L 12.917969 38.347656 C 12.917969 41.510972 15.512652 44.083984 18.681641 44.083984 L 29.193359 44.083984 C 32.362602 44.083984 34.957031 41.511217 34.957031 38.347656 L 34.957031 26.992188 C 34.957031 25.742065 34.452329 24.635297 33.740234 23.810547 A 1.50015 1.50015 0 0 0 33.71875 23.787109 C 32.358324 22.276575 29.839844 18.942763 29.839844 15.46875 L 29.839844 11.960938 A 1.50015 1.50015 0 0 0 31 10.5 L 31 5.5 A 1.50015 1.50015 0 0 0 29.5 4 L 18.5 4 z M 20 7 L 28 7 L 28 8.7441406 L 20 8.7441406 L 20 7 z M 21.035156 12 L 26.839844 12 L 26.839844 15.46875 C 26.839844 20.279101 29.922784 24.050228 31.46875 25.769531 C 31.780655 26.130781 31.957031 26.546309 31.957031 26.992188 L 31.957031 38.347656 C 31.957031 39.930096 30.802117 41.083984 29.193359 41.083984 L 18.681641 41.083984 C 17.074629 41.083984 15.917969 39.928341 15.917969 38.347656 L 15.917969 26.908203 C 15.917969 26.482161 16.062621 26.067992 16.320312 25.769531 A 1.50015 1.50015 0 0 0 16.394531 25.675781 C 17.757603 23.813415 21.035156 19.738836 21.035156 15.46875 L 21.035156 12 z M 22.5 26 A 1.50015 1.50015 0 0 0 21 27.5 C 21 28.346499 20.346499 29 19.5 29 A 1.50015 1.50015 0 0 0 18 30.5 L 18 37.5 A 1.50015 1.50015 0 0 0 19.5 39 L 28.5 39 A 1.50015 1.50015 0 0 0 30 37.5 L 30 30.5 A 1.50015 1.50015 0 0 0 28.5 29 C 27.653501 29 27 28.346499 27 27.5 A 1.50015 1.50015 0 0 0 25.5 26 L 22.5 26 z M 23.693359 29 L 24.306641 29 C 24.762725 30.257597 25.742403 31.237275 27 31.693359 L 27 36 L 21 36 L 21 31.693359 C 22.257597 31.237275 23.237275 30.257597 23.693359 29 z"/></svg>