<?xml version="1.0" encoding="utf-8"?>
<!-- Generator: Adobe Illustrator 22.0.1, SVG Export Plug-In . SVG Version: 6.00 Build 0)  -->
<svg version="1.1" id="Layer_2" xmlns="http://www.w3.org/2000/svg" xmlns:xlink="http://www.w3.org/1999/xlink" x="0px" y="0px"
	 viewBox="0 0 256 256" style="enable-background:new 0 0 256 256;" xml:space="preserve">
<style type="text/css">
	.st0{fill:#3A312A;}
	.st1{fill:#D7E057;}
	.st2{fill:#FCE8CB;}
	.st3{fill:#8AC6DD;}
	.st4{fill-rule:evenodd;clip-rule:evenodd;fill:#FCE8CB;}
	.st5{fill:#F5978A;}
	.st6{fill:#87796F;}
	.st7{fill:#F16C7A;}
	.st8{fill:#68A8BC;}
	.st9{fill:#B9BC39;}
	.st10{fill:#CE4E61;}
	.st11{fill:#6B5B51;}
	.st12{fill:#CCAE8B;}
	.st13{fill-rule:evenodd;clip-rule:evenodd;fill:#F16C7A;}
</style>
<g>
	<g>
		<g>
			<path class="st1" d="M47.339,43.164c-0.974,11.563-13.025,13.389-13.025,13.389c10.347,0.487,12.925,14.06,12.925,14.06
				c0.221-9.677,13.321-14.203,13.321-14.203C50.747,55.823,47.339,43.164,47.339,43.164z"/>
		</g>
	</g>
	<g>
		<g>
			<path class="st0" d="M60.651,54.913c-8.606-0.516-11.833-12.025-11.864-12.142c-0.19-0.702-0.851-1.156-1.583-1.102
				c-0.725,0.066-1.298,0.642-1.359,1.367c-0.86,10.216-11.313,11.964-11.754,12.032c-0.763,0.116-1.313,0.791-1.273,1.561
				c0.04,0.771,0.657,1.385,1.427,1.421c9.028,0.426,11.499,12.719,11.523,12.844c0.137,0.711,0.759,1.217,1.472,1.217
				c0.042,0,0.084-0.002,0.126-0.005c0.764-0.064,1.357-0.693,1.375-1.46c0.195-8.509,12.192-12.777,12.313-12.819
				c0.675-0.234,1.092-0.914,0.994-1.622C61.948,55.497,61.365,54.956,60.651,54.913z M47.084,65.259
				c-1.356-3.131-3.709-6.908-7.587-8.877c2.931-1.405,6.409-3.913,8.202-8.273c1.551,3.071,4.2,6.881,8.334,8.723
				C53.026,58.472,49.111,61.237,47.084,65.259z"/>
		</g>
	</g>
	<g>
		<g>
			<path class="st1" d="M25.64,60.144c-0.689,8.179-9.212,9.47-9.212,9.47c7.318,0.345,9.142,9.944,9.142,9.944
				c0.156-6.844,9.422-10.045,9.422-10.045C28.051,69.098,25.64,60.144,25.64,60.144z"/>
		</g>
	</g>
	<g>
		<g>
			<path class="st0" d="M35.082,68.017c-5.766-0.346-7.973-8.187-7.994-8.266c-0.191-0.702-0.854-1.166-1.582-1.102
				c-0.726,0.065-1.299,0.643-1.36,1.368c-0.579,6.871-7.646,8.066-7.942,8.113c-0.763,0.116-1.313,0.791-1.273,1.561
				c0.04,0.771,0.657,1.385,1.427,1.421c6.036,0.284,7.724,8.645,7.739,8.727c0.135,0.712,0.759,1.22,1.472,1.22
				c0.042,0,0.083-0.002,0.125-0.005c0.765-0.063,1.358-0.693,1.376-1.461c0.131-5.709,8.332-8.633,8.413-8.661
				c0.676-0.233,1.094-0.913,0.996-1.622C36.381,68.601,35.796,68.06,35.082,68.017z M25.497,74.811
				c-0.924-1.885-2.34-3.947-4.447-5.279c1.855-1.041,3.697-2.63,4.871-4.917c1.057,1.874,2.654,3.955,4.941,5.225
				C29.012,70.939,26.873,72.578,25.497,74.811z"/>
		</g>
	</g>
	<g>
		<g>
			<path class="st1" d="M25.64,33.486c-0.689,8.179-9.212,9.471-9.212,9.471c7.318,0.345,9.142,9.944,9.142,9.944
				c0.156-6.845,9.422-10.045,9.422-10.045C28.051,42.44,25.64,33.486,25.64,33.486z"/>
		</g>
	</g>
	<g>
		<g>
			<path class="st0" d="M35.081,41.358c-5.766-0.345-7.972-8.186-7.994-8.265c-0.191-0.702-0.854-1.175-1.582-1.102
				c-0.726,0.065-1.299,0.643-1.36,1.368c-0.579,6.871-7.646,8.066-7.942,8.113c-0.763,0.116-1.313,0.791-1.273,1.561
				c0.04,0.771,0.657,1.385,1.427,1.421c6.036,0.284,7.724,8.645,7.739,8.727c0.135,0.713,0.759,1.22,1.473,1.22
				c0.041,0,0.083-0.002,0.125-0.005c0.765-0.063,1.358-0.693,1.376-1.461c0.131-5.709,8.332-8.634,8.413-8.662
				c0.677-0.234,1.094-0.913,0.996-1.622C36.381,41.942,35.796,41.4,35.081,41.358z M25.497,48.153
				c-0.924-1.885-2.34-3.947-4.447-5.279c1.855-1.041,3.697-2.63,4.871-4.917c1.057,1.874,2.654,3.955,4.941,5.224
				C29.012,44.281,26.873,45.921,25.497,48.153z"/>
		</g>
	</g>
	<g>
		<g>
			<path class="st1" d="M30.376,129.435c-0.312,1.158-0.916,2.235-1.822,3.141s-1.993,1.51-3.141,1.812l10.871,11.858l5.939-5.939
				L30.376,129.435z"/>
		</g>
	</g>
	<g>
		<g>
			<path class="st0" d="M43.238,139.2l-11.848-10.871c-0.386-0.354-0.93-0.481-1.433-0.335c-0.503,0.146-0.894,0.544-1.03,1.05
				c-0.254,0.942-0.736,1.772-1.435,2.471c-0.687,0.688-1.538,1.179-2.461,1.422c-0.508,0.133-0.91,0.523-1.058,1.027
				c-0.148,0.504-0.022,1.049,0.333,1.437l10.871,11.858c0.276,0.302,0.664,0.478,1.073,0.486h0.033
				c0.397,0,0.779-0.158,1.061-0.439l5.939-5.939c0.289-0.289,0.448-0.684,0.439-1.093S43.54,139.477,43.238,139.2z M36.332,144.077
				l-8.382-9.145c0.603-0.359,1.163-0.794,1.665-1.297c0.51-0.51,0.946-1.066,1.305-1.667l9.136,8.384L36.332,144.077z"/>
		</g>
	</g>
	<g>
		<g>
			<circle class="st1" cx="23.557" cy="127.577" r="7.062"/>
		</g>
	</g>
	<g>
		<g>
			<path class="st0" d="M29.612,121.523c-3.339-3.34-8.771-3.338-12.108,0c-1.617,1.617-2.508,3.767-2.508,6.054
				c0,2.288,0.891,4.438,2.508,6.055c1.669,1.669,3.862,2.504,6.054,2.504c2.192,0,4.385-0.835,6.054-2.504
				C32.95,130.294,32.95,124.861,29.612,121.523z M27.491,131.511c-2.169,2.168-5.697,2.168-7.866,0
				c-1.051-1.051-1.629-2.447-1.629-3.934c0-1.485,0.579-2.882,1.629-3.933c1.051-1.051,2.447-1.629,3.933-1.629
				c1.486,0,2.882,0.578,3.933,1.629C29.659,125.813,29.659,129.342,27.491,131.511z"/>
		</g>
	</g>
	<g>
		<g>
			<path class="st3" d="M54.907,150.966c-0.242,0.393-0.533,0.765-0.876,1.107l-20.746,20.756c-0.342,0.343-0.714,0.645-1.117,0.876
				l24.219,24.219c3.241-11.103,7.801-21.914,13.73-31.748L54.907,150.966z"/>
		</g>
	</g>
	<g>
		<g>
			<path class="st0" d="M71.178,165.115l-15.21-15.21c-0.324-0.324-0.777-0.49-1.236-0.429c-0.456,0.054-0.862,0.313-1.102,0.704
				c-0.184,0.298-0.405,0.578-0.659,0.832L32.224,171.77c-0.27,0.271-0.54,0.484-0.803,0.635c-0.405,0.232-0.678,0.641-0.74,1.104
				c-0.062,0.463,0.096,0.928,0.426,1.258l24.219,24.219c0.285,0.285,0.668,0.439,1.061,0.439c0.124,0,0.249-0.016,0.372-0.047
				c0.513-0.132,0.919-0.524,1.068-1.033c3.333-11.42,7.901-21.982,13.575-31.394C71.758,166.359,71.665,165.603,71.178,165.115z
				 M55.674,195.089L34.41,173.825l20.613-20.622l13.208,13.208C63.099,175.113,58.882,184.745,55.674,195.089z"/>
		</g>
	</g>
	<g>
		<g>
			<path class="st1" d="M54.034,143.207l-2.916-2.917c-2.449-2.449-6.421-2.449-8.87,0l-20.75,20.75
				c-2.449,2.449-2.449,6.421,0,8.87l2.916,2.917c2.449,2.449,6.421,2.449,8.87,0l20.75-20.75
				C56.483,149.627,56.483,145.656,54.034,143.207z"/>
		</g>
	</g>
	<g>
		<g>
			<path class="st0" d="M55.095,142.146l-2.917-2.916c-3.03-3.031-7.961-3.029-10.991,0l-20.75,20.75
				c-1.468,1.468-2.277,3.42-2.277,5.495c0,2.076,0.809,4.028,2.277,5.496l2.916,2.916c1.468,1.469,3.42,2.277,5.496,2.277
				c2.076,0,4.028-0.809,5.496-2.277l20.75-20.75C58.124,150.107,58.124,145.177,55.095,142.146z M52.974,151.016l-20.75,20.75
				c-0.902,0.901-2.1,1.398-3.375,1.398c-1.275,0-2.473-0.497-3.375-1.398l-2.916-2.916c-0.901-0.901-1.398-2.1-1.398-3.375
				c0-1.274,0.497-2.473,1.398-3.374l20.75-20.75c0.93-0.93,2.152-1.396,3.374-1.396c1.222,0,2.444,0.466,3.375,1.396l2.916,2.916
				C54.833,146.128,54.834,149.155,52.974,151.016z"/>
		</g>
	</g>
	<g>
		<g>
			<path class="st6" d="M209.098,65.687c-11.385-32.593-32.896-49.112-63.939-49.112c-31.043,0-52.565,16.519-63.949,49.112
				c-9.583,27.45-11.032,62.45-11.163,96.181c-0.01,1.087,0.282,2.144,0.835,3.06c3.352-5.425,7.127-10.539,11.334-15.219
				c1.419-73.18,13.72-121.104,62.943-121.104c49.213,0,61.524,47.924,62.943,121.104c4.208,4.681,7.982,9.794,11.334,15.219
				c0.554-0.916,0.846-1.973,0.836-3.06C220.131,128.126,218.691,93.137,209.098,65.687z"/>
		</g>
	</g>
	<g>
		<g>
			<path class="st0" d="M210.515,65.191c-11.616-33.255-33.604-50.117-65.355-50.117c-31.758,0-53.75,16.862-65.365,50.118
				c-9.662,27.677-11.116,62.817-11.247,96.661c-0.013,1.359,0.351,2.69,1.052,3.851c0.271,0.447,0.754,0.721,1.276,0.724h0.007
				c0.52,0,1.003-0.27,1.276-0.712c3.376-5.464,7.136-10.513,11.174-15.005c0.241-0.268,0.377-0.613,0.384-0.974
				c0.793-40.856,5.056-68.633,13.416-87.414c9.651-21.681,25.361-32.22,48.027-32.22c22.662,0,38.371,10.539,48.023,32.22
				c8.363,18.784,12.627,46.561,13.419,87.414c0.007,0.36,0.144,0.706,0.385,0.974c4.037,4.491,7.797,9.539,11.174,15.005
				c0.273,0.442,0.757,0.712,1.276,0.712h0.007c0.523-0.003,1.007-0.276,1.277-0.724c0.7-1.16,1.064-2.492,1.051-3.842
				C221.63,127.979,220.169,92.817,210.515,65.191z M209.59,149.123c-1.274-63.448-10.044-122.02-64.431-122.02
				c-54.386,0-63.157,58.571-64.432,122.02c-3.258,3.666-6.335,7.683-9.177,11.977c0.149-33.352,1.632-67.868,11.076-94.919
				c11.149-31.921,32.188-48.106,62.533-48.106c30.338,0,51.373,16.186,62.523,48.107c9.435,26.998,10.926,61.53,11.085,94.918
				C215.925,156.804,212.849,152.789,209.59,149.123z"/>
		</g>
	</g>
	<g>
		<g>
			<path class="st1" d="M145.159,111.779c-3.402,0-6.593-0.916-9.341-2.516v12.733c3.03-0.313,6.14-0.473,9.341-0.473
				c3.201,0,6.312,0.161,9.341,0.473v-12.733C151.752,110.863,148.562,111.779,145.159,111.779z"/>
		</g>
	</g>
	<g>
		<g>
			<path class="st0" d="M155.247,107.962c-0.466-0.267-1.038-0.266-1.502,0.005c-2.598,1.513-5.566,2.313-8.586,2.313
				c-3.019,0-5.988-0.8-8.587-2.313c-0.463-0.27-1.037-0.271-1.503-0.005c-0.465,0.268-0.752,0.764-0.752,1.301v12.733
				c0,0.425,0.18,0.829,0.495,1.113c0.315,0.284,0.734,0.423,1.159,0.379c5.98-0.617,12.396-0.617,18.374,0
				c0.052,0.005,0.104,0.008,0.154,0.008c0.369,0,0.727-0.137,1.005-0.387c0.315-0.284,0.495-0.688,0.495-1.113v-12.733
				C156,108.726,155.713,108.229,155.247,107.962z M153,120.35c-5.141-0.434-10.54-0.434-15.683,0v-8.662
				c4.939,2.092,10.745,2.092,15.683,0V120.35z"/>
		</g>
	</g>
	<g>
		<g>
			<path class="st3" d="M239.528,227.514c-4.423-49.706-34.292-105.99-94.371-105.99c-60.079,0-89.947,56.284-94.371,105.99
				c-0.569,6.392,4.422,11.911,10.84,11.911h167.062C235.106,239.425,240.097,233.906,239.528,227.514z"/>
		</g>
	</g>
	<g>
		<g>
			<path class="st0" d="M241.022,227.382c-2.409-27.072-12.111-53.467-26.618-72.414c-17.502-22.86-41.447-34.943-69.247-34.943
				c-27.8,0-51.746,12.083-69.247,34.943c-14.506,18.947-24.208,45.341-26.618,72.414c-0.31,3.483,0.862,6.956,3.215,9.527
				c2.336,2.553,5.659,4.017,9.119,4.017h24.059c0.829,0,1.5-0.672,1.5-1.5s-0.671-1.5-1.5-1.5H61.626
				c-2.659,0-5.111-1.08-6.906-3.042c-1.786-1.952-2.676-4.59-2.44-7.236c4.635-52.076,35.15-104.623,92.877-104.623
				c57.727,0,88.242,52.547,92.877,104.623c0.235,2.647-0.654,5.285-2.44,7.237c-1.794,1.961-4.247,3.041-6.905,3.041H99.716
				c-0.829,0-1.5,0.672-1.5,1.5s0.671,1.5,1.5,1.5h128.972c3.46,0,6.783-1.464,9.118-4.016
				C240.16,234.338,241.332,230.865,241.022,227.382z"/>
		</g>
	</g>
	<g>
		<g>
			<path class="st7" d="M145.157,121.524c-24.206,0-43.505,9.14-58.214,23.302h116.429
				C188.662,130.664,169.363,121.524,145.157,121.524z"/>
		</g>
	</g>
	<g>
		<g>
			<path class="st0" d="M204.411,143.746c-16.348-15.74-36.284-23.722-59.254-23.722c-22.97,0-42.906,7.981-59.255,23.721
				c-0.44,0.425-0.58,1.074-0.351,1.642c0.229,0.567,0.779,0.939,1.391,0.939h65.112c0.828,0,1.5-0.672,1.5-1.5s-0.672-1.5-1.5-1.5
				H90.778c15.229-13.475,33.505-20.302,54.379-20.302c20.874,0,39.149,6.827,54.379,20.302h-33.524c-0.828,0-1.5,0.672-1.5,1.5
				s0.672,1.5,1.5,1.5h37.359c0.612,0,1.162-0.372,1.392-0.939C204.991,144.819,204.853,144.17,204.411,143.746z"/>
		</g>
	</g>
	<g>
		<g>
			<path class="st1" d="M145.157,74.532c-10.285,0-18.622,8.337-18.622,18.622c0,10.285,8.337,18.623,18.622,18.623
				c10.285,0,18.622-8.337,18.622-18.623C163.779,82.869,155.442,74.532,145.157,74.532z"/>
		</g>
	</g>
	<g>
		<g>
			<path class="st0" d="M145.157,73.031c-11.096,0-20.122,9.026-20.122,20.122s9.026,20.122,20.122,20.122
				c11.096,0,20.122-9.026,20.122-20.122S156.253,73.031,145.157,73.031z M145.157,110.275c-9.441,0-17.122-7.681-17.122-17.122
				s7.681-17.122,17.122-17.122s17.122,7.681,17.122,17.122S154.599,110.275,145.157,110.275z"/>
		</g>
	</g>
	<g>
		<g>
			<path class="st8" d="M238.034,227.645c-2.71-30.49-14.31-61.15-35.04-81.32h-13.84c20.73,20.17,32.33,50.83,35.04,81.32
				c0.24,2.65-0.65,5.29-2.44,7.24c-1.79,1.96-4.25,3.04-6.9,3.04h13.83c2.66,0,5.12-1.08,6.91-3.04
				C237.384,232.935,238.274,230.295,238.034,227.645z"/>
		</g>
	</g>
	<g>
		<g>
			<path class="st10" d="M145.154,123.025c-2.34,0-4.65,0.09-6.92,0.26c18.02,1.35,33.94,8.08,47.46,20.04h13.84
				C184.304,129.855,166.034,123.025,145.154,123.025z"/>
		</g>
	</g>
	<g>
		<g>
			<path class="st9" d="M145.154,76.035c-1.35,0-2.66,0.16-3.92,0.46c7.57,1.77,13.21,8.57,13.21,16.66s-5.64,14.89-13.21,16.66
				c1.26,0.3,2.57,0.46,3.92,0.46c9.44,0,17.13-7.68,17.13-17.12S154.594,76.035,145.154,76.035z"/>
		</g>
	</g>
</g>
</svg>
