<?xml version="1.0" encoding="utf-8"?>
<!-- Generator: Adobe Illustrator 22.0.1, SVG Export Plug-In . SVG Version: 6.00 Build 0)  -->
<svg version="1.1" id="Layer_2" xmlns="http://www.w3.org/2000/svg" xmlns:xlink="http://www.w3.org/1999/xlink" x="0px" y="0px"
	 viewBox="0 0 256 256" style="enable-background:new 0 0 256 256;" xml:space="preserve">
<style type="text/css">
	.st0{fill:#3A312A;}
	.st1{fill:#D7E057;}
	.st2{fill:#FCE8CB;}
	.st3{fill:#8AC6DD;}
	.st4{fill-rule:evenodd;clip-rule:evenodd;fill:#FCE8CB;}
	.st5{fill:#F5978A;}
	.st6{fill:#87796F;}
	.st7{fill:#F16C7A;}
	.st8{fill:#68A8BC;}
	.st9{fill:#B9BC39;}
	.st10{fill:#CE4E61;}
	.st11{fill:#6B5B51;}
	.st12{fill:#CCAE8B;}
	.st13{fill-rule:evenodd;clip-rule:evenodd;fill:#F16C7A;}
</style>
<g>
	<g>
		<g>
			<rect x="147.331" y="176.433" class="st1" width="15.156" height="48.646"/>
		</g>
	</g>
	<g>
		<g>
			<path class="st0" d="M162.486,174.934h-15.155c-0.828,0-1.5,0.672-1.5,1.5v48.646c0,0.828,0.672,1.5,1.5,1.5h15.155
				c0.828,0,1.5-0.672,1.5-1.5v-48.646C163.986,175.605,163.314,174.934,162.486,174.934z M160.986,223.579h-12.155v-45.646h12.155
				V223.579z"/>
		</g>
	</g>
	<g>
		<g>
			<path class="st7" d="M154.903,220.912c-19.431,0-35.186,8.311-35.186,18.567H190.1
				C190.1,229.223,174.345,220.912,154.903,220.912z"/>
		</g>
	</g>
	<g>
		<g>
			<path class="st0" d="M154.903,219.412c-20.572,0-36.687,8.814-36.687,20.067c0,0.828,0.672,1.5,1.5,1.5h70.384
				c0.828,0,1.5-0.672,1.5-1.5C191.601,228.227,175.481,219.412,154.903,219.412z M121.353,237.979
				c1.556-8.581,16.287-15.567,33.551-15.567c17.27,0,32.005,6.986,33.562,15.567H121.353z"/>
		</g>
	</g>
	<g>
		<g>
			<path class="st1" d="M78.214,26.198c-0.974,11.564-13.024,13.39-13.024,13.39c10.347,0.487,12.925,14.059,12.925,14.059
				c0.221-9.677,13.321-14.202,13.321-14.202C81.622,38.857,78.214,26.198,78.214,26.198z"/>
		</g>
	</g>
	<g>
		<g>
			<path class="st0" d="M91.525,37.947c-8.604-0.515-11.832-12.024-11.863-12.141c-0.19-0.702-0.854-1.164-1.584-1.102
				c-0.725,0.066-1.298,0.642-1.359,1.367c-0.859,10.215-11.313,11.964-11.754,12.032c-0.763,0.116-1.313,0.791-1.273,1.561
				c0.04,0.771,0.657,1.385,1.428,1.421c9.027,0.425,11.498,12.718,11.521,12.842c0.138,0.712,0.76,1.218,1.473,1.218
				c0.042,0,0.084-0.002,0.126-0.005c0.764-0.064,1.357-0.693,1.375-1.46c0.194-8.509,12.191-12.777,12.313-12.819
				c0.676-0.234,1.092-0.914,0.994-1.622C92.822,38.53,92.239,37.989,91.525,37.947z M77.959,48.293
				c-1.356-3.131-3.708-6.907-7.586-8.877c2.931-1.404,6.408-3.912,8.201-8.272c1.551,3.071,4.2,6.88,8.334,8.723
				C83.901,41.506,79.985,44.271,77.959,48.293z"/>
		</g>
	</g>
	<g>
		<g>
			<path class="st1" d="M56.515,43.179c-0.689,8.179-9.212,9.47-9.212,9.47c7.318,0.344,9.142,9.944,9.142,9.944
				c0.156-6.845,9.422-10.045,9.422-10.045C58.926,52.133,56.515,43.179,56.515,43.179z"/>
		</g>
	</g>
	<g>
		<g>
			<path class="st0" d="M65.957,51.051c-5.767-0.345-7.972-8.186-7.993-8.265c-0.191-0.702-0.864-1.166-1.582-1.102
				c-0.726,0.065-1.3,0.643-1.361,1.368c-0.579,6.87-7.646,8.066-7.942,8.113c-0.763,0.116-1.313,0.791-1.273,1.561
				c0.04,0.771,0.657,1.385,1.428,1.421c6.035,0.284,7.724,8.644,7.739,8.726c0.136,0.713,0.759,1.22,1.473,1.22
				c0.041,0,0.083-0.002,0.125-0.005c0.765-0.063,1.358-0.693,1.376-1.461c0.13-5.708,8.331-8.633,8.412-8.661
				c0.676-0.234,1.093-0.913,0.996-1.622C67.256,51.635,66.671,51.093,65.957,51.051z M56.372,57.846
				c-0.924-1.886-2.34-3.947-4.447-5.28c1.855-1.041,3.697-2.63,4.871-4.916c1.057,1.874,2.654,3.955,4.941,5.224
				C59.887,53.974,57.748,55.613,56.372,57.846z"/>
		</g>
	</g>
	<g>
		<g>
			<path class="st1" d="M56.515,16.521c-0.689,8.179-9.212,9.47-9.212,9.47c7.318,0.345,9.142,9.944,9.142,9.944
				c0.156-6.844,9.422-10.045,9.422-10.045C58.926,25.475,56.515,16.521,56.515,16.521z"/>
		</g>
	</g>
	<g>
		<g>
			<path class="st0" d="M65.957,24.394c-5.767-0.346-7.972-8.187-7.993-8.266c-0.191-0.702-0.864-1.164-1.582-1.102
				c-0.726,0.065-1.3,0.643-1.361,1.368c-0.579,6.871-7.646,8.066-7.942,8.113c-0.763,0.116-1.313,0.791-1.273,1.561
				c0.04,0.771,0.657,1.385,1.428,1.421c6.035,0.284,7.724,8.645,7.739,8.727c0.136,0.713,0.759,1.22,1.473,1.22
				c0.041,0,0.083-0.002,0.125-0.005c0.765-0.063,1.358-0.693,1.376-1.461c0.13-5.709,8.331-8.633,8.411-8.661
				c0.677-0.233,1.094-0.913,0.997-1.622C67.256,24.978,66.671,24.437,65.957,24.394z M56.372,31.188
				c-0.924-1.885-2.34-3.947-4.447-5.279c1.855-1.041,3.697-2.63,4.871-4.917c1.057,1.874,2.653,3.955,4.941,5.225
				C59.888,27.316,57.748,28.955,56.372,31.188z"/>
		</g>
	</g>
	<g>
		<g>
			<path class="st2" d="M149.498,20.261c6.287,20.581-47.105,13.858-48.378,33.982h107.578
				C206.714,38.923,144.94,5.327,149.498,20.261z"/>
		</g>
	</g>
	<g>
		<g>
			<path class="st0" d="M210.185,54.051c-1.551-11.98-33.335-31.547-49.288-37.173c-6.284-2.217-10.237-2.438-12.081-0.669
				c-0.749,0.718-1.488,2.079-0.753,4.49c0.694,2.272,0.584,4.184-0.338,5.844c-2.669,4.811-12.036,7.313-21.096,9.732
				c-12.939,3.457-26.32,7.031-27.006,17.873c-0.026,0.413,0.12,0.819,0.403,1.121c0.283,0.303,0.68,0.474,1.094,0.474h107.577
				c0.432,0,0.842-0.186,1.127-0.51C210.108,54.909,210.24,54.479,210.185,54.051z M102.862,52.743
				c1.871-7.513,13.384-10.589,24.541-13.569c10.109-2.7,19.657-5.251,22.945-11.176c1.318-2.376,1.515-5.126,0.583-8.175
				c-0.217-0.71-0.232-1.265-0.041-1.448c0.524-0.501,3.008-0.783,9.008,1.332c15.945,5.623,42.871,22.922,46.855,33.036H102.862z"
				/>
		</g>
	</g>
	<g>
		<g>
			<path class="st3" d="M101.12,54.243v25.51c0.042,0,0.08-0.006,0.122-0.006v14.545c-0.042,0-0.08-0.005-0.122-0.006v44.482
				c0,29.707,24.082,53.789,53.789,53.789h0c29.707,0,53.789-24.082,53.789-53.789V54.243H101.12z"/>
		</g>
	</g>
	<g>
		<g>
			<path class="st0" d="M208.697,52.743H101.12c-0.828,0-1.5,0.672-1.5,1.5v25.51c0,0.404,0.163,0.791,0.452,1.073
				c0.288,0.282,0.649,0.432,1.084,0.427l0.086-0.006c0.828,0,1.5-0.672,1.5-1.5c0-0.211-0.044-0.411-0.122-0.594v-23.41h104.577
				v83.024c0,28.832-23.457,52.289-52.289,52.289S102.62,167.6,102.62,138.768V94.929c0.093-0.193,0.146-0.409,0.146-0.636
				c0-0.829-0.648-1.5-1.477-1.5c-0.036-0.003-0.133-0.007-0.169-0.007c-0.828,0-1.5,0.672-1.5,1.5v44.481
				c0,30.486,24.803,55.289,55.289,55.289s55.288-24.803,55.288-55.289V54.243C210.197,53.415,209.525,52.743,208.697,52.743z"/>
		</g>
	</g>
	<g>
		<g>
			<path class="st6" d="M101.121,123.4v15.371c0,29.702,24.085,53.788,53.788,53.788c29.702,0,53.788-24.086,53.788-53.788V123.4
				H101.121z"/>
		</g>
	</g>
	<g>
		<g>
			<path class="st0" d="M208.696,121.9h-33.822c-0.828,0-1.5,0.672-1.5,1.5s0.672,1.5,1.5,1.5h32.322v13.871
				c0,28.832-23.456,52.288-52.288,52.288c-28.831,0-52.287-23.456-52.287-52.288V124.9h58.323c0.828,0,1.5-0.672,1.5-1.5
				s-0.672-1.5-1.5-1.5h-59.823c-0.828,0-1.5,0.672-1.5,1.5v15.371c0,30.486,24.802,55.288,55.287,55.288
				c30.486,0,55.288-24.802,55.288-55.288V123.4C210.196,122.572,209.524,121.9,208.696,121.9z"/>
		</g>
	</g>
	<g>
		<g>
			<path class="st10" d="M154.899,222.41c-1.64,0-3.25,0.06-4.83,0.18c15.11,1.16,27.32,7.62,28.73,15.39h9.67
				C186.909,229.399,172.169,222.41,154.899,222.41z"/>
		</g>
	</g>
	<g>
		<g>
			<path class="st12" d="M159.899,19.709c-6-2.12-8.48-1.84-9.01-1.33c-0.19,0.18-0.17,0.73,0.04,1.44
				c0.21,0.69,0.37,1.36,0.46,2.02c16,7.03,37.96,21.85,41.52,30.9h13.85C202.769,42.629,175.849,25.33,159.899,19.709z"/>
		</g>
	</g>
	<g>
		<g>
			<rect x="193.349" y="55.739" class="st8" width="13.85" height="66.16"/>
		</g>
	</g>
	<g>
		<g>
			<path class="st11" d="M193.349,124.899v13.87c0,26.48-19.78,48.43-45.36,51.83c2.26,0.3,4.57,0.46,6.92,0.46
				c28.83,0,52.29-23.46,52.29-52.29v-13.87H193.349z"/>
		</g>
	</g>
</g>
</svg>
