<?xml version="1.0" encoding="utf-8"?>
<!-- Generator: Adobe Illustrator 22.0.1, SVG Export Plug-In . SVG Version: 6.00 Build 0)  -->
<svg version="1.1" id="Layer_2" xmlns="http://www.w3.org/2000/svg" xmlns:xlink="http://www.w3.org/1999/xlink" x="0px" y="0px"
	 viewBox="0 0 256 256" style="enable-background:new 0 0 256 256;" xml:space="preserve">
<style type="text/css">
	.st0{fill:#3A312A;}
	.st1{fill:#D7E057;}
	.st2{fill:#FCE8CB;}
	.st3{fill:#8AC6DD;}
	.st4{fill-rule:evenodd;clip-rule:evenodd;fill:#FCE8CB;}
	.st5{fill:#F5978A;}
	.st6{fill:#87796F;}
	.st7{fill:#F16C7A;}
	.st8{fill:#68A8BC;}
	.st9{fill:#B9BC39;}
	.st10{fill:#CE4E61;}
	.st11{fill:#6B5B51;}
	.st12{fill:#CCAE8B;}
	.st13{fill-rule:evenodd;clip-rule:evenodd;fill:#F16C7A;}
</style>
<g>
	<g>
		<g>
			
				<ellipse transform="matrix(0.7071 -0.7071 0.7071 0.7071 -58.9131 133.6962)" class="st7" cx="131.929" cy="137.962" rx="101.833" ry="101.833"/>
		</g>
	</g>
	<g>
		<g>
			<path class="st0" d="M204.997,64.895c-40.29-40.289-105.846-40.289-146.135,0c-40.289,40.29-40.289,105.846,0,146.136
				c19.517,19.518,45.466,30.266,73.068,30.266c27.602,0,53.551-10.748,73.067-30.266
				C245.287,170.74,245.287,105.185,204.997,64.895z M202.875,208.909c-18.95,18.95-44.146,29.387-70.946,29.387
				c-26.8,0-51.996-10.437-70.947-29.387c-39.12-39.12-39.12-102.773,0-141.894c19.56-19.56,45.253-29.34,70.946-29.34
				c25.693,0,51.387,9.78,70.947,29.34C241.996,106.136,241.996,169.789,202.875,208.909z"/>
		</g>
	</g>
	<g>
		<g>
			<path class="st2" d="M212.937,198.175l-14.451-14.451c-2.744,3.998-5.897,7.797-9.448,11.347
				c-3.551,3.551-7.35,6.704-11.347,9.448l14.451,14.451c2.874,2.874,6.63,4.308,10.398,4.302c3.762,0,7.53-1.434,10.398-4.302
				C218.679,213.229,218.679,203.917,212.937,198.175z"/>
		</g>
	</g>
	<g>
		<g>
			<path class="st0" d="M213.998,197.114l-14.451-14.45c-0.315-0.315-0.756-0.468-1.198-0.434c-0.444,0.041-0.847,0.277-1.099,0.646
				c-2.706,3.942-5.826,7.688-9.272,11.135c-3.446,3.445-7.192,6.565-11.136,9.272c-0.367,0.252-0.604,0.654-0.645,1.099
				c-0.041,0.444,0.118,0.883,0.433,1.198l14.451,14.451c3.058,3.059,7.118,4.741,11.432,4.741h0.026
				c4.331,0,8.4-1.684,11.458-4.741C220.316,213.713,220.316,203.433,213.998,197.114z M211.876,217.91
				c-2.491,2.49-5.807,3.862-9.339,3.862h-0.021c-3.515,0-6.822-1.371-9.313-3.862l-13.19-13.19
				c3.556-2.561,6.942-5.443,10.086-8.588c3.145-3.145,6.027-6.53,8.588-10.085l13.19,13.188c2.494,2.494,3.867,5.81,3.867,9.337
				C215.744,212.101,214.37,215.416,211.876,217.91z"/>
		</g>
	</g>
	<g>
		<g>
			<circle class="st2" cx="131.929" cy="137.963" r="80.764"/>
		</g>
	</g>
	<g>
		<g>
			<path class="st0" d="M190.099,79.793c-15.538-15.538-36.196-24.095-58.169-24.095c-21.974,0-42.632,8.557-58.169,24.095
				c-15.538,15.537-24.095,36.195-24.095,58.169c0,21.975,8.557,42.633,24.095,58.17c15.538,15.538,36.196,24.095,58.169,24.095
				c21.974,0,42.632-8.557,58.169-24.095c15.538-15.537,24.095-36.195,24.095-58.17C214.193,115.988,205.636,95.33,190.099,79.793z
				 M187.977,194.011c-14.971,14.972-34.876,23.216-56.048,23.216c-21.172,0-41.077-8.244-56.048-23.216
				c-14.971-14.971-23.216-34.876-23.216-56.049c0-21.172,8.245-41.077,23.216-56.048c14.971-14.971,34.876-23.216,56.048-23.216
				c21.172,0,41.077,8.245,56.048,23.216s23.216,34.876,23.216,56.048C211.193,159.135,202.949,179.04,187.977,194.011z"/>
		</g>
	</g>
	<g>
		<g>
			<path class="st6" d="M180.037,89.854c-22.003-22.003-55.319-25.765-81.213-11.326l-12.56,9.003
				c-0.828,0.751-1.644,1.524-2.443,2.323c-26.57,26.57-26.57,69.647,0,96.216c26.569,26.57,69.647,26.57,96.216,0
				C206.607,159.501,206.607,116.424,180.037,89.854z"/>
		</g>
	</g>
	<g>
		<g>
			<path class="st0" d="M181.098,88.794c-21.872-21.871-56.003-26.63-83.004-11.576c-0.724,0.404-0.983,1.317-0.58,2.041
				c0.403,0.723,1.316,0.982,2.041,0.58c25.834-14.406,58.494-9.851,79.422,11.076c25.942,25.942,25.942,68.152,0,94.095
				c-25.942,25.941-68.152,25.941-94.095,0c-12.567-12.567-19.488-29.275-19.488-47.047c0-17.772,6.921-34.48,19.489-47.049
				c0.752-0.753,1.533-1.496,2.389-2.271c0.613-0.557,0.66-1.505,0.104-2.119c-0.557-0.613-1.505-0.66-2.119-0.104
				c-0.893,0.81-1.709,1.586-2.496,2.374c-13.134,13.134-20.367,30.595-20.367,49.169c0,18.573,7.233,36.034,20.367,49.168
				c13.556,13.556,31.362,20.334,49.169,20.334s35.613-6.778,49.168-20.334C208.209,160.02,208.209,115.905,181.098,88.794z"/>
		</g>
	</g>
	<g>
		<g>
			<path class="st1" d="M53.149,25.9c-0.974,11.564-13.024,13.389-13.024,13.389c10.347,0.487,12.925,14.059,12.925,14.059
				c0.221-9.677,13.321-14.202,13.321-14.202C56.557,38.559,53.149,25.9,53.149,25.9z"/>
		</g>
	</g>
	<g>
		<g>
			<path class="st0" d="M66.46,37.649c-8.605-0.515-11.832-12.025-11.863-12.142c-0.19-0.702-0.851-1.166-1.583-1.102
				c-0.725,0.066-1.298,0.642-1.359,1.367c-0.86,10.216-11.314,11.964-11.755,12.032c-0.763,0.116-1.313,0.791-1.273,1.561
				c0.04,0.771,0.657,1.385,1.427,1.421c9.028,0.426,11.499,12.719,11.523,12.844c0.137,0.711,0.759,1.217,1.472,1.217
				c0.042,0,0.084-0.002,0.126-0.005c0.764-0.064,1.357-0.693,1.375-1.46c0.195-8.509,12.192-12.777,12.313-12.819
				c0.675-0.234,1.092-0.914,0.994-1.622C67.758,38.232,67.174,37.691,66.46,37.649z M52.894,47.995
				c-1.356-3.131-3.709-6.908-7.587-8.877c2.931-1.404,6.409-3.913,8.202-8.273c1.551,3.071,4.199,6.881,8.334,8.724
				C58.835,41.208,54.921,43.974,52.894,47.995z"/>
		</g>
	</g>
	<g>
		<g>
			<path class="st1" d="M31.45,42.88c-0.689,8.179-9.212,9.47-9.212,9.47c7.318,0.344,9.142,9.944,9.142,9.944
				c0.156-6.844,9.422-10.045,9.422-10.045C33.861,51.834,31.45,42.88,31.45,42.88z"/>
		</g>
	</g>
	<g>
		<g>
			<path class="st0" d="M40.891,50.753c-5.766-0.345-7.972-8.186-7.993-8.265c-0.19-0.701-0.857-1.171-1.582-1.102
				c-0.726,0.065-1.299,0.643-1.36,1.368c-0.579,6.87-7.646,8.065-7.942,8.112c-0.763,0.116-1.313,0.791-1.273,1.561
				c0.04,0.771,0.657,1.385,1.427,1.421c6.035,0.284,7.724,8.645,7.739,8.727c0.135,0.713,0.759,1.22,1.472,1.22
				c0.042,0,0.083-0.002,0.125-0.005c0.765-0.063,1.358-0.693,1.376-1.461c0.13-5.708,8.331-8.633,8.412-8.661
				c0.677-0.234,1.094-0.913,0.996-1.622C42.19,51.337,41.606,50.795,40.891,50.753z M31.307,57.548
				c-0.924-1.886-2.34-3.947-4.447-5.28c1.856-1.041,3.697-2.63,4.871-4.916c1.057,1.874,2.654,3.954,4.941,5.224
				C34.822,53.676,32.683,55.315,31.307,57.548z"/>
		</g>
	</g>
	<g>
		<g>
			<path class="st1" d="M31.45,16.223c-0.689,8.179-9.212,9.471-9.212,9.471c7.318,0.344,9.142,9.944,9.142,9.944
				c0.156-6.844,9.422-10.045,9.422-10.045C33.861,25.177,31.45,16.223,31.45,16.223z"/>
		</g>
	</g>
	<g>
		<g>
			<path class="st0" d="M40.892,24.096c-5.766-0.346-7.972-8.187-7.994-8.266c-0.19-0.702-0.857-1.164-1.582-1.102
				c-0.726,0.065-1.299,0.643-1.36,1.368c-0.579,6.871-7.646,8.066-7.942,8.113c-0.763,0.116-1.313,0.791-1.273,1.561
				c0.04,0.771,0.657,1.385,1.427,1.421c6.035,0.284,7.724,8.645,7.739,8.727c0.135,0.713,0.759,1.22,1.473,1.22
				c0.041,0,0.082-0.002,0.124-0.005c0.765-0.063,1.358-0.693,1.376-1.461c0.13-5.709,8.331-8.633,8.412-8.661
				c0.676-0.233,1.094-0.913,0.996-1.622C42.19,24.68,41.606,24.139,40.892,24.096z M31.307,30.89
				c-0.924-1.885-2.34-3.947-4.447-5.279c1.855-1.041,3.697-2.63,4.871-4.917c1.057,1.874,2.654,3.955,4.941,5.225
				C34.822,27.019,32.683,28.657,31.307,30.89z"/>
		</g>
	</g>
	<g>
		<g>
			<path class="st2" d="M185.482,156.612c-1.821-3.504-14.546-0.497-28.421,6.715s-23.647,15.899-21.825,19.403
				c1.821,3.504,14.546,0.497,28.421-6.715C177.532,168.803,187.303,160.116,185.482,156.612z"/>
		</g>
	</g>
	<g>
		<g>
			<path class="st0" d="M186.813,155.921c-2.742-5.275-17.702-0.546-30.444,6.075c-12.741,6.623-25.205,16.153-22.464,21.426
				c0.786,1.513,2.563,2.271,5.304,2.271c1.666,0,3.689-0.28,6.063-0.841c5.485-1.296,12.26-3.961,19.078-7.505
				c6.817-3.544,12.891-7.558,17.104-11.302C186.273,161.759,188.077,158.353,186.813,155.921z M179.459,163.803
				c-4.033,3.585-9.89,7.449-16.494,10.882s-13.133,6.007-18.384,7.247c-5.866,1.388-7.8,0.52-8.014,0.107
				c-0.884-1.702,5.792-9.379,21.186-17.381c11.422-5.937,19.939-8.049,23.936-8.049c1.39,0,2.234,0.256,2.462,0.694
				C184.366,157.717,183.964,159.797,179.459,163.803z"/>
		</g>
	</g>
	<g>
		<g>
			<path class="st2" d="M175.693,119.62c-2.792-2.792-14.02,3.908-25.077,14.965s-17.758,22.285-14.965,25.077
				s14.02-3.908,25.077-14.965C171.785,133.639,178.486,122.412,175.693,119.62z"/>
		</g>
	</g>
	<g>
		<g>
			<path class="st0" d="M176.754,118.56c-1.939-1.938-5.729-1.244-11.269,2.061c-4.84,2.889-10.497,7.471-15.93,12.904
				c-5.433,5.433-10.016,11.09-12.904,15.93c-3.306,5.54-4,9.331-2.062,11.269c0.714,0.715,1.681,1.071,2.895,1.071
				c2.077,0,4.877-1.046,8.374-3.132c4.839-2.889,10.497-7.471,15.93-12.904c5.433-5.433,10.016-11.09,12.904-15.93
				C177.998,124.288,178.692,120.497,176.754,118.56z M172.116,128.29c-2.765,4.634-7.186,10.084-12.449,15.347
				c-5.263,5.263-10.713,9.684-15.346,12.449c-5.177,3.089-7.279,2.846-7.61,2.516c-0.329-0.329-0.573-2.434,2.517-7.609
				c2.765-4.634,7.186-10.084,12.449-15.347c5.263-5.263,10.713-9.684,15.346-12.449c3.659-2.183,5.783-2.701,6.83-2.701
				c0.435,0,0.684,0.089,0.78,0.186C174.962,121.01,175.206,123.114,172.116,128.29z"/>
		</g>
	</g>
	<g>
		<g>
			<path class="st2" d="M106.17,163.327c-13.875-7.212-26.599-10.219-28.421-6.715c-1.821,3.504,7.95,12.191,21.825,19.403
				c13.875,7.212,26.599,10.219,28.421,6.715C129.816,179.227,120.045,170.54,106.17,163.327z"/>
		</g>
	</g>
	<g>
		<g>
			<path class="st0" d="M106.862,161.996c-12.742-6.623-27.703-11.351-30.444-6.075c-1.264,2.432,0.54,5.838,5.361,10.124
				c4.212,3.744,10.287,7.758,17.103,11.302c8.916,4.635,18.919,8.341,25.062,8.341c2.634,0,4.559-0.683,5.382-2.266
				C132.067,178.149,119.602,168.619,106.862,161.996z M126.664,182.038c-0.883,1.702-11.004,0.649-26.398-7.354
				c-6.604-3.433-12.461-7.297-16.494-10.882c-4.505-4.006-4.907-6.086-4.692-6.499c0.228-0.438,1.071-0.694,2.462-0.694
				c3.997,0,12.515,2.112,23.936,8.049C120.872,172.66,127.548,180.337,126.664,182.038z"/>
		</g>
	</g>
	<g>
		<g>
			<path class="st2" d="M112.615,134.585c-11.057-11.057-22.285-17.758-25.077-14.965c-2.792,2.792,3.908,14.02,14.966,25.077
				c11.057,11.057,22.285,17.758,25.077,14.965S123.672,145.643,112.615,134.585z"/>
		</g>
	</g>
	<g>
		<g>
			<path class="st0" d="M113.675,133.524c-5.433-5.434-11.09-10.016-15.93-12.904c-5.54-3.306-9.331-3.999-11.268-2.061
				c-4.202,4.202,4.812,17.045,14.965,27.198c5.433,5.434,11.09,10.016,15.93,12.904c3.497,2.087,6.297,3.132,8.374,3.132
				c1.213,0,2.18-0.356,2.894-1.071C132.843,156.521,123.829,143.678,113.675,133.524z M126.519,158.602
				c-0.33,0.33-2.432,0.572-7.61-2.516c-4.633-2.766-10.083-7.187-15.346-12.449c-12.268-12.269-16.321-21.6-14.965-22.956
				c0.33-0.33,2.432-0.573,7.61,2.516c4.633,2.766,10.083,7.187,15.346,12.449C123.822,147.914,127.875,157.245,126.519,158.602z"/>
		</g>
	</g>
	<g>
		<g>
			<path class="st4" d="M147.81,86.874c-4.968-1.712-12.501-0.062-15.724,4.497c-3.223-4.559-10.756-6.208-15.724-4.497
				c-6.321,2.178-9.69,8.844-9.068,15.291c0.56,5.799,4.036,11.58,8.306,16.519l5.366,5.465c1.548,1.4,3.089,2.666,4.543,3.764
				c1.702,1.285,4.237,3.461,6.531,3.509c0.002,0,0.003,0.001,0.005,0.001v0.001c0.003,0.001,0.005,0.002,0.008,0.002h0.003
				c0.01,0,0.02-0.001,0.03-0.002c0.01,0,0.02,0.002,0.03,0.002h0.003c0.003,0,0.006-0.001,0.008-0.002v-0.001
				c0.001,0,0.003-0.001,0.005-0.001c2.294-0.048,4.829-2.224,6.531-3.509c7.459-5.632,17.242-15.665,18.215-25.747
				C157.5,95.718,154.131,89.052,147.81,86.874z"/>
		</g>
	</g>
	<g>
		<g>
			<path class="st0" d="M148.298,85.456c-4.858-1.676-12.084-0.547-16.212,3.597c-4.127-4.144-11.352-5.272-16.213-3.597
				c-6.666,2.298-10.808,9.228-10.072,16.854c0.529,5.479,3.445,11.318,8.729,17.425l5.366,5.465
				c0.021,0.021,0.042,0.042,0.064,0.062c1.517,1.371,3.079,2.666,4.645,3.849l0.597,0.457c1.793,1.384,4.244,3.274,6.784,3.354
				c0.046,0.003,0.091,0.005,0.132,0.005c0.05,0,0.099-0.003,0.148-0.008c2.492-0.103,4.921-1.978,6.702-3.352l0.597-0.457
				c4.103-3.099,17.587-14.188,18.804-26.8C159.107,94.684,154.965,87.754,148.298,85.456z M155.384,102.021
				c-0.874,9.055-9.678,18.693-17.625,24.694l-0.622,0.477c-1.476,1.139-3.497,2.698-5.005,2.73h-0.06
				c-1.54-0.032-3.561-1.592-5.037-2.73l-0.622-0.477c-1.484-1.12-2.967-2.349-4.408-3.649l-5.269-5.363
				c-4.738-5.479-7.487-10.901-7.948-15.682c-0.593-6.14,2.799-11.914,8.063-13.729c4.257-1.467,11.155-0.093,14.011,3.945
				c0.562,0.795,1.888,0.795,2.449,0c2.855-4.038,9.753-5.412,14.01-3.945C152.586,90.106,155.977,95.881,155.384,102.021z"/>
		</g>
	</g>
	<g>
		<g>
			<path class="st11" d="M178.98,90.92c-13.99-13.99-33.21-20.66-52.14-19.25c15.53,1.16,30.62,7.73,42.14,19.25
				c17.36,17.36,23.1,41.99,17.23,64.17c0.24,0.25,0.44,0.52,0.6,0.83c1.14,2.18-0.2,5.14-3.96,8.81
				c-3.23,7.36-7.85,14.26-13.87,20.28c-11.71,11.7-26.72,18.12-42.05,19.26c18.66,1.4,37.81-5.02,52.05-19.26
				C204.92,159.07,204.92,116.86,178.98,90.92z"/>
		</g>
	</g>
</g>
</svg>
