<svg fill="#000000" xmlns="http://www.w3.org/2000/svg"  viewBox="0 0 48 48" width="24px" height="24px"><path d="M 12 8 C 7.7242039 8 4 11.004383 4 15 C 4 18.995617 7.7242039 22 12 22 C 16.275796 22 20 18.995617 20 15 C 20 11.004383 16.275796 8 12 8 z M 12 11 C 14.903911 11 17 12.920485 17 15 C 17 17.079515 14.903911 19 12 19 C 9.0960895 19 7 17.079515 7 15 C 7 12.920485 9.0960895 11 12 11 z M 34.853516 12.480469 C 33.184715 12.508815 31.57981 13.107647 30.34375 14.34375 C 27.518469 17.16913 28.027286 21.925829 31.050781 24.949219 C 34.074276 27.972608 38.830969 28.481629 41.65625 25.65625 C 44.481531 22.83087 43.972714 18.074171 40.949219 15.050781 C 39.248503 13.350125 36.999116 12.444023 34.853516 12.480469 z M 35.427734 15.496094 C 36.57825 15.599984 37.80142 16.145206 38.828125 17.171875 C 40.881534 19.225212 41.00557 22.064691 39.535156 23.535156 C 38.064741 25.005622 35.225285 24.881463 33.171875 22.828125 C 31.118466 20.774788 30.99443 17.935309 32.464844 16.464844 C 33.200051 15.729611 34.277219 15.392204 35.427734 15.496094 z M 16.130859 23.822266 C 13.386193 23.849089 10.843241 25.198407 9.7109375 27.701172 C 8.06395 31.341558 10.217631 35.614479 14.113281 37.376953 C 15.65073 38.072527 17.301861 38.299095 18.839844 38.103516 C 20.178603 40.487678 22.92081 42 26 42 C 30.275794 42 34 38.995867 34 35 C 34 31.004133 30.275794 28 26 28 C 25.274835 28 24.573211 28.094217 23.900391 28.253906 C 23.040825 26.725245 21.642566 25.41636 19.884766 24.621094 C 18.667375 24.07032 17.378435 23.810073 16.130859 23.822266 z M 15.748047 26.830078 C 16.655656 26.74981 17.656287 26.906599 18.648438 27.355469 C 21.294173 28.552455 22.41186 31.165912 21.554688 33.060547 C 20.697515 34.955182 17.997298 35.839564 15.351562 34.642578 C 12.705829 33.445591 11.586186 30.832135 12.443359 28.9375 C 12.979093 27.753353 14.235365 26.963859 15.748047 26.830078 z M 26 31 C 28.904206 31 31 32.919867 31 35 C 31 37.080133 28.904206 39 26 39 C 24.164848 39 22.634251 38.188414 21.773438 37.101562 C 22.850597 36.449294 23.739042 35.512601 24.289062 34.296875 C 24.756143 33.264472 24.907982 32.18154 24.810547 31.119141 C 25.190623 31.044077 25.587887 31 26 31 z"/></svg>