<svg fill="#000000" xmlns="http://www.w3.org/2000/svg"  viewBox="0 0 48 48" width="24px" height="24px"><path d="M 23 1.7675781 C 21.085045 1.7675781 19.5 3.3526234 19.5 5.2675781 L 19.5 8.6816406 C 18.134147 10.01836 16.945825 11.752468 16.9375 13.914062 C 16.91551 14.819565 17.158228 15.681334 17.523438 16.496094 C 15.620569 17.655837 13.943767 19.151597 12.826172 21.089844 C 11.295769 23.728235 10.738483 26.813467 11.253906 29.814453 A 1.50015 1.50015 0 0 0 11.261719 29.849609 L 13.673828 42.1875 C 13.673828 42.1875 13.675781 42.189453 13.675781 42.189453 C 13.963129 43.855995 15.432845 45.078796 17.119141 45.083984 A 1.50015 1.50015 0 0 0 17.123047 45.083984 L 24.433594 45.083984 A 1.50015 1.50015 0 0 0 24.484375 45.082031 L 30.876953 45.082031 A 1.50015 1.50015 0 0 0 30.882812 45.082031 C 32.566604 45.075131 34.036106 43.857212 34.324219 42.191406 L 36.738281 29.847656 A 1.50015 1.50015 0 0 0 36.746094 29.814453 C 37.261334 26.815667 36.704604 23.729509 35.175781 21.091797 L 35.175781 21.089844 C 35.056409 20.882841 34.926638 20.683328 34.794922 20.486328 C 36.678951 19.610128 38 17.701197 38 15.5 C 38 12.480226 35.519774 10 32.5 10 C 31.621695 10 30.796333 10.227273 30.054688 10.597656 C 29.615375 9.884284 29.07365 9.2461222 28.5 8.6816406 L 28.5 5.2675781 C 28.5 3.3526234 26.914955 1.7675781 25 1.7675781 L 23 1.7675781 z M 23 4.7675781 L 25 4.7675781 C 25.295045 4.7675781 25.5 4.9725329 25.5 5.2675781 L 25.5 7.5175781 L 22.5 7.5175781 L 22.5 5.2675781 C 22.5 4.9725329 22.704955 4.7675781 23 4.7675781 z M 21.945312 10.517578 L 26.085938 10.517578 A 1.50015 1.50015 0 0 0 26.121094 10.552734 C 27.293318 11.629985 28.066406 12.858244 28.066406 13.933594 A 1.50015 1.50015 0 0 0 28.068359 13.976562 C 28.089089 14.717445 27.836432 15.437926 27.355469 16.011719 A 1.50015 1.50015 0 0 0 27.884766 18.341797 C 29.862701 19.240222 31.503535 20.725885 32.578125 22.589844 A 1.50015 1.50015 0 0 0 32.580078 22.59375 C 33.758583 24.625476 34.183846 26.99486 33.789062 29.300781 C 33.788728 29.302781 33.789399 29.304641 33.789062 29.306641 L 31.375 41.644531 A 1.50015 1.50015 0 0 0 31.369141 41.679688 C 31.329531 41.910553 31.135976 42.079505 30.873047 42.082031 L 23.566406 42.082031 A 1.50015 1.50015 0 0 0 23.515625 42.083984 L 17.126953 42.083984 C 16.864189 42.083176 16.670671 41.911719 16.630859 41.679688 A 1.50015 1.50015 0 0 0 16.625 41.646484 L 14.210938 29.306641 L 14.210938 29.302734 C 13.815513 26.994956 14.240988 24.62621 15.419922 22.59375 A 1.50015 1.50015 0 0 0 15.421875 22.589844 C 16.495182 20.726597 18.137147 19.240291 20.115234 18.341797 A 1.50015 1.50015 0 0 0 20.644531 16.013672 C 20.16252 15.437955 19.910911 14.71747 19.931641 13.976562 A 1.50015 1.50015 0 0 0 19.933594 13.935547 C 19.933594 12.846069 20.766949 11.596212 21.945312 10.517578 z M 32.5 13 C 33.898226 13 35 14.101774 35 15.5 C 35 16.88954 33.911239 17.984474 32.525391 17.998047 C 31.882487 17.450785 31.20413 16.93964 30.476562 16.496094 C 30.841084 15.682907 31.08356 14.823425 31.0625 13.919922 C 31.062114 13.772211 31.040496 13.632124 31.029297 13.488281 C 31.441213 13.184895 31.940404 13 32.5 13 z M 24.001953 22.167969 C 23.834203 22.167969 23.664859 22.252469 23.568359 22.417969 L 22.824219 23.695312 C 22.712219 23.887312 22.487484 23.983687 22.271484 23.929688 C 22.271484 23.929688 21.561844 23.604312 21.339844 23.695312 C 21.163844 23.767312 21.136484 23.980844 21.146484 24.089844 C 21.239484 25.104844 21.671875 27.425781 21.671875 27.425781 C 21.728875 27.783781 21.396875 28.079375 21.046875 27.984375 L 18.865234 27.390625 C 18.477234 27.284625 18.129719 27.657109 18.261719 28.037109 L 18.494141 28.705078 C 18.590141 28.984078 18.425672 29.286469 18.138672 29.355469 L 17.095703 29.609375 C 16.674703 29.711375 16.575594 30.263813 16.933594 30.507812 L 18.296875 31.435547 C 18.510875 31.581547 18.578125 31.865797 18.453125 32.091797 C 18.453125 32.091797 18.118219 32.570437 18.074219 32.773438 C 18.059219 32.842437 18.026344 32.971703 18.277344 32.970703 C 18.609243 32.969809 20.971044 32.980302 23.267578 32.986328 C 23.265608 33.394163 23.246015 33.808867 23.152344 34.121094 C 23.053544 34.45044 22.939847 34.642969 22.605469 34.820312 A 1.0001 1.0001 0 1 0 23.542969 36.585938 C 24.377591 36.143281 24.861913 35.383466 25.068359 34.695312 C 25.266982 34.033241 25.267663 33.425954 25.267578 32.980469 C 27.038397 32.979962 29.043978 32.980107 29.207031 32.955078 C 29.460031 32.917078 29.569344 32.737516 29.527344 32.478516 C 29.508344 32.364516 29.412109 32.03125 29.412109 32.03125 C 29.360109 31.82725 29.441234 31.612141 29.615234 31.494141 L 31.068359 30.507812 C 31.427359 30.263812 31.325297 29.709422 30.904297 29.607422 L 29.861328 29.355469 C 29.574328 29.285469 29.410812 28.984078 29.507812 28.705078 L 29.738281 28.035156 C 29.869281 27.655156 29.522766 27.284625 29.134766 27.390625 L 26.953125 27.984375 C 26.603125 28.080375 26.272125 27.781828 26.328125 27.423828 C 26.328125 27.423828 26.741141 24.790047 26.869141 23.998047 C 26.920141 23.682047 26.832844 23.690844 26.589844 23.714844 C 26.369844 23.736844 25.730469 23.929688 25.730469 23.929688 C 25.514469 23.983687 25.289734 23.887313 25.177734 23.695312 L 24.433594 22.417969 C 24.337094 22.252469 24.169703 22.167969 24.001953 22.167969 z"/></svg>