<svg fill="#000000" xmlns="http://www.w3.org/2000/svg"  viewBox="0 0 48 48" width="24px" height="24px"><path d="M 9.5 4 A 1.50015 1.50015 0 0 0 8 5.5 L 8 12.5 A 1.50015 1.50015 0 0 0 9.5 14 L 11 14 L 11 16.5 C 11 16.795045 10.795045 17 10.5 17 C 8.5850452 17 7 18.585045 7 20.5 L 7 37.5 C 7 40.519774 9.4802259 43 12.5 43 L 35.5 43 C 38.519774 43 41 40.519774 41 37.5 L 41 20.5 C 41 18.585045 39.414955 17 37.5 17 C 37.204955 17 37 16.795045 37 16.5 L 37 14 L 38.5 14 A 1.50015 1.50015 0 0 0 40 12.5 L 40 5.5 A 1.50015 1.50015 0 0 0 38.5 4 L 9.5 4 z M 11 7 L 37 7 L 37 11 L 35.5 11 L 12.5 11 L 11 11 L 11 7 z M 14 14 L 34 14 L 34 16.5 C 34 18.414955 35.585045 20 37.5 20 C 37.795045 20 38 20.204955 38 20.5 L 38 37.5 C 38 38.898226 36.898226 40 35.5 40 L 12.5 40 C 11.101774 40 10 38.898226 10 37.5 L 10 20.5 C 10 20.204955 10.204955 20 10.5 20 C 12.414955 20 14 18.414955 14 16.5 L 14 14 z M 14.5 24 A 1.50015 1.50015 0 0 0 13 25.5 L 13 31.5 A 1.50015 1.50015 0 0 0 14.5 33 L 33.5 33 A 1.50015 1.50015 0 0 0 35 31.5 L 35 25.5 A 1.50015 1.50015 0 0 0 33.5 24 L 14.5 24 z M 16 27 L 32 27 L 32 30 L 16 30 L 16 27 z"/></svg>