<?xml version="1.0" encoding="utf-8"?>
<!-- Generator: Adobe Illustrator 22.0.1, SVG Export Plug-In . SVG Version: 6.00 Build 0)  -->
<svg version="1.1" id="Layer_2" xmlns="http://www.w3.org/2000/svg" xmlns:xlink="http://www.w3.org/1999/xlink" x="0px" y="0px"
	 viewBox="0 0 256 256" style="enable-background:new 0 0 256 256;" xml:space="preserve">
<style type="text/css">
	.st0{fill:#3A312A;}
	.st1{fill:#D7E057;}
	.st2{fill:#FCE8CB;}
	.st3{fill:#8AC6DD;}
	.st4{fill-rule:evenodd;clip-rule:evenodd;fill:#FCE8CB;}
	.st5{fill:#F5978A;}
	.st6{fill:#87796F;}
	.st7{fill:#F16C7A;}
	.st8{fill:#68A8BC;}
	.st9{fill:#B9BC39;}
	.st10{fill:#CE4E61;}
	.st11{fill:#6B5B51;}
	.st12{fill:#CCAE8B;}
	.st13{fill-rule:evenodd;clip-rule:evenodd;fill:#F16C7A;}
</style>
<g>
	<g>
		<g>
			<path class="st6" d="M204.901,74.671h-24.58l2.32,14h22.26c11.33,0,20.55,9.22,20.55,20.55v59.35c0,4.41-1.4,8.56-3.85,11.97
				c-2.44,3.4-5.93,6.06-10.1,7.48l-11.85,4.02c0.61,5.21,0.24,10.31-0.96,15.11l17.31-5.87c14.03-4.76,23.45-17.9,23.45-32.71
				v-59.35C239.451,90.171,223.951,74.671,204.901,74.671z"/>
		</g>
	</g>
	<g>
		<g>
			<path class="st0" d="M204.901,73.172h-24.58c-0.441,0-0.859,0.193-1.144,0.53c-0.285,0.336-0.408,0.78-0.336,1.215l2.32,14
				c0.12,0.724,0.746,1.255,1.48,1.255h22.26c10.504,0,19.05,8.546,19.05,19.05v59.35c0,4.01-1.234,7.847-3.569,11.096
				c-2.328,3.243-5.565,5.641-9.363,6.934l-11.85,4.021c-0.67,0.228-1.09,0.893-1.008,1.596c0.575,4.911,0.264,9.813-0.925,14.571
				c-0.133,0.532,0.035,1.095,0.439,1.467c0.281,0.259,0.646,0.396,1.016,0.396c0.162,0,0.324-0.026,0.482-0.079l17.31-5.87
				c14.635-4.966,24.468-18.682,24.468-34.131v-59.35C240.951,89.344,224.779,73.172,204.901,73.172z M237.951,168.571
				c0,14.163-9.015,26.737-22.432,31.289l-14.8,5.02c0.718-3.881,0.902-7.836,0.547-11.802l10.719-3.637
				c4.394-1.496,8.141-4.271,10.834-8.024c2.703-3.762,4.132-8.204,4.132-12.846v-59.35c0-12.158-9.892-22.05-22.05-22.05h-20.988
				l-1.823-11h22.811c18.224,0,33.05,14.826,33.05,33.05V168.571z"/>
		</g>
	</g>
	<g>
		<g>
			<path class="st3" d="M199.361,190.001l-20.76-125.78l-148.27-32.22l35.56,44.7c5.41,6.8,7.01,15.88,4.24,24.11l-12.331,36.706
				l-4.642,13.818l-8.837,26.307c-10.17,30.27,12.35,61.59,44.28,61.59h69C183.731,239.231,203.621,215.781,199.361,190.001z"/>
		</g>
	</g>
	<g>
		<g>
			<path class="st0" d="M200.841,189.758l-20.76-125.78c-0.1-0.606-0.56-1.091-1.162-1.222L30.65,30.536
				c-0.62-0.136-1.257,0.135-1.592,0.674c-0.335,0.538-0.295,1.229,0.1,1.726l35.56,44.7c5.118,6.434,6.611,14.918,3.992,22.698
				L56.379,137.04c-0.264,0.785,0.159,1.636,0.944,1.899c0.786,0.269,1.637-0.159,1.9-0.944l12.33-36.705
				c2.945-8.748,1.267-18.289-4.488-25.521l-32.94-41.407l143.163,31.109l20.594,124.775c1.958,11.854-1.376,23.906-9.149,33.069
				c-7.772,9.161-19.119,14.416-31.131,14.416h-69c-14.731,0-28.111-6.859-36.711-18.819c-8.599-11.96-10.839-26.829-6.148-40.793
				l8.837-26.307c0.264-0.785-0.159-1.636-0.944-1.899c-0.783-0.266-1.635,0.159-1.899,0.944l-8.837,26.307
				c-5.003,14.891-2.613,30.745,6.556,43.499c9.169,12.754,23.438,20.068,39.146,20.068h69c12.895,0,25.075-5.641,33.418-15.476
				C199.364,215.42,202.944,202.481,200.841,189.758z"/>
		</g>
	</g>
	<g>
		<g>
			<path class="st7" d="M185.059,51.715l-44.82-9.74L126.55,39L25.042,16.942c-3.667-0.792-7.287,1.53-8.084,5.199
				c-0.797,3.667,1.53,7.288,5.198,8.085l160.017,34.774c0.486,0.105,0.971,0.155,1.45,0.155c3.128,0,5.943-2.172,6.635-5.354
				C191.054,56.133,188.727,52.512,185.059,51.715z"/>
		</g>
	</g>
	<g>
		<g>
			<path class="st0" d="M185.377,50.249l-44.82-9.739c-0.804-0.175-1.608,0.338-1.784,1.147c-0.176,0.81,0.338,1.608,1.148,1.784
				l44.819,9.739c2.854,0.621,4.671,3.447,4.051,6.301c-0.525,2.418-2.699,4.173-5.169,4.173c-0.38,0-0.761-0.041-1.131-0.121
				L22.475,28.76c-2.854-0.621-4.671-3.447-4.051-6.301c0.619-2.851,3.446-4.668,6.3-4.051l101.508,22.059
				c0.814,0.178,1.608-0.338,1.784-1.147c0.176-0.81-0.338-1.608-1.147-1.784L25.359,15.477c-4.47-0.97-8.897,1.881-9.867,6.346
				c-0.971,4.47,1.875,8.896,6.346,9.869l160.018,34.773c0.579,0.126,1.174,0.189,1.768,0.189c3.871,0,7.278-2.749,8.1-6.536
				C192.694,55.648,189.848,51.222,185.377,50.249z"/>
		</g>
	</g>
	<g>
		<g>
			<path class="st1" d="M47.46,82.175c-0.974,11.564-13.024,13.389-13.024,13.389c10.347,0.487,12.925,14.059,12.925,14.059
				c0.221-9.677,13.321-14.202,13.321-14.202C50.868,94.834,47.46,82.175,47.46,82.175z"/>
		</g>
	</g>
	<g>
		<g>
			<path class="st0" d="M60.771,93.924c-8.604-0.515-11.832-12.024-11.864-12.141c-0.191-0.703-0.863-1.17-1.583-1.102
				c-0.725,0.066-1.298,0.642-1.359,1.367c-0.86,10.215-11.313,11.964-11.754,12.032c-0.763,0.116-1.313,0.791-1.273,1.561
				c0.04,0.771,0.657,1.385,1.428,1.421c9.028,0.425,11.499,12.718,11.523,12.843c0.137,0.711,0.759,1.217,1.472,1.217
				c0.042,0,0.085-0.002,0.127-0.005c0.764-0.064,1.357-0.693,1.375-1.46c0.195-8.509,12.192-12.777,12.313-12.819
				c0.675-0.234,1.092-0.914,0.994-1.622C62.069,94.507,61.485,93.966,60.771,93.924z M47.205,104.27
				c-1.357-3.131-3.708-6.907-7.587-8.877c2.931-1.404,6.409-3.913,8.202-8.272c1.551,3.071,4.199,6.88,8.334,8.723
				C53.147,97.482,49.231,100.248,47.205,104.27z"/>
		</g>
	</g>
	<g>
		<g>
			<path class="st1" d="M25.761,99.155c-0.689,8.179-9.212,9.47-9.212,9.47c7.318,0.344,9.142,9.944,9.142,9.944
				c0.156-6.844,9.422-10.045,9.422-10.045C28.172,108.109,25.761,99.155,25.761,99.155z"/>
		</g>
	</g>
	<g>
		<g>
			<path class="st0" d="M35.202,107.027c-5.766-0.345-7.972-8.186-7.993-8.265c-0.19-0.701-0.853-1.171-1.582-1.102
				c-0.726,0.065-1.299,0.643-1.36,1.368c-0.579,6.87-7.647,8.066-7.943,8.113c-0.763,0.116-1.313,0.791-1.273,1.561
				c0.04,0.771,0.657,1.385,1.428,1.421c6.035,0.284,7.724,8.644,7.739,8.726c0.135,0.713,0.759,1.22,1.472,1.22
				c0.042,0,0.083-0.002,0.125-0.005c0.765-0.063,1.358-0.693,1.376-1.461c0.13-5.708,8.332-8.633,8.412-8.661
				c0.677-0.234,1.094-0.913,0.996-1.622C36.501,107.611,35.917,107.069,35.202,107.027z M25.618,113.822
				c-0.924-1.886-2.34-3.947-4.447-5.28c1.855-1.041,3.697-2.63,4.871-4.916c1.057,1.874,2.654,3.954,4.941,5.224
				C29.133,109.95,26.994,111.59,25.618,113.822z"/>
		</g>
	</g>
	<g>
		<g>
			<path class="st1" d="M25.761,72.498c-0.689,8.179-9.212,9.471-9.212,9.471c7.318,0.344,9.142,9.944,9.142,9.944
				c0.156-6.845,9.422-10.045,9.422-10.045C28.172,81.452,25.761,72.498,25.761,72.498z"/>
		</g>
	</g>
	<g>
		<g>
			<path class="st0" d="M35.203,80.37c-5.766-0.346-7.972-8.187-7.994-8.266c-0.19-0.702-0.853-1.163-1.582-1.102
				c-0.726,0.065-1.299,0.643-1.36,1.368c-0.579,6.871-7.647,8.066-7.943,8.113c-0.763,0.116-1.313,0.791-1.273,1.561
				c0.04,0.771,0.657,1.385,1.427,1.421c6.036,0.284,7.724,8.645,7.74,8.727c0.135,0.713,0.759,1.22,1.472,1.22
				c0.042,0,0.083-0.002,0.125-0.005c0.765-0.063,1.358-0.693,1.376-1.461c0.13-5.709,8.331-8.633,8.412-8.661
				c0.676-0.233,1.094-0.913,0.996-1.622C36.501,80.954,35.917,80.413,35.203,80.37z M25.618,87.164
				c-0.924-1.885-2.34-3.947-4.447-5.279c1.855-1.041,3.697-2.63,4.871-4.917c1.057,1.874,2.654,3.955,4.941,5.225
				C29.133,83.293,26.994,84.932,25.618,87.164z"/>
		</g>
	</g>
	<g>
		<g>
			<path class="st8" d="M197.881,190.241l-20.59-124.77l-13.05-2.83l20.63,127.6c1.95,11.86-1.38,23.91-9.15,33.07
				c-7.78,9.17-19.12,14.42-31.13,14.42h13.01c12.01,0,23.36-5.25,31.13-14.42C196.501,214.151,199.841,202.102,197.881,190.241z"/>
		</g>
	</g>
</g>
</svg>
