<?xml version="1.0" encoding="utf-8"?>
<!-- Generator: Adobe Illustrator 22.0.1, SVG Export Plug-In . SVG Version: 6.00 Build 0)  -->
<svg version="1.1" id="Layer_2" xmlns="http://www.w3.org/2000/svg" xmlns:xlink="http://www.w3.org/1999/xlink" x="0px" y="0px"
	 viewBox="0 0 256 256" style="enable-background:new 0 0 256 256;" xml:space="preserve">
<style type="text/css">
	.st0{fill:#3A312A;}
	.st1{fill:#D7E057;}
	.st2{fill:#FCE8CB;}
	.st3{fill:#8AC6DD;}
	.st4{fill-rule:evenodd;clip-rule:evenodd;fill:#FCE8CB;}
	.st5{fill:#F5978A;}
	.st6{fill:#87796F;}
	.st7{fill:#F16C7A;}
	.st8{fill:#68A8BC;}
	.st9{fill:#B9BC39;}
	.st10{fill:#CE4E61;}
	.st11{fill:#6B5B51;}
	.st12{fill:#CCAE8B;}
	.st13{fill-rule:evenodd;clip-rule:evenodd;fill:#F16C7A;}
</style>
<g>
	<g>
		<g>
			<path class="st1" d="M87.648,26.087c-0.974,11.564-13.025,13.389-13.025,13.389c10.347,0.487,12.925,14.059,12.925,14.059
				c0.221-9.677,13.321-14.202,13.321-14.202C91.056,38.746,87.648,26.087,87.648,26.087z"/>
		</g>
	</g>
	<g>
		<g>
			<path class="st0" d="M100.96,37.836c-8.605-0.515-11.833-12.024-11.864-12.141c-0.19-0.702-0.843-1.158-1.584-1.102
				c-0.725,0.066-1.298,0.642-1.359,1.367C85.293,36.176,74.84,37.925,74.398,37.994c-0.763,0.115-1.313,0.79-1.273,1.561
				c0.04,0.77,0.657,1.384,1.428,1.421c9.028,0.425,11.499,12.718,11.522,12.842c0.138,0.711,0.76,1.217,1.473,1.217
				c0.042,0,0.084-0.001,0.126-0.005c0.765-0.064,1.357-0.693,1.375-1.459c0.193-8.508,12.191-12.777,12.313-12.819
				c0.676-0.235,1.092-0.914,0.994-1.623C102.257,38.42,101.674,37.879,100.96,37.836z M87.394,48.182
				c-1.356-3.131-3.709-6.908-7.587-8.877c2.931-1.405,6.408-3.913,8.201-8.272c1.551,3.071,4.2,6.88,8.335,8.722
				C93.335,41.395,89.42,44.16,87.394,48.182z"/>
		</g>
	</g>
	<g>
		<g>
			<path class="st1" d="M65.949,43.068c-0.689,8.179-9.213,9.47-9.213,9.47c7.318,0.344,9.142,9.944,9.142,9.944
				c0.156-6.844,9.422-10.045,9.422-10.045C68.36,52.022,65.949,43.068,65.949,43.068z"/>
		</g>
	</g>
	<g>
		<g>
			<path class="st0" d="M75.391,50.939c-5.766-0.345-7.972-8.186-7.994-8.265c-0.189-0.702-0.866-1.16-1.581-1.102
				c-0.726,0.065-1.3,0.643-1.361,1.368c-0.578,6.871-7.646,8.067-7.942,8.114c-0.763,0.115-1.313,0.79-1.273,1.561
				c0.04,0.77,0.657,1.384,1.428,1.421c6.035,0.284,7.724,8.644,7.739,8.726c0.136,0.713,0.759,1.22,1.473,1.22
				c0.041,0,0.083-0.001,0.125-0.005c0.765-0.063,1.358-0.694,1.376-1.461c0.13-5.709,8.331-8.634,8.412-8.662
				c0.676-0.234,1.093-0.913,0.996-1.622C76.689,51.524,76.104,50.982,75.391,50.939z M65.806,57.734
				c-0.924-1.885-2.34-3.947-4.447-5.28c1.856-1.041,3.698-2.63,4.871-4.916c1.058,1.874,2.654,3.954,4.941,5.223
				C69.321,53.863,67.182,55.502,65.806,57.734z"/>
		</g>
	</g>
	<g>
		<g>
			<path class="st1" d="M65.949,16.41c-0.689,8.179-9.213,9.471-9.213,9.471c7.318,0.344,9.142,9.944,9.142,9.944
				c0.156-6.844,9.422-10.045,9.422-10.045C68.36,25.364,65.949,16.41,65.949,16.41z"/>
		</g>
	</g>
	<g>
		<g>
			<path class="st0" d="M75.391,24.282c-5.766-0.345-7.972-8.186-7.994-8.265c-0.189-0.702-0.866-1.159-1.581-1.102
				c-0.726,0.065-1.3,0.643-1.361,1.368c-0.578,6.871-7.646,8.067-7.942,8.114c-0.763,0.115-1.313,0.79-1.273,1.561
				c0.04,0.77,0.657,1.384,1.428,1.421c6.035,0.284,7.724,8.644,7.739,8.726c0.136,0.713,0.759,1.22,1.473,1.22
				c0.041,0,0.083-0.001,0.125-0.005c0.765-0.063,1.358-0.694,1.376-1.461c0.13-5.709,8.331-8.634,8.412-8.662
				c0.676-0.234,1.093-0.913,0.996-1.622C76.689,24.867,76.104,24.325,75.391,24.282z M65.806,31.077
				c-0.924-1.885-2.34-3.947-4.447-5.28c1.856-1.041,3.698-2.63,4.871-4.916c1.058,1.874,2.654,3.954,4.941,5.223
				C69.321,27.206,67.182,28.845,65.806,31.077z"/>
		</g>
	</g>
	<g>
		<g>
			<path class="st3" d="M195.384,102.21l-17.03-31.41c-2.55-4.7-3.88-9.97-3.88-15.33v-17.5c-0.62,0.12-1.27,0.18-1.93,0.18h-54.8
				c-0.66,0-1.31-0.06-1.93-0.18v17.5c0,5.36-1.33,10.63-3.88,15.33l-17.03,31.41c-2.55,4.71-3.88,9.98-3.88,15.34v89.86
				c0,17.77,14.4,32.18,32.17,32.18h14.853h13.693h15.354c17.77,0,32.17-14.41,32.17-32.18v-89.86
				C199.263,112.19,197.933,106.92,195.384,102.21z"/>
		</g>
	</g>
	<g>
		<g>
			<path class="st0" d="M196.702,101.495l-17.03-31.411c-2.419-4.459-3.698-9.513-3.698-14.614v-17.5c0-0.448-0.2-0.872-0.545-1.157
				c-0.347-0.285-0.799-0.403-1.239-0.316c-0.524,0.101-1.078,0.152-1.646,0.152h-54.801c-0.567,0-1.121-0.051-1.646-0.152
				c-0.442-0.086-0.894,0.031-1.239,0.316c-0.345,0.285-0.545,0.709-0.545,1.157v17.5c0,5.101-1.279,10.155-3.698,14.615
				l-17.031,31.411c-2.656,4.907-4.061,10.459-4.061,16.054v89.86c0,18.571,15.104,33.68,33.67,33.68h14.853
				c0.828,0,1.5-0.671,1.5-1.5s-0.672-1.5-1.5-1.5h-14.853c-16.911,0-30.67-13.763-30.67-30.68v-89.86
				c0-5.098,1.279-10.156,3.698-14.625l17.03-31.41c2.657-4.897,4.062-10.446,4.062-16.045V39.643
				c0.143,0.005,0.286,0.007,0.43,0.007h54.801c0.144,0,0.287-0.002,0.43-0.007V55.47c0,5.599,1.404,11.147,4.062,16.044
				l17.029,31.409c2.42,4.47,3.699,9.528,3.699,14.626v89.86c0,16.917-13.759,30.68-30.67,30.68h-15.354c-0.828,0-1.5,0.671-1.5,1.5
				s0.672,1.5,1.5,1.5h15.354c18.565,0,33.67-15.109,33.67-33.68v-89.86C200.764,111.955,199.359,106.403,196.702,101.495z"/>
		</g>
	</g>
	<g>
		<g>
			<path class="st6" d="M172.548,16.71h-54.808c-5.92,0-10.72,4.799-10.72,10.72c0,5.921,4.8,10.72,10.72,10.72h54.808
				c5.92,0,10.72-4.8,10.72-10.72C183.268,21.509,178.468,16.71,172.548,16.71z"/>
		</g>
	</g>
	<g>
		<g>
			<path class="st0" d="M172.548,15.21h-54.809c-6.738,0-12.22,5.482-12.22,12.22c0,6.738,5.481,12.22,12.22,12.22h54.809
				c6.738,0,12.22-5.482,12.22-12.22C184.768,20.692,179.286,15.21,172.548,15.21z M172.548,36.65h-54.809
				c-5.084,0-9.22-4.136-9.22-9.22s4.136-9.22,9.22-9.22h54.809c5.084,0,9.22,4.136,9.22,9.22S177.632,36.65,172.548,36.65z"/>
		</g>
	</g>
	<g>
		<g>
			<path class="st2" d="M170.153,127.618c-6.767-5.674-15.487-9.095-25.01-9.095c-9.522,0-18.242,3.421-25.009,9.095H91.023v59.72
				h29.113c6.767,5.673,15.486,9.093,25.007,9.093c9.521,0,18.24-3.42,25.007-9.093h29.113v-59.72H170.153z"/>
		</g>
	</g>
	<g>
		<g>
			<path class="st0" d="M199.264,126.118h-28.57c-7.198-5.869-16.249-9.095-25.55-9.095s-18.352,3.226-25.55,9.095h-5.465
				c-0.828,0-1.5,0.671-1.5,1.5s0.672,1.5,1.5,1.5h6.005c0.353,0,0.693-0.124,0.964-0.351c6.726-5.639,15.265-8.745,24.046-8.745
				s17.32,3.105,24.046,8.745c0.271,0.227,0.611,0.351,0.964,0.351h27.61v56.72H170.15c-0.353,0-0.693,0.124-0.964,0.351
				c-6.724,5.638-15.263,8.743-24.043,8.743s-17.319-3.105-24.043-8.743c-0.271-0.227-0.611-0.351-0.964-0.351H92.523v-56.72h7.635
				c0.828,0,1.5-0.671,1.5-1.5s-0.672-1.5-1.5-1.5h-9.135c-0.828,0-1.5,0.671-1.5,1.5v59.72c0,0.829,0.672,1.5,1.5,1.5h28.573
				c7.197,5.868,16.246,9.093,25.547,9.093s18.35-3.225,25.547-9.093h28.573c0.828,0,1.5-0.671,1.5-1.5v-59.72
				C200.764,126.789,200.092,126.118,199.264,126.118z"/>
		</g>
	</g>
	<g>
		<g>
			
				<ellipse transform="matrix(0.7071 -0.7071 0.7071 0.7071 -68.8412 148.7557)" class="st1" cx="145.143" cy="157.477" rx="27.545" ry="27.545"/>
		</g>
	</g>
	<g>
		<g>
			<path class="st0" d="M145.144,128.432c-16.016,0-29.045,13.029-29.045,29.045s13.029,29.045,29.045,29.045
				s29.045-13.029,29.045-29.045S161.159,128.432,145.144,128.432z M145.144,183.521c-14.361,0-26.045-11.684-26.045-26.045
				s11.684-26.045,26.045-26.045s26.045,11.684,26.045,26.045S159.505,183.521,145.144,183.521z"/>
		</g>
	</g>
	<g>
		<g>
			<path class="st8" d="M184.543,188.84v18.57c0,16.92-13.75,30.68-30.67,30.68h13.22c16.91,0,30.67-13.76,30.67-30.68v-18.57
				H184.543z"/>
		</g>
	</g>
	<g>
		<g>
			<path class="st8" d="M194.063,102.92l-17.03-31.41c-2.66-4.89-4.06-10.44-4.06-16.04V39.64c-0.14,0.01-0.28,0.01-0.42,0.01
				c0,0,0,0-0.01,0h-12.79v15.82c0,5.6,1.41,11.15,4.07,16.04l17.03,31.41c2.41,4.47,3.69,9.53,3.69,14.63v8.57h13.22v-8.57
				C197.763,112.45,196.484,107.39,194.063,102.92z"/>
		</g>
	</g>
	<g>
		<g>
			<path class="st11" d="M172.543,18.21h-13.21c5.08,0,9.22,4.14,9.22,9.22c0,5.08-4.14,9.22-9.22,9.22h13.21
				c2.54,0,4.85-1.04,6.52-2.7c1.67-1.68,2.7-3.98,2.7-6.52C181.763,22.35,177.634,18.21,172.543,18.21z"/>
		</g>
	</g>
	<g>
		<g>
			<rect x="184.543" y="129.12" class="st12" width="13.22" height="56.72"/>
		</g>
	</g>
</g>
</svg>
