<?xml version="1.0" encoding="utf-8"?>
<!-- Generator: Adobe Illustrator 22.0.1, SVG Export Plug-In . SVG Version: 6.00 Build 0)  -->
<svg version="1.1" id="Layer_2" xmlns="http://www.w3.org/2000/svg" xmlns:xlink="http://www.w3.org/1999/xlink" x="0px" y="0px"
	 viewBox="0 0 256 256" style="enable-background:new 0 0 256 256;" xml:space="preserve">
<style type="text/css">
	.st0{fill:#3A312A;}
	.st1{fill:#D7E057;}
	.st2{fill:#FCE8CB;}
	.st3{fill:#8AC6DD;}
	.st4{fill-rule:evenodd;clip-rule:evenodd;fill:#FCE8CB;}
	.st5{fill:#F5978A;}
	.st6{fill:#87796F;}
	.st7{fill:#F16C7A;}
	.st8{fill:#68A8BC;}
	.st9{fill:#B9BC39;}
	.st10{fill:#CE4E61;}
	.st11{fill:#6B5B51;}
	.st12{fill:#CCAE8B;}
	.st13{fill-rule:evenodd;clip-rule:evenodd;fill:#F16C7A;}
</style>
<g>
	<g>
		<g>
			<path class="st1" d="M60.327,144.019c-0.974,11.563-13.024,13.389-13.024,13.389c10.347,0.487,12.925,14.06,12.925,14.06
				c0.221-9.677,13.321-14.203,13.321-14.203C63.735,156.678,60.327,144.019,60.327,144.019z"/>
		</g>
	</g>
	<g>
		<g>
			<path class="st0" d="M73.639,155.768c-8.605-0.515-11.832-12.024-11.864-12.141c-0.191-0.702-0.853-1.164-1.583-1.102
				c-0.725,0.066-1.298,0.642-1.359,1.367c-0.86,10.215-11.313,11.964-11.754,12.032c-0.763,0.116-1.313,0.791-1.273,1.561
				c0.04,0.771,0.657,1.385,1.428,1.421c9.028,0.425,11.499,12.718,11.523,12.843c0.137,0.711,0.759,1.217,1.472,1.217
				c0.042,0,0.084-0.002,0.126-0.005c0.764-0.064,1.357-0.693,1.374-1.46c0.194-8.509,12.192-12.777,12.313-12.819
				c0.675-0.234,1.092-0.914,0.994-1.622C74.936,156.351,74.352,155.81,73.639,155.768z M60.073,166.113
				c-1.357-3.131-3.708-6.907-7.587-8.877c2.931-1.404,6.409-3.912,8.202-8.272c1.551,3.071,4.2,6.88,8.334,8.723
				C66.014,159.326,62.099,162.092,60.073,166.113z"/>
		</g>
	</g>
	<g>
		<g>
			<path class="st1" d="M38.628,160.999c-0.689,8.179-9.212,9.471-9.212,9.471c7.318,0.344,9.142,9.944,9.142,9.944
				c0.156-6.844,9.422-10.045,9.422-10.045C41.039,169.953,38.628,160.999,38.628,160.999z"/>
		</g>
	</g>
	<g>
		<g>
			<path class="st0" d="M48.07,168.871c-5.766-0.345-7.972-8.186-7.994-8.265c-0.19-0.702-0.855-1.162-1.582-1.102
				c-0.726,0.065-1.299,0.643-1.36,1.368c-0.579,6.87-7.647,8.066-7.942,8.113c-0.763,0.116-1.313,0.791-1.273,1.561
				c0.04,0.771,0.657,1.385,1.427,1.421c6.036,0.284,7.724,8.645,7.739,8.727c0.135,0.712,0.759,1.22,1.472,1.22
				c0.042,0,0.083-0.002,0.125-0.005c0.765-0.063,1.358-0.693,1.376-1.461c0.13-5.709,8.332-8.634,8.413-8.662
				c0.677-0.234,1.094-0.913,0.996-1.622C49.369,169.455,48.785,168.913,48.07,168.871z M38.485,175.666
				c-0.924-1.886-2.34-3.947-4.447-5.279c1.855-1.042,3.697-2.631,4.871-4.917c1.057,1.874,2.654,3.955,4.941,5.224
				C42,171.794,39.861,173.434,38.485,175.666z"/>
		</g>
	</g>
	<g>
		<g>
			<path class="st1" d="M38.628,134.341c-0.689,8.18-9.212,9.471-9.212,9.471c7.318,0.345,9.142,9.944,9.142,9.944
				c0.156-6.845,9.422-10.045,9.422-10.045C41.039,143.295,38.628,134.341,38.628,134.341z"/>
		</g>
	</g>
	<g>
		<g>
			<path class="st0" d="M48.07,142.214c-5.766-0.345-7.972-8.186-7.994-8.265c-0.19-0.702-0.855-1.173-1.582-1.102
				c-0.726,0.065-1.299,0.643-1.36,1.368c-0.579,6.87-7.647,8.066-7.942,8.113c-0.763,0.116-1.314,0.791-1.273,1.561
				c0.04,0.771,0.657,1.385,1.428,1.421c6.035,0.284,7.723,8.645,7.739,8.727c0.135,0.712,0.759,1.22,1.472,1.22
				c0.042,0,0.083-0.002,0.125-0.005c0.765-0.063,1.358-0.693,1.376-1.461c0.13-5.709,8.332-8.634,8.413-8.662
				c0.677-0.234,1.094-0.913,0.996-1.622C49.369,142.798,48.785,142.256,48.07,142.214z M38.485,149.009
				c-0.924-1.886-2.34-3.947-4.447-5.28c1.856-1.041,3.697-2.63,4.871-4.916c1.057,1.874,2.654,3.955,4.941,5.224
				C42,145.137,39.861,146.776,38.485,149.009z"/>
		</g>
	</g>
	<g>
		<g>
			<path class="st6" d="M221.894,55.861c-4.07-5.09-10.14-8-16.65-8h-24.09l-1.37,14h25.46c2.23,0,4.32,1,5.72,2.75
				c1.4,1.75,1.92,4,1.43,6.19l-13.75,61.49c-0.75,3.38-3.7,5.74-7.16,5.74h-7.18c-3.87,0-7,3.13-7,7c0,3.86,3.13,7,7,7h7.18
				c10.06,0,18.63-6.86,20.82-16.68l13.76-61.5C227.484,67.501,225.964,60.941,221.894,55.861z"/>
		</g>
	</g>
	<g>
		<g>
			<path class="st0" d="M223.065,54.925c-4.351-5.442-10.846-8.563-17.821-8.563h-24.09c-0.771,0-1.418,0.586-1.493,1.354l-1.37,14
				c-0.041,0.422,0.098,0.841,0.382,1.154s0.688,0.492,1.111,0.492h25.46c1.778,0,3.437,0.797,4.549,2.188
				c1.112,1.39,1.526,3.185,1.137,4.925l-13.751,61.492c-0.596,2.688-2.938,4.565-5.694,4.565h-7.181c-4.687,0-8.5,3.813-8.5,8.5
				s3.813,8.5,8.5,8.5h7.181c10.776,0,19.939-7.342,22.283-17.854l13.76-61.5C229.049,67.38,227.422,60.362,223.065,54.925z
				 M224.6,73.523l-13.76,61.501c-2.036,9.13-9.995,15.507-19.355,15.507h-7.181c-3.032,0-5.5-2.468-5.5-5.5s2.468-5.5,5.5-5.5
				h7.181c4.174,0,7.72-2.844,8.623-6.913l13.75-61.489c0.59-2.633-0.038-5.351-1.723-7.455c-1.685-2.105-4.196-3.313-6.891-3.313
				h-23.806l1.076-11h22.729c6.059,0,11.7,2.711,15.479,7.438C224.508,61.523,225.921,67.619,224.6,73.523z"/>
		</g>
	</g>
	<g>
		<g>
			<polygon class="st1" points="76.336,40.072 84.077,102.998 85.898,117.803 91.067,159.825 167.181,159.825 181.911,40.072 			"/>
		</g>
	</g>
	<g>
		<g>
			<path class="st0" d="M183.035,39.078c-0.285-0.321-0.694-0.506-1.124-0.506H76.336c-0.43,0-0.839,0.185-1.123,0.506
				c-0.285,0.322-0.418,0.751-0.365,1.178l7.74,62.926c0.101,0.821,0.846,1.388,1.672,1.306c0.822-0.102,1.407-0.851,1.306-1.673
				l-7.533-61.242h102.183l-14.361,116.752h-73.46l-5.007-40.705c-0.101-0.822-0.858-1.395-1.672-1.306
				c-0.822,0.102-1.407,0.851-1.306,1.673l5.169,42.021c0.092,0.752,0.731,1.316,1.489,1.316h76.114
				c0.758,0,1.396-0.564,1.489-1.316L183.4,40.256C183.452,39.829,183.319,39.4,183.035,39.078z"/>
		</g>
	</g>
	<g>
		<g>
			<polygon class="st1" points="109.29,40.072 114.825,159.825 143.422,159.825 148.957,40.072 			"/>
		</g>
	</g>
	<g>
		<g>
			<path class="st0" d="M150.042,39.036c-0.283-0.296-0.675-0.464-1.085-0.464H109.29c-0.41,0-0.802,0.168-1.085,0.464
				c-0.283,0.297-0.432,0.696-0.414,1.105l5.535,119.753c0.037,0.801,0.697,1.431,1.499,1.431h28.598
				c0.802,0,1.461-0.63,1.498-1.431l5.534-119.753C150.475,39.732,150.325,39.333,150.042,39.036z M141.99,158.325h-25.733
				l-5.396-116.753h36.524L141.99,158.325z"/>
		</g>
	</g>
	<g>
		<g>
			<path class="st7" d="M198.266,217.158l-31.085-57.333H91.067l-31.085,57.333c-3.207,5.915,1.076,13.107,7.803,13.107h122.678
				C197.19,230.265,201.473,223.072,198.266,217.158z"/>
		</g>
	</g>
	<g>
		<g>
			<path class="st0" d="M199.584,216.442l-31.085-57.332c-0.262-0.483-0.768-0.785-1.318-0.785H91.067
				c-0.55,0-1.056,0.302-1.319,0.785l-31.085,57.332c-1.76,3.247-1.684,7.08,0.206,10.254c1.889,3.174,5.222,5.068,8.916,5.068
				h122.678c3.693,0,7.026-1.895,8.916-5.068C201.268,223.522,201.345,219.689,199.584,216.442z M196.801,225.162
				c-1.343,2.256-3.712,3.603-6.338,3.603H67.785c-2.626,0-4.995-1.347-6.338-3.603c-1.343-2.257-1.398-4.981-0.146-7.29
				l30.659-56.547h74.328l30.659,56.547C198.198,220.181,198.144,222.905,196.801,225.162z"/>
		</g>
	</g>
	<g>
		<g>
			<path class="st3" d="M185.145,28.342H73.102c-3.239,0-5.865,2.626-5.865,5.865l0,0c0,3.239,2.626,5.865,5.865,5.865h112.043
				c3.239,0,5.865-2.626,5.865-5.865l0,0C191.01,30.968,188.385,28.342,185.145,28.342z"/>
		</g>
	</g>
	<g>
		<g>
			<path class="st0" d="M185.146,26.842H73.102c-4.061,0-7.365,3.304-7.365,7.365s3.304,7.365,7.365,7.365h112.043
				c4.062,0,7.365-3.304,7.365-7.365S189.207,26.842,185.146,26.842z M185.146,38.572H73.102c-2.407,0-4.365-1.958-4.365-4.365
				s1.958-4.365,4.365-4.365h112.043c2.407,0,4.365,1.958,4.365,4.365S187.553,38.572,185.146,38.572z"/>
		</g>
	</g>
	<g>
		<g>
			<path class="st3" d="M161.072,16.611H97.176c-6.479,0-11.731,5.252-11.731,11.731h87.357
				C172.802,21.863,167.55,16.611,161.072,16.611z"/>
		</g>
	</g>
	<g>
		<g>
			<path class="st0" d="M161.071,15.11h-14.082c-0.828,0-1.5,0.672-1.5,1.5s0.672,1.5,1.5,1.5h14.082
				c5.132,0,9.393,3.798,10.121,8.731H87.055c0.727-4.934,4.989-8.731,10.121-8.731h35.416c0.828,0,1.5-0.672,1.5-1.5
				s-0.672-1.5-1.5-1.5H97.176c-7.295,0-13.231,5.936-13.231,13.231c0,0.828,0.671,1.5,1.5,1.5h87.357c0.828,0,1.5-0.672,1.5-1.5
				C174.302,21.046,168.366,15.11,161.071,15.11z"/>
		</g>
	</g>
	<g>
		<g>
			<path class="st6" d="M129.124,176.055c-10.678,0-19.333,8.656-19.333,19.333c0,10.677,8.656,19.333,19.333,19.333
				c10.677,0,19.333-8.656,19.333-19.333C148.457,184.711,139.801,176.055,129.124,176.055z"/>
		</g>
	</g>
	<g>
		<g>
			<path class="st0" d="M129.124,174.556c-11.488,0-20.834,9.346-20.834,20.833s9.346,20.833,20.834,20.833
				c11.487,0,20.833-9.346,20.833-20.833S140.611,174.556,129.124,174.556z M129.124,213.222c-9.834,0-17.834-8-17.834-17.833
				s8-17.833,17.834-17.833c9.833,0,17.833,8,17.833,17.833S138.957,213.222,129.124,213.222z"/>
		</g>
	</g>
	<g>
		<g>
			<path class="st1" d="M129.124,176.055c-3.28,0-5.938,2.659-5.938,5.938v26.791c0,3.28,2.659,5.938,5.938,5.938
				c3.279,0,5.938-2.658,5.938-5.938v-26.791C135.062,178.714,132.403,176.055,129.124,176.055z"/>
		</g>
	</g>
	<g>
		<g>
			<path class="st0" d="M129.124,174.556c-4.102,0-7.439,3.337-7.439,7.438v26.791c0,4.101,3.337,7.438,7.439,7.438
				c4.101,0,7.437-3.337,7.437-7.438v-26.791C136.561,177.893,133.225,174.556,129.124,174.556z M133.561,208.784
				c0,2.447-1.99,4.438-4.437,4.438s-4.439-1.99-4.439-4.438v-26.791c0-2.447,1.991-4.438,4.439-4.438s4.437,1.99,4.437,4.438
				V208.784z"/>
		</g>
	</g>
	<g>
		<g>
			<polygon class="st9" points="168.214,41.571 153.854,158.321 165.854,158.321 180.214,41.571 			"/>
		</g>
	</g>
	<g>
		<g>
			<path class="st10" d="M196.944,217.871l-30.66-56.55h-12l30.66,56.55c1.25,2.31,1.2,5.03-0.14,7.29c-1.35,2.26-3.72,3.6-6.34,3.6
				h12c2.62,0,4.99-1.34,6.34-3.6C198.144,222.901,198.194,220.181,196.944,217.871z"/>
		</g>
	</g>
	<g>
		<g>
			<path class="st8" d="M185.144,29.841h-12c2.41,0,4.37,1.96,4.37,4.37c0,2.4-1.96,4.36-4.37,4.36h12c2.41,0,4.37-1.96,4.37-4.36
				C189.514,31.801,187.554,29.841,185.144,29.841z"/>
		</g>
	</g>
	<g>
		<g>
			<path class="st8" d="M161.074,18.111h-12c5.13,0,9.39,3.8,10.12,8.73h12C170.464,21.911,166.204,18.111,161.074,18.111z"/>
		</g>
	</g>
	<g>
		<g>
			<rect x="79.23" y="230.265" class="st6" width="21.333" height="9.227"/>
		</g>
	</g>
	<g>
		<g>
			<path class="st0" d="M100.563,228.765H79.23c-0.829,0-1.5,0.672-1.5,1.5v9.227c0,0.828,0.671,1.5,1.5,1.5h21.333
				c0.829,0,1.5-0.672,1.5-1.5v-9.227C102.063,229.437,101.392,228.765,100.563,228.765z M99.063,237.991H80.73v-6.227h18.333
				V237.991z"/>
		</g>
	</g>
	<g>
		<g>
			<rect x="157.684" y="230.265" class="st6" width="21.333" height="9.227"/>
		</g>
	</g>
	<g>
		<g>
			<path class="st0" d="M179.018,228.765h-21.333c-0.828,0-1.5,0.672-1.5,1.5v9.227c0,0.828,0.672,1.5,1.5,1.5h21.333
				c0.828,0,1.5-0.672,1.5-1.5v-9.227C180.518,229.437,179.846,228.765,179.018,228.765z M177.518,237.991h-18.333v-6.227h18.333
				V237.991z"/>
		</g>
	</g>
</g>
</svg>
