<?xml version="1.0" encoding="utf-8"?>
<!-- Generator: Adobe Illustrator 22.0.1, SVG Export Plug-In . SVG Version: 6.00 Build 0)  -->
<svg version="1.1" id="Layer_2" xmlns="http://www.w3.org/2000/svg" xmlns:xlink="http://www.w3.org/1999/xlink" x="0px" y="0px"
	 viewBox="0 0 256 256" style="enable-background:new 0 0 256 256;" xml:space="preserve">
<style type="text/css">
	.st0{fill:#3A312A;}
	.st1{fill:#D7E057;}
	.st2{fill:#FCE8CB;}
	.st3{fill:#8AC6DD;}
	.st4{fill-rule:evenodd;clip-rule:evenodd;fill:#FCE8CB;}
	.st5{fill:#F5978A;}
	.st6{fill:#87796F;}
	.st7{fill:#F16C7A;}
	.st8{fill:#68A8BC;}
	.st9{fill:#B9BC39;}
	.st10{fill:#CE4E61;}
	.st11{fill:#6B5B51;}
	.st12{fill:#CCAE8B;}
	.st13{fill-rule:evenodd;clip-rule:evenodd;fill:#F16C7A;}
</style>
<g>
	<g>
		<g>
			<path class="st1" d="M51.061,140.854c-0.974,11.564-13.024,13.389-13.024,13.389c10.347,0.487,12.925,14.059,12.925,14.059
				c0.221-9.677,13.321-14.202,13.321-14.202C54.469,153.513,51.061,140.854,51.061,140.854z"/>
		</g>
	</g>
	<g>
		<g>
			<path class="st0" d="M64.373,152.602c-8.605-0.515-11.833-12.024-11.864-12.141c-0.191-0.703-0.859-1.164-1.583-1.102
				c-0.725,0.066-1.298,0.642-1.359,1.367c-0.86,10.215-11.314,11.964-11.754,12.033c-0.763,0.115-1.313,0.79-1.273,1.56
				c0.04,0.77,0.657,1.384,1.428,1.421c9.028,0.425,11.498,12.718,11.522,12.842c0.137,0.711,0.759,1.217,1.472,1.217
				c0.042,0,0.084-0.001,0.126-0.005c0.764-0.064,1.357-0.693,1.374-1.46c0.195-8.508,12.192-12.777,12.313-12.819
				c0.675-0.235,1.092-0.914,0.994-1.623C65.67,153.186,65.087,152.646,64.373,152.602z M50.807,162.949
				c-1.356-3.131-3.709-6.908-7.587-8.877c2.931-1.405,6.409-3.913,8.202-8.273c1.551,3.071,4.199,6.88,8.334,8.723
				C56.748,156.162,52.833,158.927,50.807,162.949z"/>
		</g>
	</g>
	<g>
		<g>
			<path class="st1" d="M29.363,157.834c-0.689,8.179-9.213,9.471-9.213,9.471c7.318,0.344,9.142,9.944,9.142,9.944
				c0.156-6.844,9.422-10.045,9.422-10.045C31.773,166.788,29.363,157.834,29.363,157.834z"/>
		</g>
	</g>
	<g>
		<g>
			<path class="st0" d="M38.804,165.706c-5.766-0.345-7.972-8.186-7.994-8.265c-0.19-0.702-0.854-1.163-1.582-1.102
				c-0.726,0.065-1.299,0.642-1.36,1.368c-0.579,6.871-7.647,8.067-7.943,8.114c-0.763,0.115-1.313,0.79-1.273,1.56
				c0.04,0.77,0.657,1.384,1.428,1.421c6.035,0.284,7.724,8.644,7.739,8.726c0.135,0.713,0.759,1.22,1.473,1.22
				c0.041,0,0.083-0.001,0.125-0.005c0.765-0.063,1.358-0.694,1.376-1.461c0.13-5.71,8.331-8.634,8.412-8.662
				c0.676-0.234,1.094-0.913,0.996-1.622C40.103,166.29,39.519,165.749,38.804,165.706z M29.22,172.501
				c-0.924-1.885-2.34-3.947-4.447-5.28c1.855-1.041,3.697-2.63,4.871-4.917c1.057,1.874,2.654,3.955,4.941,5.224
				C32.734,168.629,30.596,170.269,29.22,172.501z"/>
		</g>
	</g>
	<g>
		<g>
			<path class="st1" d="M29.363,131.177c-0.689,8.179-9.213,9.471-9.213,9.471c7.318,0.344,9.142,9.944,9.142,9.944
				c0.156-6.845,9.422-10.045,9.422-10.045C31.773,140.131,29.363,131.177,29.363,131.177z"/>
		</g>
	</g>
	<g>
		<g>
			<path class="st0" d="M38.804,139.049c-5.766-0.345-7.972-8.185-7.994-8.265c-0.19-0.702-0.854-1.165-1.582-1.102
				c-0.726,0.065-1.299,0.642-1.36,1.368c-0.579,6.871-7.647,8.066-7.943,8.113c-0.763,0.115-1.313,0.79-1.273,1.561
				c0.04,0.77,0.657,1.384,1.427,1.421c6.036,0.284,7.724,8.644,7.74,8.726c0.135,0.713,0.759,1.22,1.473,1.22
				c0.041,0,0.083-0.002,0.125-0.005c0.765-0.064,1.358-0.694,1.376-1.461c0.13-5.709,8.331-8.634,8.412-8.662
				c0.676-0.234,1.094-0.913,0.996-1.622C40.103,139.633,39.519,139.092,38.804,139.049z M29.22,145.844
				c-0.924-1.885-2.34-3.947-4.447-5.28c1.855-1.041,3.697-2.63,4.871-4.917c1.057,1.874,2.654,3.955,4.941,5.224
				C32.734,141.972,30.596,143.611,29.22,145.844z"/>
		</g>
	</g>
	<g>
		<g>
			<path class="st6" d="M231.16,69.417c-4.07-5.09-10.14-8-16.65-8h-23.96l-2.41,14h26.37c2.23,0,4.32,1,5.72,2.75
				c1.4,1.75,1.92,4,1.43,6.19l-13.75,61.49c-0.75,3.38-3.7,5.74-7.16,5.74h-7.18c-3.87,0-7,3.13-7,7c0,3.86,3.13,7,7,7h7.18
				c10.06,0,18.63-6.86,20.82-16.68l13.76-61.5C236.75,81.057,235.23,74.497,231.16,69.417z"/>
		</g>
	</g>
	<g>
		<g>
			<path class="st0" d="M232.331,68.479c-4.352-5.442-10.848-8.563-17.822-8.563h-23.96c-0.731,0-1.354,0.526-1.478,1.246l-2.41,14
				c-0.075,0.436,0.046,0.883,0.331,1.221c0.285,0.338,0.705,0.534,1.147,0.534h26.37c1.779,0,3.437,0.797,4.549,2.187
				c1.112,1.39,1.527,3.186,1.138,4.926l-13.75,61.493c-0.597,2.688-2.939,4.565-5.696,4.565h-7.18c-4.687,0-8.5,3.813-8.5,8.5
				c0,4.687,3.813,8.5,8.5,8.5h7.18c10.776,0,19.939-7.342,22.284-17.853l13.76-61.5c0,0,0,0,0,0
				C238.314,80.935,236.688,73.917,232.331,68.479z M233.866,87.08L233.866,87.08l-13.76,61.5
				c-2.036,9.13-9.996,15.507-19.356,15.507h-7.18c-3.033,0-5.5-2.467-5.5-5.5c0-3.033,2.467-5.5,5.5-5.5h7.18
				c4.174,0,7.721-2.844,8.624-6.913l13.75-61.49c0.589-2.632-0.039-5.35-1.723-7.454c-1.684-2.106-4.196-3.313-6.892-3.313H189.92
				l1.893-11h22.696c6.058,0,11.699,2.711,15.48,7.438C233.774,75.078,235.186,81.174,233.866,87.08z"/>
		</g>
	</g>
	<g>
		<g>
			<polygon class="st6" points="58.222,55.417 27.732,55.407 64.572,91.257 			"/>
		</g>
	</g>
	<g>
		<g>
			<path class="st0" d="M66.049,90.995l-6.35-35.84c-0.127-0.716-0.749-1.238-1.477-1.238l-30.49-0.01h-0.001
				c-0.61,0-1.16,0.37-1.39,0.935c-0.23,0.566-0.094,1.214,0.344,1.64l36.84,35.85c0.287,0.279,0.664,0.425,1.046,0.425
				c0.239,0,0.48-0.057,0.702-0.174C65.85,92.277,66.163,91.636,66.049,90.995z M31.426,56.908l25.539,0.008l5.319,30.021
				L31.426,56.908z"/>
		</g>
	</g>
	<g>
		<g>
			<path class="st7" d="M169.274,41.917H80.53c-11.366,0-20.846,5.829-22.292,13.5h133.328
				C190.121,47.746,180.64,41.917,169.274,41.917z"/>
		</g>
	</g>
	<g>
		<g>
			<path class="st0" d="M193.04,55.139c-1.581-8.393-11.798-14.722-23.766-14.722h-65.627c-0.829,0-1.5,0.671-1.5,1.5
				c0,0.829,0.671,1.5,1.5,1.5h65.627c9.635,0,17.936,4.403,20.307,10.5H60.223c2.371-6.097,10.672-10.5,20.308-10.5H88.6
				c0.829,0,1.5-0.671,1.5-1.5c0-0.829-0.671-1.5-1.5-1.5H80.53c-11.967,0-22.185,6.329-23.766,14.722
				c-0.083,0.439,0.035,0.892,0.319,1.235c0.285,0.344,0.708,0.543,1.155,0.543h133.328c0.446,0,0.87-0.199,1.155-0.543
				C193.005,56.03,193.123,55.578,193.04,55.139z"/>
		</g>
	</g>
	<g>
		<g>
			<path class="st6" d="M132.407,16.417H117.45c-2.782,0-4.791,2.661-4.031,5.336l5.733,20.164h11.75l5.545-20.2
				C137.18,19.049,135.172,16.417,132.407,16.417z"/>
		</g>
	</g>
	<g>
		<g>
			<path class="st0" d="M136.932,17.157c-1.085-1.424-2.735-2.24-4.525-2.24H117.45c-1.8,0-3.455,0.824-4.541,2.261
				c-1.085,1.437-1.425,3.254-0.933,4.986l5.733,20.164c0.184,0.645,0.772,1.09,1.443,1.09h11.75c0.675,0,1.268-0.452,1.446-1.103
				l5.545-20.2C138.368,20.387,138.017,18.581,136.932,17.157z M135.001,21.319l-5.242,19.097h-9.474l-5.423-19.074
				c-0.233-0.819-0.072-1.678,0.441-2.357c0.513-0.679,1.295-1.069,2.147-1.069h14.957c0.846,0,1.626,0.386,2.139,1.059
				C135.059,19.649,135.225,20.503,135.001,21.319z"/>
		</g>
	</g>
	<g>
		<g>
			<polygon class="st3" points="58.225,55.417 74.96,149.875 175.344,149.875 191.579,55.417 			"/>
		</g>
	</g>
	<g>
		<g>
			<path class="st0" d="M192.726,54.45c-0.285-0.338-0.705-0.533-1.147-0.533H58.225c-0.443,0-0.864,0.196-1.149,0.536
				c-0.285,0.34-0.405,0.789-0.328,1.226l16.735,94.458c0.127,0.716,0.749,1.238,1.477,1.238h100.384
				c0.73,0,1.354-0.526,1.478-1.246l16.235-94.458C193.132,55.235,193.011,54.788,192.726,54.45z M174.08,148.375H76.218
				L60.014,56.917h129.785L174.08,148.375z"/>
		</g>
	</g>
	<g>
		<g>
			<polygon class="st3" points="100.433,55.417 106.574,149.875 143.413,149.875 149.372,55.417 			"/>
		</g>
	</g>
	<g>
		<g>
			<path class="st0" d="M150.465,54.39c-0.284-0.302-0.68-0.473-1.094-0.473h-48.939c-0.414,0-0.811,0.172-1.095,0.474
				c-0.283,0.303-0.429,0.71-0.402,1.123l6.142,94.458c0.052,0.789,0.707,1.403,1.497,1.403h36.839c0.792,0,1.447-0.615,1.497-1.406
				l5.958-94.458C150.894,55.098,150.748,54.692,150.465,54.39z M142.005,148.375H107.98l-5.947-91.458h45.741L142.005,148.375z"/>
		</g>
	</g>
	<g>
		<g>
			<path class="st3" d="M189.781,231.7l-14.437-63.283H74.96l-5.909,25.128l-3.572,15.189l-5.391,22.924
				c-0.952,4.048,2.12,7.925,6.278,7.925h117.127C187.634,239.583,190.702,235.737,189.781,231.7z"/>
		</g>
	</g>
	<g>
		<g>
			<path class="st0" d="M191.243,231.366l-14.437-63.283c-0.156-0.683-0.763-1.167-1.462-1.167H74.96
				c-0.696,0-1.301,0.479-1.46,1.157l-5.909,25.128c-0.19,0.806,0.31,1.614,1.117,1.803c0.803,0.192,1.614-0.31,1.803-1.117
				l5.637-23.972h98l14.171,62.117c0.337,1.477-0.012,3.003-0.956,4.187c-0.944,1.184-2.354,1.863-3.869,1.863H66.367
				c-1.521,0-2.935-0.684-3.879-1.876c-0.945-1.192-1.287-2.726-0.939-4.206l5.391-22.924c0.19-0.806-0.31-1.614-1.117-1.803
				c-0.803-0.191-1.614,0.31-1.803,1.117l-5.391,22.924c-0.56,2.378-0.01,4.84,1.507,6.755c1.517,1.916,3.788,3.014,6.231,3.014
				h117.126c2.433,0,4.698-1.091,6.214-2.993C191.225,236.189,191.784,233.738,191.243,231.366z"/>
		</g>
	</g>
	<g>
		<g>
			<polygon class="st3" points="143.185,168.417 106.8,168.417 100.734,239.583 149.07,239.583 			"/>
		</g>
	</g>
	<g>
		<g>
			<path class="st0" d="M144.681,168.293c-0.064-0.778-0.715-1.376-1.495-1.376H106.8c-0.779,0-1.428,0.596-1.495,1.373
				l-6.065,71.167c-0.036,0.418,0.106,0.833,0.39,1.142c0.284,0.309,0.685,0.485,1.105,0.485h48.336
				c0.419,0,0.819-0.175,1.103-0.484c0.284-0.309,0.426-0.722,0.392-1.14L144.681,168.293z M102.368,238.083l5.81-68.167h33.628
				l5.637,68.167H102.368z"/>
		</g>
	</g>
	<g>
		<g>
			<rect x="74.985" y="149.875" class="st1" width="100.417" height="18.542"/>
		</g>
	</g>
	<g>
		<g>
			<path class="st0" d="M175.402,148.375H74.985c-0.829,0-1.5,0.671-1.5,1.5v18.542c0,0.829,0.671,1.5,1.5,1.5h100.417
				c0.829,0,1.5-0.671,1.5-1.5v-18.542C176.902,149.046,176.231,148.375,175.402,148.375z M173.902,166.917H76.485v-15.542h97.417
				V166.917z"/>
		</g>
	</g>
	<g>
		<g>
			<path class="st10" d="M169.27,43.417h-13.36c9.63,0,17.93,4.4,20.3,10.5h13.37C187.21,47.817,178.91,43.417,169.27,43.417z"/>
		</g>
	</g>
	<g>
		<g>
			<polygon class="st8" points="176.43,56.917 160.71,148.377 174.08,148.377 189.8,56.917 			"/>
		</g>
	</g>
	<g>
		<g>
			<path class="st8" d="M188.32,232.037l-14.17-62.12h-13.37l14.17,62.12c0.34,1.47-0.01,3-0.96,4.18
				c-0.94,1.19-2.35,1.87-3.87,1.87h13.37c1.52,0,2.93-0.68,3.87-1.87C188.31,235.037,188.66,233.507,188.32,232.037z"/>
		</g>
	</g>
	<g>
		<g>
			<rect x="160.53" y="151.377" class="st9" width="13.37" height="15.54"/>
		</g>
	</g>
</g>
</svg>
