<?xml version="1.0" encoding="utf-8"?>
<!-- Generator: Adobe Illustrator 22.0.1, SVG Export Plug-In . SVG Version: 6.00 Build 0)  -->
<svg version="1.1" id="Layer_2" xmlns="http://www.w3.org/2000/svg" xmlns:xlink="http://www.w3.org/1999/xlink" x="0px" y="0px"
	 viewBox="0 0 256 256" style="enable-background:new 0 0 256 256;" xml:space="preserve">
<style type="text/css">
	.st0{fill:#3A312A;}
	.st1{fill:#D7E057;}
	.st2{fill:#FCE8CB;}
	.st3{fill:#8AC6DD;}
	.st4{fill-rule:evenodd;clip-rule:evenodd;fill:#FCE8CB;}
	.st5{fill:#F5978A;}
	.st6{fill:#87796F;}
	.st7{fill:#F16C7A;}
	.st8{fill:#68A8BC;}
	.st9{fill:#B9BC39;}
	.st10{fill:#CE4E61;}
	.st11{fill:#6B5B51;}
	.st12{fill:#CCAE8B;}
	.st13{fill-rule:evenodd;clip-rule:evenodd;fill:#F16C7A;}
</style>
<g>
	<g>
		<g>
			<path class="st1" d="M47.39,26.229c-0.974,11.564-13.024,13.39-13.024,13.39C44.712,40.106,47.29,53.678,47.29,53.678
				c0.221-9.677,13.321-14.202,13.321-14.202C50.798,38.889,47.39,26.229,47.39,26.229z"/>
		</g>
	</g>
	<g>
		<g>
			<path class="st0" d="M60.701,37.979c-8.605-0.515-11.832-12.024-11.864-12.141c-0.191-0.703-0.863-1.168-1.583-1.102
				c-0.725,0.066-1.298,0.642-1.359,1.367c-0.86,10.215-11.314,11.964-11.754,12.032c-0.763,0.116-1.313,0.791-1.273,1.561
				c0.04,0.771,0.657,1.385,1.427,1.421c9.028,0.426,11.499,12.719,11.523,12.844c0.137,0.711,0.759,1.217,1.472,1.217
				c0.042,0,0.084-0.002,0.126-0.005c0.764-0.064,1.357-0.693,1.375-1.46c0.195-8.51,12.192-12.778,12.313-12.82
				c0.675-0.234,1.092-0.914,0.994-1.622C61.999,38.562,61.415,38.021,60.701,37.979z M47.135,48.325
				c-1.357-3.131-3.708-6.908-7.587-8.877c2.931-1.405,6.409-3.913,8.202-8.273c1.551,3.071,4.2,6.88,8.334,8.723
				C53.077,41.537,49.162,44.304,47.135,48.325z"/>
		</g>
	</g>
	<g>
		<g>
			<path class="st1" d="M25.691,43.21c-0.689,8.179-9.212,9.471-9.212,9.471c7.318,0.344,9.142,9.944,9.142,9.944
				c0.156-6.845,9.422-10.045,9.422-10.045C28.102,52.164,25.691,43.21,25.691,43.21z"/>
		</g>
	</g>
	<g>
		<g>
			<path class="st0" d="M35.132,51.082c-5.766-0.345-7.972-8.186-7.994-8.265c-0.191-0.702-0.853-1.163-1.582-1.102
				c-0.725,0.065-1.299,0.643-1.36,1.368c-0.579,6.871-7.646,8.066-7.942,8.113c-0.763,0.116-1.313,0.791-1.273,1.561
				c0.04,0.771,0.657,1.385,1.427,1.421c6.036,0.284,7.724,8.645,7.739,8.727c0.135,0.712,0.759,1.22,1.472,1.22
				c0.042,0,0.083-0.002,0.125-0.005c0.765-0.063,1.358-0.693,1.376-1.461c0.131-5.709,8.332-8.634,8.413-8.662
				c0.677-0.234,1.094-0.913,0.996-1.622C36.432,51.666,35.847,51.124,35.132,51.082z M25.548,57.877
				c-0.924-1.885-2.34-3.947-4.447-5.279c1.855-1.041,3.697-2.63,4.871-4.917c1.057,1.874,2.654,3.955,4.941,5.224
				C29.063,54.005,26.924,55.645,25.548,57.877z"/>
		</g>
	</g>
	<g>
		<g>
			<path class="st1" d="M25.691,16.553c-0.689,8.179-9.212,9.471-9.212,9.471c7.318,0.344,9.142,9.944,9.142,9.944
				c0.156-6.844,9.422-10.045,9.422-10.045C28.102,25.507,25.691,16.553,25.691,16.553z"/>
		</g>
	</g>
	<g>
		<g>
			<path class="st0" d="M35.132,24.425c-5.766-0.345-7.972-8.186-7.994-8.265c-0.191-0.701-0.853-1.172-1.582-1.102
				c-0.725,0.065-1.299,0.643-1.36,1.368c-0.579,6.87-7.646,8.066-7.942,8.113c-0.763,0.116-1.313,0.791-1.273,1.561
				c0.04,0.771,0.657,1.385,1.427,1.421c6.036,0.284,7.724,8.645,7.739,8.727c0.135,0.713,0.759,1.22,1.473,1.22
				c0.041,0,0.083-0.002,0.125-0.005c0.765-0.063,1.358-0.693,1.376-1.461c0.131-5.709,8.332-8.634,8.413-8.662
				c0.677-0.234,1.094-0.913,0.996-1.622C36.432,25.009,35.847,24.467,35.132,24.425z M25.548,31.22
				c-0.924-1.886-2.34-3.947-4.447-5.279c1.856-1.042,3.697-2.63,4.871-4.917c1.057,1.874,2.654,3.955,4.941,5.224
				C29.063,27.348,26.924,28.987,25.548,31.22z"/>
		</g>
	</g>
	<g>
		<g>
			<circle class="st1" cx="207.529" cy="48.554" r="20.547"/>
		</g>
	</g>
	<g>
		<g>
			<path class="st0" d="M207.528,26.508c-12.156,0-22.046,9.891-22.046,22.047s9.89,22.046,22.046,22.046
				c12.157,0,22.047-9.89,22.047-22.046S219.685,26.508,207.528,26.508z M207.528,67.601c-10.502,0-19.046-8.544-19.046-19.046
				c0-10.503,8.544-19.047,19.046-19.047s19.047,8.544,19.047,19.047C226.575,59.057,218.031,67.601,207.528,67.601z"/>
		</g>
	</g>
	<g>
		<g>
			<path class="st0" d="M207.529,16.562c-0.804,0-1.456,0.652-1.456,1.456v2.958c0,0.804,0.652,1.456,1.456,1.456
				s1.456-0.652,1.456-1.456v-2.958C208.984,17.213,208.333,16.562,207.529,16.562z"/>
		</g>
	</g>
	<g>
		<g>
			<path class="st0" d="M207.529,74.677c-0.804,0-1.456,0.652-1.456,1.456v2.958c0,0.804,0.652,1.456,1.456,1.456
				s1.456-0.652,1.456-1.456v-2.958C208.984,75.329,208.333,74.677,207.529,74.677z"/>
		</g>
	</g>
	<g>
		<g>
			<path class="st0" d="M230.151,25.932c-0.569-0.569-1.49-0.569-2.059,0L226,28.024c-0.569,0.568-0.569,1.491,0,2.059
				c0.569,0.569,1.49,0.569,2.059,0l2.092-2.092C230.719,27.422,230.719,26.5,230.151,25.932z"/>
		</g>
	</g>
	<g>
		<g>
			<path class="st0" d="M189.057,67.025c-0.569-0.568-1.491-0.568-2.059,0l-2.092,2.092c-0.569,0.569-0.569,1.491,0,2.06
				c0.569,0.568,1.491,0.568,2.059,0l2.092-2.092C189.626,68.516,189.626,67.594,189.057,67.025z"/>
		</g>
	</g>
	<g>
		<g>
			<path class="st0" d="M238.065,47.098h-2.958c-0.804,0-1.456,0.652-1.456,1.456s0.652,1.456,1.456,1.456h2.958
				c0.804,0,1.456-0.652,1.456-1.456S238.869,47.098,238.065,47.098z"/>
		</g>
	</g>
	<g>
		<g>
			<path class="st0" d="M179.95,47.098h-2.958c-0.804,0-1.456,0.652-1.456,1.456s0.652,1.456,1.456,1.456h2.958
				c0.804,0,1.456-0.652,1.456-1.456S180.754,47.098,179.95,47.098z"/>
		</g>
	</g>
	<g>
		<g>
			<path class="st0" d="M230.151,69.117l-2.092-2.092c-0.569-0.569-1.491-0.569-2.059,0c-0.569,0.569-0.569,1.491,0,2.059
				l2.092,2.092c0.569,0.569,1.491,0.569,2.059,0C230.719,70.608,230.719,69.686,230.151,69.117z"/>
		</g>
	</g>
	<g>
		<g>
			<path class="st0" d="M189.057,28.024l-2.092-2.092c-0.569-0.569-1.491-0.569-2.059,0c-0.569,0.568-0.569,1.491,0,2.059
				l2.092,2.092c0.569,0.568,1.491,0.569,2.059,0S189.626,28.592,189.057,28.024z"/>
		</g>
	</g>
	<g>
		<g>
			<path class="st7" d="M182.03,90.859H64.771c-4.904,0-8.88,3.976-8.88,8.88v79.464c0,22.6,18.321,40.921,40.921,40.921h53.176
				c22.6,0,40.921-18.321,40.921-40.921V99.739C190.909,94.835,186.934,90.859,182.03,90.859z"/>
		</g>
	</g>
	<g>
		<g>
			<path class="st0" d="M182.03,89.359H64.771c-5.724,0-10.38,4.656-10.38,10.38v13.24c0,0.828,0.671,1.5,1.5,1.5
				c0.829,0,1.5-0.672,1.5-1.5v-13.24c0-4.069,3.311-7.38,7.38-7.38H182.03c4.069,0,7.379,3.311,7.379,7.38v79.464
				c0,21.736-17.684,39.421-39.421,39.421H96.813c-21.737,0-39.421-17.685-39.421-39.421V127.74c0-0.828-0.671-1.5-1.5-1.5
				c-0.829,0-1.5,0.672-1.5,1.5v51.463c0,23.391,19.03,42.421,42.421,42.421h53.176c23.391,0,42.421-19.03,42.421-42.421V99.739
				C192.409,94.016,187.753,89.359,182.03,89.359z"/>
		</g>
	</g>
	<g>
		<g>
			<path class="st6" d="M36.244,220.124c0,10.729,8.697,19.426,19.426,19.426h135.461c10.728,0,19.426-8.697,19.426-19.426H36.244z"
				/>
		</g>
	</g>
	<g>
		<g>
			<path class="st0" d="M210.557,218.624H36.244c-0.829,0-1.5,0.672-1.5,1.5c0,11.538,9.387,20.926,20.925,20.926h89.35
				c0.829,0,1.5-0.672,1.5-1.5s-0.671-1.5-1.5-1.5h-89.35c-9.379,0-17.099-7.24-17.863-16.426h171.188
				c-0.765,9.186-8.484,16.426-17.864,16.426h-31.85c-0.829,0-1.5,0.672-1.5,1.5s0.671,1.5,1.5,1.5h31.85
				c11.538,0,20.926-9.388,20.926-20.926C212.057,219.296,211.385,218.624,210.557,218.624z"/>
		</g>
	</g>
	<g>
		<g>
			<path class="st7" d="M192.18,109.235c-0.43,0-0.85,0.01-1.27,0.021v14.01c0.42-0.02,0.84-0.03,1.27-0.03
				c16.27,0,29.51,13.24,29.51,29.51c0,16.26-13.24,29.5-29.51,29.5c-0.46,0-0.92-0.01-1.38-0.04c-0.35,4.87-1.56,9.509-3.48,13.759
				c1.59,0.19,3.22,0.28,4.86,0.28c23.99,0,43.51-19.52,43.51-43.5C235.69,128.756,216.17,109.235,192.18,109.235z"/>
		</g>
	</g>
	<g>
		<g>
			<path class="st0" d="M192.18,107.735c-0.407,0-0.806,0.009-1.203,0.019l-0.102,0.002c-0.815,0.02-1.465,0.686-1.465,1.5v14.01
				c0,0.41,0.168,0.802,0.464,1.085c0.296,0.282,0.685,0.434,1.105,0.413c0.397-0.019,0.794-0.028,1.2-0.028
				c15.445,0,28.01,12.565,28.01,28.011c0,15.439-12.565,28-28.01,28c-0.428,0-0.857-0.01-1.285-0.037
				c-0.823-0.062-1.533,0.567-1.591,1.39c-0.331,4.603-1.458,9.061-3.351,13.25c-0.197,0.436-0.174,0.938,0.061,1.354
				c0.235,0.416,0.654,0.695,1.129,0.752c1.619,0.193,3.314,0.291,5.037,0.291c24.819,0,45.01-20.187,45.01-45
				C237.19,127.927,216.999,107.735,192.18,107.735z M192.18,194.746c-0.906,0-1.802-0.029-2.681-0.086
				c1.377-3.501,2.271-7.158,2.669-10.914c0.004,0,0.007,0,0.011,0c17.099,0,31.01-13.906,31.01-31
				c0-17.022-13.787-30.885-30.78-31.01v-11c23.059,0.123,41.78,18.921,41.78,42.01C234.19,175.905,215.345,194.746,192.18,194.746z
				"/>
		</g>
	</g>
	<g>
		<g>
			<path class="st0" d="M94.938,75.865c-2.365-2.364-3.66-5.508-3.648-8.852c0.012-3.345,1.331-6.479,3.713-8.827
				c2.941-2.897,4.577-6.767,4.607-10.895c0.03-4.129-1.549-8.021-4.447-10.962l-0.435-0.441c-4.786-4.856-4.757-12.729,0.064-17.55
				l0.07-0.07c0.586-0.586,0.551-1.5-0.035-2.086c-0.585-0.586-1.57-0.551-2.156,0.035c-5.982,5.982-6.018,15.751-0.08,21.776
				l0.435,0.441c2.336,2.37,3.608,5.507,3.583,8.834c-0.024,3.327-1.343,6.445-3.713,8.78c-2.956,2.913-4.593,6.803-4.608,10.952
				c-0.015,4.149,1.593,8.051,4.526,10.983l0.246,0.246c0.293,0.294,0.677,0.44,1.061,0.44c0.383,0,0.767-0.146,1.06-0.438
				c0.586-0.585,0.587-1.535,0.002-2.121L94.938,75.865z"/>
		</g>
	</g>
	<g>
		<g>
			<path class="st0" d="M115.066,75.865c-2.365-2.364-3.66-5.508-3.648-8.852c0.012-3.345,1.331-6.479,3.713-8.827
				c2.941-2.897,4.577-6.767,4.607-10.895c0.03-4.129-1.549-8.021-4.447-10.962l-0.435-0.441
				c-4.786-4.856-4.757-12.729,0.061-17.546l0.071-0.07c0.588-0.584,0.591-1.533,0.007-2.121c-0.584-0.59-1.534-0.59-2.122-0.008
				c-0.001,0.001-0.073,0.073-0.074,0.074c-5.982,5.982-6.018,15.751-0.08,21.776l0.435,0.441c2.335,2.37,3.608,5.507,3.583,8.834
				c-0.024,3.327-1.343,6.445-3.713,8.78c-2.956,2.913-4.593,6.803-4.608,10.952c-0.015,4.149,1.593,8.051,4.526,10.983l0.246,0.246
				c0.293,0.294,0.677,0.44,1.061,0.44c0.383,0,0.767-0.146,1.06-0.438c0.586-0.585,0.587-1.535,0.002-2.121L115.066,75.865z"/>
		</g>
	</g>
	<g>
		<g>
			<path class="st0" d="M133.854,75.865c-2.364-2.364-3.66-5.509-3.648-8.853c0.012-3.345,1.331-6.479,3.713-8.826
				c2.941-2.897,4.577-6.767,4.607-10.895c0.03-4.129-1.549-8.021-4.447-10.962l-0.435-0.441c-4.785-4.855-4.757-12.729,0.064-17.55
				l0.07-0.07l-1.061-1.061l-1.131-0.99c-5.982,5.982-6.018,15.751-0.08,21.776l0.435,0.441c2.336,2.37,3.608,5.507,3.583,8.834
				c-0.024,3.327-1.343,6.445-3.713,8.78c-2.956,2.912-4.592,6.802-4.608,10.952c-0.016,4.149,1.592,8.051,4.525,10.983l0.246,0.246
				c0.293,0.294,0.677,0.44,1.062,0.44c0.383,0,0.767-0.146,1.06-0.438c0.586-0.585,0.587-1.535,0.002-2.121L133.854,75.865z"/>
		</g>
	</g>
	<g>
		<g>
			<path class="st0" d="M153.982,75.865c-2.365-2.364-3.66-5.508-3.648-8.852c0.012-3.345,1.331-6.479,3.713-8.827
				c2.941-2.897,4.577-6.767,4.607-10.895c0.03-4.129-1.549-8.021-4.447-10.962l-0.435-0.441
				c-4.786-4.856-4.757-12.729,0.061-17.546l0.071-0.07c0.588-0.584,0.591-1.533,0.007-2.121c-0.585-0.59-1.534-0.59-2.122-0.008
				c-0.001,0.001-0.073,0.073-0.074,0.074c-5.982,5.982-6.018,15.751-0.08,21.776l0.435,0.441c2.335,2.37,3.608,5.507,3.583,8.834
				c-0.024,3.327-1.343,6.445-3.713,8.78c-2.956,2.913-4.593,6.803-4.608,10.952c-0.015,4.149,1.593,8.051,4.526,10.983l0.246,0.246
				c0.293,0.294,0.677,0.44,1.061,0.44c0.383,0,0.767-0.146,1.06-0.438c0.586-0.585,0.587-1.535,0.002-2.121L153.982,75.865z"/>
		</g>
	</g>
	<g>
		<g>
			<path class="st10" d="M182.03,92.359h-13.69c4.07,0,7.38,3.311,7.38,7.38v79.46c0,1.221-0.06,2.431-0.17,3.62
				c-0.02,0.21-0.04,0.42-0.06,0.62c-0.06,0.521-0.12,1.03-0.2,1.54c-0.01,0.09-0.02,0.18-0.03,0.28c-0.3,1.93-0.74,3.81-1.31,5.63
				c-0.01,0.03-0.01,0.05-0.02,0.07c-0.18,0.569-0.37,1.13-0.57,1.68c-0.03,0.09-0.07,0.19-0.1,0.28
				c-0.18,0.479-0.37,0.95-0.56,1.42c-0.06,0.14-0.12,0.27-0.18,0.41c-6.05,14.029-20,23.87-36.22,23.87h13.69
				c16.22,0,30.17-9.84,36.22-23.87c0.06-0.141,0.12-0.271,0.17-0.41c0.2-0.47,0.39-0.94,0.56-1.42c0.04-0.09,0.07-0.19,0.11-0.28
				c0.2-0.55,0.39-1.11,0.57-1.68c0-0.021,0.01-0.04,0.02-0.07c0.57-1.82,1-3.7,1.3-5.63c0.02-0.1,0.03-0.19,0.04-0.28
				c0.08-0.51,0.14-1.02,0.2-1.54c0.02-0.2,0.04-0.41,0.06-0.62c0.11-1.189,0.17-2.399,0.17-3.62v-79.46
				C189.41,95.67,186.1,92.359,182.03,92.359z"/>
		</g>
	</g>
	<g>
		<g>
			<path class="st11" d="M193.294,221.621c0,0.001,0,0.002,0,0.003c-0.761,9.179-8.464,16.41-17.829,16.426
				c-0.01,0-0.02,0.001-0.03,0.001h15.7c9.38,0,17.1-7.24,17.86-16.43H193.294z"/>
		</g>
	</g>
	<g>
		<g>
			<circle class="st2" cx="122.918" cy="155.432" r="46.321"/>
		</g>
	</g>
	<g>
		<g>
			<path class="st0" d="M122.918,107.611c-26.369,0-47.821,21.452-47.821,47.821s21.453,47.821,47.821,47.821
				c26.369,0,47.821-21.452,47.821-47.821S149.287,107.611,122.918,107.611z M122.918,200.254
				c-24.714,0-44.821-20.106-44.821-44.821s20.107-44.821,44.821-44.821c24.714,0,44.821,20.106,44.821,44.821
				S147.632,200.254,122.918,200.254z"/>
		</g>
	</g>
	<g>
		<g>
			<path class="st6" d="M122.918,126.198c-10.217,0-18.5,13.142-18.5,29.354s8.283,29.353,18.5,29.353s18.5-13.142,18.5-29.353
				S133.135,126.198,122.918,126.198z"/>
		</g>
	</g>
	<g>
		<g>
			<path class="st0" d="M122.918,124.698c-11.028,0-20,13.841-20,30.853c0,17.013,8.972,30.854,20,30.854
				c11.028,0,20-13.841,20-30.854C142.918,138.539,133.946,124.698,122.918,124.698z M122.918,183.404c-9.374,0-17-12.495-17-27.854
				s7.626-27.853,17-27.853c9.374,0,17,12.494,17,27.853S132.292,183.404,122.918,183.404z"/>
		</g>
	</g>
	<g>
		<g>
			<path class="st0" d="M124.412,154.785l-0.753-0.648c-4.166-3.585-6.451-8.31-6.433-13.305c0.018-5.004,2.344-9.724,6.554-13.294
				l0.122-0.104c0.629-0.539,0.703-1.485,0.164-2.115c-0.54-0.63-1.486-0.703-2.115-0.164l-0.117,0.1
				c-4.885,4.143-7.587,9.672-7.608,15.567c-0.021,5.887,2.634,11.423,7.476,15.589l0.753,0.648
				c4.184,3.601,6.469,8.347,6.432,13.363c-0.037,5.035-2.404,9.77-6.667,13.331c-0.636,0.531-0.72,1.478-0.189,2.113
				c0.296,0.354,0.723,0.538,1.152,0.538c0.339,0,0.68-0.114,0.961-0.349c4.95-4.136,7.7-9.681,7.743-15.611
				C131.93,164.531,129.275,158.97,124.412,154.785z"/>
		</g>
	</g>
	<g>
		<g>
			<path class="st9" d="M207.524,29.511c-1.06,0-2.1,0.09-3.12,0.26c9.03,1.49,15.92,9.35,15.92,18.78c0,9.44-6.89,17.3-15.92,18.79
				c1.02,0.17,2.06,0.26,3.12,0.26c10.51,0,19.05-8.54,19.05-19.05C226.574,38.051,218.034,29.511,207.524,29.511z"/>
		</g>
	</g>
</g>
</svg>
