<svg fill="#000000" xmlns="http://www.w3.org/2000/svg"  viewBox="0 0 48 48" width="24px" height="24px"><path d="M 23.867188 2.9902344 C 22.378049 3.0003014 21.072142 4.031626 20.710938 5.4746094 A 1.50015 1.50015 0 0 0 20.673828 5.6894531 L 20.115234 11.283203 C 18.326452 11.879516 17 13.522337 17 15.5 C 17 15.924265 17.104137 16.322945 17.246094 16.701172 C 15.931636 17.490764 15 18.869178 15 20.5 L 15 25.5 L 15 35.5 L 15 40.5 C 15 42.967501 17.032499 45 19.5 45 L 28.5 45 C 30.967501 45 33 42.967501 33 40.5 L 33 20.5 C 33 18.869178 32.068364 17.490764 30.753906 16.701172 C 30.895863 16.322945 31 15.924265 31 15.5 C 31 13.509858 29.655782 11.86144 27.849609 11.275391 L 27.087891 5.5878906 A 1.50015 1.50015 0 0 0 27.046875 5.3789062 C 26.648745 3.9643537 25.337414 2.9801008 23.869141 2.9902344 L 23.867188 2.9902344 z M 23.888672 5.9902344 A 1.50015 1.50015 0 0 0 23.890625 5.9902344 C 24.013344 5.989314 24.099594 6.0689004 24.140625 6.1816406 L 25.013672 12.699219 A 1.50015 1.50015 0 0 0 26.5 14 C 27.346499 14 28 14.653501 28 15.5 C 28 15.795045 27.795045 16 27.5 16 L 20.5 16 C 20.204955 16 20 15.795045 20 15.5 C 20 14.653501 20.653501 14 21.5 14 A 1.50015 1.50015 0 0 0 22.992188 12.648438 L 23.638672 6.1894531 C 23.677522 6.073797 23.765214 5.9909955 23.888672 5.9902344 z M 19.5 19 L 20.5 19 L 27.5 19 L 28.5 19 C 29.346499 19 30 19.653501 30 20.5 L 30 40.5 C 30 41.346499 29.346499 42 28.5 42 L 19.5 42 C 18.653501 42 18 41.346499 18 40.5 L 18 37 L 21.5 37 C 23.414955 37 25 35.414955 25 33.5 L 25 27.5 C 25 25.585045 23.414955 24 21.5 24 L 18 24 L 18 20.5 C 18 19.653501 18.653501 19 19.5 19 z M 18 27 L 21.5 27 C 21.795045 27 22 27.204955 22 27.5 L 22 33.5 C 22 33.795045 21.795045 34 21.5 34 L 18 34 L 18 27 z"/></svg>