<svg fill="#000000" xmlns="http://www.w3.org/2000/svg"  viewBox="0 0 48 48" width="24px" height="24px"><path d="M 20.5 1 C 19.136406 1 18 2.1364058 18 3.5 L 18 7.9238281 L 14.527344 12.865234 C 14.52643 12.866534 14.526391 12.867841 14.525391 12.869141 L 14.519531 12.876953 C 14.263676 13.235741 14.061395 13.59126 13.888672 13.927734 C 13.397306 14.887851 13.119552 15.934299 13.037109 17 L 13 17 L 13 17.632812 L 13 18.5 L 13 38 L 13 40.5 C 13 43.011807 15.150565 45 17.667969 45 L 30.333984 45 C 32.850825 45 35.001953 43.01241 35.001953 40.5 L 35.001953 19.5 L 35.001953 17.632812 C 35.001953 17.621694 35.000045 17.610726 35 17.599609 L 35 17 L 34.964844 17 C 34.882147 15.935324 34.603965 14.889041 34.113281 13.929688 L 34.113281 13.927734 C 33.940602 13.590378 33.738372 13.23477 33.482422 12.876953 L 33.472656 12.863281 L 30 7.921875 L 30 3.5 C 30 2.1364058 28.863594 1 27.5 1 L 20.5 1 z M 21 4 L 27 4 L 27 7 L 21 7 L 21 4 z M 20.208984 10 L 27.792969 10 L 31.033203 14.609375 L 31.037109 14.615234 C 31.185777 14.821919 31.310556 15.035352 31.443359 15.294922 C 31.715142 15.825979 31.890003 16.405119 31.962891 17 L 16.039062 17 C 16.11195 16.405119 16.286811 15.825979 16.558594 15.294922 C 16.691381 15.036435 16.815519 14.821608 16.964844 14.613281 L 16.96875 14.607422 L 20.208984 10 z M 16 20 L 32 20 L 32 35 L 16 35 L 16 20 z M 21.779297 24.009766 C 20.470922 24.113359 19.097594 25.044172 18.402344 26.638672 C 17.475344 28.764672 18.238453 31.089891 19.814453 31.712891 C 21.390453 32.335891 23.655031 31.215844 24.582031 29.089844 C 25.509031 26.964844 24.614109 24.8105 23.037109 24.1875 C 22.642859 24.032 22.215422 23.975234 21.779297 24.009766 z M 25.896484 24.019531 C 26.138484 24.355531 26.358437 24.712281 26.523438 25.113281 C 27.142437 26.614281 27.105016 28.311625 26.416016 29.890625 C 26.180016 30.432625 25.868766 30.929766 25.509766 31.384766 C 26.408766 31.885766 27.397031 32.032891 28.207031 31.712891 C 29.784031 31.090891 30.548094 28.763672 29.621094 26.638672 C 28.863094 24.901672 27.302484 23.969531 25.896484 24.019531 z M 21.064453 26.050781 C 21.589453 26.050781 22.015625 26.476953 22.015625 27.001953 C 22.015625 27.527953 21.589453 27.953125 21.064453 27.953125 C 20.539453 27.953125 20.113281 27.526953 20.113281 27.001953 C 20.113281 26.476953 20.539453 26.050781 21.064453 26.050781 z M 16 38 L 32.001953 38 L 32.001953 40.5 C 32.001953 41.30759 31.321144 42 30.333984 42 L 17.667969 42 C 16.679373 42 16 41.308193 16 40.5 L 16 38 z"/></svg>