<svg fill="#000000" xmlns="http://www.w3.org/2000/svg"  viewBox="0 0 48 48" width="24px" height="24px"><path d="M 23.5 1 C 21.032499 1 19 3.0324991 19 5.5 L 19 6 L 18.5 6 L 14.5 6 A 1.50015 1.50015 0 1 0 14.5 9 L 17 9 L 17 19.744141 C 17 20.824834 16.451375 21.822549 15.529297 22.4375 C 11.70066 24.991409 9.1123937 29.309522 9.0039062 34.167969 C 8.9293723 37.487511 9.9793795 40.578772 11.796875 43.058594 C 13.198736 44.971151 15.449189 45.998047 17.753906 45.998047 L 29.234375 45.998047 C 31.627759 45.998047 33.913278 44.870592 35.318359 42.898438 C 37.005676 40.530842 38 37.624064 38 34.5 C 38 31.616469 37.149448 28.927931 35.691406 26.667969 C 39.303056 25.835723 42 23.026548 42 19.5 C 42 15.375499 38.624501 12 34.5 12 C 32.812995 12 31.256666 12.571785 30 13.521484 L 30 9.5 C 30 8.1219163 29.173965 6.9240612 28 6.3554688 L 28 5.5 C 28 3.0324991 25.967501 1 23.5 1 z M 23.5 4 C 24.346499 4 25 4.6535009 25 5.5 L 25 6 L 22 6 L 22 5.5 C 22 4.6535009 22.653501 4 23.5 4 z M 20 9 L 20.253906 9 A 1.50015 1.50015 0 0 0 20.734375 9 L 26.253906 9 A 1.50015 1.50015 0 0 0 26.591797 9.0175781 C 26.83407 9.0574091 27 9.2383411 27 9.5 L 27 19.5 L 27 19.697266 C 27 21.347995 27.677008 22.860035 28.765625 24 L 18.291016 24 C 19.362337 22.863287 20 21.354306 20 19.744141 L 20 9 z M 34.5 15 C 37.003499 15 39 16.996501 39 19.5 C 39 21.90875 36.8285 24 33.5 24 L 33.480469 24 C 32.884284 23.434013 32.241972 22.915625 31.556641 22.457031 C 30.579361 21.803106 30 20.794137 30 19.697266 L 30 19.5 C 30 16.996501 31.996501 15 34.5 15 z M 14.865234 27 L 32.191406 27 C 33.934714 29.010278 35 31.619651 35 34.5 C 35 36.989936 34.213684 39.279799 32.875 41.158203 C 32.050081 42.316049 30.684991 42.998047 29.234375 42.998047 L 17.753906 42.998047 C 16.343158 42.998047 15.011043 42.367846 14.216797 41.285156 C 12.774292 39.316978 11.942487 36.882833 12.001953 34.234375 C 12.063111 31.49548 13.145173 28.967965 14.865234 27 z"/></svg>