<svg fill="#000000" xmlns="http://www.w3.org/2000/svg"  viewBox="0 0 48 48" width="24px" height="24px"><path d="M 12.429688 4 C 10.55318 4 9 5.5531809 9 7.4296875 L 9 12.570312 C 9 13.584444 9.4626312 14.493864 10.175781 15.125 C 9.442808 16.059769 9 17.230031 9 18.5 L 9 38.5 C 9 41.519774 11.480226 44 14.5 44 L 33.5 44 C 36.519774 44 39 41.519774 39 38.5 L 39 18.5 C 39 17.230031 38.557192 16.059769 37.824219 15.125 C 38.537369 14.493864 39 13.584444 39 12.570312 L 39 7.4296875 C 39 5.5531809 37.446819 4 35.570312 4 L 12.429688 4 z M 12.429688 7 L 15.5 7 L 15.5 10 L 18.5 10 L 18.5 7 L 22.5 7 L 22.5 10 L 25.5 10 L 25.5 7 L 29.5 7 L 29.5 10 L 32.5 10 L 32.5 7 L 35.570312 7 C 35.825806 7 36 7.1741941 36 7.4296875 L 36 12.570312 C 36 12.825807 35.825806 13 35.570312 13 L 12.429688 13 C 12.174193 13 12 12.825806 12 12.570312 L 12 7.4296875 C 12 7.1741941 12.174194 7 12.429688 7 z M 14.5 16 L 33.5 16 C 34.898226 16 36 17.101774 36 18.5 L 36 38.5 C 36 39.898226 34.898226 41 33.5 41 L 14.5 41 C 13.101774 41 12 39.898226 12 38.5 L 12 18.5 C 12 17.101774 13.101774 16 14.5 16 z M 26.740234 21.916016 C 25.644859 21.798141 24.507469 22.16 23.667969 23 C 23.198969 23.469 22.882797 24.03 22.716797 24.625 C 22.434797 25.634 21.688781 26.432172 20.675781 26.701172 C 19.795781 26.934172 18.984641 27.494625 18.431641 28.390625 C 17.703641 29.569625 17.706406 31.118969 18.441406 32.292969 C 19.786406 34.443969 22.655938 34.679 24.335938 33 C 24.804938 32.531 25.121109 31.97 25.287109 31.375 C 25.567109 30.366 26.313172 29.566828 27.326172 29.298828 C 28.206172 29.065828 29.017313 28.505375 29.570312 27.609375 C 30.298313 26.430375 30.2975 24.882031 29.5625 23.707031 C 28.8895 22.631531 27.835609 22.033891 26.740234 21.916016 z"/></svg>