<svg fill="#000000" xmlns="http://www.w3.org/2000/svg"  viewBox="0 0 48 48" width="24px" height="24px"><path d="M 22.5 4 C 18.928062 4 16 6.9280619 16 10.5 L 16 13.5 A 1.50015 1.50015 0 0 0 17 14.912109 L 17 16.6875 L 15.414062 18.730469 C 11.25672 24.081485 9 30.665332 9 37.441406 L 9 38.5 C 9 41.519774 11.480226 44 14.5 44 L 33.5 44 C 36.519774 44 39 41.519774 39 38.5 L 39 37.728516 C 39 31.414056 37.038808 25.25466 33.390625 20.101562 L 31 16.724609 L 31 14.912109 A 1.50015 1.50015 0 0 0 32 13.5 L 32 10.5 C 32 6.9280619 29.071938 4 25.5 4 L 22.5 4 z M 22.914062 7 L 25.087891 7 A 1.5 1.5 0 0 0 26.5 9 A 1.5 1.5 0 0 0 27.921875 7.9707031 C 28.585295 8.6055271 29 9.4971663 29 10.5 L 29 12 L 19 12 L 19 10.5 C 19 9.4981686 19.413922 8.6073692 20.076172 7.9726562 A 1.5 1.5 0 0 0 21.5 9 A 1.5 1.5 0 0 0 22.914062 7 z M 20 15 L 28 15 L 28 17.201172 A 1.50015 1.50015 0 0 0 28.275391 18.068359 L 29.642578 20 L 18.226562 20 L 19.685547 18.121094 A 1.50015 1.50015 0 0 0 20 17.201172 L 20 15 z M 16.214844 22.976562 A 1.50015 1.50015 0 0 0 16.5 23 L 31.5 23 A 1.50015 1.50015 0 0 0 31.636719 22.994141 C 34.440646 27.399601 36 32.487717 36 37.728516 L 36 38.5 C 36 39.898226 34.898226 41 33.5 41 L 14.5 41 C 13.101774 41 12 39.898226 12 38.5 L 12 37.441406 C 12 32.295612 13.519967 27.315785 16.214844 22.976562 z M 21.5 25 C 20.672 25 20 25.671 20 26.5 L 20 37.5 C 20 38.329 20.672 39 21.5 39 C 22.328 39 23 38.329 23 37.5 L 23 35 L 25 35 C 27.757 35 30 32.757 30 30 C 30 27.243 27.757 25 25 25 L 21.5 25 z M 23 28 L 25 28 C 26.103 28 27 28.897 27 30 C 27 31.103 26.103 32 25 32 L 23 32 L 23 28 z"/></svg>