<?xml version="1.0" encoding="utf-8"?>
<!-- Generator: Adobe Illustrator 22.0.1, SVG Export Plug-In . SVG Version: 6.00 Build 0)  -->
<svg version="1.1" id="Layer_2" xmlns="http://www.w3.org/2000/svg" xmlns:xlink="http://www.w3.org/1999/xlink" x="0px" y="0px"
	 viewBox="0 0 256 256" style="enable-background:new 0 0 256 256;" xml:space="preserve">
<style type="text/css">
	.st0{fill:#3A312A;}
	.st1{fill:#D7E057;}
	.st2{fill:#FCE8CB;}
	.st3{fill:#8AC6DD;}
	.st4{fill-rule:evenodd;clip-rule:evenodd;fill:#FCE8CB;}
	.st5{fill:#F5978A;}
	.st6{fill:#87796F;}
	.st7{fill:#F16C7A;}
	.st8{fill:#68A8BC;}
	.st9{fill:#B9BC39;}
	.st10{fill:#CE4E61;}
	.st11{fill:#6B5B51;}
	.st12{fill:#CCAE8B;}
	.st13{fill-rule:evenodd;clip-rule:evenodd;fill:#F16C7A;}
</style>
<g>
	<g>
		<g>
			<path class="st6" d="M223.081,62.557c-6.72-5.54-15.64-7.14-23.86-4.27l-17.06,5.96l1.03,14.47l20.65-7.21
				c3.61-1.26,7.38-0.59,10.33,1.85c2.95,2.44,4.32,6.01,3.77,9.79l-11.04,75.31c-0.77,5.23-5.16,9.07-10.44,9.14l-6.94,0.09
				l1,13.99l6.12-0.08c12.2-0.16,22.34-9.03,24.11-21.11l11.04-75.31C233.052,76.557,229.802,68.107,223.081,62.557z"/>
		</g>
	</g>
	<g>
		<g>
			<path class="st0" d="M224.036,61.399c-7.131-5.879-16.591-7.572-25.308-4.529l-17.06,5.96c-0.639,0.223-1.05,0.847-1.002,1.522
				l1.03,14.47c0.033,0.466,0.281,0.89,0.672,1.147c0.39,0.257,0.877,0.317,1.319,0.163l20.649-7.21
				c3.108-1.085,6.346-0.506,8.88,1.589c2.534,2.096,3.715,5.164,3.242,8.417l-11.039,75.31c-0.662,4.493-4.436,7.798-8.976,7.858
				l-6.94,0.09c-0.413,0.005-0.805,0.181-1.085,0.485c-0.279,0.304-0.421,0.71-0.392,1.122l1,13.99
				c0.056,0.786,0.71,1.393,1.496,1.393h0.02l6.12-0.08c12.942-0.17,23.698-9.587,25.575-22.392l11.04-75.31
				c0-0.001,0-0.001,0-0.001C234.612,76.251,231.158,67.282,224.036,61.399z M230.307,84.96v-0.001l-11.04,75.311
				c-1.661,11.338-11.185,19.677-22.645,19.827l-4.705,0.062l-0.786-10.992l5.35-0.069c6.021-0.08,11.027-4.463,11.904-10.422
				l11.04-75.312c0.628-4.315-0.938-8.383-4.298-11.162c-3.362-2.781-7.655-3.551-11.781-2.11l-18.798,6.563l-0.809-11.37
				l15.977-5.582c7.716-2.695,16.095-1.196,22.41,4.011C228.432,68.921,231.49,76.864,230.307,84.96z"/>
		</g>
	</g>
	<g>
		<g>
			<polygon class="st3" points="41.941,75.757 23.941,75.757 80.331,186.727 85.081,120.057 			"/>
		</g>
	</g>
	<g>
		<g>
			<path class="st0" d="M86.156,119.01l-43.14-44.3c-0.282-0.29-0.67-0.454-1.075-0.454h-18c-0.521,0-1.006,0.271-1.278,0.715
				c-0.273,0.445-0.295,0.999-0.059,1.464l56.39,110.97c0.259,0.51,0.781,0.82,1.337,0.82c0.099,0,0.198-0.01,0.298-0.03
				c0.661-0.134,1.151-0.691,1.199-1.364l4.75-66.67C86.608,119.736,86.455,119.317,86.156,119.01z M79.22,181.227L26.386,77.257
				h14.922l42.229,43.364L79.22,181.227z"/>
		</g>
	</g>
	<g>
		<g>
			<path class="st3" d="M193.42,222.481L181.627,56.817c-0.578-8.114-7.328-14.401-15.462-14.401h-61.126
				c-8.134,0-14.885,6.287-15.462,14.401l-1.338,18.789L87.137,91.08l-9.354,131.401c-0.639,8.972,6.468,16.602,15.462,16.602
				h84.712C186.952,239.083,194.058,231.453,193.42,222.481z"/>
		</g>
	</g>
	<g>
		<g>
			<path class="st0" d="M194.915,222.375L183.123,56.711c-0.63-8.857-8.079-15.794-16.958-15.794h-61.126
				c-8.879,0-16.328,6.938-16.958,15.794L86.743,75.5c-0.059,0.826,0.564,1.544,1.39,1.602c0.817,0.066,1.544-0.564,1.603-1.39
				l1.337-18.789c0.52-7.294,6.654-13.007,13.966-13.007h61.126c7.312,0,13.446,5.713,13.966,13.007l11.793,165.664
				c0.279,3.919-1.042,7.662-3.72,10.537c-2.678,2.875-6.316,4.459-10.246,4.459H93.246c-3.929,0-7.568-1.583-10.246-4.459
				c-2.678-2.875-3.999-6.617-3.72-10.537l9.354-131.401c0.059-0.826-0.564-1.544-1.39-1.603c-0.826-0.073-1.544,0.564-1.603,1.39
				l-9.354,131.401c-0.334,4.69,1.313,9.353,4.517,12.794c3.205,3.441,7.739,5.415,12.441,5.415h84.712
				c4.702,0,9.236-1.973,12.441-5.414C193.603,231.729,195.25,227.065,194.915,222.375z"/>
		</g>
	</g>
	<g>
		<g>
			<path class="st7" d="M166.164,42.417h-61.126c-7.829,0-14.359,5.829-15.354,13.5h91.835
				C180.523,48.246,173.993,42.417,166.164,42.417z"/>
		</g>
	</g>
	<g>
		<g>
			<path class="st0" d="M183.006,55.724c-1.095-8.441-8.336-14.807-16.841-14.807h-61.126c-8.506,0-15.747,6.366-16.842,14.807
				c-0.056,0.428,0.076,0.859,0.36,1.183c0.285,0.324,0.695,0.51,1.127,0.51h91.835c0.432,0,0.842-0.186,1.127-0.51
				C182.93,56.583,183.061,56.151,183.006,55.724z M91.498,54.417c1.572-6.092,7.118-10.5,13.54-10.5h61.126
				c6.422,0,11.968,4.408,13.539,10.5H91.498z"/>
		</g>
	</g>
	<g>
		<g>
			<path class="st6" d="M193.42,222.481l-2.105-29.565H79.888l-2.105,29.565c-0.639,8.972,6.468,16.602,15.462,16.602h84.712
				C186.952,239.083,194.058,231.453,193.42,222.481z"/>
		</g>
	</g>
	<g>
		<g>
			<path class="st0" d="M194.915,222.375l-2.104-29.565c-0.056-0.785-0.709-1.394-1.496-1.394h-39.302c-0.829,0-1.5,0.671-1.5,1.5
				s0.671,1.5,1.5,1.5h37.905l2.005,28.171c0.279,3.919-1.042,7.662-3.72,10.537c-2.678,2.875-6.316,4.459-10.246,4.459H93.246
				c-3.929,0-7.568-1.583-10.246-4.459c-2.678-2.875-3.999-6.617-3.72-10.537l2.005-28.171h55.907c0.829,0,1.5-0.671,1.5-1.5
				s-0.671-1.5-1.5-1.5H79.888c-0.787,0-1.44,0.608-1.496,1.394l-2.104,29.565c-0.334,4.69,1.313,9.353,4.517,12.794
				c3.205,3.441,7.739,5.415,12.441,5.415h84.712c4.702,0,9.236-1.973,12.441-5.414C193.603,231.729,195.25,227.065,194.915,222.375
				z"/>
		</g>
	</g>
	<g>
		<g>
			<path class="st6" d="M143.106,16.917h-14.957c-2.782,0-4.791,2.661-4.03,5.336l5.733,20.164h11.75l5.545-20.2
				C147.879,19.549,145.872,16.917,143.106,16.917z"/>
		</g>
	</g>
	<g>
		<g>
			<path class="st0" d="M147.631,17.657c-1.086-1.424-2.735-2.24-4.525-2.24h-14.957c-1.8,0-3.455,0.824-4.54,2.261
				c-1.086,1.437-1.425,3.254-0.933,4.986l5.733,20.164c0.184,0.645,0.773,1.09,1.443,1.09h11.75c0.675,0,1.268-0.452,1.446-1.103
				l5.545-20.2C149.067,20.887,148.716,19.081,147.631,17.657z M145.7,21.819l-5.242,19.097h-9.474l-5.423-19.074
				c-0.233-0.819-0.072-1.678,0.441-2.357c0.513-0.679,1.296-1.069,2.146-1.069h14.957c0.846,0,1.626,0.386,2.139,1.059
				C145.758,20.149,145.924,21.003,145.7,21.819z"/>
		</g>
	</g>
	<g>
		<g>
			<circle class="st7" cx="135.602" cy="215.083" r="7.5"/>
		</g>
	</g>
	<g>
		<g>
			<path class="st0" d="M135.602,206.083c-4.962,0-9,4.038-9,9s4.038,9,9,9c4.962,0,9-4.038,9-9S140.564,206.083,135.602,206.083z
				 M135.602,221.083c-3.309,0-6-2.691-6-6s2.691-6,6-6c3.309,0,6,2.691,6,6S138.91,221.083,135.602,221.083z"/>
		</g>
	</g>
	<g>
		<g>
			<path class="st1" d="M54.873,26.687c-0.974,11.564-13.024,13.39-13.024,13.39c10.347,0.487,12.925,14.059,12.925,14.059
				c0.221-9.677,13.321-14.202,13.321-14.202C58.281,39.346,54.873,26.687,54.873,26.687z"/>
		</g>
	</g>
	<g>
		<g>
			<path class="st0" d="M68.185,38.436c-8.605-0.515-11.832-12.024-11.864-12.141c-0.19-0.702-0.85-1.16-1.583-1.102
				c-0.725,0.067-1.298,0.642-1.359,1.367c-0.86,10.215-11.313,11.964-11.754,12.033c-0.763,0.115-1.313,0.79-1.273,1.561
				c0.04,0.77,0.657,1.384,1.428,1.421C50.806,42,53.276,54.294,53.3,54.417c0.137,0.711,0.759,1.217,1.472,1.217
				c0.042,0,0.084-0.002,0.126-0.005c0.764-0.064,1.357-0.693,1.375-1.459c0.195-8.509,12.192-12.777,12.313-12.819
				c0.675-0.235,1.092-0.914,0.994-1.623C69.482,39.02,68.898,38.479,68.185,38.436z M54.618,48.782
				c-1.356-3.13-3.709-6.907-7.587-8.876c2.931-1.405,6.409-3.913,8.202-8.273c1.551,3.071,4.2,6.88,8.334,8.722
				C60.56,41.995,56.644,44.761,54.618,48.782z"/>
		</g>
	</g>
	<g>
		<g>
			<path class="st1" d="M33.174,43.667c-0.689,8.179-9.212,9.471-9.212,9.471c7.318,0.344,9.142,9.944,9.142,9.944
				c0.156-6.844,9.422-10.045,9.422-10.045C35.585,52.622,33.174,43.667,33.174,43.667z"/>
		</g>
	</g>
	<g>
		<g>
			<path class="st0" d="M42.616,51.54c-5.766-0.345-7.973-8.186-7.994-8.265c-0.191-0.702-0.856-1.164-1.582-1.102
				c-0.726,0.066-1.299,0.643-1.36,1.368c-0.579,6.871-7.646,8.067-7.942,8.114c-0.763,0.115-1.313,0.79-1.273,1.56
				c0.04,0.77,0.657,1.384,1.428,1.421c6.035,0.284,7.724,8.644,7.739,8.726c0.135,0.712,0.759,1.22,1.473,1.22
				c0.041,0,0.083-0.001,0.124-0.005c0.765-0.063,1.358-0.694,1.376-1.461c0.13-5.709,8.331-8.633,8.412-8.661
				c0.676-0.234,1.094-0.913,0.996-1.622C43.915,52.124,43.33,51.583,42.616,51.54z M33.031,58.335
				c-0.924-1.886-2.34-3.947-4.447-5.28c1.856-1.041,3.697-2.63,4.871-4.916c1.057,1.873,2.654,3.954,4.941,5.223
				C36.546,54.462,34.407,56.102,33.031,58.335z"/>
		</g>
	</g>
	<g>
		<g>
			<path class="st1" d="M33.174,17.01c-0.689,8.179-9.212,9.471-9.212,9.471c7.318,0.344,9.142,9.944,9.142,9.944
				c0.156-6.845,9.422-10.045,9.422-10.045C35.585,25.964,33.174,17.01,33.174,17.01z"/>
		</g>
	</g>
	<g>
		<g>
			<path class="st0" d="M42.616,24.882c-5.766-0.345-7.973-8.186-7.994-8.265c-0.191-0.702-0.856-1.165-1.582-1.102
				c-0.726,0.065-1.299,0.643-1.36,1.368c-0.579,6.871-7.646,8.067-7.942,8.114c-0.763,0.115-1.313,0.79-1.273,1.56
				c0.04,0.77,0.657,1.384,1.427,1.421c6.036,0.284,7.724,8.644,7.74,8.726c0.135,0.712,0.759,1.22,1.473,1.22
				c0.041,0,0.083-0.002,0.124-0.005c0.765-0.064,1.358-0.694,1.376-1.461c0.13-5.709,8.331-8.634,8.412-8.662
				c0.676-0.234,1.094-0.913,0.996-1.622C43.915,25.466,43.33,24.925,42.616,24.882z M33.031,31.677
				c-0.924-1.885-2.34-3.947-4.447-5.279c1.856-1.042,3.697-2.63,4.871-4.917c1.057,1.873,2.654,3.954,4.941,5.224
				C36.546,27.805,34.407,29.444,33.031,31.677z"/>
		</g>
	</g>
	<g>
		<g>
			<polygon class="st8" points="180.161,57.417 164.492,57.417 174.031,191.417 189.701,191.417 			"/>
		</g>
	</g>
	<g>
		<g>
			<path class="st10" d="M166.161,43.917h-15.67c6.42,0,11.97,4.41,13.54,10.5h15.67C178.131,48.327,172.581,43.917,166.161,43.917z
				"/>
		</g>
	</g>
	<g>
		<g>
			<path class="st11" d="M191.922,222.587l-2-28.17h-15.68l2.01,28.17c0.28,3.92-1.05,7.66-3.72,10.54
				c-2.68,2.87-6.32,4.46-10.25,4.46h15.68c3.93,0,7.56-1.59,10.24-4.46C190.881,230.247,192.201,226.507,191.922,222.587z"/>
		</g>
	</g>
</g>
</svg>
