<svg fill="#000000" xmlns="http://www.w3.org/2000/svg"  viewBox="0 0 48 48" width="24px" height="24px"><path d="M 15.814453 2.9375 C 14.595354 2.94279 13.465322 3.596681 12.851562 4.6503906 L 12.849609 4.6542969 C 12.848654 4.6559369 12.846603 4.6565531 12.845703 4.6582031 L 7.9824219 12.951172 L 7.9824219 12.953125 C 7.5094667 13.763905 7.377975 14.732311 7.6171875 15.640625 L 7.6230469 15.664062 L 13.849609 36.451172 C 14.121076 37.523402 14.960209 38.21309 15.9375 38.626953 L 15.9375 41.5625 C 15.9375 43.477455 17.522545 45.0625 19.4375 45.0625 L 28.5625 45.0625 C 30.477455 45.0625 32.0625 43.477455 32.0625 41.5625 L 32.0625 38.626953 C 33.040511 38.21284 33.880031 37.521978 34.150391 36.449219 L 34.132812 36.513672 L 40.375 15.664062 L 40.380859 15.640625 C 40.620072 14.732311 40.48858 13.763905 40.015625 12.953125 L 40.015625 12.951172 L 35.150391 4.6582031 C 34.538412 3.6005062 33.406264 2.9428006 32.183594 2.9375 L 32.179688 2.9375 L 15.818359 2.9375 L 15.814453 2.9375 z M 15.828125 5.9375 L 32.169922 5.9375 C 32.331252 5.9381994 32.474666 6.0218531 32.554688 6.1601562 L 32.556641 6.1640625 L 37.423828 14.464844 C 37.496528 14.589481 37.516559 14.735904 37.480469 14.875 L 31.248047 35.683594 L 31.240234 35.716797 C 31.187404 35.92641 31.015889 36.060783 30.796875 36.0625 L 17.203125 36.0625 C 16.98585 36.060794 16.81094 35.924683 16.757812 35.714844 L 16.75 35.683594 L 10.517578 14.876953 L 10.517578 14.875 C 10.481488 14.735904 10.501519 14.589481 10.574219 14.464844 L 15.441406 6.1640625 L 15.443359 6.1601562 C 15.522707 6.0229883 15.668551 5.9381928 15.828125 5.9375 z M 21.009766 12.636719 C 20.146583 12.597489 19.265432 12.971718 18.771484 13.783203 C 17.90856 15.200177 17.460506 16.847021 17.501953 18.535156 C 17.505753 20.634853 18.148997 22.563141 19.275391 24.027344 C 20.405078 25.495828 22.092517 26.517578 24 26.517578 C 25.907483 26.517578 27.594922 25.495828 28.724609 24.027344 C 29.851003 22.563141 30.494292 20.634853 30.498047 18.535156 C 30.538277 16.848394 30.09176 15.200704 29.228516 13.783203 A 1.50015 1.50015 0 0 0 29.226562 13.78125 C 28.427703 12.472061 26.634562 12.321806 25.523438 13.193359 C 25.053834 12.919452 24.540166 12.765625 24 12.765625 C 23.461569 12.765625 22.951202 12.923809 22.482422 13.195312 C 22.057691 12.860818 21.543332 12.660965 21.009766 12.636719 z M 21.037109 16.462891 L 22.660156 19.691406 A 1.50015 1.50015 0 0 0 25.339844 19.691406 L 26.962891 16.462891 C 27.198726 17.123099 27.518866 17.760677 27.5 18.476562 A 1.50015 1.50015 0 0 0 27.5 18.517578 C 27.5 20.00074 27.025766 21.315203 26.345703 22.199219 C 25.665643 23.083231 24.853517 23.517578 24 23.517578 C 23.146483 23.517578 22.33436 23.083235 21.654297 22.199219 C 20.974234 21.315203 20.5 20.00074 20.5 18.517578 A 1.50015 1.50015 0 0 0 20.5 18.476562 C 20.48065 17.76157 20.801114 17.123065 21.037109 16.462891 z M 18.9375 39.0625 L 29.0625 39.0625 L 29.0625 41.5625 C 29.0625 41.857545 28.857545 42.0625 28.5625 42.0625 L 19.4375 42.0625 C 19.142455 42.0625 18.9375 41.857545 18.9375 41.5625 L 18.9375 39.0625 z"/></svg>