<?xml version="1.0" encoding="utf-8"?>
<!-- Generator: Adobe Illustrator 22.0.1, SVG Export Plug-In . SVG Version: 6.00 Build 0)  -->
<svg version="1.1" id="Layer_2" xmlns="http://www.w3.org/2000/svg" xmlns:xlink="http://www.w3.org/1999/xlink" x="0px" y="0px"
	 viewBox="0 0 256 256" style="enable-background:new 0 0 256 256;" xml:space="preserve">
<style type="text/css">
	.st0{fill:#3A312A;}
	.st1{fill:#D7E057;}
	.st2{fill:#FCE8CB;}
	.st3{fill:#8AC6DD;}
	.st4{fill-rule:evenodd;clip-rule:evenodd;fill:#FCE8CB;}
	.st5{fill:#F5978A;}
	.st6{fill:#87796F;}
	.st7{fill:#F16C7A;}
	.st8{fill:#68A8BC;}
	.st9{fill:#B9BC39;}
	.st10{fill:#CE4E61;}
	.st11{fill:#6B5B51;}
	.st12{fill:#CCAE8B;}
	.st13{fill-rule:evenodd;clip-rule:evenodd;fill:#F16C7A;}
</style>
<g>
	<g>
		<g>
			<path class="st7" d="M217.53,71.588c-15.14-5.89-32.31-1.64-43.74,10.82c-1.36,1.48-2.68,2.91-3.97,4.28l2.75,15.92
				c3.44-3.51,7.03-7.31,10.8-11.41c7.78-8.49,19.34-11.43,29.44-7.49c8.75,3.4,13.77,10.95,13.77,20.72
				c0,11.6-7.52,30.89-19.17,49.15c-8.8,13.8-16.67,21.99-21.64,25.7l2.36,13.65c12.18-5.69,24.77-23.78,30.24-32.36
				c13.28-20.82,21.21-41.81,21.21-56.14C239.58,89.469,231.13,76.879,217.53,71.588z"/>
		</g>
	</g>
	<g>
		<g>
			<path class="st0" d="M218.074,70.19c-15.72-6.116-33.536-1.717-45.388,11.203c-1.356,1.476-2.672,2.901-3.957,4.267
				c-0.324,0.343-0.467,0.819-0.386,1.284l2.75,15.92c0.096,0.555,0.494,1.009,1.032,1.177c0.537,0.168,1.124,0.021,1.518-0.382
				c3.375-3.444,6.919-7.187,10.835-11.446c7.358-8.031,18.267-10.82,27.791-7.105c8.143,3.164,12.813,10.207,12.813,19.322
				c0,11.339-7.432,30.315-18.935,48.343c-10.353,16.235-18.326,23.105-21.273,25.305c-0.452,0.338-0.677,0.901-0.581,1.458
				l2.36,13.65c0.079,0.461,0.369,0.858,0.784,1.074c0.217,0.113,0.456,0.17,0.694,0.17c0.217,0,0.434-0.047,0.635-0.141
				c12.25-5.723,24.599-23.077,30.87-32.912c13.428-21.053,21.445-42.342,21.445-56.947C241.08,88.83,232.265,75.71,218.074,70.19z
				 M217.105,159.762c-4.667,7.32-16.392,24.419-27.846,30.896l-1.857-10.742c3.538-2.797,11.408-10.062,21.273-25.53
				c11.788-18.477,19.405-38.086,19.405-49.957c0-10.42-5.368-18.482-14.725-22.118c-10.684-4.169-22.889-1.077-31.089,7.873
				c-3.109,3.38-5.981,6.434-8.719,9.27l-2.122-12.283c1.13-1.207,2.285-2.458,3.47-3.748c11.011-12.003,27.532-16.1,42.09-10.437
				c13.012,5.061,21.094,17.109,21.094,31.442C238.08,118.486,230.239,139.171,217.105,159.762z"/>
		</g>
	</g>
	<g>
		<g>
			<polygon class="st3" points="34.42,75.518 16.42,75.518 43.001,129.685 49.347,142.617 69.59,183.868 80.09,122.938 
				80.09,122.929 			"/>
		</g>
	</g>
	<g>
		<g>
			<path class="st0" d="M81.17,121.888L35.5,74.478c-0.283-0.293-0.672-0.459-1.08-0.459h-18c-0.518,0-0.999,0.267-1.273,0.707
				c-0.274,0.439-0.302,0.989-0.074,1.454l26.581,54.166c0.365,0.744,1.265,1.05,2.007,0.686c0.744-0.365,1.051-1.264,0.686-2.007
				l-25.52-52.005h14.955l44.702,46.405l-9.586,55.629l-18.204-37.097c-0.366-0.745-1.265-1.05-2.007-0.686
				c-0.744,0.365-1.051,1.264-0.686,2.007l20.243,41.252c0.255,0.519,0.78,0.839,1.346,0.839c0.071,0,0.142-0.005,0.214-0.015
				c0.644-0.093,1.154-0.589,1.265-1.23l10.5-60.93c0.015-0.084,0.022-0.179,0.022-0.265C81.59,122.541,81.44,122.167,81.17,121.888
				z"/>
		</g>
	</g>
	<g>
		<g>
			<path class="st2" d="M93.534,229.12v5.061c0,2.976,2.412,5.388,5.388,5.388h58.315c2.976,0,5.388-2.412,5.388-5.388v-5.061
				H93.534z"/>
		</g>
	</g>
	<g>
		<g>
			<path class="st0" d="M162.626,227.62H93.534c-0.829,0-1.5,0.671-1.5,1.5v5.062c0,3.798,3.09,6.888,6.888,6.888h58.315
				c3.798,0,6.888-3.09,6.888-6.888v-5.062C164.126,228.292,163.455,227.62,162.626,227.62z M161.126,234.182
				c0,2.144-1.744,3.888-3.888,3.888H98.922c-2.144,0-3.888-1.744-3.888-3.888v-3.562h66.092V234.182z"/>
		</g>
	</g>
	<g>
		<g>
			<path class="st12" d="M149.711,230.621v3.56c0,2.14-1.768,3.89-3.953,3.89h11.391c2.174,0,3.953-1.75,3.953-3.89v-3.56H149.711z"
				/>
		</g>
	</g>
	<g>
		<g>
			<path class="st7" d="M128.078,35.785c-15.933,0-29.275,7.45-32.71,17.46h65.429C157.363,43.235,144.011,35.785,128.078,35.785z"
				/>
		</g>
	</g>
	<g>
		<g>
			<path class="st0" d="M162.216,52.758c-3.732-10.877-17.771-18.473-34.139-18.473c-16.362,0-30.396,7.596-34.128,18.473
				c-0.157,0.458-0.083,0.964,0.198,1.358c0.282,0.395,0.736,0.628,1.221,0.628h65.429c0.484,0,0.939-0.234,1.221-0.628
				C162.3,53.722,162.373,53.216,162.216,52.758z M97.629,51.745c4.303-8.49,16.642-14.46,30.449-14.46
				c13.813,0,26.155,5.97,30.459,14.46H97.629z"/>
		</g>
	</g>
	<g>
		<g>
			<path class="st1" d="M173.108,53.241H82.922c-1.718,0-2.829,1.816-2.046,3.346l7.995,15.617h78.458l7.833-15.635
				C175.928,55.041,174.817,53.241,173.108,53.241z"/>
		</g>
	</g>
	<g>
		<g>
			<path class="st0" d="M176.339,53.544c-0.697-1.129-1.905-1.803-3.232-1.803H82.922c-1.333,0-2.544,0.679-3.24,1.817
				s-0.748,2.525-0.141,3.712l7.996,15.617c0.256,0.501,0.772,0.816,1.335,0.816h78.458c0.568,0,1.087-0.32,1.341-0.828
				l7.833-15.635C177.098,56.055,177.037,54.672,176.339,53.544z M173.821,55.897l-7.417,14.807H89.789l-7.577-14.801
				c-0.184-0.359-0.04-0.666,0.029-0.78c0.07-0.115,0.277-0.382,0.681-0.382h90.186c0.402,0,0.609,0.265,0.679,0.379
				C173.857,55.234,174.001,55.538,173.821,55.897z"/>
		</g>
	</g>
	<g>
		<g>
			<path class="st6" d="M128.08,16.43c-5.43,0-9.833,4.332-9.833,9.676c0,5.344,4.402,9.677,9.833,9.677
				c5.43,0,9.833-4.332,9.833-9.677C137.912,20.762,133.51,16.43,128.08,16.43z"/>
		</g>
	</g>
	<g>
		<g>
			<path class="st0" d="M128.08,14.93c-6.249,0-11.332,5.014-11.332,11.176s5.084,11.176,11.332,11.176
				c6.249,0,11.333-5.014,11.333-11.176S134.329,14.93,128.08,14.93z M128.08,34.283c-4.595,0-8.332-3.668-8.332-8.176
				s3.738-8.176,8.332-8.176c4.595,0,8.333,3.668,8.333,8.176S132.675,34.283,128.08,34.283z"/>
		</g>
	</g>
	<g>
		<g>
			<path class="st10" d="M128.078,37.285c-1.941,0-3.841,0.11-5.69,0.34c11.635,1.37,21.095,6.88,24.743,14.12h11.391
				C154.294,43.355,142.253,37.285,128.078,37.285z"/>
		</g>
	</g>
	<g>
		<g>
			<path class="st11" d="M128.078,17.935c-0.996,0-1.951,0.17-2.835,0.49c3.18,1.15,5.457,4.16,5.457,7.68
				c0,3.53-2.276,6.54-5.467,7.68c0.884,0.33,1.839,0.5,2.845,0.5c4.583,0,8.312-3.67,8.312-8.18S132.661,17.935,128.078,17.935z"/>
		</g>
	</g>
	<g>
		<g>
			<path class="st1" d="M47.551,26.84C46.577,38.404,34.526,40.23,34.526,40.23c10.347,0.487,12.925,14.059,12.925,14.059
				c0.221-9.677,13.321-14.202,13.321-14.202C50.959,39.5,47.551,26.84,47.551,26.84z"/>
		</g>
	</g>
	<g>
		<g>
			<path class="st0" d="M60.863,38.589c-8.605-0.515-11.833-12.024-11.864-12.141c-0.19-0.702-0.85-1.162-1.583-1.102
				c-0.725,0.066-1.298,0.642-1.359,1.367c-0.86,10.215-11.314,11.964-11.754,12.033c-0.763,0.115-1.313,0.79-1.273,1.561
				c0.04,0.77,0.657,1.384,1.428,1.421c9.028,0.425,11.498,12.718,11.522,12.842c0.137,0.711,0.759,1.217,1.472,1.217
				c0.042,0,0.084-0.001,0.126-0.005c0.764-0.064,1.357-0.693,1.374-1.459c0.194-8.509,12.192-12.777,12.313-12.819
				c0.675-0.235,1.092-0.914,0.994-1.623C62.16,39.173,61.577,38.632,60.863,38.589z M47.296,48.935
				c-1.357-3.13-3.709-6.907-7.587-8.876c2.931-1.405,6.409-3.913,8.202-8.272c1.551,3.071,4.2,6.88,8.333,8.722
				C53.238,42.148,49.323,44.914,47.296,48.935z"/>
		</g>
	</g>
	<g>
		<g>
			<path class="st1" d="M25.852,43.821C25.163,52,16.64,53.292,16.64,53.292c7.318,0.344,9.142,9.944,9.142,9.944
				c0.156-6.844,9.422-10.045,9.422-10.045C28.263,52.775,25.852,43.821,25.852,43.821z"/>
		</g>
	</g>
	<g>
		<g>
			<path class="st0" d="M35.294,51.693c-5.767-0.345-7.973-8.186-7.994-8.265c-0.19-0.702-0.85-1.167-1.582-1.102
				c-0.726,0.065-1.299,0.642-1.36,1.368c-0.579,6.871-7.647,8.067-7.942,8.114c-0.763,0.115-1.313,0.79-1.273,1.561
				c0.04,0.77,0.657,1.384,1.428,1.421c6.035,0.284,7.723,8.644,7.739,8.726c0.135,0.713,0.759,1.22,1.472,1.22
				c0.042,0,0.083-0.001,0.125-0.005c0.765-0.063,1.358-0.694,1.376-1.461c0.13-5.709,8.331-8.634,8.412-8.662
				c0.676-0.234,1.094-0.913,0.996-1.622C36.593,52.277,36.008,51.736,35.294,51.693z M25.709,58.488
				c-0.924-1.885-2.34-3.947-4.447-5.28c1.856-1.041,3.697-2.63,4.871-4.916c1.057,1.874,2.655,3.954,4.941,5.224
				C29.224,54.616,27.085,56.255,25.709,58.488z"/>
		</g>
	</g>
	<g>
		<g>
			<path class="st1" d="M25.852,17.163c-0.689,8.179-9.212,9.47-9.212,9.47c7.318,0.345,9.142,9.944,9.142,9.944
				c0.156-6.844,9.422-10.045,9.422-10.045C28.263,26.117,25.852,17.163,25.852,17.163z"/>
		</g>
	</g>
	<g>
		<g>
			<path class="st0" d="M35.294,25.035c-5.767-0.345-7.973-8.186-7.994-8.265c-0.19-0.702-0.85-1.167-1.582-1.102
				c-0.726,0.065-1.299,0.642-1.36,1.368c-0.579,6.871-7.647,8.067-7.942,8.114c-0.763,0.115-1.313,0.79-1.273,1.561
				c0.04,0.77,0.657,1.384,1.427,1.421c6.036,0.284,7.724,8.644,7.739,8.726c0.135,0.713,0.759,1.22,1.472,1.22
				c0.042,0,0.083-0.001,0.125-0.005c0.765-0.063,1.358-0.694,1.376-1.461c0.13-5.709,8.332-8.634,8.412-8.662
				c0.677-0.234,1.094-0.913,0.996-1.622C36.593,25.62,36.008,25.078,35.294,25.035z M25.709,31.831
				c-0.924-1.886-2.34-3.947-4.447-5.28c1.856-1.042,3.697-2.63,4.871-4.917c1.057,1.874,2.655,3.954,4.941,5.224
				C29.225,27.958,27.085,29.599,25.709,31.831z"/>
		</g>
	</g>
	<g>
		<g>
			<polygon class="st3" points="167.33,72.214 88.83,72.214 86.24,87.245 83.769,101.589 65.58,207.179 190.58,207.179 			"/>
		</g>
	</g>
	<g>
		<g>
			<path class="st0" d="M192.058,206.924l-23.25-134.965c-0.124-0.719-0.748-1.245-1.478-1.245h-78.5
				c-0.73,0-1.354,0.526-1.478,1.246L84.763,86.99c-0.141,0.816,0.407,1.592,1.223,1.733c0.812,0.14,1.592-0.407,1.733-1.223
				l2.375-13.786h75.973L188.8,205.679H67.36l17.887-103.834c0.141-0.816-0.407-1.592-1.223-1.733
				c-0.816-0.144-1.592,0.407-1.733,1.223L64.102,206.924c-0.075,0.436,0.046,0.883,0.331,1.221
				c0.285,0.338,0.705,0.534,1.147,0.534h125c0.442,0,0.862-0.195,1.147-0.534C192.012,207.807,192.133,207.36,192.058,206.924z"/>
		</g>
	</g>
	<g>
		<g>
			<polygon class="st3" points="65.58,207.179 95.131,229.095 164.247,229.095 190.58,207.179 			"/>
		</g>
	</g>
	<g>
		<g>
			<path class="st0" d="M191.991,206.668c-0.215-0.594-0.779-0.99-1.411-0.99h-125c-0.647,0-1.221,0.415-1.424,1.029
				c-0.203,0.615,0.011,1.29,0.531,1.675L94.237,230.3c0.258,0.192,0.572,0.295,0.894,0.295h69.116c0.351,0,0.69-0.123,0.96-0.347
				l26.333-21.917C192.025,207.928,192.206,207.263,191.991,206.668z M163.704,227.595H95.626l-25.506-18.917h116.313
				L163.704,227.595z"/>
		</g>
	</g>
	<g>
		<g>
			<path class="st9" d="M173.79,55.118c-0.07-0.11-0.28-0.38-0.68-0.38h-14.63c0.4,0,0.61,0.27,0.68,0.38
				c0.07,0.12,0.22,0.42,0.04,0.78l-7.42,14.81h14.62l7.42-14.81C174,55.539,173.86,55.239,173.79,55.118z"/>
		</g>
	</g>
	<g>
		<g>
			<polygon class="st8" points="166.07,73.719 151.44,73.719 174.17,205.679 188.8,205.679 			"/>
		</g>
	</g>
	<g>
		<g>
			<polygon class="st8" points="171.81,208.679 149.08,227.599 163.7,227.599 186.43,208.679 			"/>
		</g>
	</g>
</g>
</svg>
