<?xml version="1.0" encoding="utf-8"?>
<!-- Generator: Adobe Illustrator 22.0.1, SVG Export Plug-In . SVG Version: 6.00 Build 0)  -->
<svg version="1.1" id="Layer_2" xmlns="http://www.w3.org/2000/svg" xmlns:xlink="http://www.w3.org/1999/xlink" x="0px" y="0px"
	 viewBox="0 0 256 256" style="enable-background:new 0 0 256 256;" xml:space="preserve">
<style type="text/css">
	.st0{fill:#3A312A;}
	.st1{fill:#D7E057;}
	.st2{fill:#FCE8CB;}
	.st3{fill:#8AC6DD;}
	.st4{fill-rule:evenodd;clip-rule:evenodd;fill:#FCE8CB;}
	.st5{fill:#F5978A;}
	.st6{fill:#87796F;}
	.st7{fill:#F16C7A;}
	.st8{fill:#68A8BC;}
	.st9{fill:#B9BC39;}
	.st10{fill:#CE4E61;}
	.st11{fill:#6B5B51;}
	.st12{fill:#CCAE8B;}
	.st13{fill-rule:evenodd;clip-rule:evenodd;fill:#F16C7A;}
</style>
<g>
	<g>
		<g>
			<path class="st1" d="M206.871,72.402c-0.974,11.564-13.025,13.39-13.025,13.39c10.347,0.487,12.925,14.059,12.925,14.059
				c0.221-9.677,13.321-14.202,13.321-14.202C210.279,85.062,206.871,72.402,206.871,72.402z"/>
		</g>
	</g>
	<g>
		<g>
			<path class="st0" d="M220.183,84.151c-8.604-0.514-11.832-12.024-11.863-12.14c-0.19-0.702-0.846-1.16-1.584-1.102
				c-0.725,0.066-1.298,0.642-1.359,1.367c-0.86,10.215-11.313,11.963-11.755,12.032c-0.763,0.115-1.313,0.79-1.273,1.561
				c0.04,0.77,0.657,1.384,1.428,1.421c9.028,0.425,11.499,12.719,11.522,12.843c0.138,0.711,0.76,1.217,1.473,1.217
				c0.042,0,0.084-0.001,0.126-0.005c0.765-0.064,1.357-0.693,1.375-1.459c0.193-8.509,12.191-12.777,12.313-12.819
				c0.676-0.235,1.092-0.914,0.994-1.623C221.479,84.735,220.896,84.194,220.183,84.151z M206.616,94.497
				c-1.356-3.131-3.708-6.908-7.587-8.877c2.931-1.404,6.409-3.913,8.202-8.272c1.551,3.071,4.199,6.88,8.334,8.722
				C212.558,87.71,208.643,90.475,206.616,94.497z"/>
		</g>
	</g>
	<g>
		<g>
			<path class="st1" d="M185.172,89.383c-0.689,8.179-9.213,9.47-9.213,9.47c7.318,0.344,9.142,9.944,9.142,9.944
				c0.156-6.844,9.422-10.045,9.422-10.045C187.583,98.337,185.172,89.383,185.172,89.383z"/>
		</g>
	</g>
	<g>
		<g>
			<path class="st0" d="M194.613,97.254c-5.766-0.345-7.972-8.185-7.994-8.264c-0.189-0.702-0.861-1.162-1.581-1.102
				c-0.726,0.065-1.3,0.643-1.361,1.368c-0.578,6.871-7.646,8.066-7.941,8.113c-0.763,0.115-1.313,0.79-1.273,1.561
				c0.04,0.77,0.657,1.384,1.428,1.421c6.034,0.284,7.723,8.644,7.738,8.726c0.136,0.712,0.759,1.22,1.473,1.22
				c0.041,0,0.083-0.001,0.125-0.005c0.765-0.063,1.358-0.694,1.376-1.461c0.13-5.709,8.331-8.634,8.412-8.662
				c0.676-0.234,1.093-0.913,0.996-1.622C195.912,97.839,195.327,97.297,194.613,97.254z M185.028,104.05
				c-0.924-1.886-2.34-3.947-4.446-5.28c1.855-1.041,3.697-2.63,4.87-4.916c1.058,1.874,2.654,3.954,4.941,5.223
				C188.544,100.178,186.404,101.817,185.028,104.05z"/>
		</g>
	</g>
	<g>
		<g>
			<path class="st1" d="M185.172,62.725c-0.689,8.179-9.213,9.471-9.213,9.471c7.318,0.344,9.142,9.944,9.142,9.944
				c0.156-6.845,9.422-10.045,9.422-10.045C187.583,71.679,185.172,62.725,185.172,62.725z"/>
		</g>
	</g>
	<g>
		<g>
			<path class="st0" d="M194.613,70.597c-5.766-0.345-7.972-8.186-7.994-8.265c-0.189-0.702-0.861-1.161-1.581-1.102
				c-0.726,0.065-1.3,0.643-1.361,1.368c-0.578,6.871-7.646,8.067-7.941,8.114c-0.763,0.115-1.313,0.79-1.273,1.561
				c0.04,0.77,0.657,1.384,1.428,1.421c6.034,0.284,7.723,8.644,7.738,8.726c0.136,0.713,0.759,1.22,1.473,1.22
				c0.041,0,0.083-0.001,0.125-0.005c0.765-0.063,1.358-0.694,1.376-1.461c0.13-5.709,8.331-8.634,8.412-8.662
				c0.676-0.234,1.093-0.913,0.996-1.622C195.912,71.182,195.327,70.64,194.613,70.597z M185.028,77.392
				c-0.924-1.885-2.34-3.947-4.446-5.28c1.855-1.041,3.697-2.629,4.87-4.916c1.058,1.874,2.654,3.954,4.941,5.223
				C188.544,73.521,186.404,75.16,185.028,77.392z"/>
		</g>
	</g>
	<g>
		<g>
			<path class="st2" d="M141.983,127.695l-15.17,15.17l20.581,20.581l10.273,10.273l10.717,10.717c0.15-0.18,0.31-0.36,0.48-0.53
				l14.16-14.15c0.17-0.17,0.35-0.33,0.53-0.49L141.983,127.695z"/>
		</g>
	</g>
	<g>
		<g>
			<path class="st0" d="M184.613,168.205l-41.57-41.57c-0.586-0.586-1.535-0.586-2.121,0l-15.17,15.17
				c-0.281,0.281-0.439,0.663-0.439,1.061s0.158,0.779,0.439,1.061l20.581,20.581c0.586,0.586,1.535,0.586,2.121,0
				s0.586-1.536,0-2.121l-19.521-19.52l13.049-13.049l39.429,39.429l-13.054,13.043l-9.631-9.63c-0.586-0.586-1.535-0.586-2.121,0
				s-0.586,1.536,0,2.121l10.717,10.716c0.282,0.282,0.664,0.439,1.061,0.439c0.022,0,0.046,0,0.068-0.001
				c0.422-0.02,0.815-0.215,1.085-0.54c0.121-0.145,0.25-0.291,0.387-0.428l14.16-14.15c0.143-0.142,0.294-0.276,0.468-0.431
				c0.309-0.274,0.489-0.664,0.501-1.077S184.905,168.497,184.613,168.205z"/>
		</g>
	</g>
	<g>
		<g>
			<path class="st6" d="M236.076,210.229l-40.479-40.479c-3.473-3.473-9.104-3.473-12.577,0l-14.156,14.156
				c-3.473,3.473-3.473,9.104,0,12.577l22.286,22.287l10.238,10.238l7.954,7.954c3.473,3.473,9.104,3.473,12.577,0l14.156-14.156
				C239.549,219.333,239.549,213.702,236.076,210.229z"/>
		</g>
	</g>
	<g>
		<g>
			<path class="st0" d="M237.137,209.169l-40.479-40.479c-1.963-1.963-4.573-3.044-7.35-3.044s-5.386,1.081-7.349,3.044
				l-14.156,14.156c-1.963,1.963-3.045,4.573-3.045,7.349s1.081,5.386,3.045,7.349l22.286,22.287c0.586,0.586,1.535,0.586,2.121,0
				c0.586-0.585,0.586-1.536,0-2.121l-22.286-22.287c-1.396-1.396-2.166-3.253-2.166-5.228s0.77-3.831,2.166-5.228l14.156-14.156
				c1.396-1.396,3.253-2.166,5.228-2.166s3.832,0.769,5.229,2.166l40.479,40.479c2.883,2.883,2.883,7.573,0,10.456l-14.156,14.156
				c-1.396,1.396-3.253,2.166-5.228,2.166s-3.832-0.769-5.229-2.166l-7.954-7.954c-0.586-0.586-1.535-0.586-2.121,0
				c-0.586,0.585-0.586,1.536,0,2.121l7.954,7.954c1.963,1.963,4.573,3.044,7.35,3.044s5.386-1.081,7.349-3.044l14.156-14.156
				C241.189,219.814,241.189,213.221,237.137,209.169z"/>
		</g>
	</g>
	<g>
		<g>
			<path class="st6" d="M142.683,116.835l-8.66-8.66c-2.8,5.6-6.54,10.85-11.21,15.52c-4.67,4.67-9.92,8.41-15.53,11.21l8.66,8.66
				c2.81,2.81,7.36,2.81,10.16,0l16.58-16.57C145.483,124.185,145.483,119.635,142.683,116.835z"/>
		</g>
	</g>
	<g>
		<g>
			<path class="st0" d="M143.743,115.775l-8.66-8.66c-0.34-0.341-0.826-0.499-1.301-0.42c-0.476,0.077-0.886,0.378-1.102,0.81
				c-2.787,5.575-6.464,10.666-10.929,15.13c-4.468,4.468-9.562,8.145-15.14,10.928c-0.432,0.215-0.733,0.625-0.811,1.102
				s0.079,0.96,0.42,1.301l8.66,8.661c1.643,1.642,3.824,2.546,6.145,2.546h0.009c2.317-0.002,4.494-0.907,6.128-2.546l16.58-16.57
				c0.001-0.001,0.001-0.001,0.002-0.002C147.124,124.663,147.123,119.154,143.743,115.775z M141.622,125.934l-16.582,16.573
				c-1.069,1.073-2.492,1.665-4.008,1.666h-0.006c-1.519,0-2.947-0.592-4.023-1.667l-7.214-7.214
				c5.151-2.795,9.882-6.333,14.084-10.535c4.199-4.199,7.736-8.926,10.534-14.075l7.215,7.215
				C143.833,120.107,143.833,123.713,141.622,125.934z"/>
		</g>
	</g>
	<g>
		<g>
			<path class="st7" d="M38.293,123.695c-6.38-6.38-11.01-13.84-13.9-21.79l-5.2,5.2c-4.86,4.87-4.86,12.77,0,17.63l17.96,17.96
				c4.87,4.87,12.76,4.87,17.63,0l5.15-5.15C52.033,134.645,44.633,130.035,38.293,123.695z"/>
		</g>
	</g>
	<g>
		<g>
			<path class="st0" d="M61.397,137.223c-0.11-0.5-0.468-0.909-0.948-1.085c-7.961-2.923-15.059-7.466-21.096-13.502
				c-6.078-6.078-10.638-13.225-13.551-21.242c-0.176-0.482-0.585-0.841-1.085-0.952c-0.502-0.111-1.023,0.041-1.386,0.404
				l-5.201,5.201c-5.438,5.45-5.438,14.31,0.001,19.75l17.96,17.96c2.639,2.639,6.146,4.092,9.876,4.092
				c3.729,0,7.237-1.454,9.875-4.092l5.15-5.15C61.355,138.244,61.508,137.723,61.397,137.223z M53.722,141.635
				c-2.072,2.072-4.825,3.213-7.754,3.213s-5.683-1.142-7.755-3.213l-17.96-17.96c-4.271-4.271-4.271-11.229,0-15.509l3.569-3.569
				c3.071,7.552,7.575,14.324,13.41,20.159c5.793,5.793,12.518,10.279,20.014,13.354L53.722,141.635z"/>
		</g>
	</g>
	<g>
		<g>
			<path class="st7" d="M141.813,38.035l-17.96-17.95c-4.87-4.87-12.76-4.87-17.63,0l-5.2,5.2c7.95,2.89,15.41,7.52,21.79,13.9
				c6.34,6.34,10.95,13.74,13.85,21.63l5.15-5.15C146.673,50.795,146.673,42.905,141.813,38.035z"/>
		</g>
	</g>
	<g>
		<g>
			<path class="st0" d="M142.873,36.974l-17.96-17.949c-5.444-5.445-14.305-5.447-19.751,0l-5.2,5.2
				c-0.362,0.362-0.515,0.885-0.404,1.385c0.111,0.5,0.471,0.91,0.952,1.085c8.019,2.915,15.165,7.474,21.242,13.551
				c6.035,6.036,10.578,13.131,13.503,21.087c0.177,0.48,0.586,0.837,1.086,0.947c0.107,0.023,0.215,0.035,0.322,0.035
				c0.394,0,0.776-0.155,1.061-0.439l5.149-5.15c0.001,0,0.001,0,0.001-0.001C148.309,51.28,148.309,42.421,142.873,36.974z
				 M140.752,54.604l-3.524,3.525c-3.078-7.492-7.563-14.213-13.354-20.005c-5.833-5.833-12.605-10.337-20.158-13.41l3.568-3.568
				c4.276-4.276,11.234-4.275,15.509,0l17.959,17.948C145.019,43.371,145.019,50.328,140.752,54.604z"/>
		</g>
	</g>
	<g>
		<g>
			<circle class="st2" cx="80.553" cy="81.44" r="59.761"/>
		</g>
	</g>
	<g>
		<g>
			<path class="st0" d="M123.871,38.122c-11.57-11.571-26.954-17.943-43.317-17.943c-16.364,0-31.748,6.373-43.318,17.943
				c-23.886,23.885-23.886,62.75,0,86.636c11.942,11.943,27.63,17.915,43.317,17.915c15.688,0,31.376-5.972,43.318-17.915
				c11.571-11.571,17.943-26.955,17.943-43.318C141.814,65.076,135.442,49.692,123.871,38.122z M121.75,122.637
				c-22.717,22.717-59.677,22.715-82.394,0c-22.716-22.716-22.716-59.678,0-82.394C50.36,29.239,64.991,23.178,80.554,23.178
				c15.562,0,30.192,6.061,41.196,17.064s17.064,25.635,17.064,41.197S132.754,111.632,121.75,122.637z"/>
		</g>
	</g>
	<g>
		<g>
			<circle class="st1" cx="80.553" cy="81.44" r="48.592"/>
		</g>
	</g>
	<g>
		<g>
			<path class="st0" d="M115.974,46.019c-19.53-19.53-51.309-19.531-70.841,0c-19.531,19.531-19.531,51.311,0,70.841
				c9.766,9.766,22.593,14.648,35.42,14.648c12.828,0,25.655-4.883,35.421-14.648C135.505,97.33,135.505,65.55,115.974,46.019z
				 M113.853,114.739c-18.362,18.362-48.238,18.361-66.599,0c-18.361-18.361-18.361-48.238,0-66.599
				c9.181-9.181,21.24-13.771,33.3-13.771c12.059,0,24.118,4.59,33.299,13.771C132.214,66.501,132.214,96.378,113.853,114.739z"/>
		</g>
	</g>
	<g>
		<g>
			<path class="st0" d="M69.597,42.423c-1.885-1.885-4.941-1.885-6.825,0c-1.885,1.885-1.885,4.941,0,6.826
				c1.885,1.885,4.941,1.885,6.825,0C71.482,47.364,71.482,44.308,69.597,42.423z"/>
		</g>
	</g>
	<g>
		<g>
			<circle class="st0" cx="69.534" cy="75.35" r="4.826"/>
		</g>
	</g>
	<g>
		<g>
			<path class="st0" d="M98.527,87.989c-1.885-1.885-4.941-1.885-6.826,0c-1.885,1.885-1.885,4.941,0,6.825
				c1.885,1.885,4.941,1.885,6.826,0C100.412,92.93,100.412,89.874,98.527,87.989z"/>
		</g>
	</g>
	<g>
		<g>
			<path class="st0" d="M113.915,99.079c-1.885-1.885-4.941-1.885-6.826,0c-1.885,1.885-1.885,4.941,0,6.825
				c1.885,1.885,4.941,1.885,6.826,0S115.799,100.964,113.915,99.079z"/>
		</g>
	</g>
	<g>
		<g>
			<circle class="st0" cx="73.45" cy="95.368" r="4.826"/>
		</g>
	</g>
	<g>
		<g>
			<path class="st0" d="M96.33,66.867c-1.885-1.885-4.941-1.885-6.825,0c-1.885,1.885-1.885,4.941,0,6.825s4.941,1.885,6.825,0
				C98.215,71.808,98.215,68.752,96.33,66.867z"/>
		</g>
	</g>
	<g>
		<g>
			<path class="st0" d="M118.013,77.188c-1.885-1.885-4.941-1.885-6.826,0c-1.885,1.885-1.885,4.941,0,6.825
				c1.885,1.885,4.941,1.885,6.826,0S119.898,79.073,118.013,77.188z"/>
		</g>
	</g>
	<g>
		<g>
			<circle class="st0" cx="110.721" cy="58.097" r="4.826"/>
		</g>
	</g>
	<g>
		<g>
			<path class="st0" d="M54.872,60.688c-1.885-1.885-4.941-1.885-6.825,0c-1.885,1.885-1.885,4.941,0,6.826
				c1.885,1.885,4.941,1.885,6.825,0S56.757,62.572,54.872,60.688z"/>
		</g>
	</g>
	<g>
		<g>
			<path class="st0" d="M49.569,81.286c-1.885-1.885-4.941-1.885-6.825,0c-1.885,1.885-1.885,4.941,0,6.826s4.941,1.885,6.825,0
				C51.454,86.227,51.454,83.171,49.569,81.286z"/>
		</g>
	</g>
	<g>
		<g>
			<path class="st0" d="M57.124,102.492c-1.885-1.885-4.941-1.885-6.825,0c-1.885,1.885-1.885,4.941,0,6.825
				c1.885,1.885,4.941,1.885,6.825,0C59.009,107.432,59.009,104.376,57.124,102.492z"/>
		</g>
	</g>
	<g>
		<g>
			<circle class="st0" cx="91.192" cy="113.11" r="4.826"/>
		</g>
	</g>
	<g>
		<g>
			<path class="st0" d="M76.258,114.801c-1.885-1.885-4.941-1.885-6.826,0s-1.885,4.941,0,6.825c1.885,1.885,4.941,1.885,6.826,0
				C78.143,119.741,78.143,116.686,76.258,114.801z"/>
		</g>
	</g>
	<g>
		<g>
			<path class="st0" d="M82.205,53.831c-1.885-1.885-4.941-1.885-6.825,0c-1.885,1.885-1.885,4.94,0,6.825
				c1.885,1.885,4.941,1.885,6.825,0C84.09,58.771,84.09,55.715,82.205,53.831z"/>
		</g>
	</g>
	<g>
		<g>
			<circle class="st0" cx="95.369" cy="46.454" r="4.826"/>
		</g>
	</g>
	<g>
		<g>
			<path class="st11" d="M235.013,211.285l-40.48-40.47c-1.39-1.4-3.25-2.17-5.22-2.17c-1.98,0-3.84,0.77-5.23,2.17l-1.07,1.07
				l39.41,39.4c2.88,2.89,2.88,7.58,0,10.46l-13.09,13.09l1.07,1.07c1.4,1.39,3.25,2.16,5.23,2.16c1.97,0,3.83-0.77,5.23-2.16
				l14.15-14.16C237.903,218.865,237.903,214.175,235.013,211.285z"/>
		</g>
	</g>
	<g>
		<g>
			<path class="st11" d="M141.623,117.895l-7.22-7.21c-0.82,1.52-1.73,3-2.68,4.45c-0.01,0.02-0.02,0.03-0.03,0.05
				c-0.15,0.23-0.3,0.45-0.46,0.67l2.04,2.04c2.21,2.21,2.21,5.82,0,8.04l-16.42,16.42l0.15,0.15c1.08,1.08,2.51,1.67,4.02,1.67
				h0.01c1.51,0,2.94-0.6,4.01-1.67l16.58-16.57C143.833,123.715,143.833,120.105,141.623,117.895z"/>
		</g>
	</g>
</g>
</svg>
