<svg fill="#000000" xmlns="http://www.w3.org/2000/svg"  viewBox="0 0 48 48" width="24px" height="24px"><path d="M 38.552734 7.1113281 C 38.19308 7.0916641 37.831328 7.1033125 37.470703 7.1484375 C 36.291703 7.3014375 35.698 7.4401719 35.125 7.5761719 C 34.601 7.7001719 34.1055 7.8162656 33.0625 7.9472656 C 32.1435 8.0662656 31.7215 8.0123594 31.1875 7.9433594 C 30.5595 7.8613594 29.845063 7.7695 28.539062 7.9375 C 27.483062 8.0745 26.966922 8.0951875 26.419922 8.1171875 C 25.840922 8.1401875 25.242031 8.1655469 24.082031 8.3105469 C 22.811031 8.4755469 21.703891 9.1930312 20.962891 10.332031 C 20.541891 10.980031 20.256187 11.733437 20.117188 12.523438 C 20.806188 12.688437 21.257437 12.805406 21.773438 12.941406 C 22.148438 13.037406 22.534016 13.136859 23.041016 13.255859 C 23.095016 12.781859 23.242563 12.32875 23.476562 11.96875 C 23.738563 11.56675 24.071937 11.336156 24.460938 11.285156 C 25.489937 11.157156 26.001969 11.135281 26.542969 11.113281 C 27.131969 11.090281 27.740734 11.066109 28.927734 10.912109 C 29.847734 10.793109 30.268734 10.848969 30.802734 10.917969 C 31.431734 10.998969 32.145359 11.090828 33.443359 10.923828 C 34.639359 10.774828 35.238406 10.632094 35.816406 10.496094 C 36.338406 10.373094 36.830609 10.255047 37.849609 10.123047 C 39.279609 9.9390469 40.925828 10.865641 41.298828 12.056641 C 41.315828 12.109641 41.331656 12.159937 41.347656 12.210938 C 41.061656 12.209938 40.773375 12.206172 40.484375 12.201172 C 38.570375 12.177172 36.849062 12.557703 35.039062 12.970703 L 34.630859 13.060547 C 33.131859 13.387547 31.582875 13.725547 30.046875 13.810547 C 29.287875 13.841547 28.484203 13.873047 27.658203 13.873047 C 26.676203 13.873047 25.904469 13.832094 25.230469 13.746094 C 25.050469 13.723094 24.843953 13.697016 24.626953 13.666016 C 24.771953 13.722016 24.901813 13.778125 25.007812 13.828125 C 25.826812 14.162125 26.526234 14.924656 26.865234 15.347656 L 27.175781 15.734375 L 27.582031 16.871094 L 27.658203 16.871094 C 28.526203 16.871094 29.370406 16.840641 30.191406 16.806641 C 31.988406 16.707641 33.657484 16.342234 35.271484 15.990234 L 35.707031 15.894531 C 37.405031 15.508531 38.869547 15.167172 40.435547 15.201172 C 40.845547 15.208172 41.251203 15.209938 41.658203 15.210938 C 41.713203 15.644937 41.810078 16.093844 41.955078 16.589844 C 41.227078 16.598844 40.539547 16.608469 39.810547 16.730469 C 38.622547 16.906469 37.579109 17.567437 36.662109 18.148438 C 36.287109 18.384438 35.914344 18.621078 35.527344 18.830078 C 33.887344 19.716078 32.241219 19.726328 30.449219 19.736328 C 29.839219 19.736328 29.229094 19.736344 28.621094 19.777344 L 29.208984 21.419922 L 29.234375 21.669922 C 29.270375 22.025922 29.277766 22.388 29.259766 22.75 C 29.663766 22.736 30.072625 22.736328 30.515625 22.736328 C 32.454625 22.725328 34.654172 22.713656 36.951172 21.472656 C 37.397172 21.232656 37.830578 20.959594 38.267578 20.683594 C 38.966578 20.239594 39.689391 19.780359 40.275391 19.693359 C 40.815391 19.603359 41.348484 19.595891 42.021484 19.587891 L 42.195312 19.585938 C 42.415312 19.582937 42.624125 19.58775 42.828125 19.59375 C 42.906125 19.87075 42.992516 20.172969 43.103516 20.542969 C 43.158516 20.746969 43.228594 20.971563 43.308594 21.226562 L 43.365234 21.40625 C 43.457234 21.70025 43.435953 21.93625 43.376953 22.03125 C 43.368953 22.04425 43.345031 22.085375 43.207031 22.109375 L 43.199219 22.109375 C 41.787219 22.354375 41.059969 22.612844 40.417969 22.839844 C 39.810969 23.053844 39.285906 23.237453 38.128906 23.439453 C 37.098906 23.613453 36.609281 23.527016 35.988281 23.416016 C 35.263281 23.286016 34.362406 23.123719 32.816406 23.386719 C 31.253406 23.652719 30.453547 24.139297 29.810547 24.529297 C 29.468547 24.737297 29.18425 24.908781 28.78125 25.050781 C 28.72825 25.191781 28.670375 25.332703 28.609375 25.470703 C 28.494375 25.731703 28.465078 25.877594 28.455078 25.933594 C 28.430078 26.065594 28.4365 26.203484 28.4375 26.396484 C 28.4385 26.857484 28.440672 27.467953 28.263672 28.251953 C 28.292672 28.247953 28.320609 28.243281 28.349609 28.238281 C 29.922609 27.971281 30.724141 27.48575 31.369141 27.09375 C 31.922141 26.75775 32.323313 26.51375 33.320312 26.34375 C 34.350313 26.16875 34.839937 26.256187 35.460938 26.367188 C 36.184937 26.498188 37.086672 26.659484 38.638672 26.396484 C 40.050672 26.151484 40.777922 25.894969 41.419922 25.667969 C 41.932922 25.486969 42.386797 25.326203 43.216797 25.158203 C 43.101797 25.478203 42.947578 25.828891 42.767578 26.212891 C 42.589578 26.591891 42.436109 27.011641 42.287109 27.431641 C 42.128109 27.876641 41.863375 28.620187 41.734375 28.742188 C 40.419375 28.966188 39.75675 29.049813 39.09375 29.132812 C 38.39675 29.220813 37.701359 29.308922 36.318359 29.544922 C 35.176359 29.739922 34.617703 29.677469 33.970703 29.605469 C 33.209703 29.522469 32.346016 29.426406 30.791016 29.691406 C 29.124016 29.975406 28.285328 30.541094 27.611328 30.996094 C 27.303328 31.204094 27.042172 31.379391 26.701172 31.525391 C 26.348172 31.972391 26.017719 32.283437 25.761719 32.523438 C 25.434719 32.830438 25.347344 32.912703 25.152344 33.345703 C 25.153344 33.343703 25.152344 33.341797 25.152344 33.341797 C 25.153344 33.341797 25.117219 33.429531 25.074219 33.519531 C 24.830219 34.079531 24.760969 34.368391 24.667969 34.775391 C 24.909969 34.821391 25.15625 34.845703 25.40625 34.845703 C 25.63725 34.845703 25.872375 34.826156 26.109375 34.785156 C 27.776375 34.501156 28.613109 33.936422 29.287109 33.482422 C 29.854109 33.100422 30.264922 32.824438 31.294922 32.648438 C 32.435922 32.453437 32.994625 32.514938 33.640625 32.585938 C 34.402625 32.669938 35.265266 32.766 36.822266 32.5 C 38.139266 32.275 38.80375 32.192375 39.46875 32.109375 C 40.16375 32.022375 40.858281 31.934219 42.238281 31.699219 C 44.062281 31.388219 44.669281 29.681547 45.113281 28.435547 C 45.229281 28.109547 45.343422 27.781328 45.482422 27.486328 C 46.119422 26.121328 46.761344 24.523359 46.277344 22.818359 C 46.485344 22.108359 46.470609 21.304578 46.224609 20.517578 L 46.167969 20.335938 C 46.101969 20.122937 46.042375 19.933656 45.984375 19.722656 C 45.786375 19.060656 45.670781 18.637266 45.550781 18.197266 L 45.320312 17.376953 C 45.212313 16.998953 45.079813 16.536734 44.882812 15.927734 C 44.674813 15.264734 44.627422 14.873469 44.607422 14.605469 C 44.590422 14.380469 44.590844 14.178562 44.589844 13.976562 C 44.587844 13.524563 44.583031 13.0125 44.457031 12.3125 C 44.394031 11.9725 44.299203 11.605203 44.158203 11.158203 C 43.452953 8.9085781 41.070314 7.2489766 38.552734 7.1113281 z M 12.666016 12.294922 C 12.413612 12.282355 12.162457 12.291376 11.916016 12.322266 C 10.437366 12.507621 9.1113326 13.448768 8.4609375 14.845703 L 8.4511719 14.865234 L 8.4433594 14.884766 C 8.3202087 15.170332 8.1976306 15.420414 8.0996094 15.599609 L 8.0859375 15.625 L 8.0742188 15.648438 C 8.0535428 15.689787 8.0056888 15.770607 7.9296875 15.896484 L 7.9257812 15.902344 L 7.921875 15.908203 C 7.7264532 16.239161 7.5552103 16.457585 7.3203125 16.771484 L 7.3554688 16.728516 C 7.1625505 16.967265 6.9458708 17.252088 6.7207031 17.599609 C 6.4344902 18.024736 6.1729516 18.515265 5.8964844 19.138672 L 5.8984375 19.130859 C 5.3347736 20.382683 5.0823668 20.855721 4.7539062 21.513672 C 4.5098395 21.99979 4.2418174 22.561985 3.8203125 23.513672 L 3.8085938 23.539062 L 3.8066406 23.541016 L 3.7734375 23.59375 L 3.7363281 23.677734 C 2.906557 25.533032 2.7425772 25.640333 1.9140625 27.449219 C 1.9134985 27.450419 1.9146247 27.451925 1.9140625 27.453125 C 1.9140625 27.453125 1.9121094 27.455078 1.9121094 27.455078 C 1.6380329 28.050038 1.5963906 28.68515 1.71875 29.28125 A 1.5001857 1.5001857 0 0 0 1.5664062 30.019531 C 1.6551213 31.679514 2.1632506 33.66124 2.8808594 35.419922 C 3.2396638 36.299263 3.647565 37.112149 4.140625 37.804688 C 4.633685 38.497225 5.1867383 39.17256 6.2324219 39.410156 A 1.50015 1.50015 0 0 0 6.2421875 39.414062 C 7.3946463 39.667096 8.1581925 39.675197 8.7011719 39.673828 C 9.2441513 39.672428 9.5701119 39.659198 10.503906 39.869141 C 11.61177 40.118224 12.278324 40.182593 12.814453 40.230469 C 13.350582 40.278339 13.754251 40.309999 14.726562 40.529297 A 1.50015 1.50015 0 0 0 14.728516 40.529297 C 15.977421 40.809416 17.67369 41.29694 19.388672 40.439453 C 20.997465 39.635057 21.812178 38.140388 22.390625 36.867188 C 22.398725 36.854307 22.452375 36.736973 22.503906 36.613281 C 22.507006 36.605881 22.506566 36.605486 22.509766 36.597656 C 22.527996 36.552456 22.529338 36.569176 22.548828 36.509766 A 1.50015 1.50015 0 0 0 22.591797 36.345703 C 22.898312 35.57309 23.090946 34.921497 23.189453 34.488281 C 23.30299 33.988967 23.372441 33.659182 23.720703 32.867188 L 23.695312 32.921875 C 23.748313 32.813346 23.777681 32.73613 23.804688 32.667969 L 23.779297 32.732422 C 24.13502 31.943626 24.304605 31.830872 24.730469 31.431641 C 25.129141 31.0579 25.747368 30.414956 26.257812 29.376953 A 1.50015 1.50015 0 0 0 26.380859 29.154297 C 26.786388 28.233081 26.909474 27.427525 26.927734 26.837891 C 26.945904 26.251108 26.915929 25.974157 26.980469 25.634766 C 27.022835 25.425073 27.089016 25.195333 27.238281 24.853516 C 27.673237 23.886648 27.840985 22.840502 27.738281 21.820312 A 1.50015 1.50015 0 0 0 27.654297 21.457031 L 25.988281 16.869141 A 1.50015 1.50015 0 0 0 25.734375 16.417969 C 25.668287 16.265997 25.592344 16.125567 25.503906 16.015625 C 25.120733 15.539275 24.706945 15.331133 24.320312 15.167969 C 24.078225 15.057777 23.830776 14.961858 23.523438 14.900391 C 22.506578 14.67615 21.916041 14.524221 21.375 14.386719 L 21.388672 14.388672 C 20.617551 14.185587 19.967859 14.019313 18.466797 13.675781 L 18.447266 13.671875 L 18.425781 13.667969 C 18.337671 13.650349 18.200006 13.611879 17.988281 13.566406 L 18.013672 13.570312 C 15.962451 13.093284 15.813426 12.940861 13.425781 12.400391 C 13.172073 12.341637 12.918419 12.307488 12.666016 12.294922 z M 12.277344 15.298828 C 12.43183 15.279151 12.590464 15.285773 12.748047 15.322266 L 12.751953 15.322266 L 12.755859 15.324219 C 15.060499 15.845506 15.174694 15.990026 17.333984 16.492188 L 17.345703 16.496094 L 17.359375 16.498047 C 17.445655 16.516577 17.605997 16.562997 17.837891 16.609375 C 19.270081 16.937632 19.871223 17.093012 20.623047 17.291016 L 20.630859 17.292969 L 20.636719 17.292969 C 21.100875 17.410931 21.758575 17.573686 22.597656 17.763672 C 22.593756 17.768972 22.587854 17.781829 22.583984 17.787109 C 22.249794 18.244064 21.682976 18.622097 21.042969 19.724609 C 21.042969 19.724609 21.041016 19.726562 21.041016 19.726562 C 21.039916 19.728462 21.040215 19.728569 21.039062 19.730469 C 20.914623 19.943498 20.80385 20.171302 20.691406 20.412109 C 20.056868 20.390442 19.474821 20.463374 18.931641 20.511719 L 18.923828 20.511719 L 18.914062 20.513672 C 17.902383 20.615338 17.032118 20.673658 16.322266 20.494141 L 16.320312 20.494141 C 15.173925 20.205781 14.635234 19.528932 13.935547 18.664062 L 13.933594 18.662109 C 13.530779 18.163277 13.103906 17.593396 12.392578 17.125 L 12.386719 17.121094 L 12.378906 17.117188 C 11.92049 16.821637 11.455017 16.642889 10.990234 16.505859 C 11.053362 16.372716 11.11727 16.254925 11.179688 16.111328 C 11.391792 15.655764 11.813885 15.357861 12.277344 15.298828 z M 9.2519531 19.210938 C 9.8840492 19.230481 10.251981 19.317943 10.748047 19.636719 C 10.931747 19.759224 11.199571 20.051313 11.601562 20.548828 C 12.29863 21.410438 13.485142 22.872344 15.587891 23.402344 C 16.942587 23.744941 18.182035 23.602241 19.197266 23.5 L 19.214844 23.498047 C 19.467202 23.47568 19.675763 23.465209 19.892578 23.451172 C 19.842712 23.774007 19.760137 24.105021 19.509766 24.664062 C 19.115335 25.530251 18.946336 25.623977 18.466797 26.103516 C 18.323511 26.246801 18.155404 26.437286 17.982422 26.652344 C 17.079948 26.1816 16.122424 25.905013 15.132812 25.886719 L 15.130859 25.886719 C 12.35199 25.832119 10.427662 25.349929 9.6171875 24.828125 L 9.6132812 24.824219 L 9.609375 24.822266 C 9.4373661 24.71315 9.2911858 24.498864 9.0566406 24.070312 L 9.0527344 24.0625 C 8.8594505 23.70126 8.670877 23.161549 7.9121094 22.783203 C 7.7577892 22.705336 7.646419 22.667487 7.5449219 22.638672 C 7.8223693 22.087727 8.1120611 21.52414 8.6347656 20.363281 L 8.6367188 20.359375 L 8.6386719 20.355469 C 8.8701307 19.833552 9.0536771 19.500295 9.2109375 19.267578 L 9.2207031 19.253906 L 9.2304688 19.240234 C 9.2376904 19.229026 9.2447949 19.221903 9.2519531 19.210938 z M 24.140625 20.570312 L 24.736328 22.210938 C 24.765728 22.662623 24.700358 23.182011 24.501953 23.623047 A 1.50015 1.50015 0 0 0 24.496094 23.634766 C 24.266894 24.156434 24.1222 24.626656 24.037109 25.050781 A 1.50015 1.50015 0 0 0 24.035156 25.0625 C 23.887955 25.826842 23.940676 26.389275 23.929688 26.744141 C 23.918948 27.090853 23.890098 27.346768 23.642578 27.917969 A 1.50015 1.50015 0 0 0 23.628906 27.943359 C 23.27311 28.732719 23.10337 28.845122 22.677734 29.244141 C 22.252098 29.643159 21.570245 30.328842 21.042969 31.498047 A 1.50015 1.50015 0 0 0 21.015625 31.5625 C 21.000635 31.60034 20.989 31.627999 21 31.605469 A 1.50015 1.50015 0 0 0 20.974609 31.660156 C 20.545872 32.635161 20.378885 33.317533 20.263672 33.824219 C 20.148459 34.330905 20.083822 34.656002 19.746094 35.435547 A 1.50015 1.50015 0 0 0 19.712891 35.527344 C 19.715754 35.518803 19.71458 35.518105 19.697266 35.552734 A 1.50015 1.50015 0 0 0 19.671875 35.605469 C 19.208925 36.627336 18.556397 37.501098 18.046875 37.755859 C 17.633857 37.962369 16.60586 37.875444 15.384766 37.601562 L 15.386719 37.603516 C 14.28407 37.354767 13.618152 37.290062 13.082031 37.242188 C 12.54591 37.194313 12.138292 37.163276 11.160156 36.943359 C 10.007951 36.684306 9.24138 36.672447 8.6933594 36.673828 C 8.1739844 36.675164 7.8195241 36.673491 6.9921875 36.5 C 7.0066967 36.485215 6.8015564 36.37005 6.5839844 36.064453 C 6.2938882 35.656992 5.9555237 35.015769 5.6582031 34.287109 C 5.3508401 33.533839 5.0883804 32.68025 4.8945312 31.873047 C 6.0521169 32.173333 6.420768 32.356382 8.2128906 32.757812 C 9.2012595 32.980289 9.5721693 33.131402 10.087891 33.333984 C 10.603612 33.536567 11.263424 33.788564 12.408203 34.044922 C 14.022145 34.405609 15.821801 34.289688 17.34375 33.529297 C 18.378388 33.012474 18.844787 32.074709 19.126953 31.337891 C 19.409119 30.601072 19.571423 29.931924 19.738281 29.535156 L 19.787109 29.417969 C 20.09795 28.721334 20.274046 28.540407 20.587891 28.226562 C 21.00088 27.813574 21.683172 27.136708 22.244141 25.902344 L 22.246094 25.898438 L 22.248047 25.894531 C 22.94498 24.340807 22.889326 23.444778 23.017578 22.833984 L 23.023438 22.806641 L 23.027344 22.779297 C 23.067804 22.544142 23.148593 22.246159 23.371094 21.755859 L 23.373047 21.751953 C 23.476476 21.526827 23.562264 21.357364 23.630859 21.240234 L 23.632812 21.236328 L 23.634766 21.232422 C 23.799459 20.947834 23.961399 20.762448 24.140625 20.570312 z M 6.1875 25.505859 C 6.2720037 25.508376 6.3492479 25.507889 6.4296875 25.511719 C 6.65272 25.920948 7.0705663 26.759276 8.0019531 27.351562 C 9.7007191 28.442515 12.030084 28.82522 15.074219 28.884766 L 15.076172 28.886719 C 15.562092 28.895539 16.085342 29.048729 16.640625 29.345703 C 16.53617 29.66739 16.41278 30.039465 16.326172 30.265625 C 16.147838 30.731307 16.012269 30.841526 16.003906 30.845703 C 15.398216 31.148548 13.917957 31.308367 13.0625 31.117188 L 13.064453 31.119141 C 12.070233 30.896498 11.697623 30.742933 11.183594 30.541016 C 10.669565 30.339098 10.012678 30.086602 8.8730469 29.830078 L 8.8710938 29.830078 C 6.8008033 29.366428 6.8339704 29.218576 4.6503906 28.724609 L 4.6484375 28.724609 C 4.6176655 28.720209 4.6240357 28.738308 4.6367188 28.710938 L 4.6367188 28.707031 L 4.6386719 28.705078 C 5.3060945 27.247342 5.5999107 26.76145 6.1875 25.505859 z"/></svg>