<svg fill="#000000" xmlns="http://www.w3.org/2000/svg"  viewBox="0 0 48 48" width="24px" height="24px"><path d="M 22.953125 3.9960938 A 1.50015 1.50015 0 0 0 22.699219 4.0195312 C 22.699219 4.0195312 19.802034 4.5158259 17.701172 7.1640625 A 1.50015 1.50015 0 0 0 17.623047 7.265625 C 16.664149 7.3100275 15.669753 7.5015493 14.654297 7.8808594 C 10.697427 9.3589113 8.6938465 12.57403 7.7207031 15.726562 C 6.7474188 18.879554 6.6153425 22.115569 6.2480469 24.080078 C 5.6682336 27.179472 5.3429046 30.542808 5.96875 33.742188 C 6.5945954 36.941566 8.2691206 40.001264 11.488281 42.052734 C 13.318427 43.220098 15.494643 44.070127 17.75 44.279297 C 19.766509 44.466315 21.883653 44.102435 23.689453 42.912109 C 28.478345 44.416908 31.806718 42.365641 33.027344 41.945312 C 35.524703 41.088262 38.094767 39.838135 40.080078 37.714844 C 42.613281 35.005968 44.304756 30.613091 43.121094 26.748047 C 42.537695 24.842328 40.890663 23.431606 38.753906 22.882812 A 1.50015 1.50015 0 0 0 38.123047 22.724609 A 1.50015 1.50015 0 0 0 38.048828 22.726562 C 37.304627 22.609454 36.517156 22.582517 35.695312 22.685547 C 34.507742 22.834427 33.260205 23.228328 32.013672 23.914062 C 31.396179 24.253761 30.695859 24.463099 29.960938 24.568359 C 29.737225 20.312433 28.6063 16.103166 26.580078 12.429688 C 25.503982 10.479223 23.618165 8.7367478 21.283203 7.8574219 C 22.30227 7.1300933 23.191406 6.9804687 23.191406 6.9804688 A 1.50015 1.50015 0 0 0 22.953125 3.9960938 z M 18.40625 10.240234 C 20.939729 10.354385 22.924865 12.015147 23.953125 13.878906 C 26.942307 19.298204 27.774209 26.275479 26.25 32.378906 C 25.516669 35.314178 24.337659 38.592614 22.4375 40.125 C 21.206312 41.118207 19.699486 41.446096 18.027344 41.291016 C 16.355201 41.135935 14.568418 40.459074 13.101562 39.523438 C 10.594724 37.925908 9.4215139 35.770138 8.9121094 33.166016 C 8.4027048 30.561894 8.6540789 27.534466 9.1972656 24.630859 C 9.63897 22.268369 9.7672213 19.263588 10.585938 16.611328 C 11.404652 13.959069 12.726086 11.803643 15.705078 10.691406 C 16.656423 10.336044 17.561757 10.202184 18.40625 10.240234 z M 15.574219 12.916016 A 1.50015 1.50015 0 0 0 14.542969 13.369141 C 12.580541 15.331569 12.667802 18.098585 12.638672 20.279297 A 1.50015 1.50015 0 1 0 15.638672 20.320312 C 15.667542 18.159025 15.85649 16.297806 16.664062 15.490234 A 1.50015 1.50015 0 0 0 15.574219 12.916016 z M 21.675781 21.970703 A 1.50015 1.50015 0 0 0 20.632812 22.398438 C 19.301171 23.666815 18.795753 25.241865 18.863281 26.556641 C 18.930811 27.871416 19.382099 28.918992 19.605469 29.724609 A 1.50015 1.50015 0 1 0 22.496094 28.921875 C 22.208464 27.884493 21.891847 27.034569 21.859375 26.402344 C 21.826905 25.770119 21.887765 25.346935 22.703125 24.570312 A 1.50015 1.50015 0 0 0 21.675781 21.970703 z M 35.701172 25.695312 C 35.609286 26.123282 35.537647 26.533112 35.460938 26.873047 C 35.233238 27.882088 35.061701 28.514224 33.875 29.253906 A 1.50015 1.50015 0 1 0 35.460938 31.800781 C 37.380237 30.604463 38.096418 28.819662 38.386719 27.533203 C 38.540064 26.853658 38.642021 26.367022 38.746094 26.011719 C 39.548646 26.416713 40.072332 27.040206 40.251953 27.626953 C 40.960291 29.939909 39.681469 33.748892 37.888672 35.666016 C 36.391983 37.266725 34.295327 38.338473 32.054688 39.107422 L 32.052734 39.107422 C 30.253614 39.726261 28.844935 40.816651 26.208984 40.431641 C 27.16556 39.086337 27.820848 37.550643 28.324219 36.035156 C 28.951743 36.343416 29.55879 36.651414 30.072266 36.974609 A 1.50015 1.50015 0 1 0 31.671875 34.4375 C 30.842704 33.915597 29.977264 33.49706 29.175781 33.109375 A 1.50015 1.50015 0 0 0 29.162109 33.103516 C 29.610009 31.30945 29.874132 29.46135 29.966797 27.599609 C 31.173553 27.479831 32.365856 27.144325 33.458984 26.542969 C 34.266575 26.098702 35.014461 25.8345 35.701172 25.695312 z M 12.449219 30.951172 A 1.50015 1.50015 0 0 0 11.869141 33.810547 C 13.814975 34.750121 15.420112 35.708195 15.810547 36.783203 A 1.50015 1.50015 0 1 0 18.630859 35.759766 C 17.683294 33.150774 15.137994 32.055848 13.173828 31.107422 A 1.50015 1.50015 0 0 0 12.449219 30.951172 z"/></svg>