<svg fill="#000000" xmlns="http://www.w3.org/2000/svg"  viewBox="0 0 48 48" width="24px" height="24px"><path d="M 19.5 4 A 1.50015 1.50015 0 0 0 19 6.9199219 L 19 11.15625 C 19 13.742274 18.325676 16.281698 17.042969 18.527344 C 15.704324 20.869141 15 23.521666 15 26.21875 L 15 30 L 15 39.5 C 15 41.967501 17.032499 44 19.5 44 L 27.5 44 C 29.967501 44 32 41.967501 32 39.5 L 32 30 L 32 26.21875 C 32 23.521666 31.295676 20.869141 29.957031 18.527344 C 28.674324 16.281698 28 13.742274 28 11.15625 L 28 6.9199219 A 1.50015 1.50015 0 0 0 27.5 4 L 26.5 4 L 20.5 4 L 19.5 4 z M 22 7 L 25 7 L 25 11.15625 C 25 12.120306 25.217411 13.05538 25.371094 14 L 21.628906 14 C 21.782589 13.05538 22 12.120306 22 11.15625 L 22 7 z M 20.884766 17 L 26.115234 17 C 26.47362 18.026716 26.80804 19.064076 27.351562 20.015625 A 1.50015 1.50015 0 0 0 27.353516 20.015625 C 27.846619 20.878288 28.227904 21.795091 28.501953 22.742188 C 27.102381 21.65505 25.380641 21 23.5 21 C 21.619359 21 19.897619 21.65505 18.498047 22.742188 C 18.772102 21.795091 19.15336 20.878288 19.646484 20.015625 A 1.50015 1.50015 0 0 0 19.648438 20.015625 C 20.191914 19.064076 20.52638 18.026716 20.884766 17 z M 23.5 24 C 26.497432 24 29 26.614479 29 30 C 29 33.385521 26.497432 36 23.5 36 C 20.502568 36 18 33.385521 18 30 C 18 26.614479 20.502568 24 23.5 24 z M 18 36.847656 C 19.477221 38.183112 21.391094 39 23.5 39 C 25.608906 39 27.522779 38.183112 29 36.847656 L 29 39.5 C 29 40.346499 28.346499 41 27.5 41 L 19.5 41 C 18.653501 41 18 40.346499 18 39.5 L 18 36.847656 z"/></svg>