<svg fill="#000000" xmlns="http://www.w3.org/2000/svg"  viewBox="0 0 48 48" width="24px" height="24px"><path d="M 31.390625 3.9277344 A 1.50015 1.50015 0 0 0 30.748047 4.0917969 C 26.933342 4.5432189 23.943324 7.7459106 24.035156 11.667969 C 24.126686 15.589779 27.260387 18.668379 31.103516 18.935547 A 1.50015 1.50015 0 0 0 31.228516 18.974609 L 31.34375 19.005859 L 31.347656 18.978516 C 31.489203 18.983616 31.610627 19.055694 31.753906 19.052734 A 1.50015 1.50015 0 0 0 32.330078 18.923828 C 34.206049 18.784766 36.45092 18.272515 38.521484 17.222656 C 39.677328 16.636598 40.760893 15.900582 41.605469 14.927734 C 42.450045 13.954887 43.048905 12.685626 43.03125 11.267578 C 43.013807 9.8492229 42.369747 8.5991841 41.490234 7.6601562 C 40.610722 6.7211284 39.499972 6.028715 38.322266 5.4863281 C 36.149279 4.4855702 33.800578 4.036861 31.904297 3.984375 A 1.50015 1.50015 0 0 0 31.509766 3.9277344 L 31.503906 3.9277344 L 31.396484 3.9277344 C 31.394784 3.9277547 31.392425 3.9277132 31.390625 3.9277344 z M 16.152344 6.2734375 C 15.486395 6.2828815 14.832112 6.4137564 14.226562 6.6308594 C 13.015464 7.0650653 11.940091 7.8103502 10.974609 8.6757812 C 9.1952493 10.270751 7.8544926 12.244631 7.0527344 13.962891 A 1.50015 1.50015 0 0 0 6.8359375 14.3125 L 6.7929688 14.417969 A 1.50015 1.50015 0 0 0 6.6875 15.066406 C 5.5832338 18.748085 7.3351264 22.767639 10.972656 24.242188 C 14.610736 25.716672 18.685226 24.061715 20.455078 20.636719 A 1.50015 1.50015 0 0 0 20.537109 20.544922 L 20.609375 20.451172 L 20.587891 20.4375 C 20.649141 20.308867 20.763853 20.22526 20.818359 20.091797 A 1.50015 1.50015 0 0 0 20.929688 19.511719 C 21.54721 17.735064 21.967557 15.471506 21.826172 13.154297 C 21.74724 11.860775 21.50283 10.575586 20.945312 9.4140625 C 20.387795 8.252539 19.458792 7.1976174 18.150391 6.6503906 C 17.49608 6.3767373 16.818292 6.2639935 16.152344 6.2734375 z M 31.5 6.9355469 C 32.865847 6.9313869 35.227415 7.3639992 37.066406 8.2109375 C 37.9987 8.6403006 38.795793 9.1717778 39.300781 9.7109375 C 39.338541 9.7512525 39.320879 9.7903385 39.355469 9.8300781 L 27.320312 9.9785156 C 27.929754 8.2348012 29.534592 6.9780055 31.5 6.9355469 z M 15.371094 9.453125 L 10.728516 20.558594 C 9.3709523 19.308411 8.8564675 17.338448 9.59375 15.519531 C 10.130974 14.264495 11.46698 12.261352 12.976562 10.908203 C 13.740832 10.223134 14.544896 9.7043722 15.240234 9.4550781 C 15.292104 9.4364811 15.321004 9.469053 15.371094 9.453125 z M 18.140625 10.607422 C 18.167205 10.657662 18.214434 10.657201 18.240234 10.710938 C 18.562655 11.382663 18.769706 12.314459 18.832031 13.335938 C 18.956682 15.378891 18.487732 17.780793 17.96875 19.050781 A 1.50015 1.50015 0 0 0 17.957031 19.085938 C 17.151167 20.883394 15.362141 21.867074 13.492188 21.726562 L 18.140625 10.607422 z M 39.394531 12.830078 C 39.359381 12.873878 39.378434 12.916488 39.339844 12.960938 C 38.851513 13.523433 38.076844 14.084059 37.164062 14.546875 C 35.338501 15.472508 32.948639 15.995143 31.576172 16.023438 A 1.50015 1.50015 0 0 0 31.535156 16.027344 C 29.568477 15.99943 27.957266 14.749951 27.34375 12.980469 L 39.394531 12.830078 z M 36.308594 21.789062 C 35.980842 21.771821 35.653903 21.781183 35.333984 21.814453 C 34.054309 21.947534 32.831445 22.413092 31.6875 23.023438 C 29.601866 24.136215 27.853366 25.711314 26.664062 27.175781 A 1.50015 1.50015 0 0 0 26.326172 27.511719 L 26.310547 27.53125 C 26.080156 27.382113 25.861866 27.221443 25.621094 27.083984 C 24.49567 26.441474 23.284986 25.941129 22.007812 25.771484 C 20.730639 25.60184 19.340301 25.802204 18.166016 26.597656 C 16.991536 27.392869 16.3019 28.618057 16.001953 29.869141 C 15.702006 31.120224 15.734471 32.429159 15.929688 33.710938 C 16.289558 36.073889 17.206643 38.278808 18.205078 39.890625 A 1.50015 1.50015 0 0 0 18.378906 40.257812 L 18.378906 40.259766 C 18.380006 40.261366 18.381712 40.262072 18.382812 40.263672 L 18.441406 40.351562 C 18.442125 40.352663 18.442559 40.354369 18.443359 40.355469 A 1.50015 1.50015 0 0 0 18.927734 40.794922 C 21.402782 43.736609 25.726742 44.471767 28.953125 42.236328 C 30.005462 41.507198 30.800612 40.554435 31.333984 39.488281 C 33.882512 39.849494 36.510441 38.860904 38.226562 36.765625 L 38.240234 36.755859 L 38.238281 36.753906 C 38.327131 36.644932 38.44372 36.572089 38.527344 36.457031 A 1.50015 1.50015 0 0 0 38.775391 35.914062 C 39.797543 34.336162 40.745374 32.241037 41.160156 29.958984 C 41.391902 28.683962 41.459889 27.37614 41.195312 26.115234 C 40.930732 24.854329 40.281044 23.610712 39.140625 22.767578 C 38.285214 22.135167 37.29185 21.840786 36.308594 21.789062 z M 35.644531 24.796875 C 35.699881 24.791075 35.7205 24.829712 35.773438 24.826172 L 30.769531 31.59375 A 1.50015 1.50015 0 0 0 30.445312 31.314453 A 1.50015 1.50015 0 0 0 30.443359 31.3125 C 29.949389 30.67235 29.344605 30.017629 28.673828 29.382812 C 29.481722 28.292295 31.293025 26.634858 33.101562 25.669922 C 34.007117 25.186768 34.909706 24.873294 35.644531 24.796875 z M 38.1875 26.607422 C 38.20142 26.662792 38.247466 26.673812 38.259766 26.732422 C 38.412748 27.461485 38.391986 28.415022 38.208984 29.421875 C 37.842976 31.43558 36.81462 33.655856 36.007812 34.765625 A 1.50015 1.50015 0 0 0 36.007812 34.767578 C 35.043677 36.021435 33.574484 36.647469 32.109375 36.556641 C 32.140993 36.00507 32.116343 35.448458 32.027344 34.896484 A 1.5006259 1.5006259 0 0 0 32.207031 34.697266 L 38.1875 26.607422 z M 21.613281 28.746094 C 22.351639 28.844164 23.244112 29.182089 24.132812 29.689453 C 25.910215 30.704182 27.662776 32.410997 28.441406 33.541016 A 1.50015 1.50015 0 0 0 28.462891 33.568359 C 29.526645 35.227446 29.370373 37.264074 28.228516 38.751953 L 21.470703 28.773438 C 21.527813 28.778737 21.553633 28.738164 21.613281 28.746094 z M 18.988281 30.457031 L 25.736328 40.421875 C 23.945243 40.873727 22.014149 40.225435 20.896484 38.609375 C 20.141523 37.471621 19.201382 35.259805 18.896484 33.257812 C 18.741945 32.243091 18.74768 31.286776 18.919922 30.568359 C 18.932762 30.514789 18.974181 30.507649 18.988281 30.457031 z"/></svg>