<?xml version="1.0" encoding="utf-8"?>
<!-- Generator: Adobe Illustrator 22.0.1, SVG Export Plug-In . SVG Version: 6.00 Build 0)  -->
<svg version="1.1" id="Layer_2" xmlns="http://www.w3.org/2000/svg" xmlns:xlink="http://www.w3.org/1999/xlink" x="0px" y="0px"
	 viewBox="0 0 256 256" style="enable-background:new 0 0 256 256;" xml:space="preserve">
<style type="text/css">
	.st0{fill:#3A312A;}
	.st1{fill:#D7E057;}
	.st2{fill:#FCE8CB;}
	.st3{fill:#8AC6DD;}
	.st4{fill-rule:evenodd;clip-rule:evenodd;fill:#FCE8CB;}
	.st5{fill:#F5978A;}
	.st6{fill:#87796F;}
	.st7{fill:#F16C7A;}
	.st8{fill:#68A8BC;}
	.st9{fill:#B9BC39;}
	.st10{fill:#CE4E61;}
	.st11{fill:#6B5B51;}
	.st12{fill:#CCAE8B;}
	.st13{fill-rule:evenodd;clip-rule:evenodd;fill:#F16C7A;}
</style>
<g>
	<g>
		<g>
			<path class="st1" d="M52.294,26.731C51.32,38.295,39.27,40.121,39.27,40.121C49.616,40.608,52.195,54.18,52.195,54.18
				c0.221-9.677,13.321-14.202,13.321-14.202C55.702,39.391,52.294,26.731,52.294,26.731z"/>
		</g>
	</g>
	<g>
		<g>
			<path class="st0" d="M65.605,38.48C57,37.966,53.773,26.456,53.742,26.34c-0.191-0.703-0.866-1.167-1.583-1.102
				c-0.725,0.066-1.298,0.642-1.359,1.367c-0.86,10.215-11.313,11.964-11.754,12.032c-0.763,0.116-1.313,0.791-1.273,1.561
				c0.04,0.771,0.657,1.385,1.427,1.421c9.028,0.426,11.499,12.719,11.523,12.844c0.137,0.711,0.759,1.217,1.472,1.217
				c0.042,0,0.084-0.002,0.126-0.005c0.764-0.064,1.357-0.693,1.375-1.46c0.195-8.51,12.192-12.778,12.313-12.82
				c0.675-0.234,1.092-0.914,0.994-1.622C66.903,39.063,66.319,38.522,65.605,38.48z M52.04,48.827
				c-1.357-3.131-3.708-6.908-7.587-8.877c2.931-1.405,6.409-3.913,8.202-8.273c1.551,3.071,4.2,6.88,8.334,8.723
				C57.981,42.039,54.066,44.806,52.04,48.827z"/>
		</g>
	</g>
	<g>
		<g>
			<path class="st1" d="M30.595,43.712c-0.689,8.179-9.212,9.47-9.212,9.47c7.318,0.344,9.142,9.944,9.142,9.944
				c0.156-6.844,9.422-10.045,9.422-10.045C33.006,52.666,30.595,43.712,30.595,43.712z"/>
		</g>
	</g>
	<g>
		<g>
			<path class="st0" d="M40.037,51.584c-5.766-0.345-7.972-8.186-7.994-8.265c-0.19-0.702-0.854-1.169-1.582-1.102
				c-0.726,0.065-1.299,0.643-1.36,1.368c-0.579,6.871-7.646,8.066-7.942,8.113c-0.763,0.116-1.313,0.791-1.273,1.561
				c0.04,0.771,0.657,1.385,1.427,1.421c6.036,0.284,7.724,8.645,7.739,8.727c0.135,0.712,0.759,1.22,1.472,1.22
				c0.042,0,0.083-0.002,0.125-0.005c0.765-0.063,1.358-0.693,1.376-1.461c0.13-5.709,8.332-8.634,8.413-8.662
				c0.677-0.234,1.094-0.913,0.996-1.622C41.336,52.168,40.751,51.626,40.037,51.584z M30.452,58.379
				c-0.924-1.886-2.34-3.947-4.447-5.279c1.855-1.041,3.697-2.63,4.871-4.917c1.057,1.874,2.654,3.955,4.941,5.224
				C33.967,54.507,31.828,56.146,30.452,58.379z"/>
		</g>
	</g>
	<g>
		<g>
			<path class="st1" d="M30.595,17.054c-0.689,8.179-9.212,9.471-9.212,9.471c7.318,0.344,9.142,9.944,9.142,9.944
				c0.156-6.844,9.422-10.045,9.422-10.045C33.006,26.009,30.595,17.054,30.595,17.054z"/>
		</g>
	</g>
	<g>
		<g>
			<path class="st0" d="M40.037,24.927c-5.766-0.345-7.972-8.186-7.994-8.265c-0.19-0.702-0.854-1.162-1.582-1.102
				c-0.726,0.065-1.299,0.643-1.36,1.368c-0.579,6.87-7.646,8.066-7.942,8.113c-0.763,0.116-1.314,0.791-1.273,1.561
				c0.04,0.771,0.657,1.385,1.428,1.421c6.035,0.284,7.723,8.645,7.739,8.727c0.135,0.712,0.759,1.22,1.472,1.22
				c0.042,0,0.083-0.002,0.125-0.005c0.765-0.063,1.358-0.693,1.376-1.461c0.13-5.709,8.332-8.634,8.413-8.662
				c0.677-0.234,1.094-0.913,0.996-1.622C41.336,25.511,40.751,24.969,40.037,24.927z M30.452,31.722
				c-0.924-1.886-2.34-3.947-4.447-5.28c1.855-1.041,3.697-2.629,4.87-4.916c1.057,1.874,2.654,3.955,4.941,5.224
				C33.967,27.85,31.828,29.489,30.452,31.722z"/>
		</g>
	</g>
	<g>
		<g>
			<path class="st6" d="M120.407,42.643c-5.982-11.112-16.509-17.064-23.513-13.294c-7.004,3.771-7.831,15.835-1.849,26.948
				c5.982,11.112,16.509,17.064,23.513,13.293C125.561,65.819,126.389,53.755,120.407,42.643z"/>
		</g>
	</g>
	<g>
		<g>
			<path class="st0" d="M121.727,41.932c-6.365-11.822-17.823-18.06-25.544-13.903c-3.857,2.076-6.194,6.316-6.58,11.938
				c-0.368,5.368,1.095,11.42,4.121,17.04c3.026,5.62,7.272,10.175,11.956,12.823c2.823,1.596,5.619,2.4,8.22,2.4
				c1.919,0,3.731-0.438,5.369-1.32c3.857-2.076,6.194-6.316,6.58-11.938C126.217,53.604,124.753,47.552,121.727,41.932z
				 M122.855,58.767c-0.312,4.558-2.091,7.932-5.009,9.503c-2.917,1.569-6.713,1.198-10.69-1.052
				c-4.198-2.373-8.03-6.505-10.791-11.633c-2.761-5.128-4.1-10.602-3.769-15.413c0.313-4.557,2.091-7.932,5.009-9.502
				c1.224-0.659,2.575-0.972,4-0.972c5.872,0,12.99,5.314,17.481,13.655C121.847,48.482,123.185,53.956,122.855,58.767z"/>
		</g>
	</g>
	<g>
		<g>
			<path class="st0" d="M119.663,56.213c-2.199-4.156-6.149-7.049-11.125-8.145l-0.755-0.166c-4.081-0.898-7.313-3.234-9.097-6.578
				c-1.788-3.35-1.93-7.345-0.399-11.25l0.045-0.116c0.302-0.771-0.08-1.642-0.851-1.943c-0.77-0.298-1.642,0.079-1.943,0.852
				l-0.045,0.114c-1.856,4.734-1.662,9.62,0.546,13.757c2.205,4.13,6.146,7.005,11.1,8.095l0.754,0.166
				c4.1,0.903,7.338,3.253,9.119,6.618c1.786,3.377,1.905,7.396,0.335,11.318c-0.308,0.769,0.066,1.643,0.835,1.95
				c0.183,0.073,0.372,0.107,0.557,0.107c0.595,0,1.158-0.356,1.393-0.942C122.035,65.296,121.869,60.382,119.663,56.213z"/>
		</g>
	</g>
	<g>
		<g>
			
				<ellipse transform="matrix(0.9717 -0.2361 0.2361 0.9717 -5.4566 32.3883)" class="st6" cx="132.493" cy="38.976" rx="14.402" ry="22.851"/>
		</g>
	</g>
	<g>
		<g>
			<path class="st0" d="M147.945,35.221c-3.172-13.046-12.682-21.971-21.203-19.908c-8.52,2.071-12.872,14.371-9.702,27.418
				c2.863,11.782,10.895,20.207,18.701,20.206c0.838,0,1.676-0.098,2.502-0.298C146.764,60.566,151.116,48.268,147.945,35.221z
				 M137.534,59.723c-6.913,1.683-14.799-6.262-17.579-17.701s0.583-22.113,7.495-23.793c0.622-0.151,1.25-0.225,1.882-0.225
				c6.406,0,13.166,7.514,15.696,17.926C147.81,47.368,144.447,58.042,137.534,59.723z"/>
		</g>
	</g>
	<g>
		<g>
			<path class="st0" d="M142.339,48.517c-1.077-4.577-4.169-8.374-8.706-10.691l-0.688-0.352c-3.723-1.901-6.259-4.978-7.14-8.664
				c-0.883-3.692-0.011-7.594,2.453-10.979l0.074-0.101c0.49-0.668,0.345-1.606-0.323-2.097c-0.667-0.487-1.605-0.346-2.097,0.323
				l-0.077,0.104c-2.992,4.111-4.039,8.887-2.948,13.447c1.089,4.553,4.176,8.331,8.694,10.638l0.688,0.352
				c3.739,1.909,6.278,5.002,7.149,8.707c0.876,3.719-0.025,7.639-2.535,11.036c-0.492,0.666-0.352,1.605,0.315,2.098
				c0.268,0.198,0.581,0.294,0.891,0.294c0.459,0,0.913-0.211,1.207-0.608C142.338,57.905,143.419,53.108,142.339,48.517z"/>
		</g>
	</g>
	<g>
		<g>
			<path class="st6" d="M174.831,36.741c-5.982-11.112-16.509-17.064-23.513-13.294c-7.004,3.771-7.831,15.835-1.849,26.948
				s16.509,17.064,23.513,13.293C179.985,59.918,180.813,47.854,174.831,36.741z"/>
		</g>
	</g>
	<g>
		<g>
			<path class="st0" d="M176.152,36.03C176.151,36.03,176.151,36.03,176.152,36.03c-6.365-11.822-17.828-18.059-25.546-13.902
				c-7.721,4.156-8.823,17.156-2.458,28.979c5.026,9.338,13.232,15.19,20.263,15.19c1.87,0,3.659-0.414,5.281-1.288
				C181.412,60.854,182.516,47.854,176.152,36.03z M172.271,62.368c-6.264,3.369-15.899-2.317-21.481-12.684
				c-5.58-10.366-5.025-21.543,1.239-24.916c1.224-0.658,2.575-0.971,4.001-0.971c5.873,0,12.99,5.313,17.48,13.654
				C179.09,47.818,178.534,58.996,172.271,62.368z"/>
		</g>
	</g>
	<g>
		<g>
			<path class="st0" d="M174.087,50.312c-2.199-4.156-6.15-7.049-11.125-8.145l-0.756-0.166c-4.082-0.898-7.313-3.234-9.097-6.578
				c-1.788-3.35-1.93-7.345-0.4-11.245l0.046-0.116c0.304-0.771-0.074-1.642-0.845-1.946c-0.77-0.303-1.642,0.073-1.946,0.845
				l-0.047,0.119c-1.855,4.734-1.662,9.62,0.546,13.756c2.204,4.131,6.146,7.006,11.099,8.096l0.756,0.166
				c4.1,0.902,7.338,3.253,9.117,6.618c1.787,3.377,1.906,7.396,0.336,11.318c-0.308,0.77,0.066,1.643,0.835,1.95
				c0.183,0.073,0.371,0.107,0.558,0.107c0.595,0,1.158-0.356,1.393-0.942C176.459,59.395,176.292,54.48,174.087,50.312z"/>
		</g>
	</g>
	<g>
		<g>
			<path class="st6" d="M83.37,67.648c-2.331-7.605-14.001-10.772-26.068-7.074c-12.066,3.698-19.959,12.86-17.628,20.465
				c2.331,7.605,14.001,10.772,26.068,7.074C77.808,84.416,85.7,75.253,83.37,67.648z"/>
		</g>
	</g>
	<g>
		<g>
			<path class="st0" d="M84.804,67.209c-2.57-8.384-15.106-12.003-27.941-8.069c-6.103,1.87-11.398,5.146-14.91,9.223
				c-3.678,4.27-4.997,8.928-3.713,13.116c1.284,4.188,4.985,7.308,10.424,8.784c2.214,0.601,4.614,0.899,7.112,0.899
				c3.363-0.001,6.903-0.542,10.405-1.614C79.019,85.613,87.373,75.592,84.804,67.209z M65.302,86.679
				c-5.569,1.707-11.199,1.951-15.852,0.688c-4.408-1.196-7.371-3.6-8.342-6.768c-0.971-3.168,0.137-6.818,3.118-10.279
				c3.147-3.653,7.947-6.605,13.516-8.312c3.31-1.015,6.582-1.495,9.609-1.495c7.268,0,13.113,2.772,14.585,7.574
				C84.02,74.89,76.558,83.229,65.302,86.679z"/>
		</g>
	</g>
	<g>
		<g>
			<path class="st0" d="M84.128,66.194c-4.29-2.794-9.143-3.591-13.663-2.242c-4.506,1.346-8.114,4.655-10.16,9.322l-0.309,0.707
				c-1.679,3.829-4.601,6.541-8.229,7.639c-3.636,1.099-7.58,0.458-11.111-1.806l-0.105-0.067c-0.698-0.447-1.626-0.242-2.072,0.456
				s-0.242,1.626,0.456,2.071l0.104,0.066c2.896,1.857,6.042,2.807,9.165,2.807c1.493,0,2.98-0.217,4.431-0.656
				c4.482-1.355,8.071-4.66,10.109-9.307l0.309-0.707c1.686-3.845,4.623-6.562,8.27-7.65c3.662-1.093,7.627-0.425,11.167,1.881
				c0.695,0.453,1.624,0.256,2.076-0.438C85.019,67.576,84.822,66.646,84.128,66.194z"/>
		</g>
	</g>
	<g>
		<g>
			<ellipse class="st6" cx="82.379" cy="58.609" rx="14.402" ry="22.851"/>
		</g>
	</g>
	<g>
		<g>
			<path class="st0" d="M82.379,34.258c-8.768,0-15.902,10.924-15.902,24.351c0,13.428,7.134,24.352,15.902,24.352
				c8.768,0,15.902-10.924,15.902-24.352C98.281,45.182,91.147,34.258,82.379,34.258z M82.379,79.96
				c-7.114,0-12.902-9.578-12.902-21.352c0-11.772,5.788-21.351,12.902-21.351c7.114,0,12.902,9.578,12.902,21.351
				C95.281,70.382,89.493,79.96,82.379,79.96z"/>
		</g>
	</g>
	<g>
		<g>
			<path class="st0" d="M83.758,57.761l-0.586-0.505c-3.169-2.727-4.906-6.314-4.892-10.104c0.014-3.797,1.782-7.381,4.982-10.095
				l0.095-0.081c0.631-0.537,0.707-1.484,0.17-2.115c-0.537-0.631-1.484-0.707-2.114-0.17l-0.093,0.08
				c-3.878,3.288-6.023,7.682-6.04,12.37c-0.017,4.682,2.091,9.081,5.935,12.389l0.586,0.505c3.182,2.738,4.919,6.343,4.892,10.149
				c-0.028,3.82-1.829,7.416-5.071,10.125c-0.636,0.531-0.72,1.478-0.189,2.113c0.296,0.354,0.723,0.538,1.152,0.538
				c0.339,0,0.68-0.114,0.961-0.349c3.93-3.284,6.113-7.689,6.147-12.406C89.727,65.503,87.62,61.083,83.758,57.761z"/>
		</g>
	</g>
	<g>
		<g>
			<path class="st6" d="M127.526,49.807c-5.783-5.461-17.495-2.451-26.161,6.724c-8.666,9.175-11.003,21.04-5.22,26.501
				c5.782,5.461,17.495,2.451,26.16-6.724S133.309,55.268,127.526,49.807z"/>
		</g>
	</g>
	<g>
		<g>
			<path class="st0" d="M128.556,48.716c-6.374-6.02-19.062-2.976-28.281,6.784c-9.22,9.762-11.535,22.602-5.16,28.623
				c2.217,2.094,5.197,3.091,8.529,3.091c6.249,0,13.738-3.509,19.751-9.875C132.616,67.577,134.931,54.737,128.556,48.716z
				 M121.215,75.278c-8.084,8.56-18.868,11.549-24.04,6.663c-5.172-4.885-2.803-15.822,5.281-24.381
				c5.451-5.771,12.129-9.01,17.488-9.01c2.588,0,4.868,0.756,6.552,2.347C131.668,55.782,129.299,66.72,121.215,75.278z"/>
		</g>
	</g>
	<g>
		<g>
			<path class="st0" d="M127.561,48.368l-0.127-0.007c-5.078-0.276-9.653,1.449-12.885,4.846c-3.227,3.393-4.716,8.039-4.193,13.084
				l0.08,0.77c0.434,4.175-0.778,7.987-3.412,10.736c-2.643,2.759-6.418,4.145-10.639,3.879c-0.83-0.039-1.538,0.579-1.588,1.406
				c-0.051,0.826,0.579,1.538,1.406,1.588c0.398,0.024,0.792,0.036,1.183,0.036c4.637,0,8.794-1.693,11.804-4.834
				c3.254-3.395,4.756-8.055,4.231-13.122l-0.08-0.77c-0.432-4.157,0.77-7.959,3.382-10.705c2.617-2.751,6.357-4.136,10.549-3.918
				l0.125,0.007c0.817,0.025,1.535-0.589,1.58-1.416C129.022,49.121,128.389,48.414,127.561,48.368z"/>
		</g>
	</g>
	<g>
		<g>
			<ellipse class="st6" cx="183.658" cy="60.791" rx="14.402" ry="22.851"/>
		</g>
	</g>
	<g>
		<g>
			<path class="st0" d="M183.658,36.439c-8.769,0-15.902,10.924-15.902,24.352c0,13.427,7.134,24.351,15.902,24.351
				c8.768,0,15.901-10.924,15.901-24.351C199.56,47.363,192.426,36.439,183.658,36.439z M183.658,82.142
				c-7.114,0-12.902-9.578-12.902-21.351c0-11.773,5.788-21.352,12.902-21.352s12.901,9.578,12.901,21.352
				C196.56,72.563,190.772,82.142,183.658,82.142z"/>
		</g>
	</g>
	<g>
		<g>
			<path class="st0" d="M185.037,59.941l-0.586-0.503c-3.169-2.727-4.906-6.316-4.893-10.105c0.014-3.797,1.783-7.382,4.986-10.098
				l0.095-0.081c0.629-0.538,0.703-1.485,0.164-2.115c-0.538-0.629-1.482-0.703-2.115-0.164l-0.089,0.076
				c-3.879,3.289-6.023,7.682-6.041,12.37c-0.017,4.682,2.091,9.082,5.936,12.392l0.586,0.503c3.182,2.738,4.919,6.343,4.892,10.148
				c-0.027,3.821-1.828,7.417-5.07,10.126c-0.636,0.531-0.721,1.478-0.189,2.113c0.297,0.354,0.723,0.538,1.152,0.538
				c0.339,0,0.681-0.114,0.961-0.349c3.93-3.284,6.112-7.689,6.146-12.407C191.006,67.684,188.898,63.265,185.037,59.941z"/>
		</g>
	</g>
	<g>
		<g>
			<path class="st6" d="M213.895,61.912c-9.128-8.715-20.981-11.115-26.473-5.362s-2.545,17.481,6.584,26.196
				c9.129,8.714,20.981,11.115,26.473,5.362C225.971,82.354,223.023,70.626,213.895,61.912z"/>
		</g>
	</g>
	<g>
		<g>
			<path class="st0" d="M224.124,75.755c-1.312-5.219-4.576-10.521-9.193-14.928c-4.617-4.408-10.064-7.424-15.338-8.492
				c-5.52-1.118-10.231,0.01-13.256,3.179c-6.055,6.343-3.079,19.045,6.632,28.317c4.617,4.408,10.065,7.424,15.339,8.491
				c1.391,0.282,2.729,0.421,4.003,0.421c3.784,0,6.989-1.229,9.253-3.6C224.588,85.975,225.498,81.22,224.124,75.755z
				 M219.394,87.071c-2.288,2.396-6.012,3.217-10.49,2.312c-4.727-0.958-9.649-3.7-13.862-7.722
				c-8.516-8.13-11.446-18.93-6.534-24.075c1.681-1.761,4.136-2.67,7.095-2.67c1.07,0,2.207,0.119,3.396,0.359
				c4.727,0.958,9.649,3.7,13.861,7.722c4.213,4.021,7.181,8.812,8.356,13.488C222.328,80.916,221.682,84.675,219.394,87.071z"/>
		</g>
	</g>
	<g>
		<g>
			<path class="st0" d="M217.388,75.045c-3.377-3.271-8.028-4.796-13.1-4.3l-0.769,0.076c-4.157,0.408-7.956-0.812-10.688-3.439
				c-2.737-2.632-4.108-6.386-3.862-10.566l0.008-0.125c0.052-0.827-0.577-1.539-1.403-1.591c-0.845-0.041-1.539,0.576-1.591,1.403
				l-0.008,0.131c-0.299,5.076,1.397,9.661,4.777,12.911c3.374,3.245,8.016,4.755,13.061,4.263l0.769-0.076
				c4.181-0.416,7.984,0.82,10.719,3.469c2.744,2.658,4.102,6.444,3.822,10.659c-0.055,0.827,0.571,1.542,1.397,1.597
				c0.034,0.002,0.067,0.003,0.102,0.003c0.783,0,1.442-0.608,1.495-1.4C222.455,82.948,220.775,78.327,217.388,75.045z"/>
		</g>
	</g>
	<g>
		<g>
			<path class="st6" d="M149.3,45.57c-7.154-3.476-17.425,2.909-22.94,14.26c-5.515,11.352-4.186,23.371,2.968,26.847
				s17.425-2.909,22.94-14.26C157.784,61.066,156.455,49.046,149.3,45.57z"/>
		</g>
	</g>
	<g>
		<g>
			<path class="st0" d="M157.026,55.875c-0.619-5.601-3.13-9.739-7.07-11.654c-3.941-1.913-8.747-1.329-13.532,1.646
				c-4.569,2.84-8.622,7.566-11.412,13.309c-2.789,5.741-4,11.849-3.409,17.197c0.619,5.601,3.13,9.739,7.07,11.654
				c1.523,0.739,3.174,1.106,4.904,1.106c2.747,0,5.691-0.926,8.629-2.752c4.569-2.841,8.622-7.567,11.412-13.309
				C156.407,67.331,157.617,61.224,157.026,55.875z M150.919,71.762c-2.545,5.238-6.202,9.526-10.297,12.072
				c-3.879,2.411-7.655,2.943-10.638,1.493c-2.98-1.447-4.898-4.745-5.399-9.285c-0.53-4.793,0.58-10.317,3.125-15.557
				c2.546-5.239,6.202-9.526,10.298-12.072c2.446-1.521,4.853-2.293,7.044-2.293c1.283,0,2.493,0.265,3.594,0.8
				c2.979,1.447,4.898,4.745,5.399,9.285C154.574,60.998,153.465,66.522,150.919,71.762z"/>
		</g>
	</g>
	<g>
		<g>
			<path class="st0" d="M150.726,45.266c-0.206-0.803-1.022-1.284-1.827-1.077l-0.119,0.03c-4.925,1.264-8.774,4.277-10.838,8.487
				c-2.061,4.204-2.088,9.082-0.075,13.739l0.307,0.708c1.665,3.854,1.653,7.855-0.035,11.267c-1.695,3.425-4.887,5.872-8.986,6.892
				c-0.804,0.2-1.294,1.015-1.093,1.818c0.169,0.683,0.782,1.138,1.455,1.138c0.12,0,0.241-0.014,0.363-0.044
				c4.969-1.236,8.858-4.245,10.95-8.473c2.086-4.215,2.121-9.111,0.1-13.789l-0.307-0.708c-1.658-3.837-1.653-7.824,0.016-11.227
				c1.672-3.41,4.829-5.861,8.893-6.903l0.121-0.031C150.45,46.886,150.933,46.068,150.726,45.266z"/>
		</g>
	</g>
	<g>
		<g>
			<path class="st6" d="M177.925,68.648c-7.605-10.072-18.916-14.35-25.263-9.557c-6.348,4.793-5.328,16.843,2.277,26.914
				c7.605,10.072,18.916,14.351,25.263,9.557S185.53,78.719,177.925,68.648z"/>
		</g>
	</g>
	<g>
		<g>
			<path class="st0" d="M185.791,83.958c-0.454-5.362-2.822-11.121-6.669-16.215s-8.736-8.947-13.77-10.852
				c-5.271-1.993-10.099-1.637-13.595,1.002c-6.997,5.284-6.107,18.3,1.983,29.016c5.772,7.643,13.673,12.083,20.268,12.082
				c2.651,0,5.091-0.717,7.098-2.231C184.602,94.12,186.266,89.573,185.791,83.958z M179.298,94.365
				c-5.674,4.286-16.066,0.132-23.162-9.265c-7.095-9.395-8.247-20.526-2.569-24.813c1.468-1.108,3.295-1.666,5.361-1.666
				c1.655,0,3.464,0.357,5.363,1.076c4.511,1.706,8.927,5.205,12.437,9.854c3.51,4.647,5.667,9.854,6.073,14.659
				C183.187,88.763,181.942,92.369,179.298,94.365z"/>
		</g>
	</g>
	<g>
		<g>
			<path class="st0" d="M179.258,82.174c-2.807-3.773-7.152-6.03-12.235-6.355l-0.773-0.05c-4.172-0.266-7.721-2.083-9.993-5.115
				c-2.277-3.039-3.026-6.965-2.107-11.057l0.027-0.122c0.181-0.809-0.327-1.61-1.136-1.792c-0.81-0.178-1.611,0.328-1.792,1.136
				l-0.027,0.122c-1.113,4.961-0.178,9.76,2.635,13.512c2.808,3.746,7.141,5.987,12.201,6.311l0.772,0.05
				c4.19,0.268,7.749,2.097,10.021,5.151c2.28,3.065,3.01,7.021,2.055,11.136c-0.188,0.807,0.314,1.612,1.122,1.8
				c0.114,0.026,0.228,0.039,0.34,0.039c0.683,0,1.3-0.468,1.46-1.161C182.985,90.79,182.072,85.958,179.258,82.174z"/>
		</g>
	</g>
	<g>
		<g>
			<path class="st2" d="M228.623,216.11c-1.84-1.16-3.32-2.75-4.34-4.6c-1.01-1.84-1.57-3.94-1.57-6.12V76.552h-179.9V205.39
				c0,4.35-2.23,8.4-5.91,10.72c-4.03,2.55-5.87,6.48-5.87,10.4c0,6.52,5.1,13,13.68,13h178.18
				C234.563,239.51,239.373,222.9,228.623,216.11z"/>
		</g>
	</g>
	<g>
		<g>
			<path class="st0" d="M229.423,214.84c-1.595-1.004-2.918-2.406-3.824-4.052c-0.906-1.651-1.386-3.518-1.386-5.398V76.552
				c0-0.828-0.672-1.5-1.5-1.5h-179.9c-0.829,0-1.5,0.672-1.5,1.5v83.078c0,0.828,0.671,1.5,1.5,1.5s1.5-0.672,1.5-1.5V78.052h176.9
				V205.39c0,2.384,0.607,4.749,1.757,6.844c1.152,2.092,2.831,3.871,4.853,5.145c5.33,3.367,5.925,9.043,4.814,12.88
				c-1.035,3.576-4.207,7.752-9.743,7.752H44.713c-7.911,0-12.18-5.925-12.18-11.5c0-3.725,1.885-7.054,5.17-9.132
				c4.139-2.608,6.61-7.09,6.61-11.988v-31.547c0-0.828-0.671-1.5-1.5-1.5s-1.5,0.672-1.5,1.5v31.547
				c0,3.861-1.947,7.395-5.211,9.452c-4.174,2.641-6.568,6.894-6.568,11.668c0,7.128,5.678,14.5,15.18,14.5h178.18
				c5.926,0,10.882-3.893,12.625-9.918C237.361,224.724,234.97,218.345,229.423,214.84z"/>
		</g>
	</g>
	<g>
		<g>
			<path class="st2" d="M220.754,76.552H44.892c-6.875,0-12.449,5.574-12.449,12.449v16.487c0,6.875,5.574,12.449,12.449,12.449
				h175.862c6.875,0,12.449-5.574,12.449-12.449V89.001C233.203,82.125,227.63,76.552,220.754,76.552z"/>
		</g>
	</g>
	<g>
		<g>
			<path class="st0" d="M220.754,75.052H44.892c-7.691,0-13.949,6.258-13.949,13.949v16.486c0,7.691,6.257,13.949,13.949,13.949
				h124.135c0.828,0,1.5-0.672,1.5-1.5s-0.672-1.5-1.5-1.5H44.892c-6.037,0-10.949-4.912-10.949-10.949V89.001
				c0-6.037,4.912-10.949,10.949-10.949h175.862c6.037,0,10.949,4.912,10.949,10.949v16.486c0,6.037-4.912,10.949-10.949,10.949
				h-37.801c-0.828,0-1.5,0.672-1.5,1.5s0.672,1.5,1.5,1.5h37.801c7.691,0,13.949-6.258,13.949-13.949V89.001
				C234.703,81.31,228.445,75.052,220.754,75.052z"/>
		</g>
	</g>
	<g>
		<g>
			
				<ellipse transform="matrix(0.9975 -0.0709 0.0709 0.9975 -11.4064 9.8324)" class="st1" cx="132.823" cy="165.618" rx="37.548" ry="37.548"/>
		</g>
	</g>
	<g>
		<g>
			<path class="st0" d="M132.823,126.569c-21.531,0-39.048,17.518-39.048,39.049s17.517,39.048,39.048,39.048
				c21.531,0,39.048-17.517,39.048-39.048S154.354,126.569,132.823,126.569z M132.823,201.666
				c-19.877,0-36.048-16.171-36.048-36.048s16.171-36.049,36.048-36.049c19.877,0,36.048,16.172,36.048,36.049
				S152.7,201.666,132.823,201.666z"/>
		</g>
	</g>
	<g>
		<g>
			<ellipse class="st6" cx="132.823" cy="165.714" rx="14.996" ry="23.794"/>
		</g>
	</g>
	<g>
		<g>
			<path class="st0" d="M132.823,140.42c-9.096,0-16.497,11.347-16.497,25.294s7.4,25.294,16.497,25.294
				c9.096,0,16.496-11.347,16.496-25.294S141.919,140.42,132.823,140.42z M132.823,188.008c-7.442,0-13.497-10.001-13.497-22.294
				s6.055-22.294,13.497-22.294c7.441,0,13.496,10.001,13.496,22.294S140.265,188.008,132.823,188.008z"/>
		</g>
	</g>
	<g>
		<g>
			<path class="st0" d="M134.219,164.877l-0.61-0.524c-3.313-2.851-5.129-6.604-5.115-10.568c0.014-3.973,1.863-7.723,5.204-10.556
				l0.1-0.084c0.634-0.534,0.714-1.48,0.18-2.113c-0.534-0.633-1.48-0.714-2.113-0.18l-0.103,0.087
				c-4.024,3.412-6.25,7.971-6.268,12.835c-0.018,4.855,2.169,9.421,6.159,12.854l0.61,0.524c3.327,2.863,5.144,6.633,5.115,10.614
				c-0.029,3.997-1.912,7.759-5.303,10.591c-0.636,0.531-0.721,1.478-0.19,2.113c0.297,0.354,0.723,0.538,1.152,0.538
				c0.339,0,0.68-0.114,0.961-0.349c4.077-3.407,6.343-7.979,6.378-12.872C140.413,172.91,138.226,168.325,134.219,164.877z"/>
		</g>
	</g>
	<g>
		<g>
			<path class="st12" d="M227.823,217.38c-2.02-1.28-3.7-3.06-4.85-5.15c-1.15-2.09-1.76-4.46-1.76-6.84v-85.95h-14.9v85.95
				c0,2.38,0.61,4.75,1.76,6.84c1.15,2.09,2.83,3.87,4.85,5.15c5.33,3.36,5.92,9.04,4.81,12.88c-1.03,3.57-4.2,7.75-9.74,7.75h14.9
				c5.54,0,8.71-4.18,9.74-7.75C233.743,226.42,233.153,220.74,227.823,217.38z"/>
		</g>
	</g>
	<g>
		<g>
			<path class="st12" d="M222.633,78.05h-14.9c5,0,9.07,4.07,9.07,9.08v20.23c0,5.01-4.07,9.08-9.07,9.08h14.9
				c5,0,9.07-4.07,9.07-9.08V87.13C231.703,82.12,227.633,78.05,222.633,78.05z"/>
		</g>
	</g>
</g>
</svg>
