<svg fill="#000000" xmlns="http://www.w3.org/2000/svg"  viewBox="0 0 48 48" width="24px" height="24px"><path d="M 20.492188 3.3183594 C 19.359721 3.3748784 18.248535 3.8823067 17.476562 4.8261719 L 10.791016 13 L 10.533203 13 C 8.0749191 13 6.3475513 15.619386 7.3164062 17.878906 L 8.9355469 21.660156 C 8.8474051 22.072665 8.2315398 24.941713 7.5273438 28.515625 C 7.150868 30.426302 6.7753117 32.41598 6.4902344 34.095703 C 6.205157 35.775426 6 37.032424 6 37.951172 C 6 41.241696 8.9400754 43.827673 12.205078 43.40625 L 21.912109 42.152344 A 1.50015 1.50015 0 0 0 21.914062 42.152344 C 22.960529 42.017046 25.040103 42.016984 26.087891 42.152344 L 35.796875 43.40625 C 39.075888 43.829658 42.290803 41.249573 41.994141 37.822266 C 41.845292 36.106009 41.099368 32.117884 40.378906 28.357422 C 39.70506 24.84027 39.143264 22.063134 39.0625 21.664062 L 40.683594 17.878906 C 41.515261 15.939329 40.314666 13.837486 38.416016 13.251953 L 33.03125 6.421875 C 31.503735 4.4857847 28.566651 4.3122555 26.822266 6.0566406 C 26.356982 6.5219245 25.643018 6.5219245 25.177734 6.0566406 L 23.640625 4.5175781 C 22.778697 3.6556499 21.624653 3.2618409 20.492188 3.3183594 z M 20.640625 6.2871094 C 20.951659 6.2716284 21.268459 6.3895532 21.519531 6.640625 L 23.056641 8.1777344 C 24.669357 9.7904505 27.330643 9.7904505 28.943359 8.1777344 C 29.452974 7.6681195 30.229296 7.7133872 30.675781 8.2792969 L 34.396484 13 L 14.664062 13 L 19.798828 6.7265625 C 20.023856 6.4514277 20.329591 6.3025909 20.640625 6.2871094 z M 10.533203 16 L 11.277344 16 A 1.50015 1.50015 0 0 0 11.701172 16 L 37.466797 16 C 37.880513 16 38.088926 16.316786 37.925781 16.697266 L 36.509766 20 L 11.5 20 A 1.50015 1.50015 0 0 0 11.490234 20 L 10.074219 16.697266 C 9.9110734 16.316786 10.119487 16 10.533203 16 z M 11.722656 23 L 36.265625 23 C 36.442463 23.876939 36.83767 25.811439 37.433594 28.921875 C 38.150382 32.663163 38.903661 36.901335 39.005859 38.080078 C 39.125197 39.458771 37.686674 40.62428 36.179688 40.429688 L 26.472656 39.177734 C 25.012444 38.989094 22.988831 38.989032 21.529297 39.177734 L 11.820312 40.429688 C 10.297315 40.626264 9 39.484648 9 37.951172 C 9 37.644419 9.169843 36.232277 9.4472656 34.597656 C 9.7246883 32.963036 10.099132 30.991401 10.472656 29.095703 C 11.098052 25.921718 11.535349 23.880925 11.722656 23 z"/></svg>