<svg fill="#000000" xmlns="http://www.w3.org/2000/svg"  viewBox="0 0 48 48" width="24px" height="24px"><path d="M 20.400391 3 C 19.609637 3 18.944447 3.4441548 18.5625 3.9550781 C 18.180553 4.4660015 18 5.0676175 18 5.703125 L 18 9.296875 C 18 9.9323825 18.180553 10.533999 18.5625 11.044922 C 18.570191 11.05521 18.581925 11.063988 18.589844 11.074219 L 18.458984 11.666016 L 17.412109 16.474609 L 14.443359 19.494141 C 13.519161 20.435401 12.998047 21.704072 12.998047 23.025391 L 12.998047 38.964844 C 12.998047 41.728392 15.271608 44 18.035156 44 L 29.962891 44 C 32.726439 44 34.998047 41.728392 34.998047 38.964844 L 34.998047 23.023438 C 34.998047 21.70375 34.479196 20.435456 33.552734 19.494141 L 33.552734 19.492188 L 30.585938 16.474609 L 29.539062 11.666016 L 29.410156 11.076172 C 29.418367 11.065578 29.429534 11.055578 29.4375 11.044922 C 29.819447 10.533999 30 9.9323825 30 9.296875 L 30 5.703125 C 30 5.0676175 29.819447 4.4660015 29.4375 3.9550781 C 29.055553 3.4441548 28.390363 3 27.599609 3 L 20.400391 3 z M 21 6 L 27 6 L 27 9 L 21 9 L 21 6 z M 21.458984 12 L 26.539062 12 L 26.607422 12.306641 L 27.839844 17.960938 L 31.414062 21.597656 L 31.416016 21.597656 C 31.790823 21.978221 31.998047 22.487679 31.998047 23.023438 L 31.998047 38.964844 C 31.998001 40.107296 31.105343 41 29.962891 41 L 18.035156 41 C 16.892704 41 15.998047 40.107296 15.998047 38.964844 L 15.998047 23.025391 C 15.998047 22.49071 16.208183 21.978443 16.583984 21.595703 L 20.158203 17.960938 L 21.390625 12.308594 L 21.458984 12 z M 23.970703 21.875 C 23.7024 21.876216 23.430056 21.905212 23.158203 21.962891 C 21.761262 22.259511 20.73014 23.329038 20.267578 24.65625 C 19.035701 24.938399 18.025391 25.902551 18.025391 27.210938 L 18.025391 33.25 C 18.025391 34.766198 19.288488 36.027344 20.804688 36.027344 L 27.195312 36.027344 C 28.711512 36.027344 29.972656 34.766198 29.972656 33.25 L 29.972656 27.210938 C 29.972656 25.925539 28.990963 24.987525 27.791016 24.681641 C 27.320821 23.277122 26.168961 22.227897 24.761719 21.951172 C 24.503268 21.900349 24.239006 21.873784 23.970703 21.875 z M 24.207031 24.890625 C 24.612501 24.964478 24.93972 25.272274 25.033203 25.712891 L 25.025391 25.673828 C 25.200641 26.62206 26.02177 27.301234 26.972656 27.382812 L 26.972656 33.027344 L 21.025391 33.027344 L 21.025391 27.382812 C 21.976356 27.301313 22.797394 26.622121 22.972656 25.673828 L 22.964844 25.712891 C 23.052644 25.299375 23.367735 24.986242 23.78125 24.898438 C 23.928044 24.867293 24.071875 24.866007 24.207031 24.890625 z"/></svg>