<svg fill="#000000" xmlns="http://www.w3.org/2000/svg"  viewBox="0 0 48 48" width="24px" height="24px"><path d="M 30.732422 4.5039062 C 28.141073 4.4320243 25.58548 5.4164731 23.701172 7.3007812 L 9.15625 21.847656 C 5.7871915 25.216715 5.40804 30.316309 7.7285156 34.25 L 4.9394531 37.039062 A 1.50015 1.50015 0 0 0 4.9394531 39.160156 L 8.8398438 43.060547 A 1.50015 1.50015 0 0 0 10.960938 43.060547 L 13.75 40.271484 C 17.683691 42.59196 22.783285 42.212809 26.152344 38.84375 L 40.699219 24.296875 C 43.211463 21.784631 44.124694 18.077283 43.066406 14.685547 L 41.966797 11.164062 C 41.525993 9.7507258 41.904545 8.2165489 42.951172 7.1699219 A 1.50015 1.50015 0 0 0 40.830078 5.0488281 C 39.783451 6.0954551 38.249274 6.4720541 36.835938 6.03125 L 33.3125 4.9335938 C 32.464542 4.6690143 31.596205 4.5278668 30.732422 4.5039062 z M 30.648438 7.5019531 C 31.241316 7.5184782 31.836879 7.6149544 32.419922 7.796875 L 35.941406 8.8964844 A 1.50015 1.50015 0 0 0 35.943359 8.8964844 C 36.920783 9.2013319 37.924674 9.2193247 38.90625 9.0917969 C 38.778515 10.073723 38.798552 11.078845 39.103516 12.056641 L 40.201172 15.580078 C 40.928884 17.912342 40.305881 20.448025 38.578125 22.175781 L 24.03125 36.722656 C 21.383637 39.37027 17.239951 39.540565 14.388672 37.271484 A 1.50015 1.50015 0 0 0 12.394531 37.384766 L 9.9003906 39.878906 L 8.1210938 38.099609 L 10.615234 35.605469 A 1.50015 1.50015 0 0 0 10.728516 33.611328 C 8.4594343 30.760049 8.6297301 26.616363 11.277344 23.96875 L 25.822266 9.421875 C 26.68606 8.5580805 27.752862 7.9706509 28.894531 7.6894531 C 29.465366 7.5488543 30.055559 7.4854281 30.648438 7.5019531 z M 31.298828 10.082031 C 30.568828 10.001031 29.760687 11.133875 29.679688 12.671875 C 29.598688 14.611875 30.5695 15.419328 30.8125 15.986328 C 31.2975 15.339328 32.269641 14.450109 32.431641 12.912109 C 32.592641 11.457109 32.027828 10.163031 31.298828 10.082031 z M 25.792969 12.957031 C 25.574719 12.955328 25.385438 13.008297 25.242188 13.123047 C 24.669187 13.581047 24.897734 14.954609 25.927734 16.099609 C 27.242734 17.528609 28.501219 17.411578 29.074219 17.642578 C 28.960219 16.842578 29.019875 15.526219 28.046875 14.324219 C 27.360625 13.466219 26.447719 12.962141 25.792969 12.957031 z M 35.396484 15.314453 C 35.221643 15.313055 35.04125 15.321547 34.859375 15.341797 C 33.321375 15.503797 32.432156 16.475938 31.785156 16.960938 C 32.353156 17.203938 33.161562 18.176703 35.101562 18.095703 C 36.639562 18.014703 37.772406 17.205562 37.691406 16.476562 C 37.621406 15.837812 36.620377 15.324242 35.396484 15.314453 z M 22.671875 16.078125 C 22.453625 16.076422 22.264344 16.129391 22.121094 16.244141 C 21.548094 16.702141 21.776641 18.075703 22.806641 19.220703 C 24.121641 20.649703 25.380125 20.532672 25.953125 20.763672 C 25.839125 19.963672 25.898781 18.647312 24.925781 17.445312 C 24.239531 16.587312 23.326625 16.083234 22.671875 16.078125 z M 30.357422 18.925781 C 30.587422 19.498781 30.472344 20.757266 31.902344 22.072266 C 33.046344 23.102266 34.418953 23.330812 34.876953 22.757812 C 35.334953 22.184813 34.818781 20.868125 33.675781 19.953125 C 32.473781 18.980125 31.157422 19.039781 30.357422 18.925781 z M 19.550781 19.199219 C 19.332531 19.197516 19.14325 19.250484 19 19.365234 C 18.427 19.823234 18.655547 21.196797 19.685547 22.341797 C 21.000547 23.770797 22.259031 23.653766 22.832031 23.884766 C 22.718031 23.084766 22.777687 21.768406 21.804688 20.566406 C 21.118438 19.708406 20.205531 19.204328 19.550781 19.199219 z M 27.236328 22.046875 C 27.466328 22.619875 27.35125 23.878359 28.78125 25.193359 C 29.92525 26.223359 31.296859 26.451906 31.755859 25.878906 C 32.213859 25.305906 31.697688 23.989219 30.554688 23.074219 C 29.352687 22.101219 28.036328 22.160875 27.236328 22.046875 z M 16.429688 22.320312 C 16.211437 22.318609 16.022156 22.371578 15.878906 22.486328 C 15.305906 22.944328 15.534453 24.317891 16.564453 25.462891 C 17.879453 26.891891 19.139891 26.774859 19.712891 27.005859 C 19.598891 26.205859 19.656594 24.8895 18.683594 23.6875 C 17.997344 22.8295 17.084437 22.325422 16.429688 22.320312 z M 24.115234 25.167969 C 24.345234 25.740969 24.230156 26.999453 25.660156 28.314453 C 26.804156 29.344453 28.175766 29.573 28.634766 29 C 29.092766 28.427 28.576594 27.110312 27.433594 26.195312 C 26.231594 25.222312 24.915234 25.281969 24.115234 25.167969 z M 13.308594 25.439453 C 13.090344 25.43775 12.901063 25.492672 12.757812 25.607422 C 12.184812 26.065422 12.413359 27.437031 13.443359 28.582031 C 14.758359 30.012031 16.018797 29.896953 16.591797 30.126953 C 16.477797 29.326953 16.5355 28.010594 15.5625 26.808594 C 14.87625 25.950594 13.963344 25.444563 13.308594 25.439453 z M 20.994141 28.287109 C 21.224141 28.860109 21.109063 30.120547 22.539062 31.435547 C 23.683063 32.465547 25.054672 32.694094 25.513672 32.121094 C 25.971672 31.548094 25.4555 30.231406 24.3125 29.316406 C 23.1105 28.343406 21.794141 28.401109 20.994141 28.287109 z M 17.873047 31.408203 C 18.103047 31.981203 17.987969 33.241641 19.417969 34.556641 C 20.561969 35.586641 21.933578 35.815188 22.392578 35.242188 C 22.850578 34.669188 22.334406 33.3525 21.191406 32.4375 C 19.989406 31.4645 18.673047 31.522203 17.873047 31.408203 z"/></svg>