<svg fill="#000000" xmlns="http://www.w3.org/2000/svg"  viewBox="0 0 48 48" width="24px" height="24px"><path d="M 20.5 1 C 19.136406 1 18 2.1364058 18 3.5 L 18 7.9238281 L 14.527344 12.865234 C 14.52643 12.866534 14.526391 12.867841 14.525391 12.869141 L 14.519531 12.876953 C 14.26367 13.2357 14.061395 13.59126 13.888672 13.927734 C 13.397306 14.887851 13.119552 15.934299 13.037109 17 L 13 17 L 13 17.632812 L 13 18.5 L 13 38 L 13 40.5 C 13 43.011807 15.150565 45 17.667969 45 L 30.333984 45 C 32.850825 45 35.001953 43.01241 35.001953 40.5 L 35.001953 19.5 L 35.001953 17.632812 C 35.001953 17.621694 35.000045 17.610726 35 17.599609 L 35 17 L 34.964844 17 C 34.882147 15.935324 34.603965 14.889041 34.113281 13.929688 L 34.113281 13.927734 C 33.940602 13.590378 33.738372 13.23477 33.482422 12.876953 L 33.472656 12.863281 L 30.013672 7.9414062 L 30 7.9511719 L 30 3.5 C 30 2.1364058 28.863594 1 27.5 1 L 20.5 1 z M 21 4 L 27 4 L 27 7 L 21 7 L 21 4 z M 20.208984 10 L 27.792969 10 L 31.033203 14.609375 L 31.037109 14.615234 C 31.185777 14.821919 31.310556 15.035352 31.443359 15.294922 C 31.715142 15.825979 31.890003 16.405119 31.962891 17 L 16.039062 17 C 16.11195 16.405119 16.286811 15.825979 16.558594 15.294922 C 16.691381 15.036435 16.815519 14.821608 16.964844 14.613281 L 16.96875 14.607422 L 20.208984 10 z M 16 20 L 32 20 L 32 35 L 16 35 L 16 20 z M 22.181641 23 C 21.908641 23 21.770719 23.263531 21.636719 23.519531 C 21.090719 24.558531 20 25.337156 20 27.285156 C 20 28.054156 20.217406 28.748344 20.566406 29.277344 C 20.855406 28.562344 21.293047 27.880781 21.873047 27.300781 C 22.637047 26.536781 23.407281 26.105891 24.113281 25.837891 C 23.760281 24.863891 23.111563 24.252531 22.726562 23.519531 C 22.592562 23.263531 22.454641 23 22.181641 23 z M 27.542969 27.054688 C 27.413094 27.065187 27.273766 27.11175 27.134766 27.15625 C 26.007766 27.52025 24.685109 27.316844 23.287109 28.714844 C 22.103109 29.898844 21.826922 31.540813 22.669922 32.382812 C 23.511922 33.224812 25.154891 32.949625 26.337891 31.765625 C 27.735891 30.367625 27.532484 29.044969 27.896484 27.917969 C 27.987484 27.640969 28.079672 27.355062 27.888672 27.164062 C 27.793172 27.068562 27.672844 27.044188 27.542969 27.054688 z M 16 38 L 32.001953 38 L 32.001953 40.5 C 32.001953 41.30759 31.321144 42 30.333984 42 L 17.667969 42 C 16.679373 42 16 41.308193 16 40.5 L 16 38 z"/></svg>