<svg fill="#000000" xmlns="http://www.w3.org/2000/svg"  viewBox="0 0 48 48" width="24px" height="24px"><path d="M 26.707031 4.5039062 C 25.775005 4.5113733 24.905615 4.8507562 24.242188 5.3515625 C 24.109234 5.451926 24.030266 5.5952852 23.910156 5.7070312 C 22.861618 4.8615363 21.451804 4.399789 19.882812 4.7148438 C 17.622435 5.0322676 15.563001 5.6273556 13.720703 6.4179688 C 11.937064 7.1820699 10.929387 8.433064 10.525391 9.7128906 C 9.363547 9.7510266 8.1396936 10.220635 7.1738281 11.326172 A 1.50015 1.50015 0 0 0 7.1425781 11.363281 C 6.0081338 12.748978 5.0525499 14.326986 4.3964844 16.095703 A 1.50015 1.50015 0 0 0 4.3964844 16.097656 C 3.9178388 17.393887 3.7967138 18.666011 4.0234375 19.804688 C 4.0729555 20.053383 4.2156402 20.267557 4.3027344 20.505859 C 4.1956079 20.597439 4.0420686 20.620692 3.9511719 20.730469 C 3.2476247 21.580147 3.0543885 22.619013 3.0097656 23.841797 A 1.50015 1.50015 0 0 0 3.0078125 23.896484 C 3.0078125 26.613104 3.5537465 28.682148 4.5703125 30.25 C 5.5868785 31.817852 7.0223071 32.795795 8.4765625 33.496094 C 9.6547009 34.063428 10.842792 34.4955 12 34.941406 L 12 41.5 A 1.50015 1.50015 0 0 0 13.5 43 L 21.902344 43 A 1.50015 1.50015 0 0 0 22.009766 42.996094 C 22.630946 43.303861 23.329275 43.501953 24.117188 43.501953 C 24.883091 43.501953 25.603399 43.303249 26.214844 42.986328 A 1.50015 1.50015 0 0 0 26.433594 43 L 34.5 43 A 1.50015 1.50015 0 0 0 36 41.5 L 36 34.904297 C 37.275218 34.410685 38.564247 33.958188 39.814453 33.34375 C 41.225297 32.650363 42.599975 31.674317 43.550781 30.126953 C 44.501327 28.580013 44.989967 26.560914 44.990234 23.898438 C 44.991334 23.254509 44.888436 22.471258 44.460938 21.511719 C 44.317212 21.189123 44.008007 20.870667 43.728516 20.552734 C 43.862839 20.279549 44.023905 20.029768 44.095703 19.705078 C 44.333261 18.630771 44.135423 17.496957 43.644531 16.103516 A 1.50015 1.50015 0 0 0 43.642578 16.103516 C 42.947672 14.134614 41.934764 12.642935 40.777344 11.181641 A 1.50015 1.50015 0 0 0 40.777344 11.179688 C 39.916728 10.09452 38.574943 9.6216979 37.246094 9.7109375 C 36.883689 8.3497203 35.927242 7.1009948 34.466797 6.4609375 C 32.481693 5.5906736 29.802155 5.134474 27.654297 4.6132812 C 27.334846 4.535641 27.017707 4.5014172 26.707031 4.5039062 z M 26.705078 7.4980469 C 26.782204 7.4989504 26.862467 7.5086871 26.947266 7.5292969 C 29.225408 8.0821041 31.904776 8.6112952 33.263672 9.2070312 C 34.518656 9.7570428 34.683769 10.582498 34.365234 11.144531 L 34.34375 11.195312 A 1.50015 1.50015 0 0 0 34.236328 11.449219 L 31.539062 17.779297 A 1.5007959 1.5007959 0 1 0 34.300781 18.955078 L 36.873047 12.914062 C 37.363756 12.562751 38.141842 12.686897 38.425781 13.044922 C 39.499753 14.400983 40.261557 15.535025 40.814453 17.101562 C 41.214415 18.237884 41.22565 18.788912 41.166016 19.058594 C 41.106326 19.328537 40.948739 19.56833 40.433594 20.103516 A 1.50015 1.50015 0 0 0 40.388672 20.15625 L 36.105469 24.421875 A 1.50015 1.50015 0 1 0 38.222656 26.546875 L 41.783203 23 C 41.887531 23.394509 41.990188 23.920987 41.990234 23.892578 A 1.50015 1.50015 0 0 0 41.990234 23.896484 C 41.990234 26.196927 41.578334 27.603956 40.994141 28.554688 C 40.409947 29.505418 39.614391 30.097902 38.490234 30.650391 C 36.241922 31.755368 32.732415 32.413449 29.474609 35.0625 C 27.767617 36.449432 26.808065 38.062911 26.025391 39.113281 C 25.634054 39.638467 25.293252 40.01332 25.009766 40.216797 C 24.72628 40.420273 24.528678 40.501953 24.117188 40.501953 C 23.203349 40.501953 22.903172 40.212254 22.115234 39.261719 C 21.327517 38.311456 20.337327 36.782617 18.664062 35.265625 C 15.686656 32.566422 12.142286 31.93087 9.7792969 30.792969 C 8.5978023 30.224018 7.7223871 29.597726 7.0878906 28.619141 C 6.457289 27.646562 6.0171472 26.229262 6.0117188 23.931641 C 6.0414073 23.244136 6.1516341 23.037536 6.2109375 22.902344 L 9.6015625 25.986328 A 1.50015 1.50015 0 1 0 11.621094 23.767578 L 7.7597656 20.253906 A 1.50015 1.50015 0 0 0 7.4863281 20.003906 A 1.50015 1.50015 0 0 0 7.4824219 20.001953 L 7.2421875 19.783203 C 7.1750012 19.726829 7.0476033 19.634394 6.9648438 19.21875 C 6.8665675 18.725176 6.9015831 17.974488 7.2109375 17.136719 C 7.7351425 15.724439 8.5073667 14.446228 9.4492188 13.291016 C 10.064105 12.598064 10.500732 12.604745 10.785156 12.6875 L 14.355469 20.4375 A 1.50015 1.50015 0 1 0 17.080078 19.181641 L 13.28125 10.935547 L 13.277344 10.925781 C 13.250384 10.860051 12.96906 10.00399 14.902344 9.1757812 A 1.50015 1.50015 0 0 0 14.904297 9.1757812 C 16.529832 8.4781907 18.340305 7.9470895 20.353516 7.6699219 A 1.50015 1.50015 0 0 0 20.455078 7.6503906 C 21.623501 7.406144 22.360206 8.1757705 22.501953 8.6269531 L 22.501953 17.123047 A 1.50015 1.50015 0 1 0 25.501953 17.123047 L 25.501953 8.5703125 C 25.573013 8.3096484 25.772128 7.9549685 26.048828 7.7460938 C 26.269651 7.5794 26.4737 7.4953362 26.705078 7.4980469 z M 33 36.289062 L 33 40 L 29.09375 40 C 29.76278 39.066603 30.431827 38.149018 31.365234 37.390625 A 1.50015 1.50015 0 0 0 31.367188 37.390625 C 31.894752 36.961641 32.443002 36.608956 33 36.289062 z M 15 36.306641 C 15.583277 36.644637 16.139395 37.025032 16.650391 37.488281 C 17.570734 38.322475 18.237919 39.169077 18.878906 40 L 15 40 L 15 36.306641 z"/></svg>