<svg fill="#000000" xmlns="http://www.w3.org/2000/svg"  viewBox="0 0 48 48" width="24px" height="24px"><path d="M 32.005859 4.9375 A 1.50015 1.50015 0 0 0 30.919922 5.3964844 C 30.919922 5.3964844 27.5 8.7244216 27.5 13.181641 C 27.5 14.193224 27.768339 15.172015 28.242188 16 L 21 16 L 18 16 L 10.5 16 C 8.0324991 16 6 18.032499 6 20.5 L 6 40 L 4.5 40 A 1.50015 1.50015 0 1 0 4.5 43 L 18 43 L 21 43 L 42 43 L 43.5 43 A 1.50015 1.50015 0 1 0 43.5 40 L 42 40 L 42 20.5 C 42 18.556285 40.73177 16.89841 38.990234 16.275391 C 41.634889 13.828299 42.416016 10.357422 42.416016 10.357422 A 1.50015 1.50015 0 0 0 41.40625 8.546875 C 41.40625 8.546875 39.320065 7.8512855 36.722656 7.9550781 C 36.19267 7.9762567 35.63913 8.0460155 35.080078 8.1464844 C 34.138895 6.4566671 33.080078 5.3964844 33.080078 5.3964844 A 1.50015 1.50015 0 0 0 32.005859 4.9375 z M 32 8.9863281 C 32.729804 10.092291 33.5 11.552208 33.5 13.181641 C 33.5 14.516815 32.675709 15.3125 32 15.3125 C 31.324291 15.3125 30.5 14.516815 30.5 13.181641 C 30.5 11.552208 31.270196 10.092291 32 8.9863281 z M 36.958984 10.96875 C 37.643065 10.961203 38.29352 11.026205 38.867188 11.109375 C 38.371942 12.242474 37.613099 13.668376 36.300781 14.603516 C 36.418287 14.143372 36.5 13.669985 36.5 13.181641 C 36.5 12.423231 36.394801 11.70172 36.230469 11.019531 C 36.474622 10.997185 36.720949 10.971376 36.958984 10.96875 z M 10.5 19 L 18 19 L 18 40 L 9 40 L 9 20.5 C 9 19.653501 9.6535009 19 10.5 19 z M 21 19 L 37.5 19 C 38.346499 19 39 19.653501 39 20.5 L 39 40 L 21 40 L 21 19 z"/></svg>