<svg fill="#000000" xmlns="http://www.w3.org/2000/svg"  viewBox="0 0 48 48" width="24px" height="24px"><path d="M 15.5 6 A 1.50015 1.50015 0 1 0 15.5 9 L 16.353516 9 L 17.648438 13.742188 C 18.431718 16.612758 17.959303 19.679334 16.349609 22.183594 L 13.740234 26.244141 C 11.283088 30.066493 10.914377 34.874376 12.759766 39.027344 L 12.916016 39.378906 C 13.89398 41.578333 16.082449 43.001953 18.490234 43.001953 L 29.509766 43.001953 C 31.916875 43.001953 34.107768 41.578792 35.085938 39.378906 C 37.026676 35.011682 36.511546 29.937991 33.734375 26.048828 L 31.033203 22.265625 C 29.198236 19.696146 28.614726 16.442461 29.445312 13.398438 L 30.646484 9 L 31.5 9 A 1.50015 1.50015 0 1 0 31.5 6 L 29.5 6 L 17.5 6 L 15.5 6 z M 19.464844 9 L 27.537109 9 L 26.552734 12.609375 C 26.3377 13.397458 26.246988 14.199084 26.177734 15 L 20.875 15 C 20.79796 14.314759 20.726814 13.627266 20.542969 12.953125 L 20.542969 12.951172 L 19.464844 9 z M 20.888672 18 L 26.25 18 C 26.54516 20.139454 27.30606 22.207413 28.591797 24.007812 A 1.50015 1.50015 0 0 0 28.591797 24.009766 L 31.292969 27.791016 C 33.455798 30.819853 33.855011 34.759381 32.34375 38.160156 C 31.843918 39.284271 30.738657 40.001953 29.509766 40.001953 L 18.490234 40.001953 C 17.260019 40.001953 16.156286 39.28473 15.65625 38.160156 L 15.5 37.808594 C 14.063389 34.575562 14.350818 30.840882 16.263672 27.865234 L 18.873047 23.804688 C 20.00954 22.036603 20.659967 20.044398 20.888672 18 z M 24 27 C 22.223279 27 20.591546 27.440855 19.304688 28.259766 C 18.017829 29.078676 17 30.396556 17 32 C 17 33.603444 18.017829 34.921324 19.304688 35.740234 C 20.591546 36.559145 22.223279 37 24 37 C 25.776721 37 27.408455 36.559145 28.695312 35.740234 C 29.982171 34.921324 31 33.603444 31 32 C 31 30.396556 29.982171 29.078676 28.695312 28.259766 C 27.408454 27.440855 25.776721 27 24 27 z M 24 30 C 25.260847 30 26.380236 30.343175 27.083984 30.791016 C 27.787733 31.238856 28 31.670448 28 32 C 28 32.329552 27.787733 32.761144 27.083984 33.208984 C 26.380236 33.656825 25.260847 34 24 34 C 22.739153 34 21.619764 33.656825 20.916016 33.208984 C 20.212267 32.761144 20 32.329552 20 32 C 20 31.670448 20.212267 31.238856 20.916016 30.791016 C 21.619764 30.343175 22.739153 30 24 30 z"/></svg>