<svg fill="#000000" xmlns="http://www.w3.org/2000/svg"  viewBox="0 0 48 48" width="24px" height="24px"><path d="M 6.2363281 2.7636719 A 1.50015 1.50015 0 0 0 4.7578125 4.0175781 C 4.7578125 4.0175781 4.2890466 6.6680887 5.6328125 9.3554688 C 6.204668 10.499115 7.1361405 11.618657 8.4960938 12.529297 C 5.7450617 14.901194 4 18.410085 4 22.316406 C 4 27.547217 7.1271578 32.061229 11.617188 34.089844 C 10.33301 34.980519 8.9363649 35.923538 7.734375 37.294922 C 7.1126811 38.004005 6.4488907 38.90669 6.140625 40.068359 C 5.8323593 41.230029 6.12148 42.839289 7.296875 43.828125 C 8.3991497 44.75563 9.6887936 45.018395 10.693359 45.150391 C 12.415279 45.375923 14.029918 45.113031 15.474609 44.863281 C 17.507953 44.511619 19.490736 43.965483 21.412109 43.283203 C 24.173032 42.303622 26.809397 41.009812 29.287109 39.464844 C 29.288809 39.463844 29.291169 39.463967 29.292969 39.462891 C 34.680739 36.225847 39.041767 31.847807 42.078125 26.193359 A 1.50015 1.50015 0 0 0 42.111328 26.125 C 43.493613 23.203865 43.998047 20.489245 43.998047 18.248047 C 43.998047 15.453524 43.53734 13.307062 42.533203 11.722656 C 41.529066 10.13825 39.845691 9.234375 38.126953 9.234375 C 37.69083 9.234375 37.323344 9.3873095 36.917969 9.4609375 A 1.50015 1.50015 0 0 0 36.410156 9.265625 C 34.334139 8.8503376 33.930218 8.0876028 33.707031 7.4179688 C 33.483845 6.7483347 33.615234 6.15625 33.615234 6.15625 A 1.50015 1.50015 0 0 0 32.210938 4.2714844 A 1.50015 1.50015 0 0 0 30.705078 5.4277344 C 30.705078 5.4277344 30.343014 6.8120716 30.861328 8.3671875 C 31.204112 9.3956553 32.059349 10.463252 33.394531 11.253906 C 32.431342 12.271181 31.790071 13.515605 31.462891 14.828125 C 31.18795 15.931266 30.754687 17.716874 29.59375 19.816406 C 28.553509 14.544848 24.290911 10.423104 18.955078 9.5722656 C 19.19734 9.2241825 19.462033 8.9495986 19.722656 8.7324219 C 20.525673 8.0632718 21.21875 7.9550781 21.21875 7.9550781 A 1.50015 1.50015 0 0 0 20.980469 4.9707031 A 1.50015 1.50015 0 0 0 20.726562 4.9960938 C 20.726562 4.9960938 19.210218 5.2548844 17.802734 6.4277344 C 17.425681 6.7419316 17.056058 7.1340553 16.712891 7.5957031 C 14.984754 5.1043321 11.621704 2.7636719 6.2363281 2.7636719 z M 7.7734375 5.9257812 C 11.398682 6.3120248 13.362 7.894601 14.390625 9.4960938 C 14.869497 10.241662 15.038326 10.906404 15.167969 11.478516 C 10.82702 11.164672 9.0972619 9.5752949 8.3164062 8.0136719 C 7.9397744 7.2604505 7.8366928 6.5446319 7.7734375 5.9257812 z M 38.126953 12.234375 C 38.952216 12.234375 39.453637 12.467984 40 13.330078 C 40.546363 14.192172 40.998047 15.80257 40.998047 18.248047 C 40.998047 20.03008 40.594257 22.294591 39.412109 24.806641 C 37.909563 27.596444 36.060901 30.020057 33.904297 32.140625 C 33.054745 31.27265 31.810551 30.765625 30.5 30.765625 C 28.520725 30.765625 26.744522 31.987817 26.226562 33.785156 C 26.148353 33.783356 26.079013 33.765625 26 33.765625 C 23.924359 33.765625 22.020599 34.331983 20.550781 35.349609 C 19.080964 36.367235 18 37.937612 18 39.765625 C 18 40.244188 18.089075 40.705361 18.226562 41.148438 C 17.147598 41.45727 16.059627 41.718525 14.962891 41.908203 C 13.561582 42.150453 12.246112 42.328249 11.082031 42.175781 C 10.367281 42.081461 9.563816 41.81534 9.2285156 41.533203 C 8.8729103 41.234039 8.9315314 41.250471 9.0410156 40.837891 C 9.1504999 40.42531 9.5519283 39.773355 9.9902344 39.273438 C 10.990801 38.131862 12.403065 37.204851 13.892578 36.152344 C 15.513941 35.005926 17.233458 33.97407 19.001953 32.970703 C 21.741906 31.41655 24.467404 29.771718 26.96875 27.613281 C 27.050787 27.542522 27.122921 27.471306 27.203125 27.400391 C 28.240336 28.248803 29.566614 28.765625 31.001953 28.765625 C 34.297818 28.765625 37.001953 26.06149 37.001953 22.765625 C 37.001953 20.490172 35.716857 18.5041 33.832031 17.488281 C 34.091539 16.686083 34.257249 16.019303 34.373047 15.554688 C 34.620218 14.563135 35.075772 13.713568 35.675781 13.146484 C 36.275791 12.579401 37.001529 12.234375 38.126953 12.234375 z M 18.351562 12.509766 C 21.769903 13.000286 24.609903 15.213257 25.970703 18.253906 C 24.812159 18.2996 23.815767 18.807805 22.962891 19.498047 C 22.356542 19.188274 21.695337 18.974609 20.972656 18.974609 C 18.53446 18.974609 16.525391 20.983678 16.525391 23.421875 C 16.525391 24.61493 17.109479 25.589137 17.882812 26.388672 C 17.523208 27.179056 17.263672 28.02445 17.263672 28.947266 C 17.263672 29.449461 17.327661 29.937475 17.439453 30.408203 C 16.542939 30.917699 15.647371 31.441237 14.759766 31.990234 C 11.316265 31.225237 8.5502425 28.681838 7.4824219 25.357422 C 8.3909373 25.156206 9.2299115 24.862393 9.9511719 24.449219 C 11.118391 23.780577 12.158203 22.691144 12.158203 21.210938 C 12.158203 19.800262 11.20186 18.7336 10.115234 18.068359 C 9.5909883 17.747412 9.0036091 17.492219 8.3691406 17.291016 C 9.1666955 15.936846 10.279423 14.796906 11.603516 13.953125 C 12.923536 14.342059 14.470028 14.574266 16.261719 14.597656 A 1.50015 1.50015 0 0 0 17.554688 14.242188 C 17.709999 14.128612 17.847834 14.006604 17.933594 13.888672 C 18.170023 13.563548 18.245248 13.288714 18.298828 13.035156 C 18.336552 12.856635 18.341632 12.683812 18.351562 12.509766 z M 7.265625 20.099609 C 7.7874986 20.249855 8.233608 20.433973 8.5488281 20.626953 C 9.1209527 20.977212 9.1582031 21.208613 9.1582031 21.210938 C 9.1582031 21.214737 9.1022191 21.478345 8.4609375 21.845703 C 8.0995696 22.052713 7.5917548 22.240263 7.0039062 22.386719 C 7.0037414 22.363061 7 22.340104 7 22.316406 C 7 21.551036 7.1026056 20.813813 7.265625 20.099609 z M 32.693359 20.289062 C 33.480355 20.826097 34.001953 21.726761 34.001953 22.765625 C 34.001953 24.43976 32.676088 25.765625 31.001953 25.765625 C 30.383062 25.765625 29.822721 25.57315 29.349609 25.257812 C 30.890022 23.517649 31.950299 21.810671 32.693359 20.289062 z M 26.130859 21.236328 C 26.36685 21.236328 26.584667 21.282224 26.792969 21.349609 C 26.823465 21.667729 26.841797 21.99002 26.841797 22.316406 C 26.841797 22.787924 26.798189 23.247682 26.734375 23.701172 C 26.220233 24.243123 25.648903 24.790527 25.009766 25.341797 C 23.545447 26.605372 21.950283 27.693544 20.28125 28.724609 C 20.325167 28.07169 20.548536 27.477131 20.921875 26.978516 A 1.50015 1.50015 0 0 0 20.361328 24.722656 C 19.866431 24.48956 19.525391 24.009043 19.525391 23.421875 C 19.525391 22.604072 20.154853 21.974609 20.972656 21.974609 C 21.384323 21.974609 21.736288 22.137036 22.003906 22.410156 A 1.50015 1.50015 0 0 0 24.318359 22.201172 C 24.71146 21.619834 25.367334 21.236328 26.130859 21.236328 z M 30.5 33.765625 C 31.01116 33.765625 31.387809 33.945252 31.642578 34.162109 C 30.77841 34.860834 29.871226 35.518264 28.923828 36.138672 A 1.50015 1.50015 0 0 0 29.041016 34.951172 C 29.002876 34.832769 29 34.781736 29 34.765625 C 29 34.357109 29.518317 33.765625 30.5 33.765625 z M 26 36.765625 C 26.461226 36.765625 26.911933 36.810435 27.351562 36.888672 A 1.50015 1.50015 0 0 0 27.724609 36.90625 A 1.50015 1.50015 0 0 0 27.707031 36.917969 C 25.600986 38.231605 23.373653 39.331637 21.0625 40.203125 C 21.024378 40.058397 21 39.913473 21 39.765625 C 21 39.108638 21.37513 38.42753 22.257812 37.816406 C 23.140496 37.205282 24.485641 36.765625 26 36.765625 z"/></svg>