<svg fill="#000000" xmlns="http://www.w3.org/2000/svg"  viewBox="0 0 48 48" width="24px" height="24px"><path d="M 42.490234 6.9882812 A 1.50015 1.50015 0 0 0 41.685547 7.2402344 L 25.007812 18.03125 C 23.333617 16.772122 21.683693 15.985958 20.097656 15.59375 C 18.733418 15.25639 17.437237 15.203806 16.240234 15.324219 C 15.043232 15.444631 13.945247 15.738292 12.982422 16.091797 C 8.5538578 17.718569 6.7866767 21.862514 6.1855469 25.283203 C 5.6853437 28.129575 5.8889074 30.577001 5.9746094 31.355469 A 1.50015 1.50015 0 0 0 6.1054688 32.140625 C 6.1450349 32.228313 6.1920731 32.310126 6.2382812 32.392578 C 6.592702 33.298195 7.7728613 35.944903 10.333984 38.197266 C 13.445491 40.933659 18.743426 42.817758 26.056641 39.892578 C 28.488527 38.920047 31.060405 37.148893 32.982422 34.583984 C 34.904438 32.019075 36.13916 28.615454 35.722656 24.646484 C 35.549284 22.996038 36.260724 21.398203 37.605469 20.457031 L 44.359375 15.728516 A 1.50015 1.50015 0 0 0 43.583984 12.988281 A 1.50015 1.50015 0 0 0 42.640625 13.271484 L 35.886719 18 C 33.639463 19.572829 32.453654 22.249431 32.738281 24.958984 C 33.073778 28.156014 32.122765 30.729065 30.582031 32.785156 C 29.041298 34.841247 26.872473 36.335953 24.943359 37.107422 C 18.453574 39.703242 14.752196 38.087216 12.314453 35.943359 C 11.823629 35.511708 11.408105 35.0547 11.033203 34.599609 C 11.275466 34.6048 11.51998 34.606564 11.771484 34.597656 C 14.188056 34.512066 17.047068 33.785977 19.966797 32.46875 C 22.886437 31.151563 25.322544 29.489225 26.986328 27.734375 C 27.81822 26.85695 28.466517 25.955784 28.853516 24.982422 C 29.240515 24.00906 29.35387 22.877392 28.894531 21.859375 A 1.50015 1.50015 0 0 0 28.375 21.228516 C 28.029589 20.828997 27.684852 20.449467 27.339844 20.095703 L 43.314453 9.7597656 A 1.50015 1.50015 0 0 0 42.490234 6.9882812 z M 17.207031 18.261719 C 17.897593 18.246995 18.61982 18.318629 19.376953 18.505859 C 21.354195 18.994808 23.644059 20.305639 26.189453 23.283203 C 26.198222 23.41107 26.182164 23.578939 26.064453 23.875 C 25.879233 24.340856 25.45853 24.986472 24.810547 25.669922 C 23.514581 27.036822 21.349781 28.553562 18.732422 29.734375 C 16.115151 30.915148 13.548194 31.532948 11.666016 31.599609 C 10.724926 31.632939 9.9601417 31.521109 9.4882812 31.351562 C 9.1883329 31.243791 9.0507987 31.143929 8.9609375 31.052734 C 8.8979356 30.488869 8.6989992 28.304663 9.1386719 25.802734 C 9.645542 22.918424 10.878142 20.061431 14.017578 18.908203 C 14.994671 18.549459 16.056096 18.286259 17.207031 18.261719 z M 14.5 22 A 1.5 1.5 0 0 0 14.5 25 A 1.5 1.5 0 0 0 14.5 22 z M 17.5 25 A 1.5 1.5 0 0 0 17.5 28 A 1.5 1.5 0 0 0 17.5 25 z M 12.5 26 A 1.5 1.5 0 0 0 12.5 29 A 1.5 1.5 0 0 0 12.5 26 z"/></svg>