<svg fill="#000000" xmlns="http://www.w3.org/2000/svg"  viewBox="0 0 48 48" width="24px" height="24px"><path d="M 24.03125 4.2324219 C 23.500486 4.2190619 22.968035 4.3247979 22.474609 4.5527344 A 1.50015 1.50015 0 0 0 22.472656 4.5546875 L 15.029297 8 C 13.794873 8.5715996 13 9.8157767 13 11.175781 L 13 21.521484 L 5.6875 24.736328 C 4.0577542 25.453177 3 27.074712 3 28.855469 L 3 36.728516 C 3 38.442948 3.9807622 40.015115 5.5195312 40.769531 L 12.484375 44.183594 C 13.761543 44.810186 15.264359 44.794077 16.529297 44.140625 L 23.064453 40.769531 C 23.42661 40.582459 23.755027 40.349471 24.046875 40.080078 C 24.358933 40.352361 24.709579 40.585361 25.095703 40.765625 L 32.492188 44.21875 C 33.786028 44.822942 35.294388 44.77522 36.548828 44.091797 L 42.652344 40.767578 C 44.098178 39.980984 45 38.459404 45 36.814453 L 45 28.855469 C 45 27.074712 43.942246 25.453177 42.3125 24.736328 L 35 21.521484 L 35 11.707031 C 35 10.410868 34.276779 9.2129677 33.128906 8.609375 L 25.574219 4.6328125 A 1.50015 1.50015 0 0 0 25.572266 4.6328125 C 25.090119 4.3794863 24.562014 4.2457816 24.03125 4.2324219 z M 23.955078 7.2304688 C 24.030703 7.2320877 24.106181 7.2508969 24.175781 7.2871094 L 31.732422 11.263672 C 31.900549 11.352078 32 11.517194 32 11.707031 L 32 21.550781 L 30 22.498047 L 24 25.339844 L 16 21.550781 L 16 11.175781 C 16 10.978296 16.110279 10.805347 16.289062 10.722656 A 1.50015 1.50015 0 0 0 16.291016 10.722656 L 23.732422 7.2753906 L 23.732422 7.2773438 C 23.803682 7.2444252 23.879454 7.2288498 23.955078 7.2304688 z M 19.529297 11.992188 A 1.50015 1.50015 0 0 0 18.890625 14.871094 L 20.953125 15.787109 C 21.445185 16.006014 21.981282 16.007473 22.5 16.115234 L 22.5 21.5 A 1.50015 1.50015 0 1 0 25.5 21.5 L 25.5 16.115234 C 26.018796 16.007491 26.554656 16.005944 27.046875 15.787109 L 29.109375 14.871094 A 1.5004122 1.5004122 0 1 0 27.890625 12.128906 L 25.828125 13.046875 C 24.663191 13.56479 23.335434 13.564512 22.171875 13.046875 L 20.109375 12.128906 A 1.50015 1.50015 0 0 0 19.529297 11.992188 z M 14.476562 24.148438 L 22.5 27.949219 L 22.5 36.6875 L 22.5 36.769531 C 22.5 37.334205 22.189187 37.844369 21.6875 38.103516 L 15.152344 41.474609 C 14.729281 41.693158 14.233472 41.699637 13.806641 41.490234 A 1.50015 1.50015 0 0 0 13.804688 41.488281 L 6.8398438 38.074219 C 6.3226129 37.820635 6 37.304083 6 36.728516 L 6 28.855469 C 6 28.256225 6.3482301 27.723573 6.8964844 27.482422 L 14.476562 24.148438 z M 33.523438 24.148438 L 41.103516 27.482422 C 41.651724 27.723573 42 28.256225 42 28.855469 L 42 36.814453 C 42 37.367502 41.702915 37.869408 41.21875 38.132812 A 1.50015 1.50015 0 0 0 41.216797 38.132812 L 35.113281 41.457031 C 34.693769 41.685608 34.193878 41.701808 33.761719 41.5 L 26.365234 38.046875 C 25.834007 37.798868 25.5 37.273101 25.5 36.6875 L 25.5 27.949219 L 33.523438 24.148438 z M 9.4726562 27.986328 A 1.50015 1.50015 0 0 0 8.9433594 30.892578 L 11.441406 31.892578 C 11.941742 32.092605 12.477274 32.070237 13 32.158203 L 13 37.5 A 1.50015 1.50015 0 1 0 16 37.5 L 16 32.044922 C 16.530606 31.913373 17.082691 31.88525 17.580078 31.636719 L 19.169922 30.841797 A 1.50015 1.50015 0 0 0 18.507812 27.990234 A 1.50015 1.50015 0 0 0 17.830078 28.158203 L 16.238281 28.953125 C 15.088288 29.527131 13.748176 29.582564 12.554688 29.105469 L 10.056641 28.107422 A 1.50015 1.50015 0 0 0 9.4726562 27.986328 z M 38.511719 27.986328 A 1.50015 1.50015 0 0 0 37.943359 28.107422 L 35.445312 29.105469 C 34.251061 29.583319 32.912409 29.527481 31.761719 28.953125 L 31.759766 28.953125 L 30.169922 28.158203 A 1.50015 1.50015 0 0 0 29.447266 27.990234 A 1.50015 1.50015 0 0 0 28.830078 30.841797 L 30.419922 31.636719 C 30.927701 31.890443 31.457801 32.078963 32 32.210938 L 32 37.5 A 1.50015 1.50015 0 1 0 35 37.5 L 35 32.326172 C 35.529112 32.238556 36.051988 32.095284 36.558594 31.892578 L 39.056641 30.892578 A 1.50015 1.50015 0 0 0 38.511719 27.986328 z"/></svg>