<?xml version="1.0" encoding="utf-8"?>
<!-- Generator: Adobe Illustrator 22.0.1, SVG Export Plug-In . SVG Version: 6.00 Build 0)  -->
<svg version="1.1" id="Layer_2" xmlns="http://www.w3.org/2000/svg" xmlns:xlink="http://www.w3.org/1999/xlink" x="0px" y="0px"
	 viewBox="0 0 256 256" style="enable-background:new 0 0 256 256;" xml:space="preserve">
<style type="text/css">
	.st0{fill:#3A312A;}
	.st1{fill:#D7E057;}
	.st2{fill:#FCE8CB;}
	.st3{fill:#8AC6DD;}
	.st4{fill-rule:evenodd;clip-rule:evenodd;fill:#FCE8CB;}
	.st5{fill:#F5978A;}
	.st6{fill:#87796F;}
	.st7{fill:#F16C7A;}
	.st8{fill:#68A8BC;}
	.st9{fill:#B9BC39;}
	.st10{fill:#CE4E61;}
	.st11{fill:#6B5B51;}
	.st12{fill:#CCAE8B;}
	.st13{fill-rule:evenodd;clip-rule:evenodd;fill:#F16C7A;}
</style>
<g>
	<g>
		<g>
			<path class="st1" d="M90.313,26.27C89.34,37.834,77.289,39.66,77.289,39.66c10.347,0.487,12.925,14.059,12.925,14.059
				c0.221-9.677,13.321-14.202,13.321-14.202C93.722,38.93,90.313,26.27,90.313,26.27z"/>
		</g>
	</g>
	<g>
		<g>
			<path class="st0" d="M103.625,38.019c-8.604-0.514-11.832-12.024-11.863-12.14c-0.19-0.702-0.848-1.164-1.584-1.102
				c-0.725,0.066-1.298,0.642-1.359,1.367c-0.859,10.215-11.313,11.963-11.754,12.032c-0.763,0.115-1.313,0.79-1.273,1.56
				c0.04,0.77,0.657,1.384,1.428,1.421c9.027,0.425,11.498,12.719,11.521,12.843c0.138,0.711,0.76,1.217,1.473,1.217
				c0.042,0,0.084-0.002,0.126-0.005c0.764-0.064,1.357-0.693,1.375-1.459c0.194-8.509,12.191-12.777,12.313-12.819
				c0.676-0.235,1.092-0.915,0.994-1.623C104.922,38.603,104.339,38.062,103.625,38.019z M90.059,48.365
				c-1.356-3.13-3.708-6.908-7.586-8.877c2.931-1.404,6.408-3.913,8.201-8.272c1.551,3.071,4.2,6.88,8.334,8.722
				C96.001,41.578,92.085,44.344,90.059,48.365z"/>
		</g>
	</g>
	<g>
		<g>
			<path class="st1" d="M68.615,43.251c-0.689,8.179-9.212,9.471-9.212,9.471c7.318,0.344,9.142,9.944,9.142,9.944
				c0.156-6.844,9.422-10.045,9.422-10.045C71.026,52.205,68.615,43.251,68.615,43.251z"/>
		</g>
	</g>
	<g>
		<g>
			<path class="st0" d="M78.057,51.123c-5.767-0.345-7.972-8.185-7.993-8.264c-0.19-0.702-0.857-1.165-1.582-1.102
				c-0.726,0.065-1.3,0.642-1.361,1.368c-0.579,6.87-7.646,8.066-7.942,8.113c-0.763,0.115-1.313,0.79-1.273,1.561
				c0.04,0.77,0.657,1.384,1.428,1.421c6.035,0.284,7.724,8.644,7.739,8.726c0.136,0.712,0.759,1.22,1.473,1.22
				c0.041,0,0.083-0.001,0.125-0.005c0.765-0.063,1.358-0.694,1.376-1.461c0.13-5.709,8.331-8.634,8.412-8.662
				c0.676-0.234,1.093-0.913,0.996-1.622C79.355,51.707,78.771,51.166,78.057,51.123z M68.472,57.918
				c-0.924-1.886-2.34-3.947-4.447-5.28c1.855-1.041,3.697-2.629,4.871-4.916c1.057,1.874,2.654,3.955,4.941,5.224
				C71.986,54.046,69.848,55.685,68.472,57.918z"/>
		</g>
	</g>
	<g>
		<g>
			<path class="st1" d="M68.615,16.593c-0.689,8.179-9.212,9.471-9.212,9.471c7.318,0.344,9.142,9.944,9.142,9.944
				c0.156-6.845,9.422-10.045,9.422-10.045C71.026,25.547,68.615,16.593,68.615,16.593z"/>
		</g>
	</g>
	<g>
		<g>
			<path class="st0" d="M78.057,24.465c-5.767-0.345-7.972-8.186-7.993-8.265c-0.19-0.702-0.857-1.165-1.582-1.102
				c-0.726,0.065-1.3,0.642-1.361,1.368c-0.579,6.871-7.646,8.067-7.942,8.114c-0.763,0.115-1.313,0.79-1.273,1.56
				c0.04,0.77,0.657,1.384,1.428,1.421c6.035,0.284,7.724,8.644,7.739,8.726c0.136,0.713,0.759,1.22,1.473,1.22
				c0.041,0,0.083-0.001,0.125-0.005c0.765-0.064,1.358-0.694,1.376-1.461c0.13-5.709,8.331-8.634,8.412-8.662
				c0.676-0.234,1.093-0.913,0.996-1.622C79.355,25.05,78.771,24.508,78.057,24.465z M68.472,31.26
				c-0.924-1.885-2.34-3.947-4.447-5.28c1.855-1.041,3.697-2.63,4.871-4.917c1.057,1.874,2.654,3.955,4.941,5.224
				C71.987,27.389,69.848,29.028,68.472,31.26z"/>
		</g>
	</g>
	<g>
		<g>
			<path class="st1" d="M40.615,117.646c-0.488-1.641-2.213-2.576-3.854-2.088l-17.749,5.273c-1.641,0.487-2.576,2.213-2.088,3.854
				l2.807,9.448l23.69-7.039L40.615,117.646z"/>
		</g>
	</g>
	<g>
		<g>
			<path class="st0" d="M44.86,126.667l-2.808-9.448c-0.35-1.178-1.137-2.148-2.217-2.734c-1.08-0.585-2.324-0.716-3.501-0.365
				l-17.749,5.273c-1.178,0.35-2.148,1.137-2.734,2.218c-0.585,1.08-0.715,2.323-0.364,3.501l2.808,9.448
				c0.193,0.652,0.79,1.073,1.437,1.073c0.142,0,0.286-0.021,0.428-0.063l23.69-7.039c0.382-0.113,0.702-0.374,0.892-0.723
				C44.932,127.459,44.974,127.048,44.86,126.667z M20.743,132.268l-2.381-8.01c-0.121-0.409-0.076-0.842,0.127-1.217
				c0.204-0.376,0.541-0.649,0.95-0.771l17.749-5.273c0.151-0.045,0.305-0.067,0.458-0.067c0.263,0,0.522,0.065,0.76,0.194
				c0.376,0.204,0.649,0.541,0.771,0.95c0,0,0,0,0,0l2.38,8.01L20.743,132.268z"/>
		</g>
	</g>
	<g>
		<g>
			<path class="st1" d="M73.579,228.592l-2.807-9.449l-23.69,7.039l2.807,9.448c0.487,1.641,2.213,2.576,3.854,2.088l17.749-5.273
				C73.132,231.958,74.067,230.233,73.579,228.592z"/>
		</g>
	</g>
	<g>
		<g>
			<path class="st0" d="M75.017,228.165l-2.808-9.448c-0.235-0.794-1.073-1.243-1.864-1.011l-23.69,7.039
				c-0.382,0.113-0.702,0.374-0.892,0.723c-0.19,0.35-0.232,0.761-0.119,1.142l2.808,9.449c0.593,1.995,2.427,3.289,4.41,3.289
				c0.433,0,0.873-0.061,1.308-0.191l17.749-5.273c1.178-0.35,2.148-1.137,2.734-2.218
				C75.237,230.586,75.367,229.343,75.017,228.165z M72.015,230.237c-0.204,0.376-0.541,0.649-0.95,0.771l-17.749,5.273
				c-0.846,0.252-1.738-0.232-1.989-1.077l-2.38-8.011l20.814-6.184l2.381,8.01C72.263,229.429,72.218,229.861,72.015,230.237z"/>
		</g>
	</g>
	<g>
		<g>
			
				<rect x="32.895" y="128.625" transform="matrix(0.9586 -0.2848 0.2848 0.9586 -48.4339 20.2037)" class="st7" width="24.714" height="96.027"/>
		</g>
	</g>
	<g>
		<g>
			<path class="st0" d="M72.209,218.717l-27.349-92.05c-0.235-0.794-1.074-1.244-1.864-1.011l-23.69,7.039
				c-0.382,0.113-0.702,0.374-0.892,0.723c-0.19,0.35-0.232,0.761-0.119,1.142l27.349,92.05c0.193,0.651,0.79,1.073,1.437,1.073
				c0.142,0,0.286-0.021,0.428-0.063l23.69-7.039c0.382-0.113,0.702-0.373,0.892-0.723C72.28,219.509,72.322,219.098,72.209,218.717
				z M48.092,224.317l-26.494-89.174l20.814-6.184l26.494,89.174L48.092,224.317z"/>
		</g>
	</g>
	<g>
		<g>
			<path class="st1" d="M39.625,34.838c-0.764-1.532-2.625-2.154-4.156-1.39l-16.569,8.264c-1.532,0.764-2.154,2.625-1.39,4.157
				l4.399,8.821l22.116-11.03L39.625,34.838z"/>
		</g>
	</g>
	<g>
		<g>
			<path class="st0" d="M45.367,42.989l-4.399-8.821c-1.133-2.269-3.896-3.195-6.17-2.063l-16.568,8.264
				c-2.269,1.132-3.194,3.899-2.063,6.169l4.399,8.82c0.263,0.526,0.793,0.831,1.344,0.831c0.226,0,0.453-0.051,0.669-0.158
				l22.116-11.03c0.355-0.178,0.626-0.489,0.753-0.867C45.573,43.757,45.544,43.345,45.367,42.989z M22.581,52.677l-3.729-7.478
				c-0.394-0.789-0.072-1.751,0.718-2.145l16.567-8.264c0.229-0.114,0.472-0.168,0.712-0.168c0.588,0,1.154,0.325,1.434,0.885
				l3.73,7.478L22.581,52.677z"/>
		</g>
	</g>
	<g>
		<g>
			<path class="st1" d="M91.281,138.411l-4.399-8.821l-22.116,11.03l4.399,8.821c0.764,1.532,2.625,2.154,4.157,1.39l16.569-8.264
				C91.422,141.804,92.044,139.943,91.281,138.411z"/>
		</g>
	</g>
	<g>
		<g>
			<path class="st0" d="M92.623,137.742l-4.398-8.821c-0.178-0.356-0.489-0.627-0.867-0.753c-0.377-0.127-0.79-0.098-1.146,0.08
				l-22.116,11.03c-0.355,0.178-0.626,0.489-0.753,0.867c-0.126,0.377-0.097,0.789,0.08,1.145l4.399,8.82
				c0.549,1.099,1.492,1.92,2.657,2.309c0.479,0.16,0.973,0.24,1.463,0.24c0.703,0,1.401-0.163,2.049-0.486l16.569-8.264
				c1.099-0.548,1.919-1.492,2.309-2.657C93.259,140.088,93.171,138.841,92.623,137.742z M90.023,140.302
				c-0.135,0.405-0.42,0.733-0.803,0.924l-16.569,8.264c-0.382,0.19-0.815,0.221-1.221,0.085c-0.404-0.135-0.732-0.42-0.923-0.803
				l-3.73-7.478l19.432-9.691l3.729,7.479C90.129,139.463,90.159,139.897,90.023,140.302z"/>
		</g>
	</g>
	<g>
		<g>
			
				<rect x="42.038" y="44.126" transform="matrix(0.8949 -0.4463 0.4463 0.8949 -35.4049 33.9629)" class="st7" width="24.714" height="96.027"/>
		</g>
	</g>
	<g>
		<g>
			<path class="st0" d="M88.225,128.921L45.367,42.989c-0.37-0.741-1.268-1.044-2.013-0.673l-22.116,11.03
				c-0.355,0.178-0.626,0.489-0.753,0.867c-0.126,0.377-0.097,0.789,0.08,1.145l42.857,85.933c0.178,0.356,0.489,0.627,0.867,0.753
				c0.154,0.052,0.315,0.078,0.476,0.078c0.23,0,0.46-0.053,0.67-0.158l22.116-11.03C88.293,130.563,88.594,129.663,88.225,128.921z
				 M65.438,138.609L23.92,55.361l19.432-9.691l41.519,83.248L65.438,138.609z"/>
		</g>
	</g>
	<g>
		<g>
			<path class="st3" d="M100.882,82v27.222v15.556V225c0,8.01,6.49,14.5,14.5,14.5h109.32c8.01,0,14.5-6.49,14.5-14.5V82H100.882z"
				/>
		</g>
	</g>
	<g>
		<g>
			<path class="st0" d="M239.202,80.5h-138.32c-0.828,0-1.5,0.671-1.5,1.5v27.222c0,0.829,0.672,1.5,1.5,1.5s1.5-0.671,1.5-1.5V83.5
				h135.32V225c0,7.169-5.832,13-13,13h-109.32c-7.168,0-13-5.831-13-13V124.778c0-0.829-0.672-1.5-1.5-1.5s-1.5,0.671-1.5,1.5V225
				c0,8.822,7.178,16,16,16h109.32c8.822,0,16-7.178,16-16V82C240.702,81.171,240.03,80.5,239.202,80.5z"/>
		</g>
	</g>
	<g>
		<g>
			<polygon class="st1" points="228.667,36.781 111.459,36.781 100.88,82 239.205,82 			"/>
		</g>
	</g>
	<g>
		<g>
			<path class="st0" d="M240.665,81.66l-10.537-45.22c-0.158-0.679-0.764-1.16-1.461-1.16H111.459c-0.697,0-1.302,0.48-1.461,1.158
				l-10.579,45.22c-0.104,0.446,0.001,0.915,0.286,1.274c0.284,0.359,0.717,0.568,1.175,0.568h138.324
				c0.458,0,0.891-0.209,1.175-0.567S240.769,82.106,240.665,81.66z M102.771,80.5l9.877-42.22h114.828l9.838,42.22H102.771z"/>
		</g>
	</g>
	<g>
		<g>
			<rect x="100.882" y="138.45" class="st2" width="138.32" height="45.22"/>
		</g>
	</g>
	<g>
		<g>
			<path class="st0" d="M239.202,136.95h-138.32c-0.828,0-1.5,0.671-1.5,1.5v45.22c0,0.829,0.672,1.5,1.5,1.5h138.32
				c0.828,0,1.5-0.671,1.5-1.5v-45.22C240.702,137.622,240.03,136.95,239.202,136.95z M237.702,182.17h-135.32v-42.22h135.32V182.17
				z"/>
		</g>
	</g>
	<g>
		<g>
			<path class="st1" d="M217.833,16.5h-95.581c-5.959,0-10.791,4.831-10.791,10.791v9.49h117.162v-9.49
				C228.623,21.331,223.792,16.5,217.833,16.5z"/>
		</g>
	</g>
	<g>
		<g>
			<path class="st0" d="M217.833,15h-14.261c-0.828,0-1.5,0.671-1.5,1.5s0.672,1.5,1.5,1.5h14.261c5.122,0,9.29,4.167,9.29,9.291
				v7.99H112.961v-7.99c0-5.123,4.168-9.291,9.291-9.291h66.26c0.828,0,1.5-0.671,1.5-1.5s-0.672-1.5-1.5-1.5h-66.26
				c-6.777,0-12.291,5.514-12.291,12.291v9.49c0,0.829,0.672,1.5,1.5,1.5h117.162c0.828,0,1.5-0.671,1.5-1.5v-9.49
				C230.123,20.514,224.609,15,217.833,15z"/>
		</g>
	</g>
	<g>
		<g>
			<path class="st0" d="M154.204,147.225h-8.238l-2.98,9.273c-0.91,3.105-1.862,6.79-2.649,10.019h-0.124
				c-0.621-3.271-1.49-6.748-2.359-9.977l-2.732-9.315h-8.403l-1.78,27.902h5.837l0.497-10.598c0.207-3.477,0.331-7.783,0.496-11.55
				h0.083c0.662,3.643,1.614,7.617,2.525,10.888l2.98,10.804h4.927l3.395-10.887c1.076-3.27,2.235-7.245,3.104-10.805h0.124
				c0,4.057,0.124,8.114,0.248,11.467l0.414,10.681h6.169L154.204,147.225z"/>
		</g>
	</g>
	<g>
		<g>
			<rect x="160.577" y="147.225" class="st0" width="6.334" height="27.902"/>
		</g>
	</g>
	<g>
		<g>
			<polygon class="st0" points="178.707,169.828 178.707,147.225 172.373,147.225 172.373,175.127 189.801,175.127 189.801,169.828 
							"/>
		</g>
	</g>
	<g>
		<g>
			<path class="st0" d="M206.649,159.106l9.231-11.881h-7.741l-6.334,9.273c-0.621,0.994-1.283,1.987-1.904,3.064h-0.124v-12.336
				h-6.251v27.902h6.251v-9.107l2.4-2.939l6.831,12.046h7.368L206.649,159.106z"/>
		</g>
	</g>
	<g>
		<g>
			<path class="st8" d="M225.032,185.17V225c0,7.17-5.84,13-13,13h12.67c7.17,0,13-5.83,13-13v-39.83H225.032z"/>
		</g>
	</g>
	<g>
		<g>
			<rect x="225.032" y="83.5" class="st8" width="12.67" height="53.45"/>
		</g>
	</g>
	<g>
		<g>
			<polygon class="st9" points="227.472,38.28 214.802,38.28 224.642,80.5 237.312,80.5 			"/>
		</g>
	</g>
	<g>
		<g>
			<rect x="225.032" y="139.95" class="st12" width="12.67" height="42.22"/>
		</g>
	</g>
	<g>
		<g>
			<path class="st9" d="M217.832,18h-12.67c5.12,0,9.29,4.17,9.29,9.29v7.99h12.67v-7.99C227.122,22.17,222.952,18,217.832,18z"/>
		</g>
	</g>
</g>
</svg>
