<svg fill="#000000" xmlns="http://www.w3.org/2000/svg"  viewBox="0 0 48 48" width="24px" height="24px"><path d="M 23.976562 3.9785156 A 1.50015 1.50015 0 0 0 22.5 5.5 L 22.5 10 L 16.5 10 A 1.50015 1.50015 0 1 0 16.5 13 L 18.132812 13 C 14.726727 13 11.638615 15.036502 10.296875 18.166016 C 9.3858503 20.292549 9.3798151 22.699797 10.277344 24.832031 L 10.253906 24.773438 L 16.580078 41.798828 A 1.50015 1.50015 0 0 0 16.603516 41.857422 C 17.148265 43.152951 18.424623 44 19.828125 44 L 28.173828 44 C 29.577586 44 30.85413 43.151894 31.398438 41.857422 A 1.50015 1.50015 0 0 0 31.421875 41.798828 L 37.75 24.773438 L 37.724609 24.832031 C 38.622444 22.700282 38.616183 20.292738 37.705078 18.166016 C 36.362178 15.036629 33.273273 13 29.867188 13 L 31.5 13 A 1.50015 1.50015 0 1 0 31.5 10 L 25.5 10 L 25.5 5.5 A 1.50015 1.50015 0 0 0 23.976562 3.9785156 z M 18.132812 16 L 22.5 16 L 22.5 21.634766 C 20.955676 20.97538 19.446705 20.734829 18.076172 20.791016 C 17.220577 20.826096 16.418316 20.970013 15.693359 21.1875 C 14.498594 21.54593 13.494127 22.0746 12.710938 22.574219 C 12.502124 21.496688 12.615403 20.373042 13.054688 19.347656 C 13.926947 17.31317 15.918898 16 18.132812 16 z M 25.5 16 L 29.867188 16 C 32.081102 16 34.074164 17.313045 34.947266 19.347656 C 35.53816 20.726933 35.543104 22.285718 34.960938 23.667969 A 1.50015 1.50015 0 0 0 34.9375 23.726562 L 33.726562 26.984375 C 29.581282 26.901647 28.276588 26.155494 26.560547 24.439453 C 26.20943 24.088336 25.855158 23.768075 25.5 23.474609 L 25.5 16 z M 18.228516 23.740234 C 19.997526 23.610842 22.060678 24.181771 24.439453 26.560547 C 26.338236 28.45933 28.625022 29.661136 32.628906 29.9375 L 28.630859 40.697266 C 28.550633 40.885141 28.379057 41 28.173828 41 L 19.828125 41 C 19.624632 41 19.450904 40.884111 19.371094 40.697266 L 13.730469 25.517578 C 14.333354 25.062842 15.291901 24.441922 16.556641 24.0625 C 17.081684 23.904987 17.638845 23.783365 18.228516 23.740234 z"/></svg>