<?xml version="1.0" encoding="utf-8"?>
<!-- Generator: Adobe Illustrator 22.0.1, SVG Export Plug-In . SVG Version: 6.00 Build 0)  -->
<svg version="1.1" id="Layer_2" xmlns="http://www.w3.org/2000/svg" xmlns:xlink="http://www.w3.org/1999/xlink" x="0px" y="0px"
	 viewBox="0 0 256 256" style="enable-background:new 0 0 256 256;" xml:space="preserve">
<style type="text/css">
	.st0{fill:#3A312A;}
	.st1{fill:#D7E057;}
	.st2{fill:#FCE8CB;}
	.st3{fill:#8AC6DD;}
	.st4{fill-rule:evenodd;clip-rule:evenodd;fill:#FCE8CB;}
	.st5{fill:#F5978A;}
	.st6{fill:#87796F;}
	.st7{fill:#F16C7A;}
	.st8{fill:#68A8BC;}
	.st9{fill:#B9BC39;}
	.st10{fill:#CE4E61;}
	.st11{fill:#6B5B51;}
	.st12{fill:#CCAE8B;}
	.st13{fill-rule:evenodd;clip-rule:evenodd;fill:#F16C7A;}
</style>
<g>
	<g>
		<g>
			<path class="st1" d="M47.298,26.237c-0.974,11.563-13.025,13.389-13.025,13.389c10.347,0.487,12.925,14.059,12.925,14.059
				C47.42,44.009,60.52,39.483,60.52,39.483C50.706,38.896,47.298,26.237,47.298,26.237z"/>
		</g>
	</g>
	<g>
		<g>
			<path class="st0" d="M60.609,37.986c-8.605-0.515-11.832-12.024-11.864-12.141c-0.19-0.702-0.848-1.156-1.584-1.102
				c-0.725,0.066-1.298,0.642-1.359,1.367c-0.86,10.215-11.313,11.964-11.754,12.032c-0.763,0.116-1.313,0.791-1.273,1.561
				c0.04,0.771,0.657,1.385,1.428,1.421c9.028,0.425,11.499,12.718,11.523,12.843c0.137,0.711,0.759,1.217,1.472,1.217
				c0.042,0,0.084-0.002,0.126-0.005c0.764-0.064,1.357-0.693,1.375-1.46C48.893,45.211,60.89,40.942,61.011,40.9
				c0.675-0.234,1.092-0.914,0.994-1.622C61.907,38.569,61.323,38.028,60.609,37.986z M47.043,48.332
				c-1.356-3.131-3.708-6.907-7.587-8.877c2.931-1.404,6.409-3.912,8.202-8.272c1.551,3.071,4.2,6.88,8.334,8.723
				C52.985,41.545,49.07,44.311,47.043,48.332z"/>
		</g>
	</g>
	<g>
		<g>
			<path class="st1" d="M25.599,43.218c-0.689,8.179-9.212,9.47-9.212,9.47c7.318,0.345,9.142,9.944,9.142,9.944
				c0.156-6.844,9.422-10.045,9.422-10.045C28.01,52.172,25.599,43.218,25.599,43.218z"/>
		</g>
	</g>
	<g>
		<g>
			<path class="st0" d="M35.04,51.09c-5.766-0.345-7.972-8.186-7.993-8.265c-0.19-0.702-0.86-1.155-1.582-1.102
				c-0.726,0.065-1.299,0.643-1.36,1.368c-0.579,6.87-7.647,8.066-7.942,8.113c-0.763,0.116-1.314,0.791-1.273,1.561
				c0.04,0.771,0.657,1.385,1.428,1.421c6.035,0.284,7.723,8.645,7.739,8.727c0.135,0.713,0.759,1.22,1.472,1.22
				c0.042,0,0.083-0.002,0.125-0.005c0.765-0.063,1.358-0.693,1.376-1.461c0.13-5.709,8.332-8.634,8.412-8.662
				c0.677-0.234,1.094-0.913,0.996-1.622C36.34,51.674,35.755,51.132,35.04,51.09z M25.456,57.885
				c-0.924-1.886-2.34-3.947-4.447-5.28c1.855-1.041,3.697-2.629,4.871-4.916c1.057,1.874,2.654,3.954,4.941,5.224
				C28.971,54.013,26.832,55.652,25.456,57.885z"/>
		</g>
	</g>
	<g>
		<g>
			<path class="st1" d="M25.599,16.56c-0.689,8.179-9.212,9.471-9.212,9.471c7.318,0.344,9.142,9.944,9.142,9.944
				c0.156-6.845,9.422-10.045,9.422-10.045C28.01,25.514,25.599,16.56,25.599,16.56z"/>
		</g>
	</g>
	<g>
		<g>
			<path class="st0" d="M35.041,24.433c-5.766-0.346-7.972-8.186-7.994-8.265c-0.19-0.702-0.86-1.157-1.582-1.102
				c-0.726,0.065-1.299,0.643-1.36,1.368c-0.579,6.87-7.646,8.065-7.942,8.112c-0.763,0.116-1.313,0.791-1.273,1.561
				c0.04,0.771,0.657,1.385,1.427,1.421c6.035,0.284,7.724,8.645,7.739,8.727c0.135,0.713,0.759,1.22,1.472,1.22
				c0.042,0,0.083-0.002,0.125-0.005c0.765-0.063,1.358-0.693,1.376-1.461c0.13-5.708,8.332-8.633,8.412-8.661
				c0.676-0.234,1.094-0.913,0.996-1.622C36.34,25.017,35.755,24.476,35.041,24.433z M25.456,31.228
				c-0.924-1.886-2.34-3.947-4.447-5.28c1.856-1.041,3.697-2.63,4.871-4.916c1.057,1.874,2.654,3.954,4.941,5.224
				C28.972,27.355,26.832,28.995,25.456,31.228z"/>
		</g>
	</g>
	<g>
		<g>
			<rect x="68.673" y="38.049" class="st7" width="170.94" height="180.019"/>
		</g>
	</g>
	<g>
		<g>
			<path class="st0" d="M239.613,36.549H68.673c-0.829,0-1.5,0.672-1.5,1.5v133.078c0,0.828,0.671,1.5,1.5,1.5
				c0.829,0,1.5-0.672,1.5-1.5V39.549h167.94v177.02H70.173v-30.912c0-0.828-0.671-1.5-1.5-1.5c-0.829,0-1.5,0.672-1.5,1.5v32.412
				c0,0.828,0.671,1.5,1.5,1.5h170.94c0.828,0,1.5-0.672,1.5-1.5V38.049C241.113,37.221,240.441,36.549,239.613,36.549z"/>
		</g>
	</g>
	<g>
		<g>
			<rect x="68.673" y="106.247" class="st2" width="170.94" height="43.624"/>
		</g>
	</g>
	<g>
		<g>
			<path class="st0" d="M239.613,104.747H138.397c-0.828,0-1.5,0.672-1.5,1.5s0.672,1.5,1.5,1.5h99.716v40.623H70.173v-40.623
				h54.444c0.829,0,1.5-0.672,1.5-1.5s-0.671-1.5-1.5-1.5H68.673c-0.829,0-1.5,0.672-1.5,1.5v43.623c0,0.828,0.671,1.5,1.5,1.5
				h170.94c0.828,0,1.5-0.672,1.5-1.5v-43.623C241.113,105.419,240.441,104.747,239.613,104.747z"/>
		</g>
	</g>
	<g>
		<g>
			<path class="st1" d="M230.533,18.865c-5.052-2.967-11.545-2.94-16.568,0.068l-0.481,0.288c-5.064,3.033-11.618,3.033-16.683,0
				l-0.399-0.239c-5.064-3.033-11.618-3.033-16.683,0l-0.305,0.183c-5.112,3.062-11.736,3.031-16.813-0.079
				c-5.05-3.093-11.635-3.142-16.74-0.124l-0.615,0.364c-5.032,2.975-11.509,2.974-16.54-0.003l-0.748-0.443
				c-5.03-2.978-11.508-2.979-16.539-0.003l-0.645,0.381c-5.09,3.01-11.652,2.971-16.699-0.099l-0.139-0.084
				c-5.073-3.085-11.676-3.107-16.773-0.054l-8.492,5.085v13.942h170.94V24.197L230.533,18.865z"/>
		</g>
	</g>
	<g>
		<g>
			<path class="st0" d="M240.373,22.903l-9.08-5.331c-5.512-3.238-12.615-3.209-18.098,0.074l-0.001,0.001l-0.479,0.287
				c-4.6,2.756-10.543,2.755-15.141,0.001l-0.4-0.24c-5.534-3.314-12.688-3.313-18.223-0.001l-0.307,0.184
				c-4.65,2.786-10.64,2.758-15.26-0.071c-5.523-3.385-12.702-3.438-18.285-0.136l-0.616,0.364
				c-4.561,2.696-10.452,2.695-15.013-0.003l-0.748-0.442c-5.487-3.247-12.578-3.25-18.066-0.003l-0.645,0.381
				c-4.623,2.735-10.572,2.699-15.161-0.092l-0.134-0.081c-5.553-3.377-12.746-3.402-18.323-0.061l-8.492,5.086
				c-0.453,0.271-0.729,0.76-0.729,1.287V38.05c0,0.828,0.671,1.5,1.5,1.5h170.94c0.828,0,1.5-0.672,1.5-1.5V24.197
				C241.113,23.665,240.832,23.173,240.373,22.903z M238.113,36.55H70.173V24.957l7.762-4.648
				c4.635-2.776,10.609-2.758,15.227,0.052l0.134,0.081c5.518,3.356,12.678,3.4,18.242,0.108l0.645-0.381
				c4.56-2.696,10.453-2.695,15.012,0.003l0.748,0.442c5.487,3.247,12.579,3.249,18.066,0.004l0.616-0.364
				c4.64-2.743,10.604-2.7,15.192,0.111c5.56,3.404,12.771,3.438,18.366,0.088l0.307-0.184c4.599-2.756,10.543-2.755,15.14-0.001
				l0.4,0.24c5.535,3.314,12.688,3.315,18.226-0.001l0.479-0.287c4.555-2.728,10.457-2.753,15.037-0.062l8.34,4.896V36.55z"/>
		</g>
	</g>
	<g>
		<g>
			<path class="st1" d="M68.673,218.038v13.942l8.492,5.085c5.097,3.053,11.7,3.031,16.773-0.054l0.139-0.084
				c5.047-3.07,11.609-3.108,16.699-0.099l0.645,0.381c5.031,2.976,11.509,2.975,16.539-0.003l0.748-0.443
				c5.03-2.977,11.508-2.978,16.54-0.002l0.615,0.363c5.105,3.019,11.689,2.97,16.74-0.123c5.077-3.11,11.701-3.141,16.813-0.079
				l0.305,0.183c5.064,3.033,11.618,3.033,16.683,0l0.399-0.239c5.064-3.033,11.618-3.033,16.683,0l0.481,0.288
				c5.023,3.008,11.515,3.035,16.568,0.068l9.08-5.331v-13.853H68.673z"/>
		</g>
	</g>
	<g>
		<g>
			<path class="st0" d="M239.613,216.538H68.673c-0.829,0-1.5,0.672-1.5,1.5v13.941c0,0.527,0.277,1.016,0.729,1.287l8.492,5.086
				c5.578,3.341,12.771,3.317,18.318-0.058l0.144-0.087c4.584-2.787,10.532-2.822,15.156-0.089l0.644,0.381
				c2.744,1.623,5.887,2.434,9.031,2.434c3.145,0,6.291-0.813,9.035-2.437l0.75-0.442c4.559-2.698,10.452-2.7,15.013-0.002
				l0.614,0.362c5.586,3.303,12.763,3.249,18.286-0.135c4.62-2.828,10.608-2.856,15.261-0.07l0.305,0.182
				c5.536,3.315,12.689,3.316,18.226-0.001l0.396-0.238c4.6-2.756,10.544-2.755,15.142-0.001l0.481,0.289
				c5.48,3.281,12.583,3.313,18.098,0.075l9.08-5.331c0.458-0.27,0.74-0.762,0.74-1.294v-13.853
				C241.113,217.21,240.441,216.538,239.613,216.538z M238.113,231.032l-8.34,4.896c-4.581,2.689-10.481,2.666-15.036-0.062
				l-0.481-0.289c-5.535-3.314-12.689-3.315-18.227,0.001l-0.396,0.238c-4.6,2.756-10.543,2.755-15.143-0.001l-0.305-0.182
				c-5.596-3.352-12.807-3.318-18.367,0.087c-4.591,2.812-10.552,2.855-15.193,0.11l-0.614-0.362
				c-5.487-3.246-12.578-3.244-18.066,0.003l-0.75,0.442c-4.559,2.698-10.451,2.699-15.012,0.003l-0.644-0.381
				c-2.751-1.627-5.893-2.439-9.033-2.439c-3.21,0-6.418,0.85-9.205,2.545l-0.144,0.087c-4.613,2.806-10.587,2.826-15.223,0.049
				l-7.762-4.648v-11.592h167.94V231.032z"/>
		</g>
	</g>
	<g>
		<g>
			<path class="st0" d="M103.577,125.715c-3.236-1.228-4.65-1.935-4.65-3.534c0-1.302,1.19-2.418,3.645-2.418
				c2.456,0,4.241,0.707,5.246,1.19l1.264-4.576c-1.487-0.669-3.571-1.265-6.398-1.265c-5.915,0-9.486,3.273-9.486,7.551
				c0,3.646,2.716,5.952,6.882,7.404c3.013,1.079,4.204,1.971,4.204,3.534c0,1.636-1.377,2.715-3.981,2.715
				c-2.418,0-4.762-0.781-6.287-1.562l-1.153,4.688c1.414,0.782,4.241,1.524,7.105,1.524c6.882,0,10.119-3.571,10.119-7.775
				C110.087,129.658,108.004,127.352,103.577,125.715z"/>
		</g>
	</g>
	<g>
		<g>
			<path class="st0" d="M130.581,115.522v14.435c0,4.426-1.637,6.51-4.613,6.51c-2.902,0-4.539-2.195-4.539-6.51v-14.435h-5.692
				v13.988c0,7.998,3.72,11.495,10.044,11.495c6.547,0,10.454-3.682,10.454-11.421v-14.062H130.581z"/>
		</g>
	</g>
	<g>
		<g>
			<path class="st0" d="M154.607,126.236v4.428h3.87v5.245c-0.446,0.224-1.489,0.372-2.79,0.372c-4.651,0-7.887-3.051-7.887-8.221
				c0-5.432,3.571-8.11,8.296-8.11c2.752,0,4.464,0.483,5.84,1.079l1.19-4.54c-1.228-0.594-3.72-1.227-6.956-1.227
				c-8.221,0-14.286,4.762-14.323,13.095c-0.037,3.682,1.228,6.956,3.534,9.113c2.306,2.233,5.617,3.386,10.193,3.386
				c3.31,0,6.622-0.819,8.37-1.414v-13.207H154.607z"/>
		</g>
	</g>
	<g>
		<g>
			<path class="st0" d="M183.51,115.522h-7.441l-7.663,25.074h5.878l1.786-6.436h7.18l1.935,6.436h6.101L183.51,115.522z
				 M176.888,129.919l1.488-5.319c0.409-1.452,0.782-3.349,1.153-4.836h0.075c0.372,1.487,0.819,3.348,1.265,4.836l1.562,5.319
				H176.888z"/>
		</g>
	</g>
	<g>
		<g>
			<path class="st0" d="M213.376,133.528c-0.631-2.306-1.599-3.98-3.348-4.687v-0.112c2.157-0.781,4.427-2.976,4.427-6.176
				c0-2.306-0.819-4.055-2.306-5.245c-1.786-1.413-4.39-1.972-8.111-1.972c-3.013,0-5.729,0.224-7.552,0.522v24.738h5.617v-9.857
				h1.712c2.306,0.036,3.385,0.892,4.055,4.017c0.743,3.088,1.34,5.133,1.748,5.84h5.803
				C214.939,139.629,214.158,136.355,213.376,133.528z M204.337,126.645h-2.233v-6.919c0.41-0.074,1.19-0.186,2.567-0.186
				c2.605,0.037,4.167,1.19,4.167,3.498C208.838,125.232,207.164,126.645,204.337,126.645z"/>
		</g>
	</g>
	<g>
		<g>
			<rect x="221.363" y="151.369" class="st10" width="16.75" height="65.17"/>
		</g>
	</g>
	<g>
		<g>
			<rect x="221.363" y="39.549" class="st10" width="16.75" height="65.2"/>
		</g>
	</g>
	<g>
		<g>
			<rect x="221.363" y="107.749" class="st12" width="16.75" height="40.62"/>
		</g>
	</g>
	<g>
		<g>
			<path class="st9" d="M229.773,20.159c-4.58-2.69-10.48-2.67-15.04,0.06l-0.48,0.29c-0.11,0.07-0.22,0.13-0.33,0.18
				c4.609,2.708,7.44,7.653,7.44,12.999v2.862h16.75v-11.49L229.773,20.159z"/>
		</g>
	</g>
	<g>
		<g>
			<path class="st9" d="M221.363,219.539v2.861c0,5.345-2.831,10.291-7.44,12.999c0.11,0.05,0.22,0.12,0.33,0.18l0.48,0.29
				c4.56,2.73,10.46,2.75,15.04,0.06l8.34-4.9v-11.49H221.363z"/>
		</g>
	</g>
</g>
</svg>
