<svg fill="#000000" xmlns="http://www.w3.org/2000/svg"  viewBox="0 0 48 48" width="24px" height="24px"><path d="M 21.552734 0.9375 C 20.18914 0.9375 19.052734 2.0739058 19.052734 3.4375 L 19.052734 6.0351562 A 1.50015 1.50015 0 0 0 18.947266 6.1738281 C 18.600644 6.6898509 17.826912 7.3832747 16.933594 8.1015625 C 16.13649 8.7424873 15.275568 9.4500754 14.513672 10.261719 C 14.509772 10.265919 14.50387 10.267284 14.5 10.271484 A 1.50015 1.50015 0 0 0 14.238281 10.505859 C 14.232981 10.511959 14.225993 10.515354 14.220703 10.521484 A 1.50015 1.50015 0 0 0 14.017578 10.832031 C 13.449913 11.562985 12.964844 12.432143 12.964844 13.5 C 12.964844 15.0205 13.740535 16.088014 14.242188 16.871094 C 14.743839 17.654174 15.046875 18.1664 15.046875 19 C 15.046875 19.8336 14.743839 20.345826 14.242188 21.128906 C 13.740535 21.911946 12.964844 22.9795 12.964844 24.5 L 12.964844 39.5 L 12.964844 40.5 C 12.964844 43.000693 15.08434 45 17.587891 45 L 30.412109 45 C 32.91566 45 35.035156 43.000693 35.035156 40.5 L 35.035156 39.5 L 35.035156 24.5 C 35.035156 22.9795 34.259465 21.911986 33.757812 21.128906 C 33.256161 20.345826 32.953125 19.8336 32.953125 19 C 32.953125 18.1664 33.256161 17.654174 33.757812 16.871094 C 34.259465 16.088014 35.035156 15.0205 35.035156 13.5 C 35.035156 12.438111 34.55352 11.57443 33.990234 10.845703 A 1.50015 1.50015 0 0 0 33.779297 10.521484 C 33.770797 10.511584 33.762446 10.507907 33.753906 10.498047 A 1.50015 1.50015 0 0 0 33.521484 10.289062 C 32.048172 8.699365 30.092396 7.4546807 29.265625 6.4550781 A 1.5003182 1.5003182 0 0 0 28.9375 6.1601562 L 28.9375 3.4375 C 28.9375 2.0739058 27.801094 0.9375 26.4375 0.9375 L 21.552734 0.9375 z M 22.052734 3.9375 L 25.9375 3.9375 L 25.9375 5.9375 L 22.052734 5.9375 L 22.052734 3.9375 z M 20.523438 8.9375 L 27.466797 8.9375 C 28.87678 10.407116 30.650644 11.499795 31.482422 12.457031 A 1.50015 1.50015 0 0 0 31.507812 12.488281 C 31.910858 12.96189 32.035156 13.290991 32.035156 13.5 C 32.035156 13.9795 31.769816 14.411986 31.230469 15.253906 C 30.691122 16.095826 29.953125 17.3336 29.953125 19 C 29.953125 20.230694 30.355448 21.223679 30.783203 22 L 17.216797 22 C 17.644552 21.223679 18.046875 20.230694 18.046875 19 C 18.046875 17.3336 17.308878 16.095826 16.769531 15.253906 C 16.230184 14.411986 15.964844 13.9795 15.964844 13.5 C 15.964844 13.290674 16.087657 12.961112 16.492188 12.486328 A 1.50015 1.50015 0 0 0 16.521484 12.455078 C 17.032369 11.867871 17.898251 11.176141 18.814453 10.439453 C 19.39091 9.9759415 19.981729 9.4895883 20.523438 8.9375 z M 15.964844 25 L 32.035156 25 L 32.035156 36 L 15.964844 36 L 15.964844 25 z M 24.001953 26.0625 C 23.403953 26.3735 22.990234 26.991891 22.990234 27.712891 C 22.990234 27.761891 22.994047 27.808469 22.998047 27.855469 C 22.938047 27.878469 22.880266 27.904641 22.822266 27.931641 C 22.791266 27.894641 22.768375 27.852359 22.734375 27.818359 C 22.224375 27.308359 21.496516 27.164187 20.853516 27.367188 C 20.650516 28.010188 20.795688 28.738047 21.304688 29.248047 C 21.344687 29.288047 21.392547 29.314609 21.435547 29.349609 C 21.411547 29.403609 21.391094 29.459625 21.371094 29.515625 C 21.314094 29.510625 21.257219 29.505859 21.199219 29.505859 C 20.478219 29.505859 19.860828 29.917625 19.548828 30.515625 C 19.859828 31.113625 20.478219 31.527344 21.199219 31.527344 C 21.268219 31.527344 21.336344 31.520672 21.402344 31.513672 C 21.420344 31.558672 21.440938 31.602484 21.460938 31.646484 C 21.406938 31.688484 21.354688 31.733203 21.304688 31.783203 C 20.794687 32.293203 20.650516 33.021062 20.853516 33.664062 C 21.496516 33.867063 22.224375 33.721891 22.734375 33.212891 C 22.789375 33.157891 22.840719 33.100016 22.886719 33.041016 C 22.925719 33.058016 22.965859 33.072891 23.005859 33.087891 C 22.995859 33.163891 22.990234 33.240359 22.990234 33.318359 C 22.990234 34.039359 23.403953 34.658703 24.001953 34.970703 C 24.599953 34.659703 25.013672 34.039359 25.013672 33.318359 C 25.013672 33.239359 25.007047 33.162891 24.998047 33.087891 C 25.038047 33.072891 25.078187 33.058016 25.117188 33.041016 C 25.163187 33.101016 25.214531 33.158891 25.269531 33.212891 C 25.779531 33.722891 26.507391 33.867063 27.150391 33.664062 C 27.353391 33.021062 27.208219 32.293203 26.699219 31.783203 C 26.649219 31.733203 26.596969 31.689484 26.542969 31.646484 C 26.562969 31.602484 26.583562 31.558672 26.601562 31.513672 C 26.666562 31.520672 26.733734 31.527344 26.802734 31.527344 C 27.523734 31.527344 28.141125 31.113625 28.453125 30.515625 C 28.142125 29.917625 27.523734 29.505859 26.802734 29.505859 C 26.744734 29.505859 26.686859 29.509625 26.630859 29.515625 C 26.610859 29.459625 26.589406 29.404609 26.566406 29.349609 C 26.608406 29.314609 26.657266 29.288047 26.697266 29.248047 C 27.207266 28.738047 27.351437 28.010188 27.148438 27.367188 C 26.505437 27.164188 25.777578 27.309359 25.267578 27.818359 C 25.232578 27.853359 25.210688 27.895641 25.179688 27.931641 C 25.121688 27.904641 25.063906 27.878469 25.003906 27.855469 C 25.007906 27.807469 25.011719 27.760891 25.011719 27.712891 C 25.011719 26.991891 24.599953 26.3745 24.001953 26.0625 z M 24 29.068359 C 24.773 29.068359 25.400391 29.697703 25.400391 30.470703 C 25.400391 31.243703 24.773 31.871094 24 31.871094 C 23.227 31.871094 22.599609 31.243703 22.599609 30.470703 C 22.599609 29.697703 23.227 29.068359 24 29.068359 z M 15.964844 39 L 32.035156 39 L 32.035156 39.5 L 32.035156 40.5 C 32.035156 41.313307 31.358559 42 30.412109 42 L 17.587891 42 C 16.641441 42 15.964844 41.313307 15.964844 40.5 L 15.964844 39.5 L 15.964844 39 z"/></svg>