<svg fill="#000000" xmlns="http://www.w3.org/2000/svg"  viewBox="0 0 48 48" width="24px" height="24px"><path d="M 12.429688 4 C 10.55318 4 9 5.5531809 9 7.4296875 L 9 12.570312 C 9 13.584444 9.4626312 14.493864 10.175781 15.125 C 9.442808 16.059769 9 17.230031 9 18.5 L 9 38.5 C 9 41.519774 11.480226 44 14.5 44 L 33.5 44 C 36.519774 44 39 41.519774 39 38.5 L 39 18.5 C 39 17.230031 38.557192 16.059769 37.824219 15.125 C 38.537369 14.493864 39 13.584444 39 12.570312 L 39 7.4296875 C 39 5.5531809 37.446819 4 35.570312 4 L 12.429688 4 z M 12.429688 7 L 15.5 7 L 15.5 10 L 18.5 10 L 18.5 7 L 22.5 7 L 22.5 10 L 25.5 10 L 25.5 7 L 29.5 7 L 29.5 10 L 32.5 10 L 32.5 7 L 35.570312 7 C 35.825806 7 36 7.1741941 36 7.4296875 L 36 12.570312 C 36 12.825807 35.825806 13 35.570312 13 L 12.429688 13 C 12.174193 13 12 12.825806 12 12.570312 L 12 7.4296875 C 12 7.1741941 12.174194 7 12.429688 7 z M 14.5 16 L 33.5 16 C 34.898226 16 36 17.101774 36 18.5 L 36 38.5 C 36 39.898226 34.898226 41 33.5 41 L 14.5 41 C 13.101774 41 12 39.898226 12 38.5 L 12 18.5 C 12 17.101774 13.101774 16 14.5 16 z M 24 18.466797 C 22.719 19.133797 21.835937 20.457953 21.835938 22.001953 C 21.835938 22.105953 21.844516 22.206594 21.853516 22.308594 C 21.725516 22.357594 21.600562 22.41175 21.476562 22.46875 C 21.409562 22.39075 21.361109 22.301562 21.287109 22.226562 C 20.195109 21.134563 18.634813 20.823812 17.257812 21.257812 C 16.823812 22.634812 17.134562 24.196109 18.226562 25.287109 C 18.311563 25.372109 18.414859 25.427906 18.505859 25.503906 C 18.454859 25.619906 18.411188 25.738422 18.367188 25.857422 C 18.246188 25.845422 18.125 25.835938 18 25.835938 C 16.456 25.835938 15.131844 26.719 14.464844 28 C 15.131844 29.281 16.456 30.164062 18 30.164062 C 18.148 30.164062 18.292547 30.152719 18.435547 30.136719 C 18.474547 30.232719 18.516547 30.325922 18.560547 30.419922 C 18.445547 30.510922 18.333562 30.605891 18.226562 30.712891 C 17.134563 31.804891 16.823813 33.365187 17.257812 34.742188 C 18.634812 35.176187 20.196109 34.865438 21.287109 33.773438 C 21.405109 33.655437 21.510375 33.532297 21.609375 33.404297 C 21.693375 33.441297 21.781187 33.472859 21.867188 33.505859 C 21.846187 33.667859 21.833984 33.833953 21.833984 34.001953 C 21.833984 35.545953 22.717047 36.868156 23.998047 37.535156 C 25.279047 36.868156 26.164062 35.545953 26.164062 34.001953 C 26.164062 33.833953 26.151859 33.667859 26.130859 33.505859 C 26.216859 33.472859 26.304672 33.441297 26.388672 33.404297 C 26.487672 33.532297 26.592937 33.656438 26.710938 33.773438 C 27.802937 34.865437 29.363234 35.176188 30.740234 34.742188 C 31.174234 33.365187 30.863484 31.803891 29.771484 30.712891 C 29.665484 30.606891 29.5525 30.510922 29.4375 30.419922 C 29.4805 30.326922 29.5235 30.232719 29.5625 30.136719 C 29.7075 30.152719 29.852 30.164062 30 30.164062 C 31.544 30.164062 32.868156 29.281 33.535156 28 C 32.868156 26.719 31.544 25.835938 30 25.835938 C 29.876 25.835938 29.753812 25.846422 29.632812 25.857422 C 29.589813 25.738422 29.545141 25.618906 29.494141 25.503906 C 29.585141 25.428906 29.687438 25.373109 29.773438 25.287109 C 30.865437 24.195109 31.176187 22.634813 30.742188 21.257812 C 29.365188 20.823812 27.803891 21.134563 26.712891 22.226562 C 26.638891 22.300563 26.590437 22.38975 26.523438 22.46875 C 26.399438 22.41075 26.274484 22.357594 26.146484 22.308594 C 26.154484 22.206594 26.164063 22.105953 26.164062 22.001953 C 26.164062 20.457953 25.281 19.133797 24 18.466797 z M 24 24.902344 C 25.654 24.902344 27 26.248344 27 27.902344 C 27 29.556344 25.654 30.902344 24 30.902344 C 22.346 30.902344 21 29.557344 21 27.902344 C 21 26.248344 22.346 24.902344 24 24.902344 z"/></svg>