<svg fill="#000000" xmlns="http://www.w3.org/2000/svg"  viewBox="0 0 48 48" width="24px" height="24px"><path d="M 30.060547 6.7050781 C 27.88209 6.7050689 25.704348 7.5319798 24.050781 9.1855469 L 14.857422 18.378906 C 13.112557 20.123771 13.112557 22.997322 14.857422 24.742188 L 24.757812 34.642578 C 26.502679 36.387443 29.376229 36.387443 31.121094 34.642578 L 40.314453 25.449219 C 43.621587 22.142085 43.619996 16.735926 40.3125 13.429688 L 36.070312 9.1875 C 34.417193 7.5337757 32.239004 6.7050873 30.060547 6.7050781 z M 30.060547 9.6875 C 31.46484 9.6874908 32.869338 10.226365 33.949219 11.306641 A 1.50015 1.50015 0 0 0 33.949219 11.308594 L 38.191406 15.550781 A 1.50015 1.50015 0 0 0 38.193359 15.550781 C 39.202851 16.559903 39.7331 17.853136 39.798828 19.164062 C 39.214017 19.057682 38.613341 19 38 19 C 32.495178 19 28 23.495178 28 29 C 28 30.316659 28.267081 31.57615 28.732422 32.732422 C 28.14985 33.104914 27.39478 33.035405 26.878906 32.519531 L 16.980469 22.621094 C 16.388054 22.028679 16.383766 21.120999 16.962891 20.521484 C 17.922833 20.827868 18.943351 21 20 21 C 25.504822 21 30 16.504822 30 11 C 30 10.558 29.966151 10.123215 29.910156 9.6953125 C 29.960396 9.6939274 30.010292 9.6875003 30.060547 9.6875 z M 26.978516 10.642578 C 26.984554 10.762011 27 10.878746 27 11 C 27 14.883178 23.883178 18 20 18 C 19.831722 18 19.666864 17.990119 19.501953 17.978516 L 26.171875 11.308594 C 26.42428 11.056189 26.694919 10.836054 26.978516 10.642578 z M 38 22 C 38.382349 22 38.754955 22.035177 39.119141 22.09375 C 38.873907 22.534542 38.567401 22.952139 38.191406 23.328125 L 31.144531 30.375 C 31.056085 29.9301 31 29.473017 31 29 C 31 25.116822 34.116822 22 38 22 z M 23.890625 22.417969 C 23.421289 22.473135 23 22.857188 23 23.414062 L 23 25 C 23 25.552 23.448 26 24 26 L 25.585938 26 C 26.476937 26 26.922969 24.922969 26.292969 24.292969 L 24.707031 22.707031 C 24.470781 22.470781 24.172227 22.384869 23.890625 22.417969 z M 15 29 A 2 2 0 0 0 15 33 A 2 2 0 0 0 15 29 z M 16 35 A 2 2 0 0 0 16 39 A 2 2 0 0 0 16 35 z M 9 37 A 2 2 0 0 0 9 41 A 2 2 0 0 0 9 37 z"/></svg>