<?xml version="1.0" encoding="utf-8"?>
<!-- Generator: Adobe Illustrator 22.0.1, SVG Export Plug-In . SVG Version: 6.00 Build 0)  -->
<svg version="1.1" id="Layer_2" xmlns="http://www.w3.org/2000/svg" xmlns:xlink="http://www.w3.org/1999/xlink" x="0px" y="0px"
	 viewBox="0 0 256 256" style="enable-background:new 0 0 256 256;" xml:space="preserve">
<style type="text/css">
	.st0{fill:#3A312A;}
	.st1{fill:#D7E057;}
	.st2{fill:#FCE8CB;}
	.st3{fill:#8AC6DD;}
	.st4{fill-rule:evenodd;clip-rule:evenodd;fill:#FCE8CB;}
	.st5{fill:#F5978A;}
	.st6{fill:#87796F;}
	.st7{fill:#F16C7A;}
	.st8{fill:#68A8BC;}
	.st9{fill:#B9BC39;}
	.st10{fill:#CE4E61;}
	.st11{fill:#6B5B51;}
	.st12{fill:#CCAE8B;}
	.st13{fill-rule:evenodd;clip-rule:evenodd;fill:#F16C7A;}
</style>
<g>
	<g>
		<g>
			<path class="st1" d="M226.188,25.479c-0.974,11.564-13.025,13.389-13.025,13.389c10.347,0.487,12.925,14.059,12.925,14.059
				c0.221-9.677,13.321-14.202,13.321-14.202C229.596,38.138,226.188,25.479,226.188,25.479z"/>
		</g>
	</g>
	<g>
		<g>
			<path class="st0" d="M239.499,37.229c-8.604-0.515-11.832-12.024-11.863-12.141c-0.19-0.702-0.854-1.156-1.584-1.102
				c-0.725,0.066-1.298,0.642-1.359,1.367c-0.859,10.215-11.313,11.963-11.754,12.031c-0.763,0.116-1.313,0.791-1.273,1.561
				c0.04,0.771,0.657,1.385,1.428,1.421c9.028,0.426,11.499,12.719,11.522,12.844c0.138,0.711,0.76,1.217,1.473,1.217
				c0.042,0,0.084-0.002,0.126-0.005c0.765-0.064,1.357-0.693,1.375-1.46c0.193-8.509,12.19-12.777,12.312-12.819
				c0.676-0.234,1.092-0.914,0.994-1.622C240.796,37.812,240.213,37.271,239.499,37.229z M225.934,47.574
				c-1.356-3.131-3.709-6.908-7.587-8.877c2.931-1.404,6.408-3.913,8.201-8.272c1.551,3.071,4.2,6.88,8.334,8.723
				C231.875,40.787,227.96,43.553,225.934,47.574z"/>
		</g>
	</g>
	<g>
		<g>
			<path class="st1" d="M204.489,42.46c-0.689,8.179-9.212,9.47-9.212,9.47c7.318,0.344,9.142,9.944,9.142,9.944
				c0.156-6.845,9.422-10.046,9.422-10.046C206.9,51.414,204.489,42.46,204.489,42.46z"/>
		</g>
	</g>
	<g>
		<g>
			<path class="st0" d="M213.931,50.332c-5.767-0.345-7.972-8.186-7.993-8.265c-0.19-0.701-0.863-1.158-1.582-1.102
				c-0.726,0.065-1.3,0.643-1.361,1.368c-0.579,6.87-7.646,8.066-7.942,8.113c-0.763,0.116-1.313,0.791-1.273,1.561
				c0.04,0.771,0.657,1.385,1.428,1.421c6.035,0.284,7.724,8.644,7.739,8.726c0.136,0.713,0.759,1.22,1.473,1.22
				c0.041,0,0.083-0.002,0.125-0.005c0.765-0.063,1.358-0.693,1.376-1.461c0.13-5.708,8.331-8.633,8.412-8.661
				c0.676-0.234,1.093-0.913,0.996-1.622C215.229,50.916,214.645,50.374,213.931,50.332z M204.346,57.127
				c-0.924-1.886-2.34-3.947-4.447-5.28c1.855-1.041,3.697-2.63,4.871-4.916c1.057,1.874,2.654,3.955,4.941,5.224
				C207.86,53.255,205.722,54.895,204.346,57.127z"/>
		</g>
	</g>
	<g>
		<g>
			<path class="st1" d="M204.489,15.802c-0.689,8.179-9.212,9.47-9.212,9.47c7.318,0.345,9.142,9.945,9.142,9.945
				c0.156-6.845,9.422-10.046,9.422-10.046C206.9,24.756,204.489,15.802,204.489,15.802z"/>
		</g>
	</g>
	<g>
		<g>
			<path class="st0" d="M213.931,23.675c-5.767-0.346-7.972-8.187-7.993-8.266c-0.19-0.702-0.863-1.156-1.582-1.102
				c-0.726,0.065-1.3,0.643-1.361,1.368c-0.579,6.871-7.646,8.066-7.942,8.113c-0.763,0.116-1.313,0.791-1.273,1.561
				c0.04,0.771,0.657,1.385,1.428,1.421c6.035,0.284,7.724,8.645,7.739,8.727c0.136,0.713,0.759,1.22,1.473,1.22
				c0.041,0,0.083-0.002,0.125-0.005c0.765-0.063,1.358-0.693,1.376-1.461c0.13-5.709,8.331-8.633,8.411-8.661
				c0.677-0.233,1.094-0.913,0.997-1.622C215.229,24.259,214.645,23.718,213.931,23.675z M204.346,30.469
				c-0.924-1.885-2.34-3.947-4.447-5.279c1.855-1.041,3.697-2.63,4.871-4.917c1.057,1.874,2.653,3.955,4.941,5.225
				C207.861,26.598,205.722,28.236,204.346,30.469z"/>
		</g>
	</g>
	<g>
		<g>
			<path class="st6" d="M151.441,228.198h-89.12c-15.44,0-28-12.56-28-28v-59.79c0-15.44,12.56-28,28-28h42.3v-12h-42.3
				c-22.06,0-40,17.94-40,40v59.79c0,22.05,17.94,40,40,40h89.12c3.31,0,6-2.69,6-6
				C157.441,230.888,154.751,228.198,151.441,228.198z"/>
		</g>
	</g>
	<g>
		<g>
			<path class="st0" d="M151.44,226.698h-89.12c-14.612,0-26.5-11.888-26.5-26.5v-59.79c0-14.612,11.888-26.5,26.5-26.5h42.3
				c0.829,0,1.5-0.672,1.5-1.5v-12c0-0.828-0.671-1.5-1.5-1.5h-42.3c-22.883,0-41.5,18.617-41.5,41.5v59.79
				c0,22.883,18.617,41.5,41.5,41.5h89.12c4.136,0,7.5-3.364,7.5-7.5S155.576,226.698,151.44,226.698z M151.44,238.698h-89.12
				c-21.229,0-38.5-17.271-38.5-38.5v-59.79c0-21.229,17.271-38.5,38.5-38.5h40.8v9h-40.8c-16.267,0-29.5,13.233-29.5,29.5v59.79
				c0,16.267,13.233,29.5,29.5,29.5h89.12c2.481,0,4.5,2.019,4.5,4.5S153.922,238.698,151.44,238.698z"/>
		</g>
	</g>
	<g>
		<g>
			<path class="st3" d="M162.362,17.181H93.699c-4.049,0-7.332,3.283-7.332,7.332V69.64h83.327V24.513
				C169.694,20.464,166.411,17.181,162.362,17.181z"/>
		</g>
	</g>
	<g>
		<g>
			<path class="st0" d="M162.362,15.681H93.699c-4.87,0-8.831,3.962-8.831,8.832v45.128c0,0.828,0.671,1.5,1.5,1.5h83.327
				c0.828,0,1.5-0.672,1.5-1.5V24.513C171.194,19.643,167.232,15.681,162.362,15.681z M168.194,68.141H87.867V24.513
				c0-3.216,2.616-5.832,5.831-5.832h68.664c3.216,0,5.832,2.616,5.832,5.832V68.141z"/>
		</g>
	</g>
	<g>
		<g>
			<path class="st6" d="M162.362,17.181H93.699c-4.049,0-7.332,3.282-7.332,7.332v7.335h83.327v-7.335
				C169.694,20.463,166.411,17.181,162.362,17.181z"/>
		</g>
	</g>
	<g>
		<g>
			<path class="st0" d="M162.362,15.681H93.699c-4.87,0-8.831,3.962-8.831,8.832v7.335c0,0.828,0.671,1.5,1.5,1.5h15.648
				c0.829,0,1.5-0.672,1.5-1.5s-0.671-1.5-1.5-1.5H87.867v-5.835c0-3.216,2.616-5.832,5.831-5.832h68.664
				c3.216,0,5.832,2.616,5.832,5.832v5.835h-52.148c-0.829,0-1.5,0.672-1.5,1.5s0.671,1.5,1.5,1.5h53.648c0.828,0,1.5-0.672,1.5-1.5
				v-7.335C171.194,19.643,167.232,15.681,162.362,15.681z"/>
		</g>
	</g>
	<g>
		<g>
			<polygon class="st3" points="86.368,69.643 101.828,87.567 154.234,87.567 169.693,69.643 			"/>
		</g>
	</g>
	<g>
		<g>
			<path class="st0" d="M171.057,69.019c-0.244-0.533-0.776-0.875-1.363-0.875H86.368c-0.586,0-1.12,0.342-1.364,0.875
				c-0.244,0.533-0.155,1.16,0.228,1.604l15.46,17.923c0.285,0.331,0.7,0.521,1.136,0.521h52.406c0.437,0,0.851-0.189,1.136-0.521
				l15.46-17.923C171.212,70.179,171.302,69.553,171.057,69.019z M153.546,86.066h-51.031L89.643,71.144h76.776L153.546,86.066z"/>
		</g>
	</g>
	<g>
		<g>
			<path class="st2" d="M128.031,109.826c-29.238,0-52.94,23.702-52.94,52.939s23.702,30.233,52.94,30.233s52.94-0.996,52.94-30.233
				S157.268,109.826,128.031,109.826z"/>
		</g>
	</g>
	<g>
		<g>
			<path class="st0" d="M128.031,108.326c-30.018,0-54.44,24.421-54.44,54.438c0,31.734,27.675,31.734,54.44,31.734
				s54.439,0,54.439-31.734C182.47,132.747,158.049,108.326,128.031,108.326z M128.031,191.499c-31.072,0-51.44-2-51.44-28.734
				c0-28.363,23.076-51.438,51.44-51.438c28.364,0,51.439,23.075,51.439,51.438C179.47,189.499,159.102,191.499,128.031,191.499z"/>
		</g>
	</g>
	<g>
		<g>
			<path class="st7" d="M180.724,157.706H75.338c-0.158,1.666-0.247,3.352-0.247,5.059c0,29.238,23.702,30.233,52.94,30.233
				c29.238,0,52.94-0.996,52.94-30.233C180.97,161.058,180.882,159.372,180.724,157.706z"/>
		</g>
	</g>
	<g>
		<g>
			<path class="st0" d="M182.217,157.564c-0.073-0.771-0.72-1.358-1.493-1.358H75.337c-0.773,0-1.42,0.589-1.493,1.358
				c-0.168,1.772-0.253,3.521-0.253,5.201c0,31.733,27.675,31.733,54.44,31.733s54.439,0,54.439-31.733
				C182.47,161.081,182.385,159.331,182.217,157.564z M128.031,191.499c-31.072,0-51.44-2-51.44-28.733
				c0-1.155,0.043-2.348,0.128-3.56h102.624c0.084,1.209,0.127,2.401,0.127,3.56C179.47,189.499,159.102,191.499,128.031,191.499z"
				/>
		</g>
	</g>
	<g>
		<g>
			<rect x="104.621" y="96.988" class="st1" width="46.82" height="18.09"/>
		</g>
	</g>
	<g>
		<g>
			<path class="st0" d="M151.44,95.488h-46.82c-0.829,0-1.5,0.672-1.5,1.5v18.09c0,0.828,0.671,1.5,1.5,1.5h46.82
				c0.828,0,1.5-0.672,1.5-1.5v-18.09C152.94,96.16,152.269,95.488,151.44,95.488z M149.94,113.578h-43.82v-15.09h43.82V113.578z"/>
		</g>
	</g>
	<g>
		<g>
			<rect x="122.446" y="115.078" class="st3" width="10.539" height="42.628"/>
		</g>
	</g>
	<g>
		<g>
			<path class="st0" d="M132.985,113.577h-10.539c-0.829,0-1.5,0.672-1.5,1.5v42.629c0,0.828,0.671,1.5,1.5,1.5h10.539
				c0.828,0,1.5-0.672,1.5-1.5v-42.629C134.485,114.249,133.813,113.577,132.985,113.577z M131.485,156.206h-7.539v-39.629h7.539
				V156.206z"/>
		</g>
	</g>
	<g>
		<g>
			<path class="st1" d="M154.459,87.567h-52.857c-2.602,0-4.712,2.109-4.712,4.712S99,96.99,101.602,96.99h52.857
				c2.602,0,4.712-2.109,4.712-4.712S157.061,87.567,154.459,87.567z"/>
		</g>
	</g>
	<g>
		<g>
			<path class="st0" d="M154.459,86.066h-52.857c-3.425,0-6.212,2.787-6.212,6.212s2.787,6.212,6.212,6.212h52.857
				c3.425,0,6.212-2.787,6.212-6.212S157.884,86.066,154.459,86.066z M154.459,95.49h-52.857c-1.771,0-3.212-1.44-3.212-3.212
				s1.441-3.212,3.212-3.212h52.857c1.772,0,3.212,1.44,3.212,3.212S156.231,95.49,154.459,95.49z"/>
		</g>
	</g>
	<g>
		<g>
			<path class="st1" d="M105.781,202.197v19.5c0,3.314,2.686,6,6,6h32.5c3.314,0,6-2.686,6-6v-19.5H105.781z"/>
		</g>
	</g>
	<g>
		<g>
			<path class="st0" d="M150.28,200.696h-44.5c-0.829,0-1.5,0.672-1.5,1.5v19.5c0,4.136,3.364,7.5,7.5,7.5h32.5
				c4.136,0,7.5-3.364,7.5-7.5v-19.5C151.78,201.368,151.108,200.696,150.28,200.696z M148.78,221.696c0,2.481-2.019,4.5-4.5,4.5
				h-32.5c-2.482,0-4.5-2.019-4.5-4.5v-18h41.5V221.696z"/>
		</g>
	</g>
	<g>
		<g>
			<path class="st3" d="M34.235,134.655H22.407c-3.212,0-5.816,2.604-5.816,5.816v60.252c0,3.212,2.604,5.816,5.816,5.816h11.828
				c3.212,0,5.816-2.604,5.816-5.816v-60.252C40.051,137.259,37.447,134.655,34.235,134.655z"/>
		</g>
	</g>
	<g>
		<g>
			<path class="st0" d="M34.235,133.155H22.407c-4.034,0-7.316,3.282-7.316,7.316v24.138c0,0.828,0.671,1.5,1.5,1.5
				s1.5-0.672,1.5-1.5v-24.138c0-2.38,1.937-4.316,4.316-4.316h11.829c2.38,0,4.316,1.937,4.316,4.316v60.252
				c0,2.38-1.936,4.316-4.316,4.316H22.407c-2.38,0-4.316-1.937-4.316-4.316v-21.638c0-0.828-0.671-1.5-1.5-1.5s-1.5,0.672-1.5,1.5
				v21.638c0,4.034,3.282,7.316,7.316,7.316h11.829c4.034,0,7.316-3.282,7.316-7.316v-60.252
				C41.551,136.438,38.269,133.155,34.235,133.155z"/>
		</g>
	</g>
	<g>
		<g>
			<path class="st11" d="M151.441,229.698h-11.77c2.48,0,4.5,2.02,4.5,4.5s-2.02,4.5-4.5,4.5h11.77c2.48,0,4.5-2.02,4.5-4.5
				S153.921,229.698,151.441,229.698z"/>
		</g>
	</g>
	<g>
		<g>
			<rect x="156.431" y="33.348" class="st8" width="11.76" height="34.79"/>
		</g>
	</g>
	<g>
		<g>
			<path class="st11" d="M162.361,18.678h-11.76c3.21,0,5.83,2.62,5.83,5.84v5.83h11.76v-5.83
				C168.191,21.298,165.581,18.678,162.361,18.678z"/>
		</g>
	</g>
	<g>
		<g>
			<polygon class="st8" points="154.651,71.148 141.781,86.068 153.551,86.068 166.421,71.148 			"/>
		</g>
	</g>
	<g>
		<g>
			<path class="st12" d="M150.651,116.578h-11.77c15.19,7.47,26.16,22.2,28.39,39.63h11.77
				C176.811,138.778,165.831,124.048,150.651,116.578z"/>
		</g>
	</g>
	<g>
		<g>
			<path class="st10" d="M179.341,159.208h-11.76c0.08,1.21,0.12,2.41,0.12,3.56c0,20.05-11.45,26.19-30.29,28
				c-2.35,0.23-4.82,0.39-7.4,0.5c-1.72,0.07-3.49,0.12-5.3,0.16c-0.84,0.02-1.69,0.03-2.56,0.03c1.91,0.03,3.88,0.04,5.88,0.04
				c2.91,0,5.73-0.02,8.45-0.07c1.81-0.04,3.58-0.09,5.29-0.16c2.58-0.11,5.05-0.27,7.41-0.5c18.83-1.81,30.29-7.95,30.29-28
				C179.47,161.618,179.431,160.418,179.341,159.208z"/>
		</g>
	</g>
	<g>
		<g>
			<rect x="138.171" y="98.488" class="st9" width="11.77" height="15.09"/>
		</g>
	</g>
	<g>
		<g>
			<path class="st9" d="M154.461,89.068h-11.77c1.77,0,3.21,1.44,3.21,3.21c0,1.77-1.44,3.21-3.21,3.21h11.77
				c1.77,0,3.21-1.44,3.21-3.21C157.671,90.508,156.231,89.068,154.461,89.068z"/>
		</g>
	</g>
	<g>
		<g>
			<path class="st9" d="M137.011,203.698v18c0,2.48-2.01,4.5-4.5,4.5h11.77c2.48,0,4.5-2.02,4.5-4.5v-18H137.011z"/>
		</g>
	</g>
</g>
</svg>
