<?xml version="1.0" encoding="utf-8"?>
<!-- Generator: Adobe Illustrator 22.0.1, SVG Export Plug-In . SVG Version: 6.00 Build 0)  -->
<svg version="1.1" id="Layer_2" xmlns="http://www.w3.org/2000/svg" xmlns:xlink="http://www.w3.org/1999/xlink" x="0px" y="0px"
	 viewBox="0 0 256 256" style="enable-background:new 0 0 256 256;" xml:space="preserve">
<style type="text/css">
	.st0{fill:#3A312A;}
	.st1{fill:#D7E057;}
	.st2{fill:#FCE8CB;}
	.st3{fill:#8AC6DD;}
	.st4{fill-rule:evenodd;clip-rule:evenodd;fill:#FCE8CB;}
	.st5{fill:#F5978A;}
	.st6{fill:#87796F;}
	.st7{fill:#F16C7A;}
	.st8{fill:#68A8BC;}
	.st9{fill:#B9BC39;}
	.st10{fill:#CE4E61;}
	.st11{fill:#6B5B51;}
	.st12{fill:#CCAE8B;}
	.st13{fill-rule:evenodd;clip-rule:evenodd;fill:#F16C7A;}
</style>
<g>
	<g>
		<g>
			<path class="st7" d="M22.097,110.4l3.81,31.62l5.4,44.74l1.85,15.3l1.74,14.43l1.8,14.95c0.55,4.57,4.43,8,9.02,8h57.14
				c4.59,0,8.47-3.43,9.02-8l5.39-44.68l5.4-44.74l3.81-31.62H22.097z"/>
		</g>
	</g>
	<g>
		<g>
			<path class="st0" d="M127.599,109.405c-0.284-0.321-0.693-0.505-1.122-0.505H22.097c-0.429,0-0.838,0.184-1.122,0.505
				c-0.285,0.321-0.419,0.749-0.367,1.175l11.061,91.66c0.1,0.824,0.86,1.402,1.669,1.31c0.823-0.1,1.409-0.847,1.31-1.669
				L23.788,111.9h100.997l-14.397,119.361c-0.458,3.808-3.695,6.679-7.53,6.679H45.717c-3.835,0-7.072-2.871-7.53-6.68l-1.8-14.95
				c-0.1-0.822-0.833-1.403-1.669-1.31c-0.822,0.099-1.408,0.846-1.31,1.669l1.8,14.949c0.64,5.314,5.157,9.321,10.509,9.321h57.141
				c5.352,0,9.869-4.007,10.509-9.32l14.6-121.04C128.018,110.153,127.884,109.727,127.599,109.405z"/>
		</g>
	</g>
	<g>
		<g>
			<path class="st1" d="M38.287,164.06c0-8.3,2.81-15.95,7.51-22.04h-19.89l5.4,44.74h15.02
				C41.297,180.57,38.287,172.66,38.287,164.06z"/>
		</g>
	</g>
	<g>
		<g>
			<path class="st0" d="M47.491,185.813c-4.968-6.112-7.704-13.838-7.704-21.753c0-7.719,2.488-15.023,7.197-21.124
				c0.35-0.452,0.411-1.064,0.159-1.577c-0.253-0.514-0.774-0.839-1.347-0.839h-19.89c-0.429,0-0.838,0.184-1.122,0.505
				c-0.285,0.321-0.419,0.749-0.367,1.175l5.399,44.739c0.091,0.754,0.73,1.32,1.489,1.32h15.021c0.579,0,1.105-0.333,1.354-0.855
				S47.856,186.263,47.491,185.813z M32.637,185.26L27.6,143.521h15.289c-4.001,6.106-6.102,13.148-6.102,20.54
				c0,7.577,2.309,14.996,6.551,21.199H32.637z"/>
		</g>
	</g>
	<g>
		<g>
			<path class="st1" d="M102.897,142.02c4.7,6.09,7.51,13.74,7.51,22.04c0,8.6-3.01,16.51-8.04,22.7h14.9l5.4-44.74H102.897z"/>
		</g>
	</g>
	<g>
		<g>
			<path class="st0" d="M123.789,141.025c-0.284-0.321-0.693-0.505-1.122-0.505h-19.77c-0.572,0-1.094,0.325-1.347,0.839
				c-0.252,0.513-0.19,1.125,0.159,1.577c4.708,6.103,7.197,13.406,7.197,21.124c0,7.915-2.736,15.641-7.704,21.753
				c-0.365,0.449-0.439,1.068-0.19,1.591s0.775,0.855,1.354,0.855h14.9c0.759,0,1.398-0.566,1.489-1.32l5.399-44.739
				C124.208,141.774,124.074,141.347,123.789,141.025z M115.938,185.26h-10.581c4.242-6.203,6.551-13.622,6.551-21.199
				c0-7.391-2.101-14.434-6.102-20.54h15.169L115.938,185.26z"/>
		</g>
	</g>
	<g>
		<g>
			<path class="st2" d="M102.897,142.02c-6.6-8.53-16.93-14.02-28.55-14.02c-11.62,0-21.95,5.49-28.55,14.02
				c-4.7,6.09-7.51,13.74-7.51,22.04c0,8.6,3.01,16.51,8.04,22.7c6.61,8.15,16.7,13.36,28.02,13.36c11.32,0,21.41-5.21,28.02-13.36
				c5.03-6.19,8.04-14.1,8.04-22.7C110.407,155.76,107.597,148.11,102.897,142.02z"/>
		</g>
	</g>
	<g>
		<g>
			<path class="st0" d="M104.084,141.103c-7.181-9.28-18.02-14.603-29.737-14.603c-11.717,0-22.556,5.322-29.737,14.604
				c-5.117,6.63-7.822,14.568-7.822,22.956c0,8.602,2.975,16.999,8.375,23.645c7.173,8.843,17.81,13.915,29.185,13.915
				s22.013-5.072,29.185-13.914c5.401-6.646,8.376-15.044,8.376-23.646C111.907,155.674,109.202,147.735,104.084,141.103z
				 M101.202,185.814c-6.601,8.139-16.389,12.806-26.855,12.806c-10.466,0-20.254-4.667-26.855-12.807
				c-4.968-6.112-7.704-13.838-7.704-21.753c0-7.719,2.488-15.023,7.196-21.122c6.608-8.54,16.582-13.438,27.363-13.438
				c10.782,0,20.756,4.898,27.363,13.437c4.708,6.103,7.197,13.406,7.197,21.124C108.907,171.976,106.171,179.701,101.202,185.814z"
				/>
		</g>
	</g>
	<g>
		<g>
			<ellipse class="st6" cx="74.347" cy="164.152" rx="14.402" ry="22.851"/>
		</g>
	</g>
	<g>
		<g>
			<path class="st0" d="M74.347,139.802c-8.768,0-15.901,10.924-15.901,24.351s7.134,24.351,15.901,24.351
				c8.769,0,15.902-10.924,15.902-24.351S83.115,139.802,74.347,139.802z M74.347,185.503c-7.114,0-12.901-9.578-12.901-21.351
				s5.787-21.351,12.901-21.351s12.902,9.578,12.902,21.351S81.461,185.503,74.347,185.503z"/>
		</g>
	</g>
	<g>
		<g>
			<path class="st0" d="M75.728,163.305l-0.587-0.505c-3.169-2.727-4.906-6.314-4.893-10.104c0.014-3.797,1.782-7.382,4.979-10.093
				l0.095-0.08c0.632-0.535,0.712-1.481,0.177-2.114c-0.534-0.631-1.479-0.712-2.114-0.177l-0.096,0.081
				c-3.879,3.289-6.024,7.684-6.041,12.372c-0.017,4.682,2.091,9.082,5.935,12.389l0.587,0.505
				c3.183,2.738,4.919,6.342,4.892,10.148c-0.027,3.82-1.828,7.417-5.07,10.125c-0.636,0.531-0.721,1.478-0.189,2.113
				c0.297,0.354,0.723,0.538,1.152,0.538c0.339,0,0.68-0.114,0.961-0.349c3.93-3.283,6.112-7.689,6.146-12.406
				C81.695,171.046,79.588,166.626,75.728,163.305z"/>
		</g>
	</g>
	<g>
		<g>
			<path class="st10" d="M104.997,188.26l-5.18,43c-0.46,3.81-3.7,6.68-7.53,6.68h10.57c3.84,0,7.07-2.87,7.53-6.68l5.19-43H104.997
				z"/>
		</g>
	</g>
	<g>
		<g>
			<polygon class="st10" points="114.217,111.9 110.757,140.52 121.337,140.52 124.787,111.9 			"/>
		</g>
	</g>
	<g>
		<g>
			<path class="st9" d="M110.397,143.52l-0.88,7.31c0.02,0.04,0.03,0.09,0.05,0.14c0.27,0.74,0.53,1.48,0.76,2.24
				c0.01,0.04,0.03,0.09,0.04,0.13c0.23,0.781,0.43,1.56,0.6,2.35c0.03,0.13,0.06,0.25,0.09,0.38c0.17,0.76,0.3,1.53,0.42,2.31
				c0.02,0.15,0.04,0.29,0.06,0.44c0.11,0.78,0.2,1.57,0.26,2.36c0.01,0.12,0.01,0.24,0.02,0.35c0.06,0.84,0.09,1.68,0.09,2.53
				c0,0.87-0.04,1.74-0.1,2.6c-0.01,0.12-0.01,0.24-0.02,0.36c-0.07,0.82-0.16,1.64-0.28,2.45c-0.02,0.15-0.04,0.29-0.07,0.44
				c-0.13,0.81-0.28,1.61-0.46,2.41c-0.03,0.12-0.06,0.25-0.09,0.38c-0.19,0.82-0.41,1.64-0.66,2.45c-0.01,0.03-0.02,0.07-0.03,0.1
				c-0.25,0.8-0.53,1.59-0.83,2.37c-0.04,0.1-0.08,0.2-0.12,0.3c-0.3,0.76-0.63,1.51-0.98,2.25c-0.06,0.14-0.13,0.27-0.19,0.41
				c-0.36,0.73-0.74,1.44-1.14,2.15l-0.21,0.36c-0.43,0.72-0.87,1.43-1.34,2.12c-0.01,0.01-0.01,0.02-0.02,0.03
				c0,0.01-0.01,0.02-0.01,0.02h10.58l5.04-41.74H110.397z"/>
		</g>
	</g>
	<g>
		<g>
			<path class="st7" d="M127.752,110.4l3.81,31.62l5.4,44.74l1.85,15.3l1.74,14.43l1.8,14.95c0.55,4.57,4.43,8,9.02,8h57.14
				c4.59,0,8.47-3.43,9.02-8l5.39-44.68l5.4-44.74l3.81-31.62H127.752z"/>
		</g>
	</g>
	<g>
		<g>
			<path class="st0" d="M233.254,109.405c-0.284-0.321-0.693-0.505-1.122-0.505h-104.38c-0.429,0-0.838,0.184-1.122,0.505
				c-0.285,0.321-0.419,0.748-0.367,1.175l11.06,91.66c0.1,0.824,0.857,1.402,1.669,1.31c0.823-0.1,1.409-0.847,1.31-1.669
				l-10.857-89.98H230.44l-14.398,119.361c-0.458,3.808-3.695,6.679-7.53,6.679h-57.141c-3.835,0-7.072-2.871-7.53-6.68l-1.8-14.95
				c-0.099-0.822-0.835-1.403-1.669-1.31c-0.822,0.099-1.408,0.846-1.31,1.669l1.8,14.949c0.64,5.314,5.157,9.321,10.509,9.321
				h57.141c5.352,0,9.869-4.007,10.509-9.32l14.601-121.04C233.673,110.154,233.539,109.727,233.254,109.405z"/>
		</g>
	</g>
	<g>
		<g>
			<path class="st1" d="M143.942,164.06c0-8.3,2.81-15.95,7.51-22.04h-19.89l5.4,44.74h15.02
				C146.951,180.57,143.942,172.66,143.942,164.06z"/>
		</g>
	</g>
	<g>
		<g>
			<path class="st0" d="M153.146,185.813c-4.968-6.112-7.704-13.838-7.704-21.753c0-7.718,2.489-15.021,7.197-21.124
				c0.35-0.452,0.411-1.064,0.159-1.577c-0.253-0.514-0.774-0.839-1.347-0.839h-19.89c-0.429,0-0.838,0.184-1.122,0.505
				c-0.285,0.321-0.419,0.749-0.367,1.175l5.4,44.739c0.091,0.754,0.73,1.32,1.489,1.32h15.02c0.579,0,1.105-0.333,1.354-0.855
				S153.511,186.263,153.146,185.813z M138.292,185.26l-5.038-41.739h15.289c-4.001,6.106-6.102,13.149-6.102,20.54
				c0,7.577,2.309,14.996,6.551,21.199H138.292z"/>
		</g>
	</g>
	<g>
		<g>
			<path class="st1" d="M208.552,142.02c4.7,6.09,7.51,13.74,7.51,22.04c0,8.6-3.01,16.51-8.04,22.7h14.9l5.4-44.74H208.552z"/>
		</g>
	</g>
	<g>
		<g>
			<path class="st0" d="M229.443,141.025c-0.284-0.321-0.693-0.505-1.122-0.505h-19.77c-0.572,0-1.094,0.325-1.347,0.839
				c-0.252,0.513-0.19,1.125,0.159,1.577c4.709,6.101,7.197,13.405,7.197,21.124c0,7.915-2.736,15.641-7.704,21.753
				c-0.365,0.449-0.439,1.068-0.19,1.591s0.775,0.855,1.354,0.855h14.9c0.759,0,1.398-0.566,1.489-1.32l5.399-44.739
				C229.862,141.774,229.729,141.347,229.443,141.025z M221.592,185.26h-10.581c4.242-6.203,6.551-13.622,6.551-21.199
				c0-7.392-2.101-14.434-6.102-20.54h15.169L221.592,185.26z"/>
		</g>
	</g>
	<g>
		<g>
			<path class="st2" d="M208.552,142.02c-6.6-8.53-16.93-14.02-28.55-14.02c-11.62,0-21.95,5.49-28.55,14.02
				c-4.7,6.09-7.51,13.74-7.51,22.04c0,8.6,3.01,16.51,8.04,22.7c6.61,8.15,16.7,13.36,28.02,13.36c11.32,0,21.41-5.21,28.02-13.36
				c5.03-6.19,8.04-14.1,8.04-22.7C216.062,155.76,213.251,148.11,208.552,142.02z"/>
		</g>
	</g>
	<g>
		<g>
			<path class="st0" d="M209.738,141.103c-7.181-9.28-18.02-14.603-29.736-14.603c-11.718,0-22.557,5.322-29.738,14.604
				c-5.117,6.631-7.822,14.569-7.822,22.956c0,8.602,2.975,16.999,8.375,23.645c7.173,8.843,17.811,13.915,29.186,13.915
				s22.012-5.072,29.184-13.914c5.401-6.646,8.376-15.044,8.376-23.646C217.562,155.673,214.856,147.734,209.738,141.103z
				 M206.856,185.814c-6.601,8.139-16.389,12.806-26.854,12.806c-10.467,0-20.255-4.667-26.856-12.807
				c-4.968-6.112-7.704-13.838-7.704-21.753c0-7.718,2.489-15.021,7.196-21.122c6.608-8.54,16.582-13.438,27.364-13.438
				c10.781,0,20.755,4.898,27.362,13.437c4.709,6.101,7.197,13.405,7.197,21.124C214.562,171.976,211.825,179.701,206.856,185.814z"
				/>
		</g>
	</g>
	<g>
		<g>
			<path class="st6" d="M180.001,141.301c-7.954,0-14.402,10.231-14.402,22.851c0,12.62,6.448,22.851,14.402,22.851
				c7.954,0,14.402-10.231,14.402-22.851C194.403,151.532,187.955,141.301,180.001,141.301z"/>
		</g>
	</g>
	<g>
		<g>
			<path class="st0" d="M180.001,139.802c-8.768,0-15.901,10.924-15.901,24.351s7.134,24.351,15.901,24.351
				c8.769,0,15.902-10.924,15.902-24.351S188.77,139.802,180.001,139.802z M180.001,185.503c-7.114,0-12.901-9.578-12.901-21.351
				s5.787-21.351,12.901-21.351s12.902,9.578,12.902,21.351S187.115,185.503,180.001,185.503z"/>
		</g>
	</g>
	<g>
		<g>
			<path class="st0" d="M181.382,163.305l-0.587-0.505c-3.169-2.727-4.906-6.315-4.893-10.105c0.014-3.797,1.783-7.382,4.979-10.092
				l0.095-0.08c0.632-0.535,0.712-1.481,0.177-2.114c-0.534-0.631-1.479-0.712-2.114-0.177l-0.096,0.081
				c-3.879,3.289-6.023,7.683-6.041,12.371c-0.017,4.682,2.092,9.082,5.935,12.39l0.587,0.505c3.183,2.738,4.919,6.342,4.892,10.148
				c-0.027,3.82-1.828,7.417-5.07,10.125c-0.636,0.531-0.721,1.478-0.189,2.113c0.297,0.354,0.723,0.538,1.152,0.538
				c0.339,0,0.68-0.114,0.961-0.349c3.93-3.283,6.112-7.689,6.146-12.406C187.35,171.046,185.242,166.626,181.382,163.305z"/>
		</g>
	</g>
	<g>
		<g>
			<path class="st10" d="M210.651,188.26l-5.18,43c-0.46,3.81-3.7,6.68-7.53,6.68h10.57c3.84,0,7.07-2.87,7.53-6.68l5.19-43H210.651
				z"/>
		</g>
	</g>
	<g>
		<g>
			<polygon class="st10" points="219.871,111.9 216.411,140.52 226.992,140.52 230.442,111.9 			"/>
		</g>
	</g>
	<g>
		<g>
			<path class="st9" d="M216.052,143.52l-0.88,7.31c0.02,0.04,0.03,0.09,0.05,0.14c0.27,0.74,0.53,1.48,0.76,2.24
				c0.01,0.04,0.03,0.09,0.04,0.13c0.23,0.781,0.43,1.56,0.6,2.35c0.03,0.13,0.06,0.25,0.09,0.38c0.17,0.76,0.3,1.53,0.42,2.31
				c0.02,0.15,0.04,0.29,0.06,0.44c0.11,0.78,0.2,1.57,0.26,2.36c0.01,0.12,0.01,0.24,0.02,0.35c0.06,0.84,0.09,1.68,0.09,2.53
				c0,0.87-0.04,1.74-0.1,2.6c-0.01,0.12-0.01,0.24-0.02,0.36c-0.07,0.82-0.16,1.64-0.28,2.45c-0.02,0.15-0.04,0.29-0.07,0.44
				c-0.13,0.81-0.28,1.61-0.46,2.41c-0.03,0.12-0.06,0.25-0.09,0.38c-0.19,0.82-0.41,1.64-0.66,2.45c-0.01,0.03-0.02,0.07-0.03,0.1
				c-0.25,0.8-0.53,1.59-0.83,2.37c-0.04,0.1-0.08,0.2-0.12,0.3c-0.3,0.76-0.63,1.51-0.98,2.25c-0.06,0.14-0.13,0.27-0.19,0.41
				c-0.36,0.73-0.74,1.44-1.14,2.15l-0.21,0.36c-0.43,0.72-0.87,1.43-1.34,2.12c-0.01,0.01-0.01,0.02-0.02,0.03
				c0,0.01-0.01,0.02-0.01,0.02h10.58l5.04-41.74H216.052z"/>
		</g>
	</g>
	<g>
		<g>
			<path class="st3" d="M211.595,32.755c-12.914-10.477-29.039-16.195-45.669-16.195H88.457c-16.865,0-33.203,5.881-46.2,16.63
				l-0.155,0.128C25.452,47.089,15.813,67.57,15.813,89.177v14.901c0,3.492,2.831,6.323,6.323,6.323h209.956
				c3.492,0,6.323-2.831,6.323-6.323V89.048C238.415,67.201,228.562,46.519,211.595,32.755z M161.081,73.884H93.147
				c-8.281,0-14.995-6.713-14.995-14.994c0-8.281,6.713-14.995,14.995-14.995h67.934c8.281,0,14.995,6.713,14.995,14.995
				C176.076,67.17,169.363,73.884,161.081,73.884z"/>
		</g>
	</g>
	<g>
		<g>
			<path class="st0" d="M212.54,31.59c-13.141-10.659-29.694-16.53-46.613-16.53h-77.47c-17.175,0-33.922,6.028-47.153,16.974
				l-0.157,0.129C24.094,46.266,14.313,67.047,14.313,89.177v14.9c0,4.313,3.509,7.823,7.822,7.823h209.957
				c4.313,0,7.822-3.51,7.822-7.823V89.049C239.915,66.646,229.938,45.703,212.54,31.59z M236.915,104.077
				c0,2.659-2.163,4.823-4.822,4.823H22.136c-2.659,0-4.822-2.164-4.822-4.823v-14.9c0-21.232,9.384-41.171,25.743-54.701
				l0.157-0.129C55.911,23.844,71.979,18.06,88.457,18.06h77.47c16.232,0,32.116,5.633,44.723,15.86
				c16.692,13.541,26.266,33.635,26.266,55.129V104.077z M161.081,42.395H93.147c-9.096,0-16.495,7.399-16.495,16.495
				c0,9.095,7.399,16.494,16.495,16.494h67.934c9.096,0,16.495-7.399,16.495-16.494C177.576,49.794,170.177,42.395,161.081,42.395z
				 M161.081,72.384H93.147c-7.441,0-13.495-6.054-13.495-13.494c0-7.441,6.054-13.495,13.495-13.495h67.934
				c7.441,0,13.495,6.054,13.495,13.495C174.576,66.33,168.522,72.384,161.081,72.384z"/>
		</g>
	</g>
	<g>
		<g>
			<path class="st8" d="M210.654,33.92c-12.61-10.23-28.49-15.86-44.73-15.86h-15.21c16.23,0,32.11,5.63,44.72,15.86
				c16.69,13.54,26.27,33.63,26.27,55.13v15.03c0,2.66-2.17,4.82-4.83,4.82h15.22c2.66,0,4.82-2.16,4.82-4.82V89.05
				C236.914,67.55,227.344,47.46,210.654,33.92z"/>
		</g>
	</g>
</g>
</svg>
