<?xml version="1.0" encoding="utf-8"?>
<!-- Generator: Adobe Illustrator 22.0.1, SVG Export Plug-In . SVG Version: 6.00 Build 0)  -->
<svg version="1.1" id="Layer_2" xmlns="http://www.w3.org/2000/svg" xmlns:xlink="http://www.w3.org/1999/xlink" x="0px" y="0px"
	 viewBox="0 0 256 256" style="enable-background:new 0 0 256 256;" xml:space="preserve">
<style type="text/css">
	.st0{fill:#3A312A;}
	.st1{fill:#D7E057;}
	.st2{fill:#FCE8CB;}
	.st3{fill:#8AC6DD;}
	.st4{fill-rule:evenodd;clip-rule:evenodd;fill:#FCE8CB;}
	.st5{fill:#F5978A;}
	.st6{fill:#87796F;}
	.st7{fill:#F16C7A;}
	.st8{fill:#68A8BC;}
	.st9{fill:#B9BC39;}
	.st10{fill:#CE4E61;}
	.st11{fill:#6B5B51;}
	.st12{fill:#CCAE8B;}
	.st13{fill-rule:evenodd;clip-rule:evenodd;fill:#F16C7A;}
</style>
<g>
	<g>
		<g>
			<path class="st2" d="M237.335,93.461l-23.94-39.374c-2.884-4.743-8.033-7.639-13.584-7.639h-72.788
				c-5.551,0-10.701,2.896-13.585,7.639l-23.94,39.374c-1.513,2.489-2.314,5.347-2.314,8.26V223.67
				c0,8.781,7.118,15.898,15.898,15.898h120.668c8.78,0,15.898-7.118,15.898-15.898V101.721
				C239.649,98.808,238.849,95.95,237.335,93.461z"/>
		</g>
	</g>
	<g>
		<g>
			<path class="st0" d="M238.617,92.682l-23.94-39.374c-3.135-5.156-8.831-8.359-14.866-8.359h-72.788
				c-6.034,0-11.73,3.203-14.865,8.359l-23.94,39.374c-1.657,2.725-2.533,5.851-2.533,9.039V223.67
				c0,9.594,7.806,17.398,17.399,17.398h120.668c9.594,0,17.398-7.805,17.398-17.398V101.721
				C241.149,98.533,240.274,95.407,238.617,92.682z M238.149,223.67c0,7.939-6.459,14.398-14.398,14.398H103.083
				c-7.939,0-14.399-6.459-14.399-14.398V101.721c0-2.639,0.725-5.226,2.096-7.48l23.94-39.374
				c2.595-4.268,7.309-6.918,12.303-6.918h72.788c4.994,0,9.709,2.65,12.304,6.918l23.939,39.374
				c1.371,2.256,2.096,4.842,2.096,7.48V223.67z"/>
		</g>
	</g>
	<g>
		<g>
			<path class="st2" d="M237.335,93.461l-23.94-39.374c-2.884-4.743-8.033-7.639-13.584-7.639h-72.788
				c-5.551,0-10.701,2.896-13.585,7.639l-23.94,39.374c-1.513,2.489-2.314,5.347-2.314,8.26V223.67
				c0,8.781,7.118,15.898,15.898,15.898h120.668c8.78,0,15.898-7.118,15.898-15.898V101.721
				C239.649,98.808,238.849,95.95,237.335,93.461z"/>
		</g>
	</g>
	<g>
		<g>
			<path class="st0" d="M238.617,92.682l-23.94-39.374c-3.135-5.156-8.831-8.359-14.866-8.359h-72.788
				c-6.034,0-11.73,3.203-14.865,8.359l-23.94,39.374c-1.657,2.725-2.533,5.851-2.533,9.039V223.67
				c0,9.594,7.806,17.398,17.399,17.398h120.668c9.594,0,17.398-7.805,17.398-17.398V101.721
				C241.149,98.533,240.274,95.407,238.617,92.682z M238.149,223.67c0,7.939-6.459,14.398-14.398,14.398H103.083
				c-7.939,0-14.399-6.459-14.399-14.398V101.721c0-2.639,0.725-5.226,2.096-7.48l23.94-39.374
				c2.595-4.268,7.309-6.918,12.303-6.918h72.788c4.994,0,9.709,2.65,12.304,6.918l23.939,39.374
				c1.371,2.256,2.096,4.842,2.096,7.48V223.67z"/>
		</g>
	</g>
	<g>
		<g>
			<path class="st1" d="M237.335,93.461l-23.94-39.374c-2.884-4.743-8.033-7.639-13.584-7.639h-72.788
				c-5.551,0-10.701,2.896-13.584,7.639l-23.94,39.374c-0.651,1.07-1.161,2.211-1.541,3.392h150.919
				C238.496,95.672,237.986,94.531,237.335,93.461z"/>
		</g>
	</g>
	<g>
		<g>
			<path class="st0" d="M240.304,96.394c-0.425-1.321-0.992-2.569-1.687-3.712l-23.94-39.374c-3.135-5.156-8.831-8.359-14.866-8.359
				h-72.788c-6.034,0-11.73,3.203-14.865,8.359L88.216,92.682c-0.695,1.145-1.263,2.393-1.687,3.712
				c-0.147,0.456-0.066,0.955,0.216,1.343c0.282,0.387,0.732,0.616,1.212,0.616h33.196c0.828,0,1.5-0.672,1.5-1.5
				s-0.672-1.5-1.5-1.5H90.172c0.188-0.383,0.391-0.754,0.607-1.112l23.94-39.374c2.595-4.268,7.309-6.918,12.303-6.918h72.788
				c4.994,0,9.709,2.65,12.304,6.918l23.939,39.374c0.218,0.357,0.421,0.729,0.607,1.112h-101.48c-0.828,0-1.5,0.672-1.5,1.5
				s0.672,1.5,1.5,1.5h103.695c0.479,0,0.93-0.229,1.212-0.616C240.37,97.349,240.451,96.85,240.304,96.394z"/>
		</g>
	</g>
	<g>
		<g>
			<path class="st3" d="M74.55,181.62l-8.61-14.43c-1.43-2.38-4-3.84-6.77-3.84H32.83c-2.77,0-5.34,1.46-6.77,3.84l-8.61,14.43
				c-0.73,1.22-1.12,2.62-1.12,4.04v46.33c0,4.35,3.53,7.88,7.89,7.88h43.56c4.36,0,7.89-3.53,7.89-7.88v-46.33
				C75.67,184.24,75.28,182.84,74.55,181.62z M51.24,178.62c-0.3,2.4-2.2,4.33-4.55,4.64c-3.46,0.44-6.37-2.52-5.93-6.04
				c0.3-2.4,2.2-4.33,4.55-4.64C48.77,172.14,51.68,175.1,51.24,178.62z"/>
		</g>
	</g>
	<g>
		<g>
			<path class="st0" d="M46.879,184.742c3.01-0.387,5.471-2.884,5.85-5.938c0.269-2.164-0.452-4.276-1.978-5.795
				c-1.491-1.484-3.543-2.183-5.63-1.912c-3.01,0.387-5.471,2.884-5.85,5.938c-0.269,2.165,0.452,4.277,1.978,5.796
				c1.281,1.275,2.977,1.969,4.751,1.969C46.291,184.799,46.585,184.78,46.879,184.742z M43.366,180.704
				c-0.864-0.86-1.271-2.063-1.118-3.301c0.214-1.715,1.583-3.116,3.256-3.332c0.164-0.021,0.327-0.031,0.489-0.031
				c0.986,0,1.929,0.386,2.642,1.096c0.863,0.859,1.271,2.062,1.117,3.299c-0.214,1.716-1.583,3.117-3.256,3.333
				C45.332,181.912,44.195,181.529,43.366,180.704z M75.84,180.85l-8.615-14.429c-1.685-2.821-4.771-4.573-8.057-4.573H32.833
				c-3.286,0-6.373,1.752-8.058,4.573L16.16,180.85c-0.867,1.453-1.326,3.116-1.326,4.811v15.212c0,0.828,0.672,1.5,1.5,1.5
				s1.5-0.672,1.5-1.5V185.66c0-1.153,0.312-2.284,0.902-3.273l8.615-14.429c1.146-1.918,3.246-3.11,5.481-3.11h26.335
				c2.234,0,4.335,1.192,5.48,3.11l8.615,14.429c0.591,0.99,0.903,2.122,0.903,3.273v46.328c0,3.521-2.863,6.384-6.384,6.384H24.217
				c-3.52,0-6.383-2.863-6.383-6.384v-16.604c0-0.828-0.672-1.5-1.5-1.5s-1.5,0.672-1.5,1.5v16.604c0,5.174,4.209,9.384,9.383,9.384
				h43.566c5.174,0,9.384-4.21,9.384-9.384V185.66C77.167,183.967,76.708,182.304,75.84,180.85z"/>
		</g>
	</g>
	<g>
		<g>
			<path class="st6" d="M239.667,159.182c0-9.092-7.371-16.463-16.463-16.463c-3.086,0-5.963,0.865-8.431,2.342
				c-2.925-6.974-9.816-11.873-17.852-11.873c-9.597,0-17.558,6.987-19.083,16.151c-1.63-0.54-3.367-0.844-5.178-0.844
				c-3.933,0-7.54,1.384-10.372,3.684c0.05-0.621,0.082-1.246,0.082-1.879c0-12.821-10.394-23.214-23.215-23.214
				c-12.632,0-22.9,10.092-23.2,22.652c-3.016-3.412-7.413-5.575-12.325-5.575c-9.092,0-16.463,7.371-16.463,16.463
				c0,0.116,0.015,0.228,0.017,0.344v62.698c0,8.786,7.114,15.9,15.9,15.9H223.75c8.786,0,15.9-7.114,15.9-15.9v-63.331h-0.041
				C239.635,159.954,239.667,159.572,239.667,159.182z"/>
		</g>
	</g>
	<g>
		<g>
			<path class="st0" d="M241.167,159.183c0-9.905-8.059-17.964-17.963-17.964c-2.677,0-5.323,0.608-7.743,1.771
				c-3.558-6.917-10.666-11.302-18.54-11.302c-9.675,0-17.932,6.54-20.225,15.773c-4.355-1.012-8.997-0.316-12.846,1.849
				c-0.522-13.17-11.399-23.723-24.695-23.723c-12.228,0-22.577,9.14-24.416,20.944c-3.148-2.485-7.058-3.868-11.109-3.868
				c-9.904,0-17.963,8.059-17.963,17.964c0,0.097,0.006,0.191,0.017,0.343v62.698c0,9.595,7.806,17.4,17.4,17.4H223.75
				c9.594,0,17.399-7.806,17.399-17.4v-63.33c0-0.082-0.007-0.163-0.021-0.241C241.149,159.794,241.167,159.49,241.167,159.183z
				 M238.149,160.661v63.007c0,7.94-6.46,14.4-14.399,14.4H103.084c-7.94,0-14.4-6.46-14.4-14.4v-62.724
				c-0.002-0.08-0.006-0.158-0.017-0.317c0-8.251,6.712-14.964,14.963-14.964c4.271,0,8.354,1.848,11.201,5.068
				c0.409,0.463,1.063,0.628,1.639,0.416c0.579-0.212,0.97-0.757,0.985-1.373c0.278-11.683,10.014-21.188,21.7-21.188
				c11.974,0,21.715,9.741,21.715,21.714c0,0.528-0.025,1.104-0.078,1.76c-0.048,0.599,0.266,1.168,0.797,1.447
				c0.531,0.28,1.178,0.215,1.645-0.163c2.695-2.19,5.955-3.349,9.426-3.349c1.589,0,3.172,0.258,4.706,0.768
				c0.417,0.138,0.871,0.088,1.247-0.14c0.376-0.227,0.633-0.605,0.705-1.038c1.438-8.633,8.841-14.898,17.604-14.898
				c7.214,0,13.678,4.3,16.469,10.953c0.168,0.401,0.502,0.709,0.915,0.845c0.411,0.136,0.865,0.085,1.237-0.138
				c2.329-1.393,4.979-2.129,7.662-2.129c8.251,0,14.963,6.713,14.963,14.964c0,0.294-0.021,0.582-0.042,0.871l-0.013,0.182
				C238.102,160.38,238.115,160.522,238.149,160.661z"/>
		</g>
	</g>
	<g>
		<g>
			<path class="st6" d="M181.308,67.128h-35.782c-2.85,0-5.161,2.311-5.161,5.161c0,2.85,2.311,5.161,5.161,5.161h35.782
				c2.85,0,5.161-2.311,5.161-5.161C186.468,69.439,184.158,67.128,181.308,67.128z"/>
		</g>
	</g>
	<g>
		<g>
			<path class="st0" d="M181.308,65.628h-35.781c-3.673,0-6.661,2.988-6.661,6.661s2.988,6.661,6.661,6.661h35.781
				c3.673,0,6.661-2.988,6.661-6.661S184.98,65.628,181.308,65.628z M181.308,75.95h-35.781c-2.019,0-3.661-1.643-3.661-3.661
				s1.643-3.661,3.661-3.661h35.781c2.019,0,3.661,1.643,3.661,3.661S183.326,75.95,181.308,75.95z"/>
		</g>
	</g>
	<g>
		<g>
			<path class="st0" d="M107.256,14.628h-4.929c-31.794,0-57.66,25.866-57.66,57.661v104.839c0,0.828,0.672,1.5,1.5,1.5
				s1.5-0.672,1.5-1.5V72.289c0-30.141,24.521-54.661,54.66-54.661h4.929c30.141,0,54.661,24.521,54.661,54.661
				c0,0.828,0.672,1.5,1.5,1.5s1.5-0.672,1.5-1.5C164.917,40.494,139.051,14.628,107.256,14.628z"/>
		</g>
	</g>
	<g>
		<g>
			<path class="st11" d="M238.117,160.229v-0.13c0.03-0.3,0.05-0.61,0.05-0.92c0-7.68-5.81-14.02-13.27-14.86v79.35
				c0,7.94-6.46,14.4-14.4,14.4h13.25c7.94,0,14.4-6.46,14.4-14.4v-63.01C238.117,160.519,238.097,160.378,238.117,160.229z"/>
		</g>
	</g>
	<g>
		<g>
			<path class="st12" d="M237.737,98.348h-13.28c0.26,1.1,0.4,2.23,0.4,3.37v39.59c5.53,0.49,10.36,3.53,13.29,7.93v-47.52
				C238.147,100.578,238.007,99.448,237.737,98.348z"/>
		</g>
	</g>
	<g>
		<g>
			<path class="st9" d="M236.057,94.238l-23.94-39.37c-2.44-4-6.73-6.58-11.37-6.89c-0.31-0.02-0.62-0.03-0.94-0.03h-13.28
				c0.31,0,0.62,0.01,0.93,0.03c4.64,0.31,8.94,2.89,11.37,6.89l23.94,39.37c0.22,0.36,0.42,0.73,0.61,1.11h13.29
				C236.477,94.968,236.277,94.598,236.057,94.238z"/>
		</g>
	</g>
	<g>
		<g>
			<path class="st8" d="M73.267,182.388l-8.62-14.43c-1.14-1.92-3.24-3.11-5.48-3.11h-7.25c2.24,0,4.34,1.19,5.48,3.11l8.62,14.43
				c0.59,0.99,0.9,2.12,0.9,3.27v46.33c0,3.52-2.86,6.38-6.38,6.38h7.25c3.52,0,6.38-2.86,6.38-6.38v-46.33
				C74.167,184.508,73.857,183.378,73.267,182.388z"/>
		</g>
	</g>
</g>
</svg>
