<?xml version="1.0" encoding="utf-8"?>
<!-- Generator: Adobe Illustrator 22.0.1, SVG Export Plug-In . SVG Version: 6.00 Build 0)  -->
<svg version="1.1" id="Layer_2" xmlns="http://www.w3.org/2000/svg" xmlns:xlink="http://www.w3.org/1999/xlink" x="0px" y="0px"
	 viewBox="0 0 256 256" style="enable-background:new 0 0 256 256;" xml:space="preserve">
<style type="text/css">
	.st0{fill:#3A312A;}
	.st1{fill:#D7E057;}
	.st2{fill:#FCE8CB;}
	.st3{fill:#8AC6DD;}
	.st4{fill-rule:evenodd;clip-rule:evenodd;fill:#FCE8CB;}
	.st5{fill:#F5978A;}
	.st6{fill:#87796F;}
	.st7{fill:#F16C7A;}
	.st8{fill:#68A8BC;}
	.st9{fill:#B9BC39;}
	.st10{fill:#CE4E61;}
	.st11{fill:#6B5B51;}
	.st12{fill:#CCAE8B;}
	.st13{fill-rule:evenodd;clip-rule:evenodd;fill:#F16C7A;}
</style>
<g>
	<g>
		<g>
			<path class="st3" d="M201.552,109.73c-0.49,4.71-1.17,9.34-2,13.89c13.12,2.97,22.95,14.74,22.95,28.75
				c0,16.26-13.23,29.49-29.49,29.49c-4.71,0-9.17-1.11-13.13-3.1c-2.31,4.19-4.74,8.19-7.27,12c6.09,3.26,13.03,5.1,20.4,5.1
				c23.98,0,43.49-19.51,43.49-43.49C236.502,131.31,221.462,113.7,201.552,109.73z"/>
		</g>
	</g>
	<g>
		<g>
			<path class="st0" d="M201.845,108.259c-0.412-0.083-0.843,0.013-1.183,0.264s-0.559,0.633-0.603,1.053
				c-0.465,4.473-1.132,9.108-1.983,13.776c-0.145,0.791,0.36,1.555,1.145,1.732c12.621,2.857,21.781,14.333,21.781,27.287
				c0,15.434-12.557,27.99-27.99,27.99c-4.383,0-8.573-0.989-12.456-2.94c-0.72-0.361-1.599-0.089-1.987,0.616
				c-2.247,4.078-4.672,8.08-7.205,11.894c-0.234,0.352-0.309,0.786-0.206,1.196c0.104,0.41,0.375,0.757,0.747,0.956
				c6.449,3.453,13.748,5.278,21.107,5.278c24.808,0,44.99-20.182,44.99-44.99C238.002,130.988,222.796,112.437,201.845,108.259z
				 M193.012,194.36c-6.315,0-12.581-1.439-18.227-4.176c1.992-3.066,3.911-6.24,5.725-9.467c3.934,1.754,8.133,2.643,12.502,2.643
				c17.088,0,30.99-13.902,30.99-30.99c0-13.863-9.476-26.196-22.728-29.863c0.647-3.699,1.18-7.371,1.588-10.953
				c18.721,4.501,32.14,21.41,32.14,40.816C235.002,175.523,216.165,194.36,193.012,194.36z"/>
		</g>
	</g>
	<g>
		<g>
			<path class="st3" d="M193.647,86.851H61.848H46.816H30.24c-4.987,0-8.959,4.129-8.821,9.114
				C22.922,150.341,50.579,196.791,78.127,220h68.904c27.686-23.221,53.967-69.704,55.444-124.114
				C202.609,90.934,198.601,86.851,193.647,86.851z"/>
		</g>
	</g>
	<g>
		<g>
			<path class="st0" d="M201.062,88.482c-1.966-2.019-4.599-3.131-7.414-3.131H61.849c-0.828,0-1.5,0.671-1.5,1.5s0.672,1.5,1.5,1.5
				h131.799c1.999,0,3.868,0.79,5.264,2.224c1.385,1.423,2.118,3.295,2.064,5.271c-1.57,57.793-30.237,102.083-54.493,122.654
				H78.677c-24.84-21.147-54.188-65.762-55.759-122.577c-0.056-2.017,0.686-3.92,2.086-5.36c1.388-1.426,3.247-2.212,5.236-2.212
				h16.575c0.828,0,1.5-0.671,1.5-1.5s-0.672-1.5-1.5-1.5H30.24c-2.806,0-5.43,1.108-7.387,3.12
				c-1.97,2.026-3.013,4.702-2.934,7.535c1.606,58.125,31.839,103.74,57.24,125.141c0.271,0.228,0.613,0.353,0.967,0.353h68.903
				c0.353,0,0.693-0.124,0.964-0.351c24.82-20.817,54.374-66.103,55.979-125.222C204.05,93.135,203.016,90.491,201.062,88.482z"/>
		</g>
	</g>
	<g>
		<g>
			<path class="st1" d="M48.637,26.178c-0.974,11.564-13.024,13.39-13.024,13.39c10.347,0.487,12.925,14.059,12.925,14.059
				c0.221-9.677,13.321-14.202,13.321-14.202C52.046,38.838,48.637,26.178,48.637,26.178z"/>
		</g>
	</g>
	<g>
		<g>
			<path class="st0" d="M61.949,37.927c-8.604-0.514-11.832-12.024-11.863-12.14c-0.19-0.702-0.848-1.159-1.584-1.102
				c-0.725,0.066-1.298,0.642-1.359,1.367C46.283,36.268,35.83,38.016,35.389,38.085c-0.763,0.115-1.313,0.79-1.273,1.561
				c0.04,0.77,0.657,1.384,1.428,1.421c9.027,0.425,11.498,12.718,11.521,12.842c0.138,0.711,0.76,1.217,1.473,1.217
				c0.042,0,0.084-0.001,0.126-0.005c0.765-0.064,1.357-0.693,1.375-1.459c0.193-8.508,12.191-12.777,12.313-12.819
				c0.676-0.235,1.092-0.914,0.994-1.623C63.246,38.511,62.663,37.97,61.949,37.927z M48.383,48.273
				c-1.356-3.13-3.709-6.907-7.587-8.876c2.932-1.405,6.409-3.913,8.202-8.273c1.551,3.071,4.199,6.88,8.334,8.722
				C54.324,41.486,50.409,44.251,48.383,48.273z"/>
		</g>
	</g>
	<g>
		<g>
			<path class="st1" d="M26.939,43.159c-0.689,8.179-9.212,9.471-9.212,9.471c7.318,0.344,9.142,9.944,9.142,9.944
				c0.156-6.844,9.422-10.045,9.422-10.045C29.349,52.113,26.939,43.159,26.939,43.159z"/>
		</g>
	</g>
	<g>
		<g>
			<path class="st0" d="M36.381,51.031c-5.767-0.345-7.973-8.185-7.995-8.264c-0.189-0.702-0.863-1.161-1.581-1.102
				c-0.726,0.065-1.3,0.643-1.361,1.368c-0.578,6.871-7.646,8.066-7.941,8.113c-0.763,0.115-1.313,0.79-1.273,1.561
				c0.04,0.77,0.657,1.384,1.428,1.421c6.035,0.284,7.723,8.644,7.738,8.726c0.136,0.713,0.759,1.22,1.473,1.22
				c0.041,0,0.083-0.001,0.124-0.005c0.766-0.063,1.359-0.693,1.377-1.46c0.131-5.709,8.332-8.634,8.413-8.662
				c0.676-0.234,1.093-0.913,0.996-1.622C37.68,51.615,37.095,51.074,36.381,51.031z M26.796,57.826
				c-0.924-1.886-2.34-3.947-4.447-5.28c1.855-1.042,3.697-2.63,4.87-4.917c1.058,1.874,2.655,3.955,4.942,5.224
				C30.311,53.954,28.172,55.594,26.796,57.826z"/>
		</g>
	</g>
	<g>
		<g>
			<path class="st1" d="M26.939,16.501c-0.689,8.179-9.212,9.471-9.212,9.471c7.318,0.344,9.142,9.944,9.142,9.944
				c0.156-6.844,9.422-10.045,9.422-10.045C29.349,25.456,26.939,16.501,26.939,16.501z"/>
		</g>
	</g>
	<g>
		<g>
			<path class="st0" d="M36.381,24.374c-5.767-0.345-7.973-8.186-7.995-8.265c-0.189-0.702-0.863-1.16-1.581-1.102
				c-0.726,0.065-1.3,0.643-1.361,1.368c-0.578,6.871-7.646,8.067-7.941,8.114c-0.763,0.115-1.313,0.79-1.273,1.561
				c0.04,0.77,0.657,1.384,1.428,1.421c6.035,0.284,7.723,8.644,7.738,8.726c0.136,0.713,0.759,1.22,1.473,1.22
				c0.041,0,0.083-0.001,0.124-0.005c0.765-0.063,1.359-0.693,1.377-1.46c0.131-5.71,8.332-8.634,8.413-8.662
				c0.676-0.234,1.093-0.913,0.996-1.622C37.68,24.958,37.095,24.417,36.381,24.374z M26.796,31.169
				c-0.924-1.886-2.34-3.948-4.447-5.28c1.855-1.041,3.697-2.63,4.87-4.916c1.058,1.874,2.655,3.954,4.942,5.224
				C30.311,27.297,28.172,28.937,26.796,31.169z"/>
		</g>
	</g>
	<g>
		<g>
			<path class="st6" d="M33.492,220.073c0,10.728,8.697,19.426,19.425,19.426h135.461c10.729,0,19.426-8.697,19.426-19.426H33.492z"
				/>
		</g>
	</g>
	<g>
		<g>
			<path class="st0" d="M207.805,218.573H33.492c-0.828,0-1.5,0.671-1.5,1.5c0,11.539,9.387,20.926,20.925,20.926h89.35
				c0.828,0,1.5-0.671,1.5-1.5s-0.672-1.5-1.5-1.5h-89.35c-9.379,0-17.099-7.24-17.862-16.426h171.188
				c-0.764,9.186-8.484,16.426-17.863,16.426h-31.851c-0.828,0-1.5,0.671-1.5,1.5s0.672,1.5,1.5,1.5h31.851
				c11.538,0,20.926-9.387,20.926-20.926C209.305,219.244,208.633,218.573,207.805,218.573z"/>
		</g>
	</g>
	<g>
		<g>
			<path class="st0" d="M92.186,75.814c-2.364-2.365-3.66-5.508-3.647-8.853c0.012-3.345,1.331-6.479,3.713-8.827
				c2.94-2.897,4.577-6.767,4.607-10.895s-1.549-8.021-4.447-10.962l-0.435-0.44c-4.785-4.856-4.757-12.729,0.06-17.545l0.071-0.071
				c0.588-0.584,0.592-1.534,0.008-2.122c-0.583-0.587-1.534-0.591-2.121-0.007l-0.075,0.075
				c-5.981,5.982-6.018,15.751-0.078,21.777l0.435,0.44c2.335,2.37,3.607,5.507,3.583,8.834c-0.024,3.327-1.343,6.445-3.713,8.78
				c-2.956,2.913-4.593,6.802-4.607,10.952c-0.016,4.15,1.592,8.051,4.525,10.984l0.245,0.246c0.293,0.293,0.677,0.44,1.062,0.44
				c0.384,0,0.767-0.146,1.06-0.438c0.586-0.585,0.587-1.535,0.002-2.121L92.186,75.814z"/>
		</g>
	</g>
	<g>
		<g>
			<path class="st0" d="M112.313,75.814c-2.364-2.365-3.66-5.508-3.647-8.853c0.012-3.345,1.331-6.479,3.713-8.827
				c2.94-2.897,4.577-6.767,4.607-10.895s-1.549-8.021-4.447-10.962l-0.435-0.44c-4.785-4.856-4.757-12.729,0.068-17.553l0.07-0.071
				c0.583-0.587,0.545-1.5-0.041-2.084c-0.584-0.583-1.568-0.549-2.154,0.037c-5.982,5.982-6.019,15.75-0.079,21.777l0.435,0.44
				c2.335,2.37,3.607,5.507,3.583,8.834c-0.024,3.327-1.343,6.445-3.713,8.78c-2.956,2.913-4.593,6.802-4.607,10.952
				c-0.016,4.15,1.592,8.051,4.525,10.984l0.245,0.246c0.293,0.293,0.677,0.44,1.062,0.44c0.384,0,0.767-0.146,1.06-0.438
				c0.586-0.585,0.587-1.535,0.002-2.121L112.313,75.814z"/>
		</g>
	</g>
	<g>
		<g>
			<path class="st0" d="M131.103,75.814c-2.364-2.365-3.66-5.508-3.647-8.853c0.012-3.345,1.331-6.479,3.713-8.827
				c2.94-2.897,4.577-6.767,4.607-10.895s-1.55-8.021-4.446-10.961l-0.436-0.442c-4.786-4.856-4.757-12.729,0.067-17.553l0.07-0.071
				c0.583-0.587,0.545-1.5-0.041-2.084c-0.584-0.583-1.568-0.549-2.154,0.037c-5.982,5.981-6.018,15.75-0.08,21.775l0.436,0.442
				c2.335,2.37,3.608,5.507,3.584,8.834s-1.343,6.445-3.713,8.78c-2.956,2.913-4.593,6.802-4.607,10.952
				c-0.016,4.15,1.592,8.051,4.525,10.984l0.245,0.246c0.293,0.293,0.677,0.44,1.062,0.44c0.384,0,0.767-0.146,1.06-0.438
				c0.586-0.585,0.587-1.535,0.002-2.121L131.103,75.814z"/>
		</g>
	</g>
	<g>
		<g>
			<path class="st0" d="M151.23,75.814c-2.364-2.365-3.66-5.508-3.647-8.853c0.012-3.345,1.331-6.479,3.713-8.827
				c2.94-2.897,4.577-6.767,4.607-10.895s-1.55-8.021-4.446-10.961l-0.436-0.442c-4.786-4.855-4.758-12.728,0.06-17.545l0.071-0.071
				c0.588-0.584,0.592-1.534,0.008-2.122c-0.583-0.587-1.533-0.591-2.121-0.007l-0.075,0.075c-5.982,5.982-6.019,15.751-0.08,21.775
				l0.436,0.442c2.335,2.37,3.608,5.507,3.584,8.834s-1.344,6.445-3.714,8.78c-2.956,2.913-4.592,6.802-4.606,10.952
				c-0.016,4.15,1.592,8.051,4.525,10.984l0.245,0.246c0.293,0.293,0.677,0.44,1.062,0.44c0.384,0,0.767-0.146,1.06-0.438
				c0.586-0.585,0.587-1.535,0.002-2.121L151.23,75.814z"/>
		</g>
	</g>
	<g>
		<g>
			<path class="st7" d="M101.07,117.667l-6.673-9.273c-1.217-1.692-3.175-2.695-5.259-2.695H69.322
				c-2.045,0-3.969,0.965-5.192,2.604l-6.969,9.336c-0.836,1.119-1.287,2.479-1.287,3.876v37.974c0,3.578,2.901,6.479,6.48,6.479
				h33.458c3.578,0,6.479-2.901,6.479-6.479v-38.037C102.291,120.093,101.864,118.769,101.07,117.667z M79.082,125.583
				c-2.624,0-4.75-2.127-4.75-4.75c0-2.623,2.126-4.75,4.75-4.75c2.623,0,4.75,2.127,4.75,4.75
				C83.832,123.457,81.706,125.583,79.082,125.583z"/>
		</g>
	</g>
	<g>
		<g>
			<path class="st0" d="M79.082,114.583c-3.446,0-6.25,2.804-6.25,6.25s2.804,6.25,6.25,6.25s6.25-2.804,6.25-6.25
				S82.528,114.583,79.082,114.583z M79.082,124.083c-1.792,0-3.25-1.458-3.25-3.25s1.458-3.25,3.25-3.25s3.25,1.458,3.25,3.25
				S80.874,124.083,79.082,124.083z M102.288,116.79l-6.674-9.272c-1.495-2.078-3.916-3.319-6.477-3.319H69.322
				c-2.505,0-4.896,1.199-6.395,3.206l-6.969,9.335c-1.022,1.369-1.585,3.064-1.585,4.774v37.974c0,4.4,3.579,7.979,7.979,7.979
				h33.458c4.4,0,7.979-3.58,7.979-7.979v-38.037C103.791,119.77,103.271,118.158,102.288,116.79z M100.791,159.488
				c0,2.746-2.233,4.979-4.979,4.979H62.354c-2.746,0-4.979-2.234-4.979-4.979v-37.974c0-1.067,0.352-2.125,0.989-2.979l6.969-9.335
				c0.936-1.253,2.427-2.001,3.99-2.001h19.815c1.598,0,3.108,0.774,4.041,2.071l6.674,9.273c0.614,0.854,0.938,1.859,0.938,2.909
				V159.488z"/>
		</g>
	</g>
	<g>
		<g>
			<path class="st0" d="M79.082,85.333c-0.828,0-1.5,0.671-1.5,1.5v33c0,0.829,0.672,1.5,1.5,1.5s1.5-0.671,1.5-1.5v-33
				C80.582,86.005,79.91,85.333,79.082,85.333z"/>
		</g>
	</g>
	<g>
		<g>
			<path class="st8" d="M198.912,90.58c-1.4-1.44-3.27-2.23-5.27-2.23h-15.94c2,0,3.87,0.79,5.27,2.23
				c1.38,1.42,2.12,3.29,2.06,5.27c-1.57,57.79-30.23,102.08-54.49,122.65h15.94c24.26-20.57,52.92-64.86,54.49-122.65
				C201.032,93.87,200.292,92,198.912,90.58z"/>
		</g>
	</g>
	<g>
		<g>
			<path class="st11" d="M190.542,221.57c-0.76,9.19-8.48,16.43-17.86,16.43h15.7c9.38,0,17.1-7.24,17.86-16.43H190.542z"/>
		</g>
	</g>
</g>
</svg>
