<?xml version="1.0" encoding="utf-8"?>
<!-- Generator: Adobe Illustrator 22.0.1, SVG Export Plug-In . SVG Version: 6.00 Build 0)  -->
<svg version="1.1" id="Layer_2" xmlns="http://www.w3.org/2000/svg" xmlns:xlink="http://www.w3.org/1999/xlink" x="0px" y="0px"
	 viewBox="0 0 256 256" style="enable-background:new 0 0 256 256;" xml:space="preserve">
<style type="text/css">
	.st0{fill:#3A312A;}
	.st1{fill:#D7E057;}
	.st2{fill:#FCE8CB;}
	.st3{fill:#8AC6DD;}
	.st4{fill-rule:evenodd;clip-rule:evenodd;fill:#FCE8CB;}
	.st5{fill:#F5978A;}
	.st6{fill:#87796F;}
	.st7{fill:#F16C7A;}
	.st8{fill:#68A8BC;}
	.st9{fill:#B9BC39;}
	.st10{fill:#CE4E61;}
	.st11{fill:#6B5B51;}
	.st12{fill:#CCAE8B;}
	.st13{fill-rule:evenodd;clip-rule:evenodd;fill:#F16C7A;}
</style>
<g>
	<g>
		<g>
			<path class="st1" d="M51.305,26.178c-0.974,11.564-13.025,13.39-13.025,13.39c10.347,0.487,12.925,14.059,12.925,14.059
				c0.221-9.677,13.321-14.202,13.321-14.202C54.714,38.838,51.305,26.178,51.305,26.178z"/>
		</g>
	</g>
	<g>
		<g>
			<path class="st0" d="M64.617,37.927c-8.605-0.514-11.832-12.024-11.864-12.14c-0.191-0.703-0.863-1.162-1.583-1.102
				c-0.725,0.066-1.298,0.642-1.359,1.367c-0.86,10.215-11.313,11.963-11.754,12.032c-0.763,0.115-1.313,0.79-1.273,1.561
				c0.04,0.77,0.657,1.384,1.427,1.421c9.028,0.425,11.499,12.718,11.523,12.842c0.137,0.711,0.759,1.217,1.472,1.217
				c0.042,0,0.084-0.001,0.126-0.005c0.764-0.064,1.357-0.693,1.375-1.459c0.195-8.508,12.192-12.777,12.313-12.819
				c0.675-0.235,1.092-0.915,0.994-1.623C65.915,38.511,65.331,37.97,64.617,37.927z M51.051,48.273
				c-1.357-3.13-3.709-6.907-7.587-8.876c2.931-1.405,6.409-3.913,8.202-8.273c1.551,3.071,4.2,6.88,8.334,8.722
				C56.993,41.486,53.077,44.252,51.051,48.273z"/>
		</g>
	</g>
	<g>
		<g>
			<path class="st1" d="M29.607,43.159c-0.689,8.179-9.212,9.471-9.212,9.471c7.318,0.344,9.142,9.944,9.142,9.944
				c0.156-6.844,9.422-10.045,9.422-10.045C32.017,52.113,29.607,43.159,29.607,43.159z"/>
		</g>
	</g>
	<g>
		<g>
			<path class="st0" d="M39.048,51.031c-5.766-0.345-7.972-8.185-7.994-8.264c-0.19-0.702-0.856-1.169-1.582-1.102
				c-0.726,0.065-1.299,0.642-1.36,1.368c-0.579,6.871-7.646,8.066-7.942,8.113c-0.763,0.115-1.313,0.79-1.273,1.561
				c0.04,0.77,0.657,1.384,1.427,1.421c6.036,0.284,7.724,8.644,7.739,8.726c0.135,0.713,0.759,1.22,1.472,1.22
				c0.042,0,0.083-0.001,0.125-0.005c0.765-0.063,1.358-0.694,1.376-1.461c0.13-5.709,8.332-8.634,8.413-8.662
				c0.677-0.234,1.094-0.913,0.996-1.622C40.347,51.615,39.763,51.074,39.048,51.031z M29.463,57.826
				c-0.924-1.886-2.34-3.947-4.447-5.28c1.856-1.042,3.697-2.63,4.871-4.917c1.057,1.874,2.654,3.955,4.941,5.224
				C32.978,53.954,30.839,55.594,29.463,57.826z"/>
		</g>
	</g>
	<g>
		<g>
			<path class="st1" d="M29.607,16.501c-0.689,8.179-9.212,9.471-9.212,9.471c7.318,0.344,9.142,9.944,9.142,9.944
				c0.156-6.844,9.422-10.045,9.422-10.045C32.017,25.456,29.607,16.501,29.607,16.501z"/>
		</g>
	</g>
	<g>
		<g>
			<path class="st0" d="M39.048,24.374c-5.767-0.345-7.973-8.186-7.994-8.265c-0.19-0.702-0.856-1.17-1.582-1.102
				c-0.726,0.065-1.299,0.642-1.36,1.368c-0.579,6.871-7.646,8.067-7.942,8.114c-0.763,0.115-1.313,0.79-1.273,1.561
				c0.04,0.77,0.657,1.384,1.428,1.421c6.035,0.284,7.723,8.644,7.739,8.726c0.135,0.713,0.759,1.22,1.472,1.22
				c0.042,0,0.083-0.001,0.125-0.005c0.765-0.063,1.358-0.694,1.376-1.461c0.13-5.709,8.332-8.634,8.413-8.662
				c0.676-0.234,1.094-0.913,0.996-1.622C40.347,24.958,39.763,24.417,39.048,24.374z M29.463,31.168
				c-0.924-1.885-2.34-3.947-4.447-5.28c1.856-1.041,3.697-2.63,4.871-4.916c1.057,1.874,2.655,3.954,4.941,5.224
				C32.978,27.297,30.839,28.936,29.463,31.168z"/>
		</g>
	</g>
	<g>
		<g>
			<path class="st6" d="M231.22,194.499H24.78c-4.54,0-8.22,3.68-8.22,8.22v12.539c0,4.54,3.68,8.22,8.22,8.22h206.44
				c4.54,0,8.22-3.68,8.22-8.22v-12.539C239.44,198.179,235.76,194.499,231.22,194.499z"/>
		</g>
	</g>
	<g>
		<g>
			<path class="st0" d="M231.22,192.999H201.53c-0.828,0-1.5,0.671-1.5,1.5s0.672,1.5,1.5,1.5h29.689
				c3.706,0,6.721,3.015,6.721,6.72v12.54c0,3.705-3.015,6.72-6.721,6.72H24.78c-3.706,0-6.72-3.015-6.72-6.72v-12.54
				c0-3.705,3.015-6.72,6.72-6.72h161.69c0.828,0,1.5-0.671,1.5-1.5s-0.672-1.5-1.5-1.5H24.78c-5.36,0-9.72,4.36-9.72,9.72v12.54
				c0,5.359,4.36,9.72,9.72,9.72h206.44c5.36,0,9.721-4.36,9.721-9.72v-12.54C240.94,197.359,236.58,192.999,231.22,192.999z"/>
		</g>
	</g>
	<g>
		<g>
			<path class="st6" d="M169.25,223.478v10.396c0,3.107,2.518,5.625,5.625,5.625h36.75c3.107,0,5.625-2.518,5.625-5.625v-10.396
				H169.25z"/>
		</g>
	</g>
	<g>
		<g>
			<path class="st0" d="M217.25,221.978h-48c-0.828,0-1.5,0.671-1.5,1.5v10.396c0,3.929,3.196,7.125,7.125,7.125h36.75
				c3.929,0,7.125-3.196,7.125-7.125v-10.396C218.75,222.649,218.078,221.978,217.25,221.978z M215.75,233.874
				c0,2.274-1.851,4.125-4.125,4.125h-36.75c-2.274,0-4.125-1.851-4.125-4.125v-8.896h45V233.874z"/>
		</g>
	</g>
	<g>
		<g>
			<path class="st6" d="M38.75,223.478v10.396c0,3.107,2.518,5.625,5.625,5.625h36.75c3.107,0,5.625-2.518,5.625-5.625v-10.396
				H38.75z"/>
		</g>
	</g>
	<g>
		<g>
			<path class="st0" d="M86.75,221.978h-48c-0.829,0-1.5,0.671-1.5,1.5v10.396c0,3.929,3.196,7.125,7.125,7.125h36.75
				c3.929,0,7.125-3.196,7.125-7.125v-10.396C88.25,222.649,87.579,221.978,86.75,221.978z M85.25,233.874
				c0,2.274-1.851,4.125-4.125,4.125h-36.75c-2.274,0-4.125-1.851-4.125-4.125v-8.896h45V233.874z"/>
		</g>
	</g>
	<g>
		<g>
			<path class="st7" d="M198.54,92.23c-5.94,0-11.6,1.27-16.7,3.56c3.37,3.3,6.29,6.92,8.69,10.79c2.53-0.78,5.23-1.19,8.01-1.19
				c15.28,0,27.71,12.43,27.71,27.71c0,15.28-12.43,27.71-27.71,27.71c-2.78,0-5.47-0.41-8-1.18c-2.41,3.87-5.34,7.48-8.7,10.77
				c5.1,2.29,10.76,3.56,16.7,3.56c22.53,0,40.86-18.33,40.86-40.86C239.4,110.56,221.07,92.23,198.54,92.23z"/>
		</g>
	</g>
	<g>
		<g>
			<path class="st0" d="M198.54,90.73c-6.034,0-11.859,1.242-17.314,3.692c-0.453,0.203-0.775,0.617-0.862,1.105
				s0.073,0.988,0.427,1.335c3.29,3.222,6.139,6.757,8.466,10.509c0.358,0.58,1.063,0.842,1.717,0.643
				c2.417-0.746,4.963-1.124,7.567-1.124c14.452,0,26.21,11.758,26.21,26.21s-11.758,26.21-26.21,26.21
				c-2.587,0-5.132-0.375-7.563-1.115c-0.651-0.198-1.351,0.065-1.71,0.642c-2.321,3.727-5.173,7.257-8.477,10.491
				c-0.354,0.347-0.514,0.847-0.427,1.335s0.409,0.902,0.862,1.105c5.455,2.45,11.28,3.692,17.314,3.692
				c23.357,0,42.36-19.002,42.36-42.36C240.9,109.737,221.897,90.73,198.54,90.73z M198.54,172.46c-4.871,0-9.595-0.87-14.072-2.59
				c2.542-2.671,4.8-5.518,6.738-8.494c2.377,0.62,4.839,0.934,7.334,0.934c16.106,0,29.21-13.104,29.21-29.21
				s-13.104-29.21-29.21-29.21c-2.511,0-4.976,0.316-7.344,0.94c-1.941-2.992-4.196-5.844-6.729-8.51
				c4.478-1.72,9.201-2.59,14.072-2.59c21.703,0,39.36,17.661,39.36,39.37C237.9,154.803,220.243,172.46,198.54,172.46z"/>
		</g>
	</g>
	<g>
		<g>
			<path class="st7" d="M57.29,133.1c0-8.72,2.33-17,6.52-24.42L28.98,83.42H16.6l16.318,25.717l8.331,13.13l23.22,36.594l0.02-0.17
				C59.88,150.97,57.29,142.28,57.29,133.1z"/>
		</g>
	</g>
	<g>
		<g>
			<path class="st0" d="M65.778,157.921c-4.637-7.764-6.988-16.115-6.988-24.821c0-8.281,2.128-16.249,6.326-23.683
				c0.375-0.664,0.192-1.504-0.425-1.952l-34.83-25.26c-0.256-0.186-0.564-0.286-0.881-0.286H16.6c-0.547,0-1.051,0.298-1.315,0.777
				c-0.264,0.479-0.245,1.064,0.048,1.526l16.318,25.717c0.444,0.7,1.371,0.908,2.07,0.463c0.699-0.444,0.907-1.371,0.463-2.07
				L19.329,84.92h9.165l33.366,24.198c-4.028,7.553-6.069,15.614-6.069,23.982c0,3.84,0.43,7.614,1.283,11.303l-14.557-22.94
				c-0.443-0.699-1.369-0.906-2.07-0.463c-0.7,0.444-0.907,1.371-0.463,2.07l23.221,36.593c0.279,0.44,0.761,0.696,1.267,0.696
				c0.11,0,0.222-0.012,0.333-0.038c0.619-0.141,1.082-0.656,1.156-1.287l0.02-0.17C66.019,158.537,65.948,158.205,65.778,157.921z"
				/>
		</g>
	</g>
	<g>
		<g>
			<path class="st7" d="M127.8,54.38c-15.68,0-28.81,7.45-32.19,17.46H160C156.62,61.83,143.48,54.38,127.8,54.38z"/>
		</g>
	</g>
	<g>
		<g>
			<path class="st0" d="M161.421,71.36c-3.674-10.881-17.499-18.48-33.621-18.48c-16.115,0-29.937,7.599-33.611,18.48
				c-0.154,0.458-0.079,0.962,0.203,1.354c0.282,0.393,0.735,0.625,1.219,0.625H160c0.483,0,0.937-0.233,1.219-0.625
				C161.5,72.322,161.576,71.818,161.421,71.36z M97.856,70.34c4.229-8.49,16.364-14.46,29.943-14.46
				c13.585,0,25.724,5.97,29.954,14.46H97.856z"/>
		</g>
	</g>
	<g>
		<g>
			<path class="st2" d="M168.03,85.39c-0.65,0.2-1.34,0.31-2.06,0.31H89.63c-0.72,0-1.41-0.11-2.06-0.31
				c-18.3,10.49-30.28,27.95-30.28,47.71c0,21.97,14.8,41.08,36.64,50.95h67.74c21.84-9.87,36.64-28.98,36.64-50.95
				C198.31,113.34,186.33,95.88,168.03,85.39z"/>
		</g>
	</g>
	<g>
		<g>
			<path class="st0" d="M168.776,84.089c-0.36-0.206-0.788-0.254-1.187-0.133c-0.527,0.162-1.072,0.244-1.62,0.244H89.63
				c-0.547,0-1.092-0.082-1.62-0.244c-0.396-0.12-0.826-0.073-1.187,0.133C67.392,95.228,55.79,113.55,55.79,133.1
				c0,21.811,14.378,41.857,37.523,52.316c0.194,0.088,0.405,0.133,0.618,0.133h67.74c0.213,0,0.424-0.045,0.618-0.133
				c23.145-10.46,37.522-30.506,37.522-52.316C199.811,113.55,188.209,95.228,168.776,84.089z M161.345,182.55h-67.09
				C72.371,172.546,58.79,153.625,58.79,133.1c0-18.285,10.828-35.479,28.997-46.103c0.606,0.135,1.223,0.203,1.843,0.203h76.34
				c0.62,0,1.238-0.068,1.844-0.203c18.169,10.624,28.997,27.818,28.997,46.103C196.811,153.624,183.229,172.546,161.345,182.55z"/>
		</g>
	</g>
	<g>
		<g>
			<path class="st2" d="M93.805,184.049v5.062c0,2.976,2.412,5.388,5.388,5.388h57.218c2.976,0,5.388-2.412,5.388-5.388v-5.062
				H93.805z"/>
		</g>
	</g>
	<g>
		<g>
			<path class="st0" d="M161.799,182.549H93.805c-0.829,0-1.5,0.671-1.5,1.5v5.062c0,3.798,3.09,6.888,6.888,6.888h57.218
				c3.798,0,6.888-3.09,6.888-6.888v-5.062C163.299,183.22,162.627,182.549,161.799,182.549z M160.299,189.11
				c0,2.144-1.744,3.888-3.888,3.888H99.193c-2.144,0-3.888-1.744-3.888-3.888v-3.562h64.994V189.11z"/>
		</g>
	</g>
	<g>
		<g>
			<path class="st1" d="M165.973,71.84H89.631c-3.828,0-6.932,3.103-6.932,6.932c0,3.828,3.103,6.932,6.932,6.932h76.343
				c3.828,0,6.932-3.103,6.932-6.932C172.905,74.944,169.802,71.84,165.973,71.84z"/>
		</g>
	</g>
	<g>
		<g>
			<path class="st0" d="M165.974,70.34H89.631c-4.649,0-8.432,3.782-8.432,8.432s3.782,8.432,8.432,8.432h76.343
				c4.649,0,8.432-3.782,8.432-8.432S170.623,70.34,165.974,70.34z M165.974,84.204H89.631c-2.995,0-5.432-2.437-5.432-5.432
				s2.437-5.432,5.432-5.432h76.343c2.995,0,5.432,2.437,5.432,5.432S168.969,84.204,165.974,84.204z"/>
		</g>
	</g>
	<g>
		<g>
			
				<ellipse transform="matrix(0.3827 -0.9239 0.9239 0.3827 37.5953 145.6689)" class="st6" cx="127.802" cy="44.702" rx="9.676" ry="9.676"/>
		</g>
	</g>
	<g>
		<g>
			<path class="st0" d="M127.802,33.525c-6.163,0-11.177,5.014-11.177,11.176c0,6.163,5.014,11.177,11.177,11.177
				c6.163,0,11.176-5.014,11.176-11.177C138.978,38.539,133.965,33.525,127.802,33.525z M127.802,52.878
				c-4.509,0-8.177-3.668-8.177-8.177c0-4.508,3.668-8.176,8.177-8.176c4.508,0,8.176,3.668,8.176,8.176
				C135.978,49.21,132.31,52.878,127.802,52.878z"/>
		</g>
	</g>
	<g>
		<g>
			<path class="st7" d="M117.084,158.86h-35.24c-1.942,0-3.515,1.574-3.515,3.515v7.927c0,11.673,9.463,21.135,21.136,21.135
				s21.136-9.463,21.136-21.135v-7.927C120.599,160.434,119.025,158.86,117.084,158.86z"/>
		</g>
	</g>
	<g>
		<g>
			<path class="st0" d="M117.083,157.36h-35.24c-2.766,0-5.016,2.25-5.016,5.016v7.927c0,12.481,10.154,22.635,22.636,22.635
				c12.481,0,22.636-10.154,22.636-22.635v-7.927C122.099,159.61,119.849,157.36,117.083,157.36z M119.099,170.302
				c0,10.827-8.809,19.635-19.636,19.635c-10.827,0-19.636-8.808-19.636-19.635v-7.927c0-1.111,0.904-2.016,2.016-2.016h35.24
				c1.111,0,2.016,0.904,2.016,2.016V170.302z"/>
		</g>
	</g>
	<g>
		<g>
			<path class="st7" d="M83.588,184.049v4.941c0,3.042,2.466,5.508,5.508,5.508h20.989c3.042,0,5.508-2.466,5.508-5.508v-4.941
				H83.588z"/>
		</g>
	</g>
	<g>
		<g>
			<path class="st0" d="M115.593,182.549H83.588c-0.829,0-1.5,0.671-1.5,1.5v4.941c0,3.864,3.144,7.008,7.008,7.008h20.988
				c3.864,0,7.008-3.144,7.008-7.008v-4.941C117.093,183.22,116.422,182.549,115.593,182.549z M114.093,188.99
				c0,2.21-1.798,4.008-4.008,4.008H89.097c-2.21,0-4.008-1.798-4.008-4.008v-3.441h29.005V188.99z"/>
		</g>
	</g>
	<g>
		<g>
			<path class="st7" d="M65.615,158.86h-35.24c-1.942,0-3.515,1.574-3.515,3.515v7.927c0,11.673,9.463,21.135,21.135,21.135
				c11.673,0,21.136-9.463,21.136-21.135v-7.927C69.13,160.434,67.556,158.86,65.615,158.86z"/>
		</g>
	</g>
	<g>
		<g>
			<path class="st0" d="M65.615,157.36h-35.24c-2.766,0-5.016,2.25-5.016,5.016v7.927c0,12.481,10.154,22.635,22.636,22.635
				c12.481,0,22.635-10.154,22.635-22.635v-7.927C70.63,159.61,68.38,157.36,65.615,157.36z M67.63,170.302
				c0,10.827-8.808,19.635-19.635,19.635c-10.827,0-19.636-8.808-19.636-19.635v-7.927c0-1.111,0.904-2.016,2.016-2.016h35.24
				c1.111,0,2.015,0.904,2.015,2.016V170.302z"/>
		</g>
	</g>
	<g>
		<g>
			<path class="st7" d="M32.12,184.049v4.941c0,3.042,2.466,5.508,5.508,5.508h20.989c3.042,0,5.508-2.466,5.508-5.508v-4.941H32.12
				z"/>
		</g>
	</g>
	<g>
		<g>
			<path class="st0" d="M64.124,182.549H32.12c-0.829,0-1.5,0.671-1.5,1.5v4.941c0,3.864,3.144,7.008,7.008,7.008h20.988
				c3.864,0,7.008-3.144,7.008-7.008v-4.941C65.624,183.22,64.953,182.549,64.124,182.549z M62.624,188.99
				c0,2.21-1.798,4.008-4.008,4.008H37.628c-2.21,0-4.008-1.798-4.008-4.008v-3.441h29.005V188.99z"/>
		</g>
	</g>
	<g>
		<g>
			<path class="st11" d="M231.22,196h-11.21c3.71,0,6.72,3.01,6.72,6.72v12.54c0,3.7-3.01,6.72-6.72,6.72h11.21
				c3.71,0,6.72-3.02,6.72-6.72v-12.54C237.94,199.01,234.93,196,231.22,196z"/>
		</g>
	</g>
	<g>
		<g>
			<path class="st10" d="M127.8,55.88c-1.91,0-3.78,0.11-5.6,0.34c11.45,1.37,20.76,6.88,24.35,14.12h11.21
				C153.6,61.95,141.75,55.88,127.8,55.88z"/>
		</g>
	</g>
	<g>
		<g>
			<path class="st12" d="M167.76,87.01c-0.57,0.12-1.17,0.19-1.79,0.19h-9.1c17.39,10.29,28.73,27.02,28.73,45.9
				c0,21.24-14.35,39.77-35.52,49.45h11.21c21.17-9.68,35.52-28.21,35.52-49.45C196.81,114.1,185.33,97.28,167.76,87.01z"/>
		</g>
	</g>
	<g>
		<g>
			<path class="st12" d="M149.09,185.55v3.56c0,2.14-1.74,3.89-3.89,3.89h11.21c2.14,0,3.89-1.75,3.89-3.89v-3.56H149.09z"/>
		</g>
	</g>
	<g>
		<g>
			<path class="st9" d="M165.97,73.34h-11.21c3,0,5.44,2.44,5.44,5.43c0,3-2.44,5.43-5.44,5.43h11.21c3,0,5.44-2.43,5.44-5.43
				C171.41,75.78,168.97,73.34,165.97,73.34z"/>
		</g>
	</g>
	<g>
		<g>
			<path class="st11" d="M127.8,36.53c-0.98,0-1.92,0.17-2.79,0.49c3.13,1.15,5.37,4.16,5.37,7.68c0,3.53-2.24,6.54-5.38,7.68
				c0.87,0.33,1.81,0.5,2.8,0.5c4.51,0,8.18-3.67,8.18-8.18S132.31,36.53,127.8,36.53z"/>
		</g>
	</g>
</g>
</svg>
