<svg fill="#000000" xmlns="http://www.w3.org/2000/svg"  viewBox="0 0 48 48" width="24px" height="24px"><path d="M 15.138672 5.0058594 C 14.309076 5.0058594 13.296982 5.5848097 12.939453 6.25 C 12.589504 6.9010886 12.569948 7.3759868 12.490234 7.7910156 L 8.1152344 24.621094 A 1.50015 1.50015 0 0 0 8.0703125 24.84375 C 8.0226013 25.090765 7.9957908 25.344242 8.0019531 25.603516 L 8.0019531 39.353516 C 7.9546722 41.271562 9.4580907 42.947 11.392578 43 L 11.414062 43 L 36.585938 43 L 36.607422 43 C 38.541934 42.947 40.043598 41.270048 39.998047 39.353516 L 39.998047 25.605469 C 39.998407 25.590846 39.99396 25.577094 39.994141 25.5625 A 1.50015 1.50015 0 0 0 39.966797 25.027344 L 39.949219 24.941406 C 39.94215 24.898343 39.930481 24.857058 39.921875 24.814453 L 36.291016 7.8203125 C 35.965581 6.1931379 34.518566 5.0058594 32.859375 5.0058594 L 15.138672 5.0058594 z M 15.511719 8.0058594 L 32.859375 8.0058594 C 33.106184 8.0058594 33.301044 8.1653777 33.349609 8.4082031 A 1.50015 1.50015 0 0 0 33.353516 8.4277344 L 36.244141 21.957031 L 11.90625 21.957031 L 15.408203 8.4921875 A 1.50015 1.50015 0 0 0 15.427734 8.4082031 C 15.483724 8.1282726 15.480559 8.1349231 15.511719 8.0058594 z M 11.474609 24.957031 L 36.525391 24.957031 C 36.709862 24.962051 36.873849 25.076473 36.951172 25.269531 L 36.984375 25.419922 C 36.989426 25.457343 37.00102 25.489853 37 25.53125 L 36.998047 25.548828 L 36.998047 25.568359 L 36.998047 39.408203 L 37 39.425781 C 37.008449 39.781249 36.780878 39.993 36.525391 40 L 34.478516 40 A 1 2 0 0 0 33.511719 37.503906 A 1 2 0 0 0 32.542969 40 L 16.757812 40 A 1.876 1 44.999 0 0 13.978516 38.175781 A 1.876 1 44.999 0 0 14.40625 40 L 11.474609 40 C 11.219097 39.993 10.991277 39.781641 11 39.427734 L 11.001953 39.408203 L 11.001953 32.087891 A 1 1.876 44.999 0 0 11.458984 31.707031 A 1 1.876 44.999 0 0 11.001953 29.628906 L 11.001953 25.550781 L 11 25.533203 C 10.998194 25.456771 11.011356 25.390803 11.029297 25.328125 L 11.042969 25.283203 C 11.118281 25.081499 11.287323 24.962163 11.474609 24.957031 z M 28.191406 26.304688 A 1 2 0 0 0 28.191406 30.304688 A 1 2 0 0 0 28.191406 26.304688 z M 16 26.828125 A 1 2 0 0 0 16 30.828125 A 1 2 0 0 0 16 26.828125 z M 24.169922 30.064453 A 1 1.876 44.999 0 0 22.675781 30.859375 A 1 1.876 44.999 1 0 24.089844 32.273438 A 1 1.876 44.999 0 0 24.169922 30.064453 z M 33.794922 30.976562 A 1 1.876 44.999 0 0 32.298828 31.771484 A 1 1.876 44.999 0 0 33.712891 33.185547 A 1 1.876 44.999 0 0 33.794922 30.976562 z M 18.744141 33.998047 A 1 2 0 0 0 18.744141 37.998047 A 1 2 0 0 0 18.744141 33.998047 z M 25.492188 34.994141 A 1.876 1 44.999 0 0 25.0625 35.169922 A 1.876 1 44.999 1 0 27.716797 37.822266 A 1.876 1 44.999 0 0 25.492188 34.994141 z"/></svg>