<svg fill="#000000" xmlns="http://www.w3.org/2000/svg"  viewBox="0 0 48 48" width="24px" height="24px"><path d="M41.956,7.359c0.12-0.268-0.016-0.569-0.296-0.655c-0.81-0.249-2.481-0.611-3.935,0.046	c0.208-1.356-0.298-2.756-0.618-3.462c-0.121-0.266-0.439-0.369-0.686-0.219c-0.674,0.409-1.903,1.328-2.29,2.773	c-0.235,0.877-0.116,1.794,0.088,2.563c-4.034,1.486-7.612,3.181-10.754,5.097c-0.031-0.412-0.086-0.814-0.166-1.202	C23.681,11.623,24,10.795,24,9.892c0-1.646-1.053-3.066-1.631-3.722c-0.199-0.226-0.539-0.226-0.739,0	c-0.53,0.602-1.452,1.852-1.6,3.328C19.156,9.071,18.156,8.999,17.6,9c-0.241,0.001-0.426,0.205-0.398,0.441	c0.077,0.645,0.346,1.88,1.297,2.66c0.551,0.453,1.239,0.675,1.863,0.789c0.227,1.084,0.15,2.36-0.096,2.751	c-2.18,1.599-4.099,3.336-5.769,5.213c-0.132-1.311-0.961-2.232-1.527-2.715c-0.277-0.236-0.701-0.157-0.885,0.156	c-0.46,0.784-1.196,2.284-1.072,3.706c0.078,0.9,0.489,1.606,0.923,2.129C8.27,29.503,6.325,35.893,6.001,43.436	c-0.036,0.828,0.606,1.527,1.434,1.563C7.458,45,7.479,45,7.501,45c0.799,0,1.463-0.63,1.498-1.436	c0.056-1.313,0.187-2.575,0.352-3.813c2.194-1.213,4.904-1.463,7.842-1.459c0.17,0.559,0.484,1.192,1.097,1.68	c0.965,0.767,2.392,0.964,3.174,1.012c0.313,0.019,0.571-0.243,0.532-0.552c-0.069-0.542-0.279-1.375-0.891-2.055	c3.226,0.088,6.491,0.095,9.476-0.818c0.447,0.738,1.123,1.585,2.051,2.045c1.337,0.662,2.836,0.342,3.587,0.103	c0.275-0.087,0.408-0.395,0.288-0.662c-0.317-0.707-1.03-2.012-2.182-2.749c1.451-0.663,2.282-2.163,2.631-2.938	c0.12-0.268-0.016-0.569-0.296-0.655c-0.81-0.249-2.481-0.611-3.935,0.046c0.208-1.356-0.298-2.756-0.618-3.462	c-0.121-0.266-0.439-0.369-0.686-0.219c-0.674,0.409-1.903,1.328-2.29,2.773c-0.276,1.031-0.07,2.128,0.198,2.961	c-2.688,0.734-5.784,0.644-9.004,0.552c-0.061-0.002-0.122-0.003-0.183-0.005c0.21-0.108,0.412-0.231,0.596-0.377	c0.906-0.72,1.178-1.766,1.259-2.406c0.039-0.309-0.219-0.571-0.532-0.552c-0.782,0.048-2.209,0.245-3.174,1.012	c-0.844,0.671-1.135,1.621-1.237,2.266c-2.443,0.004-4.848,0.202-7.059,0.937c0.927-3.974,2.472-7.545,4.707-10.718	c0.684,0.331,1.856,0.719,3.125,0.318c1.376-0.434,2.496-1.682,3.051-2.403c0.222-0.288,0.133-0.705-0.194-0.867	c-0.678-0.335-1.877-0.746-3.17-0.338c-0.052,0.017-0.1,0.046-0.152,0.065c1.495-1.599,3.172-3.098,5.082-4.477	c0.957-0.226,2.043-0.22,3.106,0.04l1.124,0.375c0.34,0.149,0.668,0.323,0.98,0.531c-0.361,0.64-0.688,1.457-0.652,2.31	c0.056,1.313,0.957,2.338,1.47,2.818c0.188,0.176,0.488,0.149,0.647-0.056c0.421-0.543,1.141-1.644,1.224-2.846	c1.149,0.843,2.693,0.856,3.454,0.798c0.263-0.02,0.442-0.252,0.389-0.505c-0.154-0.731-0.591-2.176-1.737-3.024	c1.159-0.41,2.043-1.391,2.461-1.935c0.158-0.206,0.101-0.495-0.124-0.623c-0.614-0.349-1.87-0.913-3.177-0.604	c-0.87,0.206-1.6,0.761-2.134,1.289c-0.813-0.567-1.719-1.007-2.674-1.304c2.566-1.429,5.424-2.717,8.573-3.874	c0.432,0.804,1.172,1.868,2.257,2.406c1.337,0.662,2.836,0.342,3.587,0.103c0.275-0.087,0.408-0.395,0.288-0.662	c-0.317-0.707-1.03-2.012-2.182-2.749C40.776,9.634,41.608,8.134,41.956,7.359z"/></svg>