<?xml version="1.0" encoding="utf-8"?>
<!-- Generator: Adobe Illustrator 22.0.1, SVG Export Plug-In . SVG Version: 6.00 Build 0)  -->
<svg version="1.1" id="Layer_2" xmlns="http://www.w3.org/2000/svg" xmlns:xlink="http://www.w3.org/1999/xlink" x="0px" y="0px"
	 viewBox="0 0 256 256" style="enable-background:new 0 0 256 256;" xml:space="preserve">
<style type="text/css">
	.st0{fill:#3A312A;}
	.st1{fill:#D7E057;}
	.st2{fill:#FCE8CB;}
	.st3{fill:#8AC6DD;}
	.st4{fill-rule:evenodd;clip-rule:evenodd;fill:#FCE8CB;}
	.st5{fill:#F5978A;}
	.st6{fill:#87796F;}
	.st7{fill:#F16C7A;}
	.st8{fill:#68A8BC;}
	.st9{fill:#B9BC39;}
	.st10{fill:#CE4E61;}
	.st11{fill:#6B5B51;}
	.st12{fill:#CCAE8B;}
	.st13{fill-rule:evenodd;clip-rule:evenodd;fill:#F16C7A;}
</style>
<g>
	<g>
		<g>
			<path class="st1" d="M72.806,26.208c-0.974,11.563-13.024,13.389-13.024,13.389c10.347,0.487,12.925,14.059,12.925,14.059
				c0.221-9.677,13.321-14.202,13.321-14.202C76.214,38.867,72.806,26.208,72.806,26.208z"/>
		</g>
	</g>
	<g>
		<g>
			<path class="st0" d="M86.118,37.957c-8.604-0.515-11.832-12.024-11.863-12.141c-0.19-0.702-0.85-1.163-1.584-1.102
				c-0.725,0.066-1.298,0.642-1.359,1.367c-0.86,10.215-11.313,11.964-11.755,12.032c-0.763,0.116-1.313,0.791-1.273,1.561
				c0.04,0.771,0.657,1.385,1.428,1.421c9.028,0.425,11.499,12.718,11.522,12.843c0.138,0.711,0.76,1.217,1.473,1.217
				c0.042,0,0.084-0.002,0.126-0.005c0.765-0.064,1.357-0.693,1.375-1.46C74.4,45.182,86.398,40.913,86.52,40.871
				c0.676-0.234,1.092-0.914,0.994-1.622C87.415,38.54,86.832,37.999,86.118,37.957z M72.552,48.303
				c-1.356-3.131-3.709-6.907-7.587-8.876c2.931-1.405,6.409-3.914,8.202-8.273c1.551,3.071,4.199,6.88,8.334,8.723
				C78.493,41.516,74.578,44.281,72.552,48.303z"/>
		</g>
	</g>
	<g>
		<g>
			<path class="st1" d="M51.107,43.188c-0.689,8.179-9.212,9.47-9.212,9.47c7.318,0.345,9.142,9.944,9.142,9.944
				c0.156-6.844,9.422-10.045,9.422-10.045C53.518,52.143,51.107,43.188,51.107,43.188z"/>
		</g>
	</g>
	<g>
		<g>
			<path class="st0" d="M60.549,51.061c-5.766-0.345-7.972-8.186-7.994-8.265c-0.189-0.702-0.865-1.165-1.581-1.102
				c-0.726,0.065-1.3,0.643-1.361,1.368c-0.578,6.87-7.646,8.066-7.941,8.113c-0.763,0.116-1.313,0.791-1.273,1.561
				c0.04,0.771,0.657,1.385,1.428,1.421c6.034,0.284,7.723,8.645,7.738,8.727c0.136,0.713,0.759,1.22,1.473,1.22
				c0.041,0,0.083-0.002,0.125-0.005c0.765-0.063,1.358-0.693,1.376-1.461c0.13-5.709,8.331-8.634,8.412-8.662
				c0.676-0.234,1.093-0.913,0.996-1.622C61.848,51.645,61.263,51.103,60.549,51.061z M50.964,57.855
				c-0.924-1.886-2.34-3.947-4.446-5.279c1.855-1.042,3.697-2.63,4.87-4.917c1.058,1.874,2.654,3.954,4.941,5.224
				C54.479,53.983,52.341,55.623,50.964,57.855z"/>
		</g>
	</g>
	<g>
		<g>
			<path class="st1" d="M51.107,16.531c-0.689,8.179-9.212,9.471-9.212,9.471c7.318,0.344,9.142,9.944,9.142,9.944
				c0.156-6.845,9.422-10.045,9.422-10.045C53.518,25.485,51.107,16.531,51.107,16.531z"/>
		</g>
	</g>
	<g>
		<g>
			<path class="st0" d="M60.549,24.403c-5.766-0.346-7.972-8.186-7.994-8.265c-0.189-0.702-0.865-1.165-1.581-1.102
				c-0.726,0.065-1.3,0.643-1.361,1.368c-0.578,6.87-7.646,8.065-7.941,8.112c-0.763,0.116-1.313,0.791-1.273,1.561
				c0.04,0.771,0.657,1.385,1.428,1.421c6.034,0.284,7.723,8.645,7.738,8.727c0.136,0.713,0.759,1.22,1.473,1.22
				c0.041,0,0.083-0.002,0.125-0.005c0.765-0.063,1.358-0.693,1.376-1.461c0.13-5.708,8.331-8.633,8.412-8.661
				c0.676-0.234,1.093-0.913,0.996-1.622C61.848,24.987,61.263,24.446,60.549,24.403z M50.964,31.198
				c-0.924-1.887-2.339-3.947-4.446-5.28c1.855-1.041,3.697-2.63,4.87-4.916c1.058,1.873,2.655,3.954,4.941,5.224
				C54.479,27.326,52.341,28.966,50.964,31.198z"/>
		</g>
	</g>
	<g>
		<g>
			<path class="st7" d="M100.891,43.309l1.053,16.824l0.987,14.853c-0.019,0-0.037-0.002-0.057-0.003l0.877,14.006l6.87,109.84
				l1.65,26.43c0.5,7.99,7.13,14.21,15.13,14.21h52.56c8,0,14.63-6.22,15.13-14.21l1.65-26.43l6.87-109.84l2.86-45.68H100.891z"/>
		</g>
	</g>
	<g>
		<g>
			<path class="st0" d="M207.564,42.282c-0.284-0.302-0.68-0.473-1.094-0.473h-105.58c-0.414,0-0.81,0.171-1.094,0.473
				c-0.283,0.302-0.43,0.708-0.403,1.121l1.054,16.823c0.052,0.827,0.768,1.449,1.591,1.403c0.827-0.052,1.455-0.764,1.403-1.591
				l-0.954-15.229h102.387l-11.28,180.356c-0.449,7.179-6.438,12.803-13.633,12.803H127.4c-7.195,0-13.184-5.624-13.633-12.803
				L104.39,75.184c0.007-0.054,0.011-0.107,0.013-0.162c0.02-0.813-0.641-1.496-1.453-1.537c-0.438-0.007-0.843,0.141-1.143,0.444
				s-0.456,0.721-0.43,1.147l9.396,150.277c0.548,8.756,7.852,15.615,16.627,15.615h52.561c8.775,0,16.079-6.859,16.627-15.615
				l11.38-181.95C207.994,42.99,207.848,42.584,207.564,42.282z"/>
		</g>
	</g>
	<g>
		<g>
			<path class="st6" d="M206.054,27.623H101.308c-3.468,0-6.28,2.812-6.28,6.28v3.125c0,3.468,2.812,6.28,6.28,6.28h104.746
				c3.468,0,6.28-2.812,6.28-6.28v-3.125C212.334,30.434,209.522,27.623,206.054,27.623z"/>
		</g>
	</g>
	<g>
		<g>
			<path class="st0" d="M206.054,26.122H101.308c-4.289,0-7.779,3.49-7.779,7.78v3.125c0,4.289,3.49,7.779,7.779,7.779h104.746
				c4.29,0,7.78-3.49,7.78-7.779v-3.125C213.834,29.612,210.344,26.122,206.054,26.122z M210.834,37.027
				c0,2.636-2.145,4.779-4.78,4.779H101.308c-2.636,0-4.779-2.144-4.779-4.779v-3.125c0-2.636,2.144-4.78,4.779-4.78h104.746
				c2.636,0,4.78,2.145,4.78,4.78V37.027z"/>
		</g>
	</g>
	<g>
		<g>
			<path class="st6" d="M166.646,16.531h-25.931c-2.557,0-4.631,2.073-4.631,4.63v6.461h35.192v-6.461
				C171.277,18.604,169.203,16.531,166.646,16.531z"/>
		</g>
	</g>
	<g>
		<g>
			<path class="st0" d="M166.646,15.031h-25.931c-3.381,0-6.131,2.75-6.131,6.13v6.461c0,0.828,0.672,1.5,1.5,1.5h35.191
				c0.828,0,1.5-0.672,1.5-1.5v-6.461C172.776,17.781,170.026,15.031,166.646,15.031z M169.776,26.122h-32.191v-4.961
				c0-1.726,1.404-3.13,3.131-3.13h25.931c1.726,0,3.13,1.404,3.13,3.13V26.122z"/>
		</g>
	</g>
	<g>
		<g>
			<polygon class="st1" points="103.751,88.989 110.621,198.829 196.741,198.829 203.611,88.989 			"/>
		</g>
	</g>
	<g>
		<g>
			<path class="st0" d="M204.703,87.962c-0.283-0.302-0.679-0.473-1.093-0.473h-23.985c-0.828,0-1.5,0.672-1.5,1.5
				s0.672,1.5,1.5,1.5h22.389l-6.682,106.84H112.03l-6.683-106.84h59.889c0.828,0,1.5-0.672,1.5-1.5s-0.672-1.5-1.5-1.5h-61.485
				c-0.414,0-0.81,0.171-1.093,0.473c-0.284,0.302-0.43,0.708-0.404,1.121l6.87,109.84c0.05,0.79,0.705,1.406,1.497,1.406h86.12
				c0.792,0,1.447-0.616,1.497-1.406l6.869-109.84C205.133,88.67,204.987,88.264,204.703,87.962z"/>
		</g>
	</g>
	<g>
		<g>
			<circle class="st2" cx="153.681" cy="143.911" r="36.882"/>
		</g>
	</g>
	<g>
		<g>
			<path class="st0" d="M153.681,105.529c-21.164,0-38.382,17.218-38.382,38.382c0,21.163,17.218,38.381,38.382,38.381
				s38.382-17.218,38.382-38.381C192.063,122.747,174.845,105.529,153.681,105.529z M153.681,179.292
				c-19.51,0-35.382-15.872-35.382-35.381c0-19.51,15.872-35.382,35.382-35.382s35.382,15.872,35.382,35.382
				C189.063,163.42,173.19,179.292,153.681,179.292z"/>
		</g>
	</g>
	<g>
		<g>
			<ellipse class="st6" cx="153.681" cy="144.005" rx="14.73" ry="23.372"/>
		</g>
	</g>
	<g>
		<g>
			<path class="st0" d="M153.681,119.134c-8.949,0-16.229,11.157-16.229,24.871c0,13.715,7.28,24.872,16.229,24.872
				s16.23-11.157,16.23-24.872C169.911,130.291,162.63,119.134,153.681,119.134z M153.681,165.877
				c-7.295,0-13.229-9.812-13.229-21.872c0-12.06,5.935-21.871,13.229-21.871s13.23,9.812,13.23,21.871
				C166.911,156.065,160.976,165.877,153.681,165.877z"/>
		</g>
	</g>
	<g>
		<g>
			<path class="st0" d="M155.07,143.164l-0.601-0.517c-3.248-2.795-5.029-6.475-5.016-10.361c0.015-3.894,1.827-7.568,5.107-10.351
				l0.098-0.083c0.631-0.536,0.708-1.482,0.171-2.114c-0.536-0.629-1.482-0.708-2.114-0.171l-0.096,0.082
				c-3.959,3.356-6.148,7.841-6.166,12.626c-0.017,4.778,2.135,9.27,6.058,12.646l0.601,0.517c3.263,2.808,5.044,6.503,5.016,10.406
				c-0.028,3.918-1.875,7.605-5.198,10.382c-0.636,0.531-0.721,1.478-0.189,2.113c0.297,0.354,0.723,0.538,1.152,0.538
				c0.339,0,0.68-0.114,0.961-0.349c4.011-3.352,6.239-7.849,6.274-12.662C161.162,151.066,159.011,146.556,155.07,143.164z"/>
		</g>
	</g>
	<g>
		<g>
			<path class="st10" d="M184.151,200.329l-1.56,24.84c-0.45,7.18-6.43,12.8-13.63,12.8h11c7.2,0,13.18-5.62,13.63-12.8l1.56-24.84
				H184.151z"/>
		</g>
	</g>
	<g>
		<g>
			<polygon class="st10" points="193.871,44.809 191.201,87.489 202.201,87.489 204.871,44.809 			"/>
		</g>
	</g>
	<g>
		<g>
			<path class="st11" d="M206.051,29.119h-11c2.64,0,4.78,2.15,4.78,4.78v3.13c0,2.63-2.14,4.78-4.78,4.78h11
				c2.64,0,4.78-2.15,4.78-4.78v-3.13C210.831,31.27,208.691,29.119,206.051,29.119z"/>
		</g>
	</g>
	<g>
		<g>
			<path class="st9" d="M191.011,90.489l-2.35,37.62c2.18,4.82,3.4,10.17,3.4,15.8c0,7.33-2.06,14.19-5.64,20.02l-2.09,33.4h11
				l6.68-106.84H191.011z"/>
		</g>
	</g>
</g>
</svg>
