<?xml version="1.0" encoding="utf-8"?>
<!-- Generator: Adobe Illustrator 22.0.1, SVG Export Plug-In . SVG Version: 6.00 Build 0)  -->
<svg version="1.1" id="Layer_2" xmlns="http://www.w3.org/2000/svg" xmlns:xlink="http://www.w3.org/1999/xlink" x="0px" y="0px"
	 viewBox="0 0 256 256" style="enable-background:new 0 0 256 256;" xml:space="preserve">
<style type="text/css">
	.st0{fill:#3A312A;}
	.st1{fill:#D7E057;}
	.st2{fill:#FCE8CB;}
	.st3{fill:#8AC6DD;}
	.st4{fill-rule:evenodd;clip-rule:evenodd;fill:#FCE8CB;}
	.st5{fill:#F5978A;}
	.st6{fill:#87796F;}
	.st7{fill:#F16C7A;}
	.st8{fill:#68A8BC;}
	.st9{fill:#B9BC39;}
	.st10{fill:#CE4E61;}
	.st11{fill:#6B5B51;}
	.st12{fill:#CCAE8B;}
	.st13{fill-rule:evenodd;clip-rule:evenodd;fill:#F16C7A;}
</style>
<g>
	<g>
		<g>
			<path class="st1" d="M199.91,26.64c-0.974,11.564-13.025,13.389-13.025,13.389c10.347,0.487,12.925,14.059,12.925,14.059
				c0.221-9.677,13.321-14.202,13.321-14.202C203.318,39.3,199.91,26.64,199.91,26.64z"/>
		</g>
	</g>
	<g>
		<g>
			<path class="st0" d="M213.222,38.39c-8.604-0.515-11.833-12.024-11.864-12.141c-0.191-0.702-0.851-1.161-1.584-1.102
				c-0.725,0.066-1.298,0.642-1.359,1.367c-0.859,10.215-11.313,11.964-11.754,12.032c-0.763,0.116-1.313,0.791-1.273,1.561
				c0.04,0.771,0.657,1.385,1.428,1.421c9.028,0.425,11.499,12.718,11.522,12.843c0.138,0.711,0.76,1.217,1.473,1.217
				c0.042,0,0.084-0.002,0.126-0.005c0.765-0.064,1.357-0.693,1.375-1.46c0.193-8.509,12.191-12.777,12.313-12.819
				c0.676-0.234,1.092-0.914,0.994-1.622C214.519,38.973,213.936,38.432,213.222,38.39z M199.655,48.735
				c-1.356-3.131-3.709-6.907-7.587-8.877c2.931-1.404,6.408-3.913,8.201-8.272c1.552,3.071,4.2,6.88,8.335,8.723
				C205.597,41.948,201.682,44.714,199.655,48.735z"/>
		</g>
	</g>
	<g>
		<g>
			<path class="st1" d="M178.211,43.621c-0.689,8.179-9.212,9.47-9.212,9.47c7.318,0.344,9.142,9.944,9.142,9.944
				c0.156-6.844,9.422-10.045,9.422-10.045C180.622,52.575,178.211,43.621,178.211,43.621z"/>
		</g>
	</g>
	<g>
		<g>
			<path class="st0" d="M187.652,51.493c-5.766-0.345-7.972-8.186-7.994-8.265c-0.189-0.702-0.859-1.163-1.581-1.102
				c-0.726,0.065-1.3,0.643-1.361,1.368c-0.578,6.87-7.647,8.066-7.942,8.113c-0.763,0.116-1.313,0.791-1.273,1.561
				c0.04,0.771,0.657,1.385,1.428,1.421c6.035,0.284,7.724,8.644,7.739,8.726c0.136,0.713,0.759,1.22,1.473,1.22
				c0.041,0,0.083-0.002,0.125-0.005c0.765-0.063,1.358-0.693,1.376-1.461c0.13-5.708,8.331-8.633,8.412-8.661
				c0.676-0.234,1.093-0.913,0.996-1.622C188.951,52.077,188.366,51.535,187.652,51.493z M178.067,58.288
				c-0.924-1.886-2.34-3.947-4.446-5.28c1.855-1.041,3.697-2.629,4.87-4.916c1.058,1.874,2.654,3.954,4.941,5.224
				C181.583,54.416,179.443,56.056,178.067,58.288z"/>
		</g>
	</g>
	<g>
		<g>
			<path class="st1" d="M178.211,16.963c-0.689,8.179-9.212,9.471-9.212,9.471c7.318,0.344,9.142,9.944,9.142,9.944
				c0.156-6.845,9.422-10.046,9.422-10.046C180.622,25.917,178.211,16.963,178.211,16.963z"/>
		</g>
	</g>
	<g>
		<g>
			<path class="st0" d="M187.652,24.836c-5.766-0.346-7.972-8.187-7.994-8.266c-0.189-0.702-0.859-1.162-1.581-1.102
				c-0.726,0.065-1.3,0.643-1.361,1.368c-0.578,6.871-7.647,8.066-7.942,8.113c-0.763,0.116-1.313,0.791-1.273,1.561
				c0.04,0.771,0.657,1.385,1.428,1.421c6.035,0.284,7.724,8.645,7.739,8.727c0.136,0.713,0.759,1.22,1.473,1.22
				c0.041,0,0.083-0.002,0.125-0.005c0.765-0.063,1.358-0.693,1.376-1.461c0.13-5.708,8.331-8.633,8.412-8.661
				c0.676-0.234,1.093-0.913,0.996-1.622C188.951,25.42,188.366,24.879,187.652,24.836z M178.067,31.631
				c-0.924-1.886-2.34-3.947-4.447-5.28c1.856-1.041,3.698-2.63,4.871-4.917c1.058,1.874,2.654,3.955,4.941,5.225
				C181.583,27.759,179.444,29.398,178.067,31.631z"/>
		</g>
	</g>
	<g>
		<g>
			<polygon class="st1" points="171.578,115.65 135.768,126.39 138.418,142.48 176.238,131.13 			"/>
		</g>
	</g>
	<g>
		<g>
			<path class="st0" d="M177.675,130.697l-4.66-15.479c-0.239-0.792-1.075-1.241-1.867-1.004l-35.81,10.739
				c-0.723,0.217-1.172,0.936-1.05,1.681l2.649,16.091c0.07,0.425,0.32,0.8,0.687,1.028c0.24,0.15,0.516,0.228,0.794,0.228
				c0.144,0,0.29-0.021,0.432-0.063l37.82-11.351c0.381-0.114,0.701-0.376,0.89-0.727
				C177.748,131.49,177.789,131.079,177.675,130.697z M139.621,140.554l-2.158-13.106l33.111-9.93l3.795,12.607L139.621,140.554z"/>
		</g>
	</g>
	<g>
		<g>
			<path class="st6" d="M239.39,112.182l-4.688-15.581c-0.849-2.822-3.825-4.421-6.647-3.572l-52.91,15.921
				c-2.822,0.849-4.421,3.825-3.572,6.647l4.688,15.581c0.849,2.822,3.825,4.421,6.647,3.572l52.91-15.921
				C238.64,117.98,240.239,115.004,239.39,112.182z"/>
		</g>
	</g>
	<g>
		<g>
			<path class="st0" d="M240.826,111.749l-4.688-15.58c-0.526-1.748-1.702-3.188-3.311-4.052s-3.455-1.051-5.206-0.524
				l-52.909,15.921c-1.749,0.525-3.188,1.701-4.053,3.311c-0.864,1.608-1.05,3.457-0.525,5.206l4.689,15.58
				c0.526,1.748,1.702,3.188,3.311,4.052c1.009,0.542,2.112,0.817,3.227,0.817c0.662,0,1.327-0.097,1.979-0.293l52.91-15.921h-0.001
				c1.749-0.526,3.188-1.701,4.052-3.311C241.166,115.347,241.353,113.498,240.826,111.749z M237.659,115.535
				c-0.485,0.903-1.292,1.563-2.272,1.857h-0.001l-52.91,15.921c-0.98,0.296-2.019,0.191-2.921-0.294s-1.563-1.293-1.857-2.274
				l-4.688-15.579c-0.295-0.981-0.19-2.02,0.294-2.922c0.485-0.903,1.293-1.563,2.274-1.857l52.91-15.921
				c0.365-0.11,0.739-0.165,1.11-0.165c0.625,0,1.244,0.154,1.811,0.459c0.902,0.485,1.563,1.293,1.857,2.274l4.688,15.58
				C238.249,113.596,238.145,114.633,237.659,115.535z"/>
		</g>
	</g>
	<g>
		<g>
			<path class="st0" d="M54.426,34.439l-0.471-0.404c-2.481-2.135-3.841-4.939-3.83-7.899c0.011-2.965,1.395-5.767,3.894-7.886
				l0.077-0.064c0.634-0.533,0.716-1.479,0.183-2.113c-0.532-0.635-1.478-0.718-2.113-0.184l-0.081,0.069
				c-3.184,2.699-4.945,6.311-4.959,10.167c-0.014,3.852,1.717,7.468,4.874,10.185l0.471,0.404c2.492,2.145,3.852,4.962,3.83,7.934
				c-0.022,2.983-1.432,5.795-3.971,7.916c-0.636,0.531-0.72,1.478-0.189,2.113c0.296,0.354,0.723,0.538,1.152,0.538
				c0.339,0,0.68-0.114,0.961-0.349c3.226-2.696,5.019-6.317,5.047-10.196C59.328,40.802,57.597,37.169,54.426,34.439z"/>
		</g>
	</g>
	<g>
		<g>
			<path class="st0" d="M76.24,34.439l-0.471-0.404c-2.481-2.135-3.841-4.939-3.831-7.899c0.011-2.965,1.396-5.767,3.895-7.886
				l0.077-0.064c0.634-0.533,0.716-1.479,0.183-2.113c-0.532-0.635-1.479-0.718-2.113-0.184l-0.082,0.068
				c-3.184,2.7-4.946,6.312-4.959,10.168c-0.014,3.852,1.717,7.468,4.874,10.185l0.471,0.404c2.492,2.145,3.852,4.962,3.83,7.934
				c-0.021,2.983-1.432,5.795-3.97,7.916c-0.636,0.531-0.72,1.478-0.189,2.113c0.296,0.354,0.723,0.538,1.152,0.538
				c0.339,0,0.68-0.114,0.961-0.349c3.226-2.696,5.018-6.317,5.046-10.196C81.142,40.802,79.411,37.169,76.24,34.439z"/>
		</g>
	</g>
	<g>
		<g>
			<path class="st0" d="M96.602,34.439l-0.471-0.404c-2.481-2.135-3.841-4.939-3.831-7.898c0.011-2.965,1.396-5.768,3.894-7.887
				l0.077-0.064c0.634-0.533,0.716-1.479,0.183-2.113c-0.532-0.635-1.479-0.718-2.113-0.184l-0.081,0.069
				c-3.184,2.7-4.945,6.312-4.959,10.168c-0.014,3.851,1.717,7.467,4.874,10.184l0.471,0.404c2.492,2.145,3.852,4.962,3.83,7.934
				c-0.021,2.983-1.432,5.795-3.971,7.916c-0.636,0.531-0.72,1.478-0.189,2.113c0.296,0.354,0.723,0.538,1.152,0.538
				c0.339,0,0.68-0.114,0.961-0.349c3.226-2.696,5.019-6.317,5.047-10.196C101.504,40.802,99.773,37.169,96.602,34.439z"/>
		</g>
	</g>
	<g>
		<g>
			<path class="st0" d="M118.415,34.439l-0.471-0.404c-2.48-2.135-3.841-4.939-3.83-7.899c0.01-2.965,1.396-5.767,3.895-7.886
				l0.077-0.064c0.634-0.533,0.716-1.479,0.183-2.113c-0.532-0.635-1.479-0.718-2.113-0.184l-0.082,0.069
				c-3.184,2.699-4.945,6.311-4.959,10.167c-0.014,3.852,1.717,7.468,4.874,10.185l0.471,0.404c2.491,2.145,3.852,4.962,3.83,7.934
				c-0.022,2.983-1.432,5.795-3.971,7.916c-0.636,0.531-0.72,1.478-0.189,2.113c0.296,0.354,0.723,0.538,1.152,0.538
				c0.339,0,0.68-0.114,0.961-0.349c3.226-2.696,5.018-6.317,5.047-10.197C123.317,40.802,121.587,37.169,118.415,34.439z"/>
		</g>
	</g>
	<g>
		<g>
			<path class="st7" d="M150.783,217.331L131.237,98.968H36.182l-3.573,21.641l-2.352,14.243l-13.62,82.48
				c-1.877,11.369,6.893,21.706,18.415,21.706h97.316C143.89,239.037,152.66,228.7,150.783,217.331z"/>
		</g>
	</g>
	<g>
		<g>
			<path class="st0" d="M152.263,217.087L132.717,98.724c-0.119-0.725-0.745-1.256-1.479-1.256H36.182
				c-0.734,0-1.36,0.531-1.48,1.256l-3.574,21.641c-0.135,0.817,0.419,1.589,1.235,1.724c0.817,0.131,1.589-0.418,1.725-1.235
				l3.366-20.385h92.51l19.339,117.107c0.822,4.983-0.58,10.051-3.848,13.902c-3.268,3.851-8.038,6.06-13.088,6.06H35.051
				c-5.051,0-9.821-2.209-13.088-6.06c-3.268-3.852-4.669-8.919-3.847-13.902l13.62-82.479c0.135-0.817-0.418-1.589-1.235-1.724
				c-0.817-0.138-1.59,0.418-1.725,1.235l-13.62,82.479c-0.967,5.854,0.68,11.807,4.519,16.331
				c3.838,4.524,9.442,7.119,15.376,7.119h97.317c5.933,0,11.537-2.595,15.375-7.119
				C151.582,228.894,153.229,222.941,152.263,217.087z"/>
		</g>
	</g>
	<g>
		<g>
			<path class="st3" d="M143.281,73.296H24.138c-4.273,0-6.526,5.062-3.665,8.236l15.709,17.435h95.055l15.709-17.435
				C149.806,78.358,147.554,73.296,143.281,73.296z"/>
		</g>
	</g>
	<g>
		<g>
			<path class="st0" d="M149.159,75.615c-1.048-2.355-3.3-3.818-5.878-3.818H72.161c-0.829,0-1.5,0.672-1.5,1.5s0.671,1.5,1.5,1.5
				h71.121c1.396,0,2.569,0.762,3.137,2.038c0.568,1.275,0.349,2.656-0.586,3.693l-15.263,16.939H36.85L21.587,80.528
				c-0.935-1.037-1.154-2.418-0.586-3.694c0.568-1.275,1.741-2.037,3.137-2.037h33.978c0.829,0,1.5-0.672,1.5-1.5
				s-0.671-1.5-1.5-1.5H24.138c-2.578,0-4.83,1.463-5.878,3.817c-1.048,2.355-0.628,5.008,1.098,6.922l15.709,17.436
				c0.284,0.315,0.689,0.496,1.114,0.496h95.055c0.425,0,0.83-0.181,1.114-0.496l15.709-17.436
				C149.786,80.622,150.207,77.97,149.159,75.615z"/>
		</g>
	</g>
	<g>
		<g>
			
				<ellipse transform="matrix(0.0985 -0.9951 0.9951 0.0985 -94.5717 237.3295)" class="st2" cx="83.709" cy="170.864" rx="43.787" ry="43.787"/>
		</g>
	</g>
	<g>
		<g>
			<path class="st0" d="M83.709,125.577c-24.971,0-45.287,20.315-45.287,45.287c0,24.971,20.315,45.286,45.287,45.286
				s45.287-20.315,45.287-45.286C128.996,145.893,108.681,125.577,83.709,125.577z M83.709,213.15
				c-23.317,0-42.287-18.97-42.287-42.286c0-23.317,18.97-42.287,42.287-42.287s42.287,18.97,42.287,42.287
				C125.996,194.181,107.026,213.15,83.709,213.15z"/>
		</g>
	</g>
	<g>
		<g>
			<ellipse class="st6" cx="83.71" cy="170.976" rx="17.488" ry="27.747"/>
		</g>
	</g>
	<g>
		<g>
			<path class="st0" d="M83.709,141.729c-10.47,0-18.988,13.121-18.988,29.248s8.518,29.247,18.988,29.247
				c10.47,0,18.988-13.12,18.988-29.247S94.179,141.729,83.709,141.729z M83.709,197.224c-8.816,0-15.988-11.774-15.988-26.247
				c0-14.474,7.172-26.248,15.988-26.248s15.988,11.774,15.988,26.248C99.697,185.449,92.525,197.224,83.709,197.224z"/>
		</g>
	</g>
	<g>
		<g>
			<path class="st0" d="M85.174,170.188l-0.711-0.611c-3.919-3.373-6.069-7.817-6.052-12.515c0.017-4.706,2.205-9.146,6.161-12.5
				l0.115-0.098c0.632-0.536,0.71-1.482,0.175-2.114c-0.536-0.632-1.482-0.709-2.114-0.175l-0.116,0.099
				c-4.636,3.931-7.201,9.18-7.221,14.777c-0.021,5.589,2.5,10.845,7.096,14.8l0.711,0.611c3.937,3.388,6.085,7.852,6.051,12.569
				c-0.034,4.735-2.262,9.189-6.272,12.54c-0.636,0.531-0.72,1.478-0.189,2.113c0.296,0.354,0.723,0.538,1.152,0.538
				c0.339,0,0.68-0.114,0.961-0.349c4.698-3.926,7.308-9.189,7.348-14.821C92.31,179.44,89.791,174.161,85.174,170.188z"/>
		</g>
	</g>
	<g>
		<g>
			<path class="st10" d="M149.308,217.58l-19.34-117.11h-12.07l9.91,60.07c0.45,1.92,0.78,3.89,0.98,5.89l8.44,51.15
				c0.83,4.98-0.58,10.05-3.84,13.9c-3.27,3.85-8.04,6.06-13.09,6.06h12.07c5.05,0,9.82-2.21,13.09-6.06
				C148.718,227.63,150.128,222.56,149.308,217.58z"/>
		</g>
	</g>
	<g>
		<g>
			<path class="st8" d="M146.418,76.83c-0.57-1.27-1.74-2.03-3.14-2.03h-12.07c1.4,0,2.57,0.76,3.14,2.03
				c0.57,1.28,0.35,2.66-0.59,3.7l-15.26,16.94h12.07l15.26-16.94C146.768,79.49,146.988,78.11,146.418,76.83z"/>
		</g>
	</g>
</g>
</svg>
