<?xml version="1.0" encoding="utf-8"?>
<!-- Generator: Adobe Illustrator 22.0.1, SVG Export Plug-In . SVG Version: 6.00 Build 0)  -->
<svg version="1.1" id="Layer_2" xmlns="http://www.w3.org/2000/svg" xmlns:xlink="http://www.w3.org/1999/xlink" x="0px" y="0px"
	 viewBox="0 0 256 256" style="enable-background:new 0 0 256 256;" xml:space="preserve">
<style type="text/css">
	.st0{fill:#3A312A;}
	.st1{fill:#D7E057;}
	.st2{fill:#FCE8CB;}
	.st3{fill:#8AC6DD;}
	.st4{fill-rule:evenodd;clip-rule:evenodd;fill:#FCE8CB;}
	.st5{fill:#F5978A;}
	.st6{fill:#87796F;}
	.st7{fill:#F16C7A;}
	.st8{fill:#68A8BC;}
	.st9{fill:#B9BC39;}
	.st10{fill:#CE4E61;}
	.st11{fill:#6B5B51;}
	.st12{fill:#CCAE8B;}
	.st13{fill-rule:evenodd;clip-rule:evenodd;fill:#F16C7A;}
</style>
<g>
	<g>
		<g>
			<path class="st1" d="M193.167,16.433H62.728c-4.228,0-7.656,3.427-7.656,7.655c0,4.228,3.427,7.656,7.656,7.656h130.439
				c4.228,0,7.655-3.427,7.655-7.656C200.823,19.86,197.395,16.433,193.167,16.433z"/>
		</g>
	</g>
	<g>
		<g>
			<path class="st0" d="M193.167,14.933h-88.54c-0.829,0-1.5,0.672-1.5,1.5s0.671,1.5,1.5,1.5h88.54
				c3.395,0,6.156,2.762,6.156,6.155c0,3.395-2.762,6.156-6.156,6.156H62.728c-3.394,0-6.156-2.762-6.156-6.156
				c0-3.394,2.761-6.155,6.156-6.155h27.873c0.829,0,1.5-0.672,1.5-1.5s-0.671-1.5-1.5-1.5H62.728c-5.048,0-9.156,4.107-9.156,9.155
				c0,5.049,4.107,9.156,9.156,9.156h130.439c5.049,0,9.156-4.107,9.156-9.156C202.323,19.04,198.216,14.933,193.167,14.933z"/>
		</g>
	</g>
	<g>
		<g>
			<path class="st6" d="M237.208,18.677c-1.35-1.38-3.19-2.24-5.25-2.24h-38.79c4.23,0,7.66,3.42,7.66,7.65
				c0,2.12-0.86,4.03-2.24,5.42c-1.3,1.29-3.06,2.13-5.03,2.23h38.4c4.09,0,7.43-3.42,7.43-7.65
				C239.388,21.967,238.558,20.067,237.208,18.677z"/>
		</g>
	</g>
	<g>
		<g>
			<path class="st0" d="M238.28,17.628c-1.698-1.735-3.943-2.69-6.322-2.69h-38.79c-0.828,0-1.5,0.672-1.5,1.5s0.672,1.5,1.5,1.5
				c3.396,0,6.16,2.759,6.16,6.149c0,1.642-0.641,3.191-1.797,4.355c-1.09,1.081-2.527,1.719-4.05,1.797
				c-0.813,0.041-1.444,0.723-1.424,1.536c0.021,0.813,0.687,1.462,1.5,1.462h38.4c4.924,0,8.93-4.104,8.93-9.15
				C240.888,21.653,239.963,19.36,238.28,17.628z M231.958,30.237h-31.997c1.53-1.694,2.367-3.861,2.367-6.15
				c0-2.365-0.903-4.523-2.383-6.149h32.013c1.565,0,3.049,0.635,4.174,1.784c1.133,1.166,1.756,2.716,1.756,4.365
				C237.888,27.479,235.228,30.237,231.958,30.237z"/>
		</g>
	</g>
	<g>
		<g>
			<path class="st1" d="M47.253,61.805c-0.974,11.564-13.024,13.39-13.024,13.39c10.347,0.487,12.925,14.059,12.925,14.059
				c0.221-9.677,13.321-14.202,13.321-14.202C50.661,74.465,47.253,61.805,47.253,61.805z"/>
		</g>
	</g>
	<g>
		<g>
			<path class="st0" d="M60.564,73.555C51.96,73.04,48.733,61.53,48.701,61.414c-0.191-0.703-0.863-1.159-1.583-1.102
				c-0.725,0.066-1.298,0.642-1.359,1.367c-0.86,10.215-11.314,11.964-11.755,12.032c-0.763,0.116-1.314,0.791-1.273,1.561
				c0.04,0.771,0.657,1.385,1.428,1.421c9.028,0.425,11.498,12.718,11.522,12.843c0.137,0.711,0.759,1.217,1.472,1.217
				c0.042,0,0.084-0.002,0.126-0.005c0.764-0.064,1.357-0.693,1.375-1.46c0.195-8.509,12.192-12.777,12.313-12.819
				c0.675-0.234,1.092-0.914,0.994-1.622C61.862,74.138,61.278,73.597,60.564,73.555z M46.998,83.9
				c-1.356-3.131-3.708-6.907-7.587-8.876c2.931-1.405,6.409-3.914,8.202-8.273c1.551,3.071,4.199,6.88,8.334,8.723
				C52.94,77.113,49.025,79.879,46.998,83.9z"/>
		</g>
	</g>
	<g>
		<g>
			<path class="st1" d="M25.555,78.786c-0.689,8.179-9.212,9.47-9.212,9.47c7.318,0.344,9.142,9.944,9.142,9.944
				c0.156-6.844,9.422-10.045,9.422-10.045C27.965,87.74,25.555,78.786,25.555,78.786z"/>
		</g>
	</g>
	<g>
		<g>
			<path class="st0" d="M34.996,86.658c-5.766-0.345-7.972-8.186-7.993-8.265c-0.19-0.702-0.854-1.17-1.582-1.102
				c-0.726,0.065-1.299,0.643-1.36,1.368c-0.579,6.87-7.647,8.066-7.942,8.113c-0.763,0.116-1.313,0.791-1.273,1.561
				c0.04,0.771,0.657,1.385,1.428,1.421c6.035,0.284,7.723,8.645,7.739,8.727c0.135,0.713,0.759,1.22,1.472,1.22
				c0.042,0,0.083-0.002,0.125-0.005c0.765-0.063,1.358-0.693,1.376-1.461c0.13-5.709,8.331-8.634,8.412-8.662
				c0.677-0.234,1.094-0.913,0.996-1.622C36.295,87.242,35.71,86.7,34.996,86.658z M25.412,93.453
				c-0.924-1.886-2.34-3.947-4.447-5.28c1.855-1.041,3.697-2.629,4.871-4.916c1.057,1.874,2.654,3.954,4.941,5.224
				C28.926,89.581,26.788,91.221,25.412,93.453z"/>
		</g>
	</g>
	<g>
		<g>
			<path class="st1" d="M25.555,52.128c-0.689,8.179-9.212,9.471-9.212,9.471c7.318,0.344,9.142,9.944,9.142,9.944
				c0.156-6.844,9.422-10.045,9.422-10.045C27.965,61.083,25.555,52.128,25.555,52.128z"/>
		</g>
	</g>
	<g>
		<g>
			<path class="st0" d="M34.996,60.001c-5.766-0.346-7.972-8.186-7.994-8.265c-0.191-0.702-0.854-1.156-1.582-1.102
				c-0.726,0.065-1.299,0.643-1.36,1.368c-0.579,6.87-7.646,8.065-7.942,8.112c-0.763,0.116-1.313,0.791-1.273,1.561
				c0.04,0.771,0.657,1.385,1.427,1.421c6.035,0.284,7.724,8.645,7.739,8.727c0.135,0.713,0.759,1.22,1.472,1.22
				c0.042,0,0.083-0.002,0.125-0.005c0.765-0.063,1.358-0.693,1.376-1.461c0.13-5.708,8.331-8.633,8.412-8.661
				c0.676-0.234,1.094-0.913,0.996-1.622C36.295,60.585,35.71,60.044,34.996,60.001z M25.412,66.796
				c-0.924-1.886-2.34-3.947-4.447-5.28c1.856-1.041,3.697-2.63,4.871-4.916c1.057,1.874,2.654,3.954,4.941,5.224
				C28.927,62.924,26.788,64.563,25.412,66.796z"/>
		</g>
	</g>
	<g>
		<g>
			<path class="st7" d="M196.168,125.257c-2.14,0-4.25,0.16-6.31,0.46l-2.32,14.83c2.73-0.84,5.63-1.29,8.63-1.29
				c16.26,0,29.49,13.23,29.49,29.5c0,16.26-13.23,29.49-29.49,29.49c-6.24,0-12.04-1.95-16.81-5.29l-2.32,14.84
				c5.78,2.85,12.27,4.45,19.13,4.45c23.98,0,43.49-19.51,43.49-43.49C239.658,144.767,220.148,125.257,196.168,125.257z"/>
		</g>
	</g>
	<g>
		<g>
			<path class="st0" d="M196.168,123.757c-2.162,0-4.357,0.16-6.526,0.476c-0.651,0.095-1.164,0.603-1.267,1.253l-2.319,14.83
				c-0.079,0.511,0.109,1.026,0.5,1.365s0.928,0.452,1.424,0.3c2.639-0.812,5.394-1.224,8.188-1.224c15.434,0,27.99,12.561,27.99,28
				c0,15.434-12.557,27.99-27.99,27.99c-5.745,0-11.261-1.735-15.95-5.019c-0.424-0.297-0.97-0.354-1.448-0.151
				c-0.476,0.202-0.814,0.637-0.895,1.148l-2.319,14.84c-0.101,0.648,0.23,1.287,0.819,1.577c6.198,3.056,12.857,4.604,19.793,4.604
				c24.808,0,44.99-20.183,44.99-44.99C241.158,143.943,220.976,123.757,196.168,123.757z M196.168,210.747
				c-6.104,0-11.977-1.285-17.476-3.822l1.791-11.458c4.739,2.807,10.115,4.28,15.685,4.28c17.088,0,30.99-13.902,30.99-30.99
				c0-17.094-13.902-31-30.99-31c-2.299,0-4.575,0.252-6.793,0.751l1.791-11.451c1.669-0.199,3.347-0.3,5.002-0.3
				c23.153,0,41.99,18.841,41.99,42C238.158,191.91,219.321,210.747,196.168,210.747z"/>
		</g>
	</g>
	<g>
		<g>
			<polygon class="st1" points="63.788,31.747 82.488,64.127 99.558,93.697 156.338,93.697 173.408,64.127 192.108,31.747 			"/>
		</g>
	</g>
	<g>
		<g>
			<path class="st0" d="M193.406,30.997c-0.268-0.464-0.763-0.75-1.299-0.75H63.788c-0.536,0-1.031,0.286-1.299,0.75
				c-0.268,0.464-0.268,1.036,0,1.5l35.77,61.95c0.268,0.464,0.763,0.75,1.299,0.75h56.78c0.536,0,1.031-0.286,1.299-0.75
				l35.77-61.95C193.675,32.033,193.675,31.461,193.406,30.997z M155.472,92.197h-55.047l-34.038-58.95h123.122L155.472,92.197z"/>
		</g>
	</g>
	<g>
		<g>
			<polygon class="st6" points="82.488,64.127 99.558,93.697 156.338,93.697 173.408,64.127 			"/>
		</g>
	</g>
	<g>
		<g>
			<path class="st0" d="M174.707,63.377c-0.268-0.464-0.763-0.75-1.299-0.75h-90.92c-0.536,0-1.031,0.286-1.299,0.75
				c-0.268,0.464-0.268,1.036-0.001,1.5l17.07,29.57c0.268,0.464,0.763,0.75,1.299,0.75h56.78c0.536,0,1.031-0.286,1.299-0.75
				l17.07-29.57C174.976,64.413,174.976,63.841,174.707,63.377z M155.472,92.197h-55.047l-15.338-26.57h85.725L155.472,92.197z"/>
		</g>
	</g>
	<g>
		<g>
			<path class="st1" d="M193.167,93.694H62.728c-4.228,0-7.656,3.427-7.656,7.656s3.427,7.656,7.656,7.656h130.439
				c4.228,0,7.655-3.428,7.655-7.656S197.395,93.694,193.167,93.694z"/>
		</g>
	</g>
	<g>
		<g>
			<path class="st0" d="M193.167,92.193H62.728c-5.048,0-9.156,4.107-9.156,9.155c0,5.049,4.107,9.156,9.156,9.156h130.439
				c5.049,0,9.156-4.107,9.156-9.156C202.323,96.301,198.216,92.193,193.167,92.193z M193.167,107.505H62.728
				c-3.394,0-6.156-2.762-6.156-6.156c0-3.394,2.761-6.155,6.156-6.155h130.439c3.395,0,6.156,2.762,6.156,6.155
				C199.323,104.743,196.562,107.505,193.167,107.505z"/>
		</g>
	</g>
	<g>
		<g>
			<path class="st3" d="M63.791,109.005l6.938,45.332l2.198,14.364l8.334,54.455c0.691,9.255,8.402,16.412,17.683,16.412h58.009
				c9.281,0,16.992-7.157,17.682-16.412l17.831-114.151H63.791z"/>
		</g>
	</g>
	<g>
		<g>
			<path class="st0" d="M193.605,108.029c-0.285-0.333-0.701-0.524-1.14-0.524H63.792c-0.438,0-0.853,0.191-1.138,0.522
				c-0.285,0.332-0.411,0.772-0.345,1.204l6.938,45.332c0.125,0.818,0.889,1.373,1.71,1.256c0.819-0.125,1.381-0.891,1.256-1.709
				l-6.673-43.605h125.174l-17.561,112.419c-0.006,0.04-0.011,0.08-0.014,0.12c-0.628,8.424-7.738,15.023-16.187,15.023H98.943
				c-8.448,0-15.558-6.6-16.187-15.023c-0.002-0.039-0.007-0.077-0.013-0.115l-8.333-54.454c-0.125-0.819-0.895-1.38-1.71-1.256
				c-0.819,0.125-1.381,0.891-1.256,1.709l8.325,54.398c0.774,9.953,9.184,17.741,19.174,17.741h58.009
				c9.989,0,18.399-7.787,19.174-17.739l17.822-114.092C194.016,108.804,193.891,108.362,193.605,108.029z"/>
		</g>
	</g>
	<g>
		<g>
			<polygon class="st9" points="176.508,33.247 159.548,62.627 172.548,62.627 189.508,33.247 			"/>
		</g>
	</g>
	<g>
		<g>
			<polygon class="st11" points="157.808,65.627 142.478,92.197 155.478,92.197 170.808,65.627 			"/>
		</g>
	</g>
	<g>
		<g>
			<path class="st9" d="M193.168,17.937h-13c3.4,0,6.16,2.76,6.16,6.15c0,1.64-0.64,3.19-1.8,4.36c-1.09,1.08-2.52,1.71-4.09,1.79
				c-0.09,0.01-0.18,0.01-0.27,0.01h13c0.09,0,0.18,0,0.27-0.01c1.57-0.08,3-0.71,4.09-1.79c1.16-1.17,1.8-2.72,1.8-4.36
				C199.328,20.697,196.568,17.937,193.168,17.937z"/>
		</g>
	</g>
	<g>
		<g>
			<path class="st9" d="M193.168,95.197h-13c3.39,0,6.16,2.76,6.16,6.15c0,3.4-2.77,6.16-6.16,6.16h13c3.39,0,6.16-2.76,6.16-6.16
				C199.328,97.957,196.558,95.197,193.168,95.197z"/>
		</g>
	</g>
	<g>
		<g>
			<path class="st8" d="M177.708,110.507l-17.55,112.42c-0.01,0.04-0.02,0.08-0.02,0.12c-0.63,8.42-7.74,15.02-16.19,15.02h13
				c8.45,0,15.56-6.6,16.19-15.02c0-0.04,0.01-0.08,0.02-0.12l17.55-112.42H177.708z"/>
		</g>
	</g>
</g>
</svg>
