<svg fill="#000000" xmlns="http://www.w3.org/2000/svg"  viewBox="0 0 48 48" width="24px" height="24px"><path d="M 12.429688 4 C 10.55318 4 9 5.5531809 9 7.4296875 L 9 12.570312 C 9 13.584444 9.4626312 14.493864 10.175781 15.125 C 9.442808 16.059769 9 17.230031 9 18.5 L 9 38.5 C 9 41.519774 11.480226 44 14.5 44 L 33.5 44 C 36.519774 44 39 41.519774 39 38.5 L 39 18.5 C 39 17.230031 38.557192 16.059769 37.824219 15.125 C 38.537369 14.493864 39 13.584444 39 12.570312 L 39 7.4296875 C 39 5.5531809 37.446819 4 35.570312 4 L 12.429688 4 z M 12.429688 7 L 15.5 7 L 15.5 10 L 18.5 10 L 18.5 7 L 22.5 7 L 22.5 10 L 25.5 10 L 25.5 7 L 29.5 7 L 29.5 10 L 32.5 10 L 32.5 7 L 35.570312 7 C 35.825806 7 36 7.1741941 36 7.4296875 L 36 12.570312 C 36 12.825807 35.825806 13 35.570312 13 L 12.429688 13 C 12.174193 13 12 12.825806 12 12.570312 L 12 7.4296875 C 12 7.1741941 12.174194 7 12.429688 7 z M 14.5 16 L 33.5 16 C 34.898226 16 36 17.101774 36 18.5 L 36 38.5 C 36 39.898226 34.898226 41 33.5 41 L 14.5 41 C 13.101774 41 12 39.898226 12 38.5 L 12 18.5 C 12 17.101774 13.101774 16 14.5 16 z M 26.787109 20.390625 A 1.50015 1.50015 0 0 0 26.158203 23.212891 C 26.158203 23.212891 26.210331 23.288102 26.212891 23.294922 C 26.215391 23.301722 26.440195 23.387712 25.560547 24.271484 L 25.556641 24.275391 C 25.556641 24.275391 25.556641 24.277344 25.556641 24.277344 A 1.50015 1.50015 0 0 0 25.546875 24.287109 C 25.546875 24.287109 25.544922 24.287109 25.544922 24.287109 C 23.760238 23.302689 21.553328 23.329485 20.078125 24.804688 C 18.771381 26.111431 17.987708 28.098782 17.333984 29.962891 C 17.007122 30.894945 16.751155 31.774161 16.589844 32.496094 C 16.509184 32.85706 16.45108 33.172399 16.423828 33.488281 C 16.410198 33.646222 16.400585 33.799479 16.421875 34.013672 C 16.443215 34.227865 16.397825 34.559934 16.896484 35.058594 C 17.368155 35.530265 17.717687 35.513677 17.943359 35.537109 C 18.169031 35.560539 18.33216 35.548733 18.498047 35.533203 C 18.829821 35.502133 19.157925 35.438343 19.529297 35.349609 C 20.272041 35.172142 21.166903 34.892907 22.105469 34.550781 C 23.982599 33.86653 25.902076 33.123315 27.150391 31.875 C 28.624354 30.399778 28.650273 28.192833 27.666016 26.408203 A 1.50015 1.50015 0 0 0 27.675781 26.400391 A 1.50015 1.50015 0 0 0 27.677734 26.398438 L 27.679688 26.396484 L 27.802734 26.273438 C 28.243642 25.837708 28.513446 25.699817 28.644531 25.646484 A 1.50015 1.50015 0 0 0 31.384766 24.433594 C 31.384766 24.433594 31.107092 23.940232 30.626953 23.447266 L 31.103516 22.970703 A 1.50015 1.50015 0 0 0 30.013672 20.396484 A 1.50015 1.50015 0 0 0 28.982422 20.849609 L 28.441406 21.390625 C 28.039598 20.920669 27.646484 20.609375 27.646484 20.609375 A 1.50015 1.50015 0 0 0 26.787109 20.390625 z M 22.972656 26.585938 C 23.07681 26.575711 23.185321 26.575456 23.296875 26.585938 C 23.743093 26.627858 24.235772 26.841241 24.673828 27.279297 C 25.549681 28.15515 25.530397 29.250424 25.027344 29.753906 C 24.717489 30.063055 22.775573 31.113668 21.078125 31.732422 C 20.602752 31.905705 20.240006 31.996047 19.820312 32.123047 C 19.934213 31.729515 20.010231 31.3993 20.166016 30.955078 C 20.751542 29.285437 21.737963 27.387037 22.199219 26.925781 C 22.388033 26.736967 22.660196 26.616618 22.972656 26.585938 z"/></svg>