<?xml version="1.0" encoding="utf-8"?>
<!-- Generator: Adobe Illustrator 22.0.1, SVG Export Plug-In . SVG Version: 6.00 Build 0)  -->
<svg version="1.1" id="Layer_2" xmlns="http://www.w3.org/2000/svg" xmlns:xlink="http://www.w3.org/1999/xlink" x="0px" y="0px"
	 viewBox="0 0 256 256" style="enable-background:new 0 0 256 256;" xml:space="preserve">
<style type="text/css">
	.st0{fill:#3A312A;}
	.st1{fill:#D7E057;}
	.st2{fill:#FCE8CB;}
	.st3{fill:#8AC6DD;}
	.st4{fill-rule:evenodd;clip-rule:evenodd;fill:#FCE8CB;}
	.st5{fill:#F5978A;}
	.st6{fill:#87796F;}
	.st7{fill:#F16C7A;}
	.st8{fill:#68A8BC;}
	.st9{fill:#B9BC39;}
	.st10{fill:#CE4E61;}
	.st11{fill:#6B5B51;}
	.st12{fill:#CCAE8B;}
	.st13{fill-rule:evenodd;clip-rule:evenodd;fill:#F16C7A;}
</style>
<g>
	<g>
		<g>
			<path class="st7" d="M51.292,222.64v9.059c0,4.275,3.466,7.741,7.741,7.741h137.935c4.275,0,7.741-3.466,7.741-7.741v-9.059
				H51.292z"/>
		</g>
	</g>
	<g>
		<g>
			<path class="st0" d="M204.708,221.14H51.292c-0.829,0-1.5,0.671-1.5,1.5v9.059c0,5.096,4.146,9.241,9.241,9.241h137.935
				c5.096,0,9.241-4.146,9.241-9.241v-9.059C206.208,221.812,205.537,221.14,204.708,221.14z M203.208,231.699
				c0,3.441-2.8,6.241-6.241,6.241H59.033c-3.441,0-6.241-2.8-6.241-6.241v-7.559h150.417V231.699z"/>
		</g>
	</g>
	<g>
		<g>
			<path class="st1" d="M205.528,16.56H50.473c-6.794,0-12.301,5.507-12.301,12.301v181.478c0,6.794,5.507,12.301,12.301,12.301
				h155.055c6.794,0,12.301-5.507,12.301-12.301V28.861C217.829,22.067,212.321,16.56,205.528,16.56z"/>
		</g>
	</g>
	<g>
		<g>
			<path class="st0" d="M205.527,15.06H50.473c-7.61,0-13.801,6.191-13.801,13.801v68.345c0,0.829,0.671,1.5,1.5,1.5
				s1.5-0.671,1.5-1.5V28.861c0-5.956,4.845-10.801,10.801-10.801h155.055c5.956,0,10.801,4.845,10.801,10.801v181.478
				c0,5.956-4.845,10.801-10.801,10.801H50.473c-5.956,0-10.801-4.845-10.801-10.801v-97.544c0-0.829-0.671-1.5-1.5-1.5
				s-1.5,0.671-1.5,1.5v97.544c0,7.61,6.191,13.801,13.801,13.801h155.055c7.61,0,13.801-6.191,13.801-13.801V28.861
				C219.329,21.251,213.137,15.06,205.527,15.06z"/>
		</g>
	</g>
	<g>
		<g>
			<path class="st3" d="M156.75,33H58.58c-2.347,0-4.25,1.903-4.25,4.25v116.96c0,2.347,1.903,4.25,4.25,4.25h98.17
				c2.347,0,4.25-1.903,4.25-4.25V37.25C161,34.903,159.097,33,156.75,33z"/>
		</g>
	</g>
	<g>
		<g>
			<path class="st0" d="M156.75,31.5H58.58c-3.17,0-5.75,2.58-5.75,5.75v116.96c0,3.17,2.58,5.75,5.75,5.75h98.17
				c3.17,0,5.75-2.58,5.75-5.75V37.25C162.5,34.08,159.92,31.5,156.75,31.5z M159.5,154.21c0,1.517-1.233,2.75-2.75,2.75H58.58
				c-1.517,0-2.75-1.233-2.75-2.75V37.25c0-1.517,1.233-2.75,2.75-2.75h98.17c1.517,0,2.75,1.233,2.75,2.75V154.21z"/>
		</g>
	</g>
	<g>
		<g>
			<path class="st6" d="M156.75,175.667h-23.109h-14.614H58.583c-2.347,0-4.25,1.903-4.25,4.25v21.833c0,2.347,1.903,4.25,4.25,4.25
				h98.167c2.347,0,4.25-1.903,4.25-4.25v-21.833C161,177.569,159.097,175.667,156.75,175.667z"/>
		</g>
	</g>
	<g>
		<g>
			<path class="st0" d="M156.75,174.167h-23.108c-0.829,0-1.5,0.671-1.5,1.5s0.671,1.5,1.5,1.5h23.108c1.517,0,2.75,1.233,2.75,2.75
				v21.833c0,1.517-1.233,2.75-2.75,2.75H58.583c-1.516,0-2.75-1.233-2.75-2.75v-21.833c0-1.517,1.234-2.75,2.75-2.75h60.444
				c0.829,0,1.5-0.671,1.5-1.5s-0.671-1.5-1.5-1.5H58.583c-3.17,0-5.75,2.58-5.75,5.75v21.833c0,3.17,2.58,5.75,5.75,5.75h98.167
				c3.17,0,5.75-2.58,5.75-5.75v-21.833C162.5,176.746,159.92,174.167,156.75,174.167z"/>
		</g>
	</g>
	<g>
		<g>
			<path class="st6" d="M189.667,175.667c-2.762,0-5,2.239-5,5V201c0,2.761,2.238,5,5,5c2.761,0,5-2.239,5-5v-20.333
				C194.667,177.905,192.428,175.667,189.667,175.667z"/>
		</g>
	</g>
	<g>
		<g>
			<path class="st0" d="M189.667,174.167c-3.584,0-6.5,2.916-6.5,6.5V201c0,3.584,2.916,6.5,6.5,6.5s6.5-2.916,6.5-6.5v-20.333
				C196.167,177.083,193.251,174.167,189.667,174.167z M193.167,201c0,1.93-1.57,3.5-3.5,3.5s-3.5-1.57-3.5-3.5v-20.333
				c0-1.93,1.57-3.5,3.5-3.5s3.5,1.57,3.5,3.5V201z"/>
		</g>
	</g>
	<g>
		<g>
			<path class="st6" d="M196.601,33H181.64c-2.347,0-4.25,1.903-4.25,4.25v14.961c0,2.347,1.903,4.25,4.25,4.25h14.961
				c2.347,0,4.25-1.903,4.25-4.25V37.25C200.851,34.903,198.949,33,196.601,33z"/>
		</g>
	</g>
	<g>
		<g>
			<path class="st0" d="M196.602,31.5H181.64c-3.17,0-5.75,2.58-5.75,5.75v14.961c0,3.17,2.58,5.75,5.75,5.75h14.961
				c3.17,0,5.75-2.58,5.75-5.75V37.25C202.352,34.08,199.772,31.5,196.602,31.5z M199.352,52.211c0,1.516-1.234,2.75-2.75,2.75
				H181.64c-1.516,0-2.75-1.234-2.75-2.75V37.25c0-1.516,1.234-2.75,2.75-2.75h14.961c1.516,0,2.75,1.234,2.75,2.75V52.211z"/>
		</g>
	</g>
	<g>
		<g>
			<path class="st7" d="M196.601,67H181.64c-2.347,0-4.25,1.903-4.25,4.25v14.961c0,2.347,1.903,4.25,4.25,4.25h14.961
				c2.347,0,4.25-1.903,4.25-4.25V71.25C200.851,68.903,198.949,67,196.601,67z"/>
		</g>
	</g>
	<g>
		<g>
			<path class="st0" d="M196.602,65.5H181.64c-3.17,0-5.75,2.58-5.75,5.75v14.961c0,3.17,2.58,5.75,5.75,5.75h14.961
				c3.17,0,5.75-2.58,5.75-5.75V71.25C202.352,68.08,199.772,65.5,196.602,65.5z M199.352,86.211c0,1.516-1.234,2.75-2.75,2.75
				H181.64c-1.516,0-2.75-1.234-2.75-2.75V71.25c0-1.516,1.234-2.75,2.75-2.75h14.961c1.516,0,2.75,1.234,2.75,2.75V86.211z"/>
		</g>
	</g>
	<g>
		<g>
			<path class="st2" d="M196.601,101H181.64c-2.347,0-4.25,1.903-4.25,4.25v14.961c0,2.347,1.903,4.25,4.25,4.25h14.961
				c2.347,0,4.25-1.903,4.25-4.25V105.25C200.851,102.903,198.949,101,196.601,101z"/>
		</g>
	</g>
	<g>
		<g>
			<path class="st0" d="M196.602,99.5H181.64c-3.17,0-5.75,2.58-5.75,5.75v14.961c0,3.17,2.58,5.75,5.75,5.75h14.961
				c3.17,0,5.75-2.58,5.75-5.75V105.25C202.352,102.08,199.772,99.5,196.602,99.5z M199.352,120.211c0,1.516-1.234,2.75-2.75,2.75
				H181.64c-1.516,0-2.75-1.234-2.75-2.75V105.25c0-1.516,1.234-2.75,2.75-2.75h14.961c1.516,0,2.75,1.234,2.75,2.75V120.211z"/>
		</g>
	</g>
	<g>
		<g>
			<path class="st3" d="M196.601,135H181.64c-2.347,0-4.25,1.903-4.25,4.25v14.961c0,2.347,1.903,4.25,4.25,4.25h14.961
				c2.347,0,4.25-1.903,4.25-4.25V139.25C200.851,136.903,198.949,135,196.601,135z"/>
		</g>
	</g>
	<g>
		<g>
			<path class="st0" d="M196.602,133.5H181.64c-3.17,0-5.75,2.58-5.75,5.75v14.961c0,3.17,2.58,5.75,5.75,5.75h14.961
				c3.17,0,5.75-2.58,5.75-5.75V139.25C202.352,136.08,199.772,133.5,196.602,133.5z M199.352,154.211c0,1.516-1.234,2.75-2.75,2.75
				H181.64c-1.516,0-2.75-1.234-2.75-2.75V139.25c0-1.516,1.234-2.75,2.75-2.75h14.961c1.516,0,2.75,1.234,2.75,2.75V154.211z"/>
		</g>
	</g>
	<g>
		<g>
			<path class="st0" d="M161,61.826H54.33c-0.829,0-1.5,0.671-1.5,1.5s0.671,1.5,1.5,1.5H161c0.829,0,1.5-0.671,1.5-1.5
				S161.829,61.826,161,61.826z"/>
		</g>
	</g>
	<g>
		<g>
			<path class="st0" d="M161,93.551H54.33c-0.829,0-1.5,0.671-1.5,1.5s0.671,1.5,1.5,1.5H161c0.829,0,1.5-0.671,1.5-1.5
				S161.829,93.551,161,93.551z"/>
		</g>
	</g>
	<g>
		<g>
			<path class="st0" d="M161,125.275H54.33c-0.829,0-1.5,0.671-1.5,1.5s0.671,1.5,1.5,1.5H161c0.829,0,1.5-0.671,1.5-1.5
				S161.829,125.275,161,125.275z"/>
		</g>
	</g>
	<g>
		<g>
			<rect x="68" y="44.684" class="st7" width="10.002" height="18.643"/>
		</g>
	</g>
	<g>
		<g>
			<path class="st0" d="M78.002,43.184H68c-0.829,0-1.5,0.671-1.5,1.5v18.643c0,0.829,0.671,1.5,1.5,1.5h10.002
				c0.829,0,1.5-0.671,1.5-1.5V44.684C79.502,43.855,78.831,43.184,78.002,43.184z M76.502,61.826H69.5V46.184h7.002V61.826z"/>
		</g>
	</g>
	<g>
		<g>
			<rect x="91.166" y="44.684" class="st2" width="10.002" height="18.643"/>
		</g>
	</g>
	<g>
		<g>
			<path class="st0" d="M101.168,43.184H91.166c-0.829,0-1.5,0.671-1.5,1.5v18.643c0,0.829,0.671,1.5,1.5,1.5h10.002
				c0.829,0,1.5-0.671,1.5-1.5V44.684C102.668,43.855,101.997,43.184,101.168,43.184z M99.668,61.826h-7.002V46.184h7.002V61.826z"
				/>
		</g>
	</g>
	<g>
		<g>
			<rect x="114.332" y="44.684" class="st7" width="10.002" height="18.643"/>
		</g>
	</g>
	<g>
		<g>
			<path class="st0" d="M124.334,43.184h-10.002c-0.829,0-1.5,0.671-1.5,1.5v18.643c0,0.829,0.671,1.5,1.5,1.5h10.002
				c0.829,0,1.5-0.671,1.5-1.5V44.684C125.834,43.855,125.163,43.184,124.334,43.184z M122.834,61.826h-7.002V46.184h7.002V61.826z"
				/>
		</g>
	</g>
	<g>
		<g>
			<rect x="137.498" y="44.684" class="st2" width="10.002" height="18.643"/>
		</g>
	</g>
	<g>
		<g>
			<path class="st0" d="M147.5,43.184h-10.002c-0.829,0-1.5,0.671-1.5,1.5v18.643c0,0.829,0.671,1.5,1.5,1.5H147.5
				c0.829,0,1.5-0.671,1.5-1.5V44.684C149,43.855,148.329,43.184,147.5,43.184z M146,61.826h-7.002V46.184H146V61.826z"/>
		</g>
	</g>
	<g>
		<g>
			<rect x="68" y="76.408" class="st2" width="10.002" height="18.643"/>
		</g>
	</g>
	<g>
		<g>
			<path class="st0" d="M78.002,74.908H68c-0.829,0-1.5,0.671-1.5,1.5v18.643c0,0.829,0.671,1.5,1.5,1.5h10.002
				c0.829,0,1.5-0.671,1.5-1.5V76.408C79.502,75.58,78.831,74.908,78.002,74.908z M76.502,93.551H69.5V77.908h7.002V93.551z"/>
		</g>
	</g>
	<g>
		<g>
			<rect x="91.166" y="76.408" class="st7" width="10.002" height="18.643"/>
		</g>
	</g>
	<g>
		<g>
			<path class="st0" d="M101.168,74.908H91.166c-0.829,0-1.5,0.671-1.5,1.5v18.643c0,0.829,0.671,1.5,1.5,1.5h10.002
				c0.829,0,1.5-0.671,1.5-1.5V76.408C102.668,75.58,101.997,74.908,101.168,74.908z M99.668,93.551h-7.002V77.908h7.002V93.551z"/>
		</g>
	</g>
	<g>
		<g>
			<rect x="114.332" y="76.408" class="st2" width="10.002" height="18.643"/>
		</g>
	</g>
	<g>
		<g>
			<path class="st0" d="M124.334,74.908h-10.002c-0.829,0-1.5,0.671-1.5,1.5v18.643c0,0.829,0.671,1.5,1.5,1.5h10.002
				c0.829,0,1.5-0.671,1.5-1.5V76.408C125.834,75.58,125.163,74.908,124.334,74.908z M122.834,93.551h-7.002V77.908h7.002V93.551z"
				/>
		</g>
	</g>
	<g>
		<g>
			<rect x="137.498" y="76.408" class="st7" width="10.002" height="18.643"/>
		</g>
	</g>
	<g>
		<g>
			<path class="st0" d="M147.5,74.908h-10.002c-0.829,0-1.5,0.671-1.5,1.5v18.643c0,0.829,0.671,1.5,1.5,1.5H147.5
				c0.829,0,1.5-0.671,1.5-1.5V76.408C149,75.58,148.329,74.908,147.5,74.908z M146,93.551h-7.002V77.908H146V93.551z"/>
		</g>
	</g>
	<g>
		<g>
			<rect x="68" y="108.133" class="st7" width="10.002" height="18.643"/>
		</g>
	</g>
	<g>
		<g>
			<path class="st0" d="M78.002,106.633H68c-0.829,0-1.5,0.671-1.5,1.5v18.643c0,0.829,0.671,1.5,1.5,1.5h10.002
				c0.829,0,1.5-0.671,1.5-1.5v-18.643C79.502,107.304,78.831,106.633,78.002,106.633z M76.502,125.275H69.5v-15.643h7.002V125.275z
				"/>
		</g>
	</g>
	<g>
		<g>
			<rect x="91.166" y="108.133" class="st2" width="10.002" height="18.643"/>
		</g>
	</g>
	<g>
		<g>
			<path class="st0" d="M101.168,106.633H91.166c-0.829,0-1.5,0.671-1.5,1.5v18.643c0,0.829,0.671,1.5,1.5,1.5h10.002
				c0.829,0,1.5-0.671,1.5-1.5v-18.643C102.668,107.304,101.997,106.633,101.168,106.633z M99.668,125.275h-7.002v-15.643h7.002
				V125.275z"/>
		</g>
	</g>
	<g>
		<g>
			<rect x="114.332" y="108.133" class="st7" width="10.002" height="18.643"/>
		</g>
	</g>
	<g>
		<g>
			<path class="st0" d="M124.334,106.633h-10.002c-0.829,0-1.5,0.671-1.5,1.5v18.643c0,0.829,0.671,1.5,1.5,1.5h10.002
				c0.829,0,1.5-0.671,1.5-1.5v-18.643C125.834,107.304,125.163,106.633,124.334,106.633z M122.834,125.275h-7.002v-15.643h7.002
				V125.275z"/>
		</g>
	</g>
	<g>
		<g>
			<rect x="137.498" y="108.133" class="st2" width="10.002" height="18.643"/>
		</g>
	</g>
	<g>
		<g>
			<path class="st0" d="M147.5,106.633h-10.002c-0.829,0-1.5,0.671-1.5,1.5v18.643c0,0.829,0.671,1.5,1.5,1.5H147.5
				c0.829,0,1.5-0.671,1.5-1.5v-18.643C149,107.304,148.329,106.633,147.5,106.633z M146,125.275h-7.002v-15.643H146V125.275z"/>
		</g>
	</g>
	<g>
		<g>
			<rect x="68" y="139.857" class="st2" width="10.002" height="18.643"/>
		</g>
	</g>
	<g>
		<g>
			<path class="st0" d="M78.002,138.357H68c-0.829,0-1.5,0.671-1.5,1.5V158.5c0,0.829,0.671,1.5,1.5,1.5h10.002
				c0.829,0,1.5-0.671,1.5-1.5v-18.643C79.502,139.029,78.831,138.357,78.002,138.357z M76.502,157H69.5v-15.643h7.002V157z"/>
		</g>
	</g>
	<g>
		<g>
			<rect x="91.166" y="139.857" class="st7" width="10.002" height="18.643"/>
		</g>
	</g>
	<g>
		<g>
			<path class="st0" d="M101.168,138.357H91.166c-0.829,0-1.5,0.671-1.5,1.5V158.5c0,0.829,0.671,1.5,1.5,1.5h10.002
				c0.829,0,1.5-0.671,1.5-1.5v-18.643C102.668,139.029,101.997,138.357,101.168,138.357z M99.668,157h-7.002v-15.643h7.002V157z"/>
		</g>
	</g>
	<g>
		<g>
			<rect x="114.332" y="139.857" class="st2" width="10.002" height="18.643"/>
		</g>
	</g>
	<g>
		<g>
			<path class="st0" d="M124.334,138.357h-10.002c-0.829,0-1.5,0.671-1.5,1.5V158.5c0,0.829,0.671,1.5,1.5,1.5h10.002
				c0.829,0,1.5-0.671,1.5-1.5v-18.643C125.834,139.029,125.163,138.357,124.334,138.357z M122.834,157h-7.002v-15.643h7.002V157z"
				/>
		</g>
	</g>
	<g>
		<g>
			<rect x="137.498" y="139.857" class="st7" width="10.002" height="18.643"/>
		</g>
	</g>
	<g>
		<g>
			<path class="st0" d="M147.5,138.357h-10.002c-0.829,0-1.5,0.671-1.5,1.5V158.5c0,0.829,0.671,1.5,1.5,1.5H147.5
				c0.829,0,1.5-0.671,1.5-1.5v-18.643C149,139.029,148.329,138.357,147.5,138.357z M146,157h-7.002v-15.643H146V157z"/>
		</g>
	</g>
	<g>
		<g>
			<path class="st9" d="M205.53,18.06h-13.98c5.96,0,10.8,4.84,10.8,10.8v181.48c0,5.95-4.84,10.8-10.8,10.8h13.98
				c5.95,0,10.8-4.85,10.8-10.8V28.86C216.33,22.9,211.48,18.06,205.53,18.06z"/>
		</g>
	</g>
	<g>
		<g>
			<path class="st10" d="M189.52,224.14v7.56c0,3.44-2.8,6.24-6.24,6.24h13.69c3.44,0,6.24-2.8,6.24-6.24v-7.56H189.52z"/>
		</g>
	</g>
</g>
</svg>
