<?xml version="1.0" encoding="utf-8"?>
<!-- Generator: Adobe Illustrator 22.0.1, SVG Export Plug-In . SVG Version: 6.00 Build 0)  -->
<svg version="1.1" id="Layer_2" xmlns="http://www.w3.org/2000/svg" xmlns:xlink="http://www.w3.org/1999/xlink" x="0px" y="0px"
	 viewBox="0 0 256 256" style="enable-background:new 0 0 256 256;" xml:space="preserve">
<style type="text/css">
	.st0{fill:#3A312A;}
	.st1{fill:#D7E057;}
	.st2{fill:#FCE8CB;}
	.st3{fill:#8AC6DD;}
	.st4{fill-rule:evenodd;clip-rule:evenodd;fill:#FCE8CB;}
	.st5{fill:#F5978A;}
	.st6{fill:#87796F;}
	.st7{fill:#F16C7A;}
	.st8{fill:#68A8BC;}
	.st9{fill:#B9BC39;}
	.st10{fill:#CE4E61;}
	.st11{fill:#6B5B51;}
	.st12{fill:#CCAE8B;}
	.st13{fill-rule:evenodd;clip-rule:evenodd;fill:#F16C7A;}
</style>
<g>
	<g>
		<g>
			<path class="st1" d="M47.353,58.662c-0.974,11.564-13.024,13.39-13.024,13.39c10.347,0.487,12.925,14.059,12.925,14.059
				c0.221-9.677,13.321-14.202,13.321-14.202C50.761,71.321,47.353,58.662,47.353,58.662z"/>
		</g>
	</g>
	<g>
		<g>
			<path class="st0" d="M60.665,70.411c-8.605-0.515-11.832-12.024-11.864-12.141c-0.191-0.703-0.863-1.168-1.583-1.102
				c-0.725,0.066-1.298,0.642-1.359,1.367C44.998,68.751,34.545,70.5,34.104,70.568c-0.763,0.116-1.313,0.791-1.273,1.561
				c0.04,0.771,0.657,1.385,1.427,1.421c9.028,0.426,11.499,12.719,11.523,12.844c0.137,0.711,0.759,1.217,1.472,1.217
				c0.042,0,0.085-0.002,0.127-0.005c0.764-0.064,1.357-0.693,1.374-1.46c0.195-8.51,12.192-12.778,12.313-12.82
				c0.675-0.234,1.092-0.914,0.994-1.622C61.962,70.994,61.378,70.453,60.665,70.411z M47.099,80.758
				c-1.357-3.131-3.708-6.908-7.587-8.877c2.931-1.405,6.409-3.913,8.202-8.273c1.551,3.071,4.2,6.88,8.335,8.723
				C53.04,73.97,49.125,76.736,47.099,80.758z"/>
		</g>
	</g>
	<g>
		<g>
			<path class="st1" d="M25.655,75.643c-0.689,8.179-9.212,9.471-9.212,9.471c7.318,0.344,9.142,9.944,9.142,9.944
				c0.156-6.845,9.422-10.045,9.422-10.045C28.065,84.597,25.655,75.643,25.655,75.643z"/>
		</g>
	</g>
	<g>
		<g>
			<path class="st0" d="M35.096,83.515c-5.766-0.345-7.972-8.186-7.993-8.265c-0.19-0.702-0.851-1.169-1.582-1.102
				c-0.726,0.065-1.299,0.643-1.36,1.368c-0.579,6.871-7.646,8.066-7.942,8.113c-0.763,0.116-1.313,0.791-1.273,1.561
				c0.04,0.771,0.657,1.385,1.427,1.421c6.035,0.284,7.724,8.645,7.739,8.727c0.135,0.713,0.759,1.22,1.473,1.22
				c0.041,0,0.083-0.002,0.125-0.005c0.765-0.063,1.358-0.693,1.376-1.461c0.13-5.709,8.331-8.634,8.412-8.662
				c0.677-0.234,1.094-0.913,0.996-1.622C36.395,84.099,35.81,83.557,35.096,83.515z M25.512,90.31
				c-0.924-1.886-2.34-3.947-4.447-5.279c1.855-1.041,3.697-2.63,4.871-4.917c1.057,1.874,2.654,3.954,4.941,5.224
				C29.026,86.438,26.888,88.077,25.512,90.31z"/>
		</g>
	</g>
	<g>
		<g>
			<path class="st1" d="M25.655,48.985c-0.689,8.179-9.212,9.471-9.212,9.471C23.76,58.8,25.584,68.4,25.584,68.4
				c0.156-6.844,9.422-10.045,9.422-10.045C28.065,57.939,25.655,48.985,25.655,48.985z"/>
		</g>
	</g>
	<g>
		<g>
			<path class="st0" d="M35.096,56.857c-5.766-0.345-7.972-8.186-7.993-8.265c-0.19-0.702-0.855-1.167-1.582-1.102
				c-0.726,0.065-1.299,0.643-1.36,1.368c-0.579,6.87-7.647,8.066-7.942,8.113c-0.763,0.116-1.313,0.791-1.273,1.561
				c0.04,0.771,0.657,1.385,1.427,1.421c6.035,0.284,7.724,8.645,7.739,8.727c0.135,0.713,0.759,1.22,1.472,1.22
				c0.042,0,0.083-0.002,0.125-0.005c0.765-0.063,1.358-0.693,1.376-1.461c0.13-5.709,8.331-8.634,8.412-8.662
				c0.677-0.234,1.094-0.913,0.996-1.622C36.395,57.441,35.81,56.899,35.096,56.857z M25.512,63.652
				c-0.924-1.886-2.34-3.947-4.447-5.279c1.855-1.042,3.697-2.63,4.871-4.917c1.057,1.874,2.654,3.954,4.941,5.224
				C29.026,59.78,26.888,61.42,25.512,63.652z"/>
		</g>
	</g>
	<g>
		<g>
			<path class="st7" d="M196.068,121.436c-1.19,0-2.37,0.05-3.53,0.15l-1.39,14.27c1.6-0.281,3.24-0.42,4.92-0.42
				c16.26,0,29.49,13.229,29.49,29.49s-13.23,29.49-29.49,29.49c-3.67,0-7.19-0.67-10.43-1.9l-1.39,14.27
				c3.76,1.06,7.72,1.63,11.82,1.63c23.98,0,43.49-19.51,43.49-43.49S220.048,121.436,196.068,121.436z"/>
		</g>
	</g>
	<g>
		<g>
			<path class="st0" d="M196.068,119.936c-1.23,0-2.461,0.052-3.658,0.155c-0.721,0.062-1.294,0.629-1.365,1.349l-1.39,14.271
				c-0.045,0.467,0.13,0.928,0.474,1.246c0.344,0.317,0.817,0.451,1.278,0.377c1.505-0.264,3.074-0.397,4.661-0.397
				c15.434,0,27.99,12.556,27.99,27.989s-12.556,27.99-27.99,27.99c-3.418,0-6.748-0.606-9.897-1.803
				c-0.437-0.166-0.926-0.119-1.324,0.128c-0.397,0.246-0.657,0.664-0.702,1.129l-1.39,14.271c-0.07,0.723,0.387,1.393,1.086,1.589
				c3.97,1.119,8.083,1.687,12.227,1.687c24.808,0,44.99-20.183,44.99-44.99S220.875,119.936,196.068,119.936z M196.068,206.915
				c-3.449,0-6.875-0.421-10.204-1.252l1.083-11.113c2.937,0.906,5.997,1.365,9.121,1.365c17.088,0,30.99-13.902,30.99-30.99
				s-13.902-30.989-30.99-30.989c-1.091,0-2.176,0.058-3.242,0.171l1.083-11.113c0.714-0.038,1.436-0.058,2.16-0.058
				c23.153,0,41.99,18.836,41.99,41.989S219.221,206.915,196.068,206.915z"/>
		</g>
	</g>
	<g>
		<g>
			<path class="st6" d="M66.258,44.885c-2.37,0-4.52,0.96-6.07,2.52c-1.56,1.56-2.52,3.7-2.52,6.08c0,4.75,3.85,8.6,8.59,8.6h13.25
				v-17.2H66.258z"/>
		</g>
	</g>
	<g>
		<g>
			<path class="st0" d="M79.508,43.385h-13.25c-2.703,0-5.236,1.053-7.13,2.96c-1.908,1.907-2.959,4.443-2.959,7.141
				c0,5.569,4.526,10.1,10.09,10.1h13.25c0.829,0,1.5-0.672,1.5-1.5v-17.2C81.008,44.057,80.336,43.385,79.508,43.385z
				 M78.008,60.585h-11.75c-3.909,0-7.09-3.185-7.09-7.1c0-1.896,0.739-3.678,2.084-5.023c1.331-1.339,3.108-2.077,5.005-2.077
				h11.75V60.585z"/>
		</g>
	</g>
	<g>
		<g>
			<path class="st6" d="M189.838,44.885h-13.25v17.2h13.25c2.37,0,4.52-0.96,6.07-2.52c1.56-1.56,2.52-3.7,2.52-6.08
				C198.428,48.735,194.578,44.885,189.838,44.885z"/>
		</g>
	</g>
	<g>
		<g>
			<path class="st0" d="M189.838,43.385h-13.25c-0.829,0-1.5,0.672-1.5,1.5v17.2c0,0.828,0.671,1.5,1.5,1.5h13.25
				c2.702,0,5.235-1.052,7.131-2.959c1.908-1.909,2.959-4.444,2.959-7.141C199.928,47.916,195.401,43.385,189.838,43.385z
				 M194.844,58.508c-1.331,1.34-3.109,2.077-5.006,2.077h-11.75v-14.2h11.75c3.909,0,7.09,3.186,7.09,7.101
				C196.928,55.38,196.189,57.163,194.844,58.508z"/>
		</g>
	</g>
	<g>
		<g>
			<path class="st3" d="M61.668,102.135l1.652,16.985l1.406,14.454l8.662,89.051c0.93,9.53,8.94,16.8,18.51,16.8h72.3
				c9.57,0,17.58-7.27,18.51-16.8l11.72-120.49H61.668z"/>
		</g>
	</g>
	<g>
		<g>
			<path class="st0" d="M195.539,101.127c-0.284-0.313-0.688-0.492-1.111-0.492H61.668c-0.423,0-0.827,0.179-1.111,0.492
				c-0.284,0.313-0.423,0.732-0.382,1.153l1.652,16.985c0.081,0.823,0.817,1.43,1.638,1.348c0.825-0.08,1.428-0.813,1.348-1.639
				l-1.493-15.34h129.454l-11.56,118.845c-0.86,8.806-8.175,15.445-17.018,15.445h-72.3c-8.842,0-16.158-6.64-17.017-15.445
				l-8.662-89.051c-0.081-0.825-0.824-1.437-1.638-1.348c-0.825,0.08-1.428,0.813-1.348,1.639l8.663,89.051
				c1.009,10.35,9.609,18.154,20.002,18.154h72.3c10.394,0,18.993-7.805,20.003-18.154l11.72-120.49
				C195.961,101.858,195.823,101.44,195.539,101.127z"/>
		</g>
	</g>
	<g>
		<g>
			<path class="st1" d="M65.738,143.985l7.651,78.645c0.927,9.527,8.935,16.795,18.508,16.795h72.303
				c9.573,0,17.581-7.268,18.508-16.795l7.651-78.645H65.738z"/>
		</g>
	</g>
	<g>
		<g>
			<path class="st0" d="M191.469,142.978c-0.284-0.313-0.688-0.492-1.111-0.492H65.738c-0.423,0-0.827,0.179-1.111,0.492
				c-0.284,0.313-0.423,0.732-0.382,1.153l7.651,78.645c1.007,10.347,9.605,18.149,20.001,18.149h72.303
				c10.396,0,18.995-7.803,20.002-18.149l7.651-78.645C191.892,143.71,191.753,143.291,191.469,142.978z M181.214,222.484
				c-0.856,8.803-8.171,15.44-17.015,15.44H91.896c-8.844,0-16.159-6.638-17.015-15.44l-7.491-76.999h121.315L181.214,222.484z"/>
		</g>
	</g>
	<g>
		<g>
			<path class="st6" d="M70.278,190.652l3.111,31.979c0.927,9.527,8.935,16.795,18.508,16.795h72.303
				c9.573,0,17.581-7.268,18.508-16.795l3.111-31.979H70.278z"/>
		</g>
	</g>
	<g>
		<g>
			<path class="st0" d="M186.929,189.644c-0.284-0.313-0.688-0.492-1.111-0.492H70.277c-0.423,0-0.827,0.179-1.111,0.492
				c-0.284,0.313-0.423,0.732-0.382,1.153l3.111,31.979c1.007,10.347,9.605,18.149,20.001,18.149h72.303
				c10.396,0,18.995-7.803,20.002-18.149l3.111-31.979C187.352,190.376,187.213,189.957,186.929,189.644z M181.214,222.484
				c-0.856,8.803-8.171,15.44-17.015,15.44H91.896c-8.844,0-16.159-6.638-17.015-15.44l-2.952-30.333h112.235L181.214,222.484z"/>
		</g>
	</g>
	<g>
		<g>
			<path class="st1" d="M180.924,87.978H75.172c-0.051,0-0.099,0.007-0.15,0.008h106.051
				C181.023,87.984,180.974,87.978,180.924,87.978z"/>
		</g>
	</g>
	<g>
		<g>
			<path class="st0" d="M181.115,86.485c-0.037-0.003-0.154-0.008-0.191-0.008H75.172c-0.065,0-0.128,0.003-0.179,0.008
				c-0.822,0.017-1.479,0.691-1.471,1.515c0.008,0.822,0.677,1.485,1.5,1.485h106.051c0.807,0,1.434-0.641,1.464-1.446
				C182.568,87.232,181.919,86.545,181.115,86.485z"/>
		</g>
	</g>
	<g>
		<g>
			<path class="st2" d="M176.208,30.735h-96.32c-0.13,0-0.25,0-0.38-0.02v43.989c0,7.331,5.94,13.271,13.26,13.271h70.56
				c7.32,0,13.26-5.94,13.26-13.271V30.715C176.458,30.735,176.338,30.735,176.208,30.735z"/>
		</g>
	</g>
	<g>
		<g>
			<path class="st0" d="M177.556,29.6c-0.319-0.285-0.775-0.412-1.199-0.367c-0.05,0.006-0.098,0.003-0.149,0.003h-96.32
				c-0.052,0-0.099,0.002-0.148-0.002c-0.432-0.069-0.874,0.056-1.207,0.342c-0.333,0.284-0.525,0.701-0.525,1.14v43.99
				c0,8.145,6.622,14.771,14.76,14.771h70.56c8.139,0,14.76-6.626,14.76-14.771v-43.99C178.088,30.287,177.875,29.884,177.556,29.6z
				 M175.088,74.705c0,6.49-5.275,11.771-11.76,11.771h-70.56c-6.485,0-11.76-5.28-11.76-11.771v-42.47h94.08V74.705z"/>
		</g>
	</g>
	<g>
		<g>
			<path class="st1" d="M176.21,16.575H79.886c-3.91,0-7.08,3.17-7.08,7.081s3.17,7.08,7.08,7.08h96.324c3.91,0,7.08-3.17,7.08-7.08
				S180.12,16.575,176.21,16.575z"/>
		</g>
	</g>
	<g>
		<g>
			<path class="st0" d="M176.21,15.075h-68.505c-0.829,0-1.5,0.672-1.5,1.5s0.671,1.5,1.5,1.5h68.505c3.077,0,5.58,2.503,5.58,5.58
				s-2.503,5.58-5.58,5.58H79.886c-3.077,0-5.58-2.503-5.58-5.58s2.503-5.58,5.58-5.58h13.839c0.829,0,1.5-0.672,1.5-1.5
				s-0.671-1.5-1.5-1.5H79.886c-4.731,0-8.58,3.849-8.58,8.58s3.849,8.58,8.58,8.58h96.324c4.731,0,8.58-3.849,8.58-8.58
				S180.941,15.075,176.21,15.075z"/>
		</g>
	</g>
	<g>
		<g>
			<path class="st1" d="M195.03,87.978H61.066c-3.91,0-7.08,3.169-7.08,7.08c0,3.91,3.17,7.08,7.08,7.08H195.03
				c3.91,0,7.08-3.169,7.08-7.08C202.11,91.147,198.941,87.978,195.03,87.978z"/>
		</g>
	</g>
	<g>
		<g>
			<path class="st0" d="M195.03,86.478H61.065c-4.731,0-8.58,3.849-8.58,8.58s3.849,8.58,8.58,8.58H195.03
				c4.731,0,8.58-3.849,8.58-8.58S199.761,86.478,195.03,86.478z M195.03,100.638H61.065c-3.077,0-5.58-2.503-5.58-5.58
				s2.503-5.58,5.58-5.58H195.03c3.077,0,5.58,2.503,5.58,5.58S198.107,100.638,195.03,100.638z"/>
		</g>
	</g>
	<g>
		<g>
			<polygon class="st8" points="179.408,103.635 175.628,142.485 188.998,142.485 192.778,103.635 			"/>
		</g>
	</g>
	<g>
		<g>
			<polygon class="st9" points="175.338,145.485 171.088,189.155 184.458,189.155 188.708,145.485 			"/>
		</g>
	</g>
	<g>
		<g>
			<path class="st11" d="M170.798,192.155l-2.95,30.33c-0.86,8.8-8.17,15.44-17.01,15.44h13.36c4.43,0,8.47-1.66,11.51-4.42
				c3.04-2.76,5.08-6.62,5.51-11.02l2.95-30.33H170.798z"/>
		</g>
	</g>
	<g>
		<g>
			<path class="st12" d="M161.718,32.235v42.469c0,6.491-5.27,11.771-11.76,11.771h13.37c6.48,0,11.76-5.28,11.76-11.771V32.235
				H161.718z"/>
		</g>
	</g>
	<g>
		<g>
			<path class="st9" d="M176.208,18.075h-13.36c3.07,0,5.58,2.5,5.58,5.581c0,3.08-2.51,5.58-5.58,5.58h13.36
				c3.08,0,5.58-2.5,5.58-5.58C181.788,20.575,179.288,18.075,176.208,18.075z"/>
		</g>
	</g>
	<g>
		<g>
			<path class="st9" d="M195.028,89.476h-13.36c3.07,0,5.58,2.51,5.58,5.58c0,3.08-2.51,5.58-5.58,5.58h13.36
				c3.08,0,5.58-2.5,5.58-5.58C200.608,91.985,198.108,89.476,195.028,89.476z"/>
		</g>
	</g>
</g>
</svg>
