<?xml version="1.0" encoding="utf-8"?>
<!-- Generator: Adobe Illustrator 22.0.1, SVG Export Plug-In . SVG Version: 6.00 Build 0)  -->
<svg version="1.1" id="Layer_2" xmlns="http://www.w3.org/2000/svg" xmlns:xlink="http://www.w3.org/1999/xlink" x="0px" y="0px"
	 viewBox="0 0 256 256" style="enable-background:new 0 0 256 256;" xml:space="preserve">
<style type="text/css">
	.st0{fill:#3A312A;}
	.st1{fill:#D7E057;}
	.st2{fill:#FCE8CB;}
	.st3{fill:#8AC6DD;}
	.st4{fill-rule:evenodd;clip-rule:evenodd;fill:#FCE8CB;}
	.st5{fill:#F5978A;}
	.st6{fill:#87796F;}
	.st7{fill:#F16C7A;}
	.st8{fill:#68A8BC;}
	.st9{fill:#B9BC39;}
	.st10{fill:#CE4E61;}
	.st11{fill:#6B5B51;}
	.st12{fill:#CCAE8B;}
	.st13{fill-rule:evenodd;clip-rule:evenodd;fill:#F16C7A;}
</style>
<g>
	<g>
		<g>
			<path class="st6" d="M234.894,70.363c-4.83-5.49-11.78-8.64-19.09-8.64c-8.76,0-17.06,4.64-21.64,12.11l-9.66,15.72
				c2.7,3.88,4.86,8.07,6.44,12.44l13.44-21.88c2.42-3.94,6.8-6.39,11.42-6.39c3.86,0,7.53,1.67,10.07,4.56
				c2.54,2.9,3.72,6.75,3.22,10.58l-3.48,26.76c-2.62,20.16-14.74,37.49-32.08,47.03c-0.78,5.29-2.36,10.42-4.68,15.24
				c26.15-9.5,45.03-32.85,48.66-60.72l3.48-26.77C241.934,83.163,239.714,75.854,234.894,70.363z"/>
		</g>
	</g>
	<g>
		<g>
			<path class="st0" d="M236.021,69.372c-5.115-5.813-12.483-9.148-20.216-9.148c-9.286,0-18.068,4.914-22.919,12.824l-9.66,15.721
				c-0.312,0.508-0.294,1.152,0.047,1.642c2.608,3.748,4.715,7.817,6.262,12.093c0.195,0.542,0.685,0.924,1.258,0.982
				c0.564,0.053,1.129-0.216,1.431-0.707l13.439-21.88c2.15-3.5,6.037-5.675,10.143-5.675c3.421,0,6.681,1.477,8.94,4.048
				c2.262,2.582,3.305,6.008,2.862,9.398l-3.48,26.76c-2.514,19.342-14.221,36.504-31.315,45.909
				c-0.411,0.227-0.692,0.632-0.762,1.096c-0.756,5.127-2.286,10.109-4.547,14.809c-0.265,0.55-0.17,1.204,0.239,1.656
				c0.29,0.32,0.696,0.494,1.112,0.494c0.172,0,0.345-0.029,0.512-0.09c26.913-9.777,45.933-33.51,49.636-61.937l3.479-26.771
				C243.479,82.922,241.124,75.187,236.021,69.372z M239.507,90.21l-3.479,26.771c-3.402,26.114-20.261,48.106-44.337,58.194
				c1.497-3.731,2.574-7.607,3.214-11.568c17.578-9.938,29.593-27.749,32.197-47.79l3.48-26.759
				c0.555-4.245-0.751-8.532-3.581-11.765c-2.832-3.222-6.913-5.069-11.196-5.069c-5.14,0-10.006,2.723-12.699,7.104l-11.866,19.318
				c-1.356-3.188-3.014-6.247-4.948-9.136l9.151-14.894c4.31-7.028,12.111-11.394,20.362-11.394c6.87,0,13.418,2.964,17.963,8.129
				C238.301,76.518,240.393,83.391,239.507,90.21z"/>
		</g>
	</g>
	<g>
		<g>
			<path class="st7" d="M58.804,119.953c0-5.25,0.79-10.43,2.3-15.39l-28.31-29.06h-18l13.661,27.355l6.537,13.09l24.982,50.026
				c-0.77-3.6-1.17-7.29-1.17-11.02V119.953z"/>
		</g>
	</g>
	<g>
		<g>
			<path class="st0" d="M62.539,105c0.16-0.523,0.021-1.092-0.36-1.483L33.868,74.456c-0.282-0.29-0.67-0.453-1.074-0.453h-18
				c-0.52,0-1.002,0.27-1.275,0.711c-0.273,0.442-0.299,0.994-0.066,1.459l13.661,27.355c0.37,0.742,1.271,1.042,2.012,0.672
				c0.741-0.37,1.042-1.271,0.672-2.012L17.22,77.003h14.941l27.256,27.978c-1.402,4.889-2.112,9.921-2.112,14.973v35
				c0,0.809,0.019,1.618,0.055,2.427l-21.025-42.102c-0.371-0.742-1.272-1.042-2.012-0.672c-0.741,0.37-1.042,1.271-0.672,2.012
				l24.982,50.025c0.26,0.521,0.787,0.83,1.342,0.83c0.165,0,0.333-0.027,0.496-0.084c0.713-0.25,1.129-0.991,0.971-1.729
				c-0.754-3.525-1.137-7.127-1.137-10.707v-35C60.305,114.903,61.057,109.872,62.539,105z"/>
		</g>
	</g>
	<g>
		<g>
			<path class="st7" d="M126.452,35.77c-15.933,0-29.275,7.45-32.709,17.46h65.429C155.737,43.22,142.385,35.77,126.452,35.77z"/>
		</g>
	</g>
	<g>
		<g>
			<path class="st0" d="M160.591,52.742c-3.732-10.876-17.771-18.473-34.139-18.473c-16.361,0-30.396,7.597-34.129,18.473
				c-0.157,0.459-0.083,0.965,0.198,1.359c0.281,0.394,0.736,0.628,1.221,0.628h65.43c0.484,0,0.939-0.234,1.221-0.628
				C160.674,53.707,160.748,53.201,160.591,52.742z M96.003,51.729c4.305-8.489,16.643-14.46,30.449-14.46
				c13.813,0,26.155,5.971,30.459,14.46H96.003z"/>
		</g>
	</g>
	<g>
		<g>
			<ellipse class="st6" cx="126.454" cy="26.091" rx="9.833" ry="9.676"/>
		</g>
	</g>
	<g>
		<g>
			<path class="st0" d="M126.454,14.915c-6.248,0-11.332,5.014-11.332,11.177c0,6.162,5.084,11.176,11.332,11.176
				c6.249,0,11.333-5.014,11.333-11.176C137.787,19.929,132.703,14.915,126.454,14.915z M126.454,34.268
				c-4.595,0-8.332-3.668-8.332-8.176c0-4.509,3.737-8.177,8.332-8.177s8.333,3.668,8.333,8.177
				C134.787,30.6,131.049,34.268,126.454,34.268z"/>
		</g>
	</g>
	<g>
		<g>
			<path class="st10" d="M126.452,37.27c-1.941,0-3.841,0.11-5.69,0.34c11.635,1.37,21.095,6.88,24.743,14.12h11.391
				C152.669,43.339,140.627,37.27,126.452,37.27z"/>
		</g>
	</g>
	<g>
		<g>
			<path class="st11" d="M126.452,17.919c-0.996,0-1.951,0.17-2.835,0.49c3.181,1.15,5.457,4.16,5.457,7.68
				c0,3.53-2.276,6.54-5.467,7.68c0.884,0.33,1.839,0.5,2.845,0.5c4.583,0,8.312-3.67,8.312-8.18
				C134.764,21.579,131.035,17.919,126.452,17.919z"/>
		</g>
	</g>
	<g>
		<g>
			<path class="st1" d="M63.812,26.825c-0.974,11.564-13.024,13.389-13.024,13.389c10.347,0.487,12.925,14.059,12.925,14.059
				c0.221-9.677,13.321-14.202,13.321-14.202C67.22,39.484,63.812,26.825,63.812,26.825z"/>
		</g>
	</g>
	<g>
		<g>
			<path class="st0" d="M77.123,38.574C68.519,38.06,65.291,26.55,65.26,26.434c-0.19-0.701-0.847-1.158-1.584-1.102
				c-0.725,0.066-1.298,0.642-1.359,1.367c-0.859,10.215-11.313,11.964-11.754,12.032c-0.763,0.116-1.313,0.791-1.273,1.561
				c0.04,0.771,0.657,1.385,1.428,1.421c9.028,0.425,11.499,12.718,11.522,12.843c0.138,0.711,0.76,1.217,1.473,1.217
				c0.042,0,0.084-0.002,0.126-0.005c0.765-0.064,1.357-0.693,1.375-1.46c0.193-8.509,12.19-12.777,12.312-12.819
				c0.676-0.234,1.092-0.914,0.994-1.622C78.42,39.157,77.837,38.616,77.123,38.574z M63.558,48.92
				c-1.356-3.131-3.709-6.907-7.587-8.877c2.931-1.404,6.408-3.912,8.201-8.272c1.551,3.071,4.2,6.88,8.334,8.723
				C69.499,42.133,65.584,44.898,63.558,48.92z"/>
		</g>
	</g>
	<g>
		<g>
			<path class="st1" d="M42.113,43.806c-0.689,8.179-9.212,9.47-9.212,9.47c7.318,0.344,9.142,9.944,9.142,9.944
				c0.156-6.844,9.422-10.045,9.422-10.045C44.524,52.76,42.113,43.806,42.113,43.806z"/>
		</g>
	</g>
	<g>
		<g>
			<path class="st0" d="M51.555,51.678c-5.767-0.345-7.972-8.186-7.993-8.265c-0.19-0.702-0.856-1.161-1.582-1.102
				c-0.726,0.065-1.3,0.643-1.361,1.368c-0.579,6.87-7.646,8.066-7.942,8.113c-0.763,0.116-1.313,0.791-1.273,1.561
				c0.04,0.771,0.657,1.385,1.428,1.421c6.035,0.284,7.724,8.645,7.739,8.727c0.136,0.713,0.759,1.22,1.473,1.22
				c0.041,0,0.083-0.002,0.125-0.005c0.765-0.063,1.358-0.693,1.376-1.461c0.13-5.709,8.331-8.634,8.412-8.662
				c0.676-0.234,1.093-0.913,0.996-1.622C52.854,52.262,52.269,51.72,51.555,51.678z M41.97,58.473
				c-0.924-1.886-2.34-3.947-4.447-5.28c1.855-1.041,3.697-2.63,4.871-4.916c1.057,1.874,2.654,3.955,4.941,5.224
				C45.485,54.601,43.346,56.24,41.97,58.473z"/>
		</g>
	</g>
	<g>
		<g>
			<path class="st1" d="M42.113,17.148c-0.689,8.179-9.212,9.471-9.212,9.471c7.318,0.344,9.142,9.944,9.142,9.944
				c0.156-6.844,9.422-10.045,9.422-10.045C44.524,26.102,42.113,17.148,42.113,17.148z"/>
		</g>
	</g>
	<g>
		<g>
			<path class="st0" d="M51.555,25.021c-5.767-0.345-7.972-8.186-7.993-8.265c-0.19-0.702-0.856-1.16-1.582-1.102
				c-0.726,0.065-1.3,0.643-1.361,1.368c-0.579,6.87-7.646,8.066-7.942,8.113c-0.763,0.116-1.313,0.791-1.273,1.561
				c0.04,0.771,0.657,1.385,1.428,1.421c6.035,0.284,7.724,8.645,7.739,8.727c0.136,0.713,0.759,1.22,1.473,1.22
				c0.041,0,0.083-0.002,0.125-0.005c0.765-0.063,1.358-0.693,1.376-1.461c0.13-5.709,8.331-8.634,8.412-8.662
				c0.676-0.234,1.093-0.913,0.996-1.622C52.854,25.604,52.269,25.063,51.555,25.021z M41.97,31.815
				c-0.924-1.886-2.34-3.947-4.447-5.28c1.855-1.041,3.697-2.63,4.871-4.916c1.057,1.874,2.654,3.955,4.941,5.224
				C45.485,27.943,43.346,29.583,41.97,31.815z"/>
		</g>
	</g>
	<g>
		<g>
			<path class="st3" d="M157.484,53.229h-62.06c-11.578,0-20.964,9.386-20.964,20.964v8.032h103.988v-8.032
				C178.448,62.615,169.062,53.229,157.484,53.229z"/>
		</g>
	</g>
	<g>
		<g>
			<path class="st0" d="M157.484,51.729H95.424c-12.387,0-22.464,10.077-22.464,22.464v8.032c0,0.828,0.672,1.5,1.5,1.5h103.988
				c0.828,0,1.5-0.672,1.5-1.5v-8.032C179.948,61.807,169.871,51.729,157.484,51.729z M176.948,80.726H75.96v-6.532
				c0-10.732,8.731-19.464,19.464-19.464h62.061c10.732,0,19.464,8.731,19.464,19.464V80.726z"/>
		</g>
	</g>
	<g>
		<g>
			<rect x="74.46" y="192.681" class="st3" width="103.988" height="16.625"/>
		</g>
	</g>
	<g>
		<g>
			<path class="st0" d="M178.448,191.182H74.46c-0.828,0-1.5,0.672-1.5,1.5v16.624c0,0.828,0.672,1.5,1.5,1.5h103.988
				c0.828,0,1.5-0.672,1.5-1.5v-16.624C179.948,191.854,179.276,191.182,178.448,191.182z M176.948,207.806H75.96v-13.624h100.988
				V207.806z"/>
		</g>
	</g>
	<g>
		<g>
			<polygon class="st7" points="178.448,209.306 74.46,209.306 61.462,228.43 191.447,228.43 			"/>
		</g>
	</g>
	<g>
		<g>
			<path class="st0" d="M192.687,227.587l-12.998-19.124c-0.279-0.411-0.743-0.657-1.24-0.657H74.46
				c-0.497,0-0.961,0.246-1.24,0.657l-12.998,19.124c-0.313,0.459-0.346,1.054-0.085,1.545c0.26,0.491,0.77,0.798,1.325,0.798
				h129.984c0.556,0,1.065-0.307,1.325-0.798C193.032,228.641,192.999,228.046,192.687,227.587z M64.295,226.93l10.959-16.124h102.4
				l10.959,16.124H64.295z"/>
		</g>
	</g>
	<g>
		<g>
			<rect x="61.462" y="228.43" class="st7" width="129.985" height="11.174"/>
		</g>
	</g>
	<g>
		<g>
			<path class="st0" d="M191.446,226.93H61.462c-0.828,0-1.5,0.672-1.5,1.5v11.174c0,0.828,0.672,1.5,1.5,1.5h59.822
				c0.828,0,1.5-0.672,1.5-1.5s-0.672-1.5-1.5-1.5H62.962v-8.174h126.984v8.174h-54.82c-0.828,0-1.5,0.672-1.5,1.5
				s0.672,1.5,1.5,1.5h56.32c0.828,0,1.5-0.672,1.5-1.5V228.43C192.946,227.602,192.274,226.93,191.446,226.93z"/>
		</g>
	</g>
	<g>
		<g>
			<path class="st1" d="M178.449,82.226L178.449,82.226H74.46h0c-10.059,10.245-15.651,23.725-15.651,37.724v35.007
				c0,14,5.593,27.479,15.651,37.724h103.988c10.059-10.245,15.651-23.725,15.651-37.724V119.95
				C194.1,105.951,188.507,92.471,178.449,82.226z"/>
		</g>
	</g>
	<g>
		<g>
			<path class="st0" d="M179.519,81.175c-0.282-0.287-0.668-0.449-1.07-0.449H74.46c-0.402,0-0.788,0.162-1.07,0.449
				c-10.37,10.563-16.081,24.333-16.081,38.775v35.007c0,14.442,5.711,28.213,16.081,38.775c0.282,0.287,0.668,0.449,1.07,0.449
				h103.988c0.402,0,0.788-0.162,1.07-0.449c10.37-10.563,16.081-24.333,16.081-38.775V119.95
				C195.6,105.508,189.889,91.737,179.519,81.175z M192.6,154.957c0,13.448-5.246,26.287-14.786,36.225H75.095
				c-9.54-9.938-14.786-22.776-14.786-36.225V119.95c0-13.448,5.246-26.287,14.786-36.225h102.719
				c9.54,9.938,14.786,22.776,14.786,36.225V154.957z"/>
		</g>
	</g>
	<g>
		<g>
			<path class="st8" d="M157.484,54.733h-11.02c10.73,0,19.46,8.73,19.46,19.46v6.53h11.02v-6.53
				C176.944,63.463,168.214,54.733,157.484,54.733z"/>
		</g>
	</g>
	<g>
		<g>
			<rect x="165.924" y="194.183" class="st8" width="11.02" height="13.62"/>
		</g>
	</g>
	<g>
		<g>
			<polygon class="st10" points="177.654,210.803 166.634,210.803 177.594,226.933 188.614,226.933 			"/>
		</g>
	</g>
	<g>
		<g>
			<rect x="178.924" y="229.933" class="st10" width="11.02" height="8.17"/>
		</g>
	</g>
	<g>
		<g>
			<path class="st9" d="M177.814,83.724h-11.02c9.54,9.94,14.78,22.78,14.78,36.23v35c0,13.45-5.24,26.29-14.78,36.23h11.02
				c9.54-9.94,14.79-22.78,14.79-36.23v-35C192.604,106.503,187.354,93.663,177.814,83.724z"/>
		</g>
	</g>
</g>
</svg>
