<svg fill="#000000" xmlns="http://www.w3.org/2000/svg"  viewBox="0 0 48 48" width="24px" height="24px"><path d="M 23.498047 6.8320312 A 1.50015 1.50015 0 0 0 21.998047 8.3320312 L 21.998047 12.712891 C 18.08203 14.382588 14.754824 17.102301 12.341797 19.380859 L 5.1972656 15.367188 A 1.50015 1.50015 0 0 0 2.9628906 16.673828 L 2.9628906 31.322266 A 1.50015 1.50015 0 0 0 5.1972656 32.628906 L 12.341797 28.615234 C 14.75497 30.89467 18.081756 33.614173 21.998047 35.283203 L 21.998047 39.662109 A 1.50015 1.50015 0 0 0 23.498047 41.162109 C 26.980483 41.162109 29.943859 39.127362 31.4375 36.216797 C 35.307824 35.233852 38.56108 32.838955 40.902344 30.458984 C 42.127691 29.213379 43.108134 27.976855 43.806641 26.916016 C 44.155894 26.385596 44.434916 25.902142 44.644531 25.453125 C 44.854147 25.004108 45.039062 24.662949 45.039062 24 C 45.039062 23.337051 44.854143 22.995893 44.644531 22.546875 C 44.43492 22.097857 44.155885 21.614425 43.806641 21.083984 C 43.108151 20.023103 42.127647 18.786841 40.902344 17.541016 C 38.557937 15.157343 35.300938 12.755676 31.423828 11.773438 C 29.930914 8.8699046 26.977512 6.8320312 23.498047 6.8320312 z M 24.998047 10.0625 C 26.8507 10.544876 28.355712 11.856298 29.058594 13.609375 A 1.50015 1.50015 0 0 0 30.144531 14.519531 C 30.317958 14.555661 30.358183 14.561509 30.253906 14.537109 A 1.50015 1.50015 0 0 0 30.28125 14.542969 C 33.545666 15.245679 36.587027 17.431431 38.763672 19.644531 C 39.851994 20.751081 40.725114 21.858085 41.300781 22.732422 C 41.588615 23.16959 41.802186 23.551647 41.925781 23.816406 C 41.963026 23.89619 41.97141 23.941229 41.988281 24 C 41.97141 24.05877 41.963025 24.103815 41.925781 24.183594 C 41.80219 24.448338 41.588606 24.828498 41.300781 25.265625 C 40.725131 26.139879 39.851949 27.247246 38.763672 28.353516 C 36.587117 30.566055 33.545333 32.752256 30.28125 33.453125 A 1.50015 1.50015 0 0 0 30.255859 33.458984 C 30.356787 33.435514 30.321709 33.440016 30.162109 33.472656 A 1.50015 1.50015 0 0 0 29.070312 34.386719 C 28.368509 36.141231 26.856541 37.449858 24.998047 37.931641 L 24.998047 34.335938 A 1.50015 1.50015 0 0 0 24.013672 32.927734 C 20.009564 31.465293 16.023676 28.12948 13.568359 25.724609 A 1.50015 1.50015 0 0 0 11.785156 25.488281 L 5.9628906 28.757812 L 5.9628906 19.238281 L 11.785156 22.507812 A 1.50015 1.50015 0 0 0 13.568359 22.271484 C 16.023863 19.8674 20.009305 16.53181 24.013672 15.068359 A 1.50015 1.50015 0 0 0 24.998047 13.660156 L 24.998047 10.0625 z M 36.5 21 A 1.5 1.5 0 0 0 36.5 24 A 1.5 1.5 0 0 0 36.5 21 z"/></svg>