<?xml version="1.0" encoding="utf-8"?>
<!-- Generator: Adobe Illustrator 22.0.1, SVG Export Plug-In . SVG Version: 6.00 Build 0)  -->
<svg version="1.1" id="Layer_2" xmlns="http://www.w3.org/2000/svg" xmlns:xlink="http://www.w3.org/1999/xlink" x="0px" y="0px"
	 viewBox="0 0 256 256" style="enable-background:new 0 0 256 256;" xml:space="preserve">
<style type="text/css">
	.st0{fill:#3A312A;}
	.st1{fill:#D7E057;}
	.st2{fill:#FCE8CB;}
	.st3{fill:#8AC6DD;}
	.st4{fill-rule:evenodd;clip-rule:evenodd;fill:#FCE8CB;}
	.st5{fill:#F5978A;}
	.st6{fill:#87796F;}
	.st7{fill:#F16C7A;}
	.st8{fill:#68A8BC;}
	.st9{fill:#B9BC39;}
	.st10{fill:#CE4E61;}
	.st11{fill:#6B5B51;}
	.st12{fill:#CCAE8B;}
	.st13{fill-rule:evenodd;clip-rule:evenodd;fill:#F16C7A;}
</style>
<g>
	<g>
		<g>
			<rect x="27.549" y="229.712" class="st6" width="22" height="9.667"/>
		</g>
	</g>
	<g>
		<g>
			<path class="st0" d="M49.549,228.212h-22c-0.828,0-1.5,0.672-1.5,1.5v9.666c0,0.828,0.672,1.5,1.5,1.5h22
				c0.828,0,1.5-0.672,1.5-1.5v-9.666C51.049,228.884,50.377,228.212,49.549,228.212z M48.049,237.878h-19v-6.666h19V237.878z"/>
		</g>
	</g>
	<g>
		<g>
			<rect x="204.736" y="229.712" class="st6" width="22" height="9.667"/>
		</g>
	</g>
	<g>
		<g>
			<path class="st0" d="M226.736,228.212h-22c-0.828,0-1.5,0.672-1.5,1.5v9.666c0,0.828,0.672,1.5,1.5,1.5h22
				c0.828,0,1.5-0.672,1.5-1.5v-9.666C228.236,228.884,227.564,228.212,226.736,228.212z M225.236,237.878h-19v-6.666h19V237.878z"
				/>
		</g>
	</g>
	<g>
		<g>
			<path class="st1" d="M231.314,173.399H24.158c-4.001,0-7.245,3.243-7.245,7.245v41.904c0,4.001,3.244,7.245,7.245,7.245h207.156
				c4.001,0,7.245-3.243,7.245-7.245v-41.904C238.559,176.643,235.315,173.399,231.314,173.399z"/>
		</g>
	</g>
	<g>
		<g>
			<path class="st0" d="M231.314,171.899h-56.529c-0.828,0-1.5,0.672-1.5,1.5s0.672,1.5,1.5,1.5h56.529
				c3.168,0,5.745,2.577,5.745,5.744v41.904c0,3.168-2.577,5.745-5.745,5.745H24.158c-3.168,0-5.745-2.577-5.745-5.745v-41.904
				c0-3.167,2.577-5.744,5.745-5.744h138.195c0.828,0,1.5-0.672,1.5-1.5s-0.672-1.5-1.5-1.5H24.158
				c-4.822,0-8.745,3.923-8.745,8.744v41.904c0,4.822,3.923,8.745,8.745,8.745h207.156c4.822,0,8.745-3.923,8.745-8.745v-41.904
				C240.06,175.822,236.137,171.899,231.314,171.899z"/>
		</g>
	</g>
	<g>
		<g>
			<path class="st7" d="M147.094,138.959c-5.159-5.167-12.025-8.012-19.335-8.012c-7.332,0-14.219,2.866-19.392,8.07
				c-2.726,2.742-2.712,7.174,0.03,9.899c1.365,1.357,3.15,2.035,4.935,2.035c1.798,0,3.597-0.689,4.965-2.065
				c2.524-2.54,5.885-3.939,9.462-3.939c3.565,0,6.914,1.387,9.429,3.905c2.732,2.736,7.165,2.738,9.899,0.007
				C149.822,146.127,149.825,141.695,147.094,138.959z"/>
		</g>
	</g>
	<g>
		<g>
			<path class="st0" d="M148.155,137.9c-5.442-5.451-12.687-8.453-20.396-8.453c-7.735,0-15,3.023-20.455,8.513
				c-3.305,3.323-3.288,8.716,0.036,12.021c1.604,1.593,3.731,2.47,5.992,2.47c2.28,0,4.422-0.891,6.028-2.508
				c2.242-2.255,5.225-3.496,8.398-3.496c3.164,0,6.136,1.23,8.367,3.464c1.604,1.607,3.738,2.493,6.01,2.495h0.005
				c2.269,0,4.401-0.883,6.006-2.486c1.606-1.604,2.492-3.737,2.494-6.008C150.642,141.642,149.76,139.507,148.155,137.9z
				 M146.026,147.797c-1.038,1.038-2.418,1.609-3.886,1.609h-0.003c-1.47-0.001-2.851-0.574-3.889-1.614
				c-2.799-2.802-6.523-4.345-10.49-4.345c-3.979,0-7.717,1.556-10.526,4.381c-1.039,1.047-2.425,1.623-3.9,1.623
				c-1.463,0-2.84-0.567-3.877-1.598c-2.151-2.139-2.162-5.628-0.024-7.778c4.889-4.919,11.397-7.628,18.328-7.628
				c6.908,0,13.397,2.689,18.273,7.572c1.038,1.04,1.609,2.421,1.608,3.891C147.64,145.379,147.066,146.76,146.026,147.797z"/>
		</g>
	</g>
	<g>
		<g>
			<path class="st7" d="M177.547,107.247c-13.303-13.296-30.984-20.618-49.788-20.618c-18.829,0-36.528,7.34-49.838,20.669
				c-2.731,2.736-2.729,7.168,0.007,9.899c1.367,1.365,3.156,2.047,4.946,2.047c1.793,0,3.586-0.685,4.953-2.054
				c10.665-10.68,24.846-16.562,39.932-16.562c15.065,0,29.232,5.867,39.892,16.521c2.733,2.733,7.166,2.732,9.899-0.003
				C180.282,114.412,180.281,109.979,177.547,107.247z"/>
		</g>
	</g>
	<g>
		<g>
			<path class="st0" d="M178.607,106.187c-13.586-13.58-31.645-21.059-50.849-21.059c-19.229,0-37.306,7.497-50.899,21.109
				c-1.604,1.606-2.486,3.742-2.485,6.013c0.002,2.271,0.888,4.404,2.494,6.008c1.604,1.603,3.737,2.485,6.006,2.485
				c2.272,0,4.408-0.885,6.015-2.493c10.382-10.396,24.186-16.122,38.87-16.122c14.664,0,28.454,5.711,38.831,16.081
				c1.604,1.605,3.739,2.489,6.009,2.489c0.001,0,0.001,0,0.002,0c2.271-0.001,4.405-0.886,6.011-2.491
				c1.604-1.606,2.487-3.741,2.487-6.012C181.098,109.925,180.213,107.791,178.607,106.187z M176.489,116.086
				c-1.039,1.039-2.42,1.611-3.89,1.612h-0.001c-1.469,0-2.85-0.572-3.888-1.61c-10.943-10.937-25.487-16.96-40.952-16.96
				c-15.486,0-30.045,6.038-40.993,17.002c-1.039,1.04-2.421,1.613-3.892,1.613c-1.468,0-2.848-0.571-3.887-1.608
				s-1.612-2.418-1.613-3.887c-0.001-1.47,0.57-2.852,1.608-3.892c13.026-13.044,30.349-20.229,48.776-20.229
				c18.403,0,35.709,7.167,48.728,20.181c1.039,1.038,1.611,2.419,1.612,3.888C178.099,113.666,177.527,115.047,176.489,116.086z"/>
		</g>
	</g>
	<g>
		<g>
			<path class="st7" d="M161.877,122.919c-9.113-9.115-21.23-14.135-34.119-14.135c-12.915,0-25.051,5.039-34.171,14.188
				c-2.729,2.738-2.723,7.17,0.015,9.899c1.366,1.362,3.154,2.042,4.942,2.042c1.795,0,3.59-0.687,4.957-2.058
				c6.475-6.495,15.089-10.071,24.257-10.071c9.148,0,17.75,3.563,24.219,10.033c2.733,2.734,7.166,2.735,9.899,0.001
				C164.611,130.085,164.611,125.653,161.877,122.919z"/>
		</g>
	</g>
	<g>
		<g>
			<path class="st0" d="M162.938,121.858c-9.397-9.398-21.891-14.574-35.18-14.574c-13.317,0-25.83,5.195-35.233,14.629
				c-3.309,3.319-3.301,8.712,0.019,12.021c1.604,1.599,3.735,2.479,6.001,2.479c2.273,0,4.411-0.887,6.02-2.499
				c6.19-6.21,14.428-9.63,23.194-9.63c8.748,0,16.973,3.407,23.158,9.594c1.604,1.605,3.739,2.49,6.009,2.49
				c0.001,0,0.002,0,0.002,0c2.271,0,4.404-0.884,6.01-2.489C166.251,130.565,166.251,125.174,162.938,121.858z M160.816,131.758
				c-1.039,1.038-2.42,1.61-3.889,1.61h-0.001c-1.469,0-2.85-0.572-3.889-1.611c-6.752-6.753-15.729-10.473-25.279-10.473
				c-9.569,0-18.562,3.733-25.318,10.512c-1.041,1.043-2.424,1.617-3.896,1.617c-1.466,0-2.845-0.57-3.884-1.604
				c-2.147-2.141-2.152-5.63-0.011-7.778c8.836-8.864,20.594-13.746,33.108-13.746c12.487,0,24.228,4.864,33.059,13.695
				C162.961,126.124,162.96,129.613,160.816,131.758z"/>
		</g>
	</g>
	<g>
		<g>
			<path class="st6" d="M47.337,63.461c-4.19,0-7.58,3.39-7.58,7.58V173.48h15.16V71.041C54.917,66.851,51.527,63.461,47.337,63.461
				z"/>
		</g>
	</g>
	<g>
		<g>
			<path class="st0" d="M47.337,61.961c-5.007,0-9.08,4.073-9.08,9.08v28.063c0,0.828,0.672,1.5,1.5,1.5s1.5-0.672,1.5-1.5V71.041
				c0-3.353,2.728-6.08,6.08-6.08s6.08,2.728,6.08,6.08V171.98h-12.16v-60.003c0-0.828-0.672-1.5-1.5-1.5s-1.5,0.672-1.5,1.5v61.503
				c0,0.828,0.672,1.5,1.5,1.5h15.16c0.828,0,1.5-0.672,1.5-1.5V71.041C56.417,66.034,52.344,61.961,47.337,61.961z"/>
		</g>
	</g>
	<g>
		<g>
			<path class="st7" d="M43.653,201.066H31.819c-1.427,0-2.583,1.157-2.583,2.583v11.833c0,1.427,1.157,2.583,2.583,2.583h11.833
				c1.427,0,2.583-1.156,2.583-2.583v-11.833C46.236,202.222,45.08,201.066,43.653,201.066z"/>
		</g>
	</g>
	<g>
		<g>
			<path class="st0" d="M43.652,199.565H31.819c-2.251,0-4.083,1.832-4.083,4.084v11.833c0,2.251,1.832,4.083,4.083,4.083h11.833
				c2.252,0,4.084-1.832,4.084-4.083v-11.833C47.736,201.397,45.904,199.565,43.652,199.565z M44.736,215.482
				c0,0.597-0.486,1.083-1.084,1.083H31.819c-0.597,0-1.083-0.486-1.083-1.083v-11.833c0-0.598,0.486-1.084,1.083-1.084h11.833
				c0.598,0,1.084,0.486,1.084,1.084V215.482z"/>
		</g>
	</g>
	<g>
		<g>
			<path class="st7" d="M71.653,201.066H59.819c-1.427,0-2.583,1.157-2.583,2.583v11.833c0,1.427,1.157,2.583,2.583,2.583h11.833
				c1.427,0,2.583-1.156,2.583-2.583v-11.833C74.236,202.222,73.08,201.066,71.653,201.066z"/>
		</g>
	</g>
	<g>
		<g>
			<path class="st0" d="M71.652,199.565H59.819c-2.251,0-4.083,1.832-4.083,4.084v11.833c0,2.251,1.832,4.083,4.083,4.083h11.833
				c2.252,0,4.084-1.832,4.084-4.083v-11.833C75.736,201.397,73.904,199.565,71.652,199.565z M72.736,215.482
				c0,0.597-0.486,1.083-1.084,1.083H59.819c-0.597,0-1.083-0.486-1.083-1.083v-11.833c0-0.598,0.486-1.084,1.083-1.084h11.833
				c0.598,0,1.084,0.486,1.084,1.084V215.482z"/>
		</g>
	</g>
	<g>
		<g>
			<path class="st7" d="M99.653,201.066H87.819c-1.427,0-2.583,1.157-2.583,2.583v11.833c0,1.427,1.157,2.583,2.583,2.583h11.833
				c1.427,0,2.583-1.156,2.583-2.583v-11.833C102.236,202.222,101.08,201.066,99.653,201.066z"/>
		</g>
	</g>
	<g>
		<g>
			<path class="st0" d="M99.652,199.565H87.819c-2.251,0-4.083,1.832-4.083,4.084v11.833c0,2.251,1.832,4.083,4.083,4.083h11.833
				c2.252,0,4.084-1.832,4.084-4.083v-11.833C103.736,201.397,101.904,199.565,99.652,199.565z M100.736,215.482
				c0,0.597-0.486,1.083-1.084,1.083H87.819c-0.597,0-1.083-0.486-1.083-1.083v-11.833c0-0.598,0.486-1.084,1.083-1.084h11.833
				c0.598,0,1.084,0.486,1.084,1.084V215.482z"/>
		</g>
	</g>
	<g>
		<g>
			<circle class="st7" cx="211.486" cy="201.816" r="12"/>
		</g>
	</g>
	<g>
		<g>
			<path class="st0" d="M211.486,188.315c-7.444,0-13.5,6.056-13.5,13.5s6.056,13.5,13.5,13.5s13.5-6.056,13.5-13.5
				S218.931,188.315,211.486,188.315z M211.486,212.315c-5.79,0-10.5-4.71-10.5-10.5s4.71-10.5,10.5-10.5s10.5,4.71,10.5,10.5
				S217.276,212.315,211.486,212.315z"/>
		</g>
	</g>
	<g>
		<g>
			<path class="st1" d="M46.581,26.299c-0.974,11.564-13.025,13.389-13.025,13.389c10.347,0.487,12.925,14.059,12.925,14.059
				c0.221-9.677,13.321-14.202,13.321-14.202C49.989,38.958,46.581,26.299,46.581,26.299z"/>
		</g>
	</g>
	<g>
		<g>
			<path class="st0" d="M59.893,38.048c-8.604-0.515-11.832-12.024-11.863-12.141c-0.19-0.702-0.853-1.159-1.584-1.102
				c-0.725,0.066-1.298,0.642-1.359,1.367c-0.86,10.215-11.313,11.964-11.754,12.032c-0.763,0.116-1.313,0.791-1.273,1.561
				c0.04,0.771,0.657,1.385,1.428,1.421c9.027,0.425,11.498,12.718,11.521,12.843c0.138,0.711,0.76,1.217,1.473,1.217
				c0.042,0,0.084-0.002,0.126-0.005c0.765-0.064,1.357-0.693,1.375-1.46c0.193-8.509,12.191-12.777,12.313-12.819
				c0.676-0.234,1.092-0.914,0.994-1.622C61.189,38.631,60.606,38.09,59.893,38.048z M46.326,48.394
				c-1.356-3.131-3.709-6.907-7.587-8.876c2.931-1.405,6.409-3.914,8.202-8.273c1.551,3.071,4.199,6.88,8.334,8.723
				C52.268,41.606,48.353,44.372,46.326,48.394z"/>
		</g>
	</g>
	<g>
		<g>
			<path class="st1" d="M24.882,43.279c-0.689,8.179-9.212,9.47-9.212,9.47c7.318,0.344,9.142,9.944,9.142,9.944
				c0.156-6.844,9.422-10.045,9.422-10.045C27.293,52.233,24.882,43.279,24.882,43.279z"/>
		</g>
	</g>
	<g>
		<g>
			<path class="st0" d="M34.323,51.151c-5.766-0.345-7.972-8.186-7.994-8.265c-0.189-0.702-0.86-1.161-1.581-1.102
				c-0.726,0.065-1.3,0.643-1.361,1.368c-0.578,6.871-7.646,8.066-7.941,8.113c-0.763,0.116-1.313,0.791-1.273,1.561
				c0.04,0.771,0.657,1.385,1.428,1.421c6.034,0.284,7.723,8.645,7.738,8.727c0.136,0.713,0.759,1.22,1.473,1.22
				c0.041,0,0.083-0.002,0.125-0.005c0.765-0.063,1.358-0.693,1.376-1.461c0.13-5.709,8.331-8.634,8.412-8.662
				c0.676-0.234,1.093-0.913,0.996-1.622C35.622,51.735,35.037,51.193,34.323,51.151z M24.738,57.946
				c-0.924-1.886-2.34-3.946-4.446-5.279c1.855-1.041,3.697-2.63,4.87-4.917c1.058,1.874,2.654,3.954,4.941,5.224
				C28.254,54.074,26.114,55.714,24.738,57.946z"/>
		</g>
	</g>
	<g>
		<g>
			<path class="st1" d="M24.882,16.622c-0.689,8.179-9.212,9.47-9.212,9.47c7.318,0.345,9.142,9.944,9.142,9.944
				c0.156-6.844,9.422-10.045,9.422-10.045C27.293,25.576,24.882,16.622,24.882,16.622z"/>
		</g>
	</g>
	<g>
		<g>
			<path class="st0" d="M34.323,24.494c-5.766-0.345-7.972-8.186-7.994-8.265c-0.189-0.702-0.86-1.16-1.581-1.102
				c-0.726,0.065-1.3,0.643-1.361,1.368c-0.578,6.87-7.646,8.066-7.941,8.113c-0.763,0.116-1.313,0.791-1.273,1.561
				c0.04,0.771,0.657,1.385,1.428,1.421c6.034,0.284,7.723,8.645,7.738,8.727c0.136,0.713,0.759,1.22,1.473,1.22
				c0.041,0,0.083-0.002,0.125-0.005c0.765-0.063,1.358-0.693,1.376-1.461c0.13-5.709,8.331-8.634,8.412-8.662
				c0.676-0.234,1.093-0.913,0.996-1.622C35.622,25.078,35.037,24.536,34.323,24.494z M24.738,31.289
				c-0.924-1.886-2.34-3.947-4.446-5.279c1.855-1.042,3.697-2.63,4.87-4.917c1.058,1.874,2.654,3.954,4.941,5.224
				C28.254,27.417,26.115,29.057,24.738,31.289z"/>
		</g>
	</g>
	<g>
		<g>
			<path class="st11" d="M47.337,64.961c-1.02,0-1.99,0.25-2.83,0.7c1.93,1.03,3.24,3.05,3.24,5.38V171.98h5.67V71.041
				C53.417,67.691,50.687,64.961,47.337,64.961z"/>
		</g>
	</g>
	<g>
		<g>
			<path class="st6" d="M208.135,63.461c-4.19,0-7.58,3.39-7.58,7.58V173.48h15.16V71.041
				C215.715,66.851,212.325,63.461,208.135,63.461z"/>
		</g>
	</g>
	<g>
		<g>
			<path class="st0" d="M208.135,61.961c-5.007,0-9.08,4.073-9.08,9.08v28.063c0,0.828,0.672,1.5,1.5,1.5s1.5-0.672,1.5-1.5V71.041
				c0-3.353,2.728-6.08,6.08-6.08s6.08,2.728,6.08,6.08V171.98h-12.16v-60.003c0-0.828-0.672-1.5-1.5-1.5s-1.5,0.672-1.5,1.5v61.503
				c0,0.828,0.672,1.5,1.5,1.5h15.16c0.828,0,1.5-0.672,1.5-1.5V71.041C217.215,66.034,213.142,61.961,208.135,61.961z"/>
		</g>
	</g>
	<g>
		<g>
			<path class="st11" d="M208.135,64.961c-1.02,0-1.99,0.25-2.83,0.7c1.93,1.03,3.24,3.05,3.24,5.38V171.98h5.67V71.041
				C214.215,67.691,211.485,64.961,208.135,64.961z"/>
		</g>
	</g>
	<g>
		<g>
			<path class="st9" d="M231.316,174.897h-12.16c3.17,0,5.75,2.58,5.75,5.75v19.72c0.05,0.48,0.08,0.96,0.08,1.45
				c0,0.49-0.03,0.97-0.08,1.45v19.28c0,3.17-2.58,5.75-5.75,5.75h12.16c3.17,0,5.74-2.58,5.74-5.75v-41.9
				C237.056,177.477,234.486,174.897,231.316,174.897z"/>
		</g>
	</g>
</g>
</svg>
