<svg fill="#000000" xmlns="http://www.w3.org/2000/svg"  viewBox="0 0 48 48" width="24px" height="24px"><path d="M 21.5 3.9980469 A 1.50015 1.50015 0 0 0 21.462891 4 L 20.5 4 A 1.50015 1.50015 0 0 0 20 6.9199219 L 20 10.318359 C 20 10.435522 19.95197 10.570723 19.8125 10.707031 C 18.696902 11.794369 18 13.325463 18 15 C 18 16.096515 18.299906 17.134841 18.820312 18.019531 C 19.087564 18.474205 19.018115 19.135581 18.615234 19.619141 L 16.042969 22.705078 C 15.369325 23.513751 15 24.535463 15 25.587891 L 15 26.193359 A 1.50015 1.50015 0 0 0 15 26.822266 L 15 39.5 C 15 41.967501 17.032499 44 19.5 44 L 28.5 44 C 30.967501 44 33 41.967501 33 39.5 L 33 26.824219 A 1.50015 1.50015 0 0 0 33 26.203125 L 33 25.585938 C 33 24.53351 32.630991 23.513282 31.958984 22.705078 A 1.50015 1.50015 0 0 0 31.957031 22.705078 L 29.384766 19.619141 C 28.983308 19.137804 28.911286 18.475726 29.177734 18.019531 L 29.179688 18.017578 C 29.700005 17.133591 30 16.095586 30 15 C 30 13.32449 29.302282 11.79253 28.185547 10.705078 A 1.50015 1.50015 0 0 0 28.185547 10.703125 C 28.049294 10.570685 28 10.437323 28 10.318359 L 28 6.9199219 A 1.50015 1.50015 0 0 0 27.5 4 L 26.552734 4 A 1.50015 1.50015 0 0 0 26.5 3.9980469 L 21.5 3.9980469 z M 23 7 L 25 7 L 25 10.318359 C 25 11.309395 25.434003 12.212002 26.09375 12.853516 C 26.655015 13.400064 27 14.14951 27 15 C 27 15.553485 26.852712 16.056523 26.59375 16.496094 A 1.50015 1.50015 0 0 0 26.591797 16.498047 C 25.627726 18.139784 25.926119 20.153156 27.082031 21.539062 L 27.080078 21.539062 L 29.337891 24.246094 C 27.585464 23.801061 25.79478 23.556641 24 23.556641 C 22.205849 23.556641 20.415905 23.801372 18.664062 24.246094 L 20.919922 21.541016 C 22.075041 20.154576 22.370999 18.139373 21.40625 16.498047 C 21.146656 16.056737 21 15.553485 21 15 C 21 14.14951 21.344985 13.400064 21.90625 12.853516 A 1.50015 1.50015 0 0 0 21.908203 12.851562 C 22.562686 12.211918 23 11.311197 23 10.318359 L 23 7 z M 24 26.554688 C 26.028929 26.554688 28.052843 26.905857 30 27.566406 L 30 35.082031 C 26.088449 36.272893 21.911551 36.272893 18 35.082031 L 18 27.566406 C 19.947157 26.905857 21.971071 26.554688 24 26.554688 z M 22.5 29 A 1.50015 1.50015 0 1 0 22.5 32 L 25.5 32 A 1.50015 1.50015 0 1 0 25.5 29 L 22.5 29 z M 18 38.185547 C 21.934443 39.220095 26.065557 39.220095 30 38.185547 L 30 39.5 C 30 40.346499 29.346499 41 28.5 41 L 19.5 41 C 18.653501 41 18 40.346499 18 39.5 L 18 38.185547 z"/></svg>