<svg version="1.2" xmlns="http://www.w3.org/2000/svg" viewBox="0 0 703 1156" width="703" height="1156">
	<title>-e-</title>
	<style>
		.s0 { fill: #ffce4d } 
		.s1 { fill: #3e469c } 
		.s2 { fill: #1d1e1b } 
	</style>
	<g id="-e-">
		<path fill-rule="evenodd" class="s0" d="m76.4 1093.4c3.6-10.9 2-21.2 4.4-36.5 2.4-15.2-0.8-59 0-75.3 0.8-16.3 2.8-33.8 8.1-46.9 5.3-13.1 5.5-34.8 7.3-40.2 1.8-5.4 4.1-4.3 8.9 1.5 4.9 5.8 7.2 14.8 10.3 23.9 3.1 9.1 5.2 23.7 5.2 33 0 9.2 1.7 6.3 3.6 1.5 1.9-4.8 1.6-4 2.8-13.3 1.2-9.3 0.7-8.5-3.6-23.1-4.4-14.6-5.9-10.8-10.3-18.7-4.5-7.8-6.9-10.1-10.7-14.7-3.8-4.6-12.4-23.5-10.2-33.1 2.2-9.6 4.2-7.5 9.9-7.1 5.8 0.3 5.1 4.7 8.7 11.4 3.7 6.6 6.9 23.9 12.2 26.5 5.4 2.5 16.2-2 33.9-4.6 17.8-2.6 3.1-5.8-13.3-5-16.3 0.8-12 0.5-16.2-4.7-4.2-5.3-6.3-8.7-11-19.3-4.7-10.7 8.1-8.4 24.7-8.2 16.6 0.2 45.8-8 58.3-8.5 12.4-0.4 22.2-0.7 28.6 6.4 6.3 7.2 10.5 7.3 10.3 16.8-0.2 9.5-1 6.3-13.9 7.8-13 1.5-7.1 2.7-27.6 7.5-20.4 4.8-44.3 8.4-21.8 7.1 22.5-1.2 27.8-5 41.7-6 14-1 15.3-0.1 21.9 6 6.5 6.2 5.3 9.4 8.5 24.3 3.1 14.9 7.1 19 11.2 34.8 4.1 15.7 8.3 13 10 27.2 1.7 14.2-2.4 26-2 37.7 0.5 11.6-1.6 28-4.6 46.4-3 18.5 1.9 31 1.1 46.6-0.7 15.7-5.3 14.1-18.9 21.6-13.5 7.4-55.9 16.3-75.9 23.2-20 6.9-13.8-1-25.1 1-11.3 2.1-9.1-16.7-9.3-28.7-0.1-12-2.8-30.8-0.4-43.2 2.4-12.3-2.8-25.5-5.3-46-2.4-20.6-2-31.6-3.6-53.2-1.6-21.6-5.2 9.5-4.2 38.1 1.1 28.6 2.2 51.4 2.9 66.9 0.8 15.6 2.3 34.3 4.5 50.2 2.1 15.9 7.1 25 1.5 25.8-5.6 0.8-9.2 3.8-15.5 0-6.4-3.8-10.8-8.8-16.6-12.4-5.8-3.6-24-19.6-24-19.6 0 0-0.1-13.9 3.5-24.9zm73.1-122.7c0 0 2.2 27.7 2.3 35.3 0.1 7.6 2.4 52.4 2.6 65.9 0.2 13.5-1.5 22.6 5.1 22.2 6.5-0.4 26.5-4.4 37.1-6.9 10.6-2.5 51.1-9.4 55.6-14 4.5-4.5 3.7-14.8 3-25.4-0.7-10.6-5.1-63.4-6.6-72.7-1.4-9.4 0.1-11-0.7-16.3-0.7-5.3 0-6.6-7.5-7.3-7.5-0.7-48 8.2-56.2 8.6-8.2 0.3-24.6 3.4-28.2 4.7-3.5 1.4-6.5 5.9-6.5 5.9z"/>
		<path fill-rule="evenodd" class="s1" d="m272.2 982c0.7-16.9 0.2-26.5-1.3-49.6-1.6-23.2-7.8-45.7-14.7-54-6.9-8.3-1.2-11.6-1.5-20.1-0.3-8.4-9.8-13.3-19.9-25.2-10-11.9-61.7-1.6-76.1 2.3-14.4 3.9-3.4-6.1 6-21.1 9.3-15 7.7-24.4 13.3-38 5.5-13.6 8.6-26.6 26.3-33.2 17.6-6.7 59.5-27.4 92.5-46.4 32.9-18.9 42.5-27.3 56.8-37.3 14.2-10.1 13.4 1.9 21.1 2.8 7.7 0.9 4.7 5.4 11.2 9.2 6.5 3.7 16.9-10.3 17.6 3.5 0.8 13.8-3.1 58.2-3.2 77.7-0.1 19.5 0.5 15.3-4.1 23.7-4.6 8.4-3.6 16-3.8 37.5-0.2 21.5 0.9 103.5 0.3 111.2-0.6 7.7-12.4 5.5-20.8 10.7-8.3 5.3-2.6 5.8-9.7 14.8-7.1 9 0.5 6.5 7.2 13.1 6.8 6.7-2.5 14-7.6 23.8-5.2 9.8-12.5 25.2-12.5 25.2l-76.8 5.1c0 0-1.1-18.8-0.3-35.7zm218.4-170.4c-0.3-21.5 4.4-28.9-3.2-42-7.6-13.1-3.5-45-2.7-80.6 0.7-35.5 19.3 2.2 32.3 18.4 13 16.3 22.2 46.4 30.3 64.1 8.1 17.7 4.2 23.6 2 54-2.3 30.4 8.9 39.3 15.6 87.2 6.6 47.9 8 38 9.6 66.7 1.6 28.7-3.4 25.5-13.7 25.2-10.2-0.2-2.1-22.1-7.8-32-5.7-9.9-26.1-14-36.5-13.3-10.3 0.6-17.4 2.2-10.9-8.8 6.5-10.9 2.5-8.3-7.6-12.9-10.1-4.6-9.2-20.1-9.2-20.1 0 0 2.1-84.5 1.8-105.9zm34.4-249.8c-13-14.4-18.6-25.7-37.4-33.9-18.9-8.1-58.4-2.9-79.6 2.8-21.1 5.8-21.9-0.9-44.7 2-22.8 2.9-32.4 18.2-44.4 28.9-12.1 10.6-10 19.2-13.4 29.4-3.4 10.1-34.9 11.6-49.2 16.7-14.4 5 4.1-16 18.5-40.3 14.3-24.3 16.7-29 35.1-59.9 18.4-30.9 11.7-32.4 18.2-45.8 6.4-13.4 10.7-9.8 27.3-15.3 16.6-5.5 16.9-8.3 37.9-5.2 21 3.1 31.7-1.2 63.1 10.7 31.3 11.9 61.7 14.3 71.1 17.9 9.4 3.6 14.3 16.1 23.6 18.2 9.3 2.2 9.6 6.1 7.6 21.1-2.1 15.1 0.5 49.6 2 67.4 1.5 17.8 4.4 36.3 4.4 36.3 0 0-27-36.7-40.1-51z"/>
		<path fill-rule="evenodd" class="s0" d="m458.1 113.5c3.3 9.7 8.5 25.7 14.9 36 6.4 10.3 14.5 17.8 31.1 23.5 16.6 5.7 74.2 24.9 92.9 25.4 18.6 0.4 27.1 2.3 33.6-5.9 6.6-8.2 6.4-15.2 5-23.4-1.3-8.2 0.1-6.9-17.6-6.3-17.7 0.6-21.6-2.9-43.2-8.2-21.6-5.3-5.5-3.4 18.2-2.2 23.6 1.2 26.2 5 32.2-8.2 5.9-13.2 4.8-24.1 9-39.4 4.2-15.2 5.4-16.6-9.4-26-14.8-9.3-33.5-17-54-25.1-20.5-8.1-22-13.8 14.3-1 36.3 12.8 36 16.1 43.4 17.7 7.3 1.6 8.6-0.1 0.7-9.1-7.9-9-0.9-1.1-21.2-22.1-20.3-20.9-28.5-24.1-47.7-29-19.2-5-43.9-5.6-62.1-3.6-18.3 2-35.1 15.1-45.7 25.1-10.6 10-17.6 31.6-20.2 38.7-2.7 7-4.4 8.9 3.2 17.6 7.6 8.7 19.4 15.9 22.6 25.5z"/>
		<path fill-rule="evenodd" class="s2" d="m103.9 1138.6c1.6 2.3 2.9 4 3.8 5.9 0.4 0.9-0.2 2.2-0.4 3.3-0.9-0.2-1.9-0.2-2.6-0.7q-13.4-9.4-26.8-19c-9.4-6.7-10.1-16.5-7.4-26.1 2.4-8.9 3.9-17.8 5.3-26.8 2.4-14.9 0.9-29.7 1.5-44.6 0.3-7.9-0.2-8.3-7.9-8.1-16.1 0.4-32.3 0.9-48.4 2-5.6 0.4-11.1 2.6-16.7 3.6-1.2 0.3-2.7-0.7-4.1-1.2 0.9-0.8 1.7-2 2.8-2.5 8.1-3.8 16.9-5 25.6-5.7 13.2-1.1 26.4-1.3 39.6-2.1 8-0.5 9.2-2 9.2-9.9 0-6.4 0.2-12.9-0.1-19.3-0.2-4.5-1.8-9.1-1.7-13.6 0.3-13.8 3.5-27.1 8.4-39.8 4.9-12.6 8.9-25.2 8.8-38.8 0-0.7-0.3-1.6 0-1.9 8.7-9.1 0.7-17-2.1-24.9-3.3-9.4-4-9.8-1.7-18.9 0.3-1.4 1.2-2.9 2.3-3.8 0.6-0.4 2.2 0.5 3.4 0.8 0.1 0.1 0.1 0.7 0 1-2.3 12.6 4.8 23 8.7 34 4.2 11.4 9.9 22.2 14 33.7 3.3 9 6.6 18.2 6.4 28.3-0.5 21.5-0.4 43-0.1 64.5 0.2 13.9 1.1 27.8 1.9 41.7 0.3 4.5 3.2 10.2 1.4 13.3-2.4 4.3 1 7.4-0.4 11.3-1.4 4 0.8 9.1 0.8 13.8-0.1 11.8 1.5 23.4 3.7 35.1 1.5 8.4 0.4 17.3 0.2 25.9-0.1 5.9-6.2 8.9-11.3 5.6-1.6-1-2.8-2.7-4.1-4-0.6-0.7-1.2-1.4-1.8-2.1 0.9-0.2 1.7-0.7 2.6-0.8 2.2-0.2 5.9 0.2 6.2-0.6 0.9-2.5 0.7-5.6 0.4-8.3-0.2-2.7-1.5-5.3-1.5-8-0.1-7.7-1.3-15.2-3.8-22.6-0.5-1.4-0.1-3.1-0.1-4.7-0.7-39.6-1.4-79.2-1.9-118.8-0.2-12.2-0.8-24.4 0.1-36.6 1.2-15.3-5.6-28.4-9.9-42.2-1.1-3.7-2.9-7.2-4.6-10.7-0.4-0.8-1.3-1.3-2-2-0.3 0.7-0.9 1.5-1 2.3-0.1 2.8-0.2 5.8 0 8.6 0.8 11-2.8 21-6.3 31.2-3.1 9-4.6 18.6-7.3 27.8-1.9 6.1 0.1 11.8 0 17.7-0.5 31.5-0.8 63.1-2.1 94.6-0.4 9.9-2.6 19.8-5.9 29.3-3.5 10.2-2.3 10.6 6.6 16.3 7.2 4.6 16.2 7.9 20.3 17.5zm439.8-107c-4.9 3-9.3 5.6-13.7 8.2-0.9 0.5-1.8 0.9-2.8 1.3 0-1.5-0.7-3.5 0.1-4.4 1.3-1.5 3.3-2.5 5.2-3.5 10-5.5 13.9-14.2 15.9-25.2 1.2-6.2 0.6-12.6-0.9-17.6-2.4-8.3-8-16.2-15.5-21.3-6.4-4.4-14.3-5.4-22.2-4.5-1 0.1-2 1.1-3.1 1.7-4.8 2.9-2.1 8.7-4.7 12.6-0.5 0.8 2.1 4.2 3.7 5.9 7.2 7.8 9.5 17.9 13.4 27.3 0.8 1.9 1.5 3.9 1.9 5.9 0.5 2.7 0.7 5.5 1 8.3 2.7-2.1 5.5-4 8.1-6.2 2.6-2.3 5.1-4.9 7.5-7.5 0.5-0.6 0.9-2.3 0.7-2.4-0.9-0.6-2.1-1.3-3.2-1.2-2.6 0.4-5.2 1.4-7.9 1.8-1.3 0.1-2.7-0.7-4.1-1 1.2-0.9 2.3-2.2 3.7-2.7 2.2-0.9 4.6-1.2 6.8-2.1 1.9-0.8 3.6-2.2 5.4-3.4 2.9-2.1-0.2-3.6-0.4-5.4-0.6-4.4 0.4-8.9-4.4-11.8-6.4-3.9-11.8-9.6-19.9-10.2-0.9 0-2.1 0.3-2.8-0.1-1.4-0.6-2.5-1.7-3.8-2.6 1.4-1 2.6-2.5 4.2-2.9 1.8-0.6 4-0.7 5.7-0.1 7.4 3 15.8 4.3 19.6 13 1.6 3.6 5.9 6.1 6.7 9.6 1.1 5.2 0.8 10.9 0.2 16.3-1 8.6-3.1 16.9-12.3 20.9-2.5 1.1-4.8 2.8-6.7 4.7-1.7 1.7-3.7 3.9-3.9 6-1.4 13.5-10 20.8-21.5 25.9-12.7 5.6-25.9 10.5-39.6 11.2-13.7 0.6-27.6 1-41.7-1.1-11.8-1.8-23-5-34.3-8.3-17.5-5.1-31-15-35.1-34.1-0.9-3.9-1.5-7.9-1.4-11.9 0.1-3.6-1.2-4.9-4.4-4-16.7 4.6-34.1-0.8-50.9 3.6-3.2 0.8-7.1-1.4-10.7-1.6-4.8-0.4-7.6 1.7-7.3 6.6 0.8 15.2-1.7 30.3 1.4 45.6 1.9 8.9 0.8 18.6 0.2 27.9-0.5 7.4-6.4 11.4-12.8 12.1-9.8 1.1-17.6 6.5-25.4 11.1-11.1 6.6-22.6 10.4-35.4 12.6-15.9 2.8-31.5 7.6-47.2 11.7-3.7 0.9-7.3 2.5-11.1 3.3-1.5 0.3-3.3-0.8-4.9-1.3 1-1.4 1.7-3.6 3.1-4.2 7.9-3.5 15.8-7.2 24-9.6 11-3.2 22.3-5.2 33.4-7.9 7.3-1.8 14.5-3.8 21.7-5.8 2-0.6 4.4-1 5.8-2.3 9.1-9 21.7-11.3 32.6-16.8 4.6-2.3 7-4.5 6.8-9.7-0.8-13.9-1.7-27.8-1.9-41.7-0.1-7.7 2.9-15.9 1.2-23.1-1.9-7.7-0.3-15.1-1.3-22.6-0.6-4.2 1.3-8.8-1.9-12.7-0.6-0.8-0.4-2.6 0-3.8 3-9.2 1.5-18.8 1.9-28.2 0.1-1 0.8-2 1.3-3.1 1.3 0.8 3 1.2 3.7 2.4 0.8 1.1 0.7 2.9 0.7 4.5q1 17.6 2 35.2c0 0.3-0.1 0.6 0 0.9 0.8 3.6 0.7 7.9 2.8 10.3 1.2 1.3 6-1 9.3-1.1 4.5-0.3 9-0.2 13.5-0.1 4 0.2 7.4-1.9 12-0.4 5.6 1.7 12.2-0.4 18.2 0.6 5.7 1 10.9-2.9 16.8-0.7 1.2 0.4 5.1-3.8 6.3-6.5 3.7-8.3 7.9-16.2 13.7-23.3 0.5-0.6 0.4-2.2 0.9-2.3 1.2-0.4 2.6-0.2 3.8-0.2-0.2 0.9-0.3 1.8-0.7 2.7-2.2 4.8-4.2 9.9-6.8 14.5-7.5 12.9-8.7 26.5-4.9 40.7 0.6 2.2 1.9 4.5 3.5 6.3 7.5 8.8 16.2 15.9 27.8 18.8 11.8 2.9 23.3 6.3 35.3 8.1 11.8 1.9 23.4 1.6 35 1.1 10.2-0.3 20.9-2 30.2-5.9 7.7-3.2 14.7-9.5 20.1-16.1 3.8-4.6 5.7-11.7 4.2-18.3-1.4-6.1-3.2-12.2-5.6-17.9-2.7-6.6-6.2-12.9-9.4-19.2-3.2-6.2-4.2-6-11.6-5.3-12.9 1.3-25.7 5.5-38.9 3.9-17.3-2.1-35-1.5-51.7-7.7-2.3-0.9-4.1-2.8-6.1-4.2 2.5-0.5 5.4-2 7.7-1.4 20.7 5.5 42 6.7 63.2 5.4 10.3-0.7 20.9-2.3 30.7-7.2 4.1-2 4.9-5.2 6.2-8.2 1.5-3.6-0.1-4.5-4.6-3.7-4.8 0.7-9.7 0.5-14.7 1.7-14.5 3.5-29.7 3.4-44.4 1.9-16.2-1.7-32.7-2.6-48.5-8.4-3.1-1.2-7.7 1.6-11.6 2.7-0.3 0-0.3 1.8 0 2.6 1.3 2.9 4.2 8 3.8 8.3-4.6 3.1-6.4-1.7-9.1-4-2.2-1.9-4.1-4-6.1-6.1-2.5-2.5-6.5-4.8-6.9-7.6-0.2-2.4 4.7-5 5.6-8 1.5-4.7 3.8-9.6 7.9-11 6.6-2.2 11-7.3 17.1-9.8 2.5-1 3.8-1.8 3.8-5.1-0.2-29.3 0.9-58.6-0.6-87.8-0.7-12.2-1.1-24.5-1.3-36.8-0.1-5.9 1-11.7 1.9-17.5 0.2-1.4 1.5-2.6 2.5-3.8 0.7-0.7 2.1-1.8 2.6-1.5 1.1 0.4 2 1.6 2.4 2.7 0.4 1.2 0.2 2.6 0.1 3.8-0.6 6.4-2.1 12.6-0.3 19.1 0.8 2.6-1.8 5.9-1.5 8.8 4 38.9 0.6 77.9 1.8 116.9 0.1 3.3-0.5 8.1 1.3 9.7 2.9 2.5 7.6 3.8 11.7 4.1 14.8 1 29.7 2.2 44.5 1.7 8.2-0.2 16.5-3.1 24.4-5.9 2.4-0.8 3-0.5 4.2 0.8-0.9 0.7-1.8 1.3-2.7 2-6.8 6.3-16 6.6-24.2 9-6.8 1.9-14.4 2.8-21.3 1.9-12.8-1.8-26.5-0.2-38.3-7.5-2.7-1.6-5.3-3.3-7.1-6.1-0.4-0.8-3.2-0.8-4.4-0.2-3.1 1.8-0.2 3.1 0.9 3.9 6.8 5.2 13.6 9.8 22.8 10.3 9.4 0.6 18.8 2.4 28.3 3.7 0.7 0.2 1.4 0.7 2.2 1.1-0.7 0.7-1.3 1.7-2.1 2-1.8 0.5-3.7 0.8-5.5 0.7-12.3-0.2-24.2-3.1-36-6.2-6.8-1.8-13.2-5.3-19.8-8-1.2-0.4-2.7-0.2-4-0.3 0.5 1.7 0.4 4 1.5 4.8 2.3 1.7 5.1 3.1 8 3.9 11.1 3.3 22.4 6.4 33.7 9.5 1.4 0.4 3.1 0.2 4.7 0.2 9 0.5 18 0 27.2 1.6 10.3 1.8 20.6-2 30.8-4.3 4.1-1 8.2-2 12.2-3.1 1.2-0.3 2.5-0.4 3.4-1.1 3.3-2.3 6.4-4.9 9.5-7.4q-4.2-3.4-8.5-6.8-1.5-1.3-2.9-2.5c1.3-0.5 2.6-1.5 3.9-1.4 3.6 0.5 7.5 0.6 10.6 2.2 5.9 3.1 6.6 11.9 1.9 17-1.3 1.4-2.8 2.6-4.1 4.1-0.8 1-1.3 2.3-2 3.4 1.5-0.1 3.4 0.5 4.5-0.3q7.3-5.2 15.7-2.6c8.3 2.6 16.4 6.5 21.1 13.8 5.1 7.9 11.7 15.8 10.1 26.6-0.5 3.5 1.6 5.3 5.2 5.2 2.5-0.1 5.1 0 7.6-0.3 2.7-0.3 5.3-1.6 8-1.6 15.9 0.2 31.8-1.1 47.6-3.7 9.8-1.6 20.1-0.8 30-2.3 12.9-2 25.8-1.6 38.8-1.7 1.9-0.1 3.8-0.2 5.7 0 0.7 0.1 1.6 1.1 1.7 1.7 0 0.7-0.7 1.9-1.3 2-7.5 1.4-14.9 3.4-22.5 3.8-10.9 0.5-21.5 2.1-32.2 3.9-6.7 1.1-13.5 0.5-20.4 1.7-11.1 2-22.6 1.6-33.9 2.3-10.3 0.6-20.7 1.4-31 1.9-3.6 0.1-5 1.7-5.3 5.2-0.5 5.9-3.3 11-8.1 15.6zm-455.2 49.2c-0.2-3.3 0.4-6.1 0.4-8.9-0.1-10.9 0.9-21.6 3.8-32.1 0.5-1.8 0.2-3.9 0.1-5.8-0.9-16.7 0.9-33.4-1.5-50.2-1.3-9.1 2.1-18.8 3.5-28.2 0.1-0.9 1.1-1.7 1.7-2.6 0.7 0.8 2 1.6 2 2.4-0.4 4.6-1.3 9.1-1.5 13.7-0.3 8.3-0.5 16.6-0.2 24.9 0.1 3.9 1.7 7.8 1.7 11.7 0.2 16.1 1.1 32.2-0.2 48.1-1.5 19-1.5 38-1.7 57 0 1.2 0.1 2.6-0.4 3.6-1 1.7-2.5 3-3.7 4.5-0.6-1.6-1.2-3.2-1.6-4.8-3.2-10.8-1.6-21.9-2.4-33.3zm156.7-2.4c-13.8 3.2-26.5 6.7-39.4 9.5-11.3 2.4-22.8 4-34.3 5.9-1.2 0.2-2.6 0.2-3.8-0.1-1.3-0.3-2.4-1.2-3.5-1.8 1.1-0.7 2.2-1.7 3.4-1.9q15.2-3.1 30.4-5.8c10.4-1.9 20.7-3.8 30.6-7.6 5-2 10.4-2.8 15.7-4 5.7-1.2 8.5-3.9 8.5-9.7 0.1-6.8-0.4-13.6-1.4-20.5-2-12.4-1.6-25.1-2.4-37.7-0.4-6.5-1.1-13-1.9-19.4-0.7-6.2 1.9-12.7-1.8-18.6-0.6-0.9-0.5-2.6 0-3.8 0.8-2 2-3.8 3.1-5.8 0.9 1.9 2.3 3.8 2.5 5.7 0.9 9.4 1.3 18.8 2 28.2 1.2 14.6 1.6 29.3 4.2 43.6 1.9 9.9 1.3 19.5 1.5 29.2 0.1 9.8-2.8 12.8-13.4 14.6zm-88.7-67.6c-3.1 4.7-0.1 8.3-0.1 11.9 0.1 7.8-0.2 15.5 0.1 23.2 0.4 9 1.5 18.1 1.8 27.1 0.1 4.3-1.2 8.5-1.9 12.7-0.1 0.8-0.7 1.5-1.1 2.2-0.2-0.9-0.5-1.7-0.8-2.6-0.6-1.7-1.7-3.3-1.8-5-0.5-8.4-0.9-16.8-1.7-25.2-1.8-20.2-1.5-40.6-2.3-60.9-0.2-6.2 0.3-12.2-1.6-18.6-2.5-8.3 2.1-13.3 11.8-14.9 13.4-2.3 26.8-4.8 40.2-7.3 15.9-2.9 32-6.3 48.5-4.3 1.1 0.2 2.2 0.7 3.4 1-1.1 0.5-2.4 0.7-3.3 1.4-3.6 2.8-7.6 3.6-12.1 3.5-9.9-0.3-19.5 1.7-29.3 3.6-13.5 2.6-27.3 3.9-40.9 6-4.1 0.7-8.9 1.6-11.6 4.1-3.1 2.9 0 7.3 0.5 11.2 0.9 7.6 0.1 15.4 0.3 23.1 0.1 2.3 1.2 4.6 1.9 7.8zm238.1 44.7c-7.4-0.8-16.2-10.9-19.9-9.9-1.3 0.4-4.9-4.2-7.9-7.6-1.7-1.8-6.2-10.6-4.6-11.7 6.3-4.3 13.5-2 21-2.3 18.6-0.5 13.9-2.5 40.6-1.5 22.2 0.7 37.6 2.3 51.1 3.4 11 1 15.8 3.1 22 3.5 7 0.4 10 3.6 12.6 4.1 3.6 0.6 0.8 10-9.4 16.1-5.6 3.3-13.4 9.1-19.8 10.2-16.7 2.7-14.1 3.2-26 3-11.3-0.1-18.3 3.2-30.5-0.4-9.4-2.8-25.7-6.5-29.2-6.9zm168.9-172c-1.3-11-2.3-21.1-3.9-31.1-1.7-10.2-4.6-20.3-5.5-30.5-0.6-6.9 1.4-14 2.4-21 0.4-2.7 1.2-5.3 2.1-7.9 0.2-0.8 1.3-1.3 1.9-2 0.4 0.4 0.9 0.9 1 1.4 0.7 5.5 1.7 11 1.9 16.5 0.4 8.7-0.4 17.3 3.7 25.5 1.9 3.7 1.6 8.4 2.1 12.6 1.4 12 2 24.2 4.1 36 3.5 20.3 0.8 40.7 1.7 61 0.7 15.4 1.3 30.9 1.9 46.4 0.1 0.9-0.3 1.8-0.5 2.7-0.9-0.7-2.1-1.1-2.7-2-1-1.8-2.2-3.7-2.4-5.7-0.9-7.1-0.9-14.3-2.2-21.3-2.3-12.9-0.4-26-2.2-38.7-1.3-9.2-0.8-18.2-1.6-27.3-0.3-4.5-1.2-9-1.8-14.6zm-192 69.5c0-4.4-3-4.3-5.9-3.6-1.1 0.3-2.7 2.5-2.6 3.5 0.7 3.9 4 1.3 6.1 1.9 0.4 0.2 1-0.5 2.4-1.8zm101.3-2c-2.2 0-3.5 0.2-4.7 0-1.6-0.3-3.1-0.8-4.6-1.2 1.2-0.9 2.4-2.1 3.7-2.5 6.5-2.1 13-4 19.6-5.8 0.8-0.3 1.8 0.1 2.7 0.2-0.4 0.9-0.6 2.2-1.3 2.6-3.4 1.8-7 3.2-10.4 4.8-1.4 0.6-2.7 1.3-5 1.9zm-211.7-60.2c2.1 5.6 4.6 10.6 5.1 15.8 1.3 11.2 1.5 22.6 2.1 33.9 0 0.9-1 1.9-1.5 2.8-0.8-0.7-1.9-1.3-2.2-2.1-2.1-5.6-4.5-11.1-5.7-16.9-1.3-6-1-12.4-2.3-18.4-1-4.9-0.5-10.3-6.8-13.7-4.1-2.2-5.8-8.8-8.4-13.5-0.3-0.6 0.2-2.3 0.7-2.5 1.1-0.5 3-0.9 3.6-0.3 5.1 4.7 10 9.6 15.4 14.9zm223.3-18.8c0-10 0.2-19-0.1-28-0.2-8.3 1.9-16.4 1.8-24.6 0-13.9-1.1-27.7-1.7-41.6-0.2-4-3.2-2.3-5-2.1-7.2 1-14.3 2.9-21.6 3.5-4.1 0.3-8.4-1.1-12.6-1.9-0.6-0.1-1.3-1.4-1.2-2 0-0.7 1-1.5 1.7-1.7q5.3-1.1 10.7-1.9c1.6-0.3 3.2-0.1 4.8-0.1 14.9 0 13.8-0.1 15.7-14.1 3.2-22.9 0.7-45.8 1.7-68.7 0-1.3-0.3-2.6 0.1-3.8 0.3-0.9 1.5-2 2.2-2 1.2 0.2 3.2 1 3.3 1.9 1 4.5 2 9 2 13.6 0.2 16.7-0.1 33.4 0.2 50.1 0.1 4.3-1.6 8.4-0.3 13 0.8 2.9 0.7 5.7 3.1 8.4 1.8 2.1 2.7 5.5 2.8 8.4 0.8 19.3 3.3 38.8 1.6 57.9-2.6 28.1-0.4 56.1-1.5 84.1-0.1 4.2 0.6 10.7-3.8 10.8-4.7 0-3.9-6.5-3.9-10.7-0.1-6.1 0.2-12.3-0.1-18.3-0.2-4.9 0.2-9.7-1.4-14.8-1.4-4.2 0.9-9.6 1.5-15.4zm-11.6-5.8c0 13.4 0.2 25.8-0.1 38.3 0 3.9-1.1 7.8-1.8 11.7-0.2 0.6-0.8 1.2-1.2 1.8-0.5-0.5-1.2-0.9-1.4-1.4-0.5-2-1.2-4.1-1.2-6.2-0.1-14-0.1-28.1 0-42.1 0.1-2.3 1.1-4.7 1.9-6.9 0.5-1.7-1.7-5.2 2.3-4.6 0.8 0.1 1.1 3.6 1.5 5.5 0.2 1 0 1.9 0 3.9zm-364.6 0c1.3 3.6 2.5 6.4 3.9 8.9 0.6 1.1 1.9 1.8 2.8 2.6 0.3-1.4 1.4-3.3 0.9-4.2-4.7-9-7.1-19.2-14.5-26.9-4.7-4.9-3.6-7.9 2.9-9.4 14.7-3.4 29.6-4.7 44.7-3.7 15.1 1 29.3-3.4 43.7-6.4 4.2-0.9 16.9-1.9 20.9-1.5 2.2 0.3 4.5 0.2 6.8 0 14.7-1.2 21.7 8.4 26.7 19.4 1.3 2.6 1.3 5.9 2.2 8.7 2.9 9.1-2.1 17.4-11.3 18.2-2.2 0.2-4.6 0.4-6.7 0-2.3-0.4-4.5-1.5-6.8-2.3 2.5-1.2 4.9-2.3 7.4-3.4 0.5-0.2 1.2 0 1.9 0 9.2-0.2 12.4-3.9 9.4-12.3-2.1-5.9-5-11.7-8.8-16.6-5.1-6.6-13.2-6.3-20.6-5.7-7.2 0.6-14.4 2.3-21.5 3.8-9.2 1.8-18.3 4-27.4 6-2.7 0.6-5.3 1.5-8 1.6-8 0.2-16.1-0.2-24.1 0.1-7.5 0.3-14.9 1.2-22.4 1.9-3 0.3-2.8 2.1-1.1 3.8 7.4 7.3 10 16.9 12.6 26.6 0.8 3.2 1.7 4.4 6.4 3 15.1-4.5 30.6-6.9 46.6-6.6 13.2 0.2 26.4-1.2 39.7-1.7 1.1-0.1 2.3 0.5 3.5 0.7-1.1 1-2 2.8-3.3 3-8.4 1.5-17 2.1-25.3 4.1-6.8 1.7-13.9 0.7-20.7 3.5-4.7 1.9-10.2 0.2-15.6 1.7-10.3 2.8-21.5 2.4-32 4.5-8.2 1.5-11.7-3.7-14.5-8.9-3-5.7-4.2-12.3-6.1-18.6-0.2-0.9 0.1-1.9 0.2-2.8 0.9 0.4 2.1 0.6 2.7 1.3 1.7 2.1 3.2 4.4 4.8 7.6zm243.6-43.9c8.5-5.9 16.5-11.4 24.5-16.8 0.5-0.3 0.9-1 1.4-1 1.3-0.1 2.5 0.1 3.8 0.2-0.5 0.9-0.8 1.9-1.4 2.7-8 11.2-20.1 17.4-30.9 25-9.3 6.5-19.2 12.2-28.9 18.3-10.1 6.5-20.3 12.8-30.4 19.4-2.8 1.8-5.2 4.4-7.9 6.4-0.9 0.7-2.2 0.7-3.3 1-0.2-1.5-1-3.1-0.6-4.4 0.5-1.4 1.9-2.5 3.2-3.5 8.9-6.9 17.7-14.2 27-20.7 7.3-5.1 15.3-9.3 23-13.9 6.7-4.1 13.3-8.2 20.5-12.7zm105.6 20.7c-1.3 3.7-1.3 3.9-3.2 3.9-14.9-0.1-29.8 0.7-44.5-2-1.1-0.2-2.3-0.8-3.1-1.7-0.7-0.8-0.8-2.1-1.2-3.2 0.9-0.3 1.8-1 2.5-0.8 12.1 3.9 24.6 0.9 36.8 1.9 3.9 0.4 7.8 1.3 12.7 1.9zm11.6 0c1.9-0.6 3-1.8 3.9-1.8 2.6 0.2 7.3 0.9 7.3 1.3-0.1 5.3-4.2 1.2-6.3 2.4-1.5 0.9-3.3 1.9-4.9 1.9-3-0.2-2.3-2.1 0-3.8zm-2-23.1c0-10 0-19 0-28 0-1.6-0.3-3.3 0.1-4.7 0.5-1.4 1.7-2.5 2.6-3.8 1 1.4 2.5 2.6 3 4.1 0.5 1.4 0.3 3.2 0.1 4.8-1.1 9.6 2.2 19.5-1.7 29.1-0.6 1.5 1.2 3.9 1.6 5.9 0.2 0.6-0.7 1.5-1.1 2.2-0.9-0.6-2.2-1-2.6-1.8-0.9-2.2-1.3-4.6-2-7.8zm-181.8-118.2c-11.8 7.3-23.2 14-34.4 21-16 10.1-32.7 18.4-50.8 23.9-6.3 1.9-12.4 4.3-18.5 6.8-3 1.2-5.3 2.5-6.1 7-1.5 9.4-4.2 18.7-7.5 27.6-4.5 12.3-9.2 24.7-17.3 35.3-0.7 0.9-1.9 1.5-2.9 2.3 0.1-1.4-0.1-2.8 0.3-4q8-27 16.2-54c0.9-3.1 2.3-5.9 3.4-8.9q-5.5 1.2-11.1 2.3c-8 1.6-16 4.1-24 4.7-15.7 1.1-26.9-8.9-31.9-22.8-0.4-1 0.3-2.4 0.5-3.6 0.9 0.6 1.9 1.1 2.7 1.9 2.7 2.7 5.3 5.5 8.2 8.1 4.9 4.5 10.4 7.4 17.4 7 13.1-0.7 25.7-4.5 38-8.4 12.8-4 24.8-10.2 37.6-14 26.2-7.8 48.5-23 71.5-36.9 11.8-7.2 23.6-14.4 35.3-21.8 13-8.3 25.8-16.8 38.7-25.3 0.8-0.5 1.7-1.8 2.2-1.6 1.8 0.6 3.6-3.9 5-0.2 0.4 1-0.7 3.2-1.8 4-9.8 7.2-19.7 14.2-29.7 21.2-13.5 9.3-27 18.6-41 28.4zm355.9 62.7c3.4-7 6.3-13.5 9.2-20 0.7-1.6 1-3.7 2.3-4.8 5.9-5.1 9.4-11.2 9.5-19.2 0-0.9 1.7-1.8 2.6-2.7 0.5 1 0.9 2.1 1.4 3.2 3.3 6.8 2.4 13.2-2.4 18.8-4 4.8-6.4 9.9-7.9 16.1-1.4 5.9-4 12.1-7.8 16.8-6.5 7.9-13.8 15.3-21.7 21.6-5.2 4.3-12.2 6.6-19.4 6.3-1 0-1.9-0.9-2.9-1.4 0.7-0.8 1.2-1.9 2.1-2.3 9-5.2 18.1-10.5 25-18.6 3.5-4.1 6.4-8.8 10-13.8zm-141.8-88.7c10.8 16.8 21 33.2 31.4 49.4 10.7 16.4 21.2 33.1 35 47.1 5 5.1 12.4 8.3 19.3 10.7 4.6 1.6 8.9 6.6 14.5 3.7 7.6-3.8 14.7-8.8 19.4-15.7 4.4-6.6 8.9-13.2 10.8-21.6 1.6-7 0.4-13.8 1.3-20.6 0.6-4.6 1.2-9.1 2-13.7 0.2-1.1 1.4-2.1 2.1-3.2 0.6 1 1.4 1.8 1.6 2.8 3 10.7 3 21.3 0.2 32.2-3.9 14.8-10.4 27.7-21.9 38.3-5.5 4.9-12 7.1-18.4 9.4-2.9 1.1-7.3-0.3-10.6-1.8-16.2-7.3-31.2-16-42-31.3-12.7-18.1-24.9-36.3-34.6-56.1-3.9-7.8-9-14.9-13.4-22.5-1.1-2-2-4.6-1.8-6.9 0.4-5.1 2.7-2.6 5.1-0.2zm-100.3 18.3c0.5-7.2 0.4-14 0.6-20.7 0-2.1 0.5-4.2 1.3-6.1 0.8-2 2.2-3.6 3.3-5.4 0.4 2 1 4 1 6.1 0.1 26 0 51.9 0.1 77.9 0 5.6-1.6 10.8-0.5 16.8 1.1 6.1 4.4 7.6 8.7 8.9 3.7 1.2 7.7 1.4 11.6 2.2 0.6 0.1 1.1 1.2 1.3 2 0.2 0.4-0.3 1.3-0.7 1.5-6.8 3.1-22.1-0.9-26.7-7.1-0.8-1.1-1.3-2.7-1.4-4.2-0.1-10.5-0.6-21.2 0.1-31.7 0.7-9.5 0.3-19 1.7-28.4 0.5-3.7-0.5-7.5-0.4-11.8zm-36.6 81c-11.7 0.9-22.9 0.7-33.5-3.5-7.4-2.9-14.8-6.2-21.6-10.3-7.3-4.4-4.6-11.9-3.5-18.1 2.5-13.9 5.9-27.6 8.9-41.5 0.7-3.5 1.1-7.2 2.1-10.7 0.2-0.9 2-2.1 3-2 0.9 0.1 2.6 1.7 2.5 2.5-0.6 8-1.3 16.1-2.5 24-1.4 9.2-3.4 18.4-5.1 27.7-0.3 1.7-0.2 3.8-1 5.3-2.3 4.1 1 6.5 3.3 7.6 8.4 4.4 17 8.3 26.6 10 7.2 1.4 14.2 4.4 21.2 6.7 0.2 0 0.1 1.2-0.4 2.3zm-182.3-145.6c-14.8 10.5-26.6 23.3-39.2 35.1-17.4 16.3-30.1 35.6-40.3 56.7-3.3 7-5.2 14.6-7.9 21.8-0.7 2-1.8 5.1-2.9 5.2-2.6 0.2-6.3-0.3-7.6-2-3.4-4.5-7.8-9.5-8.3-14.7-0.9-9.7-2.9-19.9 0.8-29.7 0.8-1.9 0.7-4.3 0.7-6.4 0.1-8.4 0.2-16.7 0-25.1-0.3-11.7-2.7-23.1-5.5-34.4-0.7-3.1 0.6-15.1 1.6-19.7 2.2-10.2 4.8-20.3 9.7-29.7 0.8-1.6 1-3.6 2.1-4.9 2-2.4 4.5-4.4 6.8-6.6 1.8 3.5-1.8 5.3-2.5 8-1.4 5.8-2.9 11.7-4 17.6-2 9.9-5.9 19.6-4.3 30q2.3 14.5 4.7 29c0.4 2.4 1.1 4.8 1.1 7.2-0.1 16 0.5 31.9-3.5 47.7-1.5 6.2 1.3 13.4 2.2 20.1 0.1 0.8 1.3 1.4 2 2 0.4-0.6 1.3-1.3 1.2-1.8-1.7-6 2.1-11 4.3-15.6 5.1-11.1 10.3-22.1 17.2-32.5 9.2-13.8 21.2-24.4 32.8-35.4 12.7-12.1 27.3-22.4 43.3-30 3.2-1.5 7.2-1.5 10.8-2 0.4 0 1.5 1.1 1.5 1.8 0 0.6-0.7 1.7-1.4 1.9-4.9 2.1-9.9 4-15.4 6.4zm508.8-52.6c0 5.8 0.6 10.7-0.2 15.4-2 12.2-0.3 24.8-3.6 36.9-0.5 1.8 0 3.9-0.1 5.8-0.5 8.7-2.9 17.7-1.2 26 1.8 8.9 1.1 17.6 0.9 26.3-0.2 9.6-1.6 19.4-7.5 27.6-1.8 2.5-4.4 4.4-6.7 6.7 0.1-3.3-0.3-6.6 0.2-9.8 1.7-9.2 5.3-18.2 4.6-27.9-0.4-5.9-2.2-11.9-1.7-17.8 1.2-14.9 0.7-29.9 3.5-44.6 1.1-5.4 0.8-11 1.8-16.6 1.8-9.8 1.6-20 2.3-30 0.5-8 2.1-16.2 1.6-24.2-0.4-7.8-1.8-15.7-1.7-23.6 0.1-1.3-0.2-2.6 0.1-3.8 0.3-0.9 1.4-1.6 2.1-2.3 0.5 0.5 1.5 1 1.6 1.7 0.8 5.1 1.7 10.3 2 15.5 0.8 12.6 1.3 25.2 2 38.7zm-169.3-14c-5.7-7-10.5-13.9-16.3-19.9-3.7-3.8-8.5-7.1-13.3-9.5-10.9-5.5-22.5-8.3-34.8-6.7-6.6 0.9-13.1 2.8-19.7 3.4-7 0.7-14.1 0.4-21.1 0.3-0.5 0-1.3-1.3-1.3-2 0.1-0.6 1-1.6 1.6-1.7 7.5-1.4 15-3 22.5-3.8 10.3-1.1 20.7-1.7 31-2 14.9-0.3 28.1 5.3 39.2 14.7 6 5 10.1 12.4 15.2 18.6 6.5 7.9 13.3 15.6 19.7 23.6 8.8 11.1 17.2 22.5 26 33.6 0.8 1 2.6 1.4 3.9 2 0.3-1.4 1.3-3.2 0.8-4.3-3.2-8.3-3.1-16.9-3.9-25.5-2.6-29.9-1.5-59.8-1.7-89.8-0.1-2.2-0.1-4.5 0-6.7 0-0.9 0.4-1.8 0.7-2.6 0.9 0.7 2.4 1.3 2.6 2.2 1.6 6.8 3 13.6 4.3 20.4 0.3 1.2 0 2.6 0.1 3.8 0.6 17.4 0.7 34.9 2.1 52.3 1 13.7 3.8 27.3 5.5 41 0.6 5 0.6 10.3-0.1 15.4-0.8 6.1 1.6 11 5.2 15.2 10.1 11.5 18 24.4 26.2 37.3 5.6 8.6 12.4 16.5 17 25.8 0.6 1.2 0.9 2.6 1.4 3.8-1.5-0.6-3.1-1-4.6-1.8-0.8-0.4-1.7-1.2-2-2-5.2-11.4-15-19.4-21.9-29.5-6.9-10.1-15-19.4-21.7-29.7-6.5-10.1-15.4-18-23.2-27-10-11.7-19.1-24.1-28.7-36.2-3.3-4.2-6.8-8.1-10.7-12.7zm127.3 111.9c6.8 6.4 10.3 14.1 13.9 21.8 0.5 1.1-0.4 3-0.7 4.5-1.3-0.5-3.1-0.8-4-1.8-6-7.5-10.8-15.9-19.4-21.6-6.3-4.1-11-10.5-16.4-16.1-0.6-0.6-0.3-2.1-0.4-3.2 0.7 0.4 1.3 0.9 2 1 10 2.1 17.6 7.9 25 15.4zm-146.6-28c-3.2 7.7-5.7 15.1-8.7 22.1-1.9 4.5-4.6 8.8-10.6 8.8-1.5 0-3.8 0.8-4.5 0.1-4.3-4.4-5.8-2.3-7.8 2.2-0.9 2.1-3.9 4.1-6.4 4.8-5.7 1.7-7.2-2.4-9.4-6.9-4.2-9-3.4-17.7-1.2-26.7 0.3-1.1 1.8-1.9 2.7-2.8 0.3 1.1 1 2.1 1 3.1 0.4 7.2-1 14.5 2 21.4 0.7 1.6 1.1 3.4 2 4.9 0.3 0.7 1.4 1.3 2.1 1.2 0.6 0 1.4-0.9 1.6-1.6 1.2-4 2.6-8 3.3-12.1 1.7-11.1 7.6-20.2 13.9-28.9 2.8-3.8 1.6-5-0.8-7.6-3.2-3.4-6-7.1-8.9-10.7-0.5-0.6-0.8-1.4-1.2-2 0.9-0.2 1.8-0.7 2.6-0.6 13.3 2.1 19.9 17.1 12.4 28-2.8 4.2-5 8.9-7.8 13.2-2.4 3.7-2.6 7.3-0.6 11.2 2.2 4.4 5.4 5 7.9 1 1.8-3 2.7-6.5 4.1-9.8 3.4-7.9 6.5-15.9 10.4-23.6 1.3-2.4 1.8-3.6-0.4-5.4q-6.4-5.4-12.8-10.9c-1.4-1.3-3.2-2.5-4-4.1-1-2.2-1.2-4.8-1.7-7.2 1.8 1.1 3.6 2 5.3 3.2 3.4 2.7 6.6 5.6 10.1 8.1 12.4 8.8 13.2 11.6 6.9 24.7-0.4 0.8-0.7 1.6-1.5 2.9zm-43.4-35.7c2.4-4.8 3.7-9.6 6.4-13.4 3.7-5.2 8.1-9.7 15.2-11.4 6.8-1.6 13.4-4.2 20.6-3.5 0.9 0 1.8 1.1 2.7 1.7-0.8 0.7-1.5 1.7-2.4 2-1.2 0.3-2.6 0.1-3.9 0-3.9-0.1-4.3 0.9-2.1 4.4 4.8 7.5 9.4 15 15.7 21.5 4.5 4.8 8.6 10.4 11.8 16.3 4.9 8.9 2 17.1-6.4 23.5-4.5 3.5-8.2 8.1-12.4 12-0.9 0.8-2.6 0.5-3.9 0.7 0.3-1.1 0.2-2.4 0.9-3.2 4.2-5.1 8.4-10.1 12.9-14.9 6.5-7.1 7.1-11.1 1.5-18.5-7.2-9.6-14.9-18.9-22.4-28.4-1.1-1.4-1.8-3.1-2.8-4.5-4.1-6-8.2-6.7-13.9-1.7-7.4 6.5-10 15.6-13.2 24.4-3.3 9-6.9 17.7-11.9 26-4.6 7.8-10.8 9.6-18.5 7.2-2.7-0.9-2.6-0.1-2.3 1.4 0.6 2.9 1.2 6 2.5 8.6 1.8 3.5 4 3 7.2-0.5 1.9-2 4.4-3.2 6.7-4.8-0.4 2.8-0.2 5.9-1.1 8.4-1.6 4.2-7.8 7.7-11.4 7-4.6-0.8-7.4-5.1-7.9-11.4-0.4-5.2-0.4-10.6-2.1-15.5-1.3-3.9-4.5-7.2-7.3-10.4-2.4-2.7-1.7 0.4-2.1 1.5-3.2 7-6.2 14.1-9.7 21-1.3 2.4-3.8 4.3-5.9 6.3-4.6 4.4-10.9 3.7-13.1-2.1-2.3-6.3-3.7-13.3-1.4-20q5-13.8 10.9-27.3c2.8-6.2 6.3-12.1 9.5-18.2 0.9-1.6 1.8-3.1 2.7-4.7 1.1 0.7 3 1.4 3 2-0.2 1.7-1.1 3.3-1.8 5-5.5 13.1-11.9 26-16.3 39.5-2.2 6.6-0.8 14.4-1 21.7 1.5-0.2 3.9 0.1 4.4-0.7 3.3-5.4 6.9-10.7 8.9-16.6 5.5-15.9 14.3-30.1 22-44.9 0.6-1.1 1.7-1.9 2.7-2.7 0.6-0.5 1.3-0.7 2-1 0.2 0.9 0.7 1.9 0.4 2.6-2 5.3-4.1 10.5-6.3 15.7-1.2 2.8-2.8 5.3-4 8-1.2 2.7-3.7 6.3-2.8 8.2 1.6 3.5 5.2 6.2 8.2 8.9 0.2 0.3 2.9-1.1 2.9-1.7-0.2-9 3.1-17.2 5.9-25.6 0.4-1.1 0.5-2.6 1.3-3.2 1-0.9 2.5-1.1 3.9-1.6 0.2 1.2 0.8 2.5 0.6 3.6-2.4 9.3-5 18.5-7.5 27.8-0.1 0.6-0.3 1.3-0.2 1.8 1.1 3 1.4 7.3 3.6 8.7 3.2 2.1 6.1-1.7 7.4-4.2 3.8-7.4 6.9-15.2 10.2-22.8 1.1-2.4 2-5 3.4-8zm-71.4-13.5c-4.1 9.3-7.7 18.1-11.3 26.8-3 7.3-2 14.6-0.7 22q0.6 3.2 0.9 6.4c0.1 0.8-0.3 1.8-0.4 2.7-0.9-0.6-1.9-1-2.7-1.7-5.2-5.1-5.2-12-6.4-18.5-0.6-3.6-0.2-6.3-4.8-8.7-6.1-3.2-9-9.4-9-17.2 0-17.2 6.6-31.8 16.1-45.4 2.1-3 4.4-5.9 6.8-8.7 0.4-0.5 1.3-0.7 2-1 0.1 0.9 0.6 2 0.3 2.7-0.5 1.4-1.6 2.6-2.2 3.9-7.3 14.9-15.9 29.3-15.1 46.7 0 1.3-0.4 2.8 0.1 3.8 1.6 3.4 3.6 6.6 5.4 9.9 1.7-2.6 3.6-5.1 5.1-7.7 5.5-9.6 10.9-19.3 16.4-28.8 1.1-1.9 2.6-3.5 4.1-5.1 0.5-0.5 1.6-0.6 2.5-0.8-0.2 0.8-0.2 1.7-0.5 2.5-2 5.3-4.1 10.5-6.6 16.2zm-124.9-72.8c0.3 11-3.7 19.9-6.8 29-2.9 8.5-4.7 17-4.8 26-0.2 8.8-1.3 17.5-1.9 26.2-0.2 3.2 0 4.4 4.2 2.7 11.8-4.9 23.9-8.9 36-13.1 19.7-6.8 39.5-13 58.5-21.8 1.3-0.6 3-0.7 4.5-0.7 2.2 0 4.3 0.4 6.5 0.6-1.7 1.7-3 4.1-5.1 5q-14.2 6.4-28.7 12c-10 3.9-19.9 8.1-30.3 10.7-11.3 3-22.3 6.6-33.4 10.1-16 5.1-32.3 9.1-48.4 13.7-3.7 1-7.2 2.7-10.9 3.7-1.4 0.4-3.1-0.3-4.6-0.5 1.2-1.1 2.3-2.6 3.7-3.2 6.9-2.7 13.9-5.2 20.9-7.8 1.4-0.5 2.9-0.8 4.3-1.3 4.8-1.6 11.7-1.8 13.9-5.1 2.5-3.8 1.2-10.4 1.2-15.8-0.3-14.3 0.7-28.3 5.7-42 5-13.7 9.1-27.7 13.7-41.5 0.2-0.9 1.3-1.6 2.1-2.3 0.5 1.2 1.7 2.5 1.6 3.7-0.4 3.6-1.2 7.2-1.9 11.7zm63.7-81c-0.9 4.4-1.7 8-2.7 11.4-2.4 7.6-4.8 15.3-7.5 22.9-9.5 25.8-18.4 52-30.6 76.8-6 12.3-12.6 24.3-18.9 36.4-0.6 1.1-1.6 2-2.5 3-0.5-1.6-1.7-3.4-1.3-4.8 0.9-3.4 2.4-6.7 3.9-9.9 9.3-19.6 17.8-39.5 23.1-60.7 2-7.9 6.2-15.3 9.5-22.9 7-16.1 14.1-32 21.2-48 0.8-1.9 1.5-3.9 2.6-5.6 0.3-0.4 2.1 0.2 3.2 1.4zm50.1 102.2c-6.2 1.3-11.5 4-16.7 3.6-7-0.5-12 2.9-16.7 6.3-6.7 4.6-12.4 10.6-18.5 16-1.8 1.6-3 2.8-0.9 5.5 2.5 3.2-0.5 3.8-2.8 3.3-5-1.1-6.7-5.5-4.3-10.4 0.7-1.4 1.1-3 2.1-3.9 8.5-7.4 16.6-15.4 25.8-21.6 4.7-3.2 11.5-4.2 17.4-4.3 11.8-0.2 22.4-4.6 33.3-8.3 1.9-0.6 3.9-1 5.9-1.1 0.6 0 1.3 1.3 2 2-0.8 0.4-1.6 0.9-2.4 1.4-7.7 3.8-15.5 7.7-24.2 11.5zm-281.6-9.6c2.6-10.8 5.3-20.7 7.7-30.6 2.1-8.8 3.8-17.7 5.8-26.5q1.6-6.6 3.6-13c3.9-12.5 8.1-24.9 11.8-37.5 2.9-10.1 4.8-20.5 7.8-30.6 4.2-13.9 8.2-28 13.7-41.6 4.5-11.1 12.9-20.1 23-26.4 21.2-13.5 44-23.8 68.1-31 18.1-5.5 36.4-10.4 55.1-13.7 9.4-1.7 18.5-5.5 27.9-7 5.6-0.9 11.5 0.8 17.3 1.4 0.4 0 1.1 0.9 1 1.1-0.3 0.5-0.8 1-1.3 1.4-0.7 0.5-1.5 1.1-2.4 1.3-6.8 1.4-13.8 2.1-20.4 4.3-16.5 5.5-33.7 8.5-50.5 12.9-17.9 4.8-35.9 9-52.6 17.5q-15.1 7.8-30.3 15.5c-15.4 7.8-24.4 20.8-29.3 36.9-6.6 21.5-12.7 43-19.4 64.4-4.2 13.6-9.3 27-13.5 40.6-3.6 11.5-5.9 23.3-9.7 34.6-5.2 15.7-10.5 31.3-13.5 47.5-0.2 1.3-1.8 2.4-2.8 3.5-0.3-1.1-0.9-2.3-0.9-3.4-0.3-7.2 0-14.2 3.8-21.6zm598-21.2c-0.6-4.6-1.7-8.1-1.8-11.8-0.3-6.7-0.3-13.4-0.1-20.2 0.3-11.6 3-22.9 5.4-34.3 0.8-4 0.6-8.3 0.3-12.4-0.7-10.6-1.9-21.2-6.5-31-1.7-3.5-4.3-6.7-7-9.6-8.3-8.6-16.6-17.1-25.3-25.3-7.5-7.2-15.5-13.8-23.2-20.8-0.5-0.4-0.3-1.7-0.5-2.6 1.2-0.1 2.6-0.5 3.4-0.1 5.4 3.3 11.1 6.3 16 10.3 9.2 7.4 18.2 15.2 27 23.1 8.9 7.8 15.3 17.5 19.9 28.3 2.1 4.9 3.4 10.4 3.8 15.7 0.6 8.3 0.7 16.7 0 25-0.6 8.2-2.5 16.2-3.8 24.3-1.3 8.2-3 16.3-3.6 24.5-0.3 5.5-0.7 11.1-0.3 16.7 0.3 3-1.9 2.5-3.7 0.2zm-139.4-58.4c-1.4 2.4-2.4 4.2-3.3 6.1 0 0.1 1.6 1.3 1.8 1.1 3.2-3 6.1 0 8.4 1.2 6.2 3.4 7.6 9.1 1.5 14.3-7 5.9-8.7 6.1-16.8 0.9-4.6-2.9-7.7-5.7-6.6-11.6 0.6-3.3-1.2-5.4-4.6-5.7-17.3-1.3-33.3-7.7-49.7-12.7-11.4-3.5-23.3-5.7-35-8.5-10.2-2.5-20.4-5-30.7-7.2-13.6-2.9-27.3-5.4-40.9-8.3-3.1-0.7-5.9-2.4-8.8-3.5 2.1-4.5 6.2-2.3 9-2.1 9.7 1 19.4 2.6 29 4.2 5.4 0.9 10.6 2.5 16 3.3 17.4 2.6 34.7 5.5 51.6 10.3 17.8 5.1 35.4 10.9 53.1 16.2 4 1.2 8.3 1.6 12.4 2.5 4.9 1.1 7.6-2.1 10.6-5 0.9-0.8 1.4-4 4-1.4 2.4 2.4 1.5 3.8-1 5.9zm-320.2-20.2c-9.1-12.4-17.8-24.2-26.4-36.1-0.6-0.8-0.9-1.8-1.4-2.7 1.1 0.3 2.5 0.2 3.3 0.8 6.3 4.9 13.5 9.2 18.7 15.1 11 12.5 17.8 27.8 25.5 42.5 3.8 7.3 6.4 15.3 9.4 23.1 0.3 0.8-0.5 2-0.8 3.1-0.9-0.3-2.1-0.3-2.5-0.9-1.5-1.9-3.1-3.8-4-6-3.7-8.7-8.1-16.8-14.3-24.1-3.3-3.9-4.7-9.5-7.5-14.8zm324.6 37.1c0.2-4.4-3-3-4.9-2.5-0.6 0.1-0.4 3.1-0.6 4.8 1.5-0.5 3-0.9 5.5-2.3zm7.7-16.4c1.9-0.9 4.3-1.5 5.8-0.7 1.7 1 3.1 3.1 3.7 5 1 3.2-2.4 10.4-5 11-0.7 0.1-2.2-1.6-2.5-2.7-0.9-3.8-1.4-7.7-2-12.6zm34.7-140.8c0.8-1.9 2.3-3.8 2.4-3.7 12.8 8 22 18.4 22.7 34.4 1 23.2-8.8 42.9-20.4 61.9-7.8 12.9-16.2 25.4-23.8 38.3-1.7 3-3.2 4.2-6.4 4.1-5.2-0.1-10.3 0.3-15.2-2.9-6.2-4-7.3-5.9-3.9-13.2 5.9-12.4 12-24.6 17.7-37.1 6.9-15.1 14.2-30.1 20.1-45.6 2.1-5.4 0.7-12.4 0.3-18.6-1-12.9-11-17.4-21.2-21.5-2.2-0.9-4.5-1.5-6.6-2.6-0.9-0.4-2-2-1.7-2.6 0.4-1 1.7-2.4 2.7-2.4 2.7 0 5.5 0.3 8.2 0.9 2.6 0.7 5.7 3.4 7.4 2.6 8.6-4 9.8 3.3 12.5 7.7 9.6 15.5 9.3 31.8 2.6 48.2-6.6 15.9-13.4 31.7-20.7 47.3-3.8 8.1-8.9 15.6-13.3 23.4-2 3.5-2.6 6.7 1.5 9.3 3.4 2.3 7.1 2.2 9.8-1.5 3.7-5.1 6.6-10.7 9.9-16.1 5.4-9.1 10.1-18.5 16.2-27 8.1-11.2 12.4-24 16.1-36.7 2.4-8.6 1.7-18.8-1.6-27.9-1-2.8-3.1-5.2-5.1-7.5-3.2-3.6-6.8-6.8-10.2-11.2zm-258.5 131.2c-8.8-0.4-17-8.1-17.3-15.7-0.2-6.8-0.5-13.4 4.6-19.3 2.1-2.4 1.8-6.8 3.2-10 0.6-1.4 2.7-2.2 4.1-3.3 0.7 1.2 1.3 2.5 2.2 3.5 3.7 4.5-1.1 7.9-1.7 11.8-0.7 4.5-4.1 8.8-4.5 13.3-0.5 6.8 3.2 12.2 9.1 15.8 1.3 0.8 2.5 1.7 3.8 2.5-0.8 0.5-1.7 0.9-3.5 1.4zm-5.3-18.8c1.6-2.3 2.6-4.2 3.9-5.8 2.6-3.3 5.4-3.7 8.5-0.3 1.9 2.2 4 4 6 6.1 2.8 3.1 2.1 6.7-1.6 9.1-5.7 3.6-11.9 2.5-15.2-2.9-1.1-1.7-1.4-3.8-1.6-6.2zm13 2.4c0.3-2.6-0.8-3.7-3.1-2.5-1 0.5-2 2.5-1.7 3.2 0.8 1.9 2.4 2.7 4.8-0.7zm10.2-10.2c-0.4 4.1-2.1 4.5-4.4 2.4-3.3-3-5.4-18.3-3-21.9 1.7-2.6 3.9-3.2 5.9-0.3 4 6.1 3.7 12.7 1.5 19.8zm11-149.5c-4.8 1.9-10 2.6-14.5 4.8-3.3 1.6-6.4 4.6-8.5 7.7-8.4 12.5-14.5 26.4-16.9 41-2.6 16.1-5.4 32.7-0.6 49.2 0.7 2.4 0 5.1 0.8 7.4 2.3 7 8.1 9.3 14.8 10.1 1.3 0.1 2.5 1 3.7 1.6-1 0.8-1.9 1.8-3.1 2.3-5.6 2.5-10.3-0.5-14.4-3.4-6.4-4.5-9.6-10.9-9.6-19 0-6.2-1.5-12.3-1.8-18.5-0.9-18.9 2.3-37.4 10-54.5 4.4-9.7 9-19.9 17.3-27.5 6-5.4 16.3-6.2 22.8-1.2zm0 1c1.7-1.2 3.3-1.9 5-2.5 0.9-0.4 1.8-0.6 2.7-0.9-0.2 0.8-0.1 1.8-0.6 2.5-2.9 4.6-5.7 9.3-9 13.6-7.4 9.7-8 21.3-9.5 32.6-0.5 3.5 0 7.1-0.2 10.6-0.1 3.7-0.8 7.4-0.8 11.2-0.1 3.1 0.9 6.2 0.8 9.4-0.5 13.2-1.2 26.4-1.9 39.6-0.1 1-0.9 2-1.3 3-0.9-1-2.2-1.8-2.4-2.9-0.9-3.9-1.8-7.8-2-11.7-0.8-15.8-2.3-31.6-1.7-47.3 0.6-14.4 1.8-29.1 9.2-42.4 3.1-5.6 7.5-9.8 11.7-14.8zm84.9 96c-5.5-1.3-10.4-2-14.7-4-13.6-6.4-28.3-11-38.6-23.2-4.3-5.1-9.4-9.5-14.2-14.3-1.1-1.2-2.6-2.1-3.3-3.5-1-2-1.5-4.3-2.2-6.5 1.7 1.1 3.4 2.1 4.9 3.2 7.6 5.8 15.8 10.9 22.5 17.5 7.4 7.3 17.1 10.2 25.7 15.1 5.5 3.1 12.5 3.8 18.6 6.1 8 3 16.2 1.6 24.2 1.8 24.2 0.4 44.4-9.2 61.5-25.7 4.8-4.5 8.7-9.9 13.1-14.8 0.7-0.8 1.9-1.5 3-1.8 0.9-0.3 1.9 0 2.8 0-0.3 0.9-0.5 1.9-1 2.7-2.5 4.1-5.3 8.1-7.7 12.2-8.7 14.4-21.4 23-36.8 29.8-16.1 7.3-32.3 7.3-49 7.2-2.6 0-5.2-1.2-8.8-1.8zm156.3-146.6c-6.6 6.9-8.1 15.7-11.3 23.3-6.3 15.1-15 28.6-24.2 42-10.1 14.9-24.1 25.2-40.1 33.2-2.9 1.4-5.2 4.5-7.7 6.9-13.2 13.1-28.7 19.4-47.6 20.3-20.2 0.9-36.6-7.8-53.3-16.1-6.2-3.1-11.3-8.5-16.9-12.7-8.8-6.5-16.4-14.1-21.6-23.7-0.9-1.7-4.4-3.8-1.1-6.7 3.3-2.8 4.7 0.6 5.9 2.2 13.8 19.4 33.5 31.1 53.8 42 9.3 5 19.4 6.3 29.9 7.2 16.6 1.5 30.2-5.9 44.4-11.9 1.1-0.5 1.7-2.2 2.5-3.3-1.2-0.2-2.6-0.8-3.6-0.4-13.9 5.5-28.5 3.8-42.8 3.5-8.3-0.1-15.7-4.2-21.9-9.7-17.8-15.9-28.5-36.4-35.1-58.7-4-13.3-5.6-27.4-7.9-41.1-1.1-6.2-2.4-12.7-1.8-18.8 0.7-6.4 3.6-12.6 5.4-18.9 0.2-0.8 0-2.1-0.5-2.5-0.5-0.5-2.2-0.6-2.4-0.2-2.3 3.4-6.2 5-9.1 3.3-3.6-2.1-6.2-6.1-9-9.5-0.9-1-1.7-2.5-1.9-3.9-0.8-4.9-1.6-9.7-1.7-14.6 0-4.5 0.1-9.6 1.8-13.6 4.2-9.9 6.1-21.4 15.3-28.3 4.8-3.6 6.6-8.2 7.5-13.2 1.4-7.4 4.6-13.6 9.3-19.4 0.9-1.1 2.2-2.4 2.3-3.8 1.7-15.1 11.4-26.3 18.9-38.4 8-13 20.1-21.5 33.6-27.9 11-5.2 22.6-8.5 35-8.5 7.4 0 14.8 0.1 22.2 0 15.2-0.2 29.3 4.1 42.8 10.6 14.6 7 28 15.5 40.5 26.2 12.4 10.7 22.7 22.4 30.1 36.8 1.6 3.1 2.3 6.9 2.6 10.4 0.5 4.5-0.7 9.2 0.4 13.5 0.9 3.9 0.1 7.5-0.5 10.9-2 11.6-4.9 23-7.5 34.5-0.3 1.1-1.3 2.1-2.2 2.9-0.6 0.5-1.8 1-2.4 0.7-0.6-0.2-1.2-1.5-1.1-2.3 0.5-4.8 0.8-9.8 1.9-14.6 3.5-14.1 3.3-28.4 4.1-42.7 0.5-10.6-3.6-18.9-10-25.8-14.8-16.3-31.1-31.1-51.5-40.5-15-6.9-30.1-12.1-46.8-13.4-5.8-0.4-12.4-1.4-17.8-0.9-12.5 1.4-25.4 1.8-37.4 7.2-8.8 4-17.8 7.7-23.1 15.9-6.1 9.3-10.9 19.3-16.2 29-2.6 4.7-5.9 8.8-6.8 14.6-0.4 3-0.9 4.8 1.1 7.4 4.9 6.2 9.3 12.8 13.7 19.4 0.7 1.1 0.9 3.3 0.3 4.5-1.4 3.1-2.7 0.5-3.9-0.5-3.8-3-7.6-6-11.4-9-0.9 5.1-1.6 10.2-2.7 15.2-1.8 7.3-3.8 14.5-5.8 21.7-0.4 1.2-1.4 2.3-2 3.4-0.8-1.2-2-2.2-2.2-3.4-0.7-4-1-8-1.6-12-0.2-1.3-0.6-3.4-1.5-3.7-1.1-0.5-3.2 0-4.2 0.9-7.7 6.6-10.2 16.1-13.7 25.1-3.4 8.7 0 17 0.3 25.5 0.1 3.9 5.5 7.6 8.8 5.6 4.5-2.8 5.6-0.2 6.4 2.9 1 3.9 1.8 7.8 1.9 11.7 0.3 6.8 0.2 13.5 0.1 20.3-0.1 7.4 1.7 14.5 3.7 21.6 2.5 8.7 3.9 17.6 6 26.5 3.9 16.4 11.5 30.9 22.8 43.5 2.8 3.1 5.9 5.9 8.8 8.9 4.9 5.1 10.3 8.4 18 8.1 6.4-0.3 12.9 1.7 19.4 1.6 26.2-0.2 48.4-10.5 65.6-29.8 8.5-9.6 14.8-21.3 21.5-32.5 6.3-10.4 11.6-21.5 17.5-32.2 1.4-2.4 3.5-4.5 5.6-6.3 0.8-0.7 2.6-0.4 3.9-0.5-0.6 1.3-1.2 2.7-1.8 5zm-124.9 59.3c-1.2-1.2-2.2-1.8-2.4-2.6-0.5-2.1-0.8-4.3-1.1-6.5 2 1.3 4 2.5 5.9 3.9 2.5 1.8 5.1 3.5 7.1 5.7 1.1 1.1 1.1 3.2 1.5 4.8-1.7 0.2-3.8 1.1-5 0.4-2.2-1.2-3.7-3.4-6-5.7zm-78.2-46.3c4.8-3.3 4.9 0.1 4.3 2.5-1.6 6.1-3.5 12.1-5.8 17.9-2.5 6.3-5.5 12.5-8.6 18.6-1.4 2.7-3.4 5-5.5 7.3-0.7 0.8-2.2 0.9-3.3 1.3-0.5-1.9-4.6-1.3-2.2-5.6 7.4-13.5 13.9-27.6 21.1-42zm133.6 8.2c-0.3 7.4-3.5 12-8.7 13.5-4 1.1-12.1-3.9-12.4-7.8-0.1-0.6 1.2-1.8 1.5-1.7 1.1 0.3 2 1.3 3.1 1.6 7.1 1.8 8.8 0.4 8.8-6.9 0-8.1-0.3-16.1 0.2-24.1 0.2-3.8 1.6-7.6 2.8-11.3 0.3-0.8 2-1.3 3-1.9 0.6 1.2 1.7 2.5 1.6 3.6-0.4 6.5-1.6 12.9-1.7 19.4 0 4.9 1.2 9.7 1.8 15.6zm27.5-18.8c-3.7 3.2-5.7-0.1-6-1.7-0.4-2.9 0.6-6 1.2-8.9 0.4-2.2 1.3-4.5 4-3.3 1.7 0.7 4 2.8 4 4.1-0.3 3.1-1.7 6.2-3.2 9.8zm-0.5-17.9c-12.5-3.8-24.1-7.6-35.6-11.6-12.9-4.4-26.5-7.7-38.5-13.9-10.1-5.2-19.7-12.2-24.4-24-4.7-11.5-10.2-22.7-13.7-34.8-0.6-2.3-1.3-4.6-1.5-7-0.1-1.6 0.7-3.3 1.1-5 0.9 1.6 1.9 3.1 2.7 4.7 5.8 12.7 11.1 25.6 17.5 38 5.7 11 14.8 18.3 26.6 22.9 17.7 6.9 35.3 14 53.6 19.4 9.6 3 19.3 4.9 29.4 5.9 10.7 1 21.3 3.9 32.2 3.4 4.8-0.3 9.7-1.3 14.2-2.9 7.7-2.7 13.7-16 11.6-24.7-1.7-7.3-3.8-14.5-5.6-21.7-0.2-0.7 0.4-1.7 0.7-2.6 1 0.4 2.6 0.5 3 1.2 2.5 5.4 5.9 10.7 6.8 16.4 1.2 7.3 1.4 15.2 0 22.5-1.9 9.8-11.7 17.1-21.9 17.6-10.6 0.4-21.3 0.6-31.8-0.1-8.5-0.5-16.9-2.4-26.4-3.7zm-71.3-7.7c-2.5 2.3-3.4 7.3-7.3 5.1-4-2.3-2.4-6.6-2-10.2 0.2-1.4 0.9-3.1 2-3.9 1.6-1.2 3.9-2.6 5.5-2.3 1.5 0.3 3.2 2.8 3.5 4.5 0.3 1.8-1.1 3.9-1.7 6.8zm52.1-48.2c-15.3-5.2-29.7-9.9-43.7-15.6-17-6.8-32.9-16-47.5-27.1-1.3-0.9-1-5-0.5-7.3 2.7-11.1 6.7-21.9 8.5-33.1 1.7-11.1 1.5-22.6 2.1-33.9 0.2-2.8-0.1-5.8 0.1-8.6 0.1-0.6 1.1-1.6 1.7-1.6 0.7 0 1.9 0.7 2 1.3 0.8 3.9 1.4 7.8 2 11.7 0.7 3.9 1.9 7.8 1.8 11.7-0.1 6.2-0.4 12.5-1.9 18.5-3.1 11.5-7 22.8-10.8 34-0.8 2.4-0.6 2.6 1.7 3.8 12.6 6.8 24.7 14.8 37.6 21 20.1 9.6 41.1 17.2 62.6 23.3 13.8 3.9 27.6 8.1 41.5 11.3 5.5 1.3 11.6 0.2 17.3 0.3 0.9 0.1 1.8 1.2 2.6 1.8-0.8 0.7-1.5 1.7-2.4 2-8.1 2.4-16 1.6-24.5 0.4-16.8-2.5-32.3-9.2-48.6-13.2-0.3-0.1-0.5-0.5-1.6-0.7zm-114.3-23.6c2.4-4.9 4.3-9.2 6.2-13.5 1.4-3.1 4.2-4.5 6.7-3 1.2 0.7 1.3 4.9 0.4 6.8-4 8.3-8.5 16.3-12.8 24.5-0.7 1.3-1.4 2.6-2 4-0.7 1.7 1.6 5.2-2.4 4.5-0.8-0.1-1.7-3.8-1.3-5.6 1.2-5.8 3.1-11.5 5.2-17.7zm-4.4-32.4q1.2-2.6 2.4-5.3c-1.5 0.6-4 0.8-4.5 1.9-2.5 5-4.5 10.3-6.4 15.6-0.3 0.8 1.2 2.2 1.9 3.3 0.6-0.9 1.4-1.7 1.8-2.6 1.3-4 2.6-7.9 4.8-12.9zm82-65.5c13.9-0.2 25.9 4.6 38 8.3 19.8 6.1 39.3 13.4 58.7 20.7 7.2 2.7 13.9 6.8 20.8 10.3 0.8 0.5 1.3 1.4 2 2-1.1 0.4-2.3 1.3-3.2 1-6.6-2-13.1-4.1-19.5-6.3-18.8-6.6-37.3-14.1-56.4-19.4-17.4-4.9-34.6-11.8-53.3-11-2.6 0.1-5.3-1-7.9-1.8-1.5-0.5-2.9-1.4-4.3-2 1.6-1.3 3.2-3.6 4.7-3.6 4.6 0.3 9.4-1.8 13.8 1.6 1.2 0.9 3.7 0.2 6.6 0.2z"/>
	</g>
</svg>