<svg version="1.2" xmlns="http://www.w3.org/2000/svg" viewBox="0 0 620 1041" width="620" height="1041">
	<title>-e-</title>
	<style>
		.s0 { fill: #f05a22 } 
		.s1 { fill: #ffce4d } 
		.s2 { fill: #1d1e1b } 
	</style>
	<g id="-e-">
		<path fill-rule="evenodd" class="s0" d="m257.3 786.5c0 0 0.8 13.4-2.4 21.3-3.3 8-8.5 19.1-1.5 23.8 7 4.6 84.4 6.5 84.4 6.5 0 0 36-7.6 55.4-9.5 19.3-1.9 78.7-2.2 90.9-5.3 12.3-3.1 26.7-4.3 37.3-9 10.7-4.7 15.7-11.8 12.5-25.9-3.1-14-9.1-49.1-7.6-66.8 1.5-17.6-2.2-27.1-3-42.8-0.9-15.7-2.8-24.3-1.9-32.9 0.8-8.5 5.1-32.1 4.9-43.8-0.3-11.6 0-17.9 0-17.9 0 0-106.7-4.1-129-6.4-22.3-2.4-49.8-2.4-60.8-5.4-10.9-3-22-1.3-31.1 1.2-9 2.4-11.6 2.9-18.4 4-6.8 1-5.8 2.4-12.2 9.6-6.4 7.3-8 11.2-13.3 9.9-5.3-1.2-7.3 1-7.6-7.2-0.3-8.2 3.4-19.9-2.8-11.7-6.1 8.1-9.5 7.7-11.2 19.4-1.8 11.8-1.1 21.7-7.7 24.4-6.7 2.7-8.3 0.1-10.5-8.4-2.2-8.4-0.9-16.5-0.9-22.6-0.1-6.2-1.3-18.2-7.2-2.1-6 16.1-9.1 22.2-5.3 26.3 3.9 4 7.6 5.9 5.8 8.7-1.8 2.7 2.5 0.9 2.4 5.4-0.2 4.4 3.1 7-2.2 9.9-4 2.2-9.6 1-12.5 4.8-0.8 1.1 0.4 3.8-0.3 5.6-1.5 3.5-7 2.2-8.4 4.7-1.9 3.2-3 14.1-2.3 25.4 1.2 19.6 0.7 32.8 1.1 48.2 0.3 15.4-4.1 23 6.2 25.2 10.3 2.2 32-2.5 45.7 4.2 13.6 6.7 17.7 6.1 16.7 13.6-1.1 7.5-3.2 15.6-3.2 15.6zm-98-154.3c0 0 2 44.5 2.7 58.6 0.6 14.1-1 31.3-0.6 42 0.4 10.7-0.2 17.5-0.2 17.5l20.5 1.5c0 0-1.9-27.7-2.8-43.8-0.9-16.2-0.6-35.6-1.1-43.8-0.6-8.1-0.4-16.6-0.4-16.6 0 0 1.4-9.5-1.9-10.3-3.2-0.9-10.2-2.1-11.7-4.7-1.4-2.6-4.5-0.4-4.5-0.4zm-28.2-38.8c0 0 15.9 6.2 22.5 6.7 6.6 0.6 9.7-1.8 10.5 0.2 0.9 1.9-0.4 8.6-1.1 13.6-0.7 5.1 5.5 2.2 8.4-8.3 2.9-10.4 5.5-32.5 15.3-55.8 9.8-23.3 7-29.4 22.3-37.5 15.2-8.2 31-7.6 49.4-8.8 18.5-1.2 38.5 1.9 51.9 1.2 13.4-0.7 25.8-1.7 45.6-4.1 19.8-2.4 85.3-5.9 101.7-8.2 16.4-2.3 20.2 0 19.4-12.7-0.8-12.6-1.4-20.1-0.2-30.3 1.2-10.2 4.5-14.8 4.9-3.6 0.4 11.1 2.5 22.2 8.6 26.3 6.2 4 4.1 1.4 18.4-0.2 14.2-1.6 40.6-0.3 57.1 5.6 16.5 5.9 22 12.3 31.1 22.2 9.1 9.8 9.4 29.8 13.5 28.1 4.1-1.7 7.6-4.1 5.1-31.3-2.5-27.2-9-57.3-15.3-78.9-6.3-21.5-12.1-27.9-20.1-52.3-8.1-24.5-14-43.3-21.6-56.8-7.5-13.5-18.6-19.6-32.2-23.7-13.6-4-50.6-8-66.9-13.4-16.3-5.5-20.8-14.2-34.9-17.8-14.1-3.5-14-5-19 11.3-5.1 16.3-23 58.1-40.9 68.8-18 10.7-30.4 21.4-64.4 6.7-33.9-14.7-43.4-21.4-49.2-33.5-5.7-12.2-5.7-14.4-9.2-23-3.4-8.7-3.1-12.1-13.3-5.8-10.3 6.2-33.2 18.7-56.5 32.1-23.2 13.5-36.5 14.2-47.1 28.4-10.6 14.1-13.1 30.7-25.8 62.4-12.7 31.8-8.5 31.1-18.5 57.2-10 26-12.8 44.9-17.3 62.4-4.6 17.5-5.3 19.3 1.2 19.7 6.5 0.3 8.1 0 27.8 4.9 19.7 5 29 4.3 38.5 13.5 9.6 9.3 7.6 4.5 5.3 12.1-2.2 7.6-5 22.6-5 22.6z"/>
		<path fill-rule="evenodd" class="s1" d="m432.7 936.6c0 0 1.4 30.1 8.3 44.2 7 14.1 19.3 34.7 37.6 39.2 18.3 4.6 62.1 7 72.1-8.7 9.9-15.8 13.7-22.8 21-25.3 7.3-2.5 20.7-14.7 24.9-24.4 4.2-9.8 7.5-19.9 3.7-15.6-3.7 4.3-7 13-13.4 18.6-6.5 5.6-7.7 7.9-12.8 7.8-5.1 0-5.7 2.6-8.1 7.3-2.4 4.6-5.6 14.3-13 21.1-7.4 6.8-9.5 10.9-15.3 12.5-5.8 1.5 6.3-10.4 12.2-18.6 6-8.2 5.6-7.2 9.5-18.5 3.9-11.2 4.7-15 6.4-22.1 1.6-7-1.5-1.8-11-3.5-9.5-1.8-17.3 1.8-36.8 0.7-19.6-1.1-46.8-1.4-56.8-2.9-9.9-1.6-12.2-3.9-17.3-6.8-5-3-11.6-5.4-11.2-5z"/>
		<path fill-rule="evenodd" class="s1" d="m223.2 116c0 0 34.4-2.7 35.9-8.1 1.4-5.4 1.4-21.5 7.2-28.6 5.8-7.2 17.3-15.8 29.1-16.7 11.9-0.9 30.8 7.8 36.6 15.5 5.9 7.7 8 13.1 8 13.1 0 0 18.1-3.5 19.8 2.1 1.6 5.7 1.9 14.3-2.8 15.9-4.8 1.7-6.5 7.9 3.5 10.4 9.9 2.4 52.2 12.1 62.1 17 9.9 5 34.5 16.9 37.3 11.4 2.7-5.6-1.3-5.6-12.9-10.3-11.6-4.7-14.4-8.5-19.6-9.6-5.3-1.1-11.7 6-11.1-0.9 0.6-6.9 2.9-21.8 1.1-30.8-1.9-9-4.3-17.9-10.7-23.8-6.3-6-4-7.6-7-15.2-3-7.6-4.5-13.4-16-19.2-11.5-5.8-9-7.6-18.5-14-9.4-6.5-11.6-8.1-29.6-11.8-18-3.7-42.1-6.2-67.9 13.6-25.9 19.9-38.4 38.3-43.3 49.6-4.9 11.2-5.6 21.4-5.4 29.3 0.1 7.9 4.2 11.1 4.2 11.1z"/>
		<path fill-rule="evenodd" class="s2" d="m240.9 834.2c1.3-0.8 2.2-1.1 3-1.5 0.1 1.8 0.2 3.6 0.2 5.4 0 21.8 1.4 43.7-0.4 65.3-2 23.1-0.6 46.2-1.5 69.2 0 1.7-1 3.3-1.1 5-0.1 1 0.5 3.1 0.9 3.1 6.9 0.5 7.4 5.9 7.4 10.7 0 7.9 0.9 15.3 4.8 22.6 3.3 6.2-1.4 15.7-8.7 17.5-10.7 2.7-21.2 6.1-32.3 7.8-16.2 2.4-32.3 1.7-48.3 1.1-10.6-0.4-21.5-0.1-31.9-1.8-9.8-1.6-20.4-2.7-28.1-10.8-6.2-6.5-6.5-12-0.6-18.8 2.5-2.9 5.8-4.8 5.6-9.6-0.1-3 1.8-6.1 2.9-9.1-3.3-0.1-6.6-0.6-9.9-0.3-27.2 2.4-54.6 1.8-81.8 1.7-6.2-0.1-12.3-1.1-18.3-1.9-0.8 0-1.4-1.3-2-2.1 0.6-0.4 1.2-1.3 1.8-1.3 7-0.7 14-1.3 21-1.9 28.5-2.5 57-1.6 85.5-2 2 0 4.8-1.2 5.9-2.7 7.5-9.9 8.3-10 7.2-24.2-1.8-25.1-0.3-50.4-2.1-75.4-1-15-0.6-29.8-1.3-44.7-0.2-2.8-0.2-6.6 2.6-6.7 2.7-0.1 2.8 3.7 2.9 6.5 0.5 12.1 0.4 24.4 1.9 36.4 3.6 29.4 0.6 58.9 1.7 88.3 0 0.9 0.3 1.9-0.1 2.6-1.9 3.5-3.5 8.1-0.8 10.6 3.4 3 8.4 5.1 12.9 5.7 23.6 2.9 47.3 2 71 1.9 4.9 0 9.7-1.2 14.6-1.7 0.7 0 1.5 1.3 2.2 1.9-0.5 0.6-0.9 1.5-1.6 1.6-6.4 1.3-12.4 4-19.3 4-7.4-0.1-14.8 3-22.1 3.1-8.9 0.1-17.9 2-26.7-1.3-1.5-0.6-3.5-0.3-5.3-0.3-9.3 0.1-18.3-1.4-26.4-6.2-3.9-2.4-3.5-0.4-4 2.5-0.9 6.2-2.6 12.2-3.4 18.4-0.6 4.4-3.2 7.4-6 10.3-4.8 4.9-4.1 9.2 2.3 11.2 7 2.3 14.1 5 21.3 5.4 23.6 1.2 47.3 1.7 71 1.8 6.4 0 12.9-1.9 19.3-3.5 5.4-1.4 10.5-3.9 16-5.3 4.5-1.1 5.7-2.1 3.3-7-4.1-8.2-6.8-17.1-5.7-26.7 0.4-3.3 0.2-6.3-3-8.8-1.5-1.1-2.3-4-2.3-6.2-0.2-26.3-1-52.7 0.3-78.9 0.6-11.9 0.6-23.8 1.5-35.6 0.6-8.3 2.3-16.5 4-25.3zm346.3 86.7c1.6 0.6 2.2 1.6 2.9 1.8 12.4 2.4 17.6 7.3 16.8 18.7-0.5 7.3-1.5 14.7-4.4 21.7-4.1 9.9-12.2 15.4-20.1 21.3-2.6 1.9-6.2 2.4-9.3 3.8-1.5 0.7-3.4 1.7-3.9 3-4.7 12.8-13.6 22.1-24.6 29.5-6.8 4.6-14.3 6.9-22.4 7.4-4.3 0.3-8.7 1.9-12.9 1.6-11.3-0.8-22.8-1.4-33.8-3.9-5.7-1.4-10.8-6.2-15.7-10-7.4-6-14.6-12.6-18.9-21-2.3-4.5-5-4.9-9-4.9-32.4 0-64.7 0-97.1 0q-36.8 0-73.5 0c-2.2 0-4.3 0.1-6.4-0.1-0.6 0-1.6-0.8-1.6-1.4-0.1-0.6 0.4-1.9 1-2 2.4-0.8 4.9-1.9 7.4-1.8 9.4 0.1 18.6-0.8 27.5-3.7 0.9-0.3 1.8 0 2.8-0.1 19.7-0.6 39.4-1.2 59.1-1.7 3.8-0.1 7.9 0.6 3.9-5.3-0.9-1.2-0.2-3.5-0.2-5.4 0-7.2-0.3-14.5 0.1-21.7 0.4-6.2-1.7-10.2-7.4-12.3-5.4-1.9-7.2-6-7.2-11.4 0-14.2-0.1-28.4 0.1-42.6 0-2.5 0.8-5.1 1.8-7.4 0.9-2.2-2.7-5.9 2.1-6.2 0.4-0.1 1.1 4.5 1.4 6.9 1.3 9.8 2.7 19.6 3.6 29.4 0.5 6 0 12.1 0.2 18.1 0 2 0.6 4 1.5 5.7 0.6 1.2 2 2 3.1 2.9 0.3-1.4 0.7-2.8 0.7-4.2 0.3-7.7-0.9-15.4 1.8-22.9 0.7-1.8 1.1-3.8 1.9-5.5 0.4-0.8 1.7-1.2 2.5-1.7 0.4 0.7 1 1.4 1.1 2.2 0.6 16 2.4 32.2 1.4 48.2-0.6 9.4-1.2 18.9-1.3 28.3-0.1 6 0.6 6.6 6.7 6.6 20.6 0.1 41.1 0 61.7 0.1 4.6 0 4.5-0.6 2.6-4.9-2.5-5.9-3-12.8-3.8-19.3-0.3-2.7 0.8-5.6 1.8-8.2 0.5-1.1 2.5-1.6 3.9-2 0.2-0.1 1.2 1.5 1.4 2.5 2.5 14.8 7.3 28.8 14.5 42.1 6.8 12.2 18.3 22.2 29.4 25 11.4 2.8 23.4 5.4 35.4 1.1 4-1.4 8.4-0.2 12.9-1.5 10.4-2.9 17.5-9.3 24.1-17 10.6-12.6 13.1-28.5 18.1-43.4 1.3-3.9 2.3-8 3.4-12-3.9 0.4-8.1 0-11.7 1.4-6.4 2.4-12.8 1.3-19.2 1.6q-6.4 0.3-12.7-0.1c-1.2 0-2.3-1-3.4-1.6 0.9-1.2 1.5-2.8 2.6-3.4 1.2-0.6 2.9-0.2 4.4-0.3 11-1.2 22-2.4 33-3.7 0.6-0.1 1.2-0.9 1.8-1.4-0.7-0.7-1.3-2-2-2.1-9.8-1.3-19.6-2.2-29.3-3.8-7.4-1.2-15-0.7-22.2-3.4-1.9-0.7-4.2-0.2-6.3-0.2-10.6 0-21.2-0.2-31.8 0.1-11.2 0.4-22.5 1.3-33.1 5.4q-2 0.8-3.8 1.8c-0.8 0.5-1.5 1.3-2.2 1.9 0.8 0.6 1.6 1.6 2.4 1.7 11.3 0.7 22.5 1.1 33.8 1.9 3.3 0.3 7.1-1.6 10.2 1.6 0.6 0.6 2.8-0.3 4.2-0.5 1.9-0.4 3.9-1.2 5.8-1.1q9.2 0.6 18.3 1.9c1.2 0.1 2.2 1.7 3.2 2.7-1.1 0.3-2.1 0.6-3.3 0.8-16 2.9-32.1 1.5-48.2 1.8-10.5 0.2-20.6-1.7-30.5-5.4-5.7-2.1-6.8-5.8-3-10.2 5.6-6.6 14-7.2 21.4-9.8 6.9-2.5 14.1-1 21-2 9.8-1.5 19.7-1.7 29.5-1.6 4.3 0.1 8.6-0.5 13 1.6 4.4 2 7.2-0.6 7.5-5.6q0-0.5 0-0.9 0.9-38.7 1.8-77.3 0-0.9 0-1.9c-0.1-3-0.2-6.6 3.9-6.4 1.2 0.1 3 3.9 3.2 6.1 1 9.7 1.6 19.4 1.9 29.2q0.5 15.4 0 30.8c-0.2 8-1 15.9-1.8 23.8-0.4 4 1.4 4 4.6 4.3 9.7 0.9 19.4 1.6 28.8 4.8 2.6 0.9 6.1-0.4 9.1-1.1 3.8-1 7.4-2.5 12-3.8zm-453.4 97.6c-2.1-0.8-4-0.9-5.3-1.8-1.6-1.1-2.7-2.9-4-4.4 1.8-0.2 3.7-1 5.2-0.5 8 2.8 16.8-0.1 24.8 3.5 1.5 0.6 3.6 0.1 5.4 0.1 12 0 24.1 0.2 36.2-0.1 8.2-0.2 16.4-1.2 24.5-1.7 1.1-0.1 2.2 0.4 3.3 0.7-1.1 0.6-2.2 1.5-3.4 1.9-3.2 1-6.4 2.3-9.7 2.7-16 1.9-32 5.4-48.2 3.5-8-0.9-16.2-0.4-23.9-3.3-1.3-0.5-3-0.1-4.9-0.6zm444.4-58.5c-1.7 5.9-3.6 11.8-5.1 17.8-0.5 1.9-0.1 4.1-0.1 6.1 1.1-1.3 2.1-2.6 3.4-3.7 0.8-0.7 2.1-0.7 2.9-1.4 3.4-3.3 6.9-6.7 10.1-10.2 0.7-0.8 0.7-2.4 1-3.7-0.9 0.6-1.8 1.2-2.6 1.8-0.5 0.4-1 1.3-1.3 1.2-3.5-0.9-4 5.7-8.1 3.2 1.8-2.5 3.4-5.1 5.3-7.6 3.1-3.8 6.9-7.3 9.5-11.5 2.8-4.6 1.8-8.1-2.3-9.1-2.9-0.6-5.3-1.2-5.2-4.4 0-0.4 4.1-0.9 6.3-1.2 1.1-0.1 2.4 0 3.5 0.1 1.5 0.2 3 0.6 4.4 0.8-1.1-1.5-1.9-3.6-3.4-4.4-3.7-1.9-7.3-4.6-12-3.8-4.1 0.7-5.1 2.7-2.8 6.4 0.8 1.1 1.9 2.6 1.7 3.7-1.2 6.3-2.8 12.6-5.2 19.9zm-368.6-111.7c7.6-0.6 14.3-1.3 21-1.8 1.4-0.1 2.8 0.5 4.2 0.7q-0.8 1.9-1.5 3.8c-0.7 1.5-1.8 3.1-1.8 4.6-0.8 16.1-1.2 32.2-2 48.2-0.4 9.2 1.3 18.3-1.5 27.5-1 3.2 1.4 7.3 1.5 11 0.2 8.4 0.3 16.9 0 25.3-0.2 4.4-9.1 9.6-13 7.6-1.6-0.7-3.1-3.5-3.1-5.5-0.9-17.2-1.7-34.5-1.8-51.8-0.1-6.8 0.8-13.5 0-20.3-0.5-4.2-0.1-8.5 1.3-12.9 1.3-4.5-0.6-9.9-0.8-14.9-0.1-2.4 0.5-4.9 0.6-7.3 0-1.7 0.1-3.4-0.4-4.9-0.1-0.4-2.7-0.7-3.3-0.1-0.8 0.9-1.1 2.5-1.2 3.8-0.6 20-2.6 40.1-1.4 60 0.9 15.8 0.9 31.6 1.5 47.3 0.2 6.9-0.6 9.1-8.5 8.7-8.5-0.4-17.1 0.9-25.4-0.3-10.1-1.5-20.1-1.2-30.1-1.7-9.6-0.5-12.4-4-12.4-13.9 0-8.2-0.2-16.3 0.1-24.5 0.2-5.5 1.7-11 1.6-16.5-0.2-14.8-0.1-29.8-2-44.5-1.2-9.2-1.2-18.3-1.5-27.4-0.1-4.1-4-7.6-0.3-12.4 1.6-2.1 2.2-2.5 2.8-0.5 2.5 7.3 8.2 8.7 15 9.4 8 0.9 15.7 3.7 24.2 1.8 4.8-1 10.2-0.6 15.7 1 6.6 2 14.3 0.5 22.5 0.5zm-99.9-30.9c-6.4-15.1-12.9-29.4-19.2-43.7-0.6-1.6-0.5-3.5-0.8-5.2-0.3-1.7-0.7-3.5-1.1-5.3 3.6-0.6 3.9 2.1 5.1 4.5 5.8 11.8 11.9 23.5 17.8 35.3 1.6 3.3 2.4 6.9 3.7 10.3 0.2 0.8 0.6 1.5 0.9 2.3 0.3-0.8 0.8-1.5 0.8-2.3 0.1-3.4 0-6.7 0.1-10 0-2.6 0.7-4.9 1.9-7.4 1.7-3.6 1.3-8.4 1-12.6-0.7-8.7-2.1-17.3-2.8-26-0.4-4.2 2.6-6.5 6.4-7 7-0.8 14-1.3 21-1.8 1.5-0.2 3.1 0 4.5-0.3 7.9-2 8.2-2.1 7.8-10.7-0.2-6.2 0.9-12.2-1.4-18.5-1.2-3.3 1.4-7.8 1.4-11.8 0.2-16.6 0.1-33.3 0.1-49.9 0-1.5 0.1-3.1 0-4.6-0.1-2.9 0.5-5.9 3.8-5.7 3 0.2 3.5 3.1 3.6 6.1 0.4 18.5 1.2 37 1.6 55.5 0.1 3.4 0.9 6.8-1.5 10.3-2.7 3.8 2.3 8 0.2 13-1.8 4.1-0.6 9.6-0.2 14.4 0 0.8 2.3 2 3.6 2 2.8 0.2 6.7 0.1 6.7 2.9 0 2.6-3.8 2.6-6.6 2.8-6.7 0.5-13.6-1.8-20.2 1.6-0.8 0.5-2.2-0.2-3.3-0.5-1.4-0.3-2.8-1.3-4-1.1-3.6 0.6-7.2 1.6-10.8 2.5 3.5 0.9 6.9 2.5 10.4 2.7 13.6 1.1 26.9 3.8 40.4 5.2 8 0.9 16.3 1.6 24.8-1.1 6-1.9 13.2-0.3 19.8-0.3 3.3 0 6.7 0.1 10-0.1 1.7 0 3.4-0.4 5.1-0.7-1.9-0.9-3.8-2.5-5.8-2.8-11.9-1.4-23.8-2.4-35.7-3.8-1.8-0.2-3-2.5-4.5 1.3-1.2 3.3-5.3 5.3-9.6 3.9-4.9-1.6-7.7-5.3-7.8-10.2-0.6-23.4-1.4-46.7-1.7-70.1-0.1-7 1.1-14 1.7-21 0.1-0.6 0.9-1.2 1.4-1.8 0.7 0.6 2 1.2 2.1 1.9 0.8 3.7 1.6 7.4 1.9 11.1 0.3 4.8-0.1 9.6 0 14.5q0.9 32.3 1.9 64.6c0 1.4 0.4 2.8 0.9 4.1 0.3 0.7 1.4 1.7 1.9 1.6 0.7-0.2 1.7-1.1 1.8-1.8 0.5-2.6 0.9-5.3 0.7-7.9-0.2-2.5-1.6-5-1.6-7.4-0.2-21.8-0.1-43.6-0.1-65.4 0-1.5-0.2-3 0-4.5 0.1-0.6 1-1.2 1.5-1.7 0.7 0.7 1.4 1.3 2.1 2.1 0.1 0.1 0 0.6 0 0.9 0.6 16.4 1.1 32.7 1.8 49.1 0.5 10.1 1.4 20.1 1.7 30.1 0.1 3.4 1.7 3.2 3.9 3.1 6.1 0 12.2 0.2 18.2 0 10.9-0.4 21 3.3 31.3 5.7 3.3 0.7 6.8 3 7.7 7.2 0.2 1 0.7 2.4 0.2 3-6.5 8.7-6.5 19.7-10.4 29.3-0.3 0.8-1.4 1.4-2.1 2-0.5-0.9-1.2-1.7-1.4-2.7-0.4-2 0-5.6-0.8-5.8-2.4-0.7-5.2-0.4-7.8-0.1-3.1 0.2-6.2 1-9.4 1.3-0.6 0-1.3-1.3-2-2 0.6-0.6 1.1-1.3 1.7-1.5 4.3-1.3 8.7-2.4 13-3.8 1.9-0.5 3.7-1.5 5.2-2.7 0.9-0.8 1.2-2.4 1.8-3.7-1.1-0.2-2.3-0.8-3.3-0.7-5.2 0.5-10.4 1.7-15.6 1.6-8.9-0.1-17.7-1-26.5-1.7-0.6-0.1-1.2-1-1.7-1.5 0.6-0.7 1.3-2 2-2 9.1-0.1 18.2 0.4 27.2-0.2 6.5-0.5 13-2.2 19.4-3.6 0.9-0.2 1.4-1.8 2.1-2.8-1-0.1-2.1-0.4-3.1-0.2-6.2 0.9-12.4 2.7-18.7 2.9-13.3 0.5-26.7 1.2-39.9-0.1-17.2-1.7-34.8-0.8-51.6-6.7-2.1-0.8-4.7-0.4-7.1-0.2-0.9 0-1.8 0.6-2.7 1 0.8 0.9 1.6 2.2 2.6 2.4 5.2 1.4 10.4 3 15.7 3.7 7.9 1 15.8 1.2 23.7 1.9 2.3 0.2 4.6 0.8 6.9 1 1.8 0.1 3.7-0.3 5.5-0.3 2.3-0.1 4.5-0.2 6.7 0 0.7 0 1.3 1.2 2 1.8-0.7 0.4-1.2 0.9-1.9 1.1-2.5 0.7-4.9 1.7-7.4 1.7q-20.8 0.5-41.2-3.5c-1.4-0.3-3-0.2-4.5 0-2.2 0.3-4.4 0.8-6.6 1.2 2 1.9 3.7 4.5 6 5.4 3.7 1.4 7.8 1.9 11.7 2.4 6.4 0.8 12.8 1.5 19.2 1.8 14.3 0.8 28.6 1.3 42.8 1.9 1.4 0.1 2.8 0.7 4.1 1.2 0.5 0.2 0.8 0.8 1.3 1.2-0.6 0.4-1.1 0.9-1.7 1.2-0.2 0.1-0.6 0-0.9 0-10.4 0.9-12.7 4.9-7.9 14.5 0.4 1 2.2 1.9 3.1 1.8 10.1-1.7 20.4-0.7 30.4-3.4 2.4-0.6 5.4 0.8 8.1 1.2-2.2 1.4-4.3 3.6-6.6 3.9-9.8 1.6-19.6 3.2-29.4 3.7-12 0.6-24.2 0-36.3 0.2-10.2 0.1-19.9-2.9-29.7-4.9-2.6-0.6-5.7 0.3-7.8-0.9-3.1-1.7-6.5-3.1-8 0.3-2.4 5.5 0.9 11.6 6 12.7 10.4 2.2 20.6 4.5 31.3 5.9 14.9 1.8 29.8 3.8 44.8 3 10.1-0.5 20.3-1.9 30.2-3.7 3.5-0.6 7.8-2 7.6-7.9-0.2-3.4 1.7-7 3-10.4 0.3-0.8 1.9-1 3-1.4 0.2 1 0.8 2 0.7 2.9-0.3 2.3-1.4 4.5-1.4 6.7-0.3 9.6-5.2 14.7-14.5 15.8-12.9 1.6-25.7 4.2-38.6 5.2-6.9 0.5-14.1 1.9-21.1-1.4-2.2-1.1-5.4 0.1-8.1-0.2-11.7-1.3-23.8-1.4-34.8-5.7-4.8-1.9-12-0.6-13.9-8-0.1-0.3-2.3-0.7-3-0.3-3.3 2.1-4 7-2.5 11.2 1.2 3.1 3.2 6.1 1.5 9.8-2.6 5.9-8.8 8.8-15.6 6.9-7.6-2.3-10.8 0.1-11.1 8.1-0.3 5.6 1.1 10.7 3.6 15.7 2.7 5.2 4.3 11.1 7.6 15.9 4.4 6.7 3.7 14.7 7 21.6q0.6 1.3 1.2 2.6c0.8-0.9 2.3-1.7 2.3-2.6 0.1-7.6 1-15.3-2.6-22.5-4.3-8.9-7.6-18.1-9.5-27.8-0.2-1.4 1.5-3.3 2.4-4.9 1.4 0.9 4 1.6 4.1 2.7 2 11.8 8.8 21.8 11.8 33.3 1.8 6.6 3.2 13 1.2 19.8-1.1 3.7-6.1 7.5-10.5 7.7-3.5 0.2-9-3.9-9.4-7.8-1.1-10.4-6.4-19.1-11-28.2-3.8-7.6-6.7-15.6-7.2-24.2-0.2-2.7-1.1-5-3.8-5-8.2-0.2-13.9-5.9-20.6-9.3-6.8-3.5-12.9-8.5-19.7-11.9-6.4-3.3-10.2-8.6-12.4-14.8-2-5.5-5.8-11-1.9-17.9 1.6-3 1.6-8.4 0-11.5-3.3-6.3 1-10.8 1.8-16.1 1-6.6 5-10 10.1-12.9 3.1-1.8 5.2-3.6 4.8-8-0.6-7.2 0.7-14.6-0.3-21.7-3.5-26.4-0.6-52.8-1.7-79.1-0.6-16 1.9-31.5 5.7-46.7 2.1-8.4 6.3-16.2 9.6-24.2 0.4-0.7 1.3-1.3 1.9-1.9 0.3 1 1.1 2.1 0.9 3-1.2 7.3-2.7 14.6-4 21.9-1.1 5.9-1.9 11.9-3.2 17.8-2.7 12.6 0 25.8-2.3 38.2-1.7 9.4 0.7 18 0.6 27-0.2 19.4-0.1 38.7 0 58.1 0 2 0.3 4.1 0.5 6.1 1.1-1.5 1.9-3.6 3.3-4.3 5.1-2.4 10.2-4.7 15.6-6.1 3.4-0.9 7.2-0.3 10.8-0.1 0.9 0 1.6 1.1 2.4 1.7-0.7 0.6-1.4 1.5-2.3 1.8-4.3 1.3-8.6 3-13.1 3.4-5.5 0.7-7.5 4.3-10.2 8.3-2.6 3.9-6.5 7-10 10.3-7.7 7.4-14.2 15.3-13.5 27.1 0.4 7.3 0.8 14.3 3.5 21.2 2.5 6.2 6.9 10.4 11.5 14.3 5.2 4.4 11.2 7.8 16.9 11.6 0.7 0.5 1.7 0.8 2.5 1.1-0.3-1-0.3-2.4-1-3-4.3-4-8.9-7.7-13.3-11.6-0.9-0.9-2.9-1.9-0.5-3.2 1.1-0.5 2.9-1.2 3.7-0.7 6.2 4.1 12.2 8.5 18.4 12.7 4.4 2.9 9.1 5.6 13.8 8.3 0.5 0.3 1.6-0.3 2.4-0.5-0.2-1-0.2-2.7-0.7-2.9-11.6-5.2-18.3-15.4-25.9-24.6-3.2-3.8-5.2-8.7-7.5-13.2-0.3-0.5 0.3-1.9 0.9-2.2 0.6-0.3 1.8 0.1 2.3 0.6 5.7 6.1 12.1 11.7 16.5 18.6 5.7 8.7 14.3 13.3 22.2 18.8 2.3 1.6 5.1 2.4 7.6 3.7 1.3 0.7 2.7 2.6 3.9 0 0.4-1.1 0.4-2.6 0-3.7-2.7-5.9-5.1-11.9-8.5-17.3-1.7-2.9-0.7-3 1.4-2.5 2.2 0.4 4.1 1.9 6.2 2.4 1.8 0.4 3.7 0.1 5.5-0.8zm274.2 16.4c-10.8 2.4-20.6 5.1-30.6 7.2-8.1 1.6-16.4 2.9-24.7 3.5-4.2 0.3-8.9 1.9-13-1.5-1.1-0.9-3.5 0-5.3-0.2-14.6-1.1-29.3-1.9-43.8-3.8-5.3-0.8-11.3-1.6-15.5-6.3-2.2-2.4-0.1-3.5 0.9-3.8 2.2-0.6 5-1.2 7-0.4 8.9 3.4 18.2 2.8 27.5 3.7 7.9 0.8 16.2 0.5 24 3.2 2.4 0.9 5.8 1.1 8 0 5.4-2.7 11.1-1.7 16.5-1.5 9.5 0.4 18.3-2.7 27.1-4.9 9-2.2 17.8-4.8 27.2-4.4 8.7 0.4 17.5 0.3 26.3 0.1 11.5-0.4 23.1-0.9 34.6-1.9 10.1-0.8 20.3-1.6 30.2-3.7 13.1-2.8 26.8-2.5 39.6-7 3.8-1.3 8.5 1.8 12-1.9 0.6 0.6 1.4 1.2 1.8 2 0.1 0.3-0.7 1.4-1.3 1.6-7.7 2.5-15.4 5.2-23.2 7.2-11.1 2.7-22.2 4.9-33.4 7.1-4.8 0.9-9.7 1.6-14.5 2-9.1 0.8-18.3 1.4-27.4 1.8-16.4 0.8-32.7 1.3-50 1.9zm-152.1 4.1c-14.6 4.3-29 5.5-43.6 4.9-2.5-0.1-4.9-1.1-7.4-1.8-0.7-0.2-1.3-0.7-1.9-1 0.8-0.3 1.5-0.7 2.4-0.7 10.2-0.7 20.5-1.1 30.7-2 4.2-0.4 8.2-2.1 12.3-2.8 3.2-0.5 6.5-0.6 9.7-0.6 0.3 0 1.1 1.8 0.9 2-0.7 0.7-1.7 1-3.1 2zm-160.2-51.3c-1-1.9-2.6-2.8-0.4-4.1 0.7-0.4 2.1-0.5 2.5-0.1 4.2 5.5 8.2 11.1 12.4 16.6 2 2.5 4.4 4.8 6.1 7.5 0.9 1.2 0.7 3.2 1 4.8-1.9-0.2-4.4 0.4-5.5-0.7-3.2-3.2-6.2-6.9-8.8-10.8-2.7-3.9-4.9-8.2-7.3-13.2zm119.8 19c3.7-3.5 1.1-7.9 1.7-11.9 0-0.4-2.1-1.5-3.2-1.6-1.3 0-3.7 0.6-3.7 1.1-0.3 3.6-0.4 7.2 0.1 10.8 0.2 1 2.8 1.7 5.1 1.6zm-42.6-4.5c7.9 1.2 15.8 2.5 23.7 3.6 3.8 0.5 6.3-0.8 6.2-5.3 0-3.6 0.4-7.2-5-7.4-5.8-0.3-11.5-1.3-17.3-1.8-8.4-0.7-16.9-1.1-25.4-1.8-3.2-0.3-3.3 1.3-3.2 3.7 0.3 4.2 3.5 6.6 9.1 7.3 3.3 0.3 7.2-1.8 11.9 1.7zm413-219.7c12.4-0.1 22.9-9.3 25.5-20.8 2.6-11.3 6-22.3 9.1-33.5 0.1-0.6 0.7-1.2 1.1-1.8 0.2 0.6 0.6 1.1 0.6 1.6-0.3 5.6-0.8 11.1-1.2 16.7-0.2 2.6-0.5 5.3-0.5 7.9-0.3 14.8-6.6 26.4-18.6 34.8-4.4 3-9.3 4.2-14.6 4.2-10-0.1-20 0.1-30-0.1-2.9 0-4.2 0.3-4.2 3.8 0.1 11.5 1.1 22.7 3.6 33.9 1.5 6.6 1.8 13.4 1.9 20.1 0.1 10.6 0.8 21 3.7 31.2 0.2 0.8 0 1.8 0 2.7 0.6 11.6 0.5 23.2 2 34.6 2.1 15.5 1.8 31.1 3.5 46.6 0.4 3.7 1.8 7.4 1.7 11.1-0.3 8.8-1.1 17.6-1.8 26.4 0 0.7-0.7 1.3-1 1.9-0.7-0.6-1.7-1.2-1.9-1.9-0.9-3.6-2.3-7.2-2.3-10.8-0.1-11.8-1-23.3-3.6-34.9-1.7-7.6-0.8-15.9-2.2-23.6-1.4-8-0.2-16.3-3.3-24-0.7-1.6-0.2-3.6-0.1-5.4 0.2-11.5-0.9-22.8-3.6-33.9-0.2-0.6 0-1.2-0.1-1.8-0.6-12.2-0.2-24.5-2.1-36.4-1.8-11.9-1.2-23.8-1.4-35.6-0.1-4.3-1.8-6.1-5.9-5.8-1.2 0.1-2.5 0.1-3.7 0.1-17.3-0.6-34.7-0.4-51.8-2.1-20.4-2-40.7-3.2-61.2-3.6-12.8-0.2-25.6-1.9-38.4-3.5-10.2-1.3-20.2-4.1-30.4-5.1-5.6-0.6-11.4 1.4-17.2 2.1-4.9 0.6-9.9 1-14.9 1.1-1.1 0.1-2.3-1.6-3.4-2.4 1-1 1.9-2.5 3.1-2.8 9.2-2.6 18.5-5.3 27.9-7.1 3.1-0.7 6.7 0.9 10.1 1.6 10.6 2.2 21.7 2.1 32.2 5.3 1.1 0.4 2.4 0.1 3.6 0.1 8.8 0.6 17.9 0.2 26.4 2.1 11 2.4 22 0.4 32.9 1.7 17 1.9 34.1 2.6 51.1 4 9.5 0.7 18.9 0.7 28.3 1.3 10.4 0.6 20.7-0.7 31.1 1.5 6 1.2 12.7-0.9 20-1.5zm-478.9 155.7c6.5-7.5 14-5.3 21.6-2 4.1 1.8 8.7 3 9.9 8.1 0.4 1.6 0.2 3.2 0.2 4.9-1.8-0.4-3.8-0.4-5.4-1.2-4.5-2.3-8.5-5.6-13.2-7.3-3.9-1.5-8.4-1.4-13.1-2.5zm-11.3-302.8c6-16.6 11.9-32.3 16.6-48.5 3.5-12.3 9.7-23.8 14-35.9 1-3.1 2.6-3.2 4.3-2.6 3.9 1.6 0.1 3-0.4 4.6-2.5 8.4-4.7 16.8-7.3 25.1-8.9 29-18 57.9-26.8 86.9-4.6 15.1-9.6 30.2-12.6 45.6-2.5 13-6.3 25.9-6 39.3 0.1 2.1 0.4 5.5 3 2.9 4.9-4.5 11-4.1 16.3-4.5 17.7-1.2 35 2.9 51.2 9.7 12.1 5.2 22.9 13 30.8 24.4 2.4 3.4 1.6 7.2 4.2 10 1.8 1.9 0.8 3 0.7 3-0.8-0.1-3.5-2.1-4-2.5-5.4-4-10.9-7.8-15.8-12.3-3.3-3-2.9-0.1-3.3 1.5-1.1 4.3-2.1 8.8-3.2 13.2-0.2 0.8 0.3 1.9-0.1 2.6-2.2 4.3-5.8 8.2-6.7 12.6-0.9 4.6 1 9.7 1.3 14.6 1.2 17.6-2.5 34.6-7 51.5-2.1 7.7-2 16-4 23.8-2.4 9.8-5.9 19.3-9 28.9-0.2 0.9-1.3 1.4-2 2.1-0.5-0.9-1.5-1.8-1.5-2.6 0.7-6.4 1.4-12.7 2.5-19 1.4-8.1 3.3-16.2 4.7-24.3 1.4-8 1.8-16.1 3.9-23.9 1.6-6.1 2.6-12.2 3.6-18.5 1.8-10.6 1-21.3 1.8-31.9 0.4-4.9 3.1-9.5 4.5-14.4 1.6-5.7 2.4-11.7 4.5-17.2 1.7-4.3-0.2-6.5-3.2-7.9-13.3-6.5-26.7-12.6-41.9-12.9-4.9-0.1-9.8-1.5-14.7-1.6-3 0-6.3 0.9-8.9 2.4-2.2 1.3-4.1 4.2-6.8 2.7-3-1.6-6.5-3.7-7.9-6.5-1.7-3.5-2.5-8-1.9-11.8 2.6-15.8 5.4-31.6 9.1-47.1 3.5-14.7 8.2-29.2 12.6-43.8 1.6-5.6 3.6-11.2 5.4-17.7zm131.2 200.2c2.7-0.9 4.9-1.5 7.2-1.7 2.2-0.1 4.4 0.1 6.7 0.2-1.4 1.5-2.6 3.4-4.3 4.4-1.8 1.1-4.2 1.9-6.3 2-4.4 0.1-6.4 2.6-7.4 6.3-1.2 4.7-3.9 6.9-8.8 6.5-2.7-0.1-5.5 0.2-8.2 0-5.9-0.6-8.1-2.7-8.3-8.7-0.1-3-0.6-3.9-3.9-4.2-3.5-0.4-7.2-1.9-10.1-3.9-6.5-4.2-6.1-13.5 2-18.9 5.5-3.7 7.2-8.5 8.1-13.9 2.5-14 6.5-27.5 11.5-40.6 3.1-8.1 6.9-16 10.9-23.6 2.9-5.5 6.7-10.6 10.2-15.8 3.3-4.9 8.8-6.5 13.8-8.1 5.2-1.6 11.2-0.7 16.4-2.3 7.9-2.3 16.3 0.1 24-3.4 0.2-0.1 0.6 0 0.9 0 10.3-0.6 20.6-1.5 31-1.7 4.5-0.1 9.1 1 13.7 1.7 0.7 0.1 1.2 0.7 1.9 1.1-0.5 0.4-0.8 1-1.3 1.3-1 0.5-2.1 1.1-3.2 1.2-7.9 0.7-15.8 0.9-23.7 1.9-11.1 1.5-22 4.2-33.1 5.2-8.2 0.7-16 2-24 3.4-5.6 1-8.9 4-11.3 7.7-4.7 7.2-8.3 15.2-12.1 23-2.7 5.5-4.9 11.3-7.3 16.9-5.4 12.3-8.2 25.2-10.9 38.2-0.7 3.3-1.4 6.7-1.7 10.1-0.1 0.8 0.8 1.9 1.6 2.5 0.3 0.2 1.7-0.5 2.1-1.1 1.8-3.2 4.2-6.2 5.1-9.7 1.2-5 1.2-10.3 2-15.5 2.3-14.2 6-27.9 16.7-38.4 1.1-1.1 2.9-1.5 4.4-2.2-0.4 1.8-0.3 3.9-1.2 5.2-4.7 6.6-7.9 13.7-9.6 21.5-1 4.5-2.7 9-2.4 13.4 0.6 10.1-5.6 20-0.7 30.1q0.5 1.1 1.1 2.1c0.6-0.6 1.6-1.2 1.8-1.9 0.5-1.7 0.2-3.6 0.8-5.2 5.5-15.5 9.6-31.6 17.9-46.1 2.3-4.2 4.5-8.5 7.1-12.4 1.1-1.5 3.3-2.2 5-3.3-0.5 1.7-0.7 3.6-1.5 5-4.5 7.9-8.9 15.7-10.5 24.8-1.2 6.6-3.4 13.1-5.4 19.5-0.7 2.4-1.7 4.7-2.7 7-0.8 1.8-2.1 3.5-2.6 5.3-0.3 1.6-0.1 3.7 0.6 5.1 0.4 0.6 2.9 0.7 4.1 0.1 1.9-0.9 3.1-2.5 0.7-4.4 0.9-0.8 2.3-2.5 2.5-2.3 1.7 1.2 3.9 2.4 4.6 4.1 0.9 2.7 0 6.4-3 6.4-9.3 0.2-17.7 6.5-27.8 2.4-4.7-1.9-10.8-0.4-16.2-0.3-0.5 0-1 0.3-1.6 0.5 0.5 0.7 0.8 1.4 1.3 1.9 0.4 0.5 0.9 1.1 1.4 1.1 10.5 0 20.9 4.2 32 0.5zm-15.9 6.8c-2.1 0.4-4.3 0.9-6.4 1.4 0 0 0 1.4 0.3 1.5q3.9 1.4 7.9 2.5c0.3 0.1 0.8-0.8 1.2-1.2q1.7-1.4 3.3-2.9c-1.5-0.4-3-0.8-6.3-1.3zm56.7-99.4c-3.2 8-7 15.5-10.3 23.2-2.6 5.9-5.1 12-6.4 18.2-2.3 11.7-1.3 23.5 0.9 35.2 0.1 0.4 1 1.1 1.2 1 0.9-0.5 2-1 2.3-1.8 1.4-3.7 2.8-7.4 3.6-11.2 1.8-7.7 2.6-15.7 7.3-22.4 0.5-0.7 0.2-1.9 0.8-2.4 1.7-1.4 3.7-2.6 5.6-3.9-0.7 1.9-1.5 3.7-2 5.6-1.5 6.7-3 13.3-4.3 20-1.4 6.6-1.6 13.5-5.4 19.5-4 6.2-6.5 6.5-12 2.3-4.9-3.8-5.5-9.2-6-13.9-1.7-15.6-0.9-31 8.2-44.9 3.9-6.1 6.3-13.2 9.8-19.5 1.3-2.3 4.2-3.7 6.7-5zm-60.3 81.3c0 1.2 0 2.4 0.1 3.6 0 0 1.6 0 1.6 0 0.1-1.2 0.1-2.4-1.7-3.6zm-18.2-1.9q0.5 0.9 0.9 1.8 0.5 0.9 1 1.8c-0.1-1.2-0.1-2.4-1.9-3.6zm-2.7-36.3c0-18.4 1-36-0.3-53.5-1.3-18.5-1.4-37-1.5-55.5 0-1.2 0.4-2.3 0.7-3.4 1 1 2.6 1.9 2.8 3 1 6.2 2.9 12.2 4.1 18.4 4 21.3 3.1 42.6 3.2 63.9 0.1 11.4-2.1 22.4-5.1 33.3-0.8 3.1-0.4 6.5-0.8 9.7-0.2 0.8-2.7 1.7-4.2 1.8-2.4 0.2-7.7 0.1-10.3-0.6-7.2-1.9-12.9-5.8-13.2-6.3-2.5-3.3 2.2-0.6 7 0.4 6.5 1.3 11.2 2.4 14.2 2.1 1.5-0.1 3.4-1.3 3.4-1.6q0-0.9 0-1.9c0-3.1 0-6.2 0-9.8zm114.8-8.6c3-2.4 5.4-4.4 8.1-6.1 1-0.7 2.4-0.8 3.7-1.2-0.1 1.6 0.4 3.6-0.4 4.8-1.8 3-4.3 5.5-6.4 8.3-4.2 5.4-8.5 10.8-12.6 16.4-3.2 4.4-7.7 2.8-11.6 2.6-2.9-0.1-7-6.8-6.6-10.4 1-8.2 2.5-16.2 7.3-23.2 2.1-3 3.8-6.3 5.9-9.3 0.3-0.4 1.6-0.2 2.4-0.3q-0.3 0.9-0.5 1.9c-2.3 8.4-4.5 16.8-7.1 25.1-0.8 3-2.2 6.3 1 7.7 1.5 0.8 5.1-1 6.7-2.7 3.6-4.1 6.5-8.7 10.1-13.6zm297.8-249.6c-1.2-10.8-4.2-20.5-8.2-30-4-9.6-13-12.6-21.7-14.8-18.4-4.8-37-8.9-55.6-12.8-8.4-1.8-17.2-2.1-25.6-3.8-16-3.4-32.3-5.7-46.8-14.3-2.8-1.8-6.8-3.8-5.4-6.4 1.5-2.8 5.5-0.7 8.5 0.7 10 4.7 20.4 7.8 31.6 9.4 19.2 2.7 38.1 7.6 57.2 10.5 14.7 2.2 29.2 5.4 43.4 9.4 14.4 4.2 23.9 14.2 27.5 29 2.9 11.6 6.3 23.1 7.6 35.1 0.7 7.2 3.3 14.2 5.2 21.3 3.6 13.7 6.8 27.4 11.1 40.8 3.4 10.7 5.3 21.5 7.2 32.5 2.2 13.2 4.5 26.5 6.8 39.7 2.2 13.4 2.1 27.2 1.9 40.9 0 7.7-2.1 15.4-3.5 23-1.2 6.1-6.1 9.8-10.3 13.8-1.4 1.4-3.7 1.9-5.6 2.8 0-2-0.2-4.1 0-6.1 0.1-0.7 1-1.4 1.5-2.1 5.3-7.5 2.9-14.9-0.9-22-6.3-12.2-16.4-20.6-28.2-27.4-10.6-6.2-21.9-10.4-33.8-12.4-6.2-1-12.9 0.4-19.4 1.3-7.6 1-15.2 2.7-22.8 3.8-1.2 0.2-2.6-0.7-3.9-1.1 1-1.4 1.6-3.6 2.9-4.1 5.5-2.1 11-4.4 16.8-5.5 21.2-3.8 41.7-2.2 61.1 8.7 12.5 7 23.3 15.8 32.1 27 1.7 2.2 2.2 5.2 3.4 7.7 0.4 0.8 1.5 1.3 2.2 1.9 0.5-0.9 1.5-2 1.3-2.8-4.1-15.6 0.3-32.1-5.1-47.7-2.8-8.1-2.3-17.2-4-25.7-2.4-12.8-5.1-25.6-8.2-38.3-4.3-17.2-9.1-34.3-13.4-51.6-2.5-9.9-4.3-20-6.9-30.4zm-125.7 171.1c-1.9 0.6-2.9 1.7-3.8 1.7-14.5-0.4-28.5 3.3-42.9 4.3-13.8 0.8-28.1 1.6-41.4 6.6-0.5 0.2-1.2 0.1-1.8 0.1-14.8 0.6-29.7 1.2-44.5 1.7-1.2 0.1-3.4-0.7-3.5-1.3-0.5-3.1 2.1-2 3.6-2.2 12.2-1.8 24.5-3.4 36.7-5.5 9.5-1.7 18.8-4 28.3-6.1 4.7-1 9.4-2.5 14.1-2.9 11.2-0.9 22.5-0.6 33.7-2 16.3-2 32.7-1.6 49-1.7 1.1 0 2.2 0.6 3.3 0.9-0.9 0.9-1.6 2.3-2.6 2.5-9.1 1.4-18.2 2.6-28.2 3.9zm31.3-14.1c-0.2 2.9-1.9 4.4-3.4 2.7-2.1-2.5-4-5.9-4.2-9.1-0.9-14.4-0.2-28.8 3.5-42.9 0.1-0.5 0.2-1.2 0.5-1.6 1.2-1.4 2.4-2.7 3.6-4 0.2 1.7 0.7 3.5 0.6 5.2-1.5 14.8-2.2 29.6 0.3 44.4 0.3 1.5-0.3 3.2-0.9 5.3zm-205.2-148c-9.7-5.2-16.6-12.5-22.2-21.1-3-4.7-5.5-9.8-8.2-14.7-0.9-1.7-2.3-3.4-2.6-5.2-0.3-1.9 0.7-3.8 1.1-5.7 1.2 1.3 2.6 2.5 3.6 3.9 5 7.3 9.3 15.2 14.9 21.9 10.3 12.3 24.6 18.4 39.4 23.1 10.5 3.3 21.3 2.5 32.2 0.6 27.5-5 43.3-23.6 55.7-46.4 2.6-4.7 5.1-9.4 7.2-14.3 2.8-6.1 7.9-11.3 7.5-18.7-0.1-0.8 1.6-1.8 2.4-2.6 0.4 0.9 1 1.8 1 2.8 0.2 9.3-1.4 18.3-5.4 26.8-4.3 9.3-8.1 19.1-13.5 27.9-7.5 12.4-18.9 21-31.7 27.6-13.6 7.2-28.3 10-43.4 8.8-7.6-0.6-15.7-1.8-22.6-6.4-4.7-3.1-10-5.3-15.4-8.3zm110.3-70.3c-7.3 13.3-14 26.1-21.9 38-8.6 12.9-21 21.3-36 25.5-17.9 5.1-33.4 0.5-47.8-10.3-13.9-10.5-25.3-22.9-32.5-39.1-3.6-8.2-3-8.6-12.7-4.1-7.1 3.2-14.6 5.5-22 8.1-5.3 1.9-11.1 2.8-15.8 5.6-20.3 12.1-42.9 19.4-63.5 30.8-3.2 1.8-6.1 4.2-9.2 6.2-0.9 0.5-2.1 0.5-3.1 0.7 0-1.1-0.3-2.5 0.2-3.1 8.2-9.6 18.4-17 29.9-21.8 12.3-5.1 23.9-11.2 35.3-17.9 8.9-5.4 18.3-9.7 28.8-11.5 7.8-1.3 15.5-3.4 23.2-5.5 0.9-0.2 2-2.8 1.7-3.9-1.8-6.5-4-12.9-5.9-19.3-0.6-1.9-1.1-3.9-1.1-5.9-0.1-2.9 0.4-5.8 0.7-8.7 1.5 2.6 3.8 5.1 4.3 7.9 2.6 15 11.3 27.5 17.6 40.8 8.5 18.1 23.2 30.5 40.1 39.9 10.3 5.6 22.1 5.8 33.2 0.2 4.5-2.2 9.1-4.4 13.4-6.9 11.1-6.3 16.5-17.5 23-27.6 8.3-13 15.6-26.7 23.1-40.3 3.5-6.3 6.5-13 9.7-19.5 0.5-1.1 1.1-2.1 1.9-2.8 0.6-0.6 1.6-0.6 2.4-0.9-0.1 0.8-0.2 1.6-0.3 2.4-3.2 14.9-11.4 27.9-16.7 43zm-79.9 23.6c-2.6-1.6-5-3.7-1.2-5 5.3-1.8 10.8-2.9 16.3-4 0.9-0.2 2 0.6 3.1 0.9-0.5 1-0.7 2.2-1.4 3-4.1 5.3-9.9 5.5-16.8 5.1zm-9.1-52.7c0.6-4.6 1.2-8.3 1.9-11.9 0.2-0.9 1.1-2.5 1.5-2.5 1 0.2 2.4 0.8 2.8 1.7 0.7 1.5 0.8 3.3 1.1 5 1.6 9.5-2.3 18.3-4.2 27.2-1.5 7-1.9 6.8 4.6 7.8 1.6 0.3 3 1.4 4.5 2.2-1.3 1-2.5 2.4-4 3.1-8.1 4.1-12.7 2.7-16-5.1-0.7-1.5-1.5-3.6-1-4.9 2.7-7.3 5.9-14.5 8.8-22.6zm-35-23.6c0.7-0.9 1.8-1.8 3-2.1 3.5-0.9 5.8 0.9 6.6 3.7 1.3 4.4-0.6 8.9-3.9 9.3-3.2 0.4-6-1.8-6.7-6.4-0.1-0.8 0.4-3.6 1-4.5zm87.2 10.5c-1.6 0.7-5.6 2.3-7.4-2.5-1.4-3.5 0.3-4.9 1.4-6.8 1-2 3.6-2.3 5-2 1.3 0.3 3.1 3.2 3.1 4.4 0.1 2.1-0.5 6.1-2.1 6.9zm-20.8-22.7c11-11.9 24-11 37.5-7.7 0.7 0.2 1.3 1.4 1.9 2.1-0.9 0.5-1.7 1.2-2.7 1.4-6.4 1.3-13 1.9-19.2 3.9-5 1.5-9.4 4.9-14.2 6.9-1.7 0.7-3.3 3.9-6 0.8-2.5-2.8 1.2-3.7 1-5.7 0-0.4 0.8-0.9 1.7-1.7zm-55 6.8c-8.6-2.9-16.4-5.5-24.8-5.5-1.4 0-2.8-0.6-4.2-0.9 1.1-1 1.9-2.5 3.2-3.1 2.8-1.3 5.7-2.9 8.6-3.1 8.4-0.5 16.3 1.9 23.8 5.7 1.7 0.8 3.4 2.7 4.1 4.5 0.6 1.4 1.5 4.7-2.4 4.1-2.5-0.3-4.9-1.1-8.3-1.7zm124-31.4c-2.1-10.1-8.6-17.6-12.2-26.4-0.7-1.8-3.5-3.4-5.5-3.8-11.8-2.2-20.4-9.1-28.2-17.5-0.6-0.6-0.7-1.7-1-2.5 1.2-0.1 3-0.6 3.5-0.1 4.2 5.1 10.3 7.1 15.8 10.1 4 2.1 8 5.9 12 5.8 8-0.1 10.8 5.6 14.8 10.2 0.9 1 1.3 2.5 2.1 3.6 0.1 0.2 1.6-0.2 1.8-0.7 3.8-8.4 5.4-9.3 16.4-9.1 4.7 0.1 11.3 4.5 12.6 9.4 4.7 17.3 1.9 33.2-10 47-0.5 0.6-1.3 1-1.9 1.6-0.2-1.1-1-2.4-0.6-3.3 1.4-3.9 3.5-7.7 4.9-11.6 3.3-9.2 4.5-18.8 2.2-28.4-1.5-6.2-8-8.8-13.7-5.5-2.4 1.5-3.9 4.6-6.4 6.2-4.2 2.9-0.3 5.6 0.4 7.6 4.3 12.8 4.6 25.3-0.3 37.9-0.3 1-1 1.8-1.5 2.7-0.7-1-1.9-1.9-2-3q-0.3-6.3 0-12.7c0.2-5.9-0.3-11.6-3.2-17.5zm-107.6-115.7c3.1-0.6 5.3-1.9 7.4-1.7 12.3 1.2 24.8 2.6 33.6 12.9 2.6 3 4.4 6.6 6.4 10 1.1 1.9 1.5 5.5 2.8 5.7 3 0.7 6.3-0.1 9.6-0.4 2.2-0.3 4.5-1 6.8-1 4.7 0 7.5 2.9 7.8 7.4 0.1 1.2 0 2.5 0 3.7 0.1 12-3.3 16.5-15 17.8-10.8 1.2-21.6-0.5-32-3.6-0.7-0.2-1.2-0.8-1.7-1.1 0.4-0.5 0.8-1.1 1.3-1.3 1.6-0.5 3.3-1.1 4.9-1.1 5.8-0.2 11.5 0.1 17.3-0.2 4.9-0.2 9.8-0.8 14.6-1.8 3.8-0.8 3.8-4.3 3.3-7.2-0.4-1.9-1.8-5.1-2.5-5.1-4 0.3-7.8 1.8-11.7 2.1-7.9 0.4-15.8 0.4-23.7 0.4-1.7 0-3.3-0.9-5-1-9.3-0.4-9.2-0.2-9.8 9.2-0.3 5.2-0.3 10.8-6.9 13.3-6.5 2.5-11.7 0.3-16.6-3.5-3.6-2.8-12.6-3.5-16.6-1.5-3.5 1.7-7.2 3.5-11 4.1-6.6 1.2-13.3 1.5-20.1 2-5.9 0.3-7.8 1.3-6.6 6.6 2.2 9.1 1.4 18.2 1.7 27.4 0.1 0.8 1.2 1.5 1.8 2.3 0.6-0.8 1.7-1.5 1.7-2.3 0.1-6.4 0.1-12.7 0.1-19.1 0-0.7 0.7-1.4 1-2.1 0.6 0.7 1.7 1.2 1.9 2 0.9 3.8 2 7.7 2.5 11.6 1 7.6 0.1 15.2 1.3 22.9 1.3 7.6-1.8 15.9-2.7 24-0.4 3.2-0.2 6.5-0.4 9.8-0.1 0.8-0.7 1.5-1 2.2-0.9-0.5-2.2-0.8-2.5-1.6-0.9-2.4-1.7-4.9-1.8-7.4-0.3-5.1-0.3-10.2-0.1-15.4 0.4-8 0.5-15.8-5.4-22.3-0.9-0.9-1.9-2.5-1.8-3.7 0.9-10.7-5.4-21.4-0.2-32.1 0.3-0.7-0.4-2.6-1.1-3-8.6-5.3-4.7-13.2-4.1-20.3 0-0.5 1.2-1.2 1.8-1.2 0.6 0 1.5 0.9 1.6 1.5 0.3 1.1-0.1 2.4 0.1 3.6 1.4 6 3.3 7.5 9.7 7.5 5.7 0.1 11.5 0.2 17.2 0 6.5-0.3 7.4-1.4 7.6-7.6 0.2-4.7-0.4-9.7 1.1-14.1 5-15.7 16.5-24.3 33.4-27.3zm159.8 65.4c5.1 2.9 9.4 5.8 13.4 9 3.8 2.9 4.6 8.9 3 12.7-1.3 3.1-3.3 3.5-6.1 3.7-10.5 0.9-19.7-2.8-29-6.8-5.5-2.4-11-4.7-17.3-4.2-1.8 0.1-3.8-1-5.6-1.8-14.1-6.3-28.2-12.2-43.1-16.4-2.4-0.7-5-1-7.4-1.7-0.9-0.3-1.6-1.2-2.3-1.8 0.8-0.6 1.6-1.8 2.3-1.7 5.8 0.4 11.8 0.5 17.4 1.8 8.2 1.9 16.2 4.7 24.2 7.2 3.2 1 6.3 2.5 9.5 3.4 3.3 0.9 6.7 1.4 10 2 2.4 0.4 4 0 3.8-3.2-0.7-12.7-0.6-25.6-2.2-38.2-0.8-6.8-6.9-11.1-12.6-14.9-2.4-1.5-4.6-3.3-7.2-4.6-9.8-4.9-20-8.4-31.2-4.9-3.3 1-6.6 2-10 2.1-4.5 0.3-7.5 2.7-10.4 5.6-0.7 0.6-1.7 0.7-2.6 1 0-1.2-0.6-2.9 0-3.5 2.8-2.9 5.5-6.9 9.1-8.2 10-3.6 20.2-6.6 31.2-5.7 7.5 0.6 14.1 2.3 19.4 8 2.3 2.6 4.8 4.5 8.6 5.4 8.3 2.1 10 10.6 13 17 2.6 5.5 2.7 12.1 3.9 18.3 0.7 3.7 0.8 7.5 2 11 0.6 1.6 3.1 3.6 4.8 3.7 4.5 0.4 7.6 2.7 11.4 5.7zm-178 25.4c-15.7-2.4-25.4-11.8-33.5-23.5-2.6-3.8-0.1-4.2 2.6-3.6 2.1 0.4 4.1 1.7 5.9 3 4.8 3.7 9.2 8.2 14.4 11.2 6.2 3.7 13 6.2 19.6 9.3 0.8 0.4 1.3 1.4 1.9 2.2-0.6 0.5-1.2 1.3-1.9 1.3-2.7 0.2-5.4 0.1-9 0.1zm44-20.4c10.1 5.5 20 9 31.1 9.6 7 0.5 14 2.3 21 3.6 0.7 0.1 1.3 0.8 2 1.2-0.6 0.8-1.1 2.1-1.9 2.3-9.6 2.2-19.3 3.8-28.9-0.6-3-1.4-6.3-2.2-9.6-2.9-10-2.5-17.3-8.9-23.9-16.3-0.6-0.7-0.6-2.1-0.8-3.1 1.4-0.2 3.3-1.1 4.1-0.5 2.4 1.7 4.4 4.1 6.9 6.7zm-35.4 4.5c3.6 2.4 6.6 4.5 9.9 6.1 2.1 1 4.5 1.2 6.8 1.8-1-1.7-2-3.3-2.9-5-0.3-0.8-0.6-1.7-0.6-2.5 0.1-1.4 0.4-2.8 0.7-4.2 1.2 0.5 2.4 0.9 3.6 1.6 0.8 0.4 1.7 1 2 1.7 2 5.3 6.2 7.8 11.3 9.5 0.9 0.3 1.5 1.6 2.2 2.5-1 0.4-2 1.1-3.1 1.2-6.5 0.5-13.5 2.6-19.5 1-9-2.4-17.4-7.1-22-16.2-1.1-2.2-0.8-3 1.7-3.5 4.9-0.9 6.6 3.2 9.9 6zm175.7 3.2c-6.2-3.2-12.3-6.4-18.5-9.5-3.5-1.7-5.6-0.8-6 2.6-0.4 3.4 0.1 6.1 4.6 7 6.6 1.2 13 3.3 19.5 4.8 0.9 0.3 2-0.2 3.1-0.3-0.6-1.3-1.2-2.5-2.7-4.6zm-173.4-31.8c1.7 2.6 4.2 3.2 7 2.6 1.8-0.4 4.8-1.1 5.1-2.3 1-3.9 1.1-8 1.5-12.1 0-0.4-0.8-1.1-1.3-1.2-3.5-0.9-7.1-1.9-10.7-2.3-1-0.1-3.2 1.7-3.2 2.5 0.2 3.7-2 7.8 1.6 12.8zm-18.1-3.6c0.2 0.8 0.2 2.2 0.6 2.3 5.7 1.6 7.7 0.3 9.7-5.4 0.9-2.2 0.7-3.3-1.8-3.3-2.1 0-4.2 0-6.3 0-3.8 0-1.7 2.9-2.2 6.4zm31.7-35.4c-3.3 0.6-6.9 0.6-10.1 1.9-8.2 3.3-15 8.4-19.2 16.5-1.2 2.2-0.8 3.7 1.7 3.3 5.3-1 10.7-1.9 15.7-3.7 5.7-2.2 11.3-3 16.6 0.2 10.5 6.5 22 2.3 32.9 3.4 0.4 0.1 1.6-2.3 1.4-2.5-4.3-4.7-8.4-9.6-13.3-13.6-6.8-5.6-15.3-6.1-25.7-5.5zm115.8-16.8c1.3 4 2.4 7.5 3.1 11.1 0.2 1.1-0.7 2.4-1.1 3.6-0.8-1.1-1.8-2.2-2.4-3.5-0.7-1.2-0.6-2.9-1.4-3.9-12.8-16.1-27.3-30.4-46.3-38.9-10.4-4.6-21.2-8.6-33-8-2.4 0.2-4.9 0.3-7.3 0-18.7-1.8-34.8 5.3-49.8 15.4-8.9 6-17.6 12.5-25.2 19.9-10.8 10.5-19.5 22.6-24.2 37.1-0.4 1.4-1.9 2.4-2.9 3.6-0.8-1.4-2.5-3.3-2.1-4.3 3.3-8.6 7.1-17 10.5-25.5 2.6-6.7 6.6-12.2 11.7-17 8.5-7.9 16.5-16.6 25.7-23.5 15-11.2 32.2-16.2 51.1-16.8 19.9-0.5 38.6 3.4 55.4 13.3 15.3 9 30.6 19 38.2 37.4z"/>
	</g>
</svg>