<svg version="1.2" xmlns="http://www.w3.org/2000/svg" viewBox="0 0 847 988" width="847" height="988">
	<title>-e-</title>
	<style>
		.s0 { fill: #f05a22 } 
		.s1 { fill: #3e469c } 
		.s2 { fill: #1d1e1b } 
	</style>
	<g id="-e-">
		<path fill-rule="evenodd" class="s0" d="m62.7 982.1h347.9c-0.8-3.2-1.7-6.4-2.8-9.6-6.1-17.5 0-14.7-8.2-30.4-8.2-15.7-8.2-33.5-13.5-54.9-5.3-21.5-8.4-31.8-24.9-31.4-16.5 0.5-42.4 0.6-62.8-0.7-20.4-1.4-27.7-10.3-41.8-11.9-14.1-1.5-45.6 3.7-61.6 2.9-16.1-0.7-8.4-12.8-20.7-12.8-12.3 0.1-35.3-12.4-52-21.5-16.7-9-16 10.2-23.6 44.6-7.6 34.4-7.9 36.3-16.3 58.5-4.1 11-8.4 20.9-12.3 29.9zm295.7-245.5c-3.9-12.1-31.4 1.3-23-4.8 8.4-6.1 3.2-9.2 15.2-21.6 12-12.4 7.6-7.9 8.2-17 0.5-9.2-14.9 1.6-32.2 8.4-17.3 6.8-24.5 8.8-39 7.9-14.4-1 11-4.4 39-16.5 28-12.2 19.4-11.3 30.7-25.9 11.3-14.6 2.5-18.1-0.4-29.1-2.8-11-0.4-30 1.5-47 1.8-17-1.9-25.4-2.6-43-0.7-17.6-1.2-21.4-10.8-39.9-9.7-18.5-7.2-19.5-19.8-34.1-12.5-14.6-10.2-22.2-17.8-38-7.5-15.8-10.8-23.5-22-38.9-11.2-15.4-9.8 0.4-5.3 14.4 4.6 14 2.5 12.1-1.9 27-4.4 14.9-10.4 8.5-36.9 23.9-26.6 15.5-27.7 10.6-40.5 11.3-12.8 0.7-8.7-11.7-26.4-35.8-17.7-24.2-29.9-31.2-42.3-39-12.5-7.8-20.6-29.1-40.5-31.4-19.8-2.4-18.8 2.9-15.7 10.5 3.1 7.5 27.8 10.4 44.4 26.8 10.8 10.7 18.6 13 28.2 25.8 5.2 6.8 10.7 16.3 15.6 24.6 15.6 26.3 8.5 27.4 21.4 57.5 3.6 8.2 7.2 31.5 8.3 38.1 2.3 14.1 4.4 12.8 2.9 31.9-0.3 4.7-5.8 20.6-6.1 25.5-0.2 3.4-5.2 14.7-6.8 16.6-3.5 4.2-4.9 10.1-4.5 12.8 0.7 4 1.2 14.7 10.3 31.7 12.4 22.9 13.5 24.6 21.6 42.5 8.1 17.9 14.5-12.3 33.7-43.1 19.3-30.9 7.6-18.1 15.4-46.6 7.8-28.5 9.7-6.1 4.3 18.9-5.4 25.1-11.3 28.7-25.6 56.9-14.3 28.1-16.3 29-4.2 31.8 12.1 2.8 27.9 9.3 40.3 16.9 12.4 7.5 8.8 11 21.7 12.5 12.9 1.5 33.9 4.7 52.2 8.1 18.3 3.5 16.7-3.3 16.7-3.3 0 0-3.4-15.1-7.3-27.3z"/>
		<path fill-rule="evenodd" class="s1" d="m60.1 219.9c0 0 1.1 13.4 14.7 11.8 13.6-1.7 57.7-7.3 65-7.6 7.3-0.2 13.6-3.8 25.1-0.8 11.5 3 60.7 12.8 70 12 9.4-0.9 5.7-2.4 17.2-7.7 11.5-5.3 17.6-9.7 33-10.5 15.5-0.7 28.1-3.6 40.5-1.6 12.4 2 10.1-3.3-1.8-9.1-11.9-5.8-21.8-10.4-35.5-15.2-13.8-4.9-28.4-8.2-47.7-6.3-19.2 1.9-29.9-3.8-46.6 7.1-10.8 7-24.1 12.4-22 8.7 1.2-2 11.6-10.6 19.2-14.1 14.6-6.9 23.7-10.5 38.4-13.5 6.6-1.3 20.3-3.8 25.7-4.1 17.6-1 32.1 5.9 22.5-7.8-3.4-4.8-7.3-14.9-10.5-19.7-5.9-8.7-11.2-12.1-19.1-20.8-12.3-13.7-30.9-23.2-44.8-24.5-6.4-0.6-14.5-5.2-20.2-5.6-6.7-0.5-11.9 0.2-12.9-0.2-12-4.1-28.4 3.8-42.8 9.8-26.2 10.8-45.4 19.4-58.5 38.1-13.1 18.8-12.8 26.4-13.1 44.7-0.2 18.3 4.2 36.9 4.2 36.9z"/>
		<path fill-rule="evenodd" class="s2" d="m494.5 867.8c-2.8-0.8-5.1-1.3-7.4-1.3-12.2-0.3-23.9-3.2-35.9-5.3-13.7-2.5-27-6.6-40.7-9.1-8-1.5-16.4-1.8-24.6-1.9-18.5-0.3-36.9 0.1-55.4-0.2-20.3-0.3-40.6-0.6-60.9-1.9-11.1-0.7-22.1-3.5-33.2-5.2-1.8-0.2-3.8 0.5-5.6 1.2-1 0.4-1.8 1.6-2.7 2.4-0.9-1.4-2.6-2.9-2.6-4.3 0-2.7 1-5.5 1.6-8.3 2.4-9.9 3.9-20.2 7.5-29.6 7.1-18.4 15.8-36.2 30.9-49.8 0.5-0.4 0.8-0.9 1.3-1.3 6-4.9 6-5-0.5-8.3-10.7-5.4-21.9-8.9-33.6-11-1.4-0.3-2.8-0.6-4-1.3-1.3-0.7-2.3-1.9-3.4-2.9 1.6-0.9 3.4-2.9 4.8-2.7 8.1 1.4 16.1 3.4 24.2 5.1 9.2 1.9 17.2 6.7 25.1 11.6 4.8 3 4.3 6.6-0.9 10.5-15.4 11.5-24.7 27.7-33 44.3-4.8 9.7-7.6 20.5-11 30.8-1.3 3.9 0.3 4.8 5.4 4.5 10-0.5 19.9 0 29.5 3.1 1.1 0.4 2.3 0.4 3.5 0.5 17.9 0.6 35.8 1.4 53.7 1.7 16 0.3 32 0 48.1 0.1 24.1 0.3 47.8 3.3 71 10.4 9 2.7 18.9 2.3 28.2 4.2 25.7 5.2 51.6 3.1 77.5 3.6 1.8 0 3.6 0 5.4-0.1 0.9 0 1.6-0.4 2.5-0.7-0.8-0.8-1.4-2.2-2.3-2.5-3.6-0.9-7.3-1.5-10.9-2.2-13.2-2.4-26.4-4.8-39.6-7.3-0.6-0.1-1.4-1.1-1.5-1.7 0-0.6 0.7-1.6 1.3-1.8 0.8-0.3 1.8-0.1 2.7-0.1 9.8 0.6 19.3-1.2 28.8-2.8 1.4-0.2 2.9 1 4.4 0.9 9.4-0.4 18.8-1.1 28.3-1.8 0.6 0 1.5-0.9 1.5-1.5 0.1-0.7-0.6-1.8-1.1-2-5.6-1.9-11.1-4.2-16.8-5.3-6.6-1.3-13.4-1.4-20.1-2-1.2-0.1-2.6 0.3-3.6-0.1-2.5-0.9-5.4-1.7-7.1-3.5-1.2-1.3 4.8-4.1 8.3-3.3l11.9 0.1c13 1.1 26.4 1.1 36.9 10.6 3.9 3.5 3.5 7.6-0.8 10.7-4.5 3.1-9.2 5.8-15 5.5-1.1 0-2.2 0.5-3.3 0.8 0.8 0.8 1.6 2.4 2.4 2.4 5.4 0.2 7.3 2.9 6.6 8-0.5 4-4.5 7.2-9.5 8.9-7.5 2.6-15.2 1.4-22.8 1.6-3.1 0-4.3 0.5-4.2 3.9 0.1 2.4-1.4 4.9-1.6 7.4-0.8 14.5-2.8 28.8-5.4 43.1-1.7 9.1-2.3 18.4-3.8 27.5-1.1 6.7-3.1 13.3-4.5 19.9-1 4.5-1.5 9.1-2.8 13.4-0.6 1.8-2.7 3.1-4.1 4.7-1-1.9-3.1-4-2.9-5.8 0.8-8 2.3-16 3.5-23.9 1.2-7.7 2.5-15.3 3.6-23 1.3-8.9 2.2-17.8 3.7-26.6 1.5-9 3.5-17.9 5.3-26.9 0.9-4.2-1.8-8.9 1.9-12.8-1.2-0.9-2.2-2.4-3.5-2.5-3-0.4-6.5-1.1-8.9 0-6.4 3-13 1-19.8 1.2zm131.6-289.6c0.3 11.9 1.2 23.2 4.1 34.3 0.1 0.3 0 0.6 0 0.9 0.6 11.3 1.5 22.5 1.7 33.8 0.1 4.5-1.7 9.2-1.6 13.7 0.4 18.2 0.3 36.5 2 54.6 1.3 13.2 0.7 26.4 1.7 39.5 0.8 10.2 2.6 20.3 1.5 30.4-2.9 27.9 0.7 56-2.1 83.6-3.5 33.8-2.7 67.4-3.3 101.1-0.1 4.1 2.2 8.1 0.1 12.1-0.5 0.9-1.3 2.2-1.9 2.1-1.2 0-3-0.6-3.4-1.4-1-2-1.7-4.3-1.9-6.5-0.2-4.5 0.2-9.1-0.1-13.6-0.5-8.2 0.6-16.4-1.4-24.8-1.2-4.9-2.1-11 1.3-16.5 1.1-1.7 0.2-4.7 0.1-7.1-0.3-16.3 0.9-32.4 3-48.6 0.8-6.1 1.3-12.7 0.8-19.2-0.5-6.6 0.1-13.3-0.2-19.9-0.2-5.5-2.6-11.3-1.5-16.5 2.9-13.4 1.3-26.8 1.4-40.1 0.1-13.4-0.4-26.8-1.8-40.1-1.4-12.2-0.5-24.6-1.9-36.7-2.7-24.9 0.1-49.8-2-74.6-1-12.2-2.3-24.6-4.7-36.8-1.1-5.5-4.5-7.1-7.9-7.5-10.1-1.3-19.8-5.6-30.2-4-1.1 0.2-2.5 0.1-3.4-0.4-0.9-0.5-1.7-1.6-2-2.5-0.1-0.5 1.1-1.4 1.8-1.9 0.4-0.3 1.1-0.5 1.6-0.5 13-0.5 25.8 0.6 38.6 3.1 6 1.1 9.3 4.1 11.6 10zm-546.5 304.1c0.1-10.7 5-19.9 6.3-29.8 1.2-8.7 3.3-17.4 5.1-26 1.5-8 3.6-15.7 4-23.9 0.1-3-0.1-5.3-1.6-7.1-14.7-18.6-25-39.6-33.9-61.3-4.7-11.4-9.1-22.9-14.2-34.1-9-19.4-15.2-39.7-21.6-60-4-12.5-6.9-25.1-9.1-38-2.7-15.5-6.4-30.8-8.9-46.2-1.8-11.8-1.7-24-3.9-35.7-2.5-12.8-1-25.6-1.6-38.3-0.1-1.5-0.3-3.1 0-4.5 0.5-1.6 1.5-3.1 2.3-4.6 1 1.4 2.3 2.7 3 4.3 0.5 1 0.1 2.4 0.1 3.6 0.6 10.9 0.3 22 2.1 32.8 1.5 9.5 1.5 19.3 4.8 28.8 2.5 7.2 2.6 15.2 4 22.8 1.6 8.7 4 17.3 5 26 1.1 9.4 4.1 18.4 5.6 27.6 1.6 9.7 5.4 18.5 8.3 27.6 5.2 16.8 11.3 33.4 17.5 49.9 3.7 9.6 8.3 18.9 12.6 28.3 5 11 10.1 21.9 15.2 32.7 6 12.5 14.8 23.1 23.1 34 7.1 9.3 15.6 16.7 26.5 21.2 11.7 4.7 22.8 10.8 35.3 13.4 4.2 0.9 8.4 1.5 12.6 2.6 1.3 0.3 2.3 1.6 3.4 2.5-1 1-2 2-3.2 2.8-6.4 4.2-13.2 0.9-19.3-0.3-12.7-2.3-24.9-6.7-36-13.8-3.8-2.5-7.5-5.1-11.3-7.7-1.7-1.1-3.2-2.6-4.9-3.5-4.9-2.9-4.6-2.8-5.1 2.8-1.3 14.6-3.5 29-7 43.3-3.1 13.1-5 26.4-7.5 39.6-2.3 12-5.6 23.9-7.1 36.1-1.7 13.6-5.6 26.6-9.3 39.7-0.6 2.1-2.1 4-3.2 6-1.3 2.6-2.5 5.2-3.8 7.8-3.8-2.7-2.2-6.8-1.8-10 0.9-8.5 2.3-17.1 4.3-25.4 2.7-11.1 5.5-22.2 6.5-33.7 0.7-7.6 2.8-15.1 4.3-22.6 0.6-3.1 1.3-6.2 2.4-9.7zm655.9-192c-0.7-12.3-1-23.6-3.6-34.8-0.3-1.5 0.1-3 0-4.5-0.6-8.3-1.2-16.5-1.8-24.7-0.2-2.7-0.2-5.3 2.9-6.6 0.8 2.3 2.1 4.6 2.4 7.1 2 12.2 3.9 24.5 5.5 36.8 0.9 7.2 0.6 14.7 2 21.9 2.6 13.1 2.2 26.5 5.1 39.5 1.7 7.1 1.4 14.6 2 21.9 0.9 9.6 1.4 19.1 3.5 28.5 1.2 5.7 0.4 11.6 1.7 17.5 1.8 7.9 0.8 16.5 2.3 24.5 2.3 13.1 1.2 26.7 5.2 39.6 0.3 1.1 0 2.4 0.1 3.6 1.1 14.9 2.2 29.9 3.6 44.8 1 10.1 1.7 20.3 3.8 30.2 1.8 7.7 1.2 15.3 1.7 22.9 0.3 5.2 1.3 10.4 1.6 15.6 0.1 1-1.2 2.1-1.8 3.1-0.6-0.8-1.4-1.6-1.6-2.5-1.3-4.6-2.9-9.2-3.6-14-1.5-10-1.9-20.3-3.9-30.2-2.7-12.8-2-25.9-5.1-38.7-1.7-6.7-1.5-13.9-2-20.9-0.6-8.7-1.5-17.3-3.5-25.8-1.3-5.6-0.2-11.5-1.6-17.5-1.9-7.9-1-16.4-2.3-24.5-1.4-7.7-0.2-15.7-3.5-23.1-0.3-0.7 0-1.8 0-2.7-0.6-9.4-0.3-19-2-28.2-2.4-12.9-1.9-26-5.1-38.7-1.6-6.2-1.4-12.8-2-20.1zm-348.6 179.8c0-4-0.1-7 0.1-10 0-0.9 0.8-1.8 1.3-2.7 1 0.5 2.2 0.8 2.9 1.6 1.1 1.3 2.1 2.8 2.6 4.4 3.2 10.7 6.4 21.5 9.4 32.3 3 10.9 5.9 21.8 8.4 32.8 1.9 8.1 3.1 16.3 4.3 24.5 0.9 5.8 1.4 11.6 1.7 17.4 0.1 1.6-1.1 3.3-1.7 5-1.2-1.5-2.9-2.8-3.4-4.5-2.1-6.7-3.9-13.5-5.6-20.3-3.3-12.8-6.6-25.7-9.8-38.6-2.3-9.6-4.3-19.3-6.6-28.9-1-4.1-2.4-8.1-3.6-13zm328.6-118.1c-2-9.3-0.4-18.2-3.5-26.6-0.7-1.9 0-4.2-0.1-6.3-0.6-12.8 0-25.7-2.1-38.2-2.1-12-0.8-23.7-1.4-35.6-0.1-1.3 1.2-2.7 1.8-4 0.6 1.1 1.5 2.2 1.6 3.4 0.8 6.9 1.3 14 1.9 21 0.8 8 1.6 16 3.5 23.9 1.4 5.9 1.8 12.1 1.9 18.2 0.1 13.3 0.2 26.4 3.7 39.3 0.1 0.6 0 1.3 0 1.9 0.6 14.8 0.4 29.8 2.1 44.5 1.2 10.7 0.1 21.5 1.9 31.9 2.3 12.8 0.6 25.5 1.4 38.3 0.1 0.8-0.3 1.6-0.5 2.4-0.5-0.8-0.9-1.6-1.3-2.5-0.6-1.2-1.7-2.5-1.7-3.8 0-15-4-29.6-4-44.7 0.1-15.2-1.6-30.5-3.6-45.6-0.8-5.6-1.5-11-1.6-17.5zm-516.1 8.7c4.7-8.7 8.9-16.9 13.2-25.1 1.9-3.5 4.3-2.3 6.1 0.1 0.4 0.5-0.5 2.1-1.1 3.1-8.9 15.5-15.2 32.3-21.2 49.1-1.4 3.7-1.6 7.9-1.9 11.9-0.8 10.3-1.5 20.6-1.8 30.9-0.2 5.9 2.6 8.5 8.6 8.4 7-0.1 13.8 0.7 20.2 3.8 0.8 0.4 1.3 1.4 2 2.1-0.9 0.5-1.8 1.2-2.7 1.4-9.2 1.6-18.3-0.4-27.5 0-4.2 0.2-7.2-3.1-7.7-6.5-1.3-8.1-3-16.6-1.8-24.5 2.9-18.6 5-37.6 15.6-54.7zm377.7 24.5c-4.5-1.7-8.7-2.5-12.5-4.2-5.1-2.3-10.1-3.9-15.8-3.6-3.3 0.2-6.7 0.5-9.9-0.1-1.8-0.4-3.3-2.5-4.9-3.8 1.5-1.1 3-3 4.7-3.2 18.1-2.2 34.8 2.7 50.7 11 2.8 1.4 4.9 4.4 7 7 0.8 0.9 1.5 3.4 1 3.9-3.7 3.7 0 6.3 1.3 9 2.3 5.2 0.3 11.3-4.9 12.5-4.5 1-9.2 1.9-13.8 1.8-12.7-0.3-25.5-1.1-38.2-1.8-0.8-0.1-1.6-1.1-2.4-1.7 0.8-0.6 1.5-1.5 2.4-1.8 7.1-2.7 14.3-4.3 22-3.8 8.2 0.5 16.3 0.1 24.5 0.1 1.1 0 2.3-0.4 3.4-0.5-0.8-1.1-1.4-2.8-2.5-3.1-5.5-2-11.1-4.7-16.8-5.3-12.1-1.2-24.3-1.4-36.4-2-1.2-0.1-2.4-0.1-3.4-0.6-0.8-0.3-1.9-1.3-1.8-1.8 0.2-1 1-2.1 1.9-2.5 1.3-0.5 2.8-0.4 4.3-0.5 6.7-0.9 13.7 1.8 20.1-1.9 8.9 4.1 19.2-0.4 28 4.7 0.8 0.4 2.2-0.3 3.4-0.6-0.7-0.7-1.2-1.7-2-2.2-2.9-1.6-5.9-3.1-9.4-5zm-157.5 6.8c-12.5-0.6-24.1-0.5-35.5-2-11.8-1.6-23.3-5.2-35.1-6.9-6.9-1-13.8-1.2-20.3-3.9-4.1-1.6-8.2-3.5-12.2-5.4-7.9-3.6-15.8-7.2-23.6-10.9-0.9-0.4-1.5-1.3-2.2-1.9 0.8-0.6 1.6-1.6 2.5-1.6 2-0.1 4.4-0.4 6.1 0.5 14.9 8.1 31.9 9 47.8 13.7 8.7 2.6 18.3 2.6 27.4 3.9 10.9 1.5 21.8 4.6 32.5 4.1 6.6-0.3 12.6 2.3 19.1 1.5 6.9-0.8 13.9 0.3 20.8-0.3 11-1.1 21.5-4.7 31.6-9 12.1-5.1 23.9-11 36.1-15.8 5.8-2.2 12.1-2.9 18.3-4.1 2.8-0.6 5 0.1 5.6 3.5 0.5 3.2-1.6 3.4-3.7 3.9-1.7 0.4-3.2 1.2-4.8 1.6-14.4 3.3-26.5 11.8-40.3 16.6-9.2 3.2-17.5 8.8-27.3 10.7-2.5 0.5-5 1.7-7.4 1.7-11.5 0.2-23 0.1-35.4 0.1zm-34.1-56.8c-2.8-3.4-5.1-6.4-7.5-9.2-0.2-0.3-1.3 0.3-2 0.5-0.1 0.1 0 0.6 0 0.9 2 10.3 0.8 20.9 3.4 31.2 0.8 2.9-0.8 6.5-1.3 9.8-1.9-2.3-4.7-4.4-5.5-7-1.8-5.7-2.3-11.8-3.9-17.5-2.2-7.5-1.6-15.2-1.8-22.8 0-1.1-0.4-2.2-0.7-3.4-1.2 0.6-2.5 1-3.7 1.6-2.5 1.2-5.1 3.6-7.5 3.5-4.6-0.2-7.1 2.8-8.6 5.6-5.2 9.8-15.4 11.9-24 16.3-1 0.5-2.6 0.5-3.6 0-1.6-0.8-3-2.2-4.5-3.3 1-1.3 1.9-2.9 3.2-3.8 1.4-0.9 3.2-1.1 4.7-1.7 7.9-2.7 14.2-7 18.5-14.6 3.9-7 12.2-8.2 19-10.6 4.4-1.7 5.4-3.3 5.5-7.3 0.1-3.7 1.2-7.4 1.7-11.1 0.1-1.7-0.3-3.5-0.5-5.2-1.5 0.6-3 1.1-4.4 1.8-10 5.1-19.6 10.8-29.9 15.2-12.8 5.3-25.7 10.3-39.6 11.7-6.3 0.6-12.4 2.4-18.7 3-2.6 0.3-5.3-0.9-8-1.7-0.3-0.1-0.7-2-0.4-2.2 1.3-1.1 2.8-2.6 4.3-2.7 5.8-0.1 11.2-2.6 16.6-3.4 22.1-3.1 41-13.5 60.5-22.9 5-2.4 9.7-5.6 14.7-8.2 4.2-2.2 5.9-5.3 5.5-10-0.3-3.9 0.1-7.9-0.1-11.8-0.2-2.8 0.9-5.2 3.4-5.3 3.3-0.2 3.9 2.6 3.9 5.6q0.8 24.1 1.9 48.2c0.1 2.5 0.6 5.3 1.8 7.4 5.3 8.9 11.1 17.4 20.1 23.4 5.3 3.6 9.8 8.4 14.6 12.7 0.5 0.5 0.7 2 0.3 2.5-0.4 0.5-1.7 0.9-2.4 0.7-9.5-3-17.4-8.5-25-15.9zm139.4-15.8c4.5 1.7 6.6 5 4.9 8.6-5.1 10.9-15 14.2-24.3 9.5-7-3.6-7.9-9.5-2.7-15.2 2.4-2.6 4.8-5.2 6.3-8.3 1-2 1.2-5.3 0.3-7.2-4.1-8.5-4.2-11.2 3.7-16 3-1.8 3.4-3.5 2.4-5.2-3.5-5.5-1-9.9 2-14.3 1.1-1.6 2.4-3.2 3.1-5 0.3-0.9-0.3-2.8-1-3.1-3.8-2-3.8-5.3-3.8-8.8 0-6.9-0.2-13.9 0.1-20.9 0.1-3.2-1.6-3.7-3.8-3.1-14.8 4-30 2.1-44.8 4.2-11 1.5-21.4-0.3-32.1-0.7-4-0.1-5.3 1.3-4.7 5 1.1 7.1 2.5 14.2 3.3 21.3 0.5 4.2 0.4 8.4 0.2 12.6 0 1-1.2 2.7-2 2.8-1 0.2-2.8-0.7-3.2-1.6-1.5-3.3-3.2-6.7-3.7-10.2-1-7.6-1.9-15.3-1.6-22.9 0.1-3.2-2.7-5.3-1-9.6 1.9-5.2 4.8-8.1 8.9-9.7 5.5-2.1 11.6-2.5 17.4-4 1.8-0.4 3.6-1.6 5.2-2.7 0.6-0.4 0.8-1.6 1.2-2.5-1.1-0.4-1.2-1.4-3.3-1-18.1 3.2-33.8 11.2-47.8 22.7-0.9 0.7-2 1.1-2.9 1.8-5.4 3.5-5.6 4-1.6 9.3 10 13.5 20.1 26.8 32.2 38.5 4.1 3.9 8.4 8.2 7.8 14.9-0.6 7-6 9.6-11 12.6-5.5 3.2-9.3-1.8-12.8-4.2-4.5-3-3.8-8.8-3.4-13.8 0.1-1.1 1.8-2.5 3-3.1 1.3-0.6 3.4-1 4.2-0.3 0.9 0.7 1 2.9 0.7 4.2-0.6 2.4-4 5.1 0 6.8 2.5 1.1 5 4.6 8.6 1.2 3.9-3.7 0.6-7-0.9-9.3-2.7-3.9-7-6.7-10-10.4-7-8.6-14-17.1-20.1-26.2-3.3-5.1-5-11.3-6.7-17.1-0.5-1.5 1.4-4.1 2.8-5.6 3.6-4 7.7-7.6 11.4-11.6 1.5-1.7 2.2-3.9 3.3-5.9-2.4-1.2-4.7-3.2-7.1-3.5-5.1-0.5-10.3-0.1-15.4-0.1-5.8 0-18 13.2-19.3 17.9-0.8 3.4 2.6 6.6 7.8 7.5 3.7 0.6 7.5 0.9 11 2 1.3 0.3 2 2.6 3 4-1.3 0.4-2.6 1.3-3.8 1.2-5.5-0.5-11.1-0.7-16.5-1.9-7.3-1.6-11.7-11-7.7-17.9 4.8-8.4 11.1-16.3 20.9-19.1 5.3-1.5 11.8-2.4 16.7-0.6 6.4 2.5 12.2 1.6 17.6-0.6 10.7-4.3 21.1-9.4 32.8-10.8 3.1-0.4 3.8-3.2 3.5-6.1-0.6-6.4-1.6-12.8-1.7-19.2 0-5.1-0.9-7-5.6-7.3-2.8-0.1-5.5-0.3-8.2 0.1-5.2 0.7-9.8-1.2-13.8-3.9-2.2-1.4-4.3-4.1-4.9-6.6-0.5-2.1 0.5-5.5 2.1-7 2.6-2.5 3.6 1.5 5.5 2.6 2.4 1.3 4.8 3.5 7.4 3.8 10 1 20.1 1.2 30.1 2 5.4 0.5 10.8 1.6 16.2 2.6 1.3 0.2 2.5 1.2 3.7 1.8-1 1-2 2.4-3.3 2.7-3.9 0.9-7.9 1.9-11.9 1.8-11.1-0.2-10.5 1.3-10.1 10.7 0.3 4.9 1.5 9.7 1.7 14.6 0.3 7.3-1.8 10.7-8 12.8-9.3 3.3-18.6 6.1-27.9 9.3-2.1 0.7-4.1 1.8-6 3-0.5 0.4-0.8 2-0.4 2.5 0.4 0.5 1.8 1 2.4 0.7 9.9-4 19.8-7.9 30.3-10.2 7.2-1.6 14.3-4.7 21.5-4.8 7.5-0.1 15.1 2.6 22.6 4.1 10.3 2.1 20.6 4.3 30.9 6.5 5.3 1.1 10.5 2.5 15.7 3.8 0.5 0.2 0.8 1.1 1.3 1.2 10.1 3 13.4 0.1 14.1-10.7 0.5-8.6 2.2-17.1 3.5-25.7 0.2-1.3 0.9-2.9 1.9-3.7 0.9-0.8 2.7-1.4 3.8-1.1 0.8 0.3 1.8 2.7 1.4 3.3-2.9 5.1-1.1 10.5-1.7 15.7-1.3 11.9-1.1 23.9-3.5 35.7-1.3 7.2-0.8 14.7-2 21.9-2 12.3-1.6 24.8-5.2 36.9-1.4 4.6-0.8 9.9-2.1 14.6-2.8 10.5-0.5 21.5-3.3 32.1-1.8 6.7-1.4 14-2 21-0.1 1.2 0.3 2.5-0.1 3.6-0.6 1.9-1.5 3.6-2.3 5.4-1.1-1.8-3-3.7-2.9-5.4 0.7-10-2.1-20.2 1.5-30.2 0.9-2.4 0.2-5.4 0.1-8.1-0.1-10.2 1.5-20.2 3.5-30.3 1.4-6.8 1.3-14 2-21 0.7-8 1.6-16 3.4-23.9 1.1-4.9-1.4-11 0.6-15.2 2.8-6.3-0.2-5-4-5.5-6.5-0.9-12.9-2.4-19.3-3.8-3.8-0.9-7.7-2-11.3-3.4-2.6-1.1-5.1-2.4-5.6 1.6-0.3 2.4-1.8 6.6 3.7 5.7 2.8-0.4 4.4 1 5.3 3.6 3.1 9.9 4.9 20 3.1 30.1-0.5 2.7-0.9 2.5 1.5 2.7 6.9 0.5 9.6 2.9 9.8 9 0 1.8-0.5 4.9-1.5 5.2-2.7 0.9-5.2-0.3-5.7-3.7-0.2-1.1-0.6-2.2-0.9-3.3-0.8 0.9-1.7 1.7-2.5 2.5-0.2 0.2-0.1 0.6-0.2 0.8-1.2 2.9-4.2 7-3.3 8.2 2 2.7 5.7 1.3 8.6-0.6 0.6-0.4 1.8-0.2 2.6 0 1.1 0.3 2 0.8 3 1.2-0.5 1-0.8 2.4-1.6 3-4.5 3.5-9.4 6.6-13.8 10.4-2.5 2.2-4.3 5.4-6.4 8.1 4 2.7 7.1-0.8 10.5-1.7 3.1-0.8 6.8-2.3 5.9-7.2-0.1-0.8 1-2.1 1.8-2.8 1.3-1.4 2.8-2.5 4.2-3.8 0.9 2.3 2.8 4.6 2.5 6.7-0.8 6.8-8.5 13.6-15.9 15.2-1.6 0.3-3.5 0.9-4.5 2-2.1 2.2-0.9 4.6 2.2 5.2 1.8 0.3 4.7-1.1 3.7 3.2-6 1.5-11.7 2.4-15.9 6.8-2.4 2.6-1.7 5.8 1.7 6.2 1.9 0.3 3.9-0.6 5.9-1 6.2-1.4 6.7-7.1 8.8-11.6zm-112.1 3.1c4.8 8.9 11.7 13.4 21.3 13.2 4.7-0.2 5-1.3 3.8-6.3-1-4.5-1.5-9.1-1.9-13.7-0.1-1.2 0.7-3.3 1.5-3.4 1.8-0.5 3.3-0.5 4.3 2.6 1.7 5.8 5.1 11.1 7.3 16.8 2.5 6.2 8 8.4 13.3 9.2 9.9 1.5 19.9-0.5 29.7-2.3 1.6-0.3 3.6 0.2 5.2 0.8 1.4 0.6 2.5 1.9 3.8 2.9-1.2 0.6-2.5 1.2-3.7 1.9-1.7 1-3.9 1.8-5 3.2-6.5 8.8-14.9 12.4-25.9 14.2-14.1 2.4-26.6 0.3-38.9-5.9-0.9-0.5-2-0.9-2.5-1.7-0.4-0.6-0.1-1.8-0.1-2.7 0.8 0.2 1.7 0.3 2.5 0.4 9.7 1.3 19.1 5.2 29.1 3.9 6.8-0.9 13.6-2.3 20.3-3.6 1.1-0.2 2.3-0.7 3-1.4 0.8-0.7 1-2 1.4-3-1-0.2-2.2-1-3-0.6-8.5 3.6-16.8 2.4-25.2-0.4-1.1-0.4-2.5-0.6-3-1.4-3.3-5-7.8-4.8-12.1-2.1-4.3 2.6-8 1.4-12.1-0.1-7.7-2.6-12.7-8-16.4-14.8-2.2-4.1-0.9-6.2 3.3-5.7zm-219.7-23.6c-8.3-21.3-16.4-42.2-24-63.2-4.8-13.1-9.5-26.3-13.4-39.8-2-6.8-2.1-14.2-3-21.4 0-0.7 0.6-1.4 1-2.1 0.6 0.6 1.5 1.1 1.9 1.9 3.9 9.9 7.9 19.7 11.6 29.7q13.5 37 26.8 74.1c4.6 12.9 8.8 25.9 13.1 39 0.3 1.1-0.6 2.7-0.9 4.1-1.2-0.7-2.7-1-3.6-2-5.4-5.5-6.5-13-9.5-20.3zm74-97.6c0.8-2.3 1.7-3.8 2.5-5.3 0.4 1.3 0.9 2.5 1.1 3.8 0.7 7.3-1.7 14.9 1.8 22-2.9 12.2-1.9 24.9-7.1 37-7.1 16.1-16.7 30.7-26 45.5-2 3.1-4.6 6-7 8.8-0.5 0.6-1.7 0.9-2.4 0.7-0.5-0.2-1.1-1.5-1-2.1 0.5-2.1 1-4.5 2.2-6.3 13.1-18.9 22.2-39.7 28.8-61.6 1.4-4.9 3.3-10 3.2-14.9-0.2-9.2 2.6-17.8 3.9-27.6zm182.4 27.3c12.8-0.6 25.5-1.3 38.2-1.8 3.3-0.2 6.7 0.3 9.9-0.1 4.5-0.6 5.6-3.1 5.6-8.7-0.1-4.3-1.9-5.3-5.9-5.9-8.9-1.5-17.7-3.6-26.5-5.9-6.3-1.7-8.7 0.2-7.6 7 0.9 6.3-1.9 9.6-8 10-4 0.3-7.9 1.1-11.9 1.8-0.7 0.2-1.3 1.4-1.9 2.2 0.6 0.4 1.2 1.2 1.8 1.3 1.5 0.2 3 0.1 6.3 0.1zm-256.9-59.9c-1.7 17.7-3.4 34.5-9.1 50.6-0.3 0.8-1.4 1.4-2.1 2-0.5-0.9-1.4-1.8-1.4-2.7-0.3-8.5 1.7-16.7 3-25 0.9-5.9 0.5-12 0.5-18 0.1-13.4-2.8-26.1-7-38.8-3.9-11.7-6.2-24-9.3-36.1-4-14.9-8.6-29.6-16.4-43.1-3.9-6.6-8.9-12.6-12.5-19.3-6.6-12.3-15.4-22.6-25.4-32.2-8-7.6-16.9-13.7-27.2-17.8-4.1-1.7-7.9-1.9-12.3 0.6-6.6 3.7-13.8 6.2-20.8 9.1-13 5.4-21.9 15.3-28.8 27.1-3.9 6.8-7.2 13.9-11 20.8-1.3 2.5-3.3 4.7-5 7-0.3 0.5-0.8 0.9-1.2 1.3-0.3-0.7-0.9-1.5-0.9-2.2 0-4.9-0.4-9.7 2.7-14.3 3.8-5.9 6.7-12.3 9.7-18.7 8-16.6 20.6-28.1 38.3-33.6 3.2-1 5-1.4 5.6-5.2 1.9-10.3 11.9-18.2 22.9-18.5 3.7-0.1 7.3 0 10.9 0 4.3-0.1 1.1-1.6 0.7-2.9-2.3-7.5-5.1-15-6.4-22.7-1.2-7.3-1-14.9-0.8-22.3 0.1-2 2.2-3.9 3.6-5.7 0.4-0.6 1.6-1 2.3-0.8 0.6 0.2 1.1 1.2 1.2 2 0.1 1.8 0 3.6 0 5.4-0.2 22.9 8.2 42.8 20.8 61.2 2.9 4.2 7.2 7.3 10.8 11 1.2 1.3 2.1 2.8 2.9 4.3 0.3 0.7 0 2.3-0.3 2.4-0.9 0.4-2.2 0.4-3.1 0-8-3.5-14-9.7-19.6-16.1-7.6-8.7-17.5-6.6-27.1-6.5-0.8 0-1.7 1.6-2.5 2.5q1.5 0.6 3.1 1.3c5.2 2.1 10.4 4 15.5 6.4 15.5 7.6 27.4 19.1 38.2 32.5 12.6 15.6 22.2 32.9 30.5 50.9 2.9 6 5.1 12.5 7 18.9 3.5 11.3 7.1 22.5 9.6 34.1 2.8 12.7 7.8 25 8.7 38.2 0.2 4 1.1 8 1.7 12.9zm83.5-158c1.7 4.1 3.9 11.5 3.9 17.5 0 4.6-1.7 7.7-5 9.8-5.5 3.3-11.4 6-17.1 9-7.2 3.8-14.3 7.7-21.5 11.6-11 6-23.1 8.7-35 11.8-2.4 0.6-6.1-0.4-8-2.1-4.3-3.6-8.1-8-11.6-12.3-10.2-12.6-17.7-27.1-29-38.9-3.6-3.8-6.9-8-10.2-12-1.5-1.9-1.4-3.5 1.4-3.4 2.9 0 5.7-0.8 8.2 2 4.4 4.9 9.3 9.4 14 14.1q10.2 10.3 20.5 20.5c0.5 0.5 1.3 0.6 1.9 0.9 0.1-0.6 0.3-1.1 0.4-1.7 0-0.9 0.3-2 0-2.7-3.5-6.5-2-13.1 0.3-19.2 1-2.7 0.7-4.1-1-4.6-9.7-2.8-16.2-10.6-24.3-15.7-3.8-2.4-6.4-6.9-9.1-10.7-3.4-4.6-6.3-9.4-9.5-14.2-1.1-1.7-2-3.6 0.5-4.5 1.2-0.4 3.4 0.5 4.3 1.5 4 4.9 7.5 10.3 11.6 15.1 7.4 8.4 16.8 14.1 26.6 19.2 7.4 3.9 14 9.1 18.7 15.6 7.2 9.8 15.1 19.3 18.4 31.4 0.4 1.5 2.9 3.8 4.1 3.5 5-1 10-3 13-7.4 1.1-1.5-0.4-4.5-0.1-6.7 1.9-13.8 7.2-26.6 11.9-39.5 2.6-7.1 3.1-14.1 1.8-21.4-0.7-4.2-2.5-5.4-6.8-4.3-12.2 3.3-24.3 2-35.9-2.4-7.1-2.6-13.7-6.2-20.5-9.5-0.8-0.4-1.2-1.7-1.7-2.5 0.8-0.2 1.7-0.6 2.5-0.4 2.2 0.4 4.3 1.2 6.5 1.7q14.8 3.7 29.7 7.3c5.8-4.6 13.1-0.4 20-4.7 7.2-4.5 11.1-10.1 14-16.9 5.4-12.6 10.5-25.4 14.7-38.4 2.5-7.8 5.4-15.8 4.8-24.4-0.1-1.8 1.2-3.7 1.7-5.6 0.6-2.1 1.1-4.2 1.6-6.3 1.3 2.6 3.5 5.1 3.7 7.7 0.9 11.1-0.5 22-4.5 32.5-4.1 10.5-7.2 21.3-11.9 31.4-3.2 7.1-0.6 12.8 3.3 17.2 4.2 5 6.3 10.8 9.6 16.1 7.6 12.6 14.9 25.3 22.2 38 4.4 7.8 7.9 16.3 13 23.6 7.4 10.6 13.2 22.2 22.2 31.8 13.7 14.7 24.2 31.9 27.7 51.9 2.3 13.4 3 27.4 1.7 40.9-1.3 12.5-3.4 24.9-3.3 37.5 0 3.7-1.1 7.4-1.8 11.1-0.1 0.6-0.9 1.5-1.5 1.6-0.6 0.1-1.9-0.6-2-1.1-0.7-4.3-1.7-8.6-1.8-12.9-0.2-11.7-0.2-23.6 0-35.3 0-2.6 1.1-5 1.5-7.6 0.2-1.7 0.9-4.1 0.1-5.2-3.2-4.1-1.4-8.7-1.6-13-0.7-19.1-6.4-36.4-18.6-51.3-15.2-18.6-28.1-38.5-38.6-60.2-3.3-6.9-8.1-13-12-19.6-1.7-2.8-3.2-4.3-7.1-4.7-4.8-0.4-9.3-3.6-14-5.4-4.7-1.7-8-0.5-9.6 3.6-3.9 10.2-7.6 20.5-11.3 30.7-1.2 3.5-2.4 6.9-3.2 10.5-0.6 2.3 0.8 3.7 2.9 2.3 6-3.8 13.1-7.1 17.3-12.4 2.7-3.5 1.9-10.6 2-15.9 0-0.7-2-2.7-1.9-3.4 0-1.4 0.3-2-0.1-3.4-0.9-3-1.5-8.1 0.6-6.4 1 0.8 5.1 6.3 6.3 9.3zm363.2 168.9c15.3 7.3 30.9 12.1 45.7 18.4 14.9 6.4 29.9 4.6 45 5.2 3.3 0.2 7.1-1.6 10.2 1.7 0.8 0.8 2.7 0.5 4.1 0.7-1.5 1-3 2.1-4.6 3-0.4 0.2-1.2 0-1.8 0-14.2 0.6-28.4 1.6-42.6 1.6-4.6 0-9.5-1.8-13.7-3.9-12-6.1-23.7-12.7-35.6-19.1-3.2-1.7-6.6-2.8-9.8-4.5-0.8-0.5-1-2.1-1.4-3.1 1.2 0 2.4 0 4.5 0zm205.6-79.5c0.7 13.5-5.6 24.9-8.2 37.2-1.3 5.7-3.6 11.2-5.7 16.6-8.2 20.9-23.5 35.6-42.7 46.2-5.8 3.2-12.5 5.1-19 6.4-3.4 0.8-7.3-0.9-11-1.6-1.5-0.2-2.9-0.8-4.3-1.2 1.5-0.8 2.9-1.8 4.4-2.3 7.2-2.5 14.9-4 21.4-7.5 14.1-7.8 27.3-16.6 35.9-31.5 8-13.9 12.6-28.7 16-44.2 1.7-7.8 3.5-15.6 3.8-23.8 1.1-29.7-4.9-55.2-19.3-82.2-9.2-17.4-21.7-30.9-39.3-39.6-3.7-1.8-8-2.5-12.1-3.7-1.6-0.5-3.1-1.5-4.7-1.6-5-0.4-1.8-2.4-0.5-3.2 1.8-1.2 4.3-2.6 6.2-2.3 14.9 2.6 28 9 39.1 19.4 13.6 12.7 21.7 28.9 29 46 4.6 11 8.2 22.3 10.1 33.7 2.1 12.7 4.5 25.8 0.9 39.2zm-338.2 88.5c6.8 1.2 12.7 2.3 18.5 3.7 7.4 1.7 14.8 3.5 22.2 5.5 1 0.3 1.7 1.9 2.6 3-1.2 0.8-2.3 1.9-3.6 2.3-1.4 0.4-3 0-4.5 0-13.1 0.2-25.7-3.3-38.3-5.9-6.9-1.5-13.8-3.3-20.6-4.9-0.9-0.2-2 0.2-2.7-0.2-1.5-1-4.1-2.3-4.2-3.4 0-2.7 2.2-4.1 5-3.7 8.2 1.2 16.5 2.4 25.6 3.6zm186.6-165.7c1.5-8.2 6.2-14.4 9.6-21.1 7.8-15.1 19.4-26.4 35.3-32.9 1.5-0.6 3.1-1.5 4.7-1.7 1.1-0.1 2.3 0.9 3.5 1.4-0.9 0.8-1.8 1.7-2.9 2.3-18.9 10.8-30.9 27.4-38.7 47.1-3.9 9.9-6.7 20.3-9.7 30.5-1.3 4.3-2.6 8.7-3.1 13.2-1.5 15.2-4 30.4-0.1 45.7 1.1 4.4 0.8 9.1 1.5 13.8 2.2 13.9 9.7 25 16.1 37 8.9 16.7 24.3 25.5 40 34 0.8 0.4 1.6 0.6 2.4 0.9-0.8 0.4-1.6 1-2.4 0.9-9.3-0.4-17.4-4.3-25.4-8.6-11.3-6.1-17.8-16.6-24.6-26.7-6.3-9.3-10.9-19.6-14.2-30.4-1-3.2-2.2-6.5-2.3-9.9-0.8-15.7-2.9-31.7-1.5-47.3 1.5-16.2 5-32.4 11.8-48.2zm-224.7 64c0-6.6 0.4-12.4-0.1-18.1-1.4-15.7 3.9-30.2 7.9-44.9 1.8-6.7 4.4-13.2 7-19.7 1.1-2.9 2.5-5.8 4.6-8 1.3-1.6 2.4-5.5 6.2-2.7 3.3 2.4-0.2 4.2-0.7 5.6-3.5 10.1-6.8 20.3-8.6 30.9-1.5 8.6-3.9 17.1-5.9 25.7-0.5 2.2-1.2 4.4-1.2 6.7-0.2 7.8-0.4 15.7 0 23.6 0.9 20.9 4.7 41.3 13.3 60.6 2.7 6.2 5.6 12.2 8.4 18.3 3.2 6.8 8.9 10.8 15.7 12.7 7.9 2.3 16.1 3.7 24 5.7 1.3 0.3 2.4 1.5 3.6 2.3-1.2 0.4-2.3 1.2-3.5 1.2-9.4-0.5-18.9-0.7-28.2-1.9-9.7-1.4-16.6-7.3-20.7-16.3-6.8-15.3-14.6-30.4-17.9-46.9-2.3-11.1-2.7-22.6-3.9-34.8zm-67.6-51.2c2.2-4 3.4-8.1 6-10.8 7.7-8.1 14-17.9 25-22 5.8-2.1 11.9-3.7 18-4.8 6.6-1.1 13.4-1.3 20.1-1.9 0.9-0.1 2-0.3 2.7 0 2.3 1.2 4.5 2.6 6.7 3.9-2.1 1.1-4.2 2.8-6.5 3.2-10.7 2.1-21.5 3.5-32.1 5.7-3.8 0.8-7.8 2.4-10.6 4.9-11.7 10.2-22 21.8-27.6 36.5-5.1 13.2-6.9 26.8-3.4 40.9 1.2 5 2.2 9.9 3.5 14.9 2 7.2 5.7 12.4 10.7 17.4 2.2 2.3 4.1 4.9 5.7 7.6 0.4 0.8-0.5 2.8-1.3 3.6-0.8 0.6-2.8 0.8-3.6 0.3-13.7-8.7-21.5-21.1-23.8-37.2-0.8-5.3-3.1-10.4-3.4-15.7-0.3-5.8 0.5-11.7 1.7-17.4 2.2-10.2 4.9-20.3 12.2-29.1zm309.6 98c-3.1-4.2-5.1-8-2.3-12.6 2.6-4.3 6-5.4 10.2-3.3 5.4 2.8 7.9 7.6 6.1 11.8-2 4.9-8.2 7-14 4.1zm32.6-93.5c4.6-2.9 8.6-5.6 13-7.6 1.6-0.7 4.2-0.2 6 0.5 1.1 0.3 1.6 2.2 2.4 3.4-0.9 0.5-1.8 1-2.8 1.4-3.1 1.3-6.2 2.4-9.2 3.9-6.7 3.3-9.7 9.2-11.7 15.9-1.7 5.9-5.6 12-5 17.7 1.5 14.8 0.8 30.8 13.2 42.5 11.4 10.7 24.8 8.3 32.7-5.3 7.9-13.5 10.1-28.1 7.8-42.8-1.7-10.8-4.6-22.3-15.5-28.8-1.1-0.7-2.4-2.8-2.1-3.5 0.7-1.3 2.3-2.9 3.8-3.1 4.3-0.6 8.2 1.2 10.6 4.6 7.1 9.8 12.6 20.4 12.7 32.9 0 4.5-0.2 9.1 0 13.6 0.7 13.5-5.5 25-12.1 35.8-6.6 10.9-22.3 15.5-33.6 10.9-7.8-3.2-13.5-9.4-17.8-16.5-6.5-10.7-6.7-15.9-7.8-29-0.3-4.3 0.4-8.1 0.6-12.1 0.1-4 0.6-8.2 1.8-11.9 2.6-8.2 5.8-16.2 13-22.5zm-24.9 83.6c-0.7-0.9-2.5-1-3.8-0.6-1.6 0.5-2.2 3.7-0.7 5.4 0.4 0.6 1.3 1.2 1.9 1.3 1.8 0.2 2.1-0.7 2.8-1.4 0.7-0.8 0.6-3.8-0.2-4.7zm79.1-10.7c0.8-0.4 3.8-1.9 6.2-1.1 1.9 0.8 3.5 3.8 3.8 4.7 1.7 3.8 0.6 7.5-3.1 11.2-1.3 1.3-4.2 2.9-5.1 2.4-2.2-1.4-4.8-3.7-5.3-6.1-0.9-3.9-1.3-8.6 3.5-11.1zm1.6 9c0.5 1 1.9 1.9 3.1 1.5 1.7-0.6 1.7-2.7 1.6-4.5 0-0.8-1.3-1.8-1.7-2.1-0.9-0.4-2.1-0.1-2.7 0.5-1.1 1.2-0.8 3.7-0.3 4.6zm-610.9-75.1c-2.9 3.7 1.3 4.7 2.8 6.2 2.8 2.9 4.2 7.7 8.9 8.3 6.5 0.7 12.6-1.1 18-4.5 1-0.6 1.8-3.2 1.3-4.2-3.4-7.4-7-14.6-10.8-21.8-2-3.7-4.5-7.2-7-10.6-0.8-1.1-2.3-1.7-3.5-2.4-0.5 1.1-1.6 2.3-1.5 3.5 0.7 6.6-1.6 13.5 1.6 20.1 1.3 2.5 2.1 7.9 1.1 8.5-3.3 1.8-6.4-0.9-10.9-3.1zm155.7 8.6c-5-9.1-5-19-7.7-28.2-2.9-9.8-4.6-19.9-8.4-29.2-2.3-5.7-7.2-10.4-11.3-15.3-7.9-9.5-17.8-16.3-29.2-21.3-2.3-1-4.5-2.3-6.6-3.7-0.5-0.4-0.9-1.7-0.7-2.3 0.2-0.6 1.3-1.1 2-1.2 5.7-0.7 10.7 1.7 15.5 4.1 10.6 5.4 20.3 12.1 28.6 20.9 8.1 8.7 12.3 18.7 15.8 29.8 3.3 10.7 4.6 21.7 6.7 32.5 0.9 4.8 2.2 10.7-1.5 15.5q-0.8 1-1.5 1.9c-0.4-1-0.8-2-1.7-3.5zm415.1-46.4c1.6-0.5 3.4 0.5 4.7 1.4 3.3 2.3 4.3 5.7 2.6 9.5-0.9 2.1-3.4 4.1-5.7 4.9-1.2 0.4-4.3-1.3-4.9-2.7-1.2-2.8-2.1-4.7-1.7-7.7 0.3-2.7 3.3-5 5-5.4zm0.2 6c-0.9 1.1-0.4 3.4 0.7 3.6 1.2 0.3 2.2-1.3 1.8-2.4-0.6-2-2.3-1.4-2.5-1.2zm-202-24.9c-15.9 16.1-11.9 12.9-30.5 13-5.8 0-11.7-0.9-17.4-1.8-1.6-0.3-3.1-2.2-4.2-3.6-3.3-4.2-2.7-9.5-1.6-13.7 1.8-6.8 5-13.4 10.8-18.1 0.6-0.5 2.2-0.9 2.3-0.7 0.6 0.8 1.1 2 1 3 0 1-1 1.9-1.4 3-1.9 5.8-4.2 11.6-5.4 17.6-0.2 1.2 0.5 6 5 5.4 2.3-0.3 4.8-0.3 7.2 0 7.4 1 11.7-0.9 15.1-8.7 4.4-10.5 12.9-18.3 24.2-22.1 1.2-0.4 3.6-0.2 4 0.6 1.4 2.3-1.2 2.1-2.2 3.2-7.6 7.6-14.8 15.6-21.9 23.5-0.6 0.6-0.3 2-0.4 3.1 1.1-0.2 2.4 0 3.1-0.6 2.5-2.2 4.9-4.5 7.1-7 5.7-6.6 14.1-8.3 21.3-12 0.6-0.2 2 0.3 2.3 0.8 0.3 0.5 0.1 2-0.3 2.4-5.8 4.1-11.7 8.1-18.1 12.7zm-425.8-10.9c-1.3-3.8-1.9-7.1-3-10.3-3.5-10.6-5.1-21.9-4.1-32.5 1-11.9 0.7-23.7 1.1-35.6 0.2-3 1.4-6.5-1.5-9.4-0.6-0.6 0.3-3.4 1.2-4.7 1.3-1.9 3-3.1 4.1 0.6 1 3.4 3.2 6.8 3.5 10.3 0.9 11.8 1.3 23.6 1.9 35.5 0.6 10.3 0.1 20.9 2.1 30.9 2.2 11.2 4 23.1 13.1 31.7 0.4 0.4 0.7 0.9 1 1.3-0.8 0.3-1.7 0.9-2.4 0.7-2.3-0.9-5-1.6-6.8-3.1-4.7-4-8-9-10.2-15.4zm304.6-26.8c-1.2-8.3-2.3-15.7-3.6-23-1-5.2 2-6.8 6.4-7.9 10.3-2.7 20.4-5.7 31.3-5.5 4 0 7.9-1.2 11.9-1.7 2.9-0.4 6.1 0 6.5 3.1 0.4 3.1-2.3 4.1-5.4 4.2-5.8 0.3-11.6 1.2-17.4 1.7-7.3 0.7-14.7 1.1-21.9 2-1.5 0.2-3.7 2.2-4 3.7-1.4 7.7 2 14.7 3.6 22 0.2 0.7 2.4 1.3 3.6 1.3 7.3 0.2 14.5-0.1 21.8 0.2 7.6 0.3 15.2 1.1 22.8 1.7 0.8 0.1 1.6 0.5 2.4 0.8-0.8 0.8-1.4 2.2-2.3 2.5-5.2 1.4-10.4 3.2-15.6 3.8-3.4 0.3-4 1.3-3.8 4.2 0.2 4.8 0 9.7 0.1 14.5 0.1 6.1 0.7 6.7 6.4 6.9 1.6 0 3.2-0.3 4.6 0.1 1.8 0.5 3.5 1.7 5.2 2.6-1.7 0.9-3.3 2.5-5.1 2.6-4.8 0.4-9.6 0.3-14.5 0.1-3.4-0.2-4-2.8-4-5.8 0.2-5.4 0.1-10.9 0.1-16.3-0.1-8.7-0.1-8.7-9.2-8.7-3 0-6-0.1-9.1 0-5.8 0.2-9.7-2.1-10.8-9.1zm-165.2 33.6c2.5 0.6 4.9 1.4 7.4 1.9 1 0.3 2.1 0.2 3.1 0.3-0.2-1.1-0.1-2.2-0.5-3.1-2.6-6.4-6.5-12.2-8.5-19.1-1.8-6.4-5.2-6.6-9.2-1.3-0.7 1-0.5 3-0.1 4.3 1.3 4.9 2.6 9.7 4.2 14.5 0.5 1.3 1.8 2.3 3.6 2.5zm-227.4-18.6c-1.6-9.5-2.3-18.4 0.1-27.5 1.1-4.2-0.1-9.4-1.6-13.7-3.8-10.5-1.7-20.5 2-30.4 4.3-11.5 9.4-22.7 13.4-34.3 2.3-6.6 3-13.9 4.8-20.7 0.5-1.8 2.7-3.1 4.1-4.6 1 1.9 2.8 3.8 2.9 5.8 1.1 11.2-2.4 21.6-5.9 31.9-3.9 11.1-8.5 21.9-12.8 32.8-0.1 0.3-0.6 0.5-0.6 0.7 0.5 4.8-4.3 9-1.5 14.1 5.1-1.8 3.5-7.5 6.3-10.8 3-3.7 5.4-8 7.3-12.4 3.4-7.6 6.1-15.6 9.2-23.3 0.6-1.6 1.8-2.9 2.7-4.3 0.9 1.8 2.5 3.5 2.6 5.2 0.5 7.3-2.4 13.9-4.8 20.7-5.1 14.5-14.4 27.3-17.3 42.6-1.8 9.5-5.4 18.8-1.7 28.9 1.5 3.8-0.2 8.8-0.4 13.2-2.8-3.9-5.6-7.8-8.3-11.7-0.3-0.4-0.1-1.2-0.5-2.2zm558.3-5.5c8.9-0.4 17.5 0.6 25.8-0.6 23.3-3.4 46.6-0.9 69.9-1.5 9.4-0.3 18.8 1 28.2 1.7 0.9 0 1.8 0.2 2.5 0.6 1.2 0.8 2.3 1.7 3.4 2.6-1.2 0.7-2.4 2.1-3.6 2.1-3.5 0-7-0.7-10.5-0.8-3.2 0-6.5 0.8-9.7 0.9-8.2 0.1-16.4-0.8-24.5 0.2-16.9 2-34 0.6-50.8 2-9.2 0.8-18.3 1.4-27.4 1.3-6.7 0-13.4-1-20.1-1.7-0.5-0.1-1-0.8-1.5-1.2 0.7-0.7 1.2-1.7 2-1.9 4.5-0.9 9-1.5 13.5-2.3 0.8-0.2 1.6-0.6 2.8-1.4zm-107.6-36.8c1.5-2.4 2.9-3.9 4.3-5.4 1 1.7 2.5 3.2 2.9 5 2 9.5 3.5 19 5.8 28.4 0.2 0.9 0.8 8.4 6 3.1 0.5-0.5 1.7-0.1 2.6-0.2 10.6-0.6 21.2-1.1 31.8-1.9 2.5-0.1 5-1.4 7.5-1.7 7.9-0.7 15.3 2.3 22.9 3.6 0.5 0.1 1 0.6 1.5 0.8-0.6 0.7-1.1 1.5-1.8 1.9-1 0.5-2.1 0.8-3.2 0.9-8.8 0.7-17.8 0.4-26.4 2.1-11.2 2.1-22.4 1.2-33.6 1.6-0.9 0-1.9-0.2-2.8 0-3 0.5-7.5 2.7-8.9 1.5-2.5-2.5-4.1-6.7-4.8-10.4-1.6-9.4-2.6-18.9-3.8-29.3zm-341.8-8.6c5.4 6.6 10.2 12.8 15.2 18.8 4.4 5.2 9 10.2 13.4 15.4 0.6 0.6 0.4 2 0.5 3-0.9-0.4-1.7-1.2-2.7-1.3-6.3-0.8-11.1-4.1-15.4-8.6-8.2-8.4-17.4-16-21.7-27.3-2.2-5.4-3.5-11.2-5.1-16.9-0.2-1 0.4-2.2 0.6-3.3 0.9 0.7 2 1.3 2.6 2.2 4.1 5.8 8.1 11.7 12.6 18zm477.6-144.3c6.2-8.1 12.1-15.6 17.7-23.3 7.1-9.5 13.5-19.4 17.4-30.9 2.1-6.3 4.8-12.6 7.4-18.7 4.3-9.7 4.9-20.2 8.6-30 2.2-5.8 2.8-12.1 4.6-18.1 0.5-1.6 0.8-5.6 4.4-3.7 1.2 0.6 2.2 3.3 1.9 4.8-3.8 20.6-7.4 41.3-14.5 61.1-5.1 14.4-11.5 28.2-21.5 40.1-6.1 7.3-10.5 16.6-17.7 22.4-8.4 6.7-8.1 14.5-7.8 23.1q0.6 20.1 1.8 40.1c0.4 6.1 0.1 12.4-1.7 15.9-0.6 1.1-1.5 2-2.3 3-1.1-0.9-2.4-1.7-3.2-2.9-0.5-0.5-0.1-1.7-0.1-2.6-0.2-4.4 0.2-8.6-1.6-13-1-2.5 0.8-6.1 1.2-9.3 0.2-2.3 0.8-4.9 0.3-7.1-2.8-10.4-2.6-20.8-0.3-31.3 0.3-1.3-1.4-3.9-2.8-4.5-2.9-1.2-6.1-1.5-9.2-1.9-4.6-0.7-9.7-2.8-13.7-1.6-10.3 3.3-21-0.3-31.3 3.1-6.2 2.1-13.4 1.4-20.1 2.1-5.2 0.5-10.4 1-15.5 1.9-6 1-8.3 5.5-6.9 12.8 1.8 9.5 3.7 19.1 5.4 28.6 1.4 7.4 2.5 14.7 3.8 22.1 0 0.3 1.4 0.9 1.8 0.6 7.7-4.1 16.4-2.9 24.6-4 9.5-1.2 19.4-1.1 29-0.1 9.6 1.1 19.6 0.7 28.6 5.3 1.1 0.6 1.9 1.9 2.8 2.9-1.1 0.3-2.3 0.7-3.4 0.7-20.3-0.6-40.6-1.2-60.9-1.8-1.8-0.1-3.7-0.3-5.5 0-3.6 0.9-7.2 1.8-6.3 7.2 0.5 2.6-0.1 5.4 0.2 8.1 0.3 2.5 0.5 5.4 1.9 7.3 2.1 2.8 4.6-0.5 6.9-0.7 11.4-0.9 22.6-3.2 34.3-0.5 7.5 1.8 15.7 0.5 23.5 0.3 3.3-0.1 4.2-2.5 4.2-5.6-0.1-2.9 0.3-5.8 0.8-8.7 0.1-0.8 1.2-1.8 1.8-1.8 0.7 0 1.7 1 1.9 1.7 0.5 2.3 0.7 4.6 0.8 7 0.6 6.2 1.7 7.4 7.8 7.4 7.8 0.1 15.7 0 23.6 0.1 6 0.1 8.5 2.5 8.6 8.5 0.1 5.7 0.5 11.6-0.2 17.2-0.5 4.7-2.5 9.2-3.9 13.8-0.4 1.3-1.2 2.6-1.3 4-0.7 8.2-1.2 16.4-1.9 24.6-0.2 1.7 1.5 4.5-2.4 4.5-3.1 0-6.2 0.1-6.6-4-0.2-2.1-0.4-4.3 0-6.4q2.5-12 5.5-24c0.3-1.3 1.7-2.3 2.4-3.6 0.2-0.4-0.3-1.9-0.5-1.9-1.8-0.1-3.7-0.1-5.5-0.1-14.8 0-29.6 0.1-44.4 0-3.1-0.1-6.1 0.6-9.4-1.5-3.3-2.1-8 2.4-6 5.7 2.9 5 0.7 10 1.6 14.8 0.7 3.7-1.5 7.7 1.6 11.2 0.7 0.8-0.8 3.7-1.7 5.4-0.5 1.1-1.6 1.7-2.5 2.6-0.3-1.1-0.8-2.1-1-3.1-2.5-11.4-4.8-22.9-7.4-34.2-0.4-1.7-2-3.9-3.5-4.3-6.7-2.2-22.8-1.7-30.1-0.1-6.5 1.4-13 2.3-19.4 3.6-4.8 0.9-9.5 1.9-14.3 2.8-1.1 0.3-2.2 0.7-3.3 0.7-2.4 0-4.7-0.3-7-0.5 2.1-1.6 4-4 6.3-4.7 7-2.2 14.2-4.4 21.4-5.4 14.6-2 28.9-7.1 44-5.6 6.5 0.7 12.9 2.3 19.4 3.3 2.1 0.4 4.2 0.3 6.3 0.3 11.5 0 23-0.2 34.5 0 5.5 0.2 11 1.3 16.5 1.7 3.7 0.3 6.2-0.3 3.9-5.3-0.9-1.8-0.6-5.1 0.5-6.8 2.7-4.4-0.1-5.2-3.2-5.9-1.7-0.4-3.6-0.1-5.4-0.1-22.7 0-45.4 0.1-68.1 0-11.1 0-22 1.2-33 3.5-6.2 1.4-12.8 1.4-19.2 2-6.7 0.6-13.4 0.8-20 2-2.8 0.4-6.7 1.8-4.4 6.6 0.6 1.2 0.6 3.2 0 4.5-1 2.3-2.7 4.3-4 6.5-1.3-1.7-3.1-3.1-3.8-4.9-1.9-5.1-2-10.1 0.2-15.3 1.4-3.4 4.6-5.8 6.8-4.6 4.9 2.6 8.9 0.1 13.2-0.4 7.1-0.8 14.1-2.2 21.2-3.6 1-0.2 2.5-1.3 2.7-2.2 1.2-5.4-1.8-11.3 1.5-16.6 0.1-0.2-2.3-2.7-3.6-2.7-2.8-0.2-5.6-0.3-6.8-3.1-1.3-3.1-2.3-6.5-2.6-9.8-0.8-7.7-1.1-15.5-1.7-23.2-0.1-2-0.9-3.9-1.2-5.8-1.2-10.1-2.3-20.2-3.8-30.3-0.3-2-2.1-4.4-4-5.5-19.8-11.2-30.7-29.9-41.2-48.9-9.4-17.1-14.1-36-19.8-54.4-2.4-7.6-2.7-15.9-3.7-23.9-0.2-1.2 0.8-3.5 1.8-3.9 2.3-0.9 3 0.4 3.7 3.1 2.6 10.6 5.5 21.2 9 31.6 5.2 15.7 10.3 31.5 18.3 45.9 7.3 13.1 15.7 25.8 26.9 36.1 4.4 4 10 6.9 14.4 11.1 4.2 3.9 8.3 2.9 13 1.9 5.6-1.3 11.4-1.9 17-2.8 6-1 11.9-2 17.8-3.1 0.6-0.1 1.1-0.5 1.6-0.5 9.1-0.6 18.3-1.8 27.4-1.6 6.8 0.1 13.6 1.9 20.3 3.2 4.8 1 7.9-0.4 9.8-5.7zm-386.3 158.4c3.6 0 6.3-0.2 9 0.1 0.6 0.1 1.7 2.4 1.4 2.9-2.7 4.4-14.7 4.5-17.2 0.1-0.2-0.3 0.5-1.6 1-1.8 1.5-0.6 3.2-0.9 5.8-1.3zm14.5-67.2c0-2.4-0.4-4.1 0.1-5.4 0.6-1.4 2.1-2.4 3.2-3.7 1.3 1.4 3.5 2.6 3.8 4.1 1.7 8.3 4.1 16.3 9.2 23.3 2.7 3.8 3.2 8.7 0.8 12.3-1.6 2.3-5.9 2.9-9.1 3.8-1 0.2-2.6-1-3.5-2-0.3-0.3 0.8-2.1 1.6-3 3.9-4.7 4.2-5.9 0.1-11.2-4-5.2-6.2-10.7-6.2-18.2zm-134.4-159.8c-9.9 5.4-19 10.5-27.8 16.1-17.2 11.2-27.4 27.6-33.8 46.7-1 3 0.1 6.6-0.1 9.9-0.4 5.5-0.9 11.1-1.3 16.5-0.7 9.1 1.5 18.5 3.3 27.5 0.8 4.3 7.4 6.9 13.8 4.8 6.2-2.1 12.3-1.3 18.4-1.6 3.6-0.2 7.2 0 10.9 0q15.8 0.1 31.2-3.5c2.8-0.7 6-0.3 9-0.1 1.3 0.1 2.4 0.9 3.7 1.4-0.8 1.2-1.5 2.5-2.4 3.5-1.1 1.4-3.2 2.4-3.6 3.8-2.3 9.4-8.3 17.8-7 28.1 0.3 1.9-1 12.1-2.3 11.9-1.6-0.3-1.4-3.2-2.1-5.6-0.6-2.1-0.9-4.5-0.9-5.9-0.2-4.3-1.3-8.6-1.7-12.9-0.4-4-7.6-10.1-12-9.8-3.1 0.1-8.1 5.6-7.9 9.3 0.3 7.8-1.7 15.8 3.4 23.1 2.3 3.3 3.1 5.2 7.1 1.9 1.6-1.4 6.2-1.5 7.5-0.2 1.7 1.6 2.4 5.6 1.6 8-0.9 2.8-3.4 5.9-7.4 5-6.6-1.3-13.3-3.7-16.8-9.3-7-10.9-10.2-24.8-1.6-36.2 1.4-2 1-3.6-1.6-3.4-8.2 0.8-16.4-1-24.8 1.4-4.8 1.4-11.4 0-16-2.3-4.7-2.4-7.1-7.6-8.2-13.7-1.4-8-2.9-16.1-2.9-24 0-11 1.4-22.1 3.5-33 1.9-9.7 7.5-18.4 13.4-26.1 6.2-8 13.8-15.1 21.6-21.7 10.2-8.7 22.5-13.7 34.8-18.8 10.2-4.2 20.3-8.1 31-10.9 1.2-0.3 2.3-1.9 3-3.1 2.9-5 6.2-6 10.4-6.3 3.9-0.2 8.7 0.1 11.8 4.6 2 2.8 3.5 3.1 6 3.1 10.8 0 21.4 1.3 31.3 5.6 13.2 5.8 26.7 11.3 37.3 21.7 4.4 4.4 9.5 8 13.9 12.3 12.7 12.5 21.7 27.2 26.4 44.5 0.1 0.5 0.4 1.1 0.4 1.6-0.3 2.3-0.6 4.6-0.9 6.9-1.3-1.9-2.8-3.6-3.8-5.6-10.4-21.6-24.9-40.3-43.2-55.5-12.4-10.2-26.8-18.7-42.5-21.8-11-2.2-22.9-5.3-34.8-0.8-5 1.9-10.8-0.1-16.5 1.7-7 2.2-13.8 4.8-20.6 7.4-3.1 1.2-6.2 2.5-10.2 3.8zm1.2 174.1c1.2-0.3 2.2-2.5 1.7-3.8-0.5-1.1-2.5-1.4-3-1.3-0.6 0-1.6 1.3-1.6 1.4-0.5 2.3 1 4.1 2.9 3.7zm90.1-5.7c-2.9-5-2.9-9.5 0.2-13.8 1.6-2.2 3.7-3.3 5.5-0.3 2.4 3.9 4.3 7.9 2.1 12.7-1.8 3.7-3.8 5.8-7.8 1.4zm57.2-11.8c-0.8-3-1.7-5.6-1.3-8.1 0.6-3.4 5.9-4.7 7.4-1.7 1.3 2.5 1.7 6.2 0.8 8.9-0.7 2.5-3.7 3.6-6.9 0.9zm-97.2-61.7c6.3-3.9 11.8-8.2 18.1-10.5 14.5-5.6 28.8-12.2 45.1-11.9 6.6 0.2 13.5-2.1 20.1-1.4 11.7 1.3 23.8 0.7 34.9 5.3 9.8 4.1 20 7.5 28.8 13.7 4.8 3.4 10.5 5.5 15.5 8.5 4.4 2.6 8.6 5.3 12.7 8.1 0.8 0.5 2.3 1.8 3 2.4 0.7 0.4 2 2.2 1.8 2.6-0.1 0.4-2.3 0-4-0.8-3.4-1.4-6.6-1.8-9.8-3.4-14.4-6.9-28.8-13.9-43-21.1-8.1-4.2-16.6-6-25.5-6.4-6-0.4-12.1-0.4-18.1 0-23.6 1.6-46.2 5.9-66.4 19.5-8.7 5.9-18.8 9.7-26.3 17.5q-0.9 1-1.9 2c0.8 0.3 1.6 0.6 2.4 0.9 9.9 2.5 19.7 5.1 29.6 7.4 12.4 2.9 24.4 7 37 9.4 10.2 2 14.6-1 22.7-4.9 3.4-1.6 12.2-6.5 15.6-8 6.7-3.2 11.1-3.4 17.9-6.5 0.2-0.2 0.4-0.7 0.6-0.6 11.3 0.7 22-3.5 33.9-1.1 10.8 2.3 21.5 5 32.2 7.8 2.6 0.7 4.9 0.3 4.4-3.5 0-0.2-2-3.9-1.1-4.3 1.1-0.4 5.2 2.6 5.7 3 3.9 2.6 3 7.7-1.2 10.4-4.1 2.7-8.8 2.4-12.8 1.6-8.8-1.8-17.3-5.5-26.2-6.8-8-1.2-16.3-0.9-24.4-0.1-4.6 0.5-4.9 5.6-5.6 9.6-0.6 3.4-1.3 6.7-2.5 9.9-0.6 1.6-2.8 3-3.6 0.3-0.5-2-3.9-3.2-1.4-6.5 1.3-1.7 0.3-5.2 0.2-7.9 0-0.7-0.7-1.8-1.2-1.9-0.7-0.1-2.2 0.6-2.2 0.9 0.5 8-6.5 8.1-11.2 9.8-9.3 3.4-18.9 5.6-28.6 7.8-4.3 1-8.8 4.8-13 3-5.7-2.5-11.1-1.2-16.6-1.5-2.5-0.1-5 1.5-7.4 1.6-1.5 0-3-1.4-4.6-2.1 0.8-1.1 1.4-2.3 2.3-3.2 1.4-1.5 3-2.9 4.5-4.3-2.3-1-4.5-2.2-6.8-3-12.3-4-24.6-7.7-36.8-12-5.8-2-7.6-6.2-4.3-11.5 3-4.8 7.7-8.6 11.7-12.8 1.6-1.7 3.6-3 5.8-5zm-45.8 33.1q2.2 3.1 4.4 6.2c0.6-1.1 1.2-2.2 1.8-3.3 0.9-1.7 2.7-4.5 2.4-4.8-2.1-1.6-4.2-1.1-6 1-0.2 0.3-1.1 0-2.6 0.9zm23.6-97.1c-1.1 3.8-2.9 6.6-3.1 9.6-1 12.3-3.2 24.9-1.9 37 1 8.9 0.6 17.7 1.3 26.6 0.1 0.9-0.6 2-1 3-0.8-0.9-2.2-1.6-2.4-2.6-1.5-4.9-3.2-9.8-3.7-14.8-1-10.9-1.1-21.9-2-32.8-0.9-10.4 1.8-20.3 5.9-29.3 2.7-5.8 9-10 13.8-14.8 0.2-0.2 1.1 0.1 1.6 0.4 0.1 0 0 0.8-0.2 1.2-1.5 2.4-3.3 4.6-4.6 7.1-1.5 2.8-2.5 5.7-3.7 9.4zm433.5-78.5c5.6-1.5 10.7-2.8 15.7 0.2 0.5 0.3 1.3 0.4 1.7 0.2 4.1-2.1 8.5 0.3 12-0.4 5.9-1.1 8.9 3.3 13.4 4.1 0.5 0.1 1.1 0.7 1.2 1.1 0.5 3.5 1.8 7 1.2 10.3-0.5 2.9-1.5 6.7-6 7.1-0.3 0-0.8 1.6-0.5 2.2 0.2 0.6 1.7 1.2 2.1 1 5.8-3.8 3.3 2.1 2.9 2.9-1.5 2.7-3.7 5.1-5.6 7.6-2 2.8-3 4.6 1.6 6.5 3.7 1.5 3.7 5.9 1 8.9-3.4 3.9-4.2 8.1-4 13 0.1 6.1-1.9 11.4-5.1 16.9-3.1 5.2-3.9 11.6-5.8 17.5-0.3 1.1-0.7 2.1-1 3.2-2.6 9.3-10.4 11.9-18.1 12.3-12 0.4-23.3 3.5-34.9 5.7-1.2 0.2-2.6 0.3-3.6-0.1-8.7-3.1-16.8-0.9-25 1.7-1.1 0.4-3.1-1.3-4.3-2.4-2.7-2.4-5.1-5-7.6-7.6-2.8-2.7-5.4-5.6-8.3-8.2-7.2-6.5-13-13.8-15.3-23.6-0.3-1.5-2-2.8-3.3-4-2.3-2.4-4.4-4.4-4.1-8.4 0.2-2.5-1.2-5.8-3-7.6-5.3-5.6-6-12.7-7.6-19.6-0.7-2.8-0.9-5.7-1.9-8.3-1.8-4.7-1.2-8.4 2.9-9.9 4.8-1.6 9.9-2.4 14.8-3.8 2.1-0.6 4.2-1.6 6-2.8 3.7-2.2 7.2-4.7 10.8-6.9 0.9-0.6 2.5-1.4 3.1-1 5.3 3.5 9.4-0.1 14.2-1.6 4.5-1.4 10 0.7 14-3.4 0.4-0.4 1.3-0.7 1.6-0.5 7.4 4.2 15-1.9 22 0.2 7.1 2.1 13.6-1.6 20.4-0.3 0.5 0 1.3-1.2 2.4-2.2zm76.2 52.6c-2.3 6.9-7.6 12.1-7.1 19.6 0.2 2.4-2.1 5.1-3.6 7.5-1.5 2.4-2.9 5.5-5.2 6.7-6.9 3.7-7.4 11.8-12.5 16.7-3.2 2.9-5.6 6.7-8.5 10-2.3 2.8-5.2 2.3-7.9 0.8-3-1.7-0.8-3.5-0.4-5.8 1-4.4-0.7-9.5 3.9-12.9-2.6-6.2 1-10 5.2-13.6-3.1-5.8 1.5-10.5 2.2-15.8 0.8-5.6 2.7-10.8 6.8-15.3 4.5-4.7 4.1-11.3 1.8-16.4-1.8-4-1.4-5.9 1.3-8.3 2.4-2.1 4.2-4.3 1.6-7.5-0.5-0.6-0.9-2.1-0.6-2.3 3.4-2.9 4.6-7.4 7.2-10.6 2.2-2.7 6.8-4 10.5-4.8 6.6-1.6 12.7 1.1 16.2 6.2 3.1 4.5 1.4 10.9-1 15.7-1.9 4-1.7 7.8-2.2 11.8-0.8 6.6-3 12.6-7.7 18.3zm-133.9 54c1 0.3 1.9 0.6 2.9 0.7 0.1 0 0.2-0.7 0.3-1.1-0.7-0.1-1.5-0.3-3.2 0.4zm52.7-5.4c-0.2-0.8-0.2-2.2-0.6-2.3-4.2-1.3-4.3 2.3-5.4 4.7-0.3 0.6-0.5 1.2-0.7 1.9 1.8-0.4 3.7-0.8 5.4-1.3 0.5-0.1 0.9-0.8 1.3-3zm-27.2-1.8l1 0.7c0-0.5-0.1-1.1-1-0.7zm50.8 0l1.1 0.7c-0.1-0.5-0.1-1.1-1.1-0.7zm-75.4-2.7q-1-1.8-1.9-3.5-1.3 2.1-2.6 4.3c1.2 0 2.4 0 4.5-0.8zm69 0c0.3-1 0.5-2 0.7-2.9 0-0.1-0.7-0.2-1.1-0.4-0.2 0.8-0.3 1.6 0.4 3.3zm-96.2-10.9q0.5 0.9 0.9 1.8 0.5 0.9 1 1.8c-0.1-1.2-0.1-2.4-1.9-3.6zm80.8 2.7q-1.5-2.2-2.9-4.3c-0.3 0.5-0.7 0.9-0.7 1.4 0 1.9-0.7 4.3 3.6 2.9zm-73.5-8.2q-0.1 1.8-0.1 3.6c0.9-0.4 2-0.5 2.7-1.1 0.6-0.5-0.4-2.3-2.6-2.5zm32.6 0c1-0.6 1.8-1.5 2.8-1.7 3.1-0.7 1.1-2.2 0.2-2.4-1.2-0.3-2.6 0.2-3.9 0.5-2.7 0.6-2.1 2.1 0.9 3.6zm-20.8-2.7c0.6 0.9 1.3 1.8 2 2.7 0.1 0.1 0.9-0.4 1.4-0.7-0.9-0.9-1.7-1.9-3.4-2zm96.2-5.5q-0.2-1.1-0.5-2.3-1.4 1.4-2.7 2.8c0.8 0.1 1.5 0.3 3.2-0.5zm-63.5 0q-0.3-1.1-0.5-2.3-1.4 1.4-2.8 2.8c0.8 0.1 1.6 0.3 3.3-0.5zm12.7-7.2q1.4 2.1 2.9 4.3c0.2-0.5 0.6-1 0.7-1.4 0-1.9 0.6-4.3-3.6-2.9zm79.8 1.8q-0.2-1.1-0.4-2.3c-0.4 0.1-1.2 0.3-1.2 0.3 0.2 1 0.5 1.9 1.6 2zm-43.5-1.8l1.1 0.7c-0.1-0.5-0.2-1.1-1.1-0.7zm-28.2-4.6c0 1.3 0 2.5 0.1 3.7 0 0 1.6 0 1.6 0 0.2-1.2 0.1-2.4-1.7-3.7zm-49.9 0.9q0.3 0.2 0.5 0.4 0.3 0.2 0.6 0.4c-0.1-0.6-0.1-1.1-1.1-0.8zm20.9-0.9q1.3-1 2.7-2-0.8-0.8-1.5-1.6c-0.7 0.9-1.4 1.8-1.2 3.6zm-41.8-3.6q1.2-1.5 2.4-3.1-2.1-0.2-4.2-0.5c0 1.2 0 2.4 1.8 3.6zm70.8-9.1c-2.1 1.8-3.7 3.7-2.4 6.7 0.2 0.3 1.3 0.7 1.4 0.6 1.9-2 3.7-4 5.6-5.9-0.9-0.5-1.8-0.9-4.6-1.4zm-24.5 6.4c1 0.2 1.9 0.5 2.9 0.7 0 0 0.2-0.8 0.3-1.1-0.7-0.2-1.5-0.4-3.2 0.4zm71.7-6.4c-0.2 0.3-0.4 0.4-0.6 0.7q-1.7 2.2-3.3 4.5c1.6-0.9 3.4-1.6 4.9-2.7 0.6-0.4 0.6-1.6-1-2.5zm-66.2-0.9q0.2 1.2 0.5 2.3 1.3-1.3 2.7-2.7c-0.8-0.2-1.6-0.3-3.2 0.4zm49 1.8l-1.1-0.7c0.1 0.6 0.1 1.1 1.1 0.7zm-14.5-1.8q0.2 0.2 0.5 0.4 0.3 0.2 0.6 0.4c-0.1-0.6-0.2-1.1-1.1-0.8zm-96.3-5.4q1.6 1.2 3.1 2.3 0.3-2.1 0.6-4.1c-1.2 0-2.5 0-3.7 1.8zm84.5-6.4q0 0.9-0.1 1.8 0 0.9 0 1.8c0.6-1.2 1.3-2.4 0.1-3.6zm-31.8 2.7c-1-0.2-1.9-0.5-2.9-0.6 0-0.1-0.2 0.7-0.3 1.1 0.7 0.1 1.5 0.3 3.2-0.5zm59.9 0l-1.1-0.7c0.1 0.6 0.1 1.1 1.1 0.7zm54.5-5.4c0.5-0.6 1.6-1.8 1.6-1.8-2.5-2.5-3.4 0.4-4.9 1.4 0.8 0.5 1.6 0.9 3.3 0.4zm-494.6-8c-1.5 1.1-2.3 2.3-0.8 2.8 1.3 0.4 7.4 0.1 8.6-0.2 0.7-0.1 1.9-0.9 1.5-1.6-0.8-1.2-2.5-1.8-4.4-2-2.2-0.3-4.3 0.5-4.9 1zm415.6 1.6q-0.2 0.3-0.4 0.6-0.2 0.3-0.3 0.5c0.5 0 1.1-0.1 0.7-1.1zm30-4.5q-0.7-1.4-1.4-2.7c-1.4 1.5-2.9 3-4 4.7-0.3 0.5 0.4 1.6 0.7 2.4 1.2-1.2 2.5-2.3 4.7-4.4zm-38.2-3.6q-1.7 2.8-3.5 5.6c1.9-0.8 3.8-1.5 5.6-2.3 0.3-0.1 0.4-0.4 0.7-0.6q1.3-1.1 2.7-2.3c-1.5-0.4-3.1-0.9-5.5-0.4zm-42.6 0.9c-0.3 0.2-0.5 0.4-0.7 0.6 0 0.2 0.1 0.4 0.1 0.7 2.1-0.5 4.2-0.9 6.2-1.3 1.7-0.4 4.8 1.3 4.1-2.5-0.1-0.4-3.4-0.5-5.1-0.2-1.3 0.2-2.5 1.1-4.6 2.7zm62.6-0.9c0.8 0.3 1.6 1 2.3 0.8 1.1-0.3 2.1-1.1 3.1-1.7-1-0.6-2-1.5-3.1-1.8-0.7-0.1-1.5 0.6-2.3 2.7zm-38.1 0c-1-0.3-2-0.5-2.9-0.7-0.1 0-0.2 0.7-0.3 1.1 0.7 0.2 1.5 0.3 3.2-0.4zm49-1.8l-1.1-0.8c0.1 0.6 0.1 1.1 1.1 0.8zm5.4-5.5c-0.6-0.9-1.3-1.8-2-2.7-0.1-0.1-0.9 0.4-1.4 0.7 0.9 0.9 1.7 1.9 3.4 2zm9.1-1.8q-0.2-1.2-0.5-2.3-1.3 1.3-2.7 2.7c0.8 0.2 1.5 0.3 3.2-0.4zm-23.6-3.6q-2.6-0.1-5.3-0.2 0.1 1.2 0.2 2.4c1.4-0.5 2.8-0.9 5.1-2.2zm-38.1-44.5c4.3-0.6 7.6-1.7 11-1.8 13.9-0.2 27.9-1 41.8 0.2 16.5 1.4 33.3 1.8 49.1 8.1 6.3 2.5 12.9 4.1 19.3 6.2 0.8 0.3 1.5 1.2 2.3 1.9-1.2 0.5-2.5 1.9-3.3 1.6-9.1-3-19-0.7-28-4.6-4.1-1.8-9-2-13.5-2.5-23-2.6-46.1-1.7-69.1-1.9-10 0-19.7 2.6-29.4 3.3-11.9 0.9-23.3 4.2-34.9 6.1-11.3 1.9-22.4 5.4-32.9 10.1-5.1 2.3-10.3 4.3-15.5 6.5-0.6 0.2-1.3 0.4-1.9 0.7 0-0.9-0.3-2.1 0.1-2.4 2.4-2.2 4.7-4.5 7.5-6 14-8 28.7-14 44.9-16.6 13.4-2.2 26.5-6.1 39.8-8.8 3.8-0.8 7.8-0.1 12.7-0.1zm-94.9 5c14.5-5 28.8-8.6 43.5-10.6 12.4-1.7 24.6-4.7 37-7.1 1.4-0.3 3 0 4.5 0 11.9-0.6 23.9-0.2 35.5-2.2 9.2-1.6 18.3-1.4 27.4-1.4 17.2 0.1 33.7 4.3 50.3 7.8 9.2 2 18 4.8 26 9.8 1.6 1 3.6 1.8 4.9 3.2 2 2.3 3.6 5 5.3 7.5-3.6 2.4-5.9-0.9-8.6-2-5.3-1.9-10.3-4.4-15.5-6.3-4.3-1.6-8.7-2.7-13.1-3.7-6.6-1.5-13.4-2.8-20.1-4-6.5-1.2-13-2.8-19.5-3.1-10.9-0.6-21.8-0.4-32.7-0.1-5.8 0.1-11.6 1.1-17.4 1.7-5.5 0.6-10.9-0.4-16.6 1.6-5.6 1.9-12.1 1.3-18.2 2.1-12.5 1.5-24.7 4.4-37 6.9-10.1 2-19.8 4.5-29.7 7.4-6.9 2-13 3.9-14.9 12-0.2 1-3.1 1.5-4.8 2.2-0.6-1.5-1.9-3-1.7-4.4 1.2-8.8 5.7-15 15.4-17.3z"/>
	</g>
</svg>