<svg version="1.2" xmlns="http://www.w3.org/2000/svg" viewBox="0 0 905 896" width="905" height="896">
	<title>-e-</title>
	<style>
		.s0 { fill: #f05a22 } 
		.s1 { fill: #3e469c } 
		.s2 { fill: #1d1e1b } 
	</style>
	<g id="-e-">
		<path fill-rule="evenodd" class="s0" d="m69.3 771.7c5.3-5.4 9.4-9.5 11.1-11.2 7.2-6.8 13.1-17.3 19-9 5.8 8.2 11.2 25.3 21.2 34.3 9.9 8.9 29.6 17.2 44.7 15.5 15.2-1.7 76-20.2 88.6-27.7 12.6-7.6 50.9-23.8 63.1-31.1 12.1-7.4 22.6-8.9 21.2-1.3-1.4 7.5 0.1 16.2 0.5 34.7 0.4 18.4 1.9 60.4 2.4 77.8 0.1 5.4 0.1 12.3-0.1 19.2q-1.2-0.1-1.7 0c-5.1 0.7-38.4 3.3-85.8 3.6-47.3 0.2-210.6 1.1-210.6 1.1 0 0-0.9-1.9 0-12.8 0.8-11 8.2-42.9 14.2-61.4 5.9-18.6 12.2-31.5 12.2-31.5zm106.3-90.3c0 0 0.5-9 5.2-19.8 4.7-10.9 8.5-7.8 16.2-22 7.8-14.2 7-23.4 15.5-39.4 8.6-16.1 10.2-24.5 10.1-37.2-0.1-12.8-7.2-26.8-11.5-45-4.2-18.2-3.7-20.4-6.6-31.8-2.8-11.3-3.9-13.9 9.1-15.7 13-1.8 18.6 1 39.7 2.9 21.1 2 34.3 4.4 48.3 1.8 14-2.7 24.8-6.5 25.9 4.6 1.2 11 4.2 15.1 4.8 23 0.6 7.8-1.1 17.7 4.7 12.2 5.7-5.4 7.4-3.1 9.7 7.7 2.3 10.7 6 17.9 9.9 28.8 4 10.9 3.9 17.4 0.9 36.4-3.1 19-6.4 33.7-8.4 46-2 12.4-15.4 18.5-25 21.9-9.6 3.4-65.4 20.6-84.9 24.3-19.6 3.7-32.2 9.8-47.4 10.7-15.1 0.8-16.2-9.4-16.2-9.4z"/>
		<path fill-rule="evenodd" class="s1" d="m112.8 134.6c0 0-2.8 13.4 0.4 21.7 3.1 8.4 9 18.4 16.3 18.8 7.2 0.4 74.7-11.4 107.1-24 32.3-12.7 70.9-25.2 79.9-28.3 8.9-3.1 12.4-4.2 10.6-10.8-1.8-6.6-6.6-15.4-10.6-18.8-3.9-3.3-8.3 0.5-19.8 3.6-11.5 3.2-39.4 14.8-53 17.4-13.6 2.6-13 3.7-30 6.1-17.1 2.3-19.9 2.4 10-10 29.9-12.4 59.3-23.9 66.2-28.7 6.9-4.8 6-5.5-0.7-15-6.7-9.5-21-31.4-32.5-38.8-11.5-7.4-17.8-2.7-27.8-7.4-10-4.7-13.6-15.6-31.6-8.5-18 7-39.9 10.8-48.6 19.3-8.8 8.4-19 33-23.2 51.2-4.2 18.2-7.7 43-7.7 43z"/>
		<path fill-rule="evenodd" class="s2" d="m650.4 795c6.8 1.9 12.7 3.7 18.6 5.5 13 3.8 25.5 8.8 38.9 11.4 11.2 2.1 22.1 5.3 33.4 6.9 10.1 1.5 20 4.3 29.7 7.2 17.5 5.2 34.9 10.7 52.3 16.3 6 2 11.9 4.7 17.8 7.3 0.8 0.3 1.2 1.5 1.8 2.4-1 0.3-2.1 1.1-2.9 0.9-24.6-7.1-49.7-12.5-73.9-20.9-7.5-2.6-15.8-2.8-23.7-4.3-9.2-1.7-18.5-3.4-27.6-5.6-7.9-1.9-15.5-5.2-23.5-6.8-9.7-2-18.8-5.9-28.3-8.5-17.2-4.6-34.4-9.1-51.6-13.6-11.4-3-22.8-6.8-34.4-8.6-14.4-2.3-28.4-6-42.4-9.5-12.9-3.3-25.8-6.6-38.6-10.1-13.8-3.7-27.6-7.8-41.4-11.7-1.1-0.3-2.4 0.2-3.6 0-4.5-0.8-6.5 0.7-5.9 5.6 0.9 7 1.2 14.1 2 21.1 0.4 3.4-1.5 6.6-0.3 10.3 1.1 3.6 0.2 7.8 0.2 11.8 0.1 6.4 1.6 7.5 7.8 9.4 13.9 4.3 27.8 9 41.5 13.8 37.2 13.2 73.9 28 111.8 39.1 11.7 3.3 23.7 5.6 35.4 8.8 13.3 3.7 26.4 7.6 39.6 11.8 7.1 2.3 14.1 5.3 21.1 8.2 1 0.4 1.6 1.7 2.5 2.5-1.3 0-2.6 0.3-3.7 0-16.6-4.4-33.1-9.3-49.8-13.4-18.4-4.6-37.1-8.3-55.5-12.9-6.7-1.7-13.1-4.9-19.7-7.1-16.5-5.6-33-10.8-49.5-16.4-21.7-7.4-43.4-15.1-65.1-22.6-4.7-1.7-9.6-3.1-14.4-4.6-9.8-3.2-11-4.3-10.9-13.6 0-4.1-1.6-5.1-5.1-4.6-8.6 1.4-17.1 2.7-25.6 4.2q-8 1.4-15.9 3.1c-10.8 2.3-21.6 4.8-32.5 7-2.6 0.6-5.4 0.3-8.1 0.1-0.7 0-1.9-1.4-1.8-2.1 0.1-1.1 0.9-2.9 1.7-3.1 10.8-3.2 21.7-6.3 32.5-9.2 11.8-3.1 23.6-6.1 35.4-8.8 4.8-1.1 9.7-1.5 14.6-2.1 3.2-0.3 4.5-1.9 4.7-5.1 0.5-9.1 1.3-18.3 1.7-27.4 0.1-2.8-1.3-5.5-1.7-8.3-0.3-2.4-0.6-5.1 0.1-7.2 0.8-2.4 2.8-4.3 4.3-6.4 0.9 2 2.4 3.9 2.7 6 0.3 2.2 0.7 2.7 3 3.1 15 2.8 29.6 7.3 44.2 11.5 6.8 2 13.9 3.1 20.8 4.8 14.8 3.7 29.5 7.6 44.3 11.3 9.3 2.4 18.7 4.7 28 6.8 18.5 4.1 37 8 54.9 14.4 2.9 1 6.1 1.3 10.1 1.9zm-214.3 94.5c-4.1-0.9-7.5-1.6-10.7-2.6-16.3-5.2-32.7-10.1-48.8-15.7-7.6-2.6-14.8-6.6-22.2-9.9-2.3-1-4.6-2.1-7-2.6-2.1-0.5-4-0.5-4 2.9 0 4.3-1 8.6-1.8 12.9-0.1 0.8-1.1 1.5-1.8 2.3-0.5-0.5-1.5-0.9-1.7-1.6-1.3-4.9-3.3-9.8-3.5-14.8-0.5-13.2-1.3-26.7 0.2-39.8 1.3-12.2 0.8-24.3 1.6-36.5 0.7-11 2.1-22 3.6-32.9 0.7-5 2.1-10 3.6-14.8 0.7-2.1 2.3-3.9 3.6-5.7 0.4-0.6 2-1.1 2.2-0.9 0.7 0.7 1.4 1.8 1.3 2.7-0.4 5.8-0.1 12-2 17.3-1.6 4.5-1.1 8.7-1.5 13-2.4 25.7-1.8 51.4-1.8 77.2-0.1 8.3 1.7 10.3 9.5 13.2 12.1 4.4 24 9.2 36 13.8 8.6 3.2 17.3 6.5 25.9 9.8q12.1 4.6 24.2 9.4c0.5 0.2 1 0.7 1.2 1.3 0.5 0.9 0.7 2 1 3-0.8-0.3-1.7-0.9-2.5-1-1.2-0.2-2.4 0-4.6 0zm-383.5-94.9c0.8-7.2 3.6-13.3 7.6-18.3 6.1-7.6 13-14.7 19.8-21.7 1.5-1.6 3.9-2.3 6-3 0.9-0.3 2.2 0.4 3.3 0.7-0.4 1-0.6 2.2-1.2 3.1-4.2 5.5-8.3 11.1-12.8 16.4-6.1 7.1-9.2 15.4-11.5 24.4-2.5 9.7-6.2 19.2-8.9 28.9-2.2 7.9-3.7 16-5.5 24.1-0.8 3.6-0.8 7.5-2.5 10.7-2.6 5.2-3.1 10.5-3 16 0 0.8-0.4 1.7-0.6 2.5-0.9-0.8-1.9-1.3-2.5-2.2-0.5-0.7-0.5-1.7-0.5-2.6 0-9.3-0.9-18.8 0.2-28.1 1.8-14 4.3-28.1 8.9-41.6 1-2.9 1.8-5.9 3.2-9.3zm730.3 22.2c-8.3-2.4-15.7-5.4-23.3-7.1-12.4-2.9-24.8-5.3-36.7-10-8.8-3.5-18.2-5.6-27.4-8.3-9.5-2.7-19-5.3-28.5-7.9-10.3-2.8-20.6-5.7-31-8.4-15.2-4.1-30.5-8.2-45.8-12-13.7-3.5-27.6-6.4-41.3-9.8-12.1-3-24-6.5-36-9.5-14.6-3.6-29.2-6.9-43.8-10.5-3.8-1-7.4-3.2-11.2-3.4-5.4-0.3-10.9-0.2-16.5 1.3-10.8 2.9-22.1 3.6-33.1 5.8-10.5 2.1-20.9 4.8-31.4 7.4-5.9 1.6-11.8 3.7-17.8 5.1-1.4 0.4-3.1-0.7-4.7-1.1 1-1.4 1.6-3.5 2.9-4.1 6.5-2.7 13-5.3 19.7-7.3 17.1-5 34.1-10.3 51.8-13 10.7-1.7 21.4-4 32.2-5.5 12.5-1.7 24.9-3.9 37.6-3.2 8 0.5 16.1 1.6 23.8 3.7 10.5 2.8 20.4 4 31.5 2.1 9.1-1.6 19.4-2.7 28.3 3.1 1 0.7 1.9 1.5 2.8 2.3-1.2 0.5-2.5 1.4-3.7 1.3-3.1-0.4-6.2-1.8-9.2-1.6-6.4 0.2-12.8 0.8-19.1 2-8.3 1.7-12.7 2-21.4-0.1-3.9-1-7.9-1.8-11.8-2-14.3-0.8-28.6-1.3-42.8-1.8-0.9 0-1.8 0.9-2.7 1.4 0.9 0.7 1.8 1.9 2.9 2.1 10.3 2.1 20.8 3.7 31.1 6q22 4.9 43.7 10.5c17.2 4.4 34.3 9.2 51.5 13.8 10.3 2.7 20.8 5.1 31.2 7.9 26 7.2 52.1 14.1 78 22 12.3 3.7 24.3 8.5 37.1 11.3 15.9 3.5 31.7 7.9 47.5 12.1 8.1 2.2 16.1 4.9 24.2 7.2 4.6 1.4 9.3 2.4 13.9 3.8 1.3 0.3 2.4 1.5 3.6 2.3-1.2 0.4-2.4 1.2-3.6 1.2-13.5-0.8-27-2-39.9-6.4-3.8-1.3-7.8-1.8-12.6-2.7zm-740.8-192.4c-1.2-5.3-3-9.6-3.4-14-0.4-4.6-2.2-5.9-6.6-6.2-2.2-0.2-5.1-2.4-6.1-4.4-4.6-9.3-9.6-18.6-12.7-28.4-3.4-11-5.1-22.7-7.5-34.1-1.7-8.1-4-16.1-4.9-24.2-0.9-9-0.4-18.1-0.4-27.1 0-0.3 3-1 3.1-0.7 1 1.7 2.2 3.6 2.1 5.4-1 19.1 5.7 36.9 9.7 55.1 1.9 8.8 4 17.6 6.9 26.2 3 8.7 7.1 17 10.8 25.4 0.4 0.8 1.7 1.1 2.6 1.6 0.3-0.8 1.2-1.9 0.9-2.3-4.4-7 1.1-11.5 4.7-15.6 10.5-12.3 24.3-19.7 39.9-24 11.2-3 22.4-5.3 34.1-5.5 8.5 0 17-1.1 25.5-1.7 4.8-0.3 9 1 13.1 3.6 4.6 2.8 4.7 2.4 1.6 7.6-0.7 1.2-1 2.9-0.7 4.2 2 11.3 4.1 22.5 6.4 33.7 1.9 9.7 4.1 19.5 6.3 29.2 1.1 4.9 2.5 9.8 3.5 14.8 1.4 7 2.7 14.1 3.7 21.2 1 7.8 1.7 15.7 2.5 23.5 0.1 0.6 0.2 1.3 0.4 1.9-0.9-0.1-2.2 0-2.4-0.4-2.1-4-4.8-7.8-5.8-12.1-2.8-11.9-3.9-24.3-7.7-35.9-4.8-14.9-5.7-30.6-10.2-45.6-3.1-10.1-3.2-21.3-3.9-32-0.2-4.2-1.7-4.6-5.2-4.7-13.8 0-27.4 1.3-41.2 3.4-13.1 2-25.4 5.3-37.2 11.2-7.7 3.9-13.9 9.4-20 15.4-3.1 3-2.2 6.5-1.1 9.8 4.5 13.3 9 26.5 13.9 39.6 1.7 4.8 4.6 9 6.5 13.7 9 21.7 18.1 43.3 26.2 65.4 4.6 12.5 10.2 24.9 16.4 36.8 4.7 9 10.4 17.6 16.7 25.7 6.3 8.2 16.2 10.3 26 11.5 15.3 1.8 30.6-1.1 44.7-5.9 14-4.7 28.4-8.5 41.7-15.6 15.5-8.3 31.9-14.9 47.9-22.3q15.7-7.2 31.1-14.7c23.2-11.3 46.2-23 69.5-33.9 8.7-4.1 17.7-6.9 27.8-7.9 13.6-1.5 27.4-4.2 40.6-8.9 4-1.4 8.1-2.6 12.3-3.2 6-1 12.1-1.4 18.3-1.9 0.8 0 1.8 0.9 2.7 1.4-0.7 0.7-1.2 2-2 2.1-13.3 2.8-26.4 6-39.1 10.8-7.4 2.8-15.3 4.9-23.1 5.4-18.1 1.3-33.7 9-49.4 16.8-13.9 6.9-27.4 14.3-41.3 21-6.5 3.2-13.7 4.9-20.3 8-5.1 2.3-9.4 6.3-14.5 8.7-12.1 5.8-24.4 11.3-36.8 16.5-16.4 7-32.2 15.8-49.4 20.9-13.9 4.1-27.6 8.2-42.1 10.5-14.8 2.4-28.3 1.1-40.6-6.2-7.3-4.5-13.3-11.6-19-18.3-12.5-14.8-18-33.6-26.5-50.7-1-1.9-0.8-4.5-1.5-6.6-0.2-0.8-1.6-1.2-2.5-1.8-0.4 1.1-1.6 2.4-1.3 3.2 2.9 8-2.8 15.4-1.5 23.2 0.1 0.4-1 0.8-1.2 1.3-1.2 2.6 2.3 6.8-2.4 7.8-0.4 0.1-3-5.2-3-8 0.1-10.1 0.8-20.2 1.3-30.3 0.4-9 1.4-18-2.4-26.8-7.5-18-14.6-36.3-21.9-54.5-0.8-2.1-1.7-4.2-2.6-7.1zm590.1 49c2 3.9 5 3.4 8 3.7 3.9 0.4 7.9 1.3 11.7 2.5 0.9 0.3 1.4 2.3 2.1 3.5-1 0.4-2 0.7-2.9 1.2-5.6 3-11.6 1.5-17.4 1.8-2.7 0.1-5.4 0-8.1 0.4-0.9 0.1-1.6 1.6-2.3 2.4q1.2 0.4 2.4 0.8c8.9 2.9 10.1 4.5 10.2 13.5 0 2.1 0 4.3 0 6.4-0.1 6.4-5.1 9.6-11 6.1-4.1-2.3-7.2-6.4-10.8-9.7-1.4-1.2-2.9-2.5-4.5-3.5-0.5-0.3-1.6 0.3-2.4 0.5 0.4 0.6 0.6 1.4 1.2 1.9 5.7 5.7 10.7 12.6 17.3 16.9 8.5 5.5 13.4 12.8 15.3 21.8 1.6 7.1 6 8.8 11.6 9.6 6.6 1 13.4 1.6 20.1 1.8 3 0.1 6.1-1.4 9.2-1.6 1.5 0 3 1.5 4.5 2.3-1.1 0.6-2.5 1-3 1.9-2.1 3.7-5.7 2.5-8.7 3.3-1 0.3-1.6 1.6-2.4 2.5q1.2 0.4 2.4 0.8c2.9 1 5.7 2.5 8.7 2.9 8.4 1.2 15.2 5.7 22.3 9.8 1 0.6 1.9 1.5 2.8 2.3-1.3 0.4-2.7 1.5-3.7 1.2-10-2.8-19.9-6.2-29.9-8.9-10.1-2.7-20.5-4.5-30.5-7.4-9.7-2.9-19-6.7-28.6-9.9-3.2-1.1-6.5-1.7-9.8-2.7-0.9-0.2-1.7-0.8-2.6-1.2 0.9-0.8 1.7-1.9 2.7-2.4 0.7-0.4 1.8-0.2 2.7 0 8 1.7 16.1 3.5 24.1 5.1 0.8 0.2 1.7-0.1 2.5-0.2-0.4-0.6-0.9-1.2-1-1.9-0.6-4.7-4.8-5.2-8-6.6-3.9-1.7-8-2.6-11.8-4.3-1.1-0.5-1.6-2.3-2.4-3.5 1.3-0.5 2.5-1.4 3.7-1.3 4 0.4 8.2 0.6 11.8 2.1 2.4 1 3.5 1.5 2.5-1.2-1.2-3.4-1.2-7.7-7-8.5-10.3-1.4-16.2-8.5-18.1-18.4-0.7-3.8-1.5-4-4.2-1.8-1.3 1-3.3 1.4-4.3 2.6-1.2 1.5-2.6 3.7-2.3 5.3 0.3 1.3 2.6 2.7 4.3 3.4 2 0.8 4.2 1 6.4 1.5-1.7 1.9-3.2 4-5 5.8-0.8 0.8-2.2 0.9-2.9 1.7-0.7 0.7-0.7 2-1.1 3 1.1 0.3 2.4 1 3.3 0.7 3.2-1 6.3-2.5 9.5-3.5 0.9-0.3 2.1 0.4 3.3 0.7-0.4 1-0.4 2.3-1 3-3.6 4-7.4 7.3-13.4 7.3-5.4 0-8.1-2.5-9.6-7.1-0.3-0.8-0.3-1.9 0.1-2.5 2.9-4.4 2.6-8.4-0.5-12.5-0.8-1.1-1.2-2.9-0.8-4.2 1.3-4.1 1.5-6.9-4.4-6.7-3.2 0.1-6.8-0.9-9.8-2.3-5.3-2.5-9.6-1.1-13.6 2.1-6.9 5.4-14.8 6.3-23 5.7-1.3-0.1-2.4-1.6-3.5-2.4 0.9-1 1.7-2.4 2.9-2.9 2.3-0.9 5-1 7.3-1.9 4.4-1.9 9.3-3.3 12.7-6.3 3.3-2.8 6.5-3.1 9.9-2.7 7.4 1 14.7 3.3 22.1 3.3 6.8 0 13.5-2.1 20.2-3.5 2.8-0.5 5.4-1.6 8-2.5 0.8-0.3 1.8-1.3 1.8-1.9 0-0.7-1-1.6-1.8-1.9-1.3-0.5-2.8-0.9-4.2-0.8-9.7 0.7-19.2-0.9-28.4-3.7-8.5-2.7-16.9-6-25.3-9.1-0.6-0.2-1-0.8-1.5-1.2 0.5-0.2 1-0.5 1.6-0.5 4.3-0.7 8.5-0.4 12.6 0.9 3.7 1.2 7.4 2.6 11.1 3.8 5.5 1.8 7.8 0.9 10.5-3.7 0.6-1 1.5-1.9 2.3-2.9 1.1 1 2.5 1.7 3.2 2.9 0.5 0.9-0.2 2.5 0.2 3.5 0.4 1.1 1.4 2.5 2.3 2.6 6.4 0.9 12.9-1.2 19.4 1.6 1.5 0.7 4.7-2.6 7.1-4.1-1.2-1.8-1.9-4.4-3.6-5.5-6.9-4.6-15.1-6-22.9-8.3-5.7-1.6-11.2-3.5-16.8-5.4-0.8-0.3-1.3-1.5-1.9-2.2 0.9-0.5 1.8-1.4 2.7-1.3 5.8 0.4 11.7 0.9 17.4 1.8 5.3 0.9 10.5 2.6 15.8 3.5 7.3 1.2 11.9 5.5 14.9 12.8zm214.7-50.4c3.4-1.5 6.2-2.9 9.2-3.5 2.5-0.6 5.2-0.3 7.9-0.3-1.5 1.9-2.8 4-4.5 5.7-3 3.1-5.8 6.5-10.8 6.9-1.5 0.1-3.4 1.5-4.1 2.8-2.2 4.4-6.7 5.7-9.9 8.5-6.6 5.9-11.9 2.2-17.5-0.1-4.4-1.8-8.4-4.6-12.6-6.9-0.3-0.1-1.5 0.8-1.6 1.3-0.2 1.5 0 3-0.1 4.5-0.4 5.7-4.6 12.7-9.7 12.8-7.1 0.1-12.4 4.2-18.6 6-9.6 2.9-19.1 6.9-28.9 8.9-11.5 2.3-20.1 9.9-30.4 14.3-0.8 0.4-1.3 1.8-2 1.8-11.3 0.5-10.3 8.4-10.4 16.3-0.2 6.3-1.4 12.6-2.8 18.7-1.6 7-0.6 9.5 6.2 10.8 7.3 1.4 14.7 2.4 22.1 3.7 16.3 2.8 32.8 4.2 48.9 8.7 14.1 3.9 29.1 4.1 43.2 7.9 15.2 4 31.1 4.5 46.2 8.9 8 2.3 15.7 5.9 23.5 8.9 0.5 0.2 1 0.5 1.5 0.8-0.6 0.3-1.3 1.1-1.9 1-5.2-0.5-10.5-0.9-15.6-1.8-5-0.9-9.9-2.7-14.9-3.5-6.3-1-12.8-1.1-19.2-1.9-8.5-1.2-17.1-2.4-25.6-3.9-8.4-1.5-16.7-3.4-25.1-5.2-10.8-2.3-21.6-4.8-32.5-6.9-5.4-1-11-1.3-16.4-2.2-7-1.2-14-2.7-20.9-4.3-6.3-1.4-12.6-3.3-18.9-4.7-2.6-0.5-5-0.4-5.9 3.4-0.6 2.6-2.9 4.8-4.5 7.1-0.4 0.6-1.1 0.9-1.7 1.4-0.4-0.9-1.4-1.8-1.2-2.6 2.1-10.3 4.8-20.5 6.4-30.9 0.9-6.2-0.4-12.7 0.4-19 0.3-2.2 1.9-3.4-1.6-3-4.3 0.4-8.5-0.1-12.9 1.5-7.1 2.6-15.5-2.7-20.3-10.6-4-6.7-6.3-13.5-5.5-21.4 0.5-4.8 0.6-9.3 6-11.4 0.7-0.3 0.9-1.7 1.3-2.7-1.1-0.3-2.3-1-3.2-0.7-3 0.9-6.1 1.8-8.5 3.6-3.6 2.7-8 3.2-10.2 0.1-1.8-2.5-1.5-7.3-0.8-10.7 0.5-2.6 3.2-4.7 4.9-7 1.1-1.4 3-2.7 3.2-4.1 0.3-2.9-0.2-5.9-0.4-8.9-3.7 1-7.5 1.8-11 3.2-1.4 0.6-1.9 2.8-3 4.1-6.2 7.6-7.7 8.9-15.4 5.4-2.5-1.2-6-0.8-8.9-0.3-7.6 1.5-7.9 2.3-6 10.5 0.6 2.6-3.6 7.4-7 7.5-6.3 0.4-12.2-0.6-16.7-5.7-1-1.1-2.5-1.8-3.8-2.6 0 1.4-0.5 3.1 0.2 4.2 1.8 3.1 2.1 5.8-0.4 8.7-2.9 3.3-5.4 7-8.6 9.9-1 0.8-4.9 0.3-5.6-0.8-1.1-1.6-0.7-3.4 2.4-5 5.8-3.1 6.9-8.5 4.4-14.6-2.5-5.9-6.3-11.1-11.2-15.3-2.9-2.5-7.8-6.6-5.6-9.1 2.7-3.1 6.2 2.6 9.4 4.2 4.8 2.4 9 6.1 13.3 9.4 3.5 2.7 6.7 5.6 10.1 8.2 1.1 0.9 2.4 1.7 3.8 1.9 2.4 0.4 4.9 0.4 7.3 0.5-0.5-1.8-0.7-3.9-1.7-5.5-1.6-2.7-3.6-5.2-5.7-7.6-2.6-2.9-5.9-5.3-8.2-8.4-9.3-12.1-22.2-16.9-36.5-19.5-2.5-0.5-4.9-1.4-7.2-2.3-12.9-5.1-24.6-4.1-37.1 3-12 6.8-25.6 11.3-38.9 15.4-14.5 4.5-29.1 9-43.8 12.6-22.2 5.5-44.1 11.9-65.9 18.6-20.8 6.5-41.2 14.4-62.1 21-11 3.5-22.6 5.4-33.9 8-13.3 3-26.5 6.1-39.8 9-4.5 1-9.2 1.3-13.8 1.8-0.9 0.1-1.9-0.8-2.9-1.2 0.6-0.8 1.1-2 1.9-2.3 7-2.7 14-5.7 21.3-7.7 14.2-3.8 28.6-6.9 42.8-10.6 10.4-2.7 20.5-6 30.8-9 14.6-4.3 29-9.3 43.8-12.4 9-1.9 11.8-7.7 13.7-14.9 4.2-15.8 8.4-31.6 12.2-47.6 2.7-11.1 4-22.4 0.2-33.5-3.7-10.6-7.6-21.1-11.6-31.5-1.1-2.9-2.5-5.8-4.5-8.1-3.4-3.6-3.8-7.7-3.5-12.2 0.1-1.1 0.6-2.1 0.9-3.2 0.7 0.6 1.4 1.2 1.9 1.9 3.5 4.7 7.2 9.1 10.3 14 8.1 12.6 13.4 26.6 17 41 2.1 8.7 2.1 18.8 0.2 27.7-3.5 16.4-7.8 32.8-14 48.6q-0.6 1.6-1.1 3.2c-0.8 2.8-4.4 5.4-1.6 8.4 0.7 0.7 4.3-1.9 6.6-2.5 6.4-1.6 12.7-3.1 19.1-4.3 16.8-2.9 32.8-8.2 48.6-14.3 14.3-5.6 28.7-10.9 43-16.6 9.1-3.7 18.2-7.4 26.9-11.9 4.1-2.1 8.2-3.1 12.5-2.5 4.6 0.5 7.5-1.5 9.4-5.2 4.7-9 13.4-12.4 22.2-14.7 8-2.1 16.5-2.4 24.7-3.9 14.3-2.6 17.6-6.3 20.3-20.2 0.6-3 1.2-6.1 1.9-9.2 0.1-0.6 1.2-1.3 1.8-1.3 0.6 0 1.6 0.8 1.7 1.4 3.9 16.5-6.2 31.4-23.2 34.8-8.3 1.7-16.5 4.2-25 5.3-5.9 0.7-9.6 4.7-14.2 7.4-2.5 1.5-4.3 4.2-6.5 6.3 2.4 0.6 4.9 1.1 7.2 2 11 4.2 21.8 8.7 32.9 12.6 3.1 1.1 7 1 10.3 0.2 7.7-1.8 15.3-3.9 22.6-6.7 3.4-1.3 6-4.5 9.1-6.6 1.5-1 4.9-1.6 4.8-2.1-1-8.1 2-7.5 7.3-4 1.3 0.8 3.6 0.1 5.4 0.1 20.9 0 41.7 0.2 62.6-0.1 7.9 0 15.9-0.8 23.8-1.8 2.6-0.4 5-2.4 7.5-3.7 1.2-0.5 2.5-0.9 3.7-1.4 0.2 1.4 0.8 2.9 0.6 4.3-0.4 4.1-6.9 9.9-12.9 9.7-6.8-0.2-10.7 2.1-14 7.9-2.9 5-8.4 7.1-14.3 6.9-3.9-0.1-7.2 0.2-10.6 3.3-2.6 2.4-7.2 3.7-10.9 3.7-5 0.1-6.9 1.2-6.3 6.4 0.9 7.8-1.9 14.3-8.1 19.3-1.2 1-2.4 2-3.1 3.3-0.6 1-0.6 2.4-0.8 3.7 1-0.3 2.1-0.3 3.1-0.7 2.3-1 4.4-2.5 6.8-3.1 2-0.5 4.1 0 6.2-0.1 2.6-0.1 4.7 2.5 7.5 0.9 2.6-1.7 5.4-3.1 8.1-4.6-2.3-1.9-4.5-4-6.9-5.7-5.4-3.7-3.2-9.1-3.4-14 0-0.2 3.9-1.4 4.7-0.7 1.3 1.1 2 3.4 2.3 5.3 0.9 5.7 5.1 9 8.9 12.6 0.4 0.4 1.6 0 2.5-0.1 2.3-0.1 4.7-0.6 7-0.4 15.8 1.7 30.4-2.8 44.9-7.9 7.6-2.8 15.4-5.3 22.8-8.6 4.3-2 7.8-5.7 12.1-8 10.2-5.7 21.3-2.1 27.1 8.2q0.6 1.2 1.4 2.2c0.4 0.5 0.8 0.8 1.3 1.3 0.3-0.7 0.9-1.4 0.9-2.2 0.4-3.8-3.3-9.6-7.2-11.3-3.3-1.6-6.6-3.2-9.9-4.5-10.4-4.2-12.2-6.5-11.9-16.6 0.2-5.1 0.5-10-1.6-15.1-1.6-3.5-1.5-7.8-2-11.8-0.6-4.9 1.1-10-1.7-14.8-0.9-1.6-0.5-4.3 0-6.2 0.3-1.2 2.1-1.9 3.3-2.8 0.7 1 1.7 2 1.9 3.1 1.4 6.1 2.3 12.3 3.8 18.4 1.6 6.6 2.8 13.5 5.8 19.4 2.7 5.2 8.3 7.5 14.5 8.3 16.7 2.1 33.4 1.7 50.1 1.6 4.9-0.1 9.8-1.3 14.7-1.7 1.3-0.1 2.6 0.8 3.8 1.2-1.1 1-2.1 2.5-3.4 3-6.6 2.5-13.1 5.2-20.7 5-6.7-0.2-13.4 0.3-20.2 1.2-12.6 1.7-25.4 0-37.3-5.7-0.9-0.5-2-0.6-3.1-0.9 0.5 1.5 0.4 3.6 1.4 4.3 2.4 1.8 5.2 3.9 8 4.4 7.4 1.2 14.3 4.6 22.1 3.9 3.6-0.3 7.4 1.2 11.1 1.7 1.7 0.2 3.7 0.5 5.4-0.1 8.9-2.8 17.7-2.5 26.7 0 2.5 0.7 5.4 0 8.1 0.2 0.7 0 1.3 0.8 1.9 1.3-0.6 0.7-1.2 2.1-1.9 2.2-6.7 0.7-13.5 0.8-20.1 2-11.8 2.1-23.7 1.5-35.6 1.7-0.7 0-1.5 0.6-2.3 0.9 0.6 0.6 1.2 1.3 1.9 1.9 5.9 4.8 12.2 8.7 20.3 8.1 6.5-0.5 13.1-0.6 20-1.4zm-134.8 128.5c6.9 3.6 14.6 3.6 19.8 9 0.9 1 2.4 1.5 3.4 2.5 0.4 0.4 0.1 1.5 0.2 2.3-0.7-0.2-1.3-0.5-1.9-0.5-10.4-1.3-20.3-4.6-30.2-7.9-2.9-0.9-6.1-1.2-8.9-2.4-1.1-0.4-1.6-2.2-2.3-3.4 1.2-0.5 2.4-1.5 3.5-1.4 5.2 0.5 10.4 1.2 16.4 1.8zm-92.6-51.8c1.3 1.9 2.4 3.8 3.8 5.6 1.3 1.6 2.9 2.9 4.4 4.4 0.3-1.7 0.7-3.3 0.9-5 0.3-2.9-0.5-5.3-3.7-5.8-1.5-0.3-3-0.1-5.4 0.8zm-92.1-15c-4.8 2.8-8.8 4.8-14.1 1.7-4.9-2.8-10.4-6.3-16.6-2.2-0.9 0.5-2.8-0.4-4.2-0.7 0.8-0.9 1.6-1.7 2.4-2.6 4.4-4.5 9-6.9 15.9-4.1 5.1 2.1 10.7 3.9 16.7 2.2 1.2-0.3 3.1 1.8 4.7 2.7-1.5 0.9-2.9 1.7-4.8 3zm216.5-49.4c-4.5 1.5-9.2 2.7-13.5 4.5-14 5.8-28.5 8-43.4 5.5-2.7-0.5-2.5 1.4-3.9 1.7 0.5 0.9 0.7 2 1.4 2.8 1.7 2 4.6 3.7 5.3 6 1.8 6.3 5.7 12.3 2.5 19.4-1.4 3-1.4 6.7-1.9 10.1-0.1 0.7 0.4 1.6 0.6 2.4q0.7-0.4 1.3-0.8c6.3-3.9 12.4-7.9 18.8-11.5 8.1-4.5 16.1-9.6 24.7-12.7 11.1-3.9 22.8-6.2 34.3-9.3 5.6-1.5 11.1-3.8 12.7-10.1 0.8-3.4 0.1-7.2 0.2-10.8 0-0.8 0.4-1.7 0.6-2.5 0.7 0.5 1.4 0.9 1.9 1.5 3.5 3.8 4.7 8.5 4.7 13.5 0 0.9 0.7 1.8 1.1 2.8 0.6-0.7 1.4-1.2 1.9-2 4.2-5.6 1-11.8 0-17.1-2.1-10.4-14.5-13.5-21.9-6.2-3.9 3.7-8.4 5.8-13.3 7.4-4.2 1.4-8.2 3.5-14.1 5.4zm-80.8 39q2.6 4.4 5.1 8.7c2.8 4.9 12.2 4.7 14.9-2.2 3-7.7 2.1-15-1.8-22.1-3.1-5.4-11.4-7.2-15.5-3.4-4.7 4.2-5.6 10.5-2.7 19zm-126.6-34c-0.6-3.9 0.8-4 3.2-2.2 7.5 5.6 12.6 12.7 14.5 22 0.8 4.3 1.8 8.1-1.6 12.4-3.9 5-10.9 9.5-15.2 6-4-3.1-5.9-8.7-8.5-13.4-0.1-0.2 1.1-1.4 1.8-1.8 0.5-0.2 1.4 0 1.9 0.4 1.1 0.9 2.3 2 3.2 3.2 0.4 0.6 0.2 1.7 0.7 2.4 2 3 5.4 3.2 7.9 1.8 2.5-1.5 5.4-3.7 4.1-8-2.6-8.1-7-15.3-12-22.8zm-321.9-106.7c1.2 7.3 3.1 13.7 3.5 20.2 1.2 15.5-0.3 30.8-7.1 45-4.4 9.1-8.6 18.3-13.5 27.1-3.5 6.4-7.9 12.4-11.9 18.6-0.3 0.5-0.5 1-0.8 1.5-0.3-0.7-0.9-1.3-1-2-1-7.1 2.3-13.4 4.8-19.7 1.7-4.4 4.6-8.3 6.9-12.6 5.5-10.4 10.7-21 12-33.1 0.6-5.9 3-11.6 3.3-17.5 0.3-6.1-0.7-12.2-1.7-18.3-1.5-8.6-3.7-17.2-5.3-25.8-1.7-9-3.2-18.1-4.6-27.1-0.2-1 1-2.1 1.5-3.2 1 0.5 2.3 0.8 3 1.6 0.8 1.1 1.8 2.5 1.8 3.7-0.5 12.1 6.3 22.4 7.9 34 0.3 2.2 0.8 4.4 1.2 7.6zm607.4 103.5c4.1 2.9 7.8 0.3 11.6-0.9 0.8-0.2 1.3-1.2 2-1.8-0.8-0.3-1.6-1-2.3-0.9-7.1 0.6-13.6-1.3-19.7-4.8-0.7-0.4-1.6-0.6-2.4-0.7-0.8 0-1.7 0.4-2.5 0.5 0.4 0.7 0.7 1.6 1.2 1.9 3.7 2 7.4 3.9 12.1 6.7zm-197-22.7c-1.1-5.9-2.5-11.7-8.9-14.3-1-0.4-2.1-0.7-3.1-1-0.2 1.4-1.2 3.4-0.6 4.1 1.7 2.4 3.3 4.4 3.9 7.6 0.4 2.1 2.3 3.9 0.6 6.3-1.5-1.5-3.2-2.7-4.4-4.3-2.7-3.8-5.5-7.6-10.7-6.5-5.8 1.2-11.4 3-17.1 4.8-7.7 2.5-7.6 2.6-1.9 8.3 2.4 2.4 4.9 4.6 7 7.1 3.4 4 7.5 4.7 11.8 2.1 5.2-3.2 10.8-2.8 16.2-2.3 7 0.6 7 1 7.2-5.6 0-1.5 0-3 0-6.3zm51.7-20.9c-17-0.6-34-1.2-50.9-1.8-1.4 0-2.9 0.5-4.3 0.7 1 1.1 1.7 2.5 2.9 3.1 1.4 0.9 3.2 1.5 4.8 1.6 3.6 0.2 7.3 0 10.9 0.1 1 0 2 0.7 3 1-0.7 1.3-1.1 2.9-2.1 3.6-1.6 1.1-3.6 1.4-5.5 2-1.9 0.7-3.4 1.1-3.4 4-0.1 7.6 2.8 10.1 9.8 7.5 0.5-0.2 0.9-0.9 1.4-1 4-1 5-2.9 3.6-7-0.9-2.6 0.6-3.9 3.4-2.1 7.5 4.8 14.6 2.8 21.7-1.4 2.5-1.5 5.8-2.9 8.6-2.9 5.4 0.2 9.1-3 13.5-4.9 0.6-0.3 0.9-1.2 1.4-1.9-0.8-0.2-1.6-0.6-2.5-0.6-4.8 0-9.6 0-16.3 0zm-80.3-30.4c4.2-8.8 6-17.7 6.9-26.9 0.1-0.9 1.4-2.4 2.3-2.4 1-0.1 2.8 1.1 2.9 1.8 0.8 7.1 3.8 13.8 0.5 21.4-1.4 3.2 1 8.3 2 12.4 0.2 1 1.6 1.9 2.6 2.2 1.1 0.4 2.4 0.1 3.6 0.1q37.3 0.9 74.6 1.8c1.2 0.1 2.5-0.2 3.6 0.1 0.9 0.3 1.5 1.3 2.2 1.9-0.8 0.6-1.6 1.5-2.5 1.6-9.4 0.7-18.9 1.7-28.3 1.8-17.5 0.3-35.1 0.1-52.6 0.1-7.6-0.1-9.2-1.5-11-8.9-0.2-0.7-0.8-1.8-1.3-1.9-0.7-0.2-2 0.3-2.2 0.8-4.2 10.8-14.6 12.4-23.6 15.2-9.2 2.9-19 3.9-28.5 5.6-1.3 0.2-2.8-0.5-4.2-0.7 1-1.1 1.8-2.6 3-3.1 4-1.9 8.2-4.8 12.4-4.9 8.8-0.3 16.7-3.9 24.9-5.9 5.8-1.5 9.4-6.5 12.7-12.1zm231.9-38.6c6.4 0 11.8 0 17.3 0 4.6 0.1 9.2-0.3 13.9-0.1 11.7 0.3 23.3 1.3 34.8 3.7 2.6 0.5 5.4-0.1 8.1 0.1 0.8 0.1 1.5 1.3 2.2 1.9-0.8 0.6-1.7 1.6-2.5 1.6-13.3 0.1-26.6 0.1-39.9 0.1-6.2-4.7-12.3 0.2-18.5 0.1-20.5-0.4-41.1 0.3-61.6-0.3-13.5-0.3-26.9-2-40.4-1.7-5.9 0.2-5.9 0.1-6 6.4 0 8.8 0.1 17.5 0 26.3-0.1 9-3.9 12.7-12.7 12.7-0.6 0-1.2 0.1-1.8 0q-4.4-0.3-8.8-0.6c2.8-1.6 5.5-4.3 8.4-4.6 4.8-0.4 6.2-2.5 5.9-6.8-0.3-4.7 1.3-9.1 0.2-14-1-4.6-0.2-9.6-0.2-14.4-0.1-5-1.5-6.7-5.5-4.7-4.4 2.1-8.9 2.2-12.9 1.4-14.6-3-29.4 0.1-43.7-1.9-17.1-2.4-34-0.9-51-1.5-2.7-0.1-6.2 0.1-6.3-3 0-2.2 3.5-2.2 5.9-2.6 21.8-3.5 43.7-1.4 65.5-1.6 18.2-0.1 36.4 1.2 54.6 1.6 3.6 0.1 7.3-1.2 11-1.7 0.9-0.1 1.8-0.1 2.7 0 21.3 3.1 42.7 1.2 64 1.8 5.5 0.2 10.9 1.2 17.3 1.8zm-672.2 25c-5.2-3-3.2-8.7-4.6-13.3-0.9-2.9-0.8-7.2-0.6-11 0.2-4-0.9-8-1.7-11.9-1.1-5.9-2.9-11.7-3.4-17.6-0.6-5.6-2.7-10.3-5-15.2-2.5-5.3-4.1-11-6-16.6-0.3-0.7 0.2-1.6 0.4-2.5 0.6 0.4 1.4 0.6 1.9 1 9.7 8.4 14.3 20 19.1 31.1 2.5 5.9 1.9 13.3 2.1 20 0.3 10 0.1 19.9 0 29.9-0.1 1.9-1.2 3.8-2.2 6.1zm381.7-94c-7.2 0-13.7 0.8-19.9-0.2-10.1-1.5-19.4 10.1-21.7 19.1-0.8 3.1-0.5 6.7 0 9.9 0.2 1.4 2 2.6 3 3.9 1.4-1.3 3.7-2.5 3.9-3.9 0.6-3.9 0.1-7.9 0.3-11.8 0.1-1.4 1-2.9 1.6-4.3 1.2 1.4 3.5 2.8 3.6 4.2 0.2 5.5 1.7 11.6-1.8 16.4-2.9 3.9-1.2 5.4 2 5.7 8.1 0.7 16.5 2.2 24.1 0.5 5.9-1.3 8.2-8.5 8.5-14.9 0.2-5.5 0-10.9 0.1-16.4 0-0.9 0.9-1.8 1.3-2.8 0.8 0.7 2.1 1.2 2.2 2 1.2 6.8 5.9 13 2.3 20.6-1.6 3.4-1.1 7.3-3.6 11.3-3.7 5.8-8.3 7.5-14.1 7.8-6.6 0.4-13.3 0.1-20 0.1-1.2 0-2.9 0.5-3.5-0.1-6.4-6.9-13.8 0.1-20.5-1.7-0.7-0.1-2.2 0.8-2.1 1 0.2 1 0.5 2.4 1.2 3 9.1 7.5 18.8 13 31.2 12.4 10.5-0.5 20.9 1.6 31.2 3.4 7.5 1.3 15.2 1.3 22.8 2 6.4 0.5 12.9 1.1 19.2 1.9 1.1 0.1 2 1.8 3 2.8-1.1 0.2-2.2 0.6-3.3 0.7-7.4 0.6-14.7 1.8-22 1.7-13.3-0.2-26.8-0.2-40-2-7.7-1.1-15.4-0.4-22.9-1.8-5.6-1-11.2-3.8-15.9-7.2-4.2-3-6.8-8-10.5-11.8-2.2-2.3-4.9-4.1-7.4-6.1q-5.1-4-10.3-8.1c-12.3-9.6-7.7-32 4.7-38.8 5.5-3 12.7-3.3 19.3-3.8 3.8-0.2 10.5-2.4 11.1 2.2 0.6 3.9-6.7 2.3-10.2 4.2-2.6 1.4-6 1.6-9.1 2-3.1 0.5-4.2 2.7-3.1 4.9 4.5 8.6 1.4 16.6-2.4 23.9-2.3 4.2 0.1 4.3 2.2 5.1 2.1 0.7 4.5 0.8 6.8 1.1 4.8 0.8 10.1-1.7 14.7 1.8 0.3 0.2 1.9-0.4 2.1-0.9 0.3-0.6-0.1-2.1-0.6-2.4-8.9-4.5-7.2-11.6-5-19.2 1.8-6 4.7-11.4 7.3-17 2.6-5.6 7.4-6.9 11.6-7.3 6-0.6 12.4-1.8 18.5 1.1 1.9 1 4.7 0.3 7.1 0.4 3.6 0.1 5.6 1.4 3 5.4zm245.1-25.4c4.3-0.6 7.7-1.6 11.1-1.7 5.7-0.3 11.5-0.2 17.2-0.1 5.2 0 10.5-0.7 15.7-0.1 4 0.5 8.1-3.1 12.1 0.1 1.4 1.2 3.2 2.5 3.7 4.1 1.1 3.3 2.1 6.8 1.8 10.1-0.4 4.6 2.3 4.3 4.9 3.9 14.9-2.3 21.3 2.3 29.3 15.1 6 9.5 5.2 19.7 1.8 29.9-0.5 1.4-1 2.7-1.3 4-0.1 0.5 0.4 1.1 0.6 1.6 0.4-0.3 0.9-0.4 1.3-0.7 4-3.2 4.8-7.8 5.2-12.3 1.2-12.7-1-24.4-11.1-33.5-0.5-0.4-0.7-1.2-1-1.9 0.9-0.1 1.8-0.4 2.6-0.3 7.6 1.2 10.6 7.6 12.9 13.5 2.3 5.7 4 12.2 3.7 18.3-0.3 8.2-2.7 15.8-9.1 22.5-11.8 12.4-25.4 13.3-40.1 9-4.5-1.3-8.3-5-12.1-8-2.4-1.9-4.1-4-7.6-1.8-1.8 1.1-4.6 0.9-6.9 0.9-10.3 0.1-20.5 0.1-30.8 0-5 0-9.9 0.3-14.8 0.3-5.4 0-6.7-2.8-7.1-6.5-2.2-18.5-4.9-36.9-3.8-55.6 0.5-7.8 3.1-10.7 11-10.8 3.3-0.1 6.6 0 10.8 0zm86.3 65.4c5.1-8.7 6.1-17.9 2.7-27.3-2.9-7.9-12.1-15.6-19.7-14.7-8.3 1-12.6 5.1-16.9 14.6-2.9 6.6 0.3 11.9 0.3 17.7-0.1 7.7 4.6 12.6 9.9 16.6 7.2 5.5 18 2.2 23.7-6.9zm-596.5-23.6c-18.7 0-36.6 0-54.4 0-1.8 0-3.8 0.4-5.4-0.2-2-0.6-5.2-2.1-5.3-3.2 0-4 3.5-1.8 5.5-2 5.8-0.5 5.8-0.3 3.4-5.6-6.1-13.2-11.9-26.5-18.3-39.6-4.6-9.3-10.2-18.1-15-27.3-1.4-2.7-1.9-5.8-2.8-8.6 1.9 2.1 4 4 5.7 6.2 7.3 9.5 12.6 20.1 18.1 30.6 4.5 8.8 9.7 17.2 14.6 25.7q0.7 1.1 1.3 2.2c2.4 4.8 2.3 12.3 7.8 13.7 6.8 1.7 14.6 1.8 21.4 0.4 4.4-0.9 8.7-1.3 13-1.4 9.1-0.2 18.1 0 27.2-0.1 1.1 0 2.1-0.6 3.2-0.9-0.4-1-0.8-2.1-1.3-3.1-2.5-4.4-5.5-8.5-7.6-13.1-5.5-12.2-12.8-23.3-20-34.4-1-1.7-2.4-3.3-3.1-5.1-1-2.5-1.6-5.3-2.3-7.9 2.1 1.6 4.7 2.9 6.3 4.9 4.5 5.9 8.8 12 12.9 18.3 5.1 7.8 10 15.7 14.7 23.8 2.3 4.1 3.8 8.7 5.9 12.9 0.6 1.3 1.8 2.5 3.1 3.1 1.2 0.6 3.1 0.9 4.3 0.4 3.4-1.5 0.1-4-0.4-4.7q-17.1-27-34.9-53.6c-1.8-2.7-4.5-4.9-7-7.1-3-2.7-6.7-4.8-9.4-7.8-6.5-7.3-14.1-13.3-22.5-18.1-2.9-1.7-5.5-3-5.6-6.7 2.8 0.6 6 0.7 8.6 1.9 4.5 2.2 9.3 4.5 13 7.7 7.5 6.6 16.5 10 25.5 13.2 12.5 4.4 20.8 12.7 25.3 25q3.4 9.5 6.6 19c0.3 0.9 0 2 0 3.1-1.1-0.3-2.5-0.3-3.1-0.9-1.1-1.2-1.8-2.9-2.6-4.3-4.5-7.8-8.6-15.9-13.8-23.3-3.1-4.4-7.7-7.6-11.9-11.2-0.6-0.5-2.3 0-3.5 0.1 0.3 0.8 0.4 1.9 1 2.5 11 11.2 18.6 24.8 27.5 37.5 4.8 6.9 8.5 14.1 12.3 21.3 1.5 2.9 3 4.1 6 3.9 2.4-0.1 4.9 0.3 7.2 0 6.1-1 9.1 2.1 11.5 7.2 4.9 10.6 6.4 21.4 2.7 32.7-0.5 1.3-1.7 2.3-2.5 3.5-0.4-1.2-0.5-2.7-1.2-3.7-3.1-4.3-1.1-9.2-1.8-13.8-0.6-4.2-0.9-8.6-2.2-12.6-1.9-5.7-5.4-7.8-10.9-5.9-15 5.1-30.4 5.4-46.8 5.4zm505.7-36.4c-13.9-0.5-11.6 0.7-11.8 12.5 0 0.6-0.1 1.2 0 1.8 1.8 12.9 3.8 25.7 5.4 38.6 0.7 6.4 0.9 7.2 7.3 7 12.4-0.4 24.9-1.2 37.3-1.7 3.6-0.2 7.2-0.1 10.9-0.1-0.3-3.3-0.8-6.5-0.9-9.8-0.2-3.6 0.1-7.3-0.1-10.9-0.3-7.4 1.6-13.7 7.5-18.7 3.6-2.9 7.3-5.8 3.6-11.7-1.6-2.7-0.7-6.9-0.9-10.4-3.4 0.5-6.7 1.4-10.1 1.5-15.4 0.7-31-1.2-48.2 1.9zm-148 23.6c0 10.3 0 19.7 0.1 29 0 2.4-0.1 3.7-3.2 3.8-15.8 0.4-31.5 1.3-47.3 1.7-7.2 0.2-8.7-2-9.6-9.4-1.5-12.7-3.8-25.4-3.5-38.3 0.1-8.5 1.8-10.3 10.4-10.4 14.2 0 28.4 0 42.5 0 1.9 0 3.9-0.5 5.4 0.2 2.5 1.2 5.9 1.7 5.4 6.3-0.6 5.3-0.2 10.8-0.2 17.1zm149.4 26.8c-0.9-3.2-0.7-6.4-1.8-8.8-1.5-3.1 1-4.7 2.1-4.8 1.9-0.2 5.6 0.9 5.8 1.9 0.6 3.9 0.7 8.2-0.3 12-0.7 2.6-3.4 2.8-5.8-0.3zm-154.8-2.2c-0.7-3.7 1.5-7.7-1.7-11.2-0.9-1-0.8-4 0-5.1 3.2-4.2 1.3-8.7 1.5-13 0.2-3.1-3.7-6.2 0.2-9.3-0.7-0.8-1.2-2.1-1.9-2.2-7.6-0.8-15.2-1.8-22.8-1.8-7.8 0-15.7 1-23.6 1.8-0.9 0.1-2.5 1.6-2.5 2.4q0.7 19.5 1.9 39c0 0.7 1.8 1.9 2.8 2 6.1 0.2 12.4-1.2 18 0.3 9.8 2.7 18.8 1.6 28.1-2.9zm-158-3.7c0-4.2 0.1-8.4-0.1-12.5-0.1-0.9-1.4-2.2-2.4-2.5-0.6-0.1-2.1 1-2.4 1.9-1 2.9-1.9 5.9-2.3 8.9-0.3 2.6-0.3 5.4 0.2 8 0.2 1 2.1 1.7 3.3 2.6 0.6-1.1 1.3-2.1 1.9-3.2 0.4-0.7 0.6-1.5 1.8-3.2zm334.1-0.9c0-2.1-0.3-3.4 0.1-4.4 0.3-1.1 1.3-2.6 2.1-2.7 1-0.1 2.7 0.8 3.1 1.7 1 1.9 2.1 4.3 1.8 6.3-0.4 2.1 2.8 5.8-2 6.3-4.6 0.5-5.3-2.7-5.1-7.2zm-101.7 1.8c-12.4 0.7-23.6-1.2-34.8-3.5-4.7-0.9-7.9-3.5-10.7-6.8-0.8-0.9-0.8-2.8-0.6-4.3 0.5-4.4 4.4-6.1 7.7-7 6.9-1.8 13.7-4.4 21.1-3.9 3.6 0.2 7.4-1.9 11-1.6 9.2 0.8 18.4 2.1 27.5 3.6 3.6 0.6 7.1 2 10.3 3.7 3.8 1.9 4 6 1.5 9.6-2.9 4.2-7.5 5.4-11.8 6.5-6.7 1.6-13.5 2.5-21.2 3.7zm-105.3-7.2c0.1-3.1-1-6.4 3.1-5.4 3 0.7 4 3.6 4.1 6.3 0.1 3.1-1.8 4.6-5 4.5-3.8-0.1-1.6-2.9-2.2-5.4zm18.2 5.4c-6-0.5-2.7-5.9-5.5-7.7 1.3-1.1 2.4-2.6 3.8-3.1 1.5-0.4 3.8-0.7 3.5 2.3-0.3 2.8-0.6 5.7-1.8 8.5zm-28.6-2.3c-0.5-2.8-1-5.3-0.3-7.5 0.4-1.3 2.7-2.8 3.9-2.6 1.2 0.1 2.9 2.2 3 3.6 0.2 2.7 1.4 6.2-1.9 8-1 0.5-2.8-0.6-4.7-1.5zm144.8-11.3c-4.9-2.2-10-3.6-15.3-4.8-14.4-3.4-28.6-1.1-42.9 0.4-3.4 0.3-6.8 2.2-10.1 3.8-1.1 0.6-2.6 2.5-2.3 3.3 0.4 1.4 1.9 3.1 3.3 3.5 3.5 1 7.3 1.1 10.9 2 15.2 3.7 30.5 2.3 45.5-0.4 3.4-0.6 9.6 0 10.9-7.8zm-657.8-123c9.2-5.6 18-10.7 26.8-15.9 0.9-0.5 1.8-1.3 2.8-1.8 2.3-1 4.6-3.5 6.9-0.8 0.4 0.5-1.8 4.1-3.5 5.3-10.4 7.7-21.2 14.8-31.4 22.7-7 5.4-13.9 11.3-19.7 18-10.4 12-19.4 25.3-25.7 40-4 9.6-6.7 19.6-10.2 29.4-2.3 6.3-4.8 12.5-7.2 18.7-0.3 0.9-0.8 1.7-1.3 2.5-0.2-0.8-0.6-1.6-0.5-2.4 0.5-7.1 0.4-14.2 1.9-21 4.7-21.4 12.7-41.7 25.9-59 10-13.1 20.6-26.1 35.2-35.7zm55.4-1.8c-3.4-4.1-6.4-7.7-9.4-11.3-5.6-6.4-5.8-12.5-0.9-19.3 5.3-7.5 10.1-15.2 15.3-22.6 3.3-4.8 6.9-9.3 10.4-13.9 0.4-0.5 1.2-0.7 1.9-1 0.1 0.8 0.6 1.8 0.4 2.5-3.4 7.7-6.3 15.7-10.7 22.7-3 4.9-5.3 8.7-1.5 13.9 0.5 0.6 1.2 1.4 1.2 2.1 0.1 1.7-0.3 3.5-0.5 5.2-1-1.2-2-2.3-3-3.5-1.5-2-2.3-5.4-5.9-2.2-3.8 3.5-4.6 5.8-1.3 8.7 12.4 11 19.3 26 28.6 39.1 10.1 14.4 17.6 30.7 25.7 46.4 6.6 12.6 12.5 25.6 18.7 38.4 0.6 1.3 1.6 2.5 1.8 3.8 0.5 2.4 0.5 4.9 0.7 7.3-1.6-1.5-3.7-2.8-4.7-4.7-9.8-18-18.9-36.4-29.4-54-10.9-18.3-21-37.2-35-53.5-0.9-1-1.3-2.4-2.4-4.1zm350 91.2c-0.6 5.5-1.2 10.1-1.9 14.7-0.1 0.6-1 1.5-1.5 1.5-0.7 0.1-1.8-0.5-2-1.1-0.8-2.4-1.7-4.9-1.8-7.4-0.2-6.9 0.4-13.9-0.2-20.8-0.6-6.1 2.5-9.9 7-12.2 11-5.6 22.2-10.6 33.4-15.8 1-0.5 2.4-0.9 3.3-0.5 1.3 0.4 2.4 1.6 3.5 2.5-0.8 0.8-1.4 2-2.4 2.5-5.2 2.6-10.6 5-15.8 7.6-0.8 0.4-1.1 1.7-1.7 2.5 0.8 0.4 1.6 1.1 2.2 1 3.4-0.4 6.8-1.5 10.2-1.6 6.6-0.3 13.3 0 20-0.1 23.6-0.6 47.3-0.4 70.8-2.2 9.5-0.8 18.9-1.6 28.4-1.3 7.6 0.3 15.3-0.2 23-0.1 29.6 0.5 59.4 2.8 89 1.3 33.4-1.6 66.7-0.6 100-1.3 11.6-4.3 24.1 0.8 35.7-3.7 6.4 3.5 13.4 1.2 20.1 1.9 0.5 0 1 0.3 1.6 0.5-0.5 0.4-1 1-1.5 1.2-1.5 0.7-3.1 1.7-4.7 1.8-9.4 0.7-18.9 1.2-28.3 1.9-5.2 0.4-10.4 1.2-15.5 1.8-4.9 0.6-10-1.3-14.8 1.7-1.3 0.8-3.5 0.1-5.4 0.1-5.4 0-10.9-0.1-16.3 0-39.1 0.6-78.2 2.6-117.2 1.4-27.3-0.9-54.5-1.1-81.8-1.3-14 0-28 0.2-41.9 1.9-25.7 3.3-51.5 0.6-77.3 1.6-1.8 0.1-3.6 0-5.4 0-7.1 0.2-10.1 2.9-10.8 10-0.3 3 0 6.1 0 10zm-307.3-77.6c6.1 4.9 11.8 9.5 17.6 13.9 0.4 0.3 1.6-0.2 2.4-0.3-0.4-0.7-0.8-1.3-1.1-2-4.9-10.2-8.6-20.7-7.5-32.2 0.3-4.3 1.1-8.6 1.8-12.9 0.1-0.6 1.1-1.4 1.7-1.4 0.6 0 1.7 0.8 1.8 1.3 0.2 2.4-0.1 4.9 0.1 7.3 1 12.2 2.8 24.4 8.8 35.3 2.2 4.1 5.9 7.3 8.8 11 1 1.2 1.4 2.8 2.1 4.3q-2.6 0.3-5.2 0.6c-0.3 0.1-0.7 0.2-0.9 0-2.4-2.6-5.1-2.2-8-1 1.4 2.1 2.7 4.3 4.2 6.3 9.8 12.9 19.4 25.9 29.6 38.5 4.7 5.8 10.1 11.4 18.2 12.9 2.7 0.5 5.1-0.4 5.9-2.7 2.3-6.4 2.8-13 0.8-19.7-0.4-1.3-0.6-2.8-0.7-4.2-0.1-0.8 0.3-1.6 0.5-2.5 0.6 0.4 1.4 0.7 1.9 1.2 3.1 2.9 5.1 6.3 4.8 10.8-0.3 5.2 0.4 10.4-1.7 15.6-3 7.8-6.6 9.7-14.8 7.4-9.4-2.6-15.7-9.3-21.3-16.2-10.8-13.5-20.7-27.7-31-41.6-2.8-3.9-5-8.5-8.4-11.8-3.7-3.6-8.5-5.9-12.5-9.2-3.4-2.9-6.7-6.1-9.5-9.5-9.8-12.1-13.5-26.2-11.4-41.5 1-6.8 4.1-13.4 6.3-20 0.3-0.6 1.3-1 1.9-1.5 0.3 0.8 0.7 1.6 0.7 2.4-0.6 7.9-1.4 15.8-1.8 23.7-0.7 14.8 5.7 26.7 15.9 37.7zm407.1 5c11.8 0 22.8 0.9 33.6-0.3 13.7-1.5 27.5-0.3 41-1.9 9.2-1.2 18.6 0.4 27.3-1.8 8.4-2.2 17.1 0.7 25-3.3 0.4-0.2 1.2 0 1.8 0 12.4-0.6 25-0.5 37.3-2 12.8-1.6 25.7-0.3 38.3-2.1 8-1.1 15.8-1 23.8-1.3 24.2-0.7 48.5-1.2 72.7-1.8 1.6-0.1 3.1-0.3 4.6 0 1.7 0.3 3.4 1.1 5.1 1.7-1.6 0.6-3.2 1.5-4.9 1.8-15.4 3.4-31.1 0.4-46.4 2.2-10.8 1.3-21.6 0-31.9 1.8-10.5 1.9-20.9 0.2-31.1 1.7-10.4 1.6-20.8 0.8-31 1.8-14.3 1.6-28.7 2.5-43 3.7-18.8 1.7-37.7 2.5-56.6 3.9-10.9 0.8-22-0.2-32.8 1.5-16.1 2.7-32.3 0-48.3 2-11 1.3-21.9 1-32.8 1.5-5.1 0.2-6.1 1.3-6.1 6.4 0.1 8.6 3.1 11.7 11.8 11.7 12.7 0 25.6 1.2 38.1-0.3 17-2.1 34.1-0.2 51-1.7 16.7-1.5 33.5-2.3 50.2-3.9 9.8-0.9 19.5-0.7 29.2-1.4 34.5-2.5 69.1-1.4 103.7-1.9 12.8-0.2 25.6-2.2 38.4-3.5 4-0.4 8-1.3 12-1.7 0.4-0.1 1.4 1 1.4 1.6 0 0.6-0.8 1.8-1.2 1.8-11.4-0.1-21.8 4.8-33.1 6.1-13.8 1.5-27.5-0.3-41.1 1.5-19.4 2.4-38.9 0.1-58.2 2-11.9 1.2-23.8 0-35.5 1.7-9.8 1.4-19.7 0.3-29.2 1.8-17.1 2.5-34.1 2.6-51.2 3.7-12.5 0.9-25.1 0.1-37.3 1.9-9.6 1.3-19 1.2-28.4 1.3-6.1 0-12.2-0.9-18.3-1.8-4.2-0.6-9.1-8-9.5-14.2-0.2-2.4-0.1-4.8-0.1-7.3 0.1-6.3 2.3-8.8 8.8-9.2 10.3-0.8 20.7-1.2 31-1.9 7-0.5 14-1.2 21.9-1.8zm-363.1-49c-1.1 7.5 2.3 14.6-1.8 20.9 3.2 7.6-2.9 15.7 1.3 23.4 0.9 1.6-1.3 4.8-1.2 7.2 0.2 4.9 1.2 9.7 1.6 14.6 0.1 0.8-0.7 1.7-1.1 2.6-0.6-0.7-1.6-1.2-1.9-2-1.4-4.8-3.4-9.6-4-14.6-1.1-8.1-1.5-16.3-1.9-24.6-0.3-4.5 0-9-0.1-13.5-0.3-17.6 1.7-34.9 5-52.2 2.2-11.2 4.4-22.3 7.9-33.1 2.3-7.2 6.4-13.7 8.7-20.9 1.1-3.5 3.1-1.8 4.7-2.3-0.2 1.5-0.3 3-0.7 4.4-2.4 8.9-5.1 17.8-7.4 26.8-1.6 6.3-2.7 12.7-4 19.1-0.5 2.5-1.4 5.1-1.4 7.6 0 7.9-1.7 15.4-3.5 23-1 4-0.2 8.4-0.2 13.6zm3.6 30.8c5.1-15.4 11.5-29.3 21.9-40.8 2.3-2.5 1.6-3.7 0-5.8-2.6-3.4-4.9-7.1-7.3-10.6-0.7-0.9-1.4-1.9-1.8-2.9-0.2-0.8 0-1.8 0.1-2.6 0.8 0.3 2 0.4 2.5 1 5.3 6 11.7 10.6 18.4 14.7 9.9 5.9 19.9 11.2 31.9 10.8 3.3-0.1 5.9-0.8 7.6-3.5 3.1-4.7 7.8-8.5 8.5-14.6 0.2-1.4 1.2-2.6 1.8-3.8 3.6-7.7 3.6-7.7-1.8-13.5q-0.9-1-1.8-2 1.6-0.4 3.3-0.8c0.3-0.1 0.6 0 0.9 0 7.1 0.7 6.8 0.6 8.5-6 1.9-6.7 4.1-13.4 6.9-19.8 1.2-2.8 4.1-5.3 6.8-6.9 8.6-5.1 9.4-6.1 4.3-15-8.4-14.7-10.5-30.3-8.2-46.7 0.1-0.5-1.3-1.8-1.8-1.8-3.1 0.5-6.1 1.3-9.2 2q-1.2 0.3-2.5 0.6c0.2-0.8 0.2-1.9 0.7-2.4 4.5-3.8 8.9-7.6 13.6-11.1 5.8-4.5 12.4-8.5 13.6-16.3 0.6-4.6-0.6-9.4-1.1-14.1-0.1-0.7-1.4-1.5-1.3-2.1 0.4-2.2 1.1-4.4 1.7-6.5 1.7 1 4.3 1.7 5 3.3 4 8.7 7.7 17.8 3.9 27.5-1.5 3.6-4.3 7.8-7.7 9.3-9.2 4.3-10.9 12.3-9.9 20.3 1.1 8.6 1.1 17.7 5.1 25.9 1.7 3.5 2.6 7.5 4.7 10.7 6.7 10.6 6.3 16.5-4.1 21.6-6.7 3.2-9 7-10 14.1-1.6 11.6-5.4 22.9-11.3 33.3-3.4 5.9-5.5 12.3-10.2 17.6-9 9.9-19.1 12.1-31.1 6.7-5.1-2.3-10.7-3.8-15.4-6.6-3.4-2.1-5.7-1.6-7.5 1.1-9.1 13.3-19.1 26.1-22.3 42.5-0.5 2.6-1.8 5.1-2.8 7.6-3.2-1.9-2.5-5.1-2.5-8-0.1-1.8-0.1-3.7-0.1-6.4zm-105.3-119.8c-8 18.2-16.7 35.1-20.2 54.3-2.5 14.4-7 28.5-10.5 42.8-0.5 2.3 0 4.8-0.2 7.2-0.1 0.9-0.7 1.7-1.2 2.5-0.8-0.9-1.7-1.7-2.3-2.6-0.3-0.5 0-1.2-0.1-1.8-0.5-3.7-1.4-7.3-1.4-11 0-3.4 0.7-6.8 1.5-10.2 1-5 3-9.8 3.4-14.9 1.9-19.1 8.8-36.7 16.5-54 6.8-15 13.9-29.9 20.8-44.9 0.6-1.3 1-2.8 2-3.7 0.9-0.9 2.4-1.1 3.7-1.7 0.2 1.1 1 2.4 0.7 3.3-3.7 11.5-6.8 23.1-12.7 34.7zm122.1 34.9c-3.6 5.5-6.8 10.6-10.1 15.5-0.5 0.8-1.7 1.3-2.5 1.9-0.2-1.2-0.7-2.4-0.5-3.4 3.2-13.8 10.6-25.4 18-37 14.7-22.7 29.2-45.5 43.7-68.2 0.8-1.2 1.5-2.8 2.6-3.3 1.2-0.5 3-0.3 4.2 0.3 0.5 0.3 0.7 2.3 0.4 3.3-0.6 1.8-1.8 3.4-2.7 5.2-7 14.2-15.6 27.5-24.3 40.8-9.7 14.6-18.9 29.6-28.8 44.9zm74.5-67.1c-1.2 1.5-2.1 3.5-6 2.1-4-1.6-3-7.5-1.7-10.1 1.7-3.2 3.5-3 5.4-3.1 1.1-0.1 3.1 2.3 3.5 3.9 0.4 2.1 0 5.6-1.2 7.2zm-187-13.7c-7.1-3.3-9.9-8.7-12.1-15.4-2.7-8.2-4.7-16.1-1-24.4 1.4-3.3 4.2-6.2 5.2-9.6 1-3.6-0.1-7.8 0.8-11.5 3.1-11.3 5.3-22.8 6.8-34.4 1-7.1 3.5-14.4 6.8-20.7 4.8-9.3 10.8-18 16.7-26.7 1.8-2.7 4.6-4.9 7.4-6.7 8.3-5.4 16.3-11.5 26.9-11.8 1.8-0.1 4-1.2 5.3-2.5 4.9-5.3 11.8-6.4 17.9-9.3 7.1-3.3 13.8-2 19.8-0.2 12.5 3.8 25.2 7.7 36.6 14.5 4.7 2.8 9.1 6.1 13.2 9.6 6.2 5.2 12 10.7 18 16 7.8 7.1 12.6 16.4 18.2 25.2 0.8 1.2 0.9 2.9 1.4 4.4-1.5-0.5-3.3-0.6-4.3-1.7-5.7-6-11.2-12.3-16.8-18.4-2.4-2.6-4.9-5.3-7.6-7.6-6.9-5.8-13.7-11.9-21.1-17.1-10.2-7.1-22.2-10.5-33.8-14.6-4-1.4-8-3.2-12.1-3.5-8.1-0.6-15.2 2.9-21.2 7.7-4.8 3.8-9.1 6.3-15.4 7.1-6.1 0.8-12.3 4.1-17.5 7.7-5 3.3-10.3 7.6-12.7 12.8-5.2 10.8-13.6 20.2-15.2 32.7-0.6 4.5-2.5 8.7-3.4 13.1-2.3 11.2-4.5 22.4-6.8 33.5-0.7 3.6-0.3 3.9 4.1 3.3 1.8-0.2 3.7 0 5.5 0 16.7-0.7 33.2-2.1 49-8.8 6.4-2.8 14-2.7 21.1-3.9 2.7-0.5 5.5-1.4 8.3-1.8 1.3-0.1 2.7 0.6 4.1 0.9-0.8 0.9-1.4 2-2.4 2.6-8.2 5.7-18 7.7-27.3 10.8-8 2.7-16.4 4.4-24.6 6.3-2.5 0.6-5.2 1.2-7.7 1.1-10.4-0.7-20.9 1.8-31.1-1.6-1.2-0.4-4.7 1.7-4.7 2.8-0.7 10.3-0.1 20.3 6.9 28.8 6 7.2 13.5 7.3 21.7 5.7 2.2-0.4 4.5-1.1 6.8-1.1 12.7-0.3 24.9-3.3 37.2-6.4 7.7-2 15.4-3.6 22.9-6.3 23.4-8.5 46.8-17 70.3-25.3 11.9-4.3 23.8-8.2 35.8-12.3 0.2-0.1 0.4-0.6 0.6-0.6q4.1 0.7 8.2 1.5c-1.8 1.6-3.4 3.8-5.5 4.7-10.4 4.7-20.8 9.6-31.6 13.5-24 8.7-48 17.3-72.3 25-15 4.7-30.6 7.8-46 11.6-10.2 2.5-20.7 2.9-31.1 4-6.5 0.7-12 0-18.2-2.7zm173.4 0c-1.8 1.1-3 1.8-4.3 2.3-0.5 0.2-1.1 0-1.7-0.1 0.1-0.6-0.1-1.4 0.3-1.9 2.7-3.4 5.3-6.9 8.3-10.1 6.2-6.5 13.2-12.3 16.1-21.3 0.4-1.3 2.7-2 4.1-2.9 0.4 1.6 1.5 3.3 1.1 4.6-1.6 5.1-2.5 10.6-7 14.3-5.6 4.8-11 9.8-16.9 15.1zm-10-86.2c8.4-3 15.4-7.7 23.8-9.8 13.7-3.4 21.9 0.2 26.7 13.3 2.5 6.9 3.9 13.9 3.5 21.2-0.2 2.8-1 1.4-2.4 0.7-4.4-2-4.9-6.3-6.6-9.9-1.5-3-2.1-6.4-3.6-9.4-4.1-8.7-9.9-10.8-18.5-7.3-18.1 7.4-36.2 14.9-54.5 21.7-6.6 2.4-13.9 3-20.9 4.4-0.7 0.1-1.6-0.5-2.4-0.8q1.1-0.5 2.1-1c11-4.8 22-9.7 33-14.5 6.4-2.8 12.9-5.4 19.8-8.6z"/>
	</g>
</svg>