<svg version="1.2" xmlns="http://www.w3.org/2000/svg" viewBox="0 0 702 1094" width="702" height="1094">
	<title>-e-</title>
	<style>
		.s0 { fill: #f05a22 } 
		.s1 { fill: #ffce4d } 
		.s2 { fill: #1d1e1b } 
	</style>
	<g id="-e-">
		<path fill-rule="evenodd" class="s0" d="m461.7 504.7c0 0 30.2-3.5 36.6-5.5 6.4-2 6.3-2.2 12.1-11.5 5.7-9.3 12.8-18.4 5.8-16.5-7 1.9-18.3 4.1-27.8 6.9-9.5 2.8-16.9 2.6-20.2 2.9-3.4 0.3-5.7 10.9-7.5 15.2-1.8 4.3 1 8.5 1 8.5zm-391.3-100.7c0 0 43.2 2.4 58.8 10.2 15.5 7.9 43.4 26.8 44.8 36.6 1.5 9.7 2.4 17.5 8.4 9.4 6.1-8.1 13.2-17.9 6-30.5-7.2-12.7-32.8-31.8-51.2-37.7-18.5-5.8-33.4-8.9-45.1-9.5-11.7-0.5-13-3-18.2 5.5-5.1 8.5-8.9 13.8-8.3 15.8 0.6 2.1 4.8 0.2 4.8 0.2zm215.9-193.9c0 0 26.7 39.2 46.2 56.7 19.5 17.4 33.7 33.8 52.4 37.2 18.8 3.4 22.9 3.5 37.1 2.5 14.2-1 21.5-5.4 21.5-5.4l-6.2-12.3c0 0-22.4-0.5-31.5-2.1-9.1-1.5-39.7-9.5-58.7-33.5-19.1-24-27.2-24.7-33.9-35.9-6.7-11.2-8.8-18.9-13.8-20.1-5.1-1.3-4.8 1.1-10.6 2.5-5.8 1.2-2.5 10.4-2.5 10.4z"/>
		<path fill-rule="evenodd" class="s0" d="m127.5 796.3c0 0-4.6 23.8-7.5 42.9-2.8 19.1-1.6 31.8-0.1 49.7 0.8 10.2 2.6 18.7 0.2 31.4-1.2 6.4 1.6 15.1 3.9 21.3 4.4 12 3.7 25.5 4.1 45.1 0.5 19.6 4.6 25.8 5.9 39.4 1.3 13.7-3.9 21.7 1.5 19.8 5.5-1.9 139.2-91.4 172-114.3 32.8-22.9 114.6-81.3 119.8-85.8 5.3-4.5 2.9-14.3 7.2-27.1 4.2-12.7 6.7-22.3 4.1-31.6-2.7-9.4 4.4-16.6-10.1-15-14.5 1.5-44.9 0.9-66 7.7-21.1 6.8-23 9.3-54.6 18.2-31.5 8.9-41.9 4-49.7 12.1-7.9 8.1-6.5 15.8-15.2 34.5-2.8 5.9-5.7 21.8-8.1 27.6-5.8 13.7-5.6 19.7-14.2 30.1-7.4 9-13.5 11.1-19.8 16.3-4.8 4-10.7 10.9-15.9 14.5-11.5 8-21 10.7-14.4 3.2 3.6-4 22.1-19.1 28.4-25.8 18.2-19.3 26.3-26.2 29.9-50.4 3.6-24.2 18.5-45.7 11-49.9-7.4-4.1-38.7-5.3-46.5-8.6-7.8-3.2-18.3-7.2-30.2-6.6-12 0.7-22.3 5.1-26.8 4.3-4.6-0.7-8.9-3-8.9-3z"/>
		<path fill-rule="evenodd" class="s1" d="m574.7 144.2c0 0 26 27.5 34.3 38.1 8.3 10.6 21 25.7 28.4 38.5 7.4 12.8 18.4 30.1 29.6 34.8 11.3 4.6 17 6.4 10.4-8.5-6.5-14.8-19.7-37.3-25.1-45.9-5.3-8.7-8.2-14.2-2.5-20.3 5.6-6.1 25.5-21.2 24.5-50.7-1-29.5-10.8-39.8-23.2-56.2-12.4-16.4-28.5-31.8-34.1-34.6-5.5-2.9-4.5 7.6-4.4 16.2 0.2 8.5-6.5 20.8-13.3 32.9-6.8 12.1-15.4 28.6-21.4 38.4-6 9.8-3.2 17.3-3.2 17.3z"/>
		<path fill-rule="evenodd" class="s2" d="m119.6 814.3c0.7-4.2 1.1-7.6 2.2-10.7 0.4-1.2 2.5-2.8 3.5-2.6 1.5 0.4 3.5 2 3.8 3.4 0.6 2.7 0.6 5.8 0.1 8.6-1.8 9.2-4.1 18.3-5.7 27.5-1.1 6.5-1.2 13-2 19.5-1 7.5-2.5 15-3.6 22.6-0.4 2.5-0.1 5.1-0.3 7.6-0.7 9.1 1.8 18.3-1.7 27.2-0.7 1.9 0.2 4.3 0.5 6.5 0.3 2.4 1.1 4.8 1.2 7.2 0.2 7.1-0.1 14 3.3 20.8 2 4.2 2 9.5 2.5 14.4 0.8 9.4 0.4 18.9 2.2 28.1 2.4 12.3 2 25 5.5 37.2 0.9 3.2 0.6 6.8 0.9 10.2 2.7-1.9 5.3-4 8.2-5.6 18.6-10.8 36.3-22.8 54-35 33-22.6 65.9-45.4 99.8-66.6 22.9-14.4 45.1-29.6 66.8-45.8 16-12 33-22.7 49.6-34 3.2-2.2 6.7-4.1 9.8-6.5 1.1-0.8 1.8-2.4 2.2-3.8 2.5-9 5.2-17.9 7.3-26.9 1.2-5.4 1.2-11 2.5-16.4 2.3-10.1-0.9-19.7-2.2-29.4-1.5-12 0.3-20.5 10.7-24.4 12.3-4.5 12.3-15.2 16.4-24.1 0.7-1.7 0.3-3.6-2.7-3.6-18.6 0.6-28.1-12.2-37.9-25.3-6.2-8.3-9.1-18.1-12.9-27.4-0.6-1.4 0.4-3.4 0.7-5.1 1.5 1 3.6 1.6 4.5 3 3.5 5.2 7 10.5 9.7 16.2 5.4 10.9 14.1 18.9 22.5 27.3 0.6 0.7 1.3 1.5 2.2 1.7 2.5 0.7 5.1 1.1 7.7 1.6-0.5-2.2-0.6-4.7-1.5-6.7-4.4-9.6-8.2-19.5-15.8-27.2-1.7-1.7-2.8-3.9-4.1-6-0.9-1.3-1.5-2.7-2.2-4.1 1.7 0.5 4 0.4 5.1 1.5 9.1 8.5 16.7 18.2 22.8 29.1 0.9 1.5 1.2 3.4 2 4.9 1.5 2.8 2.6 2.7 5.9 0.1 0.7-0.5 1.7-0.7 2.5-0.8 1.6-0.3 4.6 0.6 1.6-2.6-8-8.6-16-17.2-23.9-25.8-5.1-5.5-9.8-11.4-15.2-16.6-2.4-2.4-6.1-3.5-9.2-5.2-0.9-0.5-1.5-1.5-2.2-2.2 1.2-0.6 2.7-1.8 3.7-1.5 3.1 0.9 6.1 2.3 8.9 3.9 13.9 7.5 23.3 20.1 34.6 30.6 1.4 1.3 3.2 2 4.8 3-0.6-1.9-0.9-4.1-2-5.8-5.6-9-11.5-17.8-17.2-26.7-0.6-0.8-1-1.8-1.4-2.8 1.1 0.2 2.4 0 3.2 0.6 9.5 6.9 16.8 16 23.2 25.8 2.1 3.3 3.7 6.9 5.9 10.1 1.1 1.6 3.1 2.8 4.9 3.5 5.9 2.5 6.3 4.2 1.3 8.2-1.6 1.3-3.6 2.1-5.3 3.5-4.1 3.3-9 6.1-11.9 10.4-2.7 4-2.9 9.6-4.6 14.4-1.2 3.3-3.1 6.4-4.4 9.7-0.4 0.7-0.2 2.1 0.3 2.6 0.5 0.4 1.8 0.2 2.7 0 17-3.7 34.1-3.8 51.2-0.5 0.9 0.2 1.9 0 2.9 0 7.1 0.4 7.4 0.4 7.1-6.9-0.4-13.9-1.2-27.9-1.9-41.9 0-1.1-0.8-3.2-1.1-3.1-3 0.2-6.2 0.4-9 1.5-2.2 0.8-3.8 3-6 4-2.5 1.1-5.8 2.7-7.7 1.8-4.6-2.2-9.5-4.9-12.6-8.8-4.9-6-8-13.4-12.7-19.7-3.6-4.7-8.4-8.6-12.7-12.9-2.3-2.3-4.6-4.5-6.8-6.9-0.5-0.5-0.5-1.6-0.8-2.5 1.1-0.2 2.3-0.9 3.2-0.6 11.5 3.7 20.6 11 27.6 20.6 3 4.1 5.3 8.8 8.2 13 1.4 2.1 3.3 4.2 5.5 5.3 2 1 4.7 0.9 7 0.5 0.5-0.1 1-3.6 0.5-5.3-3-10.7-7.7-20.6-13.6-30-1.5-2.4-2.1-5.3-3.2-7.9 4.8-1.6 4.6 2.6 6 5 5.7 9.6 11.4 19.2 17.1 28.6 1.6 2.6 3.3 5.4 5.6 7.3 1.9 1.7 4.4 4.4 6.8-0.8 1.7-3.7 4.5-3.7 4.6 1.6 0.1 2 1.7 4 1.8 6 0.8 19.4 1.5 38.9 1.9 58.3 0.1 3.9-1.1 7.9-1.8 11.8-0.2 1-0.8 2-1.1 3-1-0.9-2.8-2-2.6-2.7 1.6-7.9-3.6-6.9-8.5-6.8-8.6 0.2-17.3 0.1-26 0.1-1.6 0-3.3-0.4-4.8 0-2.4 0.8-4.6 2-6.9 3.1 2.2 0.9 4.3 2.4 6.6 2.5 7 0.3 14.1 0.1 21.2 0.2 0.8 0 1.7 0.4 2.6 0.7-1 0.4-1.9 1.1-2.9 1.3-3.9 0.7-7.9 1.1-11.8 1.9-0.9 0.1-1.6 1.2-2.5 1.8 0.9 0.7 1.7 1.8 2.6 1.9 7.7 0.1 15.4 0 23.1 0.1 1.1 0 2.1 0.7 3.1 1-1 0.5-2.1 1.1-3.3 1.4-5.9 1.1-11.9 2.9-17.9 3.2-10.2 0.5-20.6 0.8-30.8-0.1-7.7-0.7-15.4-3.1-22.6-5.7-6-2.2-6.3-5.7-1.2-9.5 3.2-2.4 7.2-4.4 11.2-5.4 5.6-1.4 11.5-1.8 17.4-2.3 9-0.8 18.1-1.7 27.1-1.8 6.2-0.1 12.3 1.2 18.5 1.7 1.2 0.1 2.5-1.1 3.7-1.6-1.1-0.7-2.1-2-3.2-2.1-12.6-0.8-25.3-2.3-37.8-1.7-12.9 0.6-26.1 2-37.5 9.3-1.2 0.8-2.7 1.4-3.8 2.4-7.7 6.7-6.3 11.2 3.6 15.1 10.1 4.1 20.5 5.9 31.4 5.7 8.6-0.2 17.3 0.1 26 0 12.5-0.2 22.7-6 31.9-13.7 1.6-1.4 2.3-4.2 2.8-6.5 0.3-1.4-0.7-3.1-1.1-4.6 1.6 0.5 3.2 1.2 4.9 1.6 7.1 1.7 7 1.6 3 7.9-3.1 4.8-5.9 9.7-8.5 14.8-0.5 1 0.5 2.9 0.8 4.3 1.1-0.4 2.3-0.7 3.3-1.3 8-5.1 12.9-13 18.1-20.4 2.9-4 0.5-8.9-2-12.9-4.5-7.1-9.2-14.2-13.6-21.4-1.2-2-2-4.3-2.8-6.5-0.2-0.8 0.3-1.8 0.5-2.7 0.7 0.5 1.3 1.1 2.1 1.3 9.1 2.1 12.5 9.8 16.8 16.8 0.9 1.6 1.7 3.2 2.7 4.7 1.5 2 2.9 2.6 5.4 0.6 7.2-5.8 14.7-11 22.1-16.5 22.3-16.7 43-35.4 67-50 7.9-4.8 14.3-11.9 21.8-17.5 6.3-4.7 13-8.8 19.7-13 0.7-0.5 2.3 0.3 3.5 0.5-0.4 0.7-0.8 1.5-1.3 2.1-10.2 10.3-20.7 20.1-32.4 28.7-17.2 12.6-33.6 26-50.6 38.7-14.7 11-29.6 21.6-44.7 32-2.7 1.9-4 3.6-3.7 6.7 0.8 8.8-3.2 15.5-9.4 21.1-5.8 5.3-10.2 11.9-18 14.9-7.1 2.7-9.4 2.8-13-3.5-2.1-3.7-2.9-4.4-7.4-2.7-6 2.1-12.9 1.5-19.4 2.3-4.5 0.5-9.1 1.6-13.6 1.8-15.1 0.9-29.9-0.3-44.4-4.5-2.7-0.7-3.5 0.2-2.7 3.1 2.2 8.3 5.8 15.8 12.2 21.9 7.3 7.1 14.3 14.1 24.7 17.3 10.2 3.1 20 1.1 29.9 0.7 3.6-0.2 10.7-11.3 10.9-15.4 0.4-8 7.7-17 14.1-17.2 0.9 0 1.8 0.2 2.7 0.4-0.5 0.9-1 1.8-1.6 2.7-1.8 2.5-3.8 4.8-5.4 7.4-1 1.8-1.7 3.9-2 5.9-0.5 3.1 0.4 3 2.7 1.2 3.3-2.6 7.4-4.3 10.6-7 8.3-7.3 16.3-14.9 24.5-22.4 0.6-0.6 1.3-0.9 2-1.4 0.2 0.9 0.8 2.1 0.5 2.6-6.6 8.5-11.2 18.6-19.7 25.6-5.9 4.9-11.5 9.4-19.9 10.6-4.3 0.6-7.7 7.2-11.4 11.2-0.1 0.1 0.9 1.7 1.2 1.7 4.5-0.9 9.5-0.9 13.2-3 15.3-8.9 26.8-21.6 35.3-37 0.8-1.3 1.3-2.7 2.1-4 0.3-0.3 1.4-0.5 1.7-0.2 0.7 0.4 1.5 1.4 1.4 1.9-0.7 2.6-1.5 5.2-2.8 7.5-2 3.8-2.3 6.9-1.6 11.6 1.1 6.5-2.5 13.5-7.5 18.8-4.4 4.6-8.9 9.2-13.6 13.6-6.4 6-8.3 5.9-14.6-0.2-2.3-2.2-3.7-3.2-7.7-1.7-4.4 1.6-10.8 2.3-14.3-4.4-0.7-1.2-5.1-5.6-8.4-0.9-22.2 1.3-43-0.8-56.8-21.7-0.4-0.6-1.3-1-1.9-1.5-0.7 0.9-1.6 1.7-1.8 2.6-2.5 9.7-0.4 20.3-5.8 29.5-0.3 0.5 0.2 2 0.8 2.4 0.5 0.4 1.8 0.1 2.5-0.3 3.8-2.4 7.5-5 11.4-7.4 0.8-0.4 2.3 0.1 3.4 0.1-0.4 1.1-0.4 2.9-1.2 3.3-13.3 7.6-25.8 16.1-37.7 25.7-11.1 9-23.1 17-34.6 25.6-15.3 11.3-30.4 22.8-45.8 34-6.6 4.9-13.5 9.2-20.3 13.8-10.8 7.2-21.5 14.6-32.5 21.7-11.9 7.7-24 15-35.9 22.7-6.4 4.1-12.5 8.5-18.8 12.8-15.6 10.5-31.1 21.1-46.7 31.5-23.4 15.7-47 31.2-70.3 47-6.6 4.5-12.7 9.8-18.8 15-4.5 3.8-11.5 3.2-14.7 8.8-0.5-0.3-1.6-0.8-1.5-1 0.5-1.7 0.8-3.6 1.8-5 7.1-9.9 17.1-16.7 26.5-24.2 4.9-3.9 10.6-6.9 15.8-10.6 2.5-1.8 5-4.1 4-7.9-3.6-14.1-3.2-28.8-6.1-42.9-1.2-5.6-0.8-11.1-1.7-16.6-2-13.2-4.4-26.4-6.6-39.7-1-6.3-2.8-12.7-2.8-19 0.1-15.2 0.3-30.4 2-45.5 2.4-20.8 5.7-41.5 11.4-61.7 0.4-1.4 1.2-2.7 1.9-5zm289.8 192.4c11.2 1.2 21.8 1.9 32.5 2.4 9.6 0.4 19.1-0.4 28.4-3.6 5.1-1.8 10.9-1.4 16.4-2.2 12.6-1.6 24.9-4.3 36.1-10.6 2.4-1.4 4.7-3 6.7-4.8 5.8-5.5 6.4-10.5 2.9-18.4-4-9.5-9.4-17.8-19.3-22.1-0.8-0.4-1.3-1.7-1.9-2.5 1-0.5 2.1-1.4 3.1-1.3 11.3 1.7 20.9 6.3 25.7 17.3 2.9 6.6 6.5 12.5 4.5 21-2.1 9.1-7.5 13.4-14.1 17.6-10.1 6.4-21.4 9.3-32.8 11.5-9.1 1.7-18.4 2.1-27.3 4.1-16.8 3.7-33.7 2.1-50.3 1.4-16.5-0.8-33-4.3-48.3-11.3-4-1.9-7.7-4.6-11.4-7.2-10-6.8-12.9-16.7-11.1-28.1 0.3-1.7 1.4-3.4 2.5-4.7 10.9-13 25.4-18.7 41.2-24 28.6-9.4 57.6-6.7 86.6-7.2 2 0 4.1 1 6 1.9 1.5 0.7 2.9 1.9 4.4 2.9-1.8 0.3-3.6 0.6-5.4 0.9-0.7 0.1-1.3 0-1.9 0-16.2 0.6-32.4 0.4-48.4 2.2-13.7 1.6-27.2 5.7-40.8 8.4-8.3 1.7-16 5-22.9 9.7-4.4 3-8.4 6.5-12.2 10.2-2.8 2.8-2.2 11.8 1.3 15.5 8.9 9.2 19.8 14.9 32.2 17.6 5.7 1.2 11.4 2 17.6 3.4zm86.4-24.6c0.6 2.6 2.3 5.1 1.7 5.8-2.6 3.5-5.7 6.7-9 9.5-0.7 0.6-2.8-0.5-4.3-0.8 0.8-1 1.7-2 2.5-2.9 0.5-0.4 1.1-0.7 1.5-1.1 4.1-4.1 3.6-8.7-1.6-10.4-8.9-2.9-17.8-6.2-27.4-6-3.3 0.1-6.7-2-9.8-1.7-9.2 0.9-18.3 2.2-27.4 3.9-2.4 0.5-4.7 2.6-6.8 4.3-3.6 2.8-3.6 6.2 0.1 8.5 5.4 3.2 11.1 7.4 16.9 7.8 9.3 0.7 18.8 6 28.3 0.6 0.7-0.4 2.5 1.4 3.8 2.1-0.9 0.7-1.8 1.9-2.8 2-14.6 2.5-29.3 3.1-43.8-0.6-3-0.7-5.7-3.6-8.1-6-7.9-7.6-6.4-16.5 3.2-21.7 10.6-5.8 22-9.7 34-8.5 15.6 1.4 31.4 2.9 45.4 11.4 1.2 0.8 2.4 1.9 3.6 3.8zm-70-15.9c-8 3.1-15.6 5.6-23.1 8.3-2.8 0.9-5.5 2.3-8.1 3.7-7.3 3.9-8.1 7.3-3.7 13.8 0.9 1.5 1.7 3.1 2.6 4.7-2.4 0.1-5.1 1.1-7.1 0.3-5-2.1-7.4-12.1-3.8-16.3 3.8-4.4 7.6-9.1 13.9-10.1 10-1.6 19.1-8.4 29.3-4.4zm75.3 1c6.4 3 12.3 5.6 12 13.6 0 0.9-0.3 1.8-0.4 2.7-0.7-0.3-1.6-0.4-2-1-7.2-9.9-18.2-11.6-29-13.9-0.9-0.2-2 0.1-2.7-0.4-0.9-0.7-1.6-1.8-2.3-2.7 0.8-0.2 1.7-0.8 2.5-0.7 7.2 0.6 14.3 1.3 21.9 2.4zm-320.3-33.8c-4.7 3.4-8.9 6.4-13.2 9.3-1.5 1-3 2-4.7 2.7-0.6 0.3-1.7-0.4-2.5-0.6 0.3-0.5 0.5-1 0.8-1.4 6.6-7.9 12.9-16 19.9-23.5 5.1-5.5 11-10.1 16.7-15 11.4-9.9 19.2-21.9 23.2-36.7 4.5-16.7 9.7-33.2 14.2-50 0.7-2.6 1.4-5.9-4.2-6.1-8.1-0.3-16.3-2.1-24.4-3.6-9.2-1.8-18.4-3.6-27.5-5.9-5.7-1.4-11.3-3.7-16.9-5.7-0.8-0.4-1.4-1.5-2.1-2.3 1-0.5 2-1.5 2.9-1.4 6.4 0.5 12.9 1 19.4 2 6.6 0.9 13 3.1 19.6 3.5 9.9 0.5 19.6 3.4 29.3 3.6 14.4 0.3 29 2.3 43.6-1.2 6.1-1.4 12.8-1.1 18.8-3.7 10.8-4.8 21.5-10.1 32.3-14.9 11.2-5 22.7-8.2 35-8.7 12.3-0.6 24.6-1.3 36.8-1.9 2.2-0.1 4.5-0.1 6.6 0.4 1 0.2 1.7 1.7 2.5 2.6-0.9 0.3-1.7 0.6-2.6 0.8-9.5 2-18.9 4-28.5 5.8-14.2 2.6-28.9 3-42.2 9.6-9.1 4.5-18.5 8.5-27.1 13.7-8.7 5.2-18.4 6-27.8 7.4-9.9 1.5-20 1.8-30 1.9-4.7 0.1-5.2 4-5.4 5.9-2.1 15.4-6.1 30.3-10 45.1-5.3 20.2-13.5 38.4-32.2 50.3-7.3 4.7-13.2 11.6-20.3 18zm368-111.4c3.2-3.8 6.5-7.5 9.4-11.5 0.7-0.9 0.2-2.6 0.3-3.9-1.3 0.7-3 1-3.9 2.1-4 4.3-7.7 8.9-11.7 13.4-1.9 2.1-4.2 4-6 6.2-0.5 0.6 0.1 2.1 0.2 3.2 0.8-0.1 2 0.1 2.5-0.4 2.9-2.6 5.5-5.4 9.2-9.1zm-525.7-300.9c2.6-9.2 5.4-17.4 7.7-25.8 3.5-12.4 6.5-24.9 10.1-37.3 3.2-10.8 6.4-21.7 12.2-31.6 1.6-2.8 1.6-5.6-0.9-8.5-4.8-5.6-4.7-11.8-2.7-19 3-10.4 7.8-19.4 14.4-27.8 1.4-1.7 1.8-4.7 1.6-7-1.5-16 4.9-29.8 11.9-43.3 4.1-8.1 10.2-15 15.3-22.6 11-16.7 23-32.6 33-49.9 3.1-5.4 9-10.1 14.7-12.9 27.7-14.1 56.4-25.5 86.7-32.7 7.3-1.7 14.3-4.2 21.5-6.4 0.5-0.2 1.1-1.3 1.4-1.2 1.3 0.6 2.6 1.4 3.9 2.1-0.6 1.2-1 2.9-2 3.3-5.2 2.3-10.5 4.1-15.8 6.1-13.3 5.2-26.7 10.1-39.9 15.5-15.3 6.5-30.3 13.7-45.7 20-8.8 3.6-15.1 10.1-19.1 17.9-8.7 17.1-19.5 32.7-31.1 47.9-9.5 12.5-17.9 25.7-24.5 40-3.4 7.4-5.3 15.2-6.5 23.3-0.8 5.6-2.7 11-4.5 16.5-1 3.3-2.7 6.5-4 9.9-0.9 2.3-1.6 4.8-2.5 7.2 2.3-1.1 4.5-2.5 6.9-3.3 8.4-2.9 16.7-5.6 25.9-2.7 6.8 2.2 14.1 3 21.2 4.7 4 0.9 8.2 2 11.9 3.8 16.5 8.5 33.3 16.7 46 30.7 4.4 4.9 7.6 11.8 8.8 18.3 1.2 6.8-3.4 13.1-7 19.1-0.3 0.5-0.9 0.8-1.3 1.3-0.3-0.9-0.9-1.7-0.9-2.5 0-4.6 1.2-8.9 0.4-13.9q-1.9-13.8-12.1-21c-14.7-10.4-29.9-20.2-47.6-24.7-10.2-2.6-20.4-5.2-30.8-7.2-6-1.2-9.8 1.9-12.3 7.7-6.8 16.3-12.8 32.6-17.7 49.7-6.1 21.5-10.6 43.5-18.3 64.6-4.3 11.8-6.5 24.3-10.3 36.3-3.7 11.3-8.3 22.4-10.3 34.3-2.5 14.7-3.2 29.6 9.5 40.2 5.7 4.8 13.5 7.9 20.8 9.9 10.5 2.9 21.4 5.1 32.3 5.5 4.5 0.2 9.1 0.1 13.8 0.4 20.6 0.9 41.2 1.5 61.9 2 11.5 0.3 22.8-1.6 34.1-3.7 7.3-1.3 14.9-1.1 22.3-2.1 8.7-1.3 17.3-3.1 26-4.7 1.7-0.4 3.5-1 5.3-1 15.2-0.3 30-4.3 44.9-5.4 13.4-0.9 26.4-4 39.8-4.7 24.8-1.4 47.9 5.7 71.4 10.8 10.8 2.4 22 5.5 31.3 12.8 0.5 0.4 1.2 0.8 1.9 1.2-0.6 0.2-1.1 0.7-1.6 0.7-2.3 0.1-5 0.8-6.7-0.1-13.6-7.5-28.6-7.4-43.3-9.7-16.8-2.8-33.6-5.8-50.7-5.6-12 0.2-23.6 3-35.2 5.7-9.4 2.2-18.9 4.1-28.5 5.8-5.4 1-11.3 0.4-16.4 2.2-5.9 2.1-11.7 1.4-17.6 1.7-12 0.7-24 0.4-35.8 2.1-19.1 2.8-38.1 4-57.3 3.7-5.6 0-10.9-1.6-16.8-0.3-5.5 1.3-11.5 0.6-17.3 0.2-4.2-0.4-4.9 1.6-4.4 4.9 0.6 4.3 0.7 8.7 2 12.7 3.8 11.2 2.3 22.8 1.4 33.9-0.9 11-3.6 21.9-3.5 33.2 0.1 7.5 2.7 14.2 5.9 20.7 0.6 1.1 1.6 2 2.7 2.7 10.8 7.1 21.7 14.2 32.6 21.3 1 0.6 2.1 1.5 2.8 2.5 0.4 0.6 0.5 1.9 0.1 2.5-0.4 0.5-1.9 1-2.4 0.7-10.2-6.7-22.7-7.4-33.1-13.5-12.5-7.3-18.7-18.4-19.9-32.1-1-11.7 1.7-23.4 3-35.1 1.4-12.6 6.1-25.7 0.9-38.9-1.4-3.3-0.3-7.6-0.2-11.5 0.1-3.8-1.4-6.2-5.5-5.8-12 1.1-23.6-1.3-35-4-12.3-2.8-24.5-6.6-34-15.6-6.9-6.6-10.1-15-10.5-24.6-0.1-3.9-1.9-7.9-1.7-11.7 0.3-5.8 1.2-11.6 2.7-17.2 2.8-10.4 6.4-20.5 9.4-30.8 3.8-13.3 7.3-26.6 10.9-40.8zm466.9-46.3c9.1-3.6 17.1-7.4 25.4-10.8 1.8-0.7 3.6-4.1 5.9-1.2 1.8 2.4 4.7 5.7 4.2 8-1.8 7.8-4 15.6-7.4 22.9-3.1 6.5-10.1 8.8-16.9 9.9-9.7 1.6-19.5 2.7-29.3 4-7.5 0.9-9.8 3.9-11 11.2-1.5 9.2-1.4 18.8-4.9 27.8-2.2 5.5-1 8.2 4.7 11.7 5.4 3.2 10.9 6.2 16.6 8.8 1.9 0.8 4.2 1.4 5.2-2.8 3.2-13.4 7.4-26.5 11.4-39.6 1.4-4.6 3.1-9 5-13.4 0.4-0.9 2.6-1 3.9-1.5-0.4 0.9-1.3 1.9-1.2 2.7 1.5 13-5.8 24.4-6.1 37.2-0.2 6-3.1 12.1-5 18-0.9 2.8-0.7 4.8 1.6 6.6 3.6 3 7.2 5.9 10.8 8.9 4.8 4.1 9.6 8.1 14.2 12.3 6.2 5.7 11 12 11.8 21.2 0.8 8.6 5 16.6 7.8 24.7 3.5 9.9-0.4 17.9-2.5 26.6-0.8 3.2-7.1 4.3-11.2 2.8-8.6-3.1-14.5-9.4-18.7-17-5.8-10.3-13-19.3-20.6-28.1-0.7-0.9-1-2.2-1.4-3.3 1.1-0.3 2.2-1 3.3-0.9 1.5 0 3.5 0.1 4.4 1 5.2 5.4 10.5 10.9 15.3 16.8 4.1 4.9 7.5 10.4 11.4 15.5 1.5 1.9 3.5 3.7 5.6 5.1 0.8 0.5 2.4-0.1 3.6-0.2-0.4-0.9-0.8-1.8-1.2-2.7-6.6-18-14.2-35.4-28.1-49.1-4.6-4.4-10.3-7.7-15.4-11.6-1-0.7-1.9-1.7-2.8-2.6 1.4-0.4 3-1.5 4.1-1.1 12.1 4.5 23.7 9.9 30.6 21.6 2.2 3.7 4.3 7.3 6.6 10.8 0.5 0.8 1.3 1.4 2 2.1 0.4-1.1 1.1-2.2 1-3.2-0.2-1.7-1-3.4-1.5-5.1-3.9-12.2-14-19-23.4-26.3-3.6-2.8-7.5-5.3-11-8.1-12-9.6-26-15.4-40.5-18.4-10.9-2.3-22.3-4.6-34.1-0.9-8.1 2.6-17.4 1.1-26.1 2.4-11.6 1.7-23.4 1.6-35.1 3.4-10.6 1.7-21.8 0.4-32.7 0.2-1.2 0-2.5-1.7-3.7-2.6 1.2-0.6 2.4-1.7 3.7-1.9 2.7-0.6 5.5-1.1 8.2-1.1 13.3 0 26.2-3.1 39.1-5.7 5.1-1.1 10.4-1.7 15.6-2 14.1-0.7 27.9-3.9 41.9-5.5 5.7-0.7 11.7-1.7 17.7 1.2 5.5 2.7 8.4-0.3 8.7-6.9 0.6-10.7 1.2-21.3 1.9-32 0.5-6.1 0.8-12.4 2.1-18.4 0.9-4.3 3-8.5 5.3-12.2 4.4-7.1 7.2-14.3 8.3-22.7 1.6-11.6 5.2-22.9 7.9-34.2 0.5-2.1 0.8-4.2 1.5-6.2 0.7-1.9 1.7-3.8 2.6-5.6 0.4 1.9 1.1 3.8 1.2 5.7 0.4 9.7-0.5 19-3.6 28.4-1.8 5.4-0.7 11.6-1.6 17.5-1.5 9.5-4.9 17.9-8.5 26.5-0.7 1.8-0.9 3.9-1.3 5.9 2.1 0.2 4.4 0.9 6.4 0.4 9.6-2.3 19.3-4.7 28.6-7.7 2.8-0.9 5.1-3.9 7-6.4 2.2-3.1 3.8-6.6 5.7-10-4-0.5-7.4 2.4-10.7 2.7-7.1 0.6-13.8 2-20.5 4.1-1 0.3-2.3-0.6-3.4-0.9 0.7-1.3 1.1-3.3 2.2-3.8 2.6-1.4 5.6-2 9.4-2.9zm-369 67c5.5-8.7 10.1-17.2 15.6-25 7.8-11.1 16.3-21.6 24.4-32.3 0.6-0.8 1.4-1.4 2.1-2.1 0.6-0.6 1.3-1.1 2-1.6 0.3 1.1 1.1 2.6 0.7 3.5-2.5 5.7-4.8 11.6-8.1 16.8-8.6 13.6-17.6 26.8-26.5 40.2-1 1.5-1.8 3-2.7 4.6-0.7 1.4-1.4 2.7-2.2 4.1 1.7 0.6 3.4 1.9 5 1.8 3.3-0.2 6.6-1.8 9.8-1.7 8.5 0.3 16.9 0.7 25.2 2 8.6 1.3 17.1 3.6 25.6 5.6 11.1 2.7 22.2 5.5 33.3 8.1 2.9 0.7 6 1.5 9 1.5 19.6 0.1 39.2 0 58.8 0.1 1.3 0 2.5 0.8 3.8 1.2-1.2 0.8-2.4 2.4-3.7 2.5-13.7 1.5-26.9 6.7-41 6.1-6.1-0.3-12.3 1.4-18.4 1.7-12.8 0.6-24.6-3.9-36.8-6.6-11.2-2.5-22.4-5.2-33.7-7.2-14.7-2.5-29.4-4.5-44.2-5.8-11.1-0.9-22-3.6-33.2-3.6-0.8 0-1.7-0.4-2.6-0.6 0.7-0.9 1.3-2.3 2.2-2.6 2.8-1.1 5.7-2 8.7-2.4 2.8-0.4 5.7-0.3 8.6-0.1 7.5 0.8 14.1-0.1 18.3-8.2zm82-96.4c0.3 7.1-3.6 11.9-7.8 16.4-4.6 5-9.5 9.6-14.3 14.3-0.8 0.9-1.8 1.6-2.7 2.3-0.2-1.5-1.2-3.4-0.6-4.5 2.4-4.8 5.2-9.4 8-14 1-1.5 2.5-2.8 3.4-4.4 5.2-8.8 5.7-11.8-0.1-19.8-9.1-12.5-19.7-23.4-33.8-31-15.6-8.3-31.3-15.9-48.2-20.9-9.7-2.9-19.4-5.5-29.6-5.5-1.3 0-2.7-0.9-4-1.3 1-1.5 1.8-4.1 3-4.3 6.1-1 12.6-2.9 18.4-1.8 12 2.2 23.9 5.6 35.5 9.5 23.6 7.9 44.9 19.8 60.6 39.5 5.7 7.2 12.4 14.6 12.2 25.5zm312.5-140.9c6.4 10.9 13 21 17.9 31.9 1.7 3.9 3.7 9.1 1.2 14.4-1 2.2 1.5 5.8 1.6 8.8 0.8 20.5 1.7 41.1 1.9 61.7 0.1 13-7 24-11.9 35.5-0.2 0.4-1.2 0.7-1.6 0.6-0.7-0.4-1.8-1.1-1.7-1.6 0.1-2.1 0.3-4.4 1.1-6.3 5.4-12.9 6.4-26.1 2.7-39.7-0.2-0.6 0-1.2-0.1-1.9-0.6-11.9-1.5-23.8-1.8-35.8-0.3-8.1-1.5-16.2-0.3-24.4 1.3-8.2-3.5-15-7-22-3.5-7-6.5-14.4-6.2-22.5 0-0.7 1.5-1.3 2.2-2 0.5 0.9 1 1.9 2 3.3zm-285.5 118.7c-4.3 9.3-12.9 12.8-20 18-0.7 0.5-2.8 0.5-3.1 0.1-0.6-1-0.9-2.7-0.4-3.6 1.9-3.1 3.9-6.3 6.4-8.9 8-8.1 13.9-17.6 18.6-27.9 3.7-8.1 7.9-16.1 12.1-23.9 0.7-1.2 3-1.5 4.5-2.3-0.2 1.3-0.3 2.7-0.6 4-2 10-3.4 20.2-8.3 29.3-2.8 5-5.8 9.8-9.2 15.2zm189.1-183.3c1.3-11.2 4.7-21 11.1-29.8 0.6-0.7 1.9-1 2.9-1.5 0.2 1.1 0.7 2.2 0.5 3.2-2.4 10.6-5.9 21.1-7 31.7-1.7 16.3 4.4 31 12.8 44.7 2.5 4.1 5.2 8.2 8.2 12 5.9 7.4 13.7 9.1 23 4 6-3.3 11.9-7.1 19-7.6 1.8-0.1 3.6-1.2 5.3-1.1 2.2 0.1 4.4 1 6.6 1.5-1.5 2-2.6 4.6-4.6 5.7-3.4 1.7-7.5 2.1-11 3.6-5.4 2.4-10.6 5.3-15.9 8.1-5.8 3.1-11.7 3-17.6 0.3-8-3.7-14.1-8.9-17.6-17.4-3.5-8.2-8.8-15.7-12.2-23.9-4.4-10.5-4.4-21.8-3.5-33.5zm-23.7 65.1c0.6 0.7 0.3 1.8-0.1 1.9-15.8 1.9-28.9-4.7-40.2-14.5-14.1-12.3-27.9-25.2-40.6-38.9-9-9.7-18.5-19.2-25.7-30.7-5.8-9.3-13.5-17.5-20.2-26.3-4-5.5-3.7-6.3 2.6-9.3 2.9-1.3 6-2.7 9.2-3.3 5.4-1.1 10.9-1.7 16.4-2.3 5-0.6 7.9 1.6 10 6.3 8.7 19.4 21.4 36.4 34 53.3 7.5 10.2 16.8 19.7 27.1 27 11.9 8.4 26 13.2 40.6 15.6 4.6 0.7 9.2 1 13.7 2.1 1.6 0.4 2.7 2.7 4.1 4.2-1.7 1.1-3.4 3.3-5 3.2-5.9-0.3-11.7-0.9-17.4-2.1-15-3.1-28.2-9.6-40.5-18.8-14.1-10.6-26.5-22.6-38-36-10.2-12-18.8-24.5-25-38.9-0.9-2.1-1.4-5.6-2.9-6-2.9-0.9-6.3-0.2-9.4 0.1-1.4 0.1-2.7 1.2-4.2 1.5-4.7 1-5.6 2.8-2.7 6.3 9.7 11.8 19.6 23.4 29.2 35.1 7.7 9.4 14.2 19.8 22.8 28.1 11.2 10.8 22.2 22 35.2 30.9 7.1 4.9 15 7.4 23 9.6 1.1 0.4 2.1 1.3 4 1.9zm212.7-84.4c-3.7 5.6-6.8 10.7-10.1 15.8-5.3 8.1-13.8 11.5-22.6 12.4-7.7 0.7-10.6 5.4-14.1 10.6-4.6 6.7-6.2 15-12.6 20.9-2.8 2.6-5.4 3.9-9.2 3.5-2.5-0.2-5.2 0.3-7.7-0.1-4.6-0.6-7.6 1.3-10.7 4.5-8.3 8.6-12.8 9.1-23.7 4.1-2.4-1.1-5-2-3.4-5.1 0.5-1 3.6-1.9 4.7-1.3 9.1 4.8 14.9-0.5 19.8-6.7 4.8-6.2 11.6-6.9 16.9-4.3 6.4 3 8.3-0.9 10.4-4.2 3.1-5.1 5.1-10.7 7.9-16 4.6-8.9 10.3-15.6 21.9-15.6 5.7 0 12.1-1.9 16-7.7 3.8-5.5 8-10.9 12.3-16 2-2.3 4.8-3.8 7.4-5.5 0.6-0.4 2.1-0.3 2.5 0.2 0.5 0.5 0.6 2 0.2 2.6-1.7 2.6-3.6 5-5.9 7.9zm20.8-0.5c-7.8-11.5-15.3-22.3-23.2-32.8-6-7.9-12.2-15.5-18.4-23.2-4-4.8-8.5-9.3-12.2-14.2-6-8.1-5.3-16.6 0.6-26.3 8.5-13.7 17-27.6 24.5-41.9 4.6-8.9 7.5-18.7 11-28.2 0.4-1.3 0.2-3.1-0.2-4.5-1.2-4.6-2.8-9.1-4-13.7-0.3-1.5-0.5-3.8 0.3-4.5 1.2-1.1 3.7-2 5-1.4 2.7 1.2 5.1 3.2 7.4 5.2 7.3 6.5 14.7 13 21.7 19.8 12.9 12.5 24.1 26.6 32.6 42.4 6.9 12.9 8 26.6 5.5 41.7-3 18-11.4 31.9-23.8 44.2-7 7-6.7 7.4-1.1 16.1 7.5 11.6 15.2 23.1 21.7 35.3 3.8 7.4 7.9 15.2 6.6 24.3-0.7 5.6-2.2 6.5-7.7 5.3-19.6-4.4-31.1-18.1-40.6-34.3-1.7-2.9-3.8-5.6-5.7-9.3zm5.8-41.4c1.8 1.8 3.6 3.6 5.4 5.4 0.7 0.8 1.2 1.8 1.8 2.8-1.2 0.1-2.5 0.5-3.6 0.4-0.8-0.1-1.6-1-2.3-1.5-10.7-7.5-21.4-15-32.2-22.5-1.7-1.1-3.6-2-5.5-2.9-0.4-0.2-1.5 0.1-1.6 0.4-0.4 0.8-0.7 1.9-0.4 2.6 0.3 0.8 1.3 1.4 2 2 16.4 15.3 27.5 34.7 40.2 52.8 6.1 8.8 10.4 19 19.1 25.8 4.6 3.6 9.4 6.9 14.1 10.2 1 0.8 2.2 1.2 3.4 1.7 0-1.3 0.5-2.8 0-3.8-3-5.8-7.3-11.2-9.2-17.4-4.4-14.2-13.2-26.1-20.1-38.9-2.8-5.3-2.6-8.8 1.1-14.1 7-10.2 16.2-19.1 19.8-31.3 1.4-4.6 1.1-9.8 2.9-14.2 4.3-10.4 1.5-20.4-2.8-29.3-11.4-23.1-29.1-41.7-45.5-61.1-0.7-0.7-2.2-0.7-3.3-1 0 1.1-0.1 2.2-0.1 3.3 0.2 5.8 2 12.2 0.3 17.4-4.9 15.2-13.5 28.7-22.3 41.8-4.9 7.4-10.3 14.5-15.6 21.5-4.5 5.9-4.5 6.7 1.7 10.7 4.8 3.1 9.8 5.9 14.7 8.9 13.4 8.3 26.1 17.7 38 30.3zm-83.5 43.9c2.7 5.2 1.1 10.2-3.2 10.9-1.5 0.2-3.7-0.6-4.7-1.8-1-1.2-1.6-3.9-0.9-4.9 2-2.6 4.1-5.7 8.8-4.2zm4.4-21.7c10.9 4.3 18.6 10.4 19.7 22.4 0.3 3.2 0 5.4-2.3 7.3-0.5 0.3-2.1 0-2.6-0.6-1.7-2.1-3.2-4.4-4.8-6.6q-6.9-9.5-13.9-19c-3.6-5 0.7-3.4 3.9-3.5zm-135.6-108.6c-6.1 8.1-11.8 15.7-17.5 23.4-0.6 0.9-1.3 2.3-1.2 3.3 0.4 2 1.5 3.9 2 5.9 0.3 1.3-0.1 3.7 0.3 3.9 2.1 0.5 4.3 0.5 6.5 0.7 1.3 0.1 2.7-0.3 3.8 0.2 1.1 0.5 1.9 1.7 2.6 2.7 0.1 0.2-1.1 1.6-1.9 2-5.5 2.3-11.1 6.5-16.5 6.2-8.4-0.5-13.7 3.8-18.9 8.3-11.2 9.5-22.9 18.6-35.8 25.5-7.8 4.2-16.2 8.7-25.9 7.2-0.9-0.2-1.8-0.4-2.7-0.6 0.7-0.9 1.1-2.2 2-2.7 6.3-3.3 12.9-6.1 19.1-9.7 7.5-4.4 14.9-9.2 22-14.3 8.5-6.1 16.7-12.6 24.9-19.1 1.2-0.9 2.9-2.4 2.8-3.5-0.5-8.8 5.6-14.5 9.9-21 9-13.8 20.4-25.3 33.6-35.1 1.2-0.9 2.6-1.6 4-2 0.8-0.2 1.7 0.4 2.6 0.7-0.3 0.4-0.5 0.9-0.9 1.3-4.7 5.4-9.5 10.8-14.8 16.7zm35.3 62.3c0.6 3.2 1 5.6 2 7.8 0.8 1.8 3.5 3.5 3.3 4.8-0.4 1.9-8.2 1.2-10.1-1.2-1.4-1.7-2.6-4.1-2.9-6.4-1.6-12.3 3.5-22.8 10.8-32 5.7-7.2 12.2-13.8 21.1-17.9 6.7-3.2 11.9-0.3 17.6 1.1 1.7 0.5 3.6 3.7 3.9 5.8 0.8 4.4 2.3 7.7 6.7 9 2.5 0.7 0.9 1.4 0.2 2.4-2.7 3.9-5.3 8.1-8.2 11.9-4.8 6.4-9.9 12.6-14.9 18.8-0.5 0.6-1.4 0.8-2 1.2-0.2-0.6-0.5-1.1-0.5-1.7-0.7-5.3 2.8-9.1 4.9-13.3 1.6-3 4.4-5.2 6-8.2 2.4-4.5 4.2-9.1 0.7-14.5-3.7-5.8-6.4-7.4-12.1-4.2-12.1 6.6-19.8 17-24.6 29.7-0.8 1.9-1.3 3.9-1.9 6.9zm40.5 1.9c7.3-17.1 21.2-22.9 37.6-25.3 6.8-0.9 12.7-0.3 18.3 3.2 0.8 0.4 1.2 1.3 1.8 2-0.9 0.3-1.7 0.8-2.6 0.8-17.9-0.4-32.7 8.9-48.3 15.5-2.5 1.1-4.6 3.1-6.8 3.8zm-74.8-20.8c5.2-0.5 9.3-0.4 5.5 6.3-1.2 2.1 0.4 3.3 3 2.7 2.9-0.7 6-1.8 8.9-1.5 2.3 0.1 6.1-2.6 6.9 1.8 0.2 0.9-3.3 2.7-5.3 3.7-5.3 2.6-10.7 5-16.2 7.2-1.4 0.6-3.4-0.2-5.1-0.3 1.7-2-2.6-2.6-0.9-5.4 3-4.9-0.4-4.5-3.9-3.4-0.7 0.2-2.4-0.2-2.5-0.6-0.1-1-0.1-2.6 0.5-3.1 2.7-2.5 5.7-4.6 9.1-7.4zm146.1 3.4c-5.9 0.3-9.7-4-14-7.3-12.7-9.8-25.1-20-38.1-29.2-16.7-11.8-35.5-19.7-53.6-29-4.4-2.3-9.3-3.9-13.9-5.8-0.6-0.2-1.6 0.2-1.9-0.1-1.8-1.7-5.2-4.3-4.8-5.3 1.2-3 3.9-1.9 7-1.4 17.6 2.7 32.7 11.4 47.9 19.5 14.6 7.7 28.4 16.7 40.4 28.4 7.1 6.9 15.4 12.6 22.8 19.2 3.2 2.9 5.5 6.7 8.2 11zm-55.9-127.3c-6.5 1.3-12.2 2.2-17.7 4-6.7 2.1-13.6 4.5-19.8 7.8-3.5 1.8-4.5 6.1-5.1 10.3-0.6 4.1-1.5 8.9-4.1 11.6-4.1 4.4-9.7 7.3-14.8 10.6-0.8 0.5-2.4-0.2-3.6-0.4 0.3-1.3 0.3-3.1 1.1-3.9 6.3-6.1 10.1-12.7 10.2-22 0.2-7 5-12.3 11.1-16.1 8.3-5 16.8-8.7 26.8-10 12.4-1.5 24.6-4.1 37-3.4 20.2 1.1 40 4 57.2 15.5 4.9 3.2 9.1 7.7 13.5 11.7 0.3 0.2 0.3 1.2 0.1 1.3-0.5 0.2-1.2 0.5-1.7 0.3-9.5-3.4-19.2-6.5-28.4-10.6-9.6-4.3-19.8-5.7-30-6.5-10.2-0.8-20.6-0.2-31.8-0.2z"/>
	</g>
</svg>