<svg fill="#000000" xmlns="http://www.w3.org/2000/svg"  viewBox="0 0 48 48" width="24px" height="24px"><path d="M 13.923828 6.9375 C 7.8791957 6.9375 2.9437206 11.857592 2.9160156 17.898438 L 2.9160156 17.902344 L 2.9160156 30.099609 L 2.9160156 30.103516 C 2.9437206 36.14436 7.8791957 41.0625 13.923828 41.0625 C 16.874444 41.0625 19.555316 39.884698 21.535156 37.982422 C 25.546665 39.875352 30.431713 39.245444 33.693359 36.013672 L 33.695312 36.011719 L 42.042969 27.666016 L 42.044922 27.664062 C 46.196702 23.47384 46.050173 16.602907 41.794922 12.347656 C 39.667296 10.220031 36.886405 9.1199996 34.113281 9.0703125 C 31.340158 9.0206255 28.573669 10.022307 26.478516 12.097656 L 26.476562 12.099609 L 24.289062 14.287109 C 22.773111 10.016337 18.701047 6.9375 13.923828 6.9375 z M 13.923828 9.9375 C 18.351196 9.9375 21.909392 13.486954 21.929688 17.912109 L 21.929688 23 L 21.011719 23 L 18.726562 21.476562 A 1.50015 1.50015 0 0 0 17.876953 21.224609 A 1.50015 1.50015 0 0 0 17.0625 21.476562 L 14.400391 23.251953 A 1.50015 1.50015 0 1 0 16.064453 25.748047 L 17.894531 24.527344 L 19.724609 25.748047 A 1.50015 1.50015 0 0 0 20.556641 26 L 21.929688 26 L 21.929688 30.089844 C 21.910238 34.513499 18.351005 38.0625 13.923828 38.0625 C 9.4964608 38.0625 5.9363106 34.515 5.9160156 30.089844 L 5.9160156 30 L 7.7148438 30 L 11.275391 33.560547 A 1.50015 1.50015 0 0 0 12.337891 34 L 14.5 34 A 1.50015 1.50015 0 1 0 14.5 31 L 12.958984 31 L 9.3984375 27.439453 A 1.50015 1.50015 0 0 0 8.3378906 27 L 5.9160156 27 L 5.9160156 20 L 9.1367188 20 A 1.50015 1.50015 0 0 0 10.308594 19.4375 L 13.058594 16 L 14.5 16 A 1.50015 1.50015 0 1 0 14.5 13 L 12.337891 13 A 1.50015 1.50015 0 0 0 11.166016 13.5625 L 8.4160156 17 L 5.9746094 17 C 6.4413967 13.009936 9.8057612 9.9375 13.923828 9.9375 z M 34.082031 12.052734 C 36.082673 12.091662 38.100363 12.895284 39.673828 14.46875 C 42.822577 17.617499 42.890283 22.548957 39.914062 25.552734 L 35.4375 30.029297 L 33 28.888672 L 33 27.179688 A 1.50015 1.50015 0 0 0 32.560547 26.119141 L 30.785156 24.34375 A 1.50015 1.50015 0 0 0 29.708984 23.890625 A 1.50015 1.50015 0 0 0 28.664062 26.464844 L 30 27.800781 L 30 29.841797 A 1.50015 1.50015 0 0 0 30.863281 31.201172 L 33.179688 32.285156 L 31.582031 33.882812 C 29.410714 36.034243 26.234224 36.582965 23.449219 35.541016 C 24.377933 33.93641 24.920988 32.082423 24.929688 30.103516 L 24.929688 30.099609 L 24.929688 30.095703 L 24.929688 17.902344 L 24.929688 17.898438 C 24.929675 17.89581 24.929701 17.893252 24.929688 17.890625 L 27.003906 15.816406 A 1.50015 1.50015 0 0 0 27.291016 15.916016 L 30.755859 16.773438 L 32.382812 19.744141 A 1.50015 1.50015 0 1 0 35.013672 18.302734 L 33.070312 14.753906 A 1.50015 1.50015 0 0 0 32.115234 14.019531 L 29.603516 13.398438 C 30.933787 12.476851 32.501067 12.021973 34.082031 12.052734 z"/></svg>