<?xml version="1.0" encoding="utf-8"?>
<!-- Generator: Adobe Illustrator 22.0.1, SVG Export Plug-In . SVG Version: 6.00 Build 0)  -->
<svg version="1.1" id="Layer_2" xmlns="http://www.w3.org/2000/svg" xmlns:xlink="http://www.w3.org/1999/xlink" x="0px" y="0px"
	 viewBox="0 0 256 256" style="enable-background:new 0 0 256 256;" xml:space="preserve">
<style type="text/css">
	.st0{fill:#3A312A;}
	.st1{fill:#D7E057;}
	.st2{fill:#FCE8CB;}
	.st3{fill:#8AC6DD;}
	.st4{fill-rule:evenodd;clip-rule:evenodd;fill:#FCE8CB;}
	.st5{fill:#F5978A;}
	.st6{fill:#87796F;}
	.st7{fill:#F16C7A;}
	.st8{fill:#68A8BC;}
	.st9{fill:#B9BC39;}
	.st10{fill:#CE4E61;}
	.st11{fill:#6B5B51;}
	.st12{fill:#CCAE8B;}
	.st13{fill-rule:evenodd;clip-rule:evenodd;fill:#F16C7A;}
</style>
<g>
	<g>
		<g>
			<path class="st1" d="M192.233,108.88c-1.56,0-3.1,0.08-4.62,0.25l-2.47,14.62c2.27-0.57,4.65-0.87,7.09-0.87
				c16.26,0,29.49,13.23,29.49,29.49s-13.23,29.49-29.49,29.49c-5.93,0-11.46-1.76-16.09-4.8l-2.47,14.63
				c5.63,2.68,11.92,4.17,18.56,4.17c23.98,0,43.49-19.51,43.49-43.49S216.213,108.88,192.233,108.88z"/>
		</g>
	</g>
	<g>
		<g>
			<path class="st0" d="M192.233,107.38c-1.638,0-3.248,0.087-4.787,0.259c-0.665,0.074-1.2,0.581-1.313,1.241l-2.471,14.62
				c-0.084,0.5,0.09,1.008,0.461,1.352c0.373,0.344,0.891,0.477,1.384,0.353c2.18-0.547,4.442-0.825,6.726-0.825
				c15.434,0,27.989,12.556,27.989,27.99c0,15.434-12.556,27.99-27.989,27.99c-5.451,0-10.73-1.575-15.268-4.554
				c-0.423-0.277-0.957-0.323-1.423-0.121c-0.465,0.203-0.795,0.626-0.88,1.125l-2.47,14.63c-0.111,0.661,0.229,1.316,0.835,1.604
				c6.015,2.863,12.477,4.315,19.205,4.315c24.808,0,44.989-20.182,44.989-44.99S217.041,107.38,192.233,107.38z M192.233,194.36
				c-5.897,0-11.574-1.195-16.891-3.553l1.911-11.322c4.567,2.541,9.701,3.875,14.979,3.875c17.088,0,30.989-13.902,30.989-30.99
				s-13.901-30.99-30.989-30.99c-1.767,0-3.522,0.15-5.245,0.448l1.913-11.315c1.083-0.088,2.2-0.133,3.332-0.133
				c23.153,0,41.989,18.837,41.989,41.99S215.387,194.36,192.233,194.36z"/>
		</g>
	</g>
	<g>
		<g>
			<path class="st6" d="M36.043,220.073c0,10.728,8.697,19.426,19.425,19.426h135.461c10.729,0,19.426-8.697,19.426-19.426H36.043z"
				/>
		</g>
	</g>
	<g>
		<g>
			<path class="st0" d="M210.355,218.573H36.043c-0.828,0-1.5,0.671-1.5,1.5c0,11.539,9.387,20.926,20.925,20.926h89.35
				c0.828,0,1.5-0.671,1.5-1.5s-0.672-1.5-1.5-1.5h-89.35c-9.379,0-17.099-7.24-17.862-16.426h171.188
				c-0.764,9.186-8.484,16.426-17.863,16.426h-31.851c-0.828,0-1.5,0.671-1.5,1.5s0.672,1.5,1.5,1.5h31.851
				c11.538,0,20.926-9.387,20.926-20.926C211.855,219.244,211.184,218.573,210.355,218.573z"/>
		</g>
	</g>
	<g>
		<g>
			<ellipse class="st2" cx="122.883" cy="91" rx="57.836" ry="31"/>
		</g>
	</g>
	<g>
		<g>
			<path class="st0" d="M122.883,58.5c-32.718,0-59.336,14.58-59.336,32.5s26.618,32.5,59.336,32.5s59.336-14.58,59.336-32.5
				S155.601,58.5,122.883,58.5z M122.883,120.5c-31.063,0-56.336-13.233-56.336-29.5s25.272-29.5,56.336-29.5
				s56.336,13.233,56.336,29.5S153.946,120.5,122.883,120.5z"/>
		</g>
	</g>
	<g>
		<g>
			<path class="st1" d="M51.188,26.178c-0.974,11.564-13.024,13.39-13.024,13.39c10.347,0.487,12.925,14.059,12.925,14.059
				C51.31,43.95,64.41,39.425,64.41,39.425C54.596,38.838,51.188,26.178,51.188,26.178z"/>
		</g>
	</g>
	<g>
		<g>
			<path class="st0" d="M64.5,37.927c-8.604-0.514-11.832-12.024-11.863-12.14c-0.19-0.702-0.844-1.162-1.584-1.102
				c-0.725,0.066-1.298,0.642-1.359,1.367c-0.859,10.215-11.313,11.963-11.754,12.032c-0.763,0.115-1.313,0.79-1.273,1.561
				c0.04,0.77,0.657,1.384,1.428,1.421c9.027,0.425,11.498,12.719,11.521,12.843c0.138,0.711,0.76,1.217,1.473,1.217
				c0.042,0,0.084-0.001,0.126-0.005c0.765-0.064,1.357-0.693,1.375-1.459c0.193-8.509,12.191-12.777,12.313-12.819
				c0.676-0.235,1.092-0.914,0.994-1.623C65.797,38.511,65.214,37.97,64.5,37.927z M50.934,48.273
				c-1.356-3.131-3.709-6.907-7.587-8.876c2.931-1.405,6.409-3.913,8.202-8.273c1.551,3.071,4.2,6.88,8.334,8.722
				C56.875,41.486,52.96,44.251,50.934,48.273z"/>
		</g>
	</g>
	<g>
		<g>
			<path class="st1" d="M29.49,43.159c-0.689,8.179-9.212,9.471-9.212,9.471c7.318,0.344,9.142,9.944,9.142,9.944
				c0.156-6.844,9.422-10.045,9.422-10.045C31.9,52.113,29.49,43.159,29.49,43.159z"/>
		</g>
	</g>
	<g>
		<g>
			<path class="st0" d="M38.932,51.031c-5.767-0.345-7.973-8.185-7.995-8.264c-0.189-0.702-0.867-1.164-1.581-1.102
				c-0.726,0.065-1.3,0.643-1.361,1.368c-0.578,6.871-7.646,8.066-7.941,8.113c-0.763,0.115-1.313,0.79-1.273,1.561
				c0.04,0.77,0.657,1.384,1.428,1.421c6.035,0.284,7.723,8.644,7.738,8.726c0.136,0.713,0.759,1.22,1.473,1.22
				c0.041,0,0.083-0.001,0.124-0.005c0.766-0.063,1.359-0.694,1.377-1.461c0.13-5.709,8.332-8.634,8.413-8.662
				c0.676-0.234,1.093-0.913,0.996-1.622C40.23,51.615,39.646,51.074,38.932,51.031z M29.347,57.826
				c-0.924-1.885-2.34-3.947-4.447-5.279c1.855-1.042,3.697-2.63,4.87-4.917c1.058,1.874,2.655,3.955,4.941,5.224
				C32.861,53.954,30.723,55.594,29.347,57.826z"/>
		</g>
	</g>
	<g>
		<g>
			<path class="st1" d="M29.49,16.501c-0.689,8.179-9.212,9.471-9.212,9.471c7.318,0.344,9.142,9.944,9.142,9.944
				c0.156-6.844,9.422-10.045,9.422-10.045C31.9,25.456,29.49,16.501,29.49,16.501z"/>
		</g>
	</g>
	<g>
		<g>
			<path class="st0" d="M38.932,24.374c-5.767-0.345-7.973-8.186-7.995-8.265c-0.189-0.702-0.867-1.163-1.581-1.102
				c-0.726,0.065-1.3,0.643-1.361,1.368c-0.578,6.871-7.646,8.067-7.941,8.114c-0.763,0.115-1.313,0.79-1.273,1.561
				c0.04,0.77,0.657,1.384,1.428,1.421c6.035,0.284,7.723,8.644,7.738,8.726c0.136,0.713,0.759,1.22,1.473,1.22
				c0.041,0,0.083-0.001,0.124-0.005c0.766-0.063,1.359-0.694,1.377-1.461c0.13-5.709,8.332-8.634,8.412-8.662
				c0.677-0.234,1.094-0.913,0.997-1.622C40.23,24.958,39.646,24.417,38.932,24.374z M29.347,31.168
				c-0.924-1.886-2.34-3.947-4.447-5.28c1.855-1.041,3.697-2.63,4.87-4.916c1.058,1.874,2.655,3.954,4.941,5.224
				C32.861,27.296,30.723,28.937,29.347,31.168z"/>
		</g>
	</g>
	<g>
		<g>
			<path class="st1" d="M176.229,90.808H69.898c-7.481,0-13.212,6.653-12.104,14.052l6.726,44.913l2.313,15.441l6.655,44.433
				c0.897,5.992,6.044,10.426,12.104,10.426h72.945c5.973,0,11.073-4.312,12.068-10.201l17.692-104.787
				C189.558,97.617,183.803,90.808,176.229,90.808z"/>
		</g>
	</g>
	<g>
		<g>
			<path class="st0" d="M186.723,94.179c-2.616-3.095-6.44-4.87-10.493-4.87H69.898c-4.003,0-7.797,1.739-10.409,4.772
				s-3.771,7.043-3.179,11.002l6.727,44.913c0.123,0.82,0.877,1.38,1.706,1.261c0.818-0.123,1.384-0.886,1.261-1.706l-6.727-44.913
				c-0.463-3.095,0.442-6.229,2.484-8.6s5.008-3.73,8.137-3.73h106.331c3.168,0,6.157,1.387,8.201,3.807
				c2.045,2.419,2.915,5.597,2.387,8.72l-17.691,104.787c-0.875,5.187-5.328,8.951-10.589,8.951H85.592
				c-5.273,0-9.839-3.933-10.62-9.148l-6.655-44.433c-0.123-0.82-0.882-1.382-1.706-1.261c-0.818,0.123-1.384,0.886-1.261,1.706
				l6.655,44.433c0.999,6.672,6.84,11.704,13.587,11.704h72.945c6.729,0,12.428-4.816,13.548-11.452l17.691-104.786
				C190.451,101.339,189.338,97.273,186.723,94.179z"/>
		</g>
	</g>
	<g>
		<g>
			<path class="st0" d="M94.872,33.128l-0.435-0.375c-2.263-1.947-3.504-4.504-3.494-7.2c0.01-2.701,1.273-5.255,3.554-7.189
				l0.071-0.06l-0.967-1.147l-1.041-1.084c-2.965,2.514-4.604,5.876-4.617,9.47c-0.013,3.587,1.599,6.956,4.537,9.485l0.435,0.375
				c2.273,1.955,3.514,4.523,3.494,7.23c-0.02,2.718-1.306,5.281-3.622,7.217c-0.636,0.531-0.721,1.477-0.189,2.113
				c0.297,0.355,0.723,0.538,1.152,0.538c0.339,0,0.68-0.114,0.961-0.349c3.004-2.51,4.673-5.883,4.698-9.497
				C99.436,39.05,97.824,35.667,94.872,33.128z"/>
		</g>
	</g>
	<g>
		<g>
			<path class="st0" d="M115,33.126l-0.435-0.373c-2.263-1.947-3.504-4.504-3.494-7.2c0.01-2.701,1.273-5.255,3.563-7.196l0.07-0.06
				c0.629-0.538,0.669-1.453,0.133-2.083c-0.536-0.631-1.516-0.678-2.147-0.142c-2.965,2.514-4.604,5.876-4.618,9.469
				c-0.013,3.588,1.599,6.957,4.538,9.487l0.435,0.373c2.272,1.956,3.513,4.524,3.493,7.231c-0.02,2.718-1.306,5.281-3.622,7.216
				c-0.636,0.531-0.721,1.477-0.189,2.113c0.297,0.355,0.723,0.538,1.152,0.538c0.339,0,0.68-0.114,0.961-0.349
				c3.003-2.509,4.672-5.882,4.698-9.496C119.563,39.051,117.952,35.668,115,33.126z"/>
		</g>
	</g>
	<g>
		<g>
			<path class="st0" d="M133.789,33.128l-0.435-0.375c-2.264-1.947-3.504-4.505-3.494-7.201c0.01-2.701,1.273-5.255,3.562-7.195
				l0.07-0.06c0.629-0.538,0.669-1.453,0.133-2.083c-0.536-0.631-1.517-0.678-2.147-0.142c-2.965,2.513-4.604,5.876-4.617,9.469
				c-0.014,3.588,1.598,6.957,4.537,9.486l0.435,0.375c2.272,1.956,3.514,4.523,3.494,7.231c-0.02,2.718-1.306,5.281-3.622,7.216
				c-0.636,0.531-0.721,1.477-0.189,2.113c0.297,0.355,0.723,0.538,1.152,0.538c0.339,0,0.68-0.114,0.961-0.349
				c3.003-2.509,4.672-5.882,4.698-9.496C138.353,39.051,136.741,35.667,133.789,33.128z"/>
		</g>
	</g>
	<g>
		<g>
			<path class="st0" d="M153.917,33.128l-0.435-0.375c-2.264-1.947-3.505-4.504-3.495-7.2c0.01-2.701,1.273-5.255,3.563-7.196
				l0.07-0.06c0.629-0.538,0.669-1.453,0.133-2.083c-0.537-0.631-1.517-0.678-2.147-0.142c-2.965,2.514-4.604,5.876-4.618,9.47
				c-0.013,3.588,1.599,6.957,4.538,9.485l0.435,0.375c2.272,1.956,3.514,4.523,3.494,7.231c-0.02,2.718-1.306,5.281-3.622,7.216
				c-0.636,0.531-0.721,1.477-0.189,2.113c0.297,0.355,0.723,0.538,1.152,0.538c0.339,0,0.68-0.114,0.961-0.349
				c3.003-2.509,4.672-5.882,4.698-9.496C158.48,39.051,156.869,35.667,153.917,33.128z"/>
		</g>
	</g>
	<g>
		<g>
			<path class="st12" d="M122.883,61.5c-1.89,0-3.76,0.05-5.6,0.14c27.36,1.44,49.01,13.17,50.58,27.67h8.37
				c0.99,0,1.97,0.11,2.92,0.31C177.773,73.99,153.063,61.5,122.883,61.5z"/>
		</g>
	</g>
	<g>
		<g>
			<path class="st9" d="M184.433,96.11c-2.05-2.41-5.04-3.8-8.2-3.8h-11.26c3.16,0,6.15,1.39,8.2,3.8c2.04,2.42,2.91,5.6,2.39,8.73
				l-17.7,104.78c-0.87,5.19-5.32,8.95-10.58,8.95h11.25c5.26,0,9.72-3.76,10.59-8.95l17.69-104.78
				C187.343,101.71,186.473,98.53,184.433,96.11z"/>
		</g>
	</g>
	<g>
		<g>
			<path class="st11" d="M193.093,221.57c-0.76,9.19-8.48,16.43-17.86,16.43h15.7c9.38,0,17.1-7.24,17.86-16.43H193.093z"/>
		</g>
	</g>
</g>
</svg>
