<?xml version="1.0" encoding="utf-8"?>
<!-- Generator: Adobe Illustrator 22.0.1, SVG Export Plug-In . SVG Version: 6.00 Build 0)  -->
<svg version="1.1" id="Layer_2" xmlns="http://www.w3.org/2000/svg" xmlns:xlink="http://www.w3.org/1999/xlink" x="0px" y="0px"
	 viewBox="0 0 256 256" style="enable-background:new 0 0 256 256;" xml:space="preserve">
<style type="text/css">
	.st0{fill:#3A312A;}
	.st1{fill:#D7E057;}
	.st2{fill:#FCE8CB;}
	.st3{fill:#8AC6DD;}
	.st4{fill-rule:evenodd;clip-rule:evenodd;fill:#FCE8CB;}
	.st5{fill:#F5978A;}
	.st6{fill:#87796F;}
	.st7{fill:#F16C7A;}
	.st8{fill:#68A8BC;}
	.st9{fill:#B9BC39;}
	.st10{fill:#CE4E61;}
	.st11{fill:#6B5B51;}
	.st12{fill:#CCAE8B;}
	.st13{fill-rule:evenodd;clip-rule:evenodd;fill:#F16C7A;}
</style>
<g>
	<g>
		<g>
			
				<ellipse transform="matrix(0.7071 -0.7071 0.7071 0.7071 -59.0529 133.3399)" class="st7" cx="131.429" cy="137.953" rx="101.833" ry="101.833"/>
		</g>
	</g>
	<g>
		<g>
			<path class="st0" d="M204.497,64.886c-40.289-40.29-105.846-40.289-146.135,0c-40.289,40.29-40.289,105.845,0,146.135
				c20.145,20.145,46.606,30.217,73.068,30.217c26.461,0,52.923-10.072,73.067-30.217c19.517-19.517,30.266-45.466,30.266-73.067
				C234.762,110.352,224.014,84.403,204.497,64.886z M202.375,208.899c-39.12,39.12-102.772,39.12-141.893,0
				c-39.12-39.12-39.12-102.772,0-141.893c19.56-19.56,45.253-29.34,70.946-29.34c25.693,0,51.387,9.78,70.947,29.34
				c18.95,18.951,29.387,44.146,29.387,70.946C231.762,164.753,221.326,189.949,202.375,208.899z"/>
		</g>
	</g>
	<g>
		<g>
			<path class="st2" d="M212.437,198.166l-14.451-14.451c-2.744,3.998-5.897,7.797-9.448,11.347
				c-3.551,3.551-7.35,6.704-11.347,9.448l14.451,14.451c2.874,2.874,6.63,4.308,10.398,4.302c3.762,0,7.53-1.434,10.398-4.302
				C218.179,213.219,218.179,203.908,212.437,198.166z"/>
		</g>
	</g>
	<g>
		<g>
			<path class="st0" d="M213.498,197.105l-14.451-14.451c-0.315-0.315-0.756-0.475-1.198-0.433
				c-0.444,0.041-0.847,0.277-1.099,0.645c-2.706,3.942-5.825,7.689-9.272,11.135c-3.446,3.446-7.193,6.566-11.135,9.271
				c-0.368,0.252-0.604,0.655-0.645,1.099c-0.041,0.444,0.118,0.883,0.433,1.198l14.451,14.451
				c3.058,3.058,7.117,4.741,11.431,4.741h0.028c4.332,0,8.401-1.684,11.458-4.741C219.816,213.704,219.816,203.423,213.498,197.105
				z M211.376,217.9c-2.49,2.491-5.806,3.862-9.339,3.862h-0.023c-3.514,0-6.821-1.371-9.312-3.862l-13.189-13.19
				c3.555-2.56,6.941-5.443,10.085-8.588c3.145-3.145,6.028-6.531,8.588-10.085l13.19,13.189
				C216.525,204.375,216.525,212.752,211.376,217.9z"/>
		</g>
	</g>
	<g>
		<g>
			<circle class="st2" cx="131.429" cy="137.953" r="80.764"/>
		</g>
	</g>
	<g>
		<g>
			<path class="st0" d="M189.599,79.784c-32.075-32.076-84.264-32.075-116.339,0c-32.075,32.075-32.075,84.265,0,116.339
				c16.038,16.038,37.104,24.056,58.17,24.056c21.066,0,42.132-8.019,58.169-24.056C221.673,164.048,221.673,111.858,189.599,79.784
				z M187.477,194.001c-30.905,30.905-81.191,30.906-112.097,0c-30.905-30.905-30.905-81.191,0-112.097
				c15.453-15.453,35.751-23.179,56.048-23.179c20.298,0,40.596,7.726,56.049,23.179
				C218.382,112.81,218.382,163.096,187.477,194.001z"/>
		</g>
	</g>
	<g>
		<g>
			<path class="st6" d="M179.537,89.845c-22.003-22.003-55.319-25.765-81.213-11.326l-12.56,9.003
				c-0.828,0.751-1.644,1.524-2.443,2.323c-26.569,26.569-26.569,69.647,0,96.216s69.647,26.569,96.216,0
				C206.107,159.492,206.107,116.414,179.537,89.845z"/>
		</g>
	</g>
	<g>
		<g>
			<path class="st0" d="M180.598,88.785c-21.872-21.873-56.004-26.632-83.004-11.575c-0.724,0.403-0.983,1.317-0.58,2.041
				c0.403,0.723,1.316,0.982,2.041,0.58c25.835-14.406,58.493-9.852,79.422,11.076c25.942,25.942,25.942,68.153,0,94.095
				c-25.942,25.941-68.153,25.941-94.095,0c-25.942-25.942-25.942-68.153,0-94.095c0.745-0.745,1.549-1.509,2.391-2.272
				c0.613-0.557,0.66-1.505,0.104-2.119c-0.557-0.613-1.505-0.66-2.119-0.104c-0.877,0.795-1.717,1.594-2.496,2.374
				c-27.112,27.111-27.112,71.226,0,98.337c13.556,13.556,31.362,20.334,49.169,20.334c17.806,0,35.613-6.778,49.169-20.334
				C207.709,160.01,207.709,115.896,180.598,88.785z"/>
		</g>
	</g>
	<g>
		<g>
			<path class="st1" d="M53.649,25.891C52.675,37.454,40.624,39.28,40.624,39.28c10.347,0.487,12.925,14.059,12.925,14.059
				C53.77,43.662,66.87,39.137,66.87,39.137C57.057,38.55,53.649,25.891,53.649,25.891z"/>
		</g>
	</g>
	<g>
		<g>
			<path class="st0" d="M66.96,37.64c-8.605-0.515-11.833-12.024-11.864-12.141c-0.191-0.703-0.86-1.165-1.583-1.102
				c-0.725,0.066-1.298,0.642-1.359,1.367C51.294,35.98,40.84,37.729,40.399,37.797c-0.763,0.115-1.313,0.79-1.273,1.561
				c0.04,0.77,0.657,1.384,1.428,1.421c9.028,0.425,11.498,12.718,11.522,12.842c0.137,0.711,0.759,1.217,1.472,1.217
				c0.042,0,0.084-0.001,0.126-0.005c0.764-0.064,1.357-0.693,1.374-1.459c0.195-8.509,12.192-12.777,12.313-12.819
				c0.675-0.235,1.092-0.914,0.994-1.623C68.258,38.224,67.674,37.683,66.96,37.64z M53.394,47.985
				c-1.356-3.13-3.709-6.907-7.587-8.876c2.931-1.405,6.409-3.913,8.202-8.273c1.551,3.071,4.199,6.88,8.334,8.723
				C59.336,41.199,55.42,43.964,53.394,47.985z"/>
		</g>
	</g>
	<g>
		<g>
			<path class="st1" d="M31.95,42.871c-0.689,8.179-9.213,9.47-9.213,9.47c7.318,0.344,9.142,9.944,9.142,9.944
				c0.156-6.844,9.422-10.045,9.422-10.045C34.361,51.825,31.95,42.871,31.95,42.871z"/>
		</g>
	</g>
	<g>
		<g>
			<path class="st0" d="M41.392,50.743c-5.766-0.345-7.972-8.186-7.994-8.265c-0.19-0.702-0.852-1.167-1.582-1.102
				c-0.726,0.065-1.299,0.642-1.36,1.368c-0.579,6.871-7.647,8.067-7.943,8.114c-0.763,0.115-1.313,0.79-1.273,1.561
				c0.04,0.77,0.657,1.384,1.428,1.421c6.035,0.284,7.724,8.644,7.739,8.726c0.135,0.712,0.759,1.22,1.473,1.22
				c0.041,0,0.082-0.001,0.125-0.005c0.765-0.063,1.358-0.694,1.376-1.461c0.13-5.709,8.331-8.633,8.412-8.661
				c0.676-0.234,1.094-0.913,0.996-1.622C42.69,51.328,42.106,50.786,41.392,50.743z M31.807,57.538
				c-0.924-1.886-2.34-3.947-4.447-5.28c1.855-1.041,3.697-2.63,4.871-4.917c1.057,1.874,2.654,3.955,4.941,5.224
				C35.322,53.667,33.183,55.306,31.807,57.538z"/>
		</g>
	</g>
	<g>
		<g>
			<path class="st1" d="M31.95,16.214c-0.689,8.179-9.213,9.471-9.213,9.471c7.318,0.344,9.142,9.944,9.142,9.944
				c0.156-6.844,9.422-10.045,9.422-10.045C34.361,25.168,31.95,16.214,31.95,16.214z"/>
		</g>
	</g>
	<g>
		<g>
			<path class="st0" d="M41.392,24.085c-5.766-0.345-7.972-8.186-7.994-8.265c-0.19-0.702-0.852-1.167-1.582-1.102
				c-0.726,0.065-1.299,0.642-1.36,1.368c-0.579,6.871-7.647,8.067-7.943,8.114c-0.763,0.115-1.313,0.79-1.273,1.561
				c0.04,0.77,0.657,1.384,1.427,1.421c6.036,0.284,7.724,8.644,7.74,8.726c0.135,0.712,0.759,1.22,1.472,1.22
				c0.042,0,0.083-0.001,0.125-0.005c0.765-0.063,1.358-0.694,1.376-1.461c0.13-5.709,8.331-8.634,8.412-8.662
				c0.676-0.234,1.094-0.913,0.996-1.622C42.69,24.67,42.106,24.128,41.392,24.085z M31.807,30.881
				c-0.924-1.886-2.341-3.947-4.448-5.28c1.856-1.042,3.698-2.63,4.871-4.917c1.057,1.874,2.654,3.955,4.941,5.224
				C35.322,27.009,33.183,28.648,31.807,30.881z"/>
		</g>
	</g>
	<g>
		<g>
			<path class="st1" d="M134.19,84.614c-1.45-1.7-4.073-1.7-5.523,0c-3.532,4.139-9.985,11.93-16.584,21.021l-6.608,9.538
				c-1.689,2.569-3.317,5.173-4.845,7.771l-7.003,13.938c-1.855,4.667-2.98,9.02-2.98,12.737c0,22.523,18.259,40.782,40.782,40.782
				c22.523,0,40.781-18.259,40.781-40.782C172.211,130.674,143.359,95.358,134.19,84.614z"/>
		</g>
	</g>
	<g>
		<g>
			<path class="st0" d="M135.331,83.64c-0.977-1.145-2.399-1.801-3.903-1.801c-1.503,0-2.926,0.657-3.902,1.801
				c-3.33,3.903-9.922,11.835-16.676,21.141l-6.628,9.568c-1.74,2.645-3.383,5.281-4.885,7.834c-0.42,0.714-0.182,1.633,0.533,2.053
				c0.715,0.42,1.634,0.182,2.053-0.533c1.477-2.51,3.093-5.103,4.785-7.677l6.588-9.511c6.675-9.196,13.21-17.06,16.512-20.929
				c0.813-0.951,2.43-0.95,3.241,0c8.835,10.354,37.662,45.569,37.662,64.031c0,21.66-17.621,39.281-39.282,39.281
				s-39.282-17.622-39.282-39.281c0-3.287,0.967-7.386,2.874-12.183c0.306-0.77-0.07-1.642-0.84-1.948
				c-0.768-0.306-1.642,0.069-1.948,0.84c-2.048,5.151-3.086,9.623-3.086,13.291c0,23.314,18.967,42.281,42.282,42.281
				s42.282-18.967,42.282-42.281C173.711,130.662,146.871,97.163,135.331,83.64z"/>
		</g>
	</g>
	<g>
		<g>
			<path class="st0" d="M131.429,82.378c-0.829,0-1.5,0.671-1.5,1.5V190.4c0,0.829,0.671,1.5,1.5,1.5s1.5-0.671,1.5-1.5V83.878
				C132.929,83.05,132.258,82.378,131.429,82.378z"/>
		</g>
	</g>
	<g>
		<g>
			<path class="st0" d="M149.67,101.63c-0.586-0.586-1.535-0.586-2.121,0l-17.108,17.108c-0.586,0.585-0.586,1.536,0,2.121
				c0.293,0.293,0.677,0.439,1.061,0.439s0.768-0.146,1.06-0.439l17.108-17.108C150.256,103.166,150.256,102.215,149.67,101.63z"/>
		</g>
	</g>
	<g>
		<g>
			<path class="st0" d="M161.539,118.96c-0.586-0.586-1.535-0.586-2.121,0l-28.978,28.978c-0.586,0.585-0.586,1.536,0,2.121
				c0.293,0.293,0.677,0.439,1.061,0.439s0.768-0.146,1.06-0.439l28.978-28.978C162.125,120.496,162.125,119.546,161.539,118.96z"/>
		</g>
	</g>
	<g>
		<g>
			<path class="st0" d="M171.633,139.534c-0.586-0.586-1.535-0.586-2.121,0l-39.072,39.072c-0.586,0.585-0.586,1.536,0,2.121
				c0.293,0.293,0.677,0.439,1.061,0.439s0.768-0.146,1.06-0.439l39.072-39.072C172.219,141.069,172.219,140.119,171.633,139.534z"
				/>
		</g>
	</g>
	<g>
		<g>
			<path class="st0" d="M132.483,118.738l-17.109-17.108c-0.586-0.586-1.535-0.586-2.121,0c-0.586,0.586-0.586,1.536,0,2.121
				l17.109,17.108c0.293,0.293,0.677,0.439,1.061,0.439c0.384,0,0.767-0.146,1.06-0.439
				C133.069,120.273,133.069,119.324,132.483,118.738z"/>
		</g>
	</g>
	<g>
		<g>
			<path class="st0" d="M132.483,147.938l-28.978-28.978c-0.586-0.586-1.535-0.586-2.121,0c-0.586,0.585-0.586,1.536,0,2.121
				l28.978,28.978c0.293,0.293,0.677,0.439,1.061,0.439c0.384,0,0.767-0.146,1.06-0.439
				C133.069,149.474,133.069,148.523,132.483,147.938z"/>
		</g>
	</g>
	<g>
		<g>
			<path class="st0" d="M132.483,178.606l-39.072-39.072c-0.586-0.586-1.535-0.586-2.121,0c-0.586,0.585-0.586,1.536,0,2.121
				l39.072,39.072c0.293,0.293,0.677,0.439,1.061,0.439c0.384,0,0.767-0.146,1.06-0.439
				C133.069,180.142,133.069,179.191,132.483,178.606z"/>
		</g>
	</g>
	<g>
		<g>
			<path class="st11" d="M178.481,90.904c-14.09-14.09-33.5-20.76-52.56-19.2c15.38,1.24,30.29,7.78,41.71,19.2
				c12.56,12.57,19.48,29.28,19.48,47.05s-6.92,34.48-19.48,47.05c-11.28,11.27-25.9,18-41.62,19.26c1.8,0.15,3.6,0.22,5.42,0.22
				c17.77,0,34.48-6.92,47.05-19.48c12.56-12.57,19.48-29.28,19.48-47.05S191.041,103.474,178.481,90.904z"/>
		</g>
	</g>
</g>
</svg>
