<svg fill="#000000" xmlns="http://www.w3.org/2000/svg"  viewBox="0 0 48 48" width="24px" height="24px"><path d="M 24 2.9882812 C 22.514682 2.9882813 21.030361 3.3356862 19.671875 4.03125 A 1.50015 1.50015 0 0 0 19.667969 4.0332031 L 7.9824219 10.048828 C 6.1540644 10.99046 5 12.882081 5 14.939453 L 5 31.060547 C 5 33.117292 6.1527495 35.008284 7.9824219 35.949219 L 19.667969 41.966797 A 1.50015 1.50015 0 0 0 19.669922 41.96875 C 22.386894 43.359878 25.611153 43.359878 28.328125 41.96875 A 1.50015 1.50015 0 0 0 28.332031 41.966797 L 40.017578 35.949219 C 41.845936 35.007587 42.998047 33.117292 42.998047 31.060547 L 42.998047 14.939453 C 42.998047 12.883203 41.846485 10.991947 40.017578 10.050781 L 40.015625 10.050781 L 28.332031 4.0332031 A 1.50015 1.50015 0 0 0 28.330078 4.03125 C 26.971639 3.3356831 25.485318 2.9882812 24 2.9882812 z M 24 5.9882812 C 25.015682 5.9882812 26.032376 6.2266888 26.962891 6.703125 L 38.642578 12.716797 A 1.50015 1.50015 0 0 0 38.644531 12.71875 C 39.478859 13.147815 39.998047 14.000198 39.998047 14.939453 L 39.998047 31.060547 C 39.998047 31.999802 39.478221 32.852835 38.642578 33.283203 L 26.960938 39.296875 C 25.101208 40.249082 22.90122 40.249659 21.041016 39.298828 L 21.037109 39.296875 L 9.3554688 33.283203 A 1.50015 1.50015 0 0 0 9.3554688 33.28125 C 8.5210871 32.852185 8 31.999802 8 31.060547 L 8 14.939453 C 8 13.998825 8.5198262 13.147165 9.3554688 12.716797 L 21.039062 6.703125 C 21.969577 6.2266888 22.984318 5.9882813 24 5.9882812 z M 11.470703 13.490234 A 1.50015 1.50015 0 0 0 10.808594 16.330078 L 19.640625 20.919922 C 20.546915 21.390594 21.517048 21.646273 22.5 21.804688 L 22.5 36.5 A 1.50015 1.50015 0 1 0 25.5 36.5 L 25.5 21.804688 C 26.482952 21.646272 27.451132 21.390594 28.357422 20.919922 A 1.50015 1.50015 0 0 0 28.359375 20.919922 L 37.191406 16.332031 A 1.5007827 1.5007827 0 1 0 35.808594 13.667969 L 26.974609 18.257812 C 26.047522 18.738934 25.03537 18.976673 24.023438 18.980469 A 1.50015 1.50015 0 0 0 23.970703 18.978516 C 22.960192 18.973716 21.94912 18.738557 21.023438 18.257812 L 12.191406 13.669922 A 1.50015 1.50015 0 0 0 11.470703 13.490234 z M 31.5 25 A 1.5 1.5 0 0 0 31.5 28 A 1.5 1.5 0 0 0 31.5 25 z M 34.5 29 A 1.5 1.5 0 0 0 34.5 32 A 1.5 1.5 0 0 0 34.5 29 z M 29.5 30 A 1.5 1.5 0 0 0 29.5 33 A 1.5 1.5 0 0 0 29.5 30 z"/></svg>