<svg fill="#000000" xmlns="http://www.w3.org/2000/svg"  viewBox="0 0 48 48" width="24px" height="24px"><path d="M 23.880859 3.8652344 C 23.465195 3.8521479 23.051021 3.9165415 22.662109 4.0507812 C 21.884755 4.3190991 21.205886 4.8704271 20.800781 5.6523438 C 20.358895 6.5061286 19.552034 7.8113688 17.904297 8.5019531 C 15.634942 9.4528475 14.111635 10.389575 13.101562 11.601562 C 12.398632 12.445011 12.101619 13.407199 11.939453 14.373047 C 8.3349506 14.947303 5.2265625 17.650834 5.2265625 21.703125 C 5.2265625 22.840638 5.5269581 23.946002 5.9980469 25 L 5.5 25 C 3.5850452 25 2 26.585045 2 28.5 C 2 37.568182 9.4318182 45 18.5 45 L 29.5 45 C 38.594719 45 46 37.594719 46 28.5 C 46 26.585045 44.414955 25 42.5 25 L 42.105469 25 C 42.483543 24.040715 42.773438 22.964978 42.773438 21.701172 C 42.773438 19.155741 41.568614 16.896187 39.605469 15.423828 C 37.904014 14.147737 35.614664 13.523162 33.066406 13.349609 C 32.598545 11.465718 31.683657 9.6946362 30.408203 8.2109375 C 28.857191 6.406691 26.974318 4.9562439 25.111328 4.1425781 C 24.713679 3.9688872 24.296524 3.8783208 23.880859 3.8652344 z M 23.775391 6.859375 C 23.81955 6.8618594 23.864805 6.8727691 23.910156 6.8925781 C 25.225166 7.4669123 26.861825 8.6875117 28.132812 10.166016 C 29.403802 11.644519 30.295782 13.370732 30.443359 14.847656 A 1.50015 1.50015 0 0 0 31.935547 16.199219 C 34.486547 16.199219 36.499833 16.845578 37.804688 17.824219 C 39.109541 18.80286 39.773438 20.044603 39.773438 21.701172 C 39.773438 23.04445 39.304298 24.144226 38.785156 25 L 9.46875 25 C 8.6383212 24.011589 8.2265625 22.916496 8.2265625 21.703125 C 8.2265625 19.16202 9.950724 17.656491 12.244141 17.291016 C 12.698592 18.536222 13.435163 19.630983 14.478516 20.320312 C 15.973674 21.308145 17.766104 21.839164 19.509766 22.181641 C 22.99709 22.866594 26.386719 22.734375 26.386719 22.734375 A 1.50015 1.50015 0 1 0 26.28125 19.736328 C 26.28125 19.736328 23.136566 19.837078 20.087891 19.238281 C 18.563553 18.938883 17.086701 18.447919 16.130859 17.816406 C 15.201674 17.202506 14.801816 16.631046 14.779297 15.701172 A 1.50015 1.50015 0 0 0 14.78125 15.570312 C 14.78855 14.652133 14.900069 14.128852 15.40625 13.521484 C 15.927904 12.89555 17.016827 12.125419 19.064453 11.267578 C 21.644716 10.186162 22.90473 8.1134651 23.464844 7.03125 C 23.523321 6.9182515 23.642911 6.8519219 23.775391 6.859375 z M 5.5 28 L 42.5 28 C 42.795045 28 43 28.204955 43 28.5 C 43 35.973281 36.973281 42 29.5 42 L 18.5 42 C 11.068182 42 5 35.931818 5 28.5 C 5 28.204955 5.2049548 28 5.5 28 z"/></svg>